solid Exported from Blender-2.76 (sub 0)
facet normal -0.689524 -0.631571 0.354507
outer loop
vertex 0.540321 0.288726 0.423457
vertex 0.508779 0.317274 0.412968
vertex 0.487473 0.326094 0.387239
endloop
endfacet
facet normal -0.689524 -0.631570 0.354507
outer loop
vertex 0.487473 0.326094 0.387239
vertex 0.476402 0.315185 0.346271
vertex 0.540321 0.288726 0.423457
endloop
endfacet
facet normal -0.689525 -0.631570 0.354507
outer loop
vertex 0.540321 0.288726 0.423457
vertex 0.476402 0.315185 0.346271
vertex 0.507944 0.286636 0.356760
endloop
endfacet
facet normal -0.689519 -0.631576 0.354507
outer loop
vertex 0.507944 0.286636 0.356760
vertex 0.529250 0.277816 0.382489
vertex 0.540321 0.288726 0.423457
endloop
endfacet
facet normal -0.485951 -0.485237 0.726909
outer loop
vertex 0.545760 0.307672 0.402582
vertex 0.551956 0.341723 0.429454
vertex 0.537481 0.371410 0.439595
endloop
endfacet
facet normal -0.485951 -0.485236 0.726909
outer loop
vertex 0.537481 0.371410 0.439595
vertex 0.502336 0.396734 0.433004
vertex 0.545760 0.307672 0.402582
endloop
endfacet
facet normal -0.485952 -0.485235 0.726910
outer loop
vertex 0.545760 0.307672 0.402582
vertex 0.502336 0.396734 0.433004
vertex 0.496140 0.362684 0.406132
endloop
endfacet
facet normal -0.485955 -0.485236 0.726907
outer loop
vertex 0.496140 0.362684 0.406132
vertex 0.510615 0.332996 0.395992
vertex 0.545760 0.307672 0.402582
endloop
endfacet
facet normal -0.811421 0.571750 0.121235
outer loop
vertex 0.574365 0.235385 0.431748
vertex 0.573224 0.224756 0.474241
vertex 0.584922 0.234801 0.505160
endloop
endfacet
facet normal -0.811422 0.571749 0.121235
outer loop
vertex 0.584922 0.234801 0.505160
vertex 0.609458 0.265521 0.524504
vertex 0.574365 0.235385 0.431748
endloop
endfacet
facet normal -0.811422 0.571749 0.121234
outer loop
vertex 0.574365 0.235385 0.431748
vertex 0.609458 0.265521 0.524504
vertex 0.610599 0.276151 0.482010
endloop
endfacet
facet normal -0.811422 0.571749 0.121236
outer loop
vertex 0.610599 0.276151 0.482010
vertex 0.598901 0.266105 0.451092
vertex 0.574365 0.235385 0.431748
endloop
endfacet
facet normal -0.814526 -0.574550 0.080246
outer loop
vertex 0.591383 0.231948 0.444485
vertex 0.614880 0.201586 0.465603
vertex 0.624787 0.191965 0.497274
endloop
endfacet
facet normal -0.814525 -0.574552 0.080245
outer loop
vertex 0.624787 0.191965 0.497274
vertex 0.621102 0.203085 0.539496
vertex 0.591383 0.231948 0.444485
endloop
endfacet
facet normal -0.814528 -0.574547 0.080247
outer loop
vertex 0.591383 0.231948 0.444485
vertex 0.621102 0.203085 0.539496
vertex 0.597605 0.233447 0.518378
endloop
endfacet
facet normal -0.814526 -0.574551 0.080247
outer loop
vertex 0.597605 0.233447 0.518378
vertex 0.587699 0.243068 0.486707
vertex 0.591383 0.231948 0.444485
endloop
endfacet
facet normal 0.298196 -0.943905 -0.141854
outer loop
vertex 0.428218 0.304552 0.542055
vertex 0.461535 0.310908 0.569796
vertex 0.469987 0.308557 0.603213
endloop
endfacet
facet normal 0.298194 -0.943906 -0.141853
outer loop
vertex 0.469987 0.308557 0.603213
vertex 0.453576 0.297497 0.642307
vertex 0.428218 0.304552 0.542055
endloop
endfacet
facet normal 0.298195 -0.943905 -0.141853
outer loop
vertex 0.428218 0.304552 0.542055
vertex 0.453576 0.297497 0.642307
vertex 0.420260 0.291141 0.614565
endloop
endfacet
facet normal 0.298195 -0.943906 -0.141853
outer loop
vertex 0.420260 0.291141 0.614565
vertex 0.411807 0.293493 0.581148
vertex 0.428218 0.304552 0.542055
endloop
endfacet
facet normal 0.758938 -0.351639 -0.548054
outer loop
vertex 0.426480 0.326276 0.567765
vertex 0.443895 0.366449 0.566105
vertex 0.465683 0.387409 0.582829
endloop
endfacet
facet normal 0.758943 -0.351634 -0.548050
outer loop
vertex 0.465683 0.387409 0.582829
vertex 0.491843 0.389154 0.617937
vertex 0.426480 0.326276 0.567765
endloop
endfacet
facet normal 0.758940 -0.351637 -0.548052
outer loop
vertex 0.426480 0.326276 0.567765
vertex 0.491843 0.389154 0.617937
vertex 0.474428 0.348981 0.619596
endloop
endfacet
facet normal 0.758942 -0.351637 -0.548049
outer loop
vertex 0.474428 0.348981 0.619596
vertex 0.452640 0.328021 0.602872
vertex 0.426480 0.326276 0.567765
endloop
endfacet
facet normal -0.970851 -0.151702 -0.185566
outer loop
vertex 0.409114 0.257595 0.519862
vertex 0.398936 0.292048 0.544949
vertex 0.393862 0.326196 0.543577
endloop
endfacet
facet normal -0.970851 -0.151702 -0.185568
outer loop
vertex 0.393862 0.326196 0.543577
vertex 0.393894 0.360039 0.515745
vertex 0.409114 0.257595 0.519862
endloop
endfacet
facet normal -0.970851 -0.151702 -0.185568
outer loop
vertex 0.409114 0.257595 0.519862
vertex 0.393894 0.360039 0.515745
vertex 0.404072 0.325586 0.490658
endloop
endfacet
facet normal -0.970851 -0.151701 -0.185567
outer loop
vertex 0.404072 0.325586 0.490658
vertex 0.409146 0.291438 0.492031
vertex 0.409114 0.257595 0.519862
endloop
endfacet
facet normal -0.443145 -0.714831 0.540962
outer loop
vertex 0.425242 0.276844 0.522752
vertex 0.443558 0.293015 0.559125
vertex 0.438094 0.315691 0.584613
endloop
endfacet
facet normal -0.443142 -0.714833 0.540961
outer loop
vertex 0.438094 0.315691 0.584613
vertex 0.408851 0.344871 0.599217
vertex 0.425242 0.276844 0.522752
endloop
endfacet
facet normal -0.443144 -0.714832 0.540960
outer loop
vertex 0.425242 0.276844 0.522752
vertex 0.408851 0.344871 0.599217
vertex 0.390535 0.328700 0.562844
endloop
endfacet
facet normal -0.443146 -0.714829 0.540963
outer loop
vertex 0.390535 0.328700 0.562844
vertex 0.395999 0.306024 0.537356
vertex 0.425242 0.276844 0.522752
endloop
endfacet
facet normal -0.389890 -0.546037 -0.741505
outer loop
vertex 0.570386 0.318153 0.569597
vertex 0.584954 0.281593 0.588859
vertex 0.575765 0.257265 0.611606
endloop
endfacet
facet normal -0.389897 -0.546035 -0.741503
outer loop
vertex 0.575765 0.257265 0.611606
vertex 0.542816 0.245170 0.637837
vertex 0.570386 0.318153 0.569597
endloop
endfacet
facet normal -0.389899 -0.546033 -0.741503
outer loop
vertex 0.570386 0.318153 0.569597
vertex 0.542816 0.245170 0.637837
vertex 0.528248 0.281730 0.618575
endloop
endfacet
facet normal -0.389895 -0.546038 -0.741502
outer loop
vertex 0.528248 0.281730 0.618575
vertex 0.537437 0.306058 0.595828
vertex 0.570386 0.318153 0.569597
endloop
endfacet
facet normal 0.545523 -0.712669 -0.441030
outer loop
vertex 0.576334 0.318817 0.607828
vertex 0.612818 0.336380 0.624575
vertex 0.633469 0.335067 0.652242
endloop
endfacet
facet normal 0.545525 -0.712667 -0.441031
outer loop
vertex 0.633469 0.335067 0.652242
vertex 0.638290 0.314876 0.690830
vertex 0.576334 0.318817 0.607828
endloop
endfacet
facet normal 0.545525 -0.712667 -0.441031
outer loop
vertex 0.576334 0.318817 0.607828
vertex 0.638290 0.314876 0.690830
vertex 0.601806 0.297313 0.674084
endloop
endfacet
facet normal 0.545525 -0.712668 -0.441030
outer loop
vertex 0.601806 0.297313 0.674084
vertex 0.581155 0.298626 0.646417
vertex 0.576334 0.318817 0.607828
endloop
endfacet
facet normal -0.840806 0.456755 -0.290551
outer loop
vertex 0.645585 0.279381 0.561161
vertex 0.668810 0.314597 0.549313
vertex 0.685587 0.328388 0.522442
endloop
endfacet
facet normal -0.840804 0.456759 -0.290552
outer loop
vertex 0.685587 0.328388 0.522442
vertex 0.695917 0.320755 0.480550
vertex 0.645585 0.279381 0.561161
endloop
endfacet
facet normal -0.840806 0.456753 -0.290554
outer loop
vertex 0.645585 0.279381 0.561161
vertex 0.695917 0.320755 0.480550
vertex 0.672692 0.285539 0.492399
endloop
endfacet
facet normal -0.840802 0.456762 -0.290551
outer loop
vertex 0.672692 0.285539 0.492399
vertex 0.655915 0.271748 0.519269
vertex 0.645585 0.279381 0.561161
endloop
endfacet
facet normal -0.706925 0.535309 0.462278
outer loop
vertex 0.673352 0.276619 0.553183
vertex 0.703139 0.291243 0.581799
vertex 0.725808 0.316823 0.586844
endloop
endfacet
facet normal -0.706925 0.535307 0.462280
outer loop
vertex 0.725808 0.316823 0.586844
vertex 0.741361 0.353359 0.568319
vertex 0.673352 0.276619 0.553183
endloop
endfacet
facet normal -0.706925 0.535308 0.462278
outer loop
vertex 0.673352 0.276619 0.553183
vertex 0.741361 0.353359 0.568319
vertex 0.711574 0.338735 0.539703
endloop
endfacet
facet normal -0.706925 0.535307 0.462280
outer loop
vertex 0.711574 0.338735 0.539703
vertex 0.688905 0.313155 0.534658
vertex 0.673352 0.276619 0.553183
endloop
endfacet
facet normal 0.325298 -0.556507 0.764514
outer loop
vertex 0.481860 0.390221 0.376359
vertex 0.515813 0.376790 0.352136
vertex 0.548440 0.384849 0.344120
endloop
endfacet
facet normal 0.325299 -0.556505 0.764515
outer loop
vertex 0.548440 0.384849 0.344120
vertex 0.579740 0.414398 0.352311
vertex 0.481860 0.390221 0.376359
endloop
endfacet
facet normal 0.325300 -0.556504 0.764515
outer loop
vertex 0.481860 0.390221 0.376359
vertex 0.579740 0.414398 0.352311
vertex 0.545787 0.427829 0.376534
endloop
endfacet
facet normal 0.325299 -0.556507 0.764513
outer loop
vertex 0.545787 0.427829 0.376534
vertex 0.513160 0.419770 0.384550
vertex 0.481860 0.390221 0.376359
endloop
endfacet
facet normal 0.060246 -0.995322 -0.075529
outer loop
vertex 0.495792 0.415699 0.343716
vertex 0.485541 0.418306 0.301194
vertex 0.499788 0.421544 0.269886
endloop
endfacet
facet normal 0.060246 -0.995322 -0.075530
outer loop
vertex 0.499788 0.421544 0.269886
vertex 0.538532 0.425414 0.249790
vertex 0.495792 0.415699 0.343716
endloop
endfacet
facet normal 0.060244 -0.995322 -0.075531
outer loop
vertex 0.495792 0.415699 0.343716
vertex 0.538532 0.425414 0.249790
vertex 0.548783 0.422808 0.292311
endloop
endfacet
facet normal 0.060243 -0.995322 -0.075527
outer loop
vertex 0.548783 0.422808 0.292311
vertex 0.534536 0.419569 0.323620
vertex 0.495792 0.415699 0.343716
endloop
endfacet
facet normal 0.924979 -0.195614 0.325804
outer loop
vertex 0.411582 0.326313 0.348671
vertex 0.402508 0.346444 0.386518
vertex 0.390096 0.340549 0.418218
endloop
endfacet
facet normal 0.924978 -0.195620 0.325804
outer loop
vertex 0.390096 0.340549 0.418218
vertex 0.374345 0.308629 0.443771
vertex 0.411582 0.326313 0.348671
endloop
endfacet
facet normal 0.924978 -0.195619 0.325805
outer loop
vertex 0.411582 0.326313 0.348671
vertex 0.374345 0.308629 0.443771
vertex 0.383418 0.288498 0.405924
endloop
endfacet
facet normal 0.924978 -0.195616 0.325806
outer loop
vertex 0.383418 0.288498 0.405924
vertex 0.395831 0.294393 0.374224
vertex 0.411582 0.326313 0.348671
endloop
endfacet
facet normal 0.818792 0.572353 0.044625
outer loop
vertex 0.381691 0.326981 0.362081
vertex 0.356865 0.362830 0.357791
vertex 0.339463 0.386285 0.376250
endloop
endfacet
facet normal 0.818793 0.572352 0.044623
outer loop
vertex 0.339463 0.386285 0.376250
vertex 0.329486 0.397346 0.417458
vertex 0.381691 0.326981 0.362081
endloop
endfacet
facet normal 0.818792 0.572354 0.044623
outer loop
vertex 0.381691 0.326981 0.362081
vertex 0.329486 0.397346 0.417458
vertex 0.354312 0.361496 0.421747
endloop
endfacet
facet normal 0.818790 0.572356 0.044623
outer loop
vertex 0.354312 0.361496 0.421747
vertex 0.371714 0.338041 0.403288
vertex 0.381691 0.326981 0.362081
endloop
endfacet
facet normal 0.821633 -0.567262 0.055966
outer loop
vertex 0.411700 0.433021 0.548416
vertex 0.429396 0.455369 0.515138
vertex 0.448946 0.483003 0.508221
endloop
endfacet
facet normal 0.821632 -0.567264 0.055969
outer loop
vertex 0.448946 0.483003 0.508221
vertex 0.470350 0.515923 0.527665
vertex 0.411700 0.433021 0.548416
endloop
endfacet
facet normal 0.821633 -0.567262 0.055967
outer loop
vertex 0.411700 0.433021 0.548416
vertex 0.470350 0.515923 0.527665
vertex 0.452654 0.493576 0.560942
endloop
endfacet
facet normal 0.821634 -0.567261 0.055964
outer loop
vertex 0.452654 0.493576 0.560942
vertex 0.433104 0.465941 0.567859
vertex 0.411700 0.433021 0.548416
endloop
endfacet
facet normal -0.178592 -0.658458 0.731121
outer loop
vertex 0.403733 0.474155 0.540727
vertex 0.430249 0.496606 0.567424
vertex 0.430250 0.522279 0.590546
endloop
endfacet
facet normal -0.178592 -0.658455 0.731124
outer loop
vertex 0.430250 0.522279 0.590546
vertex 0.403734 0.551173 0.610091
vertex 0.403733 0.474155 0.540727
endloop
endfacet
facet normal -0.178593 -0.658455 0.731123
outer loop
vertex 0.403733 0.474155 0.540727
vertex 0.403734 0.551173 0.610091
vertex 0.377218 0.528722 0.583394
endloop
endfacet
facet normal -0.178597 -0.658455 0.731122
outer loop
vertex 0.377218 0.528722 0.583394
vertex 0.377218 0.503049 0.560272
vertex 0.403733 0.474155 0.540727
endloop
endfacet
facet normal 0.294099 -0.954877 -0.041412
outer loop
vertex 0.462310 0.498006 0.707803
vertex 0.483714 0.502954 0.745716
vertex 0.479565 0.500193 0.779904
endloop
endfacet
facet normal 0.294098 -0.954878 -0.041411
outer loop
vertex 0.479565 0.500193 0.779904
vertex 0.449862 0.489724 0.810369
vertex 0.462310 0.498006 0.707803
endloop
endfacet
facet normal 0.294099 -0.954877 -0.041411
outer loop
vertex 0.462310 0.498006 0.707803
vertex 0.449862 0.489724 0.810369
vertex 0.428459 0.484776 0.772457
endloop
endfacet
facet normal 0.294102 -0.954877 -0.041407
outer loop
vertex 0.428459 0.484776 0.772457
vertex 0.432608 0.487536 0.738268
vertex 0.462310 0.498006 0.707803
endloop
endfacet
facet normal 0.711952 -0.689080 -0.135247
outer loop
vertex 0.449418 0.527024 0.736199
vertex 0.478301 0.558668 0.727014
vertex 0.501403 0.579619 0.741881
endloop
endfacet
facet normal 0.711957 -0.689077 -0.135242
outer loop
vertex 0.501403 0.579619 0.741881
vertex 0.518725 0.589878 0.780800
vertex 0.449418 0.527024 0.736199
endloop
endfacet
facet normal 0.711954 -0.689079 -0.135247
outer loop
vertex 0.449418 0.527024 0.736199
vertex 0.518725 0.589878 0.780800
vertex 0.489842 0.558233 0.789985
endloop
endfacet
facet normal 0.711953 -0.689079 -0.135250
outer loop
vertex 0.489842 0.558233 0.789985
vertex 0.466740 0.537282 0.775118
vertex 0.449418 0.527024 0.736199
endloop
endfacet
facet normal -0.243851 -0.568493 0.785718
outer loop
vertex 0.580478 0.486103 0.411379
vertex 0.599579 0.514999 0.438214
vertex 0.593047 0.543416 0.456748
endloop
endfacet
facet normal -0.243852 -0.568492 0.785718
outer loop
vertex 0.593047 0.543416 0.456748
vertex 0.560881 0.571355 0.466980
vertex 0.580478 0.486103 0.411379
endloop
endfacet
facet normal -0.243848 -0.568493 0.785719
outer loop
vertex 0.580478 0.486103 0.411379
vertex 0.560881 0.571355 0.466980
vertex 0.541779 0.542459 0.440145
endloop
endfacet
facet normal -0.243848 -0.568495 0.785717
outer loop
vertex 0.541779 0.542459 0.440145
vertex 0.548311 0.514042 0.421611
vertex 0.580478 0.486103 0.411379
endloop
endfacet
facet normal -0.543576 -0.696626 0.468227
outer loop
vertex 0.662526 0.428735 0.433762
vertex 0.680182 0.440688 0.472042
vertex 0.675514 0.462219 0.498656
endloop
endfacet
facet normal -0.543578 -0.696624 0.468229
outer loop
vertex 0.675514 0.462219 0.498656
vertex 0.648520 0.493329 0.513604
vertex 0.662526 0.428735 0.433762
endloop
endfacet
facet normal -0.543577 -0.696624 0.468229
outer loop
vertex 0.662526 0.428735 0.433762
vertex 0.648520 0.493329 0.513604
vertex 0.630864 0.481377 0.475324
endloop
endfacet
facet normal -0.543580 -0.696621 0.468231
outer loop
vertex 0.630864 0.481377 0.475324
vertex 0.635533 0.459846 0.448710
vertex 0.662526 0.428735 0.433762
endloop
endfacet
facet normal -0.489133 -0.735026 -0.469560
outer loop
vertex 0.679038 0.470924 0.436804
vertex 0.641216 0.492180 0.442930
vertex 0.620356 0.515462 0.428214
endloop
endfacet
facet normal -0.489135 -0.735025 -0.469558
outer loop
vertex 0.620356 0.515462 0.428214
vertex 0.616461 0.540769 0.392657
vertex 0.679038 0.470924 0.436804
endloop
endfacet
facet normal -0.489135 -0.735026 -0.469557
outer loop
vertex 0.679038 0.470924 0.436804
vertex 0.616461 0.540769 0.392657
vertex 0.654284 0.519513 0.386531
endloop
endfacet
facet normal -0.489138 -0.735025 -0.469557
outer loop
vertex 0.654284 0.519513 0.386531
vertex 0.675143 0.496231 0.401247
vertex 0.679038 0.470924 0.436804
endloop
endfacet
facet normal 0.659863 -0.005018 0.751369
outer loop
vertex 0.662246 0.328452 0.393768
vertex 0.631081 0.314139 0.421042
vertex 0.616854 0.285157 0.433343
endloop
endfacet
facet normal 0.659863 -0.005020 0.751370
outer loop
vertex 0.616854 0.285157 0.433343
vertex 0.619563 0.241506 0.430671
vertex 0.662246 0.328452 0.393768
endloop
endfacet
facet normal 0.659862 -0.005020 0.751370
outer loop
vertex 0.662246 0.328452 0.393768
vertex 0.619563 0.241506 0.430671
vertex 0.650728 0.255818 0.403398
endloop
endfacet
facet normal 0.659862 -0.005020 0.751370
outer loop
vertex 0.650728 0.255818 0.403398
vertex 0.664956 0.284800 0.391097
vertex 0.662246 0.328452 0.393768
endloop
endfacet
facet normal 0.607413 0.438965 0.662087
outer loop
vertex 0.638432 0.320735 0.388953
vertex 0.612089 0.355736 0.389915
vertex 0.584677 0.368755 0.406431
endloop
endfacet
facet normal 0.607416 0.438965 0.662084
outer loop
vertex 0.584677 0.368755 0.406431
vertex 0.556197 0.359794 0.438502
vertex 0.638432 0.320735 0.388953
endloop
endfacet
facet normal 0.607415 0.438967 0.662084
outer loop
vertex 0.638432 0.320735 0.388953
vertex 0.556197 0.359794 0.438502
vertex 0.582540 0.324793 0.437540
endloop
endfacet
facet normal 0.607417 0.438964 0.662084
outer loop
vertex 0.582540 0.324793 0.437540
vertex 0.609952 0.311773 0.421023
vertex 0.638432 0.320735 0.388953
endloop
endfacet
facet normal 0.767495 0.631832 -0.108349
outer loop
vertex 0.612281 0.319183 0.383665
vertex 0.595873 0.332533 0.345292
vertex 0.574615 0.355978 0.331430
endloop
endfacet
facet normal 0.767496 0.631831 -0.108348
outer loop
vertex 0.574615 0.355978 0.331430
vertex 0.548508 0.389517 0.342080
vertex 0.612281 0.319183 0.383665
endloop
endfacet
facet normal 0.767495 0.631833 -0.108346
outer loop
vertex 0.612281 0.319183 0.383665
vertex 0.548508 0.389517 0.342080
vertex 0.564915 0.376167 0.380453
endloop
endfacet
facet normal 0.767497 0.631830 -0.108349
outer loop
vertex 0.564915 0.376167 0.380453
vertex 0.586173 0.352722 0.394315
vertex 0.612281 0.319183 0.383665
endloop
endfacet
facet normal -0.008712 -0.687177 0.726438
outer loop
vertex 0.425745 0.545735 0.491455
vertex 0.467451 0.555244 0.500951
vertex 0.486866 0.575889 0.520713
endloop
endfacet
facet normal -0.008712 -0.687179 0.726436
outer loop
vertex 0.486866 0.575889 0.520713
vertex 0.483992 0.607669 0.550741
vertex 0.425745 0.545735 0.491455
endloop
endfacet
facet normal -0.008711 -0.687178 0.726437
outer loop
vertex 0.425745 0.545735 0.491455
vertex 0.483992 0.607669 0.550741
vertex 0.442286 0.598159 0.541246
endloop
endfacet
facet normal -0.008710 -0.687178 0.726436
outer loop
vertex 0.442286 0.598159 0.541246
vertex 0.422871 0.577515 0.521484
vertex 0.425745 0.545735 0.491455
endloop
endfacet
facet normal 0.412291 -0.828682 0.378554
outer loop
vertex 0.317245 0.446800 0.450177
vertex 0.279029 0.425806 0.445843
vertex 0.260865 0.406605 0.423593
endloop
endfacet
facet normal 0.412291 -0.828682 0.378553
outer loop
vertex 0.260865 0.406605 0.423593
vertex 0.262751 0.389195 0.383428
vertex 0.317245 0.446800 0.450177
endloop
endfacet
facet normal 0.412291 -0.828682 0.378554
outer loop
vertex 0.317245 0.446800 0.450177
vertex 0.262751 0.389195 0.383428
vertex 0.300967 0.410188 0.387761
endloop
endfacet
facet normal 0.412293 -0.828681 0.378553
outer loop
vertex 0.300967 0.410188 0.387761
vertex 0.319132 0.429390 0.410011
vertex 0.317245 0.446800 0.450177
endloop
endfacet
facet normal -0.160478 -0.486559 0.858783
outer loop
vertex 0.288950 0.459972 0.419827
vertex 0.256753 0.488006 0.429694
vertex 0.222731 0.492794 0.426049
endloop
endfacet
facet normal -0.160475 -0.486559 0.858783
outer loop
vertex 0.222731 0.492794 0.426049
vertex 0.186885 0.474337 0.408893
vertex 0.288950 0.459972 0.419827
endloop
endfacet
facet normal -0.160476 -0.486560 0.858782
outer loop
vertex 0.288950 0.459972 0.419827
vertex 0.186885 0.474337 0.408893
vertex 0.219082 0.446303 0.399027
endloop
endfacet
facet normal -0.160476 -0.486559 0.858783
outer loop
vertex 0.219082 0.446303 0.399027
vertex 0.253104 0.441514 0.402671
vertex 0.288950 0.459972 0.419827
endloop
endfacet
facet normal 0.461536 0.882337 0.092015
outer loop
vertex 0.263389 0.418412 0.485377
vertex 0.227383 0.435332 0.503741
vertex 0.212098 0.440134 0.534352
endloop
endfacet
facet normal 0.461538 0.882335 0.092017
outer loop
vertex 0.212098 0.440134 0.534352
vertex 0.217537 0.432820 0.577210
vertex 0.263389 0.418412 0.485377
endloop
endfacet
facet normal 0.461537 0.882336 0.092016
outer loop
vertex 0.263389 0.418412 0.485377
vertex 0.217537 0.432820 0.577210
vertex 0.253543 0.415900 0.558847
endloop
endfacet
facet normal 0.461537 0.882336 0.092015
outer loop
vertex 0.253543 0.415900 0.558847
vertex 0.268827 0.411098 0.528236
vertex 0.263389 0.418412 0.485377
endloop
endfacet
facet normal 0.121517 0.370663 -0.920784
outer loop
vertex 0.246227 0.418431 0.502685
vertex 0.202740 0.419748 0.497476
vertex 0.175355 0.440292 0.502132
endloop
endfacet
facet normal 0.121518 0.370662 -0.920784
outer loop
vertex 0.175355 0.440292 0.502132
vertex 0.164071 0.480064 0.516653
vertex 0.246227 0.418431 0.502685
endloop
endfacet
facet normal 0.121515 0.370663 -0.920784
outer loop
vertex 0.246227 0.418431 0.502685
vertex 0.164071 0.480064 0.516653
vertex 0.207557 0.478746 0.521862
endloop
endfacet
facet normal 0.121511 0.370661 -0.920785
outer loop
vertex 0.207557 0.478746 0.521862
vertex 0.234943 0.458202 0.517206
vertex 0.246227 0.418431 0.502685
endloop
endfacet
facet normal -0.119904 -0.640612 -0.758445
outer loop
vertex 0.228917 0.425468 0.520141
vertex 0.199815 0.402856 0.543841
vertex 0.166041 0.400879 0.550849
endloop
endfacet
facet normal -0.119906 -0.640612 -0.758445
outer loop
vertex 0.166041 0.400879 0.550849
vertex 0.127596 0.419539 0.541167
vertex 0.228917 0.425468 0.520141
endloop
endfacet
facet normal -0.119904 -0.640613 -0.758445
outer loop
vertex 0.228917 0.425468 0.520141
vertex 0.127596 0.419539 0.541167
vertex 0.156698 0.442151 0.517467
endloop
endfacet
facet normal -0.119903 -0.640612 -0.758445
outer loop
vertex 0.156698 0.442151 0.517467
vertex 0.190472 0.444127 0.510458
vertex 0.228917 0.425468 0.520141
endloop
endfacet
facet normal -0.381123 -0.725105 -0.573557
outer loop
vertex 0.548498 0.559124 0.588939
vertex 0.512517 0.583247 0.582350
vertex 0.499174 0.607035 0.561142
endloop
endfacet
facet normal -0.381125 -0.725107 -0.573554
outer loop
vertex 0.499174 0.607035 0.561142
vertex 0.508467 0.630489 0.525316
vertex 0.548498 0.559124 0.588939
endloop
endfacet
facet normal -0.381118 -0.725109 -0.573555
outer loop
vertex 0.548498 0.559124 0.588939
vertex 0.508467 0.630489 0.525316
vertex 0.544448 0.606366 0.531905
endloop
endfacet
facet normal -0.381121 -0.725105 -0.573558
outer loop
vertex 0.544448 0.606366 0.531905
vertex 0.557791 0.582577 0.553113
vertex 0.548498 0.559124 0.588939
endloop
endfacet
facet normal 0.011294 0.380884 -0.924554
outer loop
vertex 0.597508 0.426668 0.629721
vertex 0.635339 0.446941 0.638535
vertex 0.669579 0.442535 0.637138
endloop
endfacet
facet normal 0.011293 0.380883 -0.924554
outer loop
vertex 0.669579 0.442535 0.637138
vertex 0.700225 0.413449 0.625530
vertex 0.597508 0.426668 0.629721
endloop
endfacet
facet normal 0.011291 0.380884 -0.924554
outer loop
vertex 0.597508 0.426668 0.629721
vertex 0.700225 0.413449 0.625530
vertex 0.662394 0.393176 0.616716
endloop
endfacet
facet normal 0.011295 0.380886 -0.924553
outer loop
vertex 0.662394 0.393176 0.616716
vertex 0.628154 0.397582 0.618113
vertex 0.597508 0.426668 0.629721
endloop
endfacet
facet normal -0.266082 0.862431 -0.430597
outer loop
vertex 0.622095 0.410816 0.659383
vertex 0.622058 0.430380 0.698591
vertex 0.642519 0.447610 0.720458
endloop
endfacet
facet normal -0.266089 0.862431 -0.430591
outer loop
vertex 0.642519 0.447610 0.720458
vertex 0.683476 0.462507 0.724986
vertex 0.622095 0.410816 0.659383
endloop
endfacet
facet normal -0.266083 0.862432 -0.430594
outer loop
vertex 0.622095 0.410816 0.659383
vertex 0.683476 0.462507 0.724986
vertex 0.683513 0.442944 0.685779
endloop
endfacet
facet normal -0.266091 0.862431 -0.430591
outer loop
vertex 0.683513 0.442944 0.685779
vertex 0.663053 0.425713 0.663911
vertex 0.622095 0.410816 0.659383
endloop
endfacet
facet normal -0.903101 0.259185 0.342392
outer loop
vertex 0.638879 0.408027 0.658745
vertex 0.647953 0.388940 0.697129
vertex 0.661589 0.395391 0.728212
endloop
endfacet
facet normal -0.903100 0.259186 0.342392
outer loop
vertex 0.661589 0.395391 0.728212
vertex 0.679786 0.427378 0.751994
vertex 0.638879 0.408027 0.658745
endloop
endfacet
facet normal -0.903101 0.259184 0.342392
outer loop
vertex 0.638879 0.408027 0.658745
vertex 0.679786 0.427378 0.751994
vertex 0.670711 0.446465 0.713611
endloop
endfacet
facet normal -0.903100 0.259188 0.342392
outer loop
vertex 0.670711 0.446465 0.713611
vertex 0.657076 0.440015 0.682528
vertex 0.638879 0.408027 0.658745
endloop
endfacet
facet normal -0.176584 -0.906705 0.383020
outer loop
vertex 0.659216 0.417076 0.665091
vertex 0.702233 0.408742 0.665195
vertex 0.730481 0.411559 0.684888
endloop
endfacet
facet normal -0.176584 -0.906704 0.383023
outer loop
vertex 0.730481 0.411559 0.684888
vertex 0.743959 0.425529 0.724170
vertex 0.659216 0.417076 0.665091
endloop
endfacet
facet normal -0.176585 -0.906703 0.383024
outer loop
vertex 0.659216 0.417076 0.665091
vertex 0.743959 0.425529 0.724170
vertex 0.700942 0.433863 0.724067
endloop
endfacet
facet normal -0.176583 -0.906705 0.383022
outer loop
vertex 0.700942 0.433863 0.724067
vertex 0.672694 0.431045 0.704374
vertex 0.659216 0.417076 0.665091
endloop
endfacet
facet normal 0.377414 -0.823963 -0.422662
outer loop
vertex 0.674400 0.434526 0.669829
vertex 0.690711 0.458752 0.637165
vertex 0.718870 0.476450 0.627808
endloop
endfacet
facet normal 0.377409 -0.823965 -0.422663
outer loop
vertex 0.718870 0.476450 0.627808
vertex 0.758877 0.487619 0.641759
vertex 0.674400 0.434526 0.669829
endloop
endfacet
facet normal 0.377415 -0.823964 -0.422660
outer loop
vertex 0.674400 0.434526 0.669829
vertex 0.758877 0.487619 0.641759
vertex 0.742566 0.463392 0.674424
endloop
endfacet
facet normal 0.377414 -0.823962 -0.422664
outer loop
vertex 0.742566 0.463392 0.674424
vertex 0.714407 0.445694 0.683780
vertex 0.674400 0.434526 0.669829
endloop
endfacet
facet normal -0.812240 -0.568523 0.130567
outer loop
vertex 0.530042 0.569953 0.399674
vertex 0.507816 0.604959 0.413835
vertex 0.487876 0.630894 0.402722
endloop
endfacet
facet normal -0.812238 -0.568525 0.130572
outer loop
vertex 0.487876 0.630894 0.402722
vertex 0.470223 0.647757 0.366336
vertex 0.530042 0.569953 0.399674
endloop
endfacet
facet normal -0.812238 -0.568525 0.130570
outer loop
vertex 0.530042 0.569953 0.399674
vertex 0.470223 0.647757 0.366336
vertex 0.492450 0.612751 0.352176
endloop
endfacet
facet normal -0.812240 -0.568521 0.130575
outer loop
vertex 0.492450 0.612751 0.352176
vertex 0.512389 0.586816 0.363288
vertex 0.530042 0.569953 0.399674
endloop
endfacet
facet normal 0.771481 0.188614 0.607653
outer loop
vertex 0.472049 0.506566 0.340884
vertex 0.490714 0.530942 0.309621
vertex 0.492276 0.563295 0.297596
endloop
endfacet
facet normal 0.771480 0.188615 0.607654
outer loop
vertex 0.492276 0.563295 0.297596
vertex 0.476734 0.603623 0.304810
vertex 0.472049 0.506566 0.340884
endloop
endfacet
facet normal 0.771480 0.188615 0.607653
outer loop
vertex 0.472049 0.506566 0.340884
vertex 0.476734 0.603623 0.304810
vertex 0.458070 0.579247 0.336073
endloop
endfacet
facet normal 0.771479 0.188615 0.607655
outer loop
vertex 0.458070 0.579247 0.336073
vertex 0.456508 0.546895 0.348098
vertex 0.472049 0.506566 0.340884
endloop
endfacet
facet normal 0.723819 -0.629930 -0.281555
outer loop
vertex 0.450839 0.526507 0.313761
vertex 0.442649 0.535874 0.271747
vertex 0.451670 0.557564 0.246412
endloop
endfacet
facet normal 0.723821 -0.629927 -0.281558
outer loop
vertex 0.451670 0.557564 0.246412
vertex 0.477903 0.591577 0.237756
vertex 0.450839 0.526507 0.313761
endloop
endfacet
facet normal 0.723822 -0.629929 -0.281553
outer loop
vertex 0.450839 0.526507 0.313761
vertex 0.477903 0.591577 0.237756
vertex 0.486094 0.582209 0.279769
endloop
endfacet
facet normal 0.723818 -0.629930 -0.281558
outer loop
vertex 0.486094 0.582209 0.279769
vertex 0.477072 0.560519 0.305104
vertex 0.450839 0.526507 0.313761
endloop
endfacet
facet normal -0.047379 -0.839140 0.541848
outer loop
vertex 0.500901 0.488196 0.288395
vertex 0.483743 0.467014 0.254090
vertex 0.492601 0.448547 0.226266
endloop
endfacet
facet normal -0.047379 -0.839141 0.541847
outer loop
vertex 0.492601 0.448547 0.226266
vertex 0.527477 0.432796 0.204922
vertex 0.500901 0.488196 0.288395
endloop
endfacet
facet normal -0.047380 -0.839138 0.541851
outer loop
vertex 0.500901 0.488196 0.288395
vertex 0.527477 0.432796 0.204922
vertex 0.544635 0.453978 0.239227
endloop
endfacet
facet normal -0.047377 -0.839139 0.541851
outer loop
vertex 0.544635 0.453978 0.239227
vertex 0.535776 0.472445 0.267052
vertex 0.500901 0.488196 0.288395
endloop
endfacet
facet normal -0.715372 -0.522883 0.463504
outer loop
vertex 0.505535 0.497086 0.267295
vertex 0.474945 0.521734 0.247887
vertex 0.455307 0.523449 0.219513
endloop
endfacet
facet normal -0.715373 -0.522885 0.463501
outer loop
vertex 0.455307 0.523449 0.219513
vertex 0.446622 0.502232 0.182172
vertex 0.505535 0.497086 0.267295
endloop
endfacet
facet normal -0.715373 -0.522885 0.463501
outer loop
vertex 0.505535 0.497086 0.267295
vertex 0.446622 0.502232 0.182172
vertex 0.477212 0.477585 0.201580
endloop
endfacet
facet normal -0.715373 -0.522883 0.463502
outer loop
vertex 0.477212 0.477585 0.201580
vertex 0.496850 0.475869 0.229954
vertex 0.505535 0.497086 0.267295
endloop
endfacet
facet normal -0.593266 0.330611 0.733984
outer loop
vertex 0.510051 0.507420 0.246739
vertex 0.523735 0.548384 0.239348
vertex 0.516476 0.576597 0.220773
endloop
endfacet
facet normal -0.593265 0.330609 0.733985
outer loop
vertex 0.516476 0.576597 0.220773
vertex 0.488275 0.592059 0.191014
vertex 0.510051 0.507420 0.246739
endloop
endfacet
facet normal -0.593264 0.330612 0.733985
outer loop
vertex 0.510051 0.507420 0.246739
vertex 0.488275 0.592059 0.191014
vertex 0.474592 0.551095 0.198405
endloop
endfacet
facet normal -0.593266 0.330611 0.733984
outer loop
vertex 0.474592 0.551095 0.198405
vertex 0.481850 0.522882 0.216980
vertex 0.510051 0.507420 0.246739
endloop
endfacet
facet normal 0.656677 0.462549 -0.595671
outer loop
vertex 0.401456 0.558158 0.582694
vertex 0.372243 0.557581 0.550040
vertex 0.346589 0.576060 0.536108
endloop
endfacet
facet normal 0.656679 0.462551 -0.595667
outer loop
vertex 0.346589 0.576060 0.536108
vertex 0.324494 0.613594 0.540896
vertex 0.401456 0.558158 0.582694
endloop
endfacet
facet normal 0.656680 0.462549 -0.595668
outer loop
vertex 0.401456 0.558158 0.582694
vertex 0.324494 0.613594 0.540896
vertex 0.353707 0.614171 0.573549
endloop
endfacet
facet normal 0.656678 0.462550 -0.595669
outer loop
vertex 0.353707 0.614171 0.573549
vertex 0.379361 0.595693 0.587482
vertex 0.401456 0.558158 0.582694
endloop
endfacet
facet normal 0.347034 -0.739694 -0.576559
outer loop
vertex 0.358872 0.558227 0.590719
vertex 0.318686 0.540868 0.588801
vertex 0.289535 0.541635 0.570272
endloop
endfacet
facet normal 0.347032 -0.739695 -0.576559
outer loop
vertex 0.289535 0.541635 0.570272
vertex 0.271419 0.560526 0.535131
vertex 0.358872 0.558227 0.590719
endloop
endfacet
facet normal 0.347033 -0.739695 -0.576558
outer loop
vertex 0.358872 0.558227 0.590719
vertex 0.271419 0.560526 0.535131
vertex 0.311605 0.577885 0.537049
endloop
endfacet
facet normal 0.347036 -0.739694 -0.576557
outer loop
vertex 0.311605 0.577885 0.537049
vertex 0.340756 0.577119 0.555578
vertex 0.358872 0.558227 0.590719
endloop
endfacet
facet normal 0.183553 -0.911193 -0.368831
outer loop
vertex 0.390537 0.535663 0.671020
vertex 0.425594 0.532179 0.697074
vertex 0.435254 0.521423 0.728454
endloop
endfacet
facet normal 0.183553 -0.911194 -0.368827
outer loop
vertex 0.435254 0.521423 0.728454
vertex 0.419517 0.503395 0.765160
vertex 0.390537 0.535663 0.671020
endloop
endfacet
facet normal 0.183553 -0.911195 -0.368826
outer loop
vertex 0.390537 0.535663 0.671020
vertex 0.419517 0.503395 0.765160
vertex 0.384460 0.506880 0.739106
endloop
endfacet
facet normal 0.183553 -0.911195 -0.368824
outer loop
vertex 0.384460 0.506880 0.739106
vertex 0.374800 0.517635 0.707726
vertex 0.390537 0.535663 0.671020
endloop
endfacet
facet normal 0.746230 -0.582717 -0.321840
outer loop
vertex 0.390978 0.553848 0.697953
vertex 0.410377 0.588703 0.679822
vertex 0.433001 0.613908 0.686646
endloop
endfacet
facet normal 0.746228 -0.582719 -0.321842
outer loop
vertex 0.433001 0.613908 0.686646
vertex 0.458852 0.629461 0.718423
vertex 0.390978 0.553848 0.697953
endloop
endfacet
facet normal 0.746227 -0.582720 -0.321843
outer loop
vertex 0.390978 0.553848 0.697953
vertex 0.458852 0.629461 0.718423
vertex 0.439453 0.594606 0.736553
endloop
endfacet
facet normal 0.746227 -0.582720 -0.321843
outer loop
vertex 0.439453 0.594606 0.736553
vertex 0.416829 0.569401 0.729730
vertex 0.390978 0.553848 0.697953
endloop
endfacet
facet normal -0.621942 -0.420996 -0.660265
outer loop
vertex 0.598988 0.619717 0.521759
vertex 0.570609 0.652600 0.527524
vertex 0.562316 0.683871 0.515397
endloop
endfacet
facet normal -0.621945 -0.420995 -0.660263
outer loop
vertex 0.562316 0.683871 0.515397
vertex 0.574111 0.713529 0.485376
vertex 0.598988 0.619717 0.521759
endloop
endfacet
facet normal -0.621946 -0.420996 -0.660262
outer loop
vertex 0.598988 0.619717 0.521759
vertex 0.574111 0.713529 0.485376
vertex 0.602490 0.680646 0.479611
endloop
endfacet
facet normal -0.621944 -0.420995 -0.660264
outer loop
vertex 0.602490 0.680646 0.479611
vertex 0.610783 0.649375 0.491738
vertex 0.598988 0.619717 0.521759
endloop
endfacet
facet normal -0.903858 -0.404432 0.139551
outer loop
vertex 0.613972 0.655603 0.535345
vertex 0.615033 0.667752 0.577431
vertex 0.606617 0.693825 0.598480
endloop
endfacet
facet normal -0.903856 -0.404437 0.139549
outer loop
vertex 0.606617 0.693825 0.598480
vertex 0.588722 0.733822 0.598493
vertex 0.613972 0.655603 0.535345
endloop
endfacet
facet normal -0.903857 -0.404435 0.139551
outer loop
vertex 0.613972 0.655603 0.535345
vertex 0.588722 0.733822 0.598493
vertex 0.587660 0.721672 0.556407
endloop
endfacet
facet normal -0.903859 -0.404432 0.139546
outer loop
vertex 0.587660 0.721672 0.556407
vertex 0.596077 0.695599 0.535358
vertex 0.613972 0.655603 0.535345
endloop
endfacet
facet normal -0.435753 -0.285155 0.853701
outer loop
vertex 0.676066 0.592752 0.467696
vertex 0.678704 0.550881 0.455056
vertex 0.699427 0.523269 0.456411
endloop
endfacet
facet normal -0.435753 -0.285158 0.853701
outer loop
vertex 0.699427 0.523269 0.456411
vertex 0.738236 0.509917 0.471760
vertex 0.676066 0.592752 0.467696
endloop
endfacet
facet normal -0.435751 -0.285158 0.853701
outer loop
vertex 0.676066 0.592752 0.467696
vertex 0.738236 0.509917 0.471760
vertex 0.735597 0.551788 0.484399
endloop
endfacet
facet normal -0.435750 -0.285154 0.853703
outer loop
vertex 0.735597 0.551788 0.484399
vertex 0.714874 0.579400 0.483045
vertex 0.676066 0.592752 0.467696
endloop
endfacet
facet normal -0.593346 -0.780408 -0.197242
outer loop
vertex 0.697831 0.585433 0.447026
vertex 0.691148 0.600752 0.406522
vertex 0.703787 0.599260 0.374402
endloop
endfacet
facet normal -0.593345 -0.780408 -0.197243
outer loop
vertex 0.703787 0.599260 0.374402
vertex 0.735749 0.580958 0.350665
vertex 0.697831 0.585433 0.447026
endloop
endfacet
facet normal -0.593346 -0.780408 -0.197240
outer loop
vertex 0.697831 0.585433 0.447026
vertex 0.735749 0.580958 0.350665
vertex 0.742433 0.565640 0.391170
endloop
endfacet
facet normal -0.593348 -0.780405 -0.197247
outer loop
vertex 0.742433 0.565640 0.391170
vertex 0.729793 0.567131 0.423290
vertex 0.697831 0.585433 0.447026
endloop
endfacet
facet normal 0.277440 -0.639624 0.716874
outer loop
vertex 0.442569 0.678871 0.482508
vertex 0.461189 0.711773 0.504659
vertex 0.454456 0.735723 0.528633
endloop
endfacet
facet normal 0.277436 -0.639624 0.716875
outer loop
vertex 0.454456 0.735723 0.528633
vertex 0.422370 0.750720 0.554432
vertex 0.442569 0.678871 0.482508
endloop
endfacet
facet normal 0.277434 -0.639626 0.716875
outer loop
vertex 0.442569 0.678871 0.482508
vertex 0.422370 0.750720 0.554432
vertex 0.403750 0.717817 0.532281
endloop
endfacet
facet normal 0.277438 -0.639624 0.716874
outer loop
vertex 0.403750 0.717817 0.532281
vertex 0.410483 0.693867 0.508306
vertex 0.442569 0.678871 0.482508
endloop
endfacet
facet normal 0.939655 -0.220657 0.261456
outer loop
vertex 0.429328 0.714872 0.475174
vertex 0.444279 0.743802 0.445857
vertex 0.453044 0.777044 0.442413
endloop
endfacet
facet normal 0.939655 -0.220656 0.261458
outer loop
vertex 0.453044 0.777044 0.442413
vertex 0.455622 0.814597 0.464841
vertex 0.429328 0.714872 0.475174
endloop
endfacet
facet normal 0.939655 -0.220656 0.261455
outer loop
vertex 0.429328 0.714872 0.475174
vertex 0.455622 0.814597 0.464841
vertex 0.440671 0.785667 0.494158
endloop
endfacet
facet normal 0.939655 -0.220657 0.261457
outer loop
vertex 0.440671 0.785667 0.494158
vertex 0.431906 0.752425 0.497602
vertex 0.429328 0.714872 0.475174
endloop
endfacet
facet normal 0.932977 -0.220596 0.284414
outer loop
vertex 0.361373 0.633358 0.418782
vertex 0.367882 0.612163 0.380989
vertex 0.378896 0.616983 0.348598
endloop
endfacet
facet normal 0.932977 -0.220592 0.284415
outer loop
vertex 0.378896 0.616983 0.348598
vertex 0.394414 0.647818 0.321610
vertex 0.361373 0.633358 0.418782
endloop
endfacet
facet normal 0.932977 -0.220596 0.284415
outer loop
vertex 0.361373 0.633358 0.418782
vertex 0.394414 0.647818 0.321610
vertex 0.387904 0.669012 0.359403
endloop
endfacet
facet normal 0.932976 -0.220592 0.284419
outer loop
vertex 0.387904 0.669012 0.359403
vertex 0.376890 0.664192 0.391794
vertex 0.361373 0.633358 0.418782
endloop
endfacet
facet normal 0.082899 -0.995488 -0.046176
outer loop
vertex 0.351522 0.640591 0.392164
vertex 0.316923 0.638955 0.365327
vertex 0.308331 0.639791 0.331873
endloop
endfacet
facet normal 0.082898 -0.995488 -0.046172
outer loop
vertex 0.308331 0.639791 0.331873
vertex 0.325745 0.643100 0.291801
vertex 0.351522 0.640591 0.392164
endloop
endfacet
facet normal 0.082899 -0.995488 -0.046175
outer loop
vertex 0.351522 0.640591 0.392164
vertex 0.325745 0.643100 0.291801
vertex 0.360344 0.644736 0.318638
endloop
endfacet
facet normal 0.082897 -0.995488 -0.046174
outer loop
vertex 0.360344 0.644736 0.318638
vertex 0.368936 0.643900 0.352092
vertex 0.351522 0.640591 0.392164
endloop
endfacet
facet normal 0.514572 -0.806633 -0.290792
outer loop
vertex 0.491670 0.722265 0.596636
vertex 0.525699 0.747775 0.586089
vertex 0.554579 0.761469 0.599208
endloop
endfacet
facet normal 0.514577 -0.806632 -0.290785
outer loop
vertex 0.554579 0.761469 0.599208
vertex 0.578310 0.763347 0.635995
vertex 0.491670 0.722265 0.596636
endloop
endfacet
facet normal 0.514574 -0.806632 -0.290788
outer loop
vertex 0.491670 0.722265 0.596636
vertex 0.578310 0.763347 0.635995
vertex 0.544282 0.737837 0.646542
endloop
endfacet
facet normal 0.514576 -0.806632 -0.290786
outer loop
vertex 0.544282 0.737837 0.646542
vertex 0.515402 0.724143 0.633422
vertex 0.491670 0.722265 0.596636
endloop
endfacet
facet normal 0.250349 -0.249360 -0.935492
outer loop
vertex 0.494624 0.750781 0.611515
vertex 0.481763 0.790271 0.597547
vertex 0.493372 0.822353 0.592102
endloop
endfacet
facet normal 0.250355 -0.249359 -0.935491
outer loop
vertex 0.493372 0.822353 0.592102
vertex 0.529449 0.847028 0.595180
vertex 0.494624 0.750781 0.611515
endloop
endfacet
facet normal 0.250357 -0.249359 -0.935490
outer loop
vertex 0.494624 0.750781 0.611515
vertex 0.529449 0.847028 0.595180
vertex 0.542310 0.807539 0.609148
endloop
endfacet
facet normal 0.250351 -0.249358 -0.935492
outer loop
vertex 0.542310 0.807539 0.609148
vertex 0.530701 0.775456 0.614593
vertex 0.494624 0.750781 0.611515
endloop
endfacet
facet normal 0.352565 -0.704069 -0.616429
outer loop
vertex 0.503154 0.775551 0.591157
vertex 0.491258 0.799801 0.556655
vertex 0.502891 0.824333 0.535288
endloop
endfacet
facet normal 0.352563 -0.704069 -0.616430
outer loop
vertex 0.502891 0.824333 0.535288
vertex 0.538054 0.849148 0.527057
vertex 0.503154 0.775551 0.591157
endloop
endfacet
facet normal 0.352564 -0.704068 -0.616431
outer loop
vertex 0.503154 0.775551 0.591157
vertex 0.538054 0.849148 0.527057
vertex 0.549950 0.824898 0.561559
endloop
endfacet
facet normal 0.352560 -0.704071 -0.616429
outer loop
vertex 0.549950 0.824898 0.561559
vertex 0.538317 0.800366 0.582925
vertex 0.503154 0.775551 0.591157
endloop
endfacet
facet normal -0.449056 -0.794432 -0.408932
outer loop
vertex 0.502681 0.807847 0.591308
vertex 0.464212 0.828762 0.592921
vertex 0.443821 0.849745 0.574547
endloop
endfacet
facet normal -0.449051 -0.794436 -0.408931
outer loop
vertex 0.443821 0.849745 0.574547
vertex 0.441508 0.870798 0.536188
vertex 0.502681 0.807847 0.591308
endloop
endfacet
facet normal -0.449054 -0.794436 -0.408929
outer loop
vertex 0.502681 0.807847 0.591308
vertex 0.441508 0.870798 0.536188
vertex 0.479977 0.849883 0.534576
endloop
endfacet
facet normal -0.449051 -0.794435 -0.408933
outer loop
vertex 0.479977 0.849883 0.534576
vertex 0.500368 0.828899 0.552950
vertex 0.502681 0.807847 0.591308
endloop
endfacet
facet normal -0.149540 -0.863162 0.482276
outer loop
vertex 0.511623 0.689451 0.430927
vertex 0.476084 0.681920 0.406429
vertex 0.466004 0.667149 0.376867
endloop
endfacet
facet normal -0.149540 -0.863159 0.482281
outer loop
vertex 0.466004 0.667149 0.376867
vertex 0.481384 0.645138 0.342241
vertex 0.511623 0.689451 0.430927
endloop
endfacet
facet normal -0.149540 -0.863160 0.482279
outer loop
vertex 0.511623 0.689451 0.430927
vertex 0.481384 0.645138 0.342241
vertex 0.516923 0.652669 0.366740
endloop
endfacet
facet normal -0.149542 -0.863160 0.482277
outer loop
vertex 0.516923 0.652669 0.366740
vertex 0.527003 0.667440 0.396302
vertex 0.511623 0.689451 0.430927
endloop
endfacet
facet normal -0.634862 -0.563274 0.528841
outer loop
vertex 0.509188 0.703170 0.399067
vertex 0.486394 0.738999 0.409866
vertex 0.460083 0.758755 0.399322
endloop
endfacet
facet normal -0.634863 -0.563271 0.528844
outer loop
vertex 0.460083 0.758755 0.399322
vertex 0.430256 0.762436 0.367436
vertex 0.509188 0.703170 0.399067
endloop
endfacet
facet normal -0.634861 -0.563271 0.528845
outer loop
vertex 0.509188 0.703170 0.399067
vertex 0.430256 0.762436 0.367436
vertex 0.453050 0.726606 0.356637
endloop
endfacet
facet normal -0.634862 -0.563273 0.528842
outer loop
vertex 0.453050 0.726606 0.356637
vertex 0.479360 0.706851 0.367181
vertex 0.509188 0.703170 0.399067
endloop
endfacet
facet normal -0.247143 0.328043 0.911761
outer loop
vertex 0.543262 0.703180 0.374120
vertex 0.567248 0.739271 0.367636
vertex 0.565171 0.771539 0.355464
endloop
endfacet
facet normal -0.247138 0.328043 0.911762
outer loop
vertex 0.565171 0.771539 0.355464
vertex 0.537031 0.799983 0.337602
vertex 0.543262 0.703180 0.374120
endloop
endfacet
facet normal -0.247139 0.328043 0.911762
outer loop
vertex 0.543262 0.703180 0.374120
vertex 0.537031 0.799983 0.337602
vertex 0.513045 0.763891 0.344086
endloop
endfacet
facet normal -0.247136 0.328043 0.911763
outer loop
vertex 0.513045 0.763891 0.344086
vertex 0.515123 0.731624 0.356259
vertex 0.543262 0.703180 0.374120
endloop
endfacet
facet normal 0.422640 -0.262806 0.867357
outer loop
vertex 0.546758 0.714161 0.350724
vertex 0.586038 0.713304 0.331325
vertex 0.613292 0.733270 0.324094
endloop
endfacet
facet normal 0.422634 -0.262802 0.867361
outer loop
vertex 0.613292 0.733270 0.324094
vertex 0.628520 0.774058 0.329032
vertex 0.546758 0.714161 0.350724
endloop
endfacet
facet normal 0.422637 -0.262804 0.867359
outer loop
vertex 0.546758 0.714161 0.350724
vertex 0.628520 0.774058 0.329032
vertex 0.589241 0.774914 0.348431
endloop
endfacet
facet normal 0.422635 -0.262802 0.867361
outer loop
vertex 0.589241 0.774914 0.348431
vertex 0.561987 0.754948 0.355662
vertex 0.546758 0.714161 0.350724
endloop
endfacet
facet normal -0.141411 -0.919430 -0.366949
outer loop
vertex 0.444685 0.747224 0.527009
vertex 0.401334 0.753534 0.527903
vertex 0.375105 0.765234 0.508697
endloop
endfacet
facet normal -0.141414 -0.919431 -0.366945
outer loop
vertex 0.375105 0.765234 0.508697
vertex 0.365999 0.782321 0.469390
vertex 0.444685 0.747224 0.527009
endloop
endfacet
facet normal -0.141412 -0.919432 -0.366945
outer loop
vertex 0.444685 0.747224 0.527009
vertex 0.365999 0.782321 0.469390
vertex 0.409350 0.776011 0.468496
endloop
endfacet
facet normal -0.141415 -0.919432 -0.366942
outer loop
vertex 0.409350 0.776011 0.468496
vertex 0.435578 0.764311 0.487702
vertex 0.444685 0.747224 0.527009
endloop
endfacet
facet normal -0.605161 -0.646241 0.464922
outer loop
vertex 0.433397 0.777810 0.525593
vertex 0.429493 0.805647 0.559206
vertex 0.410255 0.831939 0.570711
endloop
endfacet
facet normal -0.605162 -0.646240 0.464923
outer loop
vertex 0.410255 0.831939 0.570711
vertex 0.375684 0.856685 0.560108
vertex 0.433397 0.777810 0.525593
endloop
endfacet
facet normal -0.605158 -0.646242 0.464925
outer loop
vertex 0.433397 0.777810 0.525593
vertex 0.375684 0.856685 0.560108
vertex 0.379588 0.828848 0.526496
endloop
endfacet
facet normal -0.605165 -0.646241 0.464916
outer loop
vertex 0.379588 0.828848 0.526496
vertex 0.398825 0.802556 0.514991
vertex 0.433397 0.777810 0.525593
endloop
endfacet
facet normal 0.794336 -0.131655 -0.593040
outer loop
vertex 0.430008 0.794915 0.572601
vertex 0.435228 0.838340 0.569954
vertex 0.451132 0.864857 0.585369
endloop
endfacet
facet normal 0.794337 -0.131656 -0.593040
outer loop
vertex 0.451132 0.864857 0.585369
vertex 0.477718 0.874466 0.618846
vertex 0.430008 0.794915 0.572601
endloop
endfacet
facet normal 0.794334 -0.131656 -0.593043
outer loop
vertex 0.430008 0.794915 0.572601
vertex 0.477718 0.874466 0.618846
vertex 0.472498 0.831042 0.621494
endloop
endfacet
facet normal 0.794336 -0.131656 -0.593041
outer loop
vertex 0.472498 0.831042 0.621494
vertex 0.456594 0.804525 0.606079
vertex 0.430008 0.794915 0.572601
endloop
endfacet
facet normal -0.095145 -0.442550 -0.891682
outer loop
vertex 0.427594 0.811968 0.589991
vertex 0.397074 0.841306 0.578688
vertex 0.393211 0.872222 0.563756
endloop
endfacet
facet normal -0.095150 -0.442548 -0.891683
outer loop
vertex 0.393211 0.872222 0.563756
vertex 0.416005 0.904717 0.545196
vertex 0.427594 0.811968 0.589991
endloop
endfacet
facet normal -0.095154 -0.442547 -0.891683
outer loop
vertex 0.427594 0.811968 0.589991
vertex 0.416005 0.904717 0.545196
vertex 0.446525 0.875379 0.556500
endloop
endfacet
facet normal -0.095144 -0.442547 -0.891684
outer loop
vertex 0.446525 0.875379 0.556500
vertex 0.450388 0.844463 0.571432
vertex 0.427594 0.811968 0.589991
endloop
endfacet
facet normal -0.623111 -0.768540 0.145185
outer loop
vertex 0.545196 0.765555 0.537242
vertex 0.534109 0.781930 0.576343
vertex 0.511490 0.803146 0.591573
endloop
endfacet
facet normal -0.623106 -0.768544 0.145187
outer loop
vertex 0.511490 0.803146 0.591573
vertex 0.477339 0.829203 0.582932
vertex 0.545196 0.765555 0.537242
endloop
endfacet
facet normal -0.623110 -0.768541 0.145184
outer loop
vertex 0.545196 0.765555 0.537242
vertex 0.477339 0.829203 0.582932
vertex 0.488425 0.812828 0.543831
endloop
endfacet
facet normal -0.623105 -0.768543 0.145193
outer loop
vertex 0.488425 0.812828 0.543831
vertex 0.511044 0.791612 0.528601
vertex 0.545196 0.765555 0.537242
endloop
endfacet
facet normal 0.159249 -0.689129 0.706924
outer loop
vertex 0.547316 0.795552 0.542300
vertex 0.578866 0.820570 0.559581
vertex 0.584130 0.845606 0.582801
endloop
endfacet
facet normal 0.159254 -0.689123 0.706928
outer loop
vertex 0.584130 0.845606 0.582801
vertex 0.563107 0.870661 0.611961
vertex 0.547316 0.795552 0.542300
endloop
endfacet
facet normal 0.159250 -0.689125 0.706927
outer loop
vertex 0.547316 0.795552 0.542300
vertex 0.563107 0.870661 0.611961
vertex 0.531557 0.845643 0.594680
endloop
endfacet
facet normal 0.159249 -0.689120 0.706932
outer loop
vertex 0.531557 0.845643 0.594680
vertex 0.526293 0.820606 0.571460
vertex 0.547316 0.795552 0.542300
endloop
endfacet
facet normal -0.463254 -0.572898 -0.676154
outer loop
vertex 0.617240 0.767200 0.542136
vertex 0.636883 0.789401 0.509868
vertex 0.665340 0.789514 0.490276
endloop
endfacet
facet normal -0.463256 -0.572891 -0.676158
outer loop
vertex 0.665340 0.789514 0.490276
vertex 0.702612 0.767539 0.483359
vertex 0.617240 0.767200 0.542136
endloop
endfacet
facet normal -0.463253 -0.572897 -0.676154
outer loop
vertex 0.617240 0.767200 0.542136
vertex 0.702612 0.767539 0.483359
vertex 0.682969 0.745338 0.515627
endloop
endfacet
facet normal -0.463253 -0.572890 -0.676161
outer loop
vertex 0.682969 0.745338 0.515627
vertex 0.654512 0.745225 0.535219
vertex 0.617240 0.767200 0.542136
endloop
endfacet
facet normal -0.777466 -0.030765 -0.628172
outer loop
vertex 0.637145 0.777610 0.546434
vertex 0.629565 0.820145 0.553733
vertex 0.637700 0.851651 0.542121
endloop
endfacet
facet normal -0.777471 -0.030765 -0.628166
outer loop
vertex 0.637700 0.851651 0.542121
vertex 0.661552 0.872130 0.511597
vertex 0.637145 0.777610 0.546434
endloop
endfacet
facet normal -0.777469 -0.030765 -0.628168
outer loop
vertex 0.637145 0.777610 0.546434
vertex 0.661552 0.872130 0.511597
vertex 0.669132 0.829595 0.504298
endloop
endfacet
facet normal -0.777471 -0.030764 -0.628166
outer loop
vertex 0.669132 0.829595 0.504298
vertex 0.660997 0.798089 0.515911
vertex 0.637145 0.777610 0.546434
endloop
endfacet
facet normal 0.825778 -0.234792 -0.512800
outer loop
vertex 0.458749 0.790787 0.489088
vertex 0.444010 0.813782 0.454825
vertex 0.444466 0.845465 0.441053
endloop
endfacet
facet normal 0.825776 -0.234792 -0.512804
outer loop
vertex 0.444466 0.845465 0.441053
vertex 0.460117 0.885836 0.447772
vertex 0.458749 0.790787 0.489088
endloop
endfacet
facet normal 0.825776 -0.234790 -0.512805
outer loop
vertex 0.458749 0.790787 0.489088
vertex 0.460117 0.885836 0.447772
vertex 0.474856 0.862841 0.482035
endloop
endfacet
facet normal 0.825776 -0.234791 -0.512803
outer loop
vertex 0.474856 0.862841 0.482035
vertex 0.474400 0.831158 0.495807
vertex 0.458749 0.790787 0.489088
endloop
endfacet
facet normal 0.035565 -0.753251 -0.656771
outer loop
vertex 0.444816 0.815481 0.488949
vertex 0.402066 0.820569 0.480799
vertex 0.380084 0.837489 0.460203
endloop
endfacet
facet normal 0.035564 -0.753244 -0.656779
outer loop
vertex 0.380084 0.837489 0.460203
vertex 0.378870 0.866242 0.427162
vertex 0.444816 0.815481 0.488949
endloop
endfacet
facet normal 0.035563 -0.753246 -0.656777
outer loop
vertex 0.444816 0.815481 0.488949
vertex 0.378870 0.866242 0.427162
vertex 0.421621 0.861154 0.435312
endloop
endfacet
facet normal 0.035565 -0.753247 -0.656775
outer loop
vertex 0.421621 0.861154 0.435312
vertex 0.443603 0.844234 0.455908
vertex 0.444816 0.815481 0.488949
endloop
endfacet
facet normal -0.207146 -0.834736 0.510202
outer loop
vertex 0.440945 0.799182 0.431933
vertex 0.410430 0.788646 0.402305
vertex 0.406059 0.771569 0.372591
endloop
endfacet
facet normal -0.207145 -0.834737 0.510201
outer loop
vertex 0.406059 0.771569 0.372591
vertex 0.427830 0.747951 0.342789
vertex 0.440945 0.799182 0.431933
endloop
endfacet
facet normal -0.207146 -0.834737 0.510201
outer loop
vertex 0.440945 0.799182 0.431933
vertex 0.427830 0.747951 0.342789
vertex 0.458345 0.758487 0.372416
endloop
endfacet
facet normal -0.207145 -0.834734 0.510206
outer loop
vertex 0.458345 0.758487 0.372416
vertex 0.462716 0.775564 0.402131
vertex 0.440945 0.799182 0.431933
endloop
endfacet
facet normal -0.790660 -0.282744 0.543059
outer loop
vertex 0.442726 0.806567 0.412070
vertex 0.421418 0.842887 0.399957
vertex 0.400265 0.855212 0.375578
endloop
endfacet
facet normal -0.790659 -0.282748 0.543058
outer loop
vertex 0.400265 0.855212 0.375578
vertex 0.379269 0.843543 0.338932
vertex 0.442726 0.806567 0.412070
endloop
endfacet
facet normal -0.790662 -0.282745 0.543055
outer loop
vertex 0.442726 0.806567 0.412070
vertex 0.379269 0.843543 0.338932
vertex 0.400577 0.807222 0.351045
endloop
endfacet
facet normal -0.790659 -0.282748 0.543058
outer loop
vertex 0.400577 0.807222 0.351045
vertex 0.421730 0.794897 0.375425
vertex 0.442726 0.806567 0.412070
endloop
endfacet
endsolid Exported from Blender-2.76 (sub 0)
