solid OBJECT
  facet normal 0.000000e+000 1.000000e+000 -6.123032e-017
    outer loop
      vertex 5.000000e-001 3.061516e-017 5.000000e-001
      vertex 5.000000e-001 0.000000e+000 0.000000e+000
      vertex 0.000000e+000 0.000000e+000 0.000000e+000
    endloop
  endfacet
  facet normal 0.000000e+000 1.000000e+000 -6.123032e-017
    outer loop
      vertex 5.000000e-001 3.061516e-017 5.000000e-001
      vertex 0.000000e+000 0.000000e+000 0.000000e+000
      vertex 0.000000e+000 3.061516e-017 5.000000e-001
    endloop
  endfacet
  facet normal 0.000000e+000 1.000000e+000 -6.123032e-017
    outer loop
      vertex 5.000000e-001 6.123032e-017 1.000000e+000
      vertex 5.000000e-001 3.061516e-017 5.000000e-001
      vertex 0.000000e+000 3.061516e-017 5.000000e-001
    endloop
  endfacet
  facet normal 0.000000e+000 1.000000e+000 -6.123032e-017
    outer loop
      vertex 5.000000e-001 6.123032e-017 1.000000e+000
      vertex 0.000000e+000 3.061516e-017 5.000000e-001
      vertex 0.000000e+000 6.123032e-017 1.000000e+000
    endloop
  endfacet
  facet normal 0.000000e+000 1.000000e+000 -6.123032e-017
    outer loop
      vertex 1.000000e+000 3.061516e-017 5.000000e-001
      vertex 1.000000e+000 0.000000e+000 0.000000e+000
      vertex 5.000000e-001 0.000000e+000 0.000000e+000
    endloop
  endfacet
  facet normal 0.000000e+000 1.000000e+000 -6.123032e-017
    outer loop
      vertex 1.000000e+000 3.061516e-017 5.000000e-001
      vertex 5.000000e-001 0.000000e+000 0.000000e+000
      vertex 5.000000e-001 3.061516e-017 5.000000e-001
    endloop
  endfacet
  facet normal 0.000000e+000 1.000000e+000 -6.123032e-017
    outer loop
      vertex 1.000000e+000 6.123032e-017 1.000000e+000
      vertex 1.000000e+000 3.061516e-017 5.000000e-001
      vertex 5.000000e-001 3.061516e-017 5.000000e-001
    endloop
  endfacet
  facet normal 0.000000e+000 1.000000e+000 -6.123032e-017
    outer loop
      vertex 1.000000e+000 6.123032e-017 1.000000e+000
      vertex 5.000000e-001 3.061516e-017 5.000000e-001
      vertex 5.000000e-001 6.123032e-017 1.000000e+000
    endloop
  endfacet
endsolid OBJECT
