solid OBJECT
  facet normal 1.000000e+000 0.000000e+000 0.000000e+000
    outer loop
      vertex 8.747700e-001 2.708800e-001 5.489170e-001
      vertex 8.747700e-001 2.330320e-001 6.265680e-001
      vertex 8.747700e-001 2.483730e-001 5.861420e-001
    endloop
  endfacet
  facet normal 1.000000e+000 0.000000e+000 0.000000e+000
    outer loop
      vertex 8.747700e-001 2.330320e-001 6.265680e-001
      vertex 8.747700e-001 2.708800e-001 5.489170e-001
      vertex 8.747700e-001 2.943080e-001 5.661360e-001
    endloop
  endfacet
  facet normal 1.000000e+000 0.000000e+000 0.000000e+000
    outer loop
      vertex 8.747700e-001 2.254480e-001 6.686440e-001
      vertex 8.747700e-001 2.943080e-001 5.661360e-001
      vertex 8.747700e-001 3.177360e-001 5.833560e-001
    endloop
  endfacet
  facet normal 1.000000e+000 0.000000e+000 0.000000e+000
    outer loop
      vertex 8.747700e-001 2.943080e-001 5.661360e-001
      vertex 8.747700e-001 2.254480e-001 6.686440e-001
      vertex 8.747700e-001 2.330320e-001 6.265680e-001
    endloop
  endfacet
  facet normal 1.000000e+000 0.000000e+000 0.000000e+000
    outer loop
      vertex 8.747700e-001 2.259120e-001 7.107500e-001
      vertex 8.747700e-001 3.177360e-001 5.833560e-001
      vertex 8.747700e-001 3.411630e-001 6.005760e-001
    endloop
  endfacet
  facet normal 1.000000e+000 0.000000e+000 0.000000e+000
    outer loop
      vertex 8.747700e-001 3.177360e-001 5.833560e-001
      vertex 8.747700e-001 2.259120e-001 7.107500e-001
      vertex 8.747700e-001 2.254480e-001 6.686440e-001
    endloop
  endfacet
  facet normal 1.000000e+000 0.000000e+000 0.000000e+000
    outer loop
      vertex 8.747700e-001 2.344060e-001 7.512690e-001
      vertex 8.747700e-001 3.411630e-001 6.005760e-001
      vertex 8.747700e-001 3.645910e-001 6.177960e-001
    endloop
  endfacet
  facet normal 1.000000e+000 0.000000e+000 0.000000e+000
    outer loop
      vertex 8.747700e-001 3.411630e-001 6.005760e-001
      vertex 8.747700e-001 2.344060e-001 7.512690e-001
      vertex 8.747700e-001 2.259120e-001 7.107500e-001
    endloop
  endfacet
  facet normal 1.000000e+000 0.000000e+000 0.000000e+000
    outer loop
      vertex 8.747700e-001 2.506050e-001 7.886440e-001
      vertex 8.747700e-001 3.645910e-001 6.177960e-001
      vertex 8.747700e-001 3.880190e-001 6.350160e-001
    endloop
  endfacet
  facet normal 1.000000e+000 0.000000e+000 0.000000e+000
    outer loop
      vertex 8.747700e-001 3.645910e-001 6.177960e-001
      vertex 8.747700e-001 2.506050e-001 7.886440e-001
      vertex 8.747700e-001 2.344060e-001 7.512690e-001
    endloop
  endfacet
  facet normal 1.000000e+000 0.000000e+000 0.000000e+000
    outer loop
      vertex 8.747700e-001 2.738840e-001 8.214390e-001
      vertex 8.747700e-001 3.880190e-001 6.350160e-001
      vertex 8.747700e-001 4.114460e-001 6.522360e-001
    endloop
  endfacet
  facet normal 1.000000e+000 0.000000e+000 0.000000e+000
    outer loop
      vertex 8.747700e-001 3.880190e-001 6.350160e-001
      vertex 8.747700e-001 2.738840e-001 8.214390e-001
      vertex 8.747700e-001 2.506050e-001 7.886440e-001
    endloop
  endfacet
  facet normal 1.000000e+000 0.000000e+000 0.000000e+000
    outer loop
      vertex 8.747700e-001 3.033510e-001 8.483930e-001
      vertex 8.747700e-001 4.114460e-001 6.522360e-001
      vertex 8.747700e-001 4.348740e-001 6.694550e-001
    endloop
  endfacet
  facet normal 1.000000e+000 0.000000e+000 0.000000e+000
    outer loop
      vertex 8.747700e-001 4.114460e-001 6.522360e-001
      vertex 8.747700e-001 3.033510e-001 8.483930e-001
      vertex 8.747700e-001 2.738840e-001 8.214390e-001
    endloop
  endfacet
  facet normal 1.000000e+000 0.000000e+000 0.000000e+000
    outer loop
      vertex 8.747700e-001 3.378710e-001 8.684710e-001
      vertex 8.747700e-001 4.348740e-001 6.694550e-001
      vertex 8.747700e-001 4.583020e-001 6.866750e-001
    endloop
  endfacet
  facet normal 1.000000e+000 0.000000e+000 0.000000e+000
    outer loop
      vertex 8.747700e-001 4.348740e-001 6.694550e-001
      vertex 8.747700e-001 3.378710e-001 8.684710e-001
      vertex 8.747700e-001 3.033510e-001 8.483930e-001
    endloop
  endfacet
  facet normal 1.000000e+000 0.000000e+000 0.000000e+000
    outer loop
      vertex 8.747700e-001 3.761200e-001 8.809010e-001
      vertex 8.747700e-001 4.583020e-001 6.866750e-001
      vertex 8.747700e-001 4.817290e-001 7.038950e-001
    endloop
  endfacet
  facet normal 1.000000e+000 0.000000e+000 0.000000e+000
    outer loop
      vertex 8.747700e-001 4.583020e-001 6.866750e-001
      vertex 8.747700e-001 3.761200e-001 8.809010e-001
      vertex 8.747700e-001 3.378710e-001 8.684710e-001
    endloop
  endfacet
  facet normal 1.000000e+000 0.000000e+000 0.000000e+000
    outer loop
      vertex 8.747700e-001 4.166260e-001 8.852050e-001
      vertex 8.747700e-001 4.817290e-001 7.038950e-001
      vertex 8.747700e-001 5.051570e-001 7.211150e-001
    endloop
  endfacet
  facet normal 1.000000e+000 0.000000e+000 0.000000e+000
    outer loop
      vertex 8.747700e-001 4.817290e-001 7.038950e-001
      vertex 8.747700e-001 4.166260e-001 8.852050e-001
      vertex 8.747700e-001 3.761200e-001 8.809010e-001
    endloop
  endfacet
  facet normal 1.000000e+000 0.000000e+000 0.000000e+000
    outer loop
      vertex 8.747700e-001 4.578340e-001 8.812180e-001
      vertex 8.747700e-001 5.051570e-001 7.211150e-001
      vertex 8.747700e-001 5.285850e-001 7.383350e-001
    endloop
  endfacet
  facet normal 1.000000e+000 0.000000e+000 0.000000e+000
    outer loop
      vertex 8.747700e-001 5.051570e-001 7.211150e-001
      vertex 8.747700e-001 4.578340e-001 8.812180e-001
      vertex 8.747700e-001 4.166260e-001 8.852050e-001
    endloop
  endfacet
  facet normal 1.000000e+000 0.000000e+000 0.000000e+000
    outer loop
      vertex 8.747700e-001 4.981590e-001 8.690920e-001
      vertex 8.747700e-001 5.285850e-001 7.383350e-001
      vertex 8.747700e-001 5.520130e-001 7.555540e-001
    endloop
  endfacet
  facet normal 1.000000e+000 0.000000e+000 0.000000e+000
    outer loop
      vertex 8.747700e-001 5.285850e-001 7.383350e-001
      vertex 8.747700e-001 4.981590e-001 8.690920e-001
      vertex 8.747700e-001 4.578340e-001 8.812180e-001
    endloop
  endfacet
  facet normal 1.000000e+000 0.000000e+000 0.000000e+000
    outer loop
      vertex 8.747700e-001 5.360530e-001 8.492950e-001
      vertex 8.747700e-001 5.520130e-001 7.555540e-001
      vertex 8.747700e-001 5.754400e-001 7.727740e-001
    endloop
  endfacet
  facet normal 1.000000e+000 0.000000e+000 0.000000e+000
    outer loop
      vertex 8.747700e-001 5.520130e-001 7.555540e-001
      vertex 8.747700e-001 5.360530e-001 8.492950e-001
      vertex 8.747700e-001 4.981590e-001 8.690920e-001
    endloop
  endfacet
  facet normal 1.000000e+000 0.000000e+000 0.000000e+000
    outer loop
      vertex 8.747700e-001 5.988680e-001 7.899940e-001
      vertex 8.747700e-001 5.360530e-001 8.492950e-001
      vertex 8.747700e-001 5.754400e-001 7.727740e-001
    endloop
  endfacet
  facet normal 1.000000e+000 0.000000e+000 0.000000e+000
    outer loop
      vertex 8.747700e-001 5.360530e-001 8.492950e-001
      vertex 8.747700e-001 5.988680e-001 7.899940e-001
      vertex 8.747700e-001 5.700580e-001 8.225870e-001
    endloop
  endfacet
  facet normal -9.099625e-001 -3.877542e-001 -1.470201e-001
    outer loop
      vertex 8.669990e-001 2.409540e-001 6.287650e-001
      vertex 8.634580e-001 2.779240e-001 5.531760e-001
      vertex 8.669950e-001 2.557600e-001 5.897400e-001
    endloop
  endfacet
  facet normal -9.990739e-001 -2.669381e-002 3.374622e-002
    outer loop
      vertex 8.634580e-001 2.779240e-001 5.531760e-001
      vertex 8.669990e-001 2.409540e-001 6.287650e-001
      vertex 8.634580e-001 2.943080e-001 5.661360e-001
    endloop
  endfacet
  facet normal -9.963842e-001 -8.364189e-002 -1.492027e-002
    outer loop
      vertex 8.670050e-001 2.336460e-001 6.693310e-001
      vertex 8.634580e-001 2.943080e-001 5.661360e-001
      vertex 8.669990e-001 2.409540e-001 6.287650e-001
    endloop
  endfacet
  facet normal -9.995566e-001 -1.763376e-002 2.399090e-002
    outer loop
      vertex 8.634580e-001 2.943080e-001 5.661360e-001
      vertex 8.670050e-001 2.336460e-001 6.693310e-001
      vertex 8.634580e-001 3.177360e-001 5.833560e-001
    endloop
  endfacet
  facet normal -9.991385e-001 -4.149535e-002 6.352194e-004
    outer loop
      vertex 8.670120e-001 2.340970e-001 7.098550e-001
      vertex 8.634580e-001 3.177360e-001 5.833560e-001
      vertex 8.670050e-001 2.336460e-001 6.693310e-001
    endloop
  endfacet
  facet normal -9.997248e-001 -1.389353e-002 1.890155e-002
    outer loop
      vertex 8.634580e-001 3.177360e-001 5.833560e-001
      vertex 8.670120e-001 2.340970e-001 7.098550e-001
      vertex 8.634580e-001 3.411630e-001 6.005760e-001
    endloop
  endfacet
  facet normal -9.996137e-001 -2.715837e-002 5.901725e-003
    outer loop
      vertex 8.670200e-001 2.422600e-001 7.487720e-001
      vertex 8.634580e-001 3.411630e-001 6.005760e-001
      vertex 8.670120e-001 2.340970e-001 7.098550e-001
    endloop
  endfacet
  facet normal -9.997998e-001 -1.185033e-002 1.612248e-002
    outer loop
      vertex 8.634580e-001 3.411630e-001 6.005760e-001
      vertex 8.670200e-001 2.422600e-001 7.487720e-001
      vertex 8.634580e-001 3.645910e-001 6.177960e-001
    endloop
  endfacet
  facet normal -9.997668e-001 -1.974024e-002 8.752431e-003
    outer loop
      vertex 8.670270e-001 2.577900e-001 7.845950e-001
      vertex 8.634580e-001 3.645910e-001 6.177960e-001
      vertex 8.670200e-001 2.422600e-001 7.487720e-001
    endloop
  endfacet
  facet normal -9.998370e-001 -1.069247e-002 1.454720e-002
    outer loop
      vertex 8.634580e-001 3.645910e-001 6.177960e-001
      vertex 8.670270e-001 2.577900e-001 7.845950e-001
      vertex 8.634580e-001 3.880190e-001 6.350160e-001
    endloop
  endfacet
  facet normal -9.998294e-001 -1.497172e-002 1.082135e-002
    outer loop
      vertex 8.670330e-001 2.800690e-001 8.159750e-001
      vertex 8.634580e-001 3.880190e-001 6.350160e-001
      vertex 8.670270e-001 2.577900e-001 7.845950e-001
    endloop
  endfacet
  facet normal -9.998548e-001 -1.009358e-002 1.373187e-002
    outer loop
      vertex 8.634580e-001 3.880190e-001 6.350160e-001
      vertex 8.670330e-001 2.800690e-001 8.159750e-001
      vertex 8.634580e-001 4.114460e-001 6.522360e-001
    endloop
  endfacet
  facet normal -9.998544e-001 -1.149583e-002 1.260676e-002
    outer loop
      vertex 8.670340e-001 3.082390e-001 8.417430e-001
      vertex 8.634580e-001 4.114460e-001 6.522360e-001
      vertex 8.670330e-001 2.800690e-001 8.159750e-001
    endloop
  endfacet
  facet normal -9.998602e-001 -9.903223e-003 1.347422e-002
    outer loop
      vertex 8.634580e-001 4.114460e-001 6.522360e-001
      vertex 8.670340e-001 3.082390e-001 8.417430e-001
      vertex 8.634580e-001 4.348740e-001 6.694550e-001
    endloop
  endfacet
  facet normal -9.998586e-001 -8.477494e-003 1.452212e-002
    outer loop
      vertex 8.670330e-001 3.412400e-001 8.609380e-001
      vertex 8.634580e-001 4.348740e-001 6.694550e-001
      vertex 8.670340e-001 3.082390e-001 8.417430e-001
    endloop
  endfacet
  facet normal -9.998548e-001 -1.009325e-002 1.373196e-002
    outer loop
      vertex 8.634580e-001 4.348740e-001 6.694550e-001
      vertex 8.670330e-001 3.412400e-001 8.609380e-001
      vertex 8.634580e-001 4.583020e-001 6.866750e-001
    endloop
  endfacet
  facet normal -9.998439e-001 -5.584420e-003 1.676056e-002
    outer loop
      vertex 8.670280e-001 3.778400e-001 8.728340e-001
      vertex 8.634580e-001 4.583020e-001 6.866750e-001
      vertex 8.670330e-001 3.412400e-001 8.609380e-001
    endloop
  endfacet
  facet normal -9.998369e-001 -1.069580e-002 1.455118e-002
    outer loop
      vertex 8.634580e-001 4.583020e-001 6.866750e-001
      vertex 8.670280e-001 3.778400e-001 8.728340e-001
      vertex 8.634580e-001 4.817290e-001 7.038950e-001
    endloop
  endfacet
  facet normal -9.998031e-001 -2.302502e-003 1.971192e-002
    outer loop
      vertex 8.670200e-001 4.166650e-001 8.769640e-001
      vertex 8.634580e-001 4.817290e-001 7.038950e-001
      vertex 8.670280e-001 3.778400e-001 8.728340e-001
    endloop
  endfacet
  facet normal -9.997998e-001 -1.185029e-002 1.612243e-002
    outer loop
      vertex 8.634580e-001 4.817290e-001 7.038950e-001
      vertex 8.670200e-001 4.166650e-001 8.769640e-001
      vertex 8.634580e-001 5.051570e-001 7.211150e-001
    endloop
  endfacet
  facet normal -9.997084e-001 2.122840e-003 2.405437e-002
    outer loop
      vertex 8.670120e-001 4.562450e-001 8.731390e-001
      vertex 8.634580e-001 5.051570e-001 7.211150e-001
      vertex 8.670200e-001 4.166650e-001 8.769640e-001
    endloop
  endfacet
  facet normal -9.997248e-001 -1.389316e-002 1.890179e-002
    outer loop
      vertex 8.634580e-001 5.051570e-001 7.211150e-001
      vertex 8.670120e-001 4.562450e-001 8.731390e-001
      vertex 8.634580e-001 5.285850e-001 7.383350e-001
    endloop
  endfacet
  facet normal -9.994674e-001 9.227017e-003 3.130200e-002
    outer loop
      vertex 8.670050e-001 4.950560e-001 8.614740e-001
      vertex 8.634580e-001 5.285850e-001 7.383350e-001
      vertex 8.670120e-001 4.562450e-001 8.731390e-001
    endloop
  endfacet
  facet normal -9.995567e-001 -1.763284e-002 2.399101e-002
    outer loop
      vertex 8.634580e-001 5.285850e-001 7.383350e-001
      vertex 8.670050e-001 4.950560e-001 8.614740e-001
      vertex 8.634580e-001 5.520130e-001 7.555540e-001
    endloop
  endfacet
  facet normal -9.986340e-001 2.406167e-002 4.638076e-002
    outer loop
      vertex 8.669990e-001 5.315920e-001 8.423900e-001
      vertex 8.634580e-001 5.520130e-001 7.555540e-001
      vertex 8.670050e-001 4.950560e-001 8.614740e-001
    endloop
  endfacet
  facet normal -9.990703e-001 -2.553236e-002 3.473566e-002
    outer loop
      vertex 8.634580e-001 5.520130e-001 7.555540e-001
      vertex 8.669990e-001 5.315920e-001 8.423900e-001
      vertex 8.634580e-001 5.754400e-001 7.727740e-001
    endloop
  endfacet
  facet normal -9.100047e-001 2.559955e-001 3.261253e-001
    outer loop
      vertex 8.634580e-001 5.927000e-001 7.845420e-001
      vertex 8.669990e-001 5.315920e-001 8.423900e-001
      vertex 8.669950e-001 5.644190e-001 8.166110e-001
    endloop
  endfacet
  facet normal -9.990739e-001 -2.423876e-002 3.555062e-002
    outer loop
      vertex 8.669990e-001 5.315920e-001 8.423900e-001
      vertex 8.634580e-001 5.927000e-001 7.845420e-001
      vertex 8.634580e-001 5.754400e-001 7.727740e-001
    endloop
  endfacet
  facet normal 0.000000e+000 5.922466e-001 -8.057568e-001
    outer loop
      vertex 8.747700e-001 3.645910e-001 6.177960e-001
      vertex 8.634580e-001 3.411630e-001 6.005760e-001
      vertex 8.634580e-001 3.645910e-001 6.177960e-001
    endloop
  endfacet
  facet normal 0.000000e+000 5.922466e-001 -8.057568e-001
    outer loop
      vertex 8.634580e-001 3.411630e-001 6.005760e-001
      vertex 8.747700e-001 3.645910e-001 6.177960e-001
      vertex 8.747700e-001 3.411630e-001 6.005760e-001
    endloop
  endfacet
  facet normal 0.000000e+000 5.922466e-001 -8.057568e-001
    outer loop
      vertex 8.747700e-001 3.880190e-001 6.350160e-001
      vertex 8.634580e-001 3.645910e-001 6.177960e-001
      vertex 8.634580e-001 3.880190e-001 6.350160e-001
    endloop
  endfacet
  facet normal 0.000000e+000 5.922466e-001 -8.057568e-001
    outer loop
      vertex 8.634580e-001 3.645910e-001 6.177960e-001
      vertex 8.747700e-001 3.880190e-001 6.350160e-001
      vertex 8.747700e-001 3.645910e-001 6.177960e-001
    endloop
  endfacet
  facet normal 0.000000e+000 5.922614e-001 -8.057459e-001
    outer loop
      vertex 8.747700e-001 4.114460e-001 6.522360e-001
      vertex 8.634580e-001 3.880190e-001 6.350160e-001
      vertex 8.634580e-001 4.114460e-001 6.522360e-001
    endloop
  endfacet
  facet normal 0.000000e+000 5.922614e-001 -8.057459e-001
    outer loop
      vertex 8.634580e-001 3.880190e-001 6.350160e-001
      vertex 8.747700e-001 4.114460e-001 6.522360e-001
      vertex 8.747700e-001 3.880190e-001 6.350160e-001
    endloop
  endfacet
  facet normal 0.000000e+000 5.922239e-001 -8.057734e-001
    outer loop
      vertex 8.747700e-001 4.348740e-001 6.694550e-001
      vertex 8.634580e-001 4.114460e-001 6.522360e-001
      vertex 8.634580e-001 4.348740e-001 6.694550e-001
    endloop
  endfacet
  facet normal 0.000000e+000 5.922239e-001 -8.057734e-001
    outer loop
      vertex 8.634580e-001 4.114460e-001 6.522360e-001
      vertex 8.747700e-001 4.348740e-001 6.694550e-001
      vertex 8.747700e-001 4.114460e-001 6.522360e-001
    endloop
  endfacet
  facet normal 0.000000e+000 5.922466e-001 -8.057568e-001
    outer loop
      vertex 8.747700e-001 4.583020e-001 6.866750e-001
      vertex 8.634580e-001 4.348740e-001 6.694550e-001
      vertex 8.634580e-001 4.583020e-001 6.866750e-001
    endloop
  endfacet
  facet normal 0.000000e+000 5.922466e-001 -8.057568e-001
    outer loop
      vertex 8.634580e-001 4.348740e-001 6.694550e-001
      vertex 8.747700e-001 4.583020e-001 6.866750e-001
      vertex 8.747700e-001 4.348740e-001 6.694550e-001
    endloop
  endfacet
  facet normal 0.000000e+000 5.922614e-001 -8.057459e-001
    outer loop
      vertex 8.747700e-001 4.817290e-001 7.038950e-001
      vertex 8.634580e-001 4.583020e-001 6.866750e-001
      vertex 8.634580e-001 4.817290e-001 7.038950e-001
    endloop
  endfacet
  facet normal 0.000000e+000 5.922614e-001 -8.057459e-001
    outer loop
      vertex 8.634580e-001 4.583020e-001 6.866750e-001
      vertex 8.747700e-001 4.817290e-001 7.038950e-001
      vertex 8.747700e-001 4.583020e-001 6.866750e-001
    endloop
  endfacet
  facet normal 0.000000e+000 5.922466e-001 -8.057568e-001
    outer loop
      vertex 8.747700e-001 5.051570e-001 7.211150e-001
      vertex 8.634580e-001 4.817290e-001 7.038950e-001
      vertex 8.634580e-001 5.051570e-001 7.211150e-001
    endloop
  endfacet
  facet normal 0.000000e+000 5.922466e-001 -8.057568e-001
    outer loop
      vertex 8.634580e-001 4.817290e-001 7.038950e-001
      vertex 8.747700e-001 5.051570e-001 7.211150e-001
      vertex 8.747700e-001 4.817290e-001 7.038950e-001
    endloop
  endfacet
  facet normal 0.000000e+000 5.922461e-001 -8.057572e-001
    outer loop
      vertex 8.747700e-001 5.285850e-001 7.383350e-001
      vertex 8.634580e-001 5.051570e-001 7.211150e-001
      vertex 8.634580e-001 5.285850e-001 7.383350e-001
    endloop
  endfacet
  facet normal 0.000000e+000 5.922461e-001 -8.057572e-001
    outer loop
      vertex 8.634580e-001 5.051570e-001 7.211150e-001
      vertex 8.747700e-001 5.285850e-001 7.383350e-001
      vertex 8.747700e-001 5.051570e-001 7.211150e-001
    endloop
  endfacet
  facet normal 0.000000e+000 5.922244e-001 -8.057731e-001
    outer loop
      vertex 8.747700e-001 5.520130e-001 7.555540e-001
      vertex 8.634580e-001 5.285850e-001 7.383350e-001
      vertex 8.634580e-001 5.520130e-001 7.555540e-001
    endloop
  endfacet
  facet normal 0.000000e+000 5.922244e-001 -8.057731e-001
    outer loop
      vertex 8.634580e-001 5.285850e-001 7.383350e-001
      vertex 8.747700e-001 5.520130e-001 7.555540e-001
      vertex 8.747700e-001 5.285850e-001 7.383350e-001
    endloop
  endfacet
  facet normal 0.000000e+000 5.922614e-001 -8.057459e-001
    outer loop
      vertex 8.747700e-001 5.754400e-001 7.727740e-001
      vertex 8.634580e-001 5.520130e-001 7.555540e-001
      vertex 8.634580e-001 5.754400e-001 7.727740e-001
    endloop
  endfacet
  facet normal 0.000000e+000 5.922614e-001 -8.057459e-001
    outer loop
      vertex 8.634580e-001 5.520130e-001 7.555540e-001
      vertex 8.747700e-001 5.754400e-001 7.727740e-001
      vertex 8.747700e-001 5.520130e-001 7.555540e-001
    endloop
  endfacet
  facet normal 9.067462e-002 5.610113e-001 -8.228271e-001
    outer loop
      vertex 8.747700e-001 5.988680e-001 7.899940e-001
      vertex 8.634580e-001 5.754400e-001 7.727740e-001
      vertex 8.634580e-001 5.927000e-001 7.845420e-001
    endloop
  endfacet
  facet normal 0.000000e+000 5.922461e-001 -8.057572e-001
    outer loop
      vertex 8.634580e-001 5.754400e-001 7.727740e-001
      vertex 8.747700e-001 5.988680e-001 7.899940e-001
      vertex 8.747700e-001 5.754400e-001 7.727740e-001
    endloop
  endfacet
  facet normal 0.000000e+000 6.749480e-001 -7.378653e-001
    outer loop
      vertex 8.670340e-001 3.082390e-001 8.417430e-001
      vertex 1.520380e-001 2.800690e-001 8.159750e-001
      vertex 1.520370e-001 3.082390e-001 8.417430e-001
    endloop
  endfacet
  facet normal 0.000000e+000 6.749480e-001 -7.378653e-001
    outer loop
      vertex 1.520380e-001 2.800690e-001 8.159750e-001
      vertex 8.670340e-001 3.082390e-001 8.417430e-001
      vertex 8.670330e-001 2.800690e-001 8.159750e-001
    endloop
  endfacet
  facet normal 6.526335e-002 5.909614e-001 -8.040556e-001
    outer loop
      vertex 8.634580e-001 2.779240e-001 5.531760e-001
      vertex 8.747700e-001 2.943080e-001 5.661360e-001
      vertex 8.747700e-001 2.708800e-001 5.489170e-001
    endloop
  endfacet
  facet normal 0.000000e+000 6.203894e-001 -7.842940e-001
    outer loop
      vertex 8.747700e-001 2.943080e-001 5.661360e-001
      vertex 8.634580e-001 2.779240e-001 5.531760e-001
      vertex 8.634580e-001 2.943080e-001 5.661360e-001
    endloop
  endfacet
  facet normal 0.000000e+000 5.922466e-001 -8.057568e-001
    outer loop
      vertex 8.747700e-001 3.177360e-001 5.833560e-001
      vertex 8.634580e-001 2.943080e-001 5.661360e-001
      vertex 8.634580e-001 3.177360e-001 5.833560e-001
    endloop
  endfacet
  facet normal 0.000000e+000 5.922466e-001 -8.057568e-001
    outer loop
      vertex 8.634580e-001 2.943080e-001 5.661360e-001
      vertex 8.747700e-001 3.177360e-001 5.833560e-001
      vertex 8.747700e-001 2.943080e-001 5.661360e-001
    endloop
  endfacet
  facet normal 0.000000e+000 5.922614e-001 -8.057459e-001
    outer loop
      vertex 8.747700e-001 3.411630e-001 6.005760e-001
      vertex 8.634580e-001 3.177360e-001 5.833560e-001
      vertex 8.634580e-001 3.411630e-001 6.005760e-001
    endloop
  endfacet
  facet normal 0.000000e+000 5.922614e-001 -8.057459e-001
    outer loop
      vertex 8.634580e-001 3.177360e-001 5.833560e-001
      vertex 8.747700e-001 3.411630e-001 6.005760e-001
      vertex 8.747700e-001 3.177360e-001 5.833560e-001
    endloop
  endfacet
  facet normal -1.000000e+000 0.000000e+000 0.000000e+000
    outer loop
      vertex 1.443010e-001 2.330320e-001 6.265680e-001
      vertex 1.443010e-001 2.708800e-001 5.489170e-001
      vertex 1.443010e-001 2.483730e-001 5.861420e-001
    endloop
  endfacet
  facet normal -1.000000e+000 0.000000e+000 0.000000e+000
    outer loop
      vertex 1.443010e-001 2.708800e-001 5.489170e-001
      vertex 1.443010e-001 2.330320e-001 6.265680e-001
      vertex 1.443010e-001 2.943080e-001 5.661360e-001
    endloop
  endfacet
  facet normal -1.000000e+000 0.000000e+000 0.000000e+000
    outer loop
      vertex 1.443010e-001 2.254480e-001 6.686440e-001
      vertex 1.443010e-001 2.943080e-001 5.661360e-001
      vertex 1.443010e-001 2.330320e-001 6.265680e-001
    endloop
  endfacet
  facet normal -1.000000e+000 0.000000e+000 0.000000e+000
    outer loop
      vertex 1.443010e-001 2.943080e-001 5.661360e-001
      vertex 1.443010e-001 2.254480e-001 6.686440e-001
      vertex 1.443010e-001 3.177360e-001 5.833560e-001
    endloop
  endfacet
  facet normal -1.000000e+000 0.000000e+000 0.000000e+000
    outer loop
      vertex 1.443010e-001 2.259120e-001 7.107500e-001
      vertex 1.443010e-001 3.177360e-001 5.833560e-001
      vertex 1.443010e-001 2.254480e-001 6.686440e-001
    endloop
  endfacet
  facet normal -1.000000e+000 0.000000e+000 0.000000e+000
    outer loop
      vertex 1.443010e-001 3.177360e-001 5.833560e-001
      vertex 1.443010e-001 2.259120e-001 7.107500e-001
      vertex 1.443010e-001 3.411630e-001 6.005760e-001
    endloop
  endfacet
  facet normal -1.000000e+000 0.000000e+000 0.000000e+000
    outer loop
      vertex 1.443010e-001 2.344060e-001 7.512690e-001
      vertex 1.443010e-001 3.411630e-001 6.005760e-001
      vertex 1.443010e-001 2.259120e-001 7.107500e-001
    endloop
  endfacet
  facet normal -1.000000e+000 0.000000e+000 0.000000e+000
    outer loop
      vertex 1.443010e-001 3.411630e-001 6.005760e-001
      vertex 1.443010e-001 2.344060e-001 7.512690e-001
      vertex 1.443010e-001 3.645910e-001 6.177960e-001
    endloop
  endfacet
  facet normal -1.000000e+000 0.000000e+000 0.000000e+000
    outer loop
      vertex 1.443010e-001 2.506050e-001 7.886440e-001
      vertex 1.443010e-001 3.645910e-001 6.177960e-001
      vertex 1.443010e-001 2.344060e-001 7.512690e-001
    endloop
  endfacet
  facet normal -1.000000e+000 0.000000e+000 0.000000e+000
    outer loop
      vertex 1.443010e-001 3.645910e-001 6.177960e-001
      vertex 1.443010e-001 2.506050e-001 7.886440e-001
      vertex 1.443010e-001 3.880190e-001 6.350160e-001
    endloop
  endfacet
  facet normal -1.000000e+000 0.000000e+000 0.000000e+000
    outer loop
      vertex 1.443010e-001 2.738840e-001 8.214390e-001
      vertex 1.443010e-001 3.880190e-001 6.350160e-001
      vertex 1.443010e-001 2.506050e-001 7.886440e-001
    endloop
  endfacet
  facet normal -1.000000e+000 0.000000e+000 0.000000e+000
    outer loop
      vertex 1.443010e-001 3.880190e-001 6.350160e-001
      vertex 1.443010e-001 2.738840e-001 8.214390e-001
      vertex 1.443010e-001 4.114460e-001 6.522360e-001
    endloop
  endfacet
  facet normal -1.000000e+000 0.000000e+000 0.000000e+000
    outer loop
      vertex 1.443010e-001 3.033510e-001 8.483930e-001
      vertex 1.443010e-001 4.114460e-001 6.522360e-001
      vertex 1.443010e-001 2.738840e-001 8.214390e-001
    endloop
  endfacet
  facet normal -1.000000e+000 0.000000e+000 0.000000e+000
    outer loop
      vertex 1.443010e-001 4.114460e-001 6.522360e-001
      vertex 1.443010e-001 3.033510e-001 8.483930e-001
      vertex 1.443010e-001 4.348740e-001 6.694550e-001
    endloop
  endfacet
  facet normal -1.000000e+000 0.000000e+000 0.000000e+000
    outer loop
      vertex 1.443010e-001 3.378710e-001 8.684710e-001
      vertex 1.443010e-001 4.348740e-001 6.694550e-001
      vertex 1.443010e-001 3.033510e-001 8.483930e-001
    endloop
  endfacet
  facet normal -1.000000e+000 0.000000e+000 0.000000e+000
    outer loop
      vertex 1.443010e-001 4.348740e-001 6.694550e-001
      vertex 1.443010e-001 3.378710e-001 8.684710e-001
      vertex 1.443010e-001 4.583020e-001 6.866750e-001
    endloop
  endfacet
  facet normal -1.000000e+000 0.000000e+000 0.000000e+000
    outer loop
      vertex 1.443010e-001 3.761200e-001 8.809010e-001
      vertex 1.443010e-001 4.583020e-001 6.866750e-001
      vertex 1.443010e-001 3.378710e-001 8.684710e-001
    endloop
  endfacet
  facet normal -1.000000e+000 0.000000e+000 0.000000e+000
    outer loop
      vertex 1.443010e-001 4.583020e-001 6.866750e-001
      vertex 1.443010e-001 3.761200e-001 8.809010e-001
      vertex 1.443010e-001 4.817290e-001 7.038950e-001
    endloop
  endfacet
  facet normal -1.000000e+000 0.000000e+000 0.000000e+000
    outer loop
      vertex 1.443010e-001 4.166260e-001 8.852050e-001
      vertex 1.443010e-001 4.817290e-001 7.038950e-001
      vertex 1.443010e-001 3.761200e-001 8.809010e-001
    endloop
  endfacet
  facet normal -1.000000e+000 0.000000e+000 0.000000e+000
    outer loop
      vertex 1.443010e-001 4.817290e-001 7.038950e-001
      vertex 1.443010e-001 4.166260e-001 8.852050e-001
      vertex 1.443010e-001 5.051570e-001 7.211150e-001
    endloop
  endfacet
  facet normal -1.000000e+000 0.000000e+000 0.000000e+000
    outer loop
      vertex 1.443010e-001 4.578340e-001 8.812180e-001
      vertex 1.443010e-001 5.051570e-001 7.211150e-001
      vertex 1.443010e-001 4.166260e-001 8.852050e-001
    endloop
  endfacet
  facet normal -1.000000e+000 0.000000e+000 0.000000e+000
    outer loop
      vertex 1.443010e-001 5.051570e-001 7.211150e-001
      vertex 1.443010e-001 4.578340e-001 8.812180e-001
      vertex 1.443010e-001 5.285850e-001 7.383350e-001
    endloop
  endfacet
  facet normal -1.000000e+000 0.000000e+000 0.000000e+000
    outer loop
      vertex 1.443010e-001 4.981590e-001 8.690920e-001
      vertex 1.443010e-001 5.285850e-001 7.383350e-001
      vertex 1.443010e-001 4.578340e-001 8.812180e-001
    endloop
  endfacet
  facet normal -1.000000e+000 0.000000e+000 0.000000e+000
    outer loop
      vertex 1.443010e-001 5.285850e-001 7.383350e-001
      vertex 1.443010e-001 4.981590e-001 8.690920e-001
      vertex 1.443010e-001 5.520130e-001 7.555540e-001
    endloop
  endfacet
  facet normal -1.000000e+000 0.000000e+000 0.000000e+000
    outer loop
      vertex 1.443010e-001 5.360530e-001 8.492950e-001
      vertex 1.443010e-001 5.520130e-001 7.555540e-001
      vertex 1.443010e-001 4.981590e-001 8.690920e-001
    endloop
  endfacet
  facet normal -1.000000e+000 0.000000e+000 0.000000e+000
    outer loop
      vertex 1.443010e-001 5.520130e-001 7.555540e-001
      vertex 1.443010e-001 5.360530e-001 8.492950e-001
      vertex 1.443010e-001 5.754400e-001 7.727740e-001
    endloop
  endfacet
  facet normal -1.000000e+000 0.000000e+000 0.000000e+000
    outer loop
      vertex 1.443010e-001 5.988680e-001 7.899940e-001
      vertex 1.443010e-001 5.360530e-001 8.492950e-001
      vertex 1.443010e-001 5.700580e-001 8.225870e-001
    endloop
  endfacet
  facet normal -1.000000e+000 0.000000e+000 0.000000e+000
    outer loop
      vertex 1.443010e-001 5.360530e-001 8.492950e-001
      vertex 1.443010e-001 5.988680e-001 7.899940e-001
      vertex 1.443010e-001 5.754400e-001 7.727740e-001
    endloop
  endfacet
  facet normal 0.000000e+000 -8.557435e-001 -5.174003e-001
    outer loop
      vertex 8.747700e-001 2.708800e-001 5.489170e-001
      vertex 1.443010e-001 2.483730e-001 5.861420e-001
      vertex 1.443010e-001 2.708800e-001 5.489170e-001
    endloop
  endfacet
  facet normal 0.000000e+000 -8.557435e-001 -5.174003e-001
    outer loop
      vertex 1.443010e-001 2.483730e-001 5.861420e-001
      vertex 8.747700e-001 2.708800e-001 5.489170e-001
      vertex 8.747700e-001 2.483730e-001 5.861420e-001
    endloop
  endfacet
  facet normal 0.000000e+000 -9.841412e-001 -1.773870e-001
    outer loop
      vertex 8.747700e-001 2.330320e-001 6.265680e-001
      vertex 1.443010e-001 2.254480e-001 6.686440e-001
      vertex 1.443010e-001 2.330320e-001 6.265680e-001
    endloop
  endfacet
  facet normal 0.000000e+000 -9.841412e-001 -1.773870e-001
    outer loop
      vertex 1.443010e-001 2.254480e-001 6.686440e-001
      vertex 8.747700e-001 2.330320e-001 6.265680e-001
      vertex 8.747700e-001 2.254480e-001 6.686440e-001
    endloop
  endfacet
  facet normal 0.000000e+000 -9.999393e-001 1.101932e-002
    outer loop
      vertex 8.747700e-001 2.254480e-001 6.686440e-001
      vertex 1.443010e-001 2.259120e-001 7.107500e-001
      vertex 1.443010e-001 2.254480e-001 6.686440e-001
    endloop
  endfacet
  facet normal 0.000000e+000 -9.999393e-001 1.101932e-002
    outer loop
      vertex 1.443010e-001 2.259120e-001 7.107500e-001
      vertex 8.747700e-001 2.254480e-001 6.686440e-001
      vertex 8.747700e-001 2.259120e-001 7.107500e-001
    endloop
  endfacet
  facet normal 0.000000e+000 -9.787263e-001 2.051702e-001
    outer loop
      vertex 8.747700e-001 2.259120e-001 7.107500e-001
      vertex 1.443010e-001 2.344060e-001 7.512690e-001
      vertex 1.443010e-001 2.259120e-001 7.107500e-001
    endloop
  endfacet
  facet normal 0.000000e+000 -9.787263e-001 2.051702e-001
    outer loop
      vertex 1.443010e-001 2.344060e-001 7.512690e-001
      vertex 8.747700e-001 2.259120e-001 7.107500e-001
      vertex 8.747700e-001 2.344060e-001 7.512690e-001
    endloop
  endfacet
  facet normal 0.000000e+000 -9.175275e-001 3.976724e-001
    outer loop
      vertex 8.747700e-001 2.344060e-001 7.512690e-001
      vertex 1.443010e-001 2.506050e-001 7.886440e-001
      vertex 1.443010e-001 2.344060e-001 7.512690e-001
    endloop
  endfacet
  facet normal 0.000000e+000 -9.175275e-001 3.976724e-001
    outer loop
      vertex 1.443010e-001 2.506050e-001 7.886440e-001
      vertex 8.747700e-001 2.344060e-001 7.512690e-001
      vertex 8.747700e-001 2.506050e-001 7.886440e-001
    endloop
  endfacet
  facet normal 0.000000e+000 -8.154469e-001 5.788319e-001
    outer loop
      vertex 8.747700e-001 2.506050e-001 7.886440e-001
      vertex 1.443010e-001 2.738840e-001 8.214390e-001
      vertex 1.443010e-001 2.506050e-001 7.886440e-001
    endloop
  endfacet
  facet normal 0.000000e+000 -8.154469e-001 5.788319e-001
    outer loop
      vertex 1.443010e-001 2.738840e-001 8.214390e-001
      vertex 8.747700e-001 2.506050e-001 7.886440e-001
      vertex 8.747700e-001 2.738840e-001 8.214390e-001
    endloop
  endfacet
  facet normal 0.000000e+000 -6.749427e-001 7.378701e-001
    outer loop
      vertex 8.747700e-001 2.738840e-001 8.214390e-001
      vertex 1.443010e-001 3.033510e-001 8.483930e-001
      vertex 1.443010e-001 2.738840e-001 8.214390e-001
    endloop
  endfacet
  facet normal 0.000000e+000 -6.749427e-001 7.378701e-001
    outer loop
      vertex 1.443010e-001 3.033510e-001 8.483930e-001
      vertex 8.747700e-001 2.738840e-001 8.214390e-001
      vertex 8.747700e-001 3.033510e-001 8.483930e-001
    endloop
  endfacet
  facet normal 0.000000e+000 -5.027749e-001 8.644174e-001
    outer loop
      vertex 8.747700e-001 3.033510e-001 8.483930e-001
      vertex 1.443010e-001 3.378710e-001 8.684710e-001
      vertex 1.443010e-001 3.033510e-001 8.483930e-001
    endloop
  endfacet
  facet normal 0.000000e+000 -5.027749e-001 8.644174e-001
    outer loop
      vertex 1.443010e-001 3.378710e-001 8.684710e-001
      vertex 8.747700e-001 3.033510e-001 8.483930e-001
      vertex 8.747700e-001 3.378710e-001 8.684710e-001
    endloop
  endfacet
  facet normal 0.000000e+000 -3.090641e-001 9.510412e-001
    outer loop
      vertex 8.747700e-001 3.378710e-001 8.684710e-001
      vertex 1.443010e-001 3.761200e-001 8.809010e-001
      vertex 1.443010e-001 3.378710e-001 8.684710e-001
    endloop
  endfacet
  facet normal 0.000000e+000 -3.090641e-001 9.510412e-001
    outer loop
      vertex 1.443010e-001 3.761200e-001 8.809010e-001
      vertex 8.747700e-001 3.378710e-001 8.684710e-001
      vertex 8.747700e-001 3.761200e-001 8.809010e-001
    endloop
  endfacet
  facet normal 0.000000e+000 -1.056609e-001 9.944022e-001
    outer loop
      vertex 8.747700e-001 3.761200e-001 8.809010e-001
      vertex 1.443010e-001 4.166260e-001 8.852050e-001
      vertex 1.443010e-001 3.761200e-001 8.809010e-001
    endloop
  endfacet
  facet normal 0.000000e+000 -1.056609e-001 9.944022e-001
    outer loop
      vertex 1.443010e-001 4.166260e-001 8.852050e-001
      vertex 8.747700e-001 3.761200e-001 8.809010e-001
      vertex 8.747700e-001 4.166260e-001 8.852050e-001
    endloop
  endfacet
  facet normal 0.000000e+000 9.630227e-002 9.953521e-001
    outer loop
      vertex 8.747700e-001 4.166260e-001 8.852050e-001
      vertex 1.443010e-001 4.578340e-001 8.812180e-001
      vertex 1.443010e-001 4.166260e-001 8.852050e-001
    endloop
  endfacet
  facet normal 0.000000e+000 9.630227e-002 9.953521e-001
    outer loop
      vertex 1.443010e-001 4.578340e-001 8.812180e-001
      vertex 8.747700e-001 4.166260e-001 8.852050e-001
      vertex 8.747700e-001 4.578340e-001 8.812180e-001
    endloop
  endfacet
  facet normal 0.000000e+000 2.879695e-001 9.576396e-001
    outer loop
      vertex 8.747700e-001 4.578340e-001 8.812180e-001
      vertex 1.443010e-001 4.981590e-001 8.690920e-001
      vertex 1.443010e-001 4.578340e-001 8.812180e-001
    endloop
  endfacet
  facet normal 0.000000e+000 2.879695e-001 9.576396e-001
    outer loop
      vertex 1.443010e-001 4.981590e-001 8.690920e-001
      vertex 8.747700e-001 4.578340e-001 8.812180e-001
      vertex 8.747700e-001 4.981590e-001 8.690920e-001
    endloop
  endfacet
  facet normal 0.000000e+000 4.630473e-001 8.863336e-001
    outer loop
      vertex 8.747700e-001 4.981590e-001 8.690920e-001
      vertex 1.443010e-001 5.360530e-001 8.492950e-001
      vertex 1.443010e-001 4.981590e-001 8.690920e-001
    endloop
  endfacet
  facet normal 0.000000e+000 4.630473e-001 8.863336e-001
    outer loop
      vertex 1.443010e-001 5.360530e-001 8.492950e-001
      vertex 8.747700e-001 4.981590e-001 8.690920e-001
      vertex 8.747700e-001 5.360530e-001 8.492950e-001
    endloop
  endfacet
  facet normal 0.000000e+000 6.176757e-001 7.864329e-001
    outer loop
      vertex 8.747700e-001 5.360530e-001 8.492950e-001
      vertex 1.443010e-001 5.700580e-001 8.225870e-001
      vertex 1.443010e-001 5.360530e-001 8.492950e-001
    endloop
  endfacet
  facet normal 0.000000e+000 6.176757e-001 7.864329e-001
    outer loop
      vertex 1.443010e-001 5.700580e-001 8.225870e-001
      vertex 8.747700e-001 5.360530e-001 8.492950e-001
      vertex 8.747700e-001 5.700580e-001 8.225870e-001
    endloop
  endfacet
  facet normal 0.000000e+000 7.492504e-001 6.622868e-001
    outer loop
      vertex 8.747700e-001 5.700580e-001 8.225870e-001
      vertex 1.443010e-001 5.988680e-001 7.899940e-001
      vertex 1.443010e-001 5.700580e-001 8.225870e-001
    endloop
  endfacet
  facet normal 0.000000e+000 7.492504e-001 6.622868e-001
    outer loop
      vertex 1.443010e-001 5.988680e-001 7.899940e-001
      vertex 8.747700e-001 5.700580e-001 8.225870e-001
      vertex 8.747700e-001 5.988680e-001 7.899940e-001
    endloop
  endfacet
  facet normal 0.000000e+000 9.349703e-001 3.547260e-001
    outer loop
      vertex 8.669950e-001 2.557600e-001 5.897400e-001
      vertex 1.520720e-001 2.409540e-001 6.287650e-001
      vertex 8.669990e-001 2.409540e-001 6.287650e-001
    endloop
  endfacet
  facet normal 0.000000e+000 9.349703e-001 3.547260e-001
    outer loop
      vertex 1.520720e-001 2.409540e-001 6.287650e-001
      vertex 8.669950e-001 2.557600e-001 5.897400e-001
      vertex 1.520760e-001 2.557600e-001 5.897400e-001
    endloop
  endfacet
  facet normal 9.990739e-001 -2.669392e-002 3.374636e-002
    outer loop
      vertex 1.520720e-001 2.409540e-001 6.287650e-001
      vertex 1.556130e-001 2.779240e-001 5.531760e-001
      vertex 1.556130e-001 2.943080e-001 5.661360e-001
    endloop
  endfacet
  facet normal 9.099632e-001 -3.877530e-001 -1.470193e-001
    outer loop
      vertex 1.556130e-001 2.779240e-001 5.531760e-001
      vertex 1.520720e-001 2.409540e-001 6.287650e-001
      vertex 1.520760e-001 2.557600e-001 5.897400e-001
    endloop
  endfacet
  facet normal 9.995566e-001 -1.763369e-002 2.399080e-002
    outer loop
      vertex 1.520660e-001 2.336460e-001 6.693310e-001
      vertex 1.556130e-001 2.943080e-001 5.661360e-001
      vertex 1.556130e-001 3.177360e-001 5.833560e-001
    endloop
  endfacet
  facet normal 9.963840e-001 -8.364332e-002 -1.492126e-002
    outer loop
      vertex 1.556130e-001 2.943080e-001 5.661360e-001
      vertex 1.520660e-001 2.336460e-001 6.693310e-001
      vertex 1.520720e-001 2.409540e-001 6.287650e-001
    endloop
  endfacet
  facet normal 9.997248e-001 -1.389336e-002 1.890131e-002
    outer loop
      vertex 1.520590e-001 2.340970e-001 7.098550e-001
      vertex 1.556130e-001 3.177360e-001 5.833560e-001
      vertex 1.556130e-001 3.411630e-001 6.005760e-001
    endloop
  endfacet
  facet normal 9.991385e-001 -4.149592e-002 6.344909e-004
    outer loop
      vertex 1.556130e-001 3.177360e-001 5.833560e-001
      vertex 1.520590e-001 2.340970e-001 7.098550e-001
      vertex 1.520660e-001 2.336460e-001 6.693310e-001
    endloop
  endfacet
  facet normal 9.997998e-001 -1.185023e-002 1.612234e-002
    outer loop
      vertex 1.520510e-001 2.422600e-001 7.487720e-001
      vertex 1.556130e-001 3.411630e-001 6.005760e-001
      vertex 1.556130e-001 3.645910e-001 6.177960e-001
    endloop
  endfacet
  facet normal 9.996137e-001 -2.715771e-002 5.901968e-003
    outer loop
      vertex 1.556130e-001 3.411630e-001 6.005760e-001
      vertex 1.520510e-001 2.422600e-001 7.487720e-001
      vertex 1.520590e-001 2.340970e-001 7.098550e-001
    endloop
  endfacet
  facet normal 9.998370e-001 -1.069247e-002 1.454720e-002
    outer loop
      vertex 1.520440e-001 2.577900e-001 7.845950e-001
      vertex 1.556130e-001 3.645910e-001 6.177960e-001
      vertex 1.556130e-001 3.880190e-001 6.350160e-001
    endloop
  endfacet
  facet normal 9.997668e-001 -1.973947e-002 8.752927e-003
    outer loop
      vertex 1.556130e-001 3.645910e-001 6.177960e-001
      vertex 1.520440e-001 2.577900e-001 7.845950e-001
      vertex 1.520510e-001 2.422600e-001 7.487720e-001
    endloop
  endfacet
  facet normal 9.998548e-001 -1.009354e-002 1.373182e-002
    outer loop
      vertex 1.520380e-001 2.800690e-001 8.159750e-001
      vertex 1.556130e-001 3.880190e-001 6.350160e-001
      vertex 1.556130e-001 4.114460e-001 6.522360e-001
    endloop
  endfacet
  facet normal 9.998294e-001 -1.497202e-002 1.082109e-002
    outer loop
      vertex 1.556130e-001 3.880190e-001 6.350160e-001
      vertex 1.520380e-001 2.800690e-001 8.159750e-001
      vertex 1.520440e-001 2.577900e-001 7.845950e-001
    endloop
  endfacet
  facet normal 9.998602e-001 -9.903140e-003 1.347410e-002
    outer loop
      vertex 1.520370e-001 3.082390e-001 8.417430e-001
      vertex 1.556130e-001 4.114460e-001 6.522360e-001
      vertex 1.556130e-001 4.348740e-001 6.694550e-001
    endloop
  endfacet
  facet normal 9.998544e-001 -1.149609e-002 1.260647e-002
    outer loop
      vertex 1.556130e-001 4.114460e-001 6.522360e-001
      vertex 1.520370e-001 3.082390e-001 8.417430e-001
      vertex 1.520380e-001 2.800690e-001 8.159750e-001
    endloop
  endfacet
  facet normal 9.998548e-001 -1.009321e-002 1.373190e-002
    outer loop
      vertex 1.520380e-001 3.412400e-001 8.609380e-001
      vertex 1.556130e-001 4.348740e-001 6.694550e-001
      vertex 1.556130e-001 4.583020e-001 6.866750e-001
    endloop
  endfacet
  facet normal 9.998586e-001 -8.477107e-003 1.452223e-002
    outer loop
      vertex 1.556130e-001 4.348740e-001 6.694550e-001
      vertex 1.520380e-001 3.412400e-001 8.609380e-001
      vertex 1.520370e-001 3.082390e-001 8.417430e-001
    endloop
  endfacet
  facet normal 9.998369e-001 -1.069576e-002 1.455112e-002
    outer loop
      vertex 1.520430e-001 3.778400e-001 8.728340e-001
      vertex 1.556130e-001 4.583020e-001 6.866750e-001
      vertex 1.556130e-001 4.817290e-001 7.038950e-001
    endloop
  endfacet
  facet normal 9.998439e-001 -5.584397e-003 1.676049e-002
    outer loop
      vertex 1.556130e-001 4.583020e-001 6.866750e-001
      vertex 1.520430e-001 3.778400e-001 8.728340e-001
      vertex 1.520380e-001 3.412400e-001 8.609380e-001
    endloop
  endfacet
  facet normal 9.997998e-001 -1.185019e-002 1.612229e-002
    outer loop
      vertex 1.520510e-001 4.166650e-001 8.769640e-001
      vertex 1.556130e-001 4.817290e-001 7.038950e-001
      vertex 1.556130e-001 5.051570e-001 7.211150e-001
    endloop
  endfacet
  facet normal 9.998031e-001 -2.302854e-003 1.971161e-002
    outer loop
      vertex 1.556130e-001 4.817290e-001 7.038950e-001
      vertex 1.520510e-001 4.166650e-001 8.769640e-001
      vertex 1.520430e-001 3.778400e-001 8.728340e-001
    endloop
  endfacet
  facet normal 9.997248e-001 -1.389298e-002 1.890155e-002
    outer loop
      vertex 1.520590e-001 4.562450e-001 8.731390e-001
      vertex 1.556130e-001 5.051570e-001 7.211150e-001
      vertex 1.556130e-001 5.285850e-001 7.383350e-001
    endloop
  endfacet
  facet normal 9.997084e-001 2.122422e-003 2.405394e-002
    outer loop
      vertex 1.556130e-001 5.051570e-001 7.211150e-001
      vertex 1.520590e-001 4.562450e-001 8.731390e-001
      vertex 1.520510e-001 4.166650e-001 8.769640e-001
    endloop
  endfacet
  facet normal 9.995567e-001 -1.763276e-002 2.399091e-002
    outer loop
      vertex 1.520660e-001 4.950560e-001 8.614740e-001
      vertex 1.556130e-001 5.285850e-001 7.383350e-001
      vertex 1.556130e-001 5.520130e-001 7.555540e-001
    endloop
  endfacet
  facet normal 9.994674e-001 9.227813e-003 3.130210e-002
    outer loop
      vertex 1.556130e-001 5.285850e-001 7.383350e-001
      vertex 1.520660e-001 4.950560e-001 8.614740e-001
      vertex 1.520590e-001 4.562450e-001 8.731390e-001
    endloop
  endfacet
  facet normal 9.990703e-001 -2.553246e-002 3.473581e-002
    outer loop
      vertex 1.520720e-001 5.315920e-001 8.423900e-001
      vertex 1.556130e-001 5.520130e-001 7.555540e-001
      vertex 1.556130e-001 5.754400e-001 7.727740e-001
    endloop
  endfacet
  facet normal 9.986340e-001 2.406270e-002 4.638117e-002
    outer loop
      vertex 1.556130e-001 5.520130e-001 7.555540e-001
      vertex 1.520720e-001 5.315920e-001 8.423900e-001
      vertex 1.520660e-001 4.950560e-001 8.614740e-001
    endloop
  endfacet
  facet normal 9.990739e-001 -2.423886e-002 3.555077e-002
    outer loop
      vertex 1.556130e-001 5.927000e-001 7.845420e-001
      vertex 1.520720e-001 5.315920e-001 8.423900e-001
      vertex 1.556130e-001 5.754400e-001 7.727740e-001
    endloop
  endfacet
  facet normal 9.100054e-001 2.559943e-001 3.261244e-001
    outer loop
      vertex 1.520720e-001 5.315920e-001 8.423900e-001
      vertex 1.556130e-001 5.927000e-001 7.845420e-001
      vertex 1.520760e-001 5.644190e-001 8.166110e-001
    endloop
  endfacet
  facet normal 0.000000e+000 8.551564e-001 5.183700e-001
    outer loop
      vertex 8.634580e-001 2.779240e-001 5.531760e-001
      vertex 1.520760e-001 2.557600e-001 5.897400e-001
      vertex 8.669950e-001 2.557600e-001 5.897400e-001
    endloop
  endfacet
  facet normal 0.000000e+000 8.551564e-001 5.183700e-001
    outer loop
      vertex 1.520760e-001 2.557600e-001 5.897400e-001
      vertex 8.634580e-001 2.779240e-001 5.531760e-001
      vertex 1.556130e-001 2.779240e-001 5.531760e-001
    endloop
  endfacet
  facet normal 0.000000e+000 9.841575e-001 1.772965e-001
    outer loop
      vertex 8.669990e-001 2.409540e-001 6.287650e-001
      vertex 1.520660e-001 2.336460e-001 6.693310e-001
      vertex 8.670050e-001 2.336460e-001 6.693310e-001
    endloop
  endfacet
  facet normal 0.000000e+000 9.841575e-001 1.772965e-001
    outer loop
      vertex 1.520660e-001 2.336460e-001 6.693310e-001
      vertex 8.669990e-001 2.409540e-001 6.287650e-001
      vertex 1.520720e-001 2.409540e-001 6.287650e-001
    endloop
  endfacet
  facet normal 0.000000e+000 9.999381e-001 -1.112848e-002
    outer loop
      vertex 8.670050e-001 2.336460e-001 6.693310e-001
      vertex 1.520590e-001 2.340970e-001 7.098550e-001
      vertex 8.670120e-001 2.340970e-001 7.098550e-001
    endloop
  endfacet
  facet normal 0.000000e+000 9.999381e-001 -1.112848e-002
    outer loop
      vertex 1.520590e-001 2.340970e-001 7.098550e-001
      vertex 8.670050e-001 2.336460e-001 6.693310e-001
      vertex 1.520660e-001 2.336460e-001 6.693310e-001
    endloop
  endfacet
  facet normal 0.000000e+000 9.787019e-001 -2.052865e-001
    outer loop
      vertex 8.670120e-001 2.340970e-001 7.098550e-001
      vertex 1.520510e-001 2.422600e-001 7.487720e-001
      vertex 8.670200e-001 2.422600e-001 7.487720e-001
    endloop
  endfacet
  facet normal 1.697777e-018 9.787019e-001 -2.052865e-001
    outer loop
      vertex 1.520510e-001 2.422600e-001 7.487720e-001
      vertex 8.670120e-001 2.340970e-001 7.098550e-001
      vertex 1.520590e-001 2.340970e-001 7.098550e-001
    endloop
  endfacet
  facet normal 0.000000e+000 9.174929e-001 -3.977521e-001
    outer loop
      vertex 8.670200e-001 2.422600e-001 7.487720e-001
      vertex 1.520440e-001 2.577900e-001 7.845950e-001
      vertex 8.670270e-001 2.577900e-001 7.845950e-001
    endloop
  endfacet
  facet normal 0.000000e+000 9.174929e-001 -3.977521e-001
    outer loop
      vertex 1.520440e-001 2.577900e-001 7.845950e-001
      vertex 8.670200e-001 2.422600e-001 7.487720e-001
      vertex 1.520510e-001 2.422600e-001 7.487720e-001
    endloop
  endfacet
  facet normal 0.000000e+000 8.153928e-001 -5.789080e-001
    outer loop
      vertex 8.670270e-001 2.577900e-001 7.845950e-001
      vertex 1.520380e-001 2.800690e-001 8.159750e-001
      vertex 8.670330e-001 2.800690e-001 8.159750e-001
    endloop
  endfacet
  facet normal 0.000000e+000 8.153928e-001 -5.789080e-001
    outer loop
      vertex 1.520380e-001 2.800690e-001 8.159750e-001
      vertex 8.670270e-001 2.577900e-001 7.845950e-001
      vertex 1.520440e-001 2.577900e-001 7.845950e-001
    endloop
  endfacet
  facet normal 0.000000e+000 3.091097e-001 -9.510264e-001
    outer loop
      vertex 8.670330e-001 3.412400e-001 8.609380e-001
      vertex 1.520430e-001 3.778400e-001 8.728340e-001
      vertex 8.670280e-001 3.778400e-001 8.728340e-001
    endloop
  endfacet
  facet normal 0.000000e+000 3.091097e-001 -9.510264e-001
    outer loop
      vertex 1.520430e-001 3.778400e-001 8.728340e-001
      vertex 8.670330e-001 3.412400e-001 8.609380e-001
      vertex 1.520380e-001 3.412400e-001 8.609380e-001
    endloop
  endfacet
  facet normal 0.000000e+000 -9.349439e-001 -3.547956e-001
    outer loop
      vertex 8.747700e-001 2.483730e-001 5.861420e-001
      vertex 1.443010e-001 2.330320e-001 6.265680e-001
      vertex 1.443010e-001 2.483730e-001 5.861420e-001
    endloop
  endfacet
  facet normal 0.000000e+000 -9.349439e-001 -3.547956e-001
    outer loop
      vertex 1.443010e-001 2.330320e-001 6.265680e-001
      vertex 8.747700e-001 2.483730e-001 5.861420e-001
      vertex 8.747700e-001 2.330320e-001 6.265680e-001
    endloop
  endfacet
  facet normal 0.000000e+000 1.057767e-001 -9.943899e-001
    outer loop
      vertex 8.670280e-001 3.778400e-001 8.728340e-001
      vertex 1.520510e-001 4.166650e-001 8.769640e-001
      vertex 8.670200e-001 4.166650e-001 8.769640e-001
    endloop
  endfacet
  facet normal 0.000000e+000 1.057767e-001 -9.943899e-001
    outer loop
      vertex 1.520510e-001 4.166650e-001 8.769640e-001
      vertex 8.670280e-001 3.778400e-001 8.728340e-001
      vertex 1.520430e-001 3.778400e-001 8.728340e-001
    endloop
  endfacet
  facet normal 0.000000e+000 -9.619028e-002 -9.953630e-001
    outer loop
      vertex 8.670200e-001 4.166650e-001 8.769640e-001
      vertex 1.520590e-001 4.562450e-001 8.731390e-001
      vertex 8.670120e-001 4.562450e-001 8.731390e-001
    endloop
  endfacet
  facet normal 0.000000e+000 -9.619028e-002 -9.953630e-001
    outer loop
      vertex 1.520590e-001 4.562450e-001 8.731390e-001
      vertex 8.670200e-001 4.166650e-001 8.769640e-001
      vertex 1.520510e-001 4.166650e-001 8.769640e-001
    endloop
  endfacet
  facet normal 0.000000e+000 -2.878402e-001 -9.576785e-001
    outer loop
      vertex 8.670120e-001 4.562450e-001 8.731390e-001
      vertex 1.520660e-001 4.950560e-001 8.614740e-001
      vertex 8.670050e-001 4.950560e-001 8.614740e-001
    endloop
  endfacet
  facet normal 0.000000e+000 -2.878402e-001 -9.576785e-001
    outer loop
      vertex 1.520660e-001 4.950560e-001 8.614740e-001
      vertex 8.670120e-001 4.562450e-001 8.731390e-001
      vertex 1.520590e-001 4.562450e-001 8.731390e-001
    endloop
  endfacet
  facet normal 0.000000e+000 -4.629800e-001 -8.863687e-001
    outer loop
      vertex 8.670050e-001 4.950560e-001 8.614740e-001
      vertex 1.520720e-001 5.315920e-001 8.423900e-001
      vertex 8.669990e-001 5.315920e-001 8.423900e-001
    endloop
  endfacet
  facet normal 0.000000e+000 -4.629800e-001 -8.863687e-001
    outer loop
      vertex 1.520720e-001 5.315920e-001 8.423900e-001
      vertex 8.670050e-001 4.950560e-001 8.614740e-001
      vertex 1.520660e-001 4.950560e-001 8.614740e-001
    endloop
  endfacet
  facet normal 0.000000e+000 -6.176200e-001 -7.864766e-001
    outer loop
      vertex 8.669990e-001 5.315920e-001 8.423900e-001
      vertex 1.520760e-001 5.644190e-001 8.166110e-001
      vertex 8.669950e-001 5.644190e-001 8.166110e-001
    endloop
  endfacet
  facet normal 0.000000e+000 -6.176200e-001 -7.864766e-001
    outer loop
      vertex 1.520760e-001 5.644190e-001 8.166110e-001
      vertex 8.669990e-001 5.315920e-001 8.423900e-001
      vertex 1.520720e-001 5.315920e-001 8.423900e-001
    endloop
  endfacet
  facet normal 0.000000e+000 -7.500132e-001 -6.614229e-001
    outer loop
      vertex 8.669950e-001 5.644190e-001 8.166110e-001
      vertex 1.556130e-001 5.927000e-001 7.845420e-001
      vertex 8.634580e-001 5.927000e-001 7.845420e-001
    endloop
  endfacet
  facet normal 0.000000e+000 -7.500132e-001 -6.614229e-001
    outer loop
      vertex 1.556130e-001 5.927000e-001 7.845420e-001
      vertex 8.669950e-001 5.644190e-001 8.166110e-001
      vertex 1.520760e-001 5.644190e-001 8.166110e-001
    endloop
  endfacet
  facet normal -7.422369e-019 5.174047e-001 -8.557409e-001
    outer loop
      vertex 8.747700e-001 2.708800e-001 5.489170e-001
      vertex 1.556130e-001 2.779240e-001 5.531760e-001
      vertex 8.634580e-001 2.779240e-001 5.531760e-001
    endloop
  endfacet
  facet normal 0.000000e+000 5.174047e-001 -8.557409e-001
    outer loop
      vertex 1.556130e-001 2.779240e-001 5.531760e-001
      vertex 8.747700e-001 2.708800e-001 5.489170e-001
      vertex 1.443010e-001 2.708800e-001 5.489170e-001
    endloop
  endfacet
  facet normal 0.000000e+000 6.622783e-001 -7.492580e-001
    outer loop
      vertex 8.634580e-001 5.927000e-001 7.845420e-001
      vertex 1.443010e-001 5.988680e-001 7.899940e-001
      vertex 8.747700e-001 5.988680e-001 7.899940e-001
    endloop
  endfacet
  facet normal 0.000000e+000 6.622783e-001 -7.492580e-001
    outer loop
      vertex 1.443010e-001 5.988680e-001 7.899940e-001
      vertex 8.634580e-001 5.927000e-001 7.845420e-001
      vertex 1.556130e-001 5.927000e-001 7.845420e-001
    endloop
  endfacet
  facet normal 0.000000e+000 5.922466e-001 -8.057568e-001
    outer loop
      vertex 1.443010e-001 3.645910e-001 6.177960e-001
      vertex 1.556130e-001 3.411630e-001 6.005760e-001
      vertex 1.443010e-001 3.411630e-001 6.005760e-001
    endloop
  endfacet
  facet normal 0.000000e+000 5.922466e-001 -8.057568e-001
    outer loop
      vertex 1.556130e-001 3.411630e-001 6.005760e-001
      vertex 1.443010e-001 3.645910e-001 6.177960e-001
      vertex 1.556130e-001 3.645910e-001 6.177960e-001
    endloop
  endfacet
  facet normal 0.000000e+000 5.922466e-001 -8.057568e-001
    outer loop
      vertex 1.443010e-001 3.880190e-001 6.350160e-001
      vertex 1.556130e-001 3.645910e-001 6.177960e-001
      vertex 1.443010e-001 3.645910e-001 6.177960e-001
    endloop
  endfacet
  facet normal 0.000000e+000 5.922466e-001 -8.057568e-001
    outer loop
      vertex 1.556130e-001 3.645910e-001 6.177960e-001
      vertex 1.443010e-001 3.880190e-001 6.350160e-001
      vertex 1.556130e-001 3.880190e-001 6.350160e-001
    endloop
  endfacet
  facet normal 0.000000e+000 5.922614e-001 -8.057459e-001
    outer loop
      vertex 1.443010e-001 4.114460e-001 6.522360e-001
      vertex 1.556130e-001 3.880190e-001 6.350160e-001
      vertex 1.443010e-001 3.880190e-001 6.350160e-001
    endloop
  endfacet
  facet normal 0.000000e+000 5.922614e-001 -8.057459e-001
    outer loop
      vertex 1.556130e-001 3.880190e-001 6.350160e-001
      vertex 1.443010e-001 4.114460e-001 6.522360e-001
      vertex 1.556130e-001 4.114460e-001 6.522360e-001
    endloop
  endfacet
  facet normal 0.000000e+000 5.922239e-001 -8.057734e-001
    outer loop
      vertex 1.443010e-001 4.348740e-001 6.694550e-001
      vertex 1.556130e-001 4.114460e-001 6.522360e-001
      vertex 1.443010e-001 4.114460e-001 6.522360e-001
    endloop
  endfacet
  facet normal 0.000000e+000 5.922239e-001 -8.057734e-001
    outer loop
      vertex 1.556130e-001 4.114460e-001 6.522360e-001
      vertex 1.443010e-001 4.348740e-001 6.694550e-001
      vertex 1.556130e-001 4.348740e-001 6.694550e-001
    endloop
  endfacet
  facet normal 0.000000e+000 5.922466e-001 -8.057568e-001
    outer loop
      vertex 1.443010e-001 4.583020e-001 6.866750e-001
      vertex 1.556130e-001 4.348740e-001 6.694550e-001
      vertex 1.443010e-001 4.348740e-001 6.694550e-001
    endloop
  endfacet
  facet normal 0.000000e+000 5.922466e-001 -8.057568e-001
    outer loop
      vertex 1.556130e-001 4.348740e-001 6.694550e-001
      vertex 1.443010e-001 4.583020e-001 6.866750e-001
      vertex 1.556130e-001 4.583020e-001 6.866750e-001
    endloop
  endfacet
  facet normal 0.000000e+000 5.922614e-001 -8.057459e-001
    outer loop
      vertex 1.443010e-001 4.817290e-001 7.038950e-001
      vertex 1.556130e-001 4.583020e-001 6.866750e-001
      vertex 1.443010e-001 4.583020e-001 6.866750e-001
    endloop
  endfacet
  facet normal 0.000000e+000 5.922614e-001 -8.057459e-001
    outer loop
      vertex 1.556130e-001 4.583020e-001 6.866750e-001
      vertex 1.443010e-001 4.817290e-001 7.038950e-001
      vertex 1.556130e-001 4.817290e-001 7.038950e-001
    endloop
  endfacet
  facet normal 0.000000e+000 5.922466e-001 -8.057568e-001
    outer loop
      vertex 1.443010e-001 5.051570e-001 7.211150e-001
      vertex 1.556130e-001 4.817290e-001 7.038950e-001
      vertex 1.443010e-001 4.817290e-001 7.038950e-001
    endloop
  endfacet
  facet normal 0.000000e+000 5.922466e-001 -8.057568e-001
    outer loop
      vertex 1.556130e-001 4.817290e-001 7.038950e-001
      vertex 1.443010e-001 5.051570e-001 7.211150e-001
      vertex 1.556130e-001 5.051570e-001 7.211150e-001
    endloop
  endfacet
  facet normal 0.000000e+000 5.922461e-001 -8.057572e-001
    outer loop
      vertex 1.443010e-001 5.285850e-001 7.383350e-001
      vertex 1.556130e-001 5.051570e-001 7.211150e-001
      vertex 1.443010e-001 5.051570e-001 7.211150e-001
    endloop
  endfacet
  facet normal 0.000000e+000 5.922461e-001 -8.057572e-001
    outer loop
      vertex 1.556130e-001 5.051570e-001 7.211150e-001
      vertex 1.443010e-001 5.285850e-001 7.383350e-001
      vertex 1.556130e-001 5.285850e-001 7.383350e-001
    endloop
  endfacet
  facet normal 0.000000e+000 5.922244e-001 -8.057731e-001
    outer loop
      vertex 1.443010e-001 5.520130e-001 7.555540e-001
      vertex 1.556130e-001 5.285850e-001 7.383350e-001
      vertex 1.443010e-001 5.285850e-001 7.383350e-001
    endloop
  endfacet
  facet normal 0.000000e+000 5.922244e-001 -8.057731e-001
    outer loop
      vertex 1.556130e-001 5.285850e-001 7.383350e-001
      vertex 1.443010e-001 5.520130e-001 7.555540e-001
      vertex 1.556130e-001 5.520130e-001 7.555540e-001
    endloop
  endfacet
  facet normal 0.000000e+000 5.922614e-001 -8.057459e-001
    outer loop
      vertex 1.443010e-001 5.754400e-001 7.727740e-001
      vertex 1.556130e-001 5.520130e-001 7.555540e-001
      vertex 1.443010e-001 5.520130e-001 7.555540e-001
    endloop
  endfacet
  facet normal 0.000000e+000 5.922614e-001 -8.057459e-001
    outer loop
      vertex 1.556130e-001 5.520130e-001 7.555540e-001
      vertex 1.443010e-001 5.754400e-001 7.727740e-001
      vertex 1.556130e-001 5.754400e-001 7.727740e-001
    endloop
  endfacet
  facet normal 0.000000e+000 5.922461e-001 -8.057572e-001
    outer loop
      vertex 1.443010e-001 5.988680e-001 7.899940e-001
      vertex 1.556130e-001 5.754400e-001 7.727740e-001
      vertex 1.443010e-001 5.754400e-001 7.727740e-001
    endloop
  endfacet
  facet normal -9.067462e-002 5.610113e-001 -8.228271e-001
    outer loop
      vertex 1.556130e-001 5.754400e-001 7.727740e-001
      vertex 1.443010e-001 5.988680e-001 7.899940e-001
      vertex 1.556130e-001 5.927000e-001 7.845420e-001
    endloop
  endfacet
  facet normal 0.000000e+000 5.027850e-001 -8.644115e-001
    outer loop
      vertex 8.670330e-001 3.412400e-001 8.609380e-001
      vertex 1.520370e-001 3.082390e-001 8.417430e-001
      vertex 1.520380e-001 3.412400e-001 8.609380e-001
    endloop
  endfacet
  facet normal 0.000000e+000 5.027850e-001 -8.644115e-001
    outer loop
      vertex 1.520370e-001 3.082390e-001 8.417430e-001
      vertex 8.670330e-001 3.412400e-001 8.609380e-001
      vertex 8.670340e-001 3.082390e-001 8.417430e-001
    endloop
  endfacet
  facet normal -6.526335e-002 5.909614e-001 -8.040556e-001
    outer loop
      vertex 1.443010e-001 2.943080e-001 5.661360e-001
      vertex 1.556130e-001 2.779240e-001 5.531760e-001
      vertex 1.443010e-001 2.708800e-001 5.489170e-001
    endloop
  endfacet
  facet normal 0.000000e+000 6.203894e-001 -7.842940e-001
    outer loop
      vertex 1.556130e-001 2.779240e-001 5.531760e-001
      vertex 1.443010e-001 2.943080e-001 5.661360e-001
      vertex 1.556130e-001 2.943080e-001 5.661360e-001
    endloop
  endfacet
  facet normal 0.000000e+000 5.922466e-001 -8.057568e-001
    outer loop
      vertex 1.443010e-001 3.177360e-001 5.833560e-001
      vertex 1.556130e-001 2.943080e-001 5.661360e-001
      vertex 1.443010e-001 2.943080e-001 5.661360e-001
    endloop
  endfacet
  facet normal 0.000000e+000 5.922466e-001 -8.057568e-001
    outer loop
      vertex 1.556130e-001 2.943080e-001 5.661360e-001
      vertex 1.443010e-001 3.177360e-001 5.833560e-001
      vertex 1.556130e-001 3.177360e-001 5.833560e-001
    endloop
  endfacet
  facet normal 0.000000e+000 5.922614e-001 -8.057459e-001
    outer loop
      vertex 1.443010e-001 3.411630e-001 6.005760e-001
      vertex 1.556130e-001 3.177360e-001 5.833560e-001
      vertex 1.443010e-001 3.177360e-001 5.833560e-001
    endloop
  endfacet
  facet normal 0.000000e+000 5.922614e-001 -8.057459e-001
    outer loop
      vertex 1.556130e-001 3.177360e-001 5.833560e-001
      vertex 1.443010e-001 3.411630e-001 6.005760e-001
      vertex 1.556130e-001 3.411630e-001 6.005760e-001
    endloop
  endfacet
  facet normal 0.000000e+000 0.000000e+000 -1.000000e+000
    outer loop
      vertex 1.443010e-001 2.684290e-001 1.461840e-001
      vertex 8.747700e-001 4.621000e-003 1.461840e-001
      vertex 1.443010e-001 4.621000e-003 1.461840e-001
    endloop
  endfacet
  facet normal 0.000000e+000 0.000000e+000 -1.000000e+000
    outer loop
      vertex 8.747700e-001 4.621000e-003 1.461840e-001
      vertex 1.443010e-001 2.684290e-001 1.461840e-001
      vertex 8.747700e-001 2.684290e-001 1.461840e-001
    endloop
  endfacet
  facet normal 1.000000e+000 0.000000e+000 0.000000e+000
    outer loop
      vertex 1.565650e-001 2.684290e-001 5.427990e-001
      vertex 1.565650e-001 3.767600e-002 1.566240e-001
      vertex 1.565650e-001 2.684290e-001 1.566240e-001
    endloop
  endfacet
  facet normal 1.000000e+000 0.000000e+000 0.000000e+000
    outer loop
      vertex 1.565650e-001 3.767600e-002 1.566240e-001
      vertex 1.565650e-001 2.684290e-001 5.427990e-001
      vertex 1.565650e-001 3.767600e-002 5.427990e-001
    endloop
  endfacet
  facet normal 0.000000e+000 0.000000e+000 1.000000e+000
    outer loop
      vertex 8.625060e-001 3.767600e-002 1.566240e-001
      vertex 1.565650e-001 2.684290e-001 1.566240e-001
      vertex 1.565650e-001 3.767600e-002 1.566240e-001
    endloop
  endfacet
  facet normal 0.000000e+000 0.000000e+000 1.000000e+000
    outer loop
      vertex 1.565650e-001 2.684290e-001 1.566240e-001
      vertex 8.625060e-001 3.767600e-002 1.566240e-001
      vertex 8.625060e-001 2.684290e-001 1.566240e-001
    endloop
  endfacet
  facet normal 0.000000e+000 1.000000e+000 0.000000e+000
    outer loop
      vertex 8.747700e-001 2.684290e-001 5.532390e-001
      vertex 8.625060e-001 2.684290e-001 1.566240e-001
      vertex 8.625060e-001 2.684290e-001 5.427990e-001
    endloop
  endfacet
  facet normal 0.000000e+000 1.000000e+000 0.000000e+000
    outer loop
      vertex 8.625060e-001 2.684290e-001 1.566240e-001
      vertex 8.747700e-001 2.684290e-001 5.532390e-001
      vertex 8.747700e-001 2.684290e-001 1.461840e-001
    endloop
  endfacet
  facet normal 0.000000e+000 1.000000e+000 0.000000e+000
    outer loop
      vertex 8.625060e-001 2.684290e-001 1.566240e-001
      vertex 1.443010e-001 2.684290e-001 1.461840e-001
      vertex 1.565650e-001 2.684290e-001 1.566240e-001
    endloop
  endfacet
  facet normal 0.000000e+000 1.000000e+000 0.000000e+000
    outer loop
      vertex 1.443010e-001 2.684290e-001 1.461840e-001
      vertex 8.625060e-001 2.684290e-001 1.566240e-001
      vertex 8.747700e-001 2.684290e-001 1.461840e-001
    endloop
  endfacet
  facet normal 1.000000e+000 0.000000e+000 0.000000e+000
    outer loop
      vertex 8.747700e-001 4.621000e-003 1.461840e-001
      vertex 8.747700e-001 2.684290e-001 5.532390e-001
      vertex 8.747700e-001 4.621000e-003 5.532390e-001
    endloop
  endfacet
  facet normal 1.000000e+000 0.000000e+000 0.000000e+000
    outer loop
      vertex 8.747700e-001 2.684290e-001 5.532390e-001
      vertex 8.747700e-001 4.621000e-003 1.461840e-001
      vertex 8.747700e-001 2.684290e-001 1.461840e-001
    endloop
  endfacet
  facet normal -1.000000e+000 0.000000e+000 0.000000e+000
    outer loop
      vertex 8.527770e-001 1.799700e-002 1.448080e-001
      vertex 8.527770e-001 4.470000e-004 1.681550e-001
      vertex 8.527770e-001 1.799700e-002 1.681550e-001
    endloop
  endfacet
  facet normal -1.000000e+000 0.000000e+000 0.000000e+000
    outer loop
      vertex 8.527770e-001 4.470000e-004 1.681550e-001
      vertex 8.527770e-001 1.799700e-002 1.448080e-001
      vertex 8.527770e-001 4.470000e-004 1.448080e-001
    endloop
  endfacet
  facet normal 0.000000e+000 0.000000e+000 1.000000e+000
    outer loop
      vertex 8.527770e-001 1.799700e-002 1.681550e-001
      vertex 8.761250e-001 4.470000e-004 1.681550e-001
      vertex 8.761250e-001 1.799700e-002 1.681550e-001
    endloop
  endfacet
  facet normal 0.000000e+000 0.000000e+000 1.000000e+000
    outer loop
      vertex 8.761250e-001 4.470000e-004 1.681550e-001
      vertex 8.527770e-001 1.799700e-002 1.681550e-001
      vertex 8.527770e-001 4.470000e-004 1.681550e-001
    endloop
  endfacet
  facet normal 1.000000e+000 0.000000e+000 0.000000e+000
    outer loop
      vertex 8.761250e-001 1.799700e-002 1.681550e-001
      vertex 8.761250e-001 4.470000e-004 1.448080e-001
      vertex 8.761250e-001 1.799700e-002 1.448080e-001
    endloop
  endfacet
  facet normal 1.000000e+000 0.000000e+000 0.000000e+000
    outer loop
      vertex 8.761250e-001 4.470000e-004 1.448080e-001
      vertex 8.761250e-001 1.799700e-002 1.681550e-001
      vertex 8.761250e-001 4.470000e-004 1.681550e-001
    endloop
  endfacet
  facet normal 0.000000e+000 0.000000e+000 -1.000000e+000
    outer loop
      vertex 8.761250e-001 1.799700e-002 1.448080e-001
      vertex 8.527770e-001 4.470000e-004 1.448080e-001
      vertex 8.527770e-001 1.799700e-002 1.448080e-001
    endloop
  endfacet
  facet normal 0.000000e+000 0.000000e+000 -1.000000e+000
    outer loop
      vertex 8.527770e-001 4.470000e-004 1.448080e-001
      vertex 8.761250e-001 1.799700e-002 1.448080e-001
      vertex 8.761250e-001 4.470000e-004 1.448080e-001
    endloop
  endfacet
  facet normal 0.000000e+000 -1.000000e+000 0.000000e+000
    outer loop
      vertex 8.527770e-001 4.470000e-004 1.448080e-001
      vertex 8.761250e-001 4.470000e-004 1.681550e-001
      vertex 8.527770e-001 4.470000e-004 1.681550e-001
    endloop
  endfacet
  facet normal 0.000000e+000 -1.000000e+000 0.000000e+000
    outer loop
      vertex 8.761250e-001 4.470000e-004 1.681550e-001
      vertex 8.527770e-001 4.470000e-004 1.448080e-001
      vertex 8.761250e-001 4.470000e-004 1.448080e-001
    endloop
  endfacet
  facet normal 0.000000e+000 1.000000e+000 0.000000e+000
    outer loop
      vertex 8.761250e-001 1.799700e-002 1.448080e-001
      vertex 8.527770e-001 1.799700e-002 1.681550e-001
      vertex 8.761250e-001 1.799700e-002 1.681550e-001
    endloop
  endfacet
  facet normal 0.000000e+000 1.000000e+000 0.000000e+000
    outer loop
      vertex 8.527770e-001 1.799700e-002 1.681550e-001
      vertex 8.761250e-001 1.799700e-002 1.448080e-001
      vertex 8.527770e-001 1.799700e-002 1.448080e-001
    endloop
  endfacet
  facet normal 0.000000e+000 1.000000e+000 0.000000e+000
    outer loop
      vertex 1.443010e-001 2.684290e-001 5.532390e-001
      vertex 1.565650e-001 2.684290e-001 1.566240e-001
      vertex 1.443010e-001 2.684290e-001 1.461840e-001
    endloop
  endfacet
  facet normal 0.000000e+000 1.000000e+000 0.000000e+000
    outer loop
      vertex 1.565650e-001 2.684290e-001 1.566240e-001
      vertex 1.443010e-001 2.684290e-001 5.532390e-001
      vertex 1.565650e-001 2.684290e-001 5.427990e-001
    endloop
  endfacet
  facet normal 0.000000e+000 -1.000000e+000 0.000000e+000
    outer loop
      vertex 1.443010e-001 4.621000e-003 1.461840e-001
      vertex 8.747700e-001 4.621000e-003 5.532390e-001
      vertex 1.443010e-001 4.621000e-003 5.532390e-001
    endloop
  endfacet
  facet normal 0.000000e+000 -1.000000e+000 0.000000e+000
    outer loop
      vertex 8.747700e-001 4.621000e-003 5.532390e-001
      vertex 1.443010e-001 4.621000e-003 1.461840e-001
      vertex 8.747700e-001 4.621000e-003 1.461840e-001
    endloop
  endfacet
  facet normal 1.000000e+000 0.000000e+000 0.000000e+000
    outer loop
      vertex 1.662940e-001 1.799600e-002 1.448080e-001
      vertex 1.662940e-001 4.470000e-004 1.681550e-001
      vertex 1.662940e-001 4.470000e-004 1.448080e-001
    endloop
  endfacet
  facet normal 1.000000e+000 0.000000e+000 0.000000e+000
    outer loop
      vertex 1.662940e-001 4.470000e-004 1.681550e-001
      vertex 1.662940e-001 1.799600e-002 1.448080e-001
      vertex 1.662940e-001 1.799600e-002 1.681550e-001
    endloop
  endfacet
  facet normal 0.000000e+000 0.000000e+000 1.000000e+000
    outer loop
      vertex 1.662940e-001 1.799600e-002 1.681550e-001
      vertex 1.429460e-001 4.470000e-004 1.681550e-001
      vertex 1.662940e-001 4.470000e-004 1.681550e-001
    endloop
  endfacet
  facet normal 0.000000e+000 0.000000e+000 1.000000e+000
    outer loop
      vertex 1.429460e-001 4.470000e-004 1.681550e-001
      vertex 1.662940e-001 1.799600e-002 1.681550e-001
      vertex 1.429460e-001 1.799600e-002 1.681550e-001
    endloop
  endfacet
  facet normal -1.000000e+000 0.000000e+000 0.000000e+000
    outer loop
      vertex 1.429460e-001 1.799600e-002 1.681550e-001
      vertex 1.429460e-001 4.470000e-004 1.448080e-001
      vertex 1.429460e-001 4.470000e-004 1.681550e-001
    endloop
  endfacet
  facet normal -1.000000e+000 0.000000e+000 0.000000e+000
    outer loop
      vertex 1.429460e-001 4.470000e-004 1.448080e-001
      vertex 1.429460e-001 1.799600e-002 1.681550e-001
      vertex 1.429460e-001 1.799600e-002 1.448080e-001
    endloop
  endfacet
  facet normal 0.000000e+000 0.000000e+000 -1.000000e+000
    outer loop
      vertex 1.429460e-001 1.799600e-002 1.448080e-001
      vertex 1.662940e-001 4.470000e-004 1.448080e-001
      vertex 1.429460e-001 4.470000e-004 1.448080e-001
    endloop
  endfacet
  facet normal 0.000000e+000 0.000000e+000 -1.000000e+000
    outer loop
      vertex 1.662940e-001 4.470000e-004 1.448080e-001
      vertex 1.429460e-001 1.799600e-002 1.448080e-001
      vertex 1.662940e-001 1.799600e-002 1.448080e-001
    endloop
  endfacet
  facet normal 0.000000e+000 -1.000000e+000 0.000000e+000
    outer loop
      vertex 1.662940e-001 4.470000e-004 1.448080e-001
      vertex 1.429460e-001 4.470000e-004 1.681550e-001
      vertex 1.429460e-001 4.470000e-004 1.448080e-001
    endloop
  endfacet
  facet normal 0.000000e+000 -1.000000e+000 0.000000e+000
    outer loop
      vertex 1.429460e-001 4.470000e-004 1.681550e-001
      vertex 1.662940e-001 4.470000e-004 1.448080e-001
      vertex 1.662940e-001 4.470000e-004 1.681550e-001
    endloop
  endfacet
  facet normal 0.000000e+000 1.000000e+000 0.000000e+000
    outer loop
      vertex 1.429460e-001 1.799600e-002 1.448080e-001
      vertex 1.662940e-001 1.799600e-002 1.681550e-001
      vertex 1.662940e-001 1.799600e-002 1.448080e-001
    endloop
  endfacet
  facet normal 0.000000e+000 1.000000e+000 0.000000e+000
    outer loop
      vertex 1.662940e-001 1.799600e-002 1.681550e-001
      vertex 1.429460e-001 1.799600e-002 1.448080e-001
      vertex 1.429460e-001 1.799600e-002 1.681550e-001
    endloop
  endfacet
  facet normal 0.000000e+000 0.000000e+000 1.000000e+000
    outer loop
      vertex 1.443010e-001 2.684290e-001 5.532390e-001
      vertex 8.747700e-001 4.621000e-003 5.532390e-001
      vertex 8.747700e-001 2.684290e-001 5.532390e-001
    endloop
  endfacet
  facet normal 0.000000e+000 0.000000e+000 1.000000e+000
    outer loop
      vertex 8.747700e-001 4.621000e-003 5.532390e-001
      vertex 1.443010e-001 2.684290e-001 5.532390e-001
      vertex 1.443010e-001 4.621000e-003 5.532390e-001
    endloop
  endfacet
  facet normal 0.000000e+000 0.000000e+000 -1.000000e+000
    outer loop
      vertex 8.625060e-001 2.684290e-001 5.427990e-001
      vertex 1.565650e-001 3.767600e-002 5.427990e-001
      vertex 1.565650e-001 2.684290e-001 5.427990e-001
    endloop
  endfacet
  facet normal 0.000000e+000 0.000000e+000 -1.000000e+000
    outer loop
      vertex 1.565650e-001 3.767600e-002 5.427990e-001
      vertex 8.625060e-001 2.684290e-001 5.427990e-001
      vertex 8.625060e-001 3.767600e-002 5.427990e-001
    endloop
  endfacet
  facet normal 0.000000e+000 1.000000e+000 0.000000e+000
    outer loop
      vertex 8.747700e-001 2.684290e-001 5.532390e-001
      vertex 1.565650e-001 2.684290e-001 5.427990e-001
      vertex 1.443010e-001 2.684290e-001 5.532390e-001
    endloop
  endfacet
  facet normal 0.000000e+000 1.000000e+000 0.000000e+000
    outer loop
      vertex 1.565650e-001 2.684290e-001 5.427990e-001
      vertex 8.747700e-001 2.684290e-001 5.532390e-001
      vertex 8.625060e-001 2.684290e-001 5.427990e-001
    endloop
  endfacet
  facet normal -1.000000e+000 0.000000e+000 0.000000e+000
    outer loop
      vertex 8.625060e-001 2.684290e-001 5.427990e-001
      vertex 8.625060e-001 3.767600e-002 1.566240e-001
      vertex 8.625060e-001 3.767600e-002 5.427990e-001
    endloop
  endfacet
  facet normal -1.000000e+000 0.000000e+000 0.000000e+000
    outer loop
      vertex 8.625060e-001 3.767600e-002 1.566240e-001
      vertex 8.625060e-001 2.684290e-001 5.427990e-001
      vertex 8.625060e-001 2.684290e-001 1.566240e-001
    endloop
  endfacet
  facet normal -1.000000e+000 0.000000e+000 0.000000e+000
    outer loop
      vertex 8.527770e-001 1.799700e-002 5.546150e-001
      vertex 8.527770e-001 4.470000e-004 5.312680e-001
      vertex 8.527770e-001 4.470000e-004 5.546150e-001
    endloop
  endfacet
  facet normal -1.000000e+000 0.000000e+000 0.000000e+000
    outer loop
      vertex 8.527770e-001 4.470000e-004 5.312680e-001
      vertex 8.527770e-001 1.799700e-002 5.546150e-001
      vertex 8.527770e-001 1.799700e-002 5.312680e-001
    endloop
  endfacet
  facet normal 0.000000e+000 0.000000e+000 -1.000000e+000
    outer loop
      vertex 8.527770e-001 1.799700e-002 5.312680e-001
      vertex 8.761250e-001 4.470000e-004 5.312680e-001
      vertex 8.527770e-001 4.470000e-004 5.312680e-001
    endloop
  endfacet
  facet normal 0.000000e+000 0.000000e+000 -1.000000e+000
    outer loop
      vertex 8.761250e-001 4.470000e-004 5.312680e-001
      vertex 8.527770e-001 1.799700e-002 5.312680e-001
      vertex 8.761250e-001 1.799700e-002 5.312680e-001
    endloop
  endfacet
  facet normal 1.000000e+000 0.000000e+000 0.000000e+000
    outer loop
      vertex 8.761250e-001 1.799700e-002 5.312680e-001
      vertex 8.761250e-001 4.470000e-004 5.546150e-001
      vertex 8.761250e-001 4.470000e-004 5.312680e-001
    endloop
  endfacet
  facet normal 1.000000e+000 0.000000e+000 0.000000e+000
    outer loop
      vertex 8.761250e-001 4.470000e-004 5.546150e-001
      vertex 8.761250e-001 1.799700e-002 5.312680e-001
      vertex 8.761250e-001 1.799700e-002 5.546150e-001
    endloop
  endfacet
  facet normal 0.000000e+000 0.000000e+000 1.000000e+000
    outer loop
      vertex 8.761250e-001 1.799700e-002 5.546150e-001
      vertex 8.527770e-001 4.470000e-004 5.546150e-001
      vertex 8.761250e-001 4.470000e-004 5.546150e-001
    endloop
  endfacet
  facet normal 0.000000e+000 0.000000e+000 1.000000e+000
    outer loop
      vertex 8.527770e-001 4.470000e-004 5.546150e-001
      vertex 8.761250e-001 1.799700e-002 5.546150e-001
      vertex 8.527770e-001 1.799700e-002 5.546150e-001
    endloop
  endfacet
  facet normal 0.000000e+000 -1.000000e+000 0.000000e+000
    outer loop
      vertex 8.527770e-001 4.470000e-004 5.546150e-001
      vertex 8.761250e-001 4.470000e-004 5.312680e-001
      vertex 8.761250e-001 4.470000e-004 5.546150e-001
    endloop
  endfacet
  facet normal 0.000000e+000 -1.000000e+000 0.000000e+000
    outer loop
      vertex 8.761250e-001 4.470000e-004 5.312680e-001
      vertex 8.527770e-001 4.470000e-004 5.546150e-001
      vertex 8.527770e-001 4.470000e-004 5.312680e-001
    endloop
  endfacet
  facet normal 0.000000e+000 1.000000e+000 0.000000e+000
    outer loop
      vertex 8.761250e-001 1.799700e-002 5.546150e-001
      vertex 8.527770e-001 1.799700e-002 5.312680e-001
      vertex 8.527770e-001 1.799700e-002 5.546150e-001
    endloop
  endfacet
  facet normal 0.000000e+000 1.000000e+000 0.000000e+000
    outer loop
      vertex 8.527770e-001 1.799700e-002 5.312680e-001
      vertex 8.761250e-001 1.799700e-002 5.546150e-001
      vertex 8.761250e-001 1.799700e-002 5.312680e-001
    endloop
  endfacet
  facet normal 1.000000e+000 0.000000e+000 0.000000e+000
    outer loop
      vertex 1.662940e-001 1.799600e-002 5.546150e-001
      vertex 1.662940e-001 4.470000e-004 5.312680e-001
      vertex 1.662940e-001 1.799600e-002 5.312680e-001
    endloop
  endfacet
  facet normal 1.000000e+000 0.000000e+000 0.000000e+000
    outer loop
      vertex 1.662940e-001 4.470000e-004 5.312680e-001
      vertex 1.662940e-001 1.799600e-002 5.546150e-001
      vertex 1.662940e-001 4.470000e-004 5.546150e-001
    endloop
  endfacet
  facet normal 0.000000e+000 0.000000e+000 -1.000000e+000
    outer loop
      vertex 1.662940e-001 1.799600e-002 5.312680e-001
      vertex 1.429460e-001 4.470000e-004 5.312680e-001
      vertex 1.429460e-001 1.799600e-002 5.312680e-001
    endloop
  endfacet
  facet normal 0.000000e+000 0.000000e+000 -1.000000e+000
    outer loop
      vertex 1.429460e-001 4.470000e-004 5.312680e-001
      vertex 1.662940e-001 1.799600e-002 5.312680e-001
      vertex 1.662940e-001 4.470000e-004 5.312680e-001
    endloop
  endfacet
  facet normal -1.000000e+000 0.000000e+000 0.000000e+000
    outer loop
      vertex 1.429460e-001 1.799600e-002 5.312680e-001
      vertex 1.429460e-001 4.470000e-004 5.546150e-001
      vertex 1.429460e-001 1.799600e-002 5.546150e-001
    endloop
  endfacet
  facet normal -1.000000e+000 0.000000e+000 0.000000e+000
    outer loop
      vertex 1.429460e-001 4.470000e-004 5.546150e-001
      vertex 1.429460e-001 1.799600e-002 5.312680e-001
      vertex 1.429460e-001 4.470000e-004 5.312680e-001
    endloop
  endfacet
  facet normal 0.000000e+000 0.000000e+000 1.000000e+000
    outer loop
      vertex 1.429460e-001 1.799600e-002 5.546150e-001
      vertex 1.662940e-001 4.470000e-004 5.546150e-001
      vertex 1.662940e-001 1.799600e-002 5.546150e-001
    endloop
  endfacet
  facet normal 0.000000e+000 0.000000e+000 1.000000e+000
    outer loop
      vertex 1.662940e-001 4.470000e-004 5.546150e-001
      vertex 1.429460e-001 1.799600e-002 5.546150e-001
      vertex 1.429460e-001 4.470000e-004 5.546150e-001
    endloop
  endfacet
  facet normal 0.000000e+000 -1.000000e+000 0.000000e+000
    outer loop
      vertex 1.662940e-001 4.470000e-004 5.546150e-001
      vertex 1.429460e-001 4.470000e-004 5.312680e-001
      vertex 1.662940e-001 4.470000e-004 5.312680e-001
    endloop
  endfacet
  facet normal 0.000000e+000 -1.000000e+000 0.000000e+000
    outer loop
      vertex 1.429460e-001 4.470000e-004 5.312680e-001
      vertex 1.662940e-001 4.470000e-004 5.546150e-001
      vertex 1.429460e-001 4.470000e-004 5.546150e-001
    endloop
  endfacet
  facet normal 0.000000e+000 1.000000e+000 0.000000e+000
    outer loop
      vertex 1.429460e-001 1.799600e-002 5.546150e-001
      vertex 1.662940e-001 1.799600e-002 5.312680e-001
      vertex 1.429460e-001 1.799600e-002 5.312680e-001
    endloop
  endfacet
  facet normal 0.000000e+000 1.000000e+000 0.000000e+000
    outer loop
      vertex 1.662940e-001 1.799600e-002 5.312680e-001
      vertex 1.429460e-001 1.799600e-002 5.546150e-001
      vertex 1.662940e-001 1.799600e-002 5.546150e-001
    endloop
  endfacet
  facet normal -1.000000e+000 0.000000e+000 0.000000e+000
    outer loop
      vertex 1.443010e-001 2.684290e-001 1.461840e-001
      vertex 1.443010e-001 4.621000e-003 5.532390e-001
      vertex 1.443010e-001 2.684290e-001 5.532390e-001
    endloop
  endfacet
  facet normal -1.000000e+000 0.000000e+000 0.000000e+000
    outer loop
      vertex 1.443010e-001 4.621000e-003 5.532390e-001
      vertex 1.443010e-001 2.684290e-001 1.461840e-001
      vertex 1.443010e-001 4.621000e-003 1.461840e-001
    endloop
  endfacet
  facet normal 0.000000e+000 1.000000e+000 0.000000e+000
    outer loop
      vertex 8.625060e-001 3.767600e-002 1.566240e-001
      vertex 1.565650e-001 3.767600e-002 5.427990e-001
      vertex 8.625060e-001 3.767600e-002 5.427990e-001
    endloop
  endfacet
  facet normal 0.000000e+000 1.000000e+000 0.000000e+000
    outer loop
      vertex 1.565650e-001 3.767600e-002 5.427990e-001
      vertex 8.625060e-001 3.767600e-002 1.566240e-001
      vertex 1.565650e-001 3.767600e-002 1.566240e-001
    endloop
  endfacet
endsolid OBJECT
