solid Exported from Blender-2.76 (sub 0)
facet normal 1.000000 0.000000 0.000000
outer loop
vertex 0.571075 0.000000 0.571075
vertex 0.571075 0.000000 0.428925
vertex 0.571075 0.005354 0.428925
endloop
endfacet
facet normal 1.000000 0.000000 0.000000
outer loop
vertex 0.571075 0.005354 0.428925
vertex 0.571075 0.005354 0.571075
vertex 0.571075 0.000000 0.571075
endloop
endfacet
facet normal 0.000000 1.000000 0.000000
outer loop
vertex 1.000000 -0.000000 1.000000
vertex 1.000000 -0.000000 0.000000
vertex 0.571075 0.000000 0.428925
endloop
endfacet
facet normal 0.000000 1.000000 0.000000
outer loop
vertex 0.571075 0.000000 0.428925
vertex 0.571075 0.000000 0.571075
vertex 1.000000 -0.000000 1.000000
endloop
endfacet
facet normal 0.000000 1.000000 0.000000
outer loop
vertex 1.000000 -0.000000 0.000000
vertex 0.000000 0.000000 0.000000
vertex 0.428925 0.000000 0.428925
endloop
endfacet
facet normal 0.000000 1.000000 0.000000
outer loop
vertex 0.428925 0.000000 0.428925
vertex 0.571075 0.000000 0.428925
vertex 1.000000 -0.000000 0.000000
endloop
endfacet
facet normal 0.000000 1.000000 0.000000
outer loop
vertex 0.428925 0.000000 0.571075
vertex 0.428925 0.000000 0.428925
vertex 0.000000 0.000000 0.000000
endloop
endfacet
facet normal 0.000000 1.000000 0.000000
outer loop
vertex 0.000000 0.000000 0.000000
vertex 0.000000 0.000000 1.000000
vertex 0.428925 0.000000 0.571075
endloop
endfacet
facet normal 0.000000 1.000000 0.000000
outer loop
vertex 0.571075 0.000000 0.571075
vertex 0.428925 0.000000 0.571075
vertex 0.000000 0.000000 1.000000
endloop
endfacet
facet normal 0.000000 1.000000 0.000000
outer loop
vertex 0.000000 0.000000 1.000000
vertex 1.000000 -0.000000 1.000000
vertex 0.571075 0.000000 0.571075
endloop
endfacet
facet normal -0.011247 -0.999937 -0.000000
outer loop
vertex 0.428925 0.005354 0.428925
vertex 0.428925 0.005354 0.571075
vertex 0.262638 0.007224 0.737362
endloop
endfacet
facet normal -0.011247 -0.999937 -0.000000
outer loop
vertex 0.262638 0.007224 0.737362
vertex 0.262638 0.007224 0.262638
vertex 0.428925 0.005354 0.428925
endloop
endfacet
facet normal -0.000001 0.000000 1.000000
outer loop
vertex 0.428925 0.000000 0.571075
vertex 0.571075 0.000000 0.571075
vertex 0.571075 0.005354 0.571075
endloop
endfacet
facet normal 0.000000 0.000000 1.000000
outer loop
vertex 0.571075 0.005354 0.571075
vertex 0.428925 0.005354 0.571075
vertex 0.428925 0.000000 0.571075
endloop
endfacet
facet normal 0.000001 0.000000 -1.000000
outer loop
vertex 0.571075 0.000000 0.428925
vertex 0.428925 0.000000 0.428925
vertex 0.428925 0.005354 0.428925
endloop
endfacet
facet normal -0.000001 0.000000 -1.000000
outer loop
vertex 0.428925 0.005354 0.428925
vertex 0.571075 0.005354 0.428925
vertex 0.571075 0.000000 0.428925
endloop
endfacet
facet normal -1.000000 0.000000 0.000000
outer loop
vertex 0.428925 0.000000 0.428925
vertex 0.428925 0.000000 0.571075
vertex 0.428925 0.005354 0.571075
endloop
endfacet
facet normal -1.000000 0.000000 0.000000
outer loop
vertex 0.428925 0.005354 0.571075
vertex 0.428925 0.005354 0.428925
vertex 0.428925 0.000000 0.428925
endloop
endfacet
facet normal -1.000000 0.000000 0.000000
outer loop
vertex 0.262638 0.007224 0.262638
vertex 0.262638 0.007224 0.737362
vertex 0.262638 0.024125 0.737362
endloop
endfacet
facet normal -1.000000 0.000000 0.000000
outer loop
vertex 0.262638 0.024125 0.737362
vertex 0.262638 0.024125 0.262638
vertex 0.262638 0.007224 0.262638
endloop
endfacet
facet normal 0.011246 -0.999937 -0.000000
outer loop
vertex 0.571075 0.005354 0.571075
vertex 0.571075 0.005354 0.428925
vertex 0.737362 0.007224 0.262638
endloop
endfacet
facet normal 0.011246 -0.999937 -0.000000
outer loop
vertex 0.737362 0.007224 0.262638
vertex 0.737362 0.007224 0.737362
vertex 0.571075 0.005354 0.571075
endloop
endfacet
facet normal -0.000000 -0.999937 0.011246
outer loop
vertex 0.428925 0.005354 0.571075
vertex 0.571075 0.005354 0.571075
vertex 0.737362 0.007224 0.737362
endloop
endfacet
facet normal -0.000000 -0.999937 0.011246
outer loop
vertex 0.737362 0.007224 0.737362
vertex 0.262638 0.007224 0.737362
vertex 0.428925 0.005354 0.571075
endloop
endfacet
facet normal -0.000000 -0.999937 -0.011247
outer loop
vertex 0.571075 0.005354 0.428925
vertex 0.428925 0.005354 0.428925
vertex 0.262638 0.007224 0.262638
endloop
endfacet
facet normal -0.000000 -0.999937 -0.011247
outer loop
vertex 0.262638 0.007224 0.262638
vertex 0.737362 0.007224 0.262638
vertex 0.571075 0.005354 0.428925
endloop
endfacet
facet normal 0.000000 1.000000 0.000000
outer loop
vertex 0.737362 0.024125 0.262638
vertex 0.262638 0.024125 0.262638
vertex 0.262638 0.024125 0.737362
endloop
endfacet
facet normal 0.000000 1.000000 0.000000
outer loop
vertex 0.262638 0.024125 0.737362
vertex 0.737362 0.024125 0.737362
vertex 0.737362 0.024125 0.262638
endloop
endfacet
facet normal 1.000000 0.000000 0.000000
outer loop
vertex 0.737362 0.007224 0.737362
vertex 0.737362 0.007224 0.262638
vertex 0.737362 0.024125 0.262638
endloop
endfacet
facet normal 1.000000 0.000000 0.000000
outer loop
vertex 0.737362 0.024125 0.262638
vertex 0.737362 0.024125 0.737362
vertex 0.737362 0.007224 0.737362
endloop
endfacet
facet normal 0.000000 0.000000 1.000000
outer loop
vertex 0.262638 0.007224 0.737362
vertex 0.737362 0.007224 0.737362
vertex 0.737362 0.024125 0.737362
endloop
endfacet
facet normal -0.000000 0.000000 1.000000
outer loop
vertex 0.737362 0.024125 0.737362
vertex 0.262638 0.024125 0.737362
vertex 0.262638 0.007224 0.737362
endloop
endfacet
facet normal 0.000000 0.000000 -1.000000
outer loop
vertex 0.737362 0.007224 0.262638
vertex 0.262638 0.007224 0.262638
vertex 0.262638 0.024125 0.262638
endloop
endfacet
facet normal 0.000000 0.000000 -1.000000
outer loop
vertex 0.262638 0.024125 0.262638
vertex 0.737362 0.024125 0.262638
vertex 0.737362 0.007224 0.262638
endloop
endfacet
endsolid Exported from Blender-2.76 (sub 0)
