solid Exported from Blender-2.76 (sub 0)
facet normal 0.000000 0.000000 -1.000000
outer loop
vertex 0.737766 -0.000000 0.737766
vertex 0.737766 -0.026068 0.737766
vertex 0.262234 -0.026068 0.737766
endloop
endfacet
facet normal -0.000000 0.000000 -1.000000
outer loop
vertex 0.262234 -0.026068 0.737766
vertex 0.262234 0.000000 0.737766
vertex 0.737766 -0.000000 0.737766
endloop
endfacet
facet normal 0.000000 1.000000 0.000000
outer loop
vertex 0.737766 -0.026068 0.737766
vertex 0.737766 -0.026068 0.262234
vertex 0.262234 -0.026068 0.262234
endloop
endfacet
facet normal 0.000000 1.000000 0.000000
outer loop
vertex 0.262234 -0.026068 0.262234
vertex 0.262234 -0.026068 0.737766
vertex 0.737766 -0.026068 0.737766
endloop
endfacet
facet normal 0.000000 1.000000 0.000000
outer loop
vertex 1.000000 -0.000000 0.000000
vertex 0.737766 0.000000 0.262234
vertex 0.737766 -0.000000 0.737766
endloop
endfacet
facet normal 0.000000 1.000000 0.000000
outer loop
vertex 0.737766 -0.000000 0.737766
vertex 1.000000 -0.000000 1.000000
vertex 1.000000 -0.000000 0.000000
endloop
endfacet
facet normal 0.000000 1.000000 0.000000
outer loop
vertex 0.737766 0.000000 0.262234
vertex 1.000000 -0.000000 0.000000
vertex 0.000000 0.000000 0.000000
endloop
endfacet
facet normal 0.000000 1.000000 0.000000
outer loop
vertex 0.000000 0.000000 0.000000
vertex 0.262234 0.000000 0.262234
vertex 0.737766 0.000000 0.262234
endloop
endfacet
facet normal 0.000000 1.000000 0.000000
outer loop
vertex 0.262234 0.000000 0.262234
vertex 0.000000 0.000000 0.000000
vertex 0.000000 0.000000 1.000000
endloop
endfacet
facet normal 0.000000 1.000000 0.000000
outer loop
vertex 0.000000 0.000000 1.000000
vertex 0.262234 0.000000 0.737766
vertex 0.262234 0.000000 0.262234
endloop
endfacet
facet normal 0.000000 1.000000 0.000000
outer loop
vertex 0.262234 0.000000 0.737766
vertex 0.000000 0.000000 1.000000
vertex 1.000000 -0.000000 1.000000
endloop
endfacet
facet normal 0.000000 1.000000 0.000000
outer loop
vertex 1.000000 -0.000000 1.000000
vertex 0.737766 -0.000000 0.737766
vertex 0.262234 0.000000 0.737766
endloop
endfacet
facet normal -0.000000 0.000000 1.000000
outer loop
vertex 0.262234 0.000000 0.262234
vertex 0.262234 -0.026068 0.262234
vertex 0.737766 -0.026068 0.262234
endloop
endfacet
facet normal 0.000000 0.000000 1.000000
outer loop
vertex 0.737766 -0.026068 0.262234
vertex 0.737766 0.000000 0.262234
vertex 0.262234 0.000000 0.262234
endloop
endfacet
facet normal 1.000000 0.000000 0.000000
outer loop
vertex 0.262234 0.000000 0.737766
vertex 0.262234 -0.026068 0.737766
vertex 0.262234 -0.026068 0.262234
endloop
endfacet
facet normal 1.000000 0.000000 0.000000
outer loop
vertex 0.262234 -0.026068 0.262234
vertex 0.262234 0.000000 0.262234
vertex 0.262234 0.000000 0.737766
endloop
endfacet
facet normal -1.000000 0.000000 0.000000
outer loop
vertex 0.737766 0.000000 0.262234
vertex 0.737766 -0.026068 0.262234
vertex 0.737766 -0.026068 0.737766
endloop
endfacet
facet normal -1.000000 0.000000 0.000000
outer loop
vertex 0.737766 -0.026068 0.737766
vertex 0.737766 -0.000000 0.737766
vertex 0.737766 0.000000 0.262234
endloop
endfacet
endsolid Exported from Blender-2.76 (sub 0)
