solid Exported from Blender-2.76 (sub 0)
facet normal -0.574530 -0.409842 0.708481
outer loop
vertex 0.143804 0.829159 0.671195
vertex 0.143804 0.957444 0.745405
vertex 0.131602 0.963713 0.739136
endloop
endfacet
facet normal -0.574530 -0.409841 0.708481
outer loop
vertex 0.131602 0.963713 0.739136
vertex 0.126622 0.837986 0.662368
vertex 0.143804 0.829159 0.671195
endloop
endfacet
facet normal -0.950234 0.188904 -0.247731
outer loop
vertex 0.126622 0.837986 0.662368
vertex 0.131602 0.963713 0.739136
vertex 0.136263 0.973855 0.728994
endloop
endfacet
facet normal -0.950233 0.188906 -0.247733
outer loop
vertex 0.136263 0.973855 0.728994
vertex 0.133185 0.852269 0.648085
vertex 0.126622 0.837986 0.662368
endloop
endfacet
facet normal 0.000000 0.553993 -0.832521
outer loop
vertex 0.133185 0.852269 0.648085
vertex 0.136263 0.973855 0.728994
vertex 0.151345 0.973855 0.728994
endloop
endfacet
facet normal 0.000000 0.553993 -0.832521
outer loop
vertex 0.151345 0.973855 0.728994
vertex 0.154422 0.852269 0.648085
vertex 0.133185 0.852269 0.648085
endloop
endfacet
facet normal 0.574529 -0.409842 0.708481
outer loop
vertex 0.160985 0.837986 0.662368
vertex 0.156005 0.963713 0.739136
vertex 0.143804 0.957444 0.745405
endloop
endfacet
facet normal 0.574531 -0.409841 0.708480
outer loop
vertex 0.143804 0.957444 0.745405
vertex 0.143804 0.829159 0.671195
vertex 0.160985 0.837986 0.662368
endloop
endfacet
facet normal 0.950233 0.188906 -0.247732
outer loop
vertex 0.154422 0.852269 0.648085
vertex 0.151345 0.973855 0.728994
vertex 0.156005 0.963713 0.739136
endloop
endfacet
facet normal 0.950233 0.188905 -0.247732
outer loop
vertex 0.156005 0.963713 0.739136
vertex 0.160985 0.837986 0.662368
vertex 0.154422 0.852269 0.648085
endloop
endfacet
facet normal 0.947542 0.156971 -0.278431
outer loop
vertex 0.154422 0.389344 0.190852
vertex 0.154422 0.509373 0.258521
vertex 0.160985 0.495091 0.272803
endloop
endfacet
facet normal 0.947543 0.156970 -0.278430
outer loop
vertex 0.160985 0.495091 0.272803
vertex 0.160985 0.375062 0.205134
vertex 0.154422 0.389344 0.190852
endloop
endfacet
facet normal 0.948743 0.168688 -0.267266
outer loop
vertex 0.154422 0.619668 0.414346
vertex 0.154422 0.743112 0.492260
vertex 0.160985 0.728830 0.506542
endloop
endfacet
facet normal 0.948744 0.168686 -0.267265
outer loop
vertex 0.160985 0.728830 0.506542
vertex 0.160985 0.605386 0.428629
vertex 0.154422 0.619668 0.414346
endloop
endfacet
facet normal 0.573364 -0.402359 0.713695
outer loop
vertex 0.160985 0.375062 0.205134
vertex 0.160985 0.495091 0.272803
vertex 0.143804 0.486264 0.281630
endloop
endfacet
facet normal 0.573364 -0.402359 0.713696
outer loop
vertex 0.143804 0.486264 0.281630
vertex 0.143804 0.366235 0.213961
vertex 0.160985 0.375062 0.205134
endloop
endfacet
facet normal 0.578187 -0.435481 0.689968
outer loop
vertex 0.160985 0.605386 0.428629
vertex 0.160985 0.728830 0.506542
vertex 0.143804 0.720003 0.515369
endloop
endfacet
facet normal 0.578192 -0.435479 0.689965
outer loop
vertex 0.143804 0.720003 0.515369
vertex 0.143804 0.596559 0.437456
vertex 0.160985 0.605386 0.428629
endloop
endfacet
facet normal 0.000000 0.491100 -0.871103
outer loop
vertex 0.133185 0.389344 0.190852
vertex 0.133185 0.509373 0.258521
vertex 0.154422 0.509373 0.258521
endloop
endfacet
facet normal 0.000000 0.491100 -0.871103
outer loop
vertex 0.154422 0.509373 0.258521
vertex 0.154422 0.389344 0.190852
vertex 0.133185 0.389344 0.190852
endloop
endfacet
facet normal 0.000000 0.533741 -0.845648
outer loop
vertex 0.133185 0.619668 0.414346
vertex 0.133185 0.743112 0.492260
vertex 0.154422 0.743112 0.492260
endloop
endfacet
facet normal 0.000000 0.533740 -0.845649
outer loop
vertex 0.154422 0.743112 0.492260
vertex 0.154422 0.619668 0.414346
vertex 0.133185 0.619668 0.414346
endloop
endfacet
facet normal -0.947543 0.156970 -0.278430
outer loop
vertex 0.126622 0.375062 0.205134
vertex 0.126622 0.495091 0.272803
vertex 0.133185 0.509373 0.258521
endloop
endfacet
facet normal -0.947542 0.156970 -0.278431
outer loop
vertex 0.133185 0.509373 0.258521
vertex 0.133185 0.389344 0.190852
vertex 0.126622 0.375062 0.205134
endloop
endfacet
facet normal -0.948744 0.168687 -0.267264
outer loop
vertex 0.126622 0.605386 0.428629
vertex 0.126622 0.728830 0.506542
vertex 0.133185 0.743112 0.492260
endloop
endfacet
facet normal -0.948743 0.168688 -0.267266
outer loop
vertex 0.133185 0.743112 0.492260
vertex 0.133185 0.619668 0.414346
vertex 0.126622 0.605386 0.428629
endloop
endfacet
facet normal -0.573364 -0.402358 0.713696
outer loop
vertex 0.143804 0.366235 0.213961
vertex 0.143804 0.486264 0.281630
vertex 0.126622 0.495091 0.272803
endloop
endfacet
facet normal -0.573363 -0.402358 0.713696
outer loop
vertex 0.126622 0.495091 0.272803
vertex 0.126622 0.375062 0.205134
vertex 0.143804 0.366235 0.213961
endloop
endfacet
facet normal -0.578190 -0.435479 0.689966
outer loop
vertex 0.143804 0.596559 0.437456
vertex 0.143804 0.720003 0.515369
vertex 0.126622 0.728830 0.506542
endloop
endfacet
facet normal -0.578190 -0.435480 0.689966
outer loop
vertex 0.126622 0.728830 0.506542
vertex 0.126622 0.605386 0.428629
vertex 0.143804 0.596559 0.437456
endloop
endfacet
facet normal 0.946535 0.286333 -0.148606
outer loop
vertex 0.154422 0.743112 0.492260
vertex 0.154422 0.781185 0.565619
vertex 0.160985 0.766903 0.579902
endloop
endfacet
facet normal 0.946536 0.286333 -0.148606
outer loop
vertex 0.160985 0.766903 0.579902
vertex 0.160985 0.728830 0.506542
vertex 0.154422 0.743112 0.492260
endloop
endfacet
facet normal 0.950808 0.234643 -0.202256
outer loop
vertex 0.154422 0.781185 0.565619
vertex 0.154422 0.852269 0.648085
vertex 0.160985 0.837986 0.662368
endloop
endfacet
facet normal 0.950807 0.234645 -0.202257
outer loop
vertex 0.160985 0.837986 0.662368
vertex 0.160985 0.766903 0.579902
vertex 0.154422 0.781185 0.565619
endloop
endfacet
facet normal 0.569398 -0.729648 0.378682
outer loop
vertex 0.160985 0.728830 0.506542
vertex 0.160985 0.766903 0.579902
vertex 0.143804 0.758076 0.588728
endloop
endfacet
facet normal 0.569399 -0.729647 0.378682
outer loop
vertex 0.143804 0.758076 0.588728
vertex 0.143804 0.720003 0.515369
vertex 0.160985 0.728830 0.506542
endloop
endfacet
facet normal 0.586730 -0.613367 0.528704
outer loop
vertex 0.160985 0.766903 0.579902
vertex 0.160985 0.837986 0.662368
vertex 0.143804 0.829159 0.671195
endloop
endfacet
facet normal 0.586731 -0.613367 0.528703
outer loop
vertex 0.143804 0.829159 0.671195
vertex 0.143804 0.758076 0.588728
vertex 0.160985 0.766903 0.579902
endloop
endfacet
facet normal 0.000002 0.887583 -0.460649
outer loop
vertex 0.133185 0.743112 0.492260
vertex 0.133185 0.781185 0.565619
vertex 0.154422 0.781185 0.565619
endloop
endfacet
facet normal 0.000000 0.887581 -0.460651
outer loop
vertex 0.154422 0.781185 0.565619
vertex 0.154422 0.743112 0.492260
vertex 0.133185 0.743112 0.492260
endloop
endfacet
facet normal 0.000000 0.757448 -0.652896
outer loop
vertex 0.133185 0.781185 0.565619
vertex 0.133185 0.852269 0.648085
vertex 0.154422 0.852269 0.648085
endloop
endfacet
facet normal 0.000000 0.757447 -0.652897
outer loop
vertex 0.154422 0.852269 0.648085
vertex 0.154422 0.781185 0.565619
vertex 0.133185 0.781185 0.565619
endloop
endfacet
facet normal -0.946535 0.286334 -0.148605
outer loop
vertex 0.126622 0.728830 0.506542
vertex 0.126622 0.766903 0.579902
vertex 0.133185 0.781185 0.565619
endloop
endfacet
facet normal -0.946536 0.286333 -0.148604
outer loop
vertex 0.133185 0.781185 0.565619
vertex 0.133185 0.743112 0.492260
vertex 0.126622 0.728830 0.506542
endloop
endfacet
facet normal -0.950807 0.234645 -0.202256
outer loop
vertex 0.126622 0.766903 0.579902
vertex 0.126622 0.837986 0.662368
vertex 0.133185 0.852269 0.648085
endloop
endfacet
facet normal -0.950807 0.234645 -0.202257
outer loop
vertex 0.133185 0.852269 0.648085
vertex 0.133185 0.781185 0.565619
vertex 0.126622 0.766903 0.579902
endloop
endfacet
facet normal -0.569400 -0.729646 0.378682
outer loop
vertex 0.143804 0.720003 0.515369
vertex 0.143804 0.758076 0.588728
vertex 0.126622 0.766903 0.579902
endloop
endfacet
facet normal -0.569397 -0.729648 0.378682
outer loop
vertex 0.126622 0.766903 0.579902
vertex 0.126622 0.728830 0.506542
vertex 0.143804 0.720003 0.515369
endloop
endfacet
facet normal -0.586727 -0.613368 0.528706
outer loop
vertex 0.143804 0.758076 0.588728
vertex 0.143804 0.829159 0.671195
vertex 0.126622 0.837986 0.662368
endloop
endfacet
facet normal -0.586733 -0.613366 0.528703
outer loop
vertex 0.126622 0.837986 0.662368
vertex 0.126622 0.766903 0.579902
vertex 0.143804 0.758076 0.588728
endloop
endfacet
facet normal -0.564229 -0.747314 0.350951
outer loop
vertex 0.143804 0.486264 0.281630
vertex 0.143804 0.517508 0.348160
vertex 0.126622 0.526335 0.339333
endloop
endfacet
facet normal -0.564229 -0.747314 0.350951
outer loop
vertex 0.126622 0.526335 0.339333
vertex 0.126622 0.495091 0.272803
vertex 0.143804 0.486264 0.281630
endloop
endfacet
facet normal -0.587074 -0.606140 0.536600
outer loop
vertex 0.143804 0.517508 0.348160
vertex 0.143804 0.596559 0.437456
vertex 0.126622 0.605386 0.428629
endloop
endfacet
facet normal -0.587075 -0.606139 0.536600
outer loop
vertex 0.126622 0.605386 0.428629
vertex 0.126622 0.526335 0.339333
vertex 0.143804 0.517508 0.348160
endloop
endfacet
facet normal -0.945197 0.295536 -0.138789
outer loop
vertex 0.126622 0.495091 0.272803
vertex 0.126622 0.526335 0.339333
vertex 0.133185 0.540617 0.325051
endloop
endfacet
facet normal -0.945197 0.295534 -0.138787
outer loop
vertex 0.133185 0.540617 0.325051
vertex 0.133185 0.509373 0.258521
vertex 0.126622 0.495091 0.272803
endloop
endfacet
facet normal -0.950889 0.231764 -0.205174
outer loop
vertex 0.126622 0.526335 0.339333
vertex 0.126622 0.605386 0.428629
vertex 0.133185 0.619668 0.414346
endloop
endfacet
facet normal -0.950888 0.231765 -0.205175
outer loop
vertex 0.133185 0.619668 0.414346
vertex 0.133185 0.540617 0.325051
vertex 0.126622 0.526335 0.339333
endloop
endfacet
facet normal 0.000000 0.905157 -0.425078
outer loop
vertex 0.133185 0.509373 0.258521
vertex 0.133185 0.540617 0.325051
vertex 0.154422 0.540617 0.325051
endloop
endfacet
facet normal 0.000000 0.905158 -0.425076
outer loop
vertex 0.154422 0.540617 0.325051
vertex 0.154422 0.509373 0.258521
vertex 0.133185 0.509373 0.258521
endloop
endfacet
facet normal 0.000000 0.748752 -0.662851
outer loop
vertex 0.133185 0.540617 0.325051
vertex 0.133185 0.619668 0.414346
vertex 0.154422 0.619668 0.414346
endloop
endfacet
facet normal 0.000000 0.748751 -0.662851
outer loop
vertex 0.154422 0.619668 0.414346
vertex 0.154422 0.540617 0.325051
vertex 0.133185 0.540617 0.325051
endloop
endfacet
facet normal 0.564229 -0.747314 0.350952
outer loop
vertex 0.160985 0.495091 0.272803
vertex 0.160985 0.526335 0.339333
vertex 0.143804 0.517508 0.348160
endloop
endfacet
facet normal 0.564228 -0.747316 0.350951
outer loop
vertex 0.143804 0.517508 0.348160
vertex 0.143804 0.486264 0.281630
vertex 0.160985 0.495091 0.272803
endloop
endfacet
facet normal 0.587073 -0.606140 0.536600
outer loop
vertex 0.160985 0.526335 0.339333
vertex 0.160985 0.605386 0.428629
vertex 0.143804 0.596559 0.437456
endloop
endfacet
facet normal 0.587075 -0.606139 0.536600
outer loop
vertex 0.143804 0.596559 0.437456
vertex 0.143804 0.517508 0.348160
vertex 0.160985 0.526335 0.339333
endloop
endfacet
facet normal 0.945197 0.295535 -0.138789
outer loop
vertex 0.154422 0.509373 0.258521
vertex 0.154422 0.540617 0.325051
vertex 0.160985 0.526335 0.339333
endloop
endfacet
facet normal 0.945196 0.295536 -0.138788
outer loop
vertex 0.160985 0.526335 0.339333
vertex 0.160985 0.495091 0.272803
vertex 0.154422 0.509373 0.258521
endloop
endfacet
facet normal 0.950889 0.231763 -0.205174
outer loop
vertex 0.154422 0.540617 0.325051
vertex 0.154422 0.619668 0.414346
vertex 0.160985 0.605386 0.428629
endloop
endfacet
facet normal 0.950888 0.231764 -0.205175
outer loop
vertex 0.160985 0.605386 0.428629
vertex 0.160985 0.526335 0.339333
vertex 0.154422 0.540617 0.325051
endloop
endfacet
facet normal -0.558029 -0.765236 0.320964
outer loop
vertex 0.143803 0.256403 0.044013
vertex 0.143803 0.288322 0.120112
vertex 0.126622 0.297149 0.111285
endloop
endfacet
facet normal -0.558029 -0.765236 0.320965
outer loop
vertex 0.126622 0.297149 0.111285
vertex 0.131838 0.262550 0.037865
vertex 0.143803 0.256403 0.044013
endloop
endfacet
facet normal -0.586135 -0.623384 0.517531
outer loop
vertex 0.143803 0.288322 0.120112
vertex 0.143804 0.366235 0.213961
vertex 0.126622 0.375062 0.205134
endloop
endfacet
facet normal -0.586138 -0.623382 0.517530
outer loop
vertex 0.126622 0.375062 0.205134
vertex 0.126622 0.297149 0.111285
vertex 0.143803 0.288322 0.120112
endloop
endfacet
facet normal -0.950047 0.250848 -0.185705
outer loop
vertex 0.131838 0.262550 0.037865
vertex 0.126622 0.297149 0.111285
vertex 0.133185 0.311431 0.097003
endloop
endfacet
facet normal -0.950048 0.250845 -0.185702
outer loop
vertex 0.133185 0.311431 0.097003
vertex 0.136408 0.272497 0.027919
vertex 0.131838 0.262550 0.037865
endloop
endfacet
facet normal -0.950666 0.238683 -0.198154
outer loop
vertex 0.126622 0.297149 0.111285
vertex 0.126622 0.375062 0.205134
vertex 0.133185 0.389344 0.190852
endloop
endfacet
facet normal -0.950666 0.238683 -0.198153
outer loop
vertex 0.133185 0.389344 0.190852
vertex 0.133185 0.311431 0.097003
vertex 0.126622 0.297149 0.111285
endloop
endfacet
facet normal 0.000000 0.871174 -0.490974
outer loop
vertex 0.136408 0.272497 0.027919
vertex 0.133185 0.311431 0.097003
vertex 0.154422 0.311431 0.097003
endloop
endfacet
facet normal 0.000001 0.871174 -0.490974
outer loop
vertex 0.154422 0.311431 0.097003
vertex 0.151199 0.272497 0.027919
vertex 0.136408 0.272497 0.027919
endloop
endfacet
facet normal 0.000000 0.769407 -0.638759
outer loop
vertex 0.133185 0.311431 0.097003
vertex 0.133185 0.389344 0.190852
vertex 0.154422 0.389344 0.190852
endloop
endfacet
facet normal 0.000000 0.769407 -0.638759
outer loop
vertex 0.154422 0.389344 0.190852
vertex 0.154422 0.311431 0.097003
vertex 0.133185 0.311431 0.097003
endloop
endfacet
facet normal 0.558029 -0.765236 0.320964
outer loop
vertex 0.143803 0.288322 0.120112
vertex 0.143803 0.256403 0.044013
vertex 0.155769 0.262550 0.037865
endloop
endfacet
facet normal 0.558027 -0.765237 0.320964
outer loop
vertex 0.155769 0.262550 0.037865
vertex 0.160985 0.297149 0.111285
vertex 0.143803 0.288322 0.120112
endloop
endfacet
facet normal 0.586136 -0.623384 0.517530
outer loop
vertex 0.160985 0.297149 0.111285
vertex 0.160985 0.375062 0.205134
vertex 0.143804 0.366235 0.213961
endloop
endfacet
facet normal 0.586137 -0.623383 0.517530
outer loop
vertex 0.143804 0.366235 0.213961
vertex 0.143803 0.288322 0.120112
vertex 0.160985 0.297149 0.111285
endloop
endfacet
facet normal 0.950047 0.250847 -0.185705
outer loop
vertex 0.151199 0.272497 0.027919
vertex 0.154422 0.311431 0.097003
vertex 0.160985 0.297149 0.111285
endloop
endfacet
facet normal 0.950047 0.250848 -0.185705
outer loop
vertex 0.160985 0.297149 0.111285
vertex 0.155769 0.262550 0.037865
vertex 0.151199 0.272497 0.027919
endloop
endfacet
facet normal 0.950666 0.238682 -0.198153
outer loop
vertex 0.154422 0.311431 0.097003
vertex 0.154422 0.389344 0.190852
vertex 0.160985 0.375062 0.205134
endloop
endfacet
facet normal 0.950666 0.238683 -0.198154
outer loop
vertex 0.160985 0.375062 0.205134
vertex 0.160985 0.297149 0.111285
vertex 0.154422 0.311431 0.097003
endloop
endfacet
facet normal 0.063379 0.000000 0.997990
outer loop
vertex 0.135790 0.733595 0.509999
vertex 0.107724 0.735377 0.511781
vertex 0.107724 0.723590 0.511781
endloop
endfacet
facet normal 0.063382 0.000000 0.997989
outer loop
vertex 0.107724 0.723590 0.511781
vertex 0.135790 0.725372 0.509999
vertex 0.135790 0.733595 0.509999
endloop
endfacet
facet normal 0.063386 0.000000 -0.997989
outer loop
vertex 0.107724 0.735377 0.499994
vertex 0.135790 0.733595 0.501777
vertex 0.135790 0.725372 0.501777
endloop
endfacet
facet normal 0.063383 0.000000 -0.997989
outer loop
vertex 0.135790 0.725372 0.501777
vertex 0.107724 0.723590 0.499994
vertex 0.107724 0.735377 0.499994
endloop
endfacet
facet normal 0.063382 -0.997989 -0.000016
outer loop
vertex 0.135790 0.725372 0.501777
vertex 0.135790 0.725372 0.509999
vertex 0.107724 0.723590 0.511781
endloop
endfacet
facet normal 0.063385 -0.997989 0.000000
outer loop
vertex 0.107724 0.723590 0.511781
vertex 0.107724 0.723590 0.499994
vertex 0.135790 0.725372 0.501777
endloop
endfacet
facet normal 0.063381 0.997989 0.000000
outer loop
vertex 0.107724 0.735377 0.499994
vertex 0.107724 0.735377 0.511781
vertex 0.135790 0.733595 0.509999
endloop
endfacet
facet normal 0.063383 0.997989 0.000000
outer loop
vertex 0.135790 0.733595 0.509999
vertex 0.135790 0.733595 0.501777
vertex 0.107724 0.735377 0.499994
endloop
endfacet
facet normal 0.063382 0.000000 0.997989
outer loop
vertex 0.135790 0.959317 0.735008
vertex 0.107724 0.961100 0.736791
vertex 0.107724 0.949313 0.736791
endloop
endfacet
facet normal 0.063384 0.000007 0.997989
outer loop
vertex 0.107724 0.949313 0.736791
vertex 0.135790 0.951095 0.735008
vertex 0.135790 0.959317 0.735008
endloop
endfacet
facet normal 0.063378 0.000007 -0.997990
outer loop
vertex 0.107724 0.961100 0.725003
vertex 0.135790 0.959317 0.726786
vertex 0.135790 0.951095 0.726786
endloop
endfacet
facet normal 0.063377 0.000000 -0.997990
outer loop
vertex 0.135790 0.951095 0.726786
vertex 0.107724 0.949313 0.725003
vertex 0.107724 0.961100 0.725003
endloop
endfacet
facet normal 0.063385 -0.997989 0.000016
outer loop
vertex 0.135790 0.951095 0.726786
vertex 0.135790 0.951095 0.735008
vertex 0.107724 0.949313 0.736791
endloop
endfacet
facet normal 0.063383 -0.997989 0.000000
outer loop
vertex 0.107724 0.949313 0.736791
vertex 0.107724 0.949313 0.725003
vertex 0.135790 0.951095 0.726786
endloop
endfacet
facet normal 0.063383 0.997989 0.000000
outer loop
vertex 0.107724 0.961100 0.725003
vertex 0.107724 0.961100 0.736791
vertex 0.135790 0.959317 0.735008
endloop
endfacet
facet normal 0.063383 0.997989 0.000000
outer loop
vertex 0.135790 0.959317 0.735008
vertex 0.135790 0.959317 0.726786
vertex 0.107724 0.961100 0.725003
endloop
endfacet
facet normal 0.063383 0.000000 0.997989
outer loop
vertex 0.135790 0.502822 0.277195
vertex 0.107724 0.504604 0.278977
vertex 0.107724 0.492817 0.278977
endloop
endfacet
facet normal 0.063383 0.000000 0.997989
outer loop
vertex 0.107724 0.492817 0.278977
vertex 0.135790 0.494599 0.277195
vertex 0.135790 0.502822 0.277195
endloop
endfacet
facet normal 0.063385 0.000000 -0.997989
outer loop
vertex 0.107724 0.504604 0.267190
vertex 0.135790 0.502822 0.268973
vertex 0.135790 0.494599 0.268973
endloop
endfacet
facet normal 0.063381 -0.000002 -0.997989
outer loop
vertex 0.135790 0.494599 0.268973
vertex 0.107724 0.492817 0.267190
vertex 0.107724 0.504604 0.267190
endloop
endfacet
facet normal 0.063382 -0.997989 0.000000
outer loop
vertex 0.135790 0.494599 0.268973
vertex 0.135790 0.494599 0.277195
vertex 0.107724 0.492817 0.278977
endloop
endfacet
facet normal 0.063382 -0.997989 -0.000006
outer loop
vertex 0.107724 0.492817 0.278977
vertex 0.107724 0.492817 0.267190
vertex 0.135790 0.494599 0.268973
endloop
endfacet
facet normal 0.063383 0.997989 0.000011
outer loop
vertex 0.107724 0.504604 0.267190
vertex 0.107724 0.504604 0.278977
vertex 0.135790 0.502822 0.277195
endloop
endfacet
facet normal 0.063385 0.997989 0.000000
outer loop
vertex 0.135790 0.502822 0.277195
vertex 0.135790 0.502822 0.268973
vertex 0.107724 0.504604 0.267190
endloop
endfacet
facet normal 0.063382 0.000000 0.997989
outer loop
vertex 0.135790 0.273586 0.049935
vertex 0.107724 0.275368 0.051718
vertex 0.107724 0.263581 0.051718
endloop
endfacet
facet normal 0.063381 0.000004 0.997989
outer loop
vertex 0.107724 0.263581 0.051718
vertex 0.135790 0.265364 0.049935
vertex 0.135790 0.273586 0.049935
endloop
endfacet
facet normal 0.063383 0.000000 -0.997989
outer loop
vertex 0.107724 0.275368 0.039930
vertex 0.135790 0.273586 0.041713
vertex 0.135790 0.265364 0.041713
endloop
endfacet
facet normal 0.063383 0.000000 -0.997989
outer loop
vertex 0.135790 0.265364 0.041713
vertex 0.107724 0.263581 0.039930
vertex 0.107724 0.275368 0.039930
endloop
endfacet
facet normal 0.063382 -0.997989 -0.000008
outer loop
vertex 0.135790 0.265364 0.041713
vertex 0.135790 0.265364 0.049935
vertex 0.107724 0.263581 0.051718
endloop
endfacet
facet normal 0.063383 -0.997989 0.000000
outer loop
vertex 0.107724 0.263581 0.051718
vertex 0.107724 0.263581 0.039930
vertex 0.135790 0.265364 0.041713
endloop
endfacet
facet normal 0.063383 0.997989 0.000000
outer loop
vertex 0.107724 0.275368 0.039930
vertex 0.107724 0.275368 0.051718
vertex 0.135790 0.273586 0.049935
endloop
endfacet
facet normal 0.063382 0.997989 0.000000
outer loop
vertex 0.135790 0.273586 0.049935
vertex 0.135790 0.273586 0.041713
vertex 0.107724 0.275368 0.039930
endloop
endfacet
facet normal 0.000001 -0.707103 -0.707111
outer loop
vertex 0.155769 0.262550 0.037865
vertex 0.143803 0.256403 0.044013
vertex 0.131838 0.262550 0.037865
endloop
endfacet
facet normal 0.000001 -0.707106 -0.707107
outer loop
vertex 0.151199 0.272497 0.027919
vertex 0.155769 0.262550 0.037865
vertex 0.131838 0.262550 0.037865
endloop
endfacet
facet normal 0.000001 -0.707109 -0.707105
outer loop
vertex 0.151199 0.272497 0.027919
vertex 0.131838 0.262550 0.037865
vertex 0.136408 0.272497 0.027919
endloop
endfacet
facet normal 0.000000 0.707106 0.707108
outer loop
vertex 0.156005 0.963713 0.739136
vertex 0.131602 0.963713 0.739136
vertex 0.143804 0.957444 0.745405
endloop
endfacet
facet normal 0.000000 0.707102 0.707111
outer loop
vertex 0.151345 0.973855 0.728994
vertex 0.131602 0.963713 0.739136
vertex 0.156005 0.963713 0.739136
endloop
endfacet
facet normal 0.000000 0.707106 0.707108
outer loop
vertex 0.151345 0.973855 0.728994
vertex 0.136263 0.973855 0.728994
vertex 0.131602 0.963713 0.739136
endloop
endfacet
facet normal 0.574529 -0.409845 0.708479
outer loop
vertex 0.856196 0.829159 0.671195
vertex 0.873378 0.837986 0.662368
vertex 0.868398 0.963713 0.739137
endloop
endfacet
facet normal 0.574532 -0.409838 0.708481
outer loop
vertex 0.868398 0.963713 0.739137
vertex 0.856196 0.957445 0.745405
vertex 0.856196 0.829159 0.671195
endloop
endfacet
facet normal 0.950233 0.188906 -0.247734
outer loop
vertex 0.873378 0.837986 0.662368
vertex 0.866815 0.852269 0.648086
vertex 0.863737 0.973855 0.728994
endloop
endfacet
facet normal 0.950233 0.188906 -0.247731
outer loop
vertex 0.863737 0.973855 0.728994
vertex 0.868398 0.963713 0.739137
vertex 0.873378 0.837986 0.662368
endloop
endfacet
facet normal 0.000000 0.553995 -0.832520
outer loop
vertex 0.866815 0.852269 0.648086
vertex 0.845578 0.852269 0.648086
vertex 0.848655 0.973855 0.728994
endloop
endfacet
facet normal 0.000000 0.553996 -0.832519
outer loop
vertex 0.848655 0.973855 0.728994
vertex 0.863737 0.973855 0.728994
vertex 0.866815 0.852269 0.648086
endloop
endfacet
facet normal -0.574533 -0.409838 0.708481
outer loop
vertex 0.839015 0.837986 0.662368
vertex 0.856196 0.829159 0.671195
vertex 0.856196 0.957445 0.745405
endloop
endfacet
facet normal -0.574527 -0.409849 0.708479
outer loop
vertex 0.856196 0.957445 0.745405
vertex 0.843995 0.963713 0.739137
vertex 0.839015 0.837986 0.662368
endloop
endfacet
facet normal -0.950234 0.188906 -0.247730
outer loop
vertex 0.845578 0.852269 0.648086
vertex 0.839015 0.837986 0.662368
vertex 0.843995 0.963713 0.739137
endloop
endfacet
facet normal -0.950234 0.188899 -0.247736
outer loop
vertex 0.843995 0.963713 0.739137
vertex 0.848655 0.973855 0.728994
vertex 0.845578 0.852269 0.648086
endloop
endfacet
facet normal -0.947543 0.156968 -0.278430
outer loop
vertex 0.845578 0.389344 0.190852
vertex 0.839015 0.375062 0.205134
vertex 0.839015 0.495091 0.272803
endloop
endfacet
facet normal -0.947541 0.156975 -0.278432
outer loop
vertex 0.839015 0.495091 0.272803
vertex 0.845578 0.509373 0.258521
vertex 0.845578 0.389344 0.190852
endloop
endfacet
facet normal -0.948744 0.168685 -0.267264
outer loop
vertex 0.845578 0.619668 0.414347
vertex 0.839015 0.605386 0.428629
vertex 0.839015 0.728830 0.506542
endloop
endfacet
facet normal -0.948742 0.168690 -0.267268
outer loop
vertex 0.839015 0.728830 0.506542
vertex 0.845578 0.743112 0.492260
vertex 0.845578 0.619668 0.414347
endloop
endfacet
facet normal -0.573363 -0.402361 0.713695
outer loop
vertex 0.839015 0.375062 0.205134
vertex 0.856197 0.366235 0.213961
vertex 0.856197 0.486264 0.281630
endloop
endfacet
facet normal -0.573366 -0.402358 0.713695
outer loop
vertex 0.856197 0.486264 0.281630
vertex 0.839015 0.495091 0.272803
vertex 0.839015 0.375062 0.205134
endloop
endfacet
facet normal -0.578191 -0.435479 0.689966
outer loop
vertex 0.839015 0.605386 0.428629
vertex 0.856197 0.596559 0.437456
vertex 0.856196 0.720003 0.515369
endloop
endfacet
facet normal -0.578189 -0.435482 0.689965
outer loop
vertex 0.856196 0.720003 0.515369
vertex 0.839015 0.728830 0.506542
vertex 0.839015 0.605386 0.428629
endloop
endfacet
facet normal 0.000000 0.491099 -0.871104
outer loop
vertex 0.866816 0.389344 0.190852
vertex 0.845578 0.389344 0.190852
vertex 0.845578 0.509373 0.258521
endloop
endfacet
facet normal 0.000000 0.491098 -0.871105
outer loop
vertex 0.845578 0.509373 0.258521
vertex 0.866815 0.509373 0.258521
vertex 0.866816 0.389344 0.190852
endloop
endfacet
facet normal 0.000000 0.533740 -0.845649
outer loop
vertex 0.866815 0.619668 0.414347
vertex 0.845578 0.619668 0.414347
vertex 0.845578 0.743112 0.492260
endloop
endfacet
facet normal 0.000000 0.533739 -0.845650
outer loop
vertex 0.845578 0.743112 0.492260
vertex 0.866815 0.743112 0.492260
vertex 0.866815 0.619668 0.414347
endloop
endfacet
facet normal 0.947542 0.156973 -0.278431
outer loop
vertex 0.873378 0.375062 0.205134
vertex 0.866816 0.389344 0.190852
vertex 0.866815 0.509373 0.258521
endloop
endfacet
facet normal 0.947543 0.156970 -0.278428
outer loop
vertex 0.866815 0.509373 0.258521
vertex 0.873378 0.495091 0.272803
vertex 0.873378 0.375062 0.205134
endloop
endfacet
facet normal 0.948743 0.168690 -0.267264
outer loop
vertex 0.873378 0.605386 0.428629
vertex 0.866815 0.619668 0.414347
vertex 0.866815 0.743112 0.492260
endloop
endfacet
facet normal 0.948743 0.168686 -0.267266
outer loop
vertex 0.866815 0.743112 0.492260
vertex 0.873378 0.728830 0.506542
vertex 0.873378 0.605386 0.428629
endloop
endfacet
facet normal 0.573364 -0.402358 0.713696
outer loop
vertex 0.856197 0.366235 0.213961
vertex 0.873378 0.375062 0.205134
vertex 0.873378 0.495091 0.272803
endloop
endfacet
facet normal 0.573365 -0.402358 0.713695
outer loop
vertex 0.873378 0.495091 0.272803
vertex 0.856197 0.486264 0.281630
vertex 0.856197 0.366235 0.213961
endloop
endfacet
facet normal 0.578189 -0.435482 0.689966
outer loop
vertex 0.856197 0.596559 0.437456
vertex 0.873378 0.605386 0.428629
vertex 0.873378 0.728830 0.506542
endloop
endfacet
facet normal 0.578191 -0.435479 0.689966
outer loop
vertex 0.873378 0.728830 0.506542
vertex 0.856196 0.720003 0.515369
vertex 0.856197 0.596559 0.437456
endloop
endfacet
facet normal -0.946536 0.286332 -0.148607
outer loop
vertex 0.845578 0.743112 0.492260
vertex 0.839015 0.728830 0.506542
vertex 0.839015 0.766903 0.579902
endloop
endfacet
facet normal -0.946535 0.286336 -0.148606
outer loop
vertex 0.839015 0.766903 0.579902
vertex 0.845578 0.781185 0.565619
vertex 0.845578 0.743112 0.492260
endloop
endfacet
facet normal -0.950808 0.234640 -0.202257
outer loop
vertex 0.845578 0.781185 0.565619
vertex 0.839015 0.766903 0.579902
vertex 0.839015 0.837986 0.662368
endloop
endfacet
facet normal -0.950807 0.234647 -0.202256
outer loop
vertex 0.839015 0.837986 0.662368
vertex 0.845578 0.852269 0.648086
vertex 0.845578 0.781185 0.565619
endloop
endfacet
facet normal -0.569398 -0.729647 0.378684
outer loop
vertex 0.839015 0.728830 0.506542
vertex 0.856196 0.720003 0.515369
vertex 0.856196 0.758076 0.588729
endloop
endfacet
facet normal -0.569396 -0.729649 0.378683
outer loop
vertex 0.856196 0.758076 0.588729
vertex 0.839015 0.766903 0.579902
vertex 0.839015 0.728830 0.506542
endloop
endfacet
facet normal -0.586732 -0.613367 0.528703
outer loop
vertex 0.839015 0.766903 0.579902
vertex 0.856196 0.758076 0.588729
vertex 0.856196 0.829159 0.671195
endloop
endfacet
facet normal -0.586732 -0.613366 0.528704
outer loop
vertex 0.856196 0.829159 0.671195
vertex 0.839015 0.837986 0.662368
vertex 0.839015 0.766903 0.579902
endloop
endfacet
facet normal 0.000000 0.887581 -0.460651
outer loop
vertex 0.866815 0.743112 0.492260
vertex 0.845578 0.743112 0.492260
vertex 0.845578 0.781185 0.565619
endloop
endfacet
facet normal 0.000000 0.887582 -0.460650
outer loop
vertex 0.845578 0.781185 0.565619
vertex 0.866815 0.781185 0.565619
vertex 0.866815 0.743112 0.492260
endloop
endfacet
facet normal 0.000000 0.757447 -0.652897
outer loop
vertex 0.866815 0.781185 0.565619
vertex 0.845578 0.781185 0.565619
vertex 0.845578 0.852269 0.648086
endloop
endfacet
facet normal 0.000000 0.757447 -0.652896
outer loop
vertex 0.845578 0.852269 0.648086
vertex 0.866815 0.852269 0.648086
vertex 0.866815 0.781185 0.565619
endloop
endfacet
facet normal 0.946536 0.286332 -0.148605
outer loop
vertex 0.873378 0.728830 0.506542
vertex 0.866815 0.743112 0.492260
vertex 0.866815 0.781185 0.565619
endloop
endfacet
facet normal 0.946536 0.286332 -0.148604
outer loop
vertex 0.866815 0.781185 0.565619
vertex 0.873378 0.766903 0.579902
vertex 0.873378 0.728830 0.506542
endloop
endfacet
facet normal 0.950808 0.234641 -0.202255
outer loop
vertex 0.873378 0.766903 0.579902
vertex 0.866815 0.781185 0.565619
vertex 0.866815 0.852269 0.648086
endloop
endfacet
facet normal 0.950806 0.234647 -0.202258
outer loop
vertex 0.866815 0.852269 0.648086
vertex 0.873378 0.837986 0.662368
vertex 0.873378 0.766903 0.579902
endloop
endfacet
facet normal 0.569398 -0.729647 0.378684
outer loop
vertex 0.856196 0.720003 0.515369
vertex 0.873378 0.728830 0.506542
vertex 0.873378 0.766903 0.579902
endloop
endfacet
facet normal 0.569397 -0.729649 0.378682
outer loop
vertex 0.873378 0.766903 0.579902
vertex 0.856196 0.758076 0.588729
vertex 0.856196 0.720003 0.515369
endloop
endfacet
facet normal 0.586734 -0.613365 0.528703
outer loop
vertex 0.856196 0.758076 0.588729
vertex 0.873378 0.766903 0.579902
vertex 0.873378 0.837986 0.662368
endloop
endfacet
facet normal 0.586729 -0.613367 0.528706
outer loop
vertex 0.873378 0.837986 0.662368
vertex 0.856196 0.829159 0.671195
vertex 0.856196 0.758076 0.588729
endloop
endfacet
facet normal 0.564231 -0.747312 0.350953
outer loop
vertex 0.856197 0.486264 0.281630
vertex 0.873378 0.495091 0.272803
vertex 0.873378 0.526335 0.339333
endloop
endfacet
facet normal 0.564226 -0.747317 0.350951
outer loop
vertex 0.873378 0.526335 0.339333
vertex 0.856197 0.517508 0.348160
vertex 0.856197 0.486264 0.281630
endloop
endfacet
facet normal 0.587072 -0.606143 0.536597
outer loop
vertex 0.856197 0.517508 0.348160
vertex 0.873378 0.526335 0.339333
vertex 0.873378 0.605386 0.428629
endloop
endfacet
facet normal 0.587075 -0.606136 0.536602
outer loop
vertex 0.873378 0.605386 0.428629
vertex 0.856197 0.596559 0.437456
vertex 0.856197 0.517508 0.348160
endloop
endfacet
facet normal 0.945196 0.295538 -0.138786
outer loop
vertex 0.873378 0.495091 0.272803
vertex 0.866815 0.509373 0.258521
vertex 0.866815 0.540617 0.325051
endloop
endfacet
facet normal 0.945197 0.295533 -0.138789
outer loop
vertex 0.866815 0.540617 0.325051
vertex 0.873378 0.526335 0.339333
vertex 0.873378 0.495091 0.272803
endloop
endfacet
facet normal 0.950888 0.231766 -0.205176
outer loop
vertex 0.873378 0.526335 0.339333
vertex 0.866815 0.540617 0.325051
vertex 0.866815 0.619668 0.414347
endloop
endfacet
facet normal 0.950888 0.231767 -0.205175
outer loop
vertex 0.866815 0.619668 0.414347
vertex 0.873378 0.605386 0.428629
vertex 0.873378 0.526335 0.339333
endloop
endfacet
facet normal 0.000000 0.905157 -0.425077
outer loop
vertex 0.866815 0.509373 0.258521
vertex 0.845578 0.509373 0.258521
vertex 0.845578 0.540617 0.325051
endloop
endfacet
facet normal 0.000000 0.905157 -0.425077
outer loop
vertex 0.845578 0.540617 0.325051
vertex 0.866815 0.540617 0.325051
vertex 0.866815 0.509373 0.258521
endloop
endfacet
facet normal 0.000000 0.748751 -0.662852
outer loop
vertex 0.866815 0.540617 0.325051
vertex 0.845578 0.540617 0.325051
vertex 0.845578 0.619668 0.414347
endloop
endfacet
facet normal 0.000000 0.748751 -0.662851
outer loop
vertex 0.845578 0.619668 0.414347
vertex 0.866815 0.619668 0.414347
vertex 0.866815 0.540617 0.325051
endloop
endfacet
facet normal -0.564230 -0.747313 0.350953
outer loop
vertex 0.839015 0.495091 0.272803
vertex 0.856197 0.486264 0.281630
vertex 0.856197 0.517508 0.348160
endloop
endfacet
facet normal -0.564222 -0.747320 0.350950
outer loop
vertex 0.856197 0.517508 0.348160
vertex 0.839015 0.526335 0.339333
vertex 0.839015 0.495091 0.272803
endloop
endfacet
facet normal -0.587069 -0.606143 0.536600
outer loop
vertex 0.839015 0.526335 0.339333
vertex 0.856197 0.517508 0.348160
vertex 0.856197 0.596559 0.437456
endloop
endfacet
facet normal -0.587075 -0.606139 0.536599
outer loop
vertex 0.856197 0.596559 0.437456
vertex 0.839015 0.605386 0.428629
vertex 0.839015 0.526335 0.339333
endloop
endfacet
facet normal -0.945196 0.295538 -0.138789
outer loop
vertex 0.845578 0.509373 0.258521
vertex 0.839015 0.495091 0.272803
vertex 0.839015 0.526335 0.339333
endloop
endfacet
facet normal -0.945199 0.295527 -0.138790
outer loop
vertex 0.839015 0.526335 0.339333
vertex 0.845578 0.540617 0.325051
vertex 0.845578 0.509373 0.258521
endloop
endfacet
facet normal -0.950889 0.231760 -0.205176
outer loop
vertex 0.845578 0.540617 0.325051
vertex 0.839015 0.526335 0.339333
vertex 0.839015 0.605386 0.428629
endloop
endfacet
facet normal -0.950888 0.231767 -0.205174
outer loop
vertex 0.839015 0.605386 0.428629
vertex 0.845578 0.619668 0.414347
vertex 0.845578 0.540617 0.325051
endloop
endfacet
facet normal 0.558025 -0.765239 0.320962
outer loop
vertex 0.856197 0.256403 0.044013
vertex 0.868162 0.262550 0.037865
vertex 0.873378 0.297149 0.111285
endloop
endfacet
facet normal 0.558030 -0.765234 0.320966
outer loop
vertex 0.873378 0.297149 0.111285
vertex 0.856197 0.288322 0.120112
vertex 0.856197 0.256403 0.044013
endloop
endfacet
facet normal 0.586137 -0.623384 0.517529
outer loop
vertex 0.856197 0.288322 0.120112
vertex 0.873378 0.297149 0.111285
vertex 0.873378 0.375062 0.205134
endloop
endfacet
facet normal 0.586138 -0.623380 0.517532
outer loop
vertex 0.873378 0.375062 0.205134
vertex 0.856197 0.366235 0.213961
vertex 0.856197 0.288322 0.120112
endloop
endfacet
facet normal 0.950045 0.250856 -0.185702
outer loop
vertex 0.868162 0.262550 0.037865
vertex 0.863592 0.272497 0.027919
vertex 0.866816 0.311431 0.097003
endloop
endfacet
facet normal 0.950048 0.250846 -0.185702
outer loop
vertex 0.866816 0.311431 0.097003
vertex 0.873378 0.297149 0.111285
vertex 0.868162 0.262550 0.037865
endloop
endfacet
facet normal 0.950666 0.238683 -0.198152
outer loop
vertex 0.873378 0.297149 0.111285
vertex 0.866816 0.311431 0.097003
vertex 0.866816 0.389344 0.190852
endloop
endfacet
facet normal 0.950667 0.238678 -0.198154
outer loop
vertex 0.866816 0.389344 0.190852
vertex 0.873378 0.375062 0.205134
vertex 0.873378 0.297149 0.111285
endloop
endfacet
facet normal 0.000000 0.871174 -0.490975
outer loop
vertex 0.863592 0.272497 0.027919
vertex 0.848802 0.272497 0.027919
vertex 0.845578 0.311431 0.097003
endloop
endfacet
facet normal 0.000000 0.871174 -0.490975
outer loop
vertex 0.845578 0.311431 0.097003
vertex 0.866816 0.311431 0.097003
vertex 0.863592 0.272497 0.027919
endloop
endfacet
facet normal 0.000000 0.769409 -0.638756
outer loop
vertex 0.866816 0.311431 0.097003
vertex 0.845578 0.311431 0.097003
vertex 0.845578 0.389344 0.190852
endloop
endfacet
facet normal 0.000000 0.769407 -0.638759
outer loop
vertex 0.845578 0.389344 0.190852
vertex 0.866816 0.389344 0.190852
vertex 0.866816 0.311431 0.097003
endloop
endfacet
facet normal -0.558025 -0.765239 0.320962
outer loop
vertex 0.844231 0.262550 0.037865
vertex 0.856197 0.256403 0.044013
vertex 0.856197 0.288322 0.120112
endloop
endfacet
facet normal -0.558029 -0.765236 0.320964
outer loop
vertex 0.856197 0.288322 0.120112
vertex 0.839015 0.297149 0.111285
vertex 0.844231 0.262550 0.037865
endloop
endfacet
facet normal -0.586135 -0.623387 0.517527
outer loop
vertex 0.839015 0.297149 0.111285
vertex 0.856197 0.288322 0.120112
vertex 0.856197 0.366235 0.213961
endloop
endfacet
facet normal -0.586138 -0.623380 0.517532
outer loop
vertex 0.856197 0.366235 0.213961
vertex 0.839015 0.375062 0.205134
vertex 0.839015 0.297149 0.111285
endloop
endfacet
facet normal -0.950048 0.250844 -0.185704
outer loop
vertex 0.848802 0.272497 0.027919
vertex 0.844231 0.262550 0.037865
vertex 0.839015 0.297149 0.111285
endloop
endfacet
facet normal -0.950046 0.250850 -0.185705
outer loop
vertex 0.839015 0.297149 0.111285
vertex 0.845578 0.311431 0.097003
vertex 0.848802 0.272497 0.027919
endloop
endfacet
facet normal -0.950667 0.238678 -0.198154
outer loop
vertex 0.845578 0.311431 0.097003
vertex 0.839015 0.297149 0.111285
vertex 0.839015 0.375062 0.205134
endloop
endfacet
facet normal -0.950667 0.238678 -0.198153
outer loop
vertex 0.839015 0.375062 0.205134
vertex 0.845578 0.389344 0.190852
vertex 0.845578 0.311431 0.097003
endloop
endfacet
facet normal -0.063385 0.000000 0.997989
outer loop
vertex 0.864210 0.733595 0.509999
vertex 0.864210 0.725372 0.509999
vertex 0.892276 0.723590 0.511782
endloop
endfacet
facet normal -0.063382 0.000000 0.997989
outer loop
vertex 0.892276 0.723590 0.511782
vertex 0.892276 0.735377 0.511782
vertex 0.864210 0.733595 0.509999
endloop
endfacet
facet normal -0.063384 0.000000 -0.997989
outer loop
vertex 0.892276 0.735377 0.499994
vertex 0.892276 0.723590 0.499994
vertex 0.864210 0.725372 0.501777
endloop
endfacet
facet normal -0.063379 0.000000 -0.997989
outer loop
vertex 0.864210 0.725372 0.501777
vertex 0.864210 0.733595 0.501777
vertex 0.892276 0.735377 0.499994
endloop
endfacet
facet normal -0.063381 -0.997989 0.000000
outer loop
vertex 0.864210 0.725372 0.501777
vertex 0.892276 0.723590 0.499994
vertex 0.892276 0.723590 0.511782
endloop
endfacet
facet normal -0.063383 -0.997989 0.000000
outer loop
vertex 0.892276 0.723590 0.511782
vertex 0.864210 0.725372 0.509999
vertex 0.864210 0.725372 0.501777
endloop
endfacet
facet normal -0.063381 0.997989 0.000016
outer loop
vertex 0.892276 0.735377 0.499994
vertex 0.864210 0.733595 0.501777
vertex 0.864210 0.733595 0.509999
endloop
endfacet
facet normal -0.063385 0.997989 0.000000
outer loop
vertex 0.864210 0.733595 0.509999
vertex 0.892276 0.735377 0.511782
vertex 0.892276 0.735377 0.499994
endloop
endfacet
facet normal -0.063386 0.000008 0.997989
outer loop
vertex 0.864210 0.959317 0.735008
vertex 0.864210 0.951095 0.735008
vertex 0.892276 0.949313 0.736791
endloop
endfacet
facet normal -0.063384 0.000000 0.997989
outer loop
vertex 0.892276 0.949313 0.736791
vertex 0.892276 0.961100 0.736791
vertex 0.864210 0.959317 0.735008
endloop
endfacet
facet normal -0.063378 0.000000 -0.997990
outer loop
vertex 0.892276 0.961100 0.725003
vertex 0.892276 0.949313 0.725003
vertex 0.864210 0.951095 0.726786
endloop
endfacet
facet normal -0.063383 0.000000 -0.997989
outer loop
vertex 0.864210 0.951095 0.726786
vertex 0.864210 0.959318 0.726786
vertex 0.892276 0.961100 0.725003
endloop
endfacet
facet normal -0.063381 -0.997989 0.000000
outer loop
vertex 0.864210 0.951095 0.726786
vertex 0.892276 0.949313 0.725003
vertex 0.892276 0.949313 0.736791
endloop
endfacet
facet normal -0.063381 -0.997989 0.000000
outer loop
vertex 0.892276 0.949313 0.736791
vertex 0.864210 0.951095 0.735008
vertex 0.864210 0.951095 0.726786
endloop
endfacet
facet normal -0.063381 0.997989 0.000000
outer loop
vertex 0.892276 0.961100 0.725003
vertex 0.864210 0.959318 0.726786
vertex 0.864210 0.959317 0.735008
endloop
endfacet
facet normal -0.063385 0.997989 0.000000
outer loop
vertex 0.864210 0.959317 0.735008
vertex 0.892276 0.961100 0.736791
vertex 0.892276 0.961100 0.725003
endloop
endfacet
facet normal -0.063383 0.000000 0.997989
outer loop
vertex 0.864210 0.502822 0.277195
vertex 0.864210 0.494600 0.277195
vertex 0.892276 0.492817 0.278978
endloop
endfacet
facet normal -0.063383 0.000000 0.997989
outer loop
vertex 0.892276 0.492817 0.278978
vertex 0.892276 0.504604 0.278978
vertex 0.864210 0.502822 0.277195
endloop
endfacet
facet normal -0.063381 -0.000002 -0.997989
outer loop
vertex 0.892276 0.504604 0.267190
vertex 0.892276 0.492817 0.267190
vertex 0.864210 0.494600 0.268973
endloop
endfacet
facet normal -0.063384 0.000000 -0.997989
outer loop
vertex 0.864210 0.494600 0.268973
vertex 0.864210 0.502822 0.268973
vertex 0.892276 0.504604 0.267190
endloop
endfacet
facet normal -0.063382 -0.997989 -0.000006
outer loop
vertex 0.864210 0.494600 0.268973
vertex 0.892276 0.492817 0.267190
vertex 0.892276 0.492817 0.278978
endloop
endfacet
facet normal -0.063383 -0.997989 0.000000
outer loop
vertex 0.892276 0.492817 0.278978
vertex 0.864210 0.494600 0.277195
vertex 0.864210 0.494600 0.268973
endloop
endfacet
facet normal -0.063382 0.997989 0.000000
outer loop
vertex 0.892276 0.504604 0.267190
vertex 0.864210 0.502822 0.268973
vertex 0.864210 0.502822 0.277195
endloop
endfacet
facet normal -0.063383 0.997989 0.000000
outer loop
vertex 0.864210 0.502822 0.277195
vertex 0.892276 0.504604 0.278978
vertex 0.892276 0.504604 0.267190
endloop
endfacet
facet normal -0.063382 0.000000 0.997989
outer loop
vertex 0.864210 0.273586 0.049935
vertex 0.864210 0.265364 0.049935
vertex 0.892276 0.263581 0.051718
endloop
endfacet
facet normal -0.063383 0.000000 0.997989
outer loop
vertex 0.892276 0.263581 0.051718
vertex 0.892276 0.275368 0.051718
vertex 0.864210 0.273586 0.049935
endloop
endfacet
facet normal -0.063383 0.000000 -0.997989
outer loop
vertex 0.892276 0.275369 0.039931
vertex 0.892276 0.263581 0.039931
vertex 0.864210 0.265364 0.041713
endloop
endfacet
facet normal -0.063381 -0.000004 -0.997989
outer loop
vertex 0.864210 0.265364 0.041713
vertex 0.864210 0.273586 0.041713
vertex 0.892276 0.275369 0.039931
endloop
endfacet
facet normal -0.063382 -0.997989 0.000000
outer loop
vertex 0.864210 0.265364 0.041713
vertex 0.892276 0.263581 0.039931
vertex 0.892276 0.263581 0.051718
endloop
endfacet
facet normal -0.063383 -0.997989 0.000000
outer loop
vertex 0.892276 0.263581 0.051718
vertex 0.864210 0.265364 0.049935
vertex 0.864210 0.265364 0.041713
endloop
endfacet
facet normal -0.063383 0.997989 0.000004
outer loop
vertex 0.892276 0.275369 0.039931
vertex 0.864210 0.273586 0.041713
vertex 0.864210 0.273586 0.049935
endloop
endfacet
facet normal -0.063383 0.997989 0.000000
outer loop
vertex 0.864210 0.273586 0.049935
vertex 0.892276 0.275368 0.051718
vertex 0.892276 0.275369 0.039931
endloop
endfacet
facet normal 0.000000 -0.707105 -0.707109
outer loop
vertex 0.844231 0.262550 0.037865
vertex 0.868162 0.262550 0.037865
vertex 0.856197 0.256403 0.044013
endloop
endfacet
facet normal 0.000000 -0.707107 -0.707107
outer loop
vertex 0.848802 0.272497 0.027919
vertex 0.868162 0.262550 0.037865
vertex 0.844231 0.262550 0.037865
endloop
endfacet
facet normal 0.000000 -0.707107 -0.707106
outer loop
vertex 0.848802 0.272497 0.027919
vertex 0.863592 0.272497 0.027919
vertex 0.868162 0.262550 0.037865
endloop
endfacet
facet normal 0.000000 0.707109 0.707105
outer loop
vertex 0.843995 0.963713 0.739137
vertex 0.856196 0.957445 0.745405
vertex 0.868398 0.963713 0.739137
endloop
endfacet
facet normal 0.000000 0.707109 0.707104
outer loop
vertex 0.848655 0.973855 0.728994
vertex 0.843995 0.963713 0.739137
vertex 0.868398 0.963713 0.739137
endloop
endfacet
facet normal 0.000000 0.707109 0.707105
outer loop
vertex 0.848655 0.973855 0.728994
vertex 0.868398 0.963713 0.739137
vertex 0.863737 0.973855 0.728994
endloop
endfacet
endsolid Exported from Blender-2.76 (sub 0)
