solid Exported from Blender-2.76 (sub 0)
facet normal -1.000000 -0.000000 0.000000
outer loop
vertex 0.025029 0.842228 0.046140
vertex 0.025029 0.867464 0.033986
vertex 0.025029 0.864005 0.018831
endloop
endfacet
facet normal -1.000000 0.000000 0.000000
outer loop
vertex 0.025029 0.842228 0.046140
vertex 0.025029 0.857772 0.046140
vertex 0.025029 0.867464 0.033986
endloop
endfacet
facet normal -1.000000 0.000000 0.000000
outer loop
vertex 0.025029 0.832535 0.033986
vertex 0.025029 0.842228 0.046140
vertex 0.025029 0.864005 0.018831
endloop
endfacet
facet normal -1.000000 0.000000 0.000000
outer loop
vertex 0.025029 0.832535 0.033986
vertex 0.025029 0.864005 0.018831
vertex 0.025029 0.835994 0.018831
endloop
endfacet
facet normal -1.000000 0.000000 0.000000
outer loop
vertex 0.025029 0.835994 0.018831
vertex 0.025029 0.864005 0.018831
vertex 0.025029 0.850000 0.012086
endloop
endfacet
facet normal -0.000000 0.433883 -0.900969
outer loop
vertex 0.920681 0.850000 0.012086
vertex 0.025029 0.850000 0.012086
vertex 0.025029 0.864005 0.018831
endloop
endfacet
facet normal -0.000000 0.433883 -0.900969
outer loop
vertex 0.025029 0.864005 0.018831
vertex 0.920681 0.864006 0.018831
vertex 0.920681 0.850000 0.012086
endloop
endfacet
facet normal -0.000000 0.974930 -0.222514
outer loop
vertex 0.025029 0.867464 0.033986
vertex 0.920681 0.867465 0.033986
vertex 0.920681 0.864006 0.018831
endloop
endfacet
facet normal -0.000000 0.974928 -0.222522
outer loop
vertex 0.920681 0.864006 0.018831
vertex 0.025029 0.864005 0.018831
vertex 0.025029 0.867464 0.033986
endloop
endfacet
facet normal -0.000000 0.781832 0.623489
outer loop
vertex 0.025029 0.857772 0.046140
vertex 0.920681 0.857773 0.046140
vertex 0.920681 0.867465 0.033986
endloop
endfacet
facet normal -0.000000 0.781832 0.623489
outer loop
vertex 0.920681 0.867465 0.033986
vertex 0.025029 0.867464 0.033986
vertex 0.025029 0.857772 0.046140
endloop
endfacet
facet normal 0.000000 0.000000 1.000000
outer loop
vertex 0.025029 0.842228 0.046140
vertex 0.920681 0.842228 0.046140
vertex 0.920681 0.857773 0.046140
endloop
endfacet
facet normal 0.000000 0.000000 1.000000
outer loop
vertex 0.920681 0.857773 0.046140
vertex 0.025029 0.857772 0.046140
vertex 0.025029 0.842228 0.046140
endloop
endfacet
facet normal 0.000000 -0.781828 0.623494
outer loop
vertex 0.025029 0.832535 0.033986
vertex 0.920681 0.832536 0.033986
vertex 0.920681 0.842228 0.046140
endloop
endfacet
facet normal 0.000000 -0.781837 0.623483
outer loop
vertex 0.920681 0.842228 0.046140
vertex 0.025029 0.842228 0.046140
vertex 0.025029 0.832535 0.033986
endloop
endfacet
facet normal 0.000000 -0.974928 -0.222522
outer loop
vertex 0.025029 0.835994 0.018831
vertex 0.920681 0.835995 0.018831
vertex 0.920681 0.832536 0.033986
endloop
endfacet
facet normal 0.000000 -0.974928 -0.222522
outer loop
vertex 0.920681 0.832536 0.033986
vertex 0.025029 0.832535 0.033986
vertex 0.025029 0.835994 0.018831
endloop
endfacet
facet normal -0.000000 -0.433886 -0.900968
outer loop
vertex 0.025029 0.850000 0.012086
vertex 0.920681 0.850000 0.012086
vertex 0.920681 0.835995 0.018831
endloop
endfacet
facet normal -0.000000 -0.433883 -0.900969
outer loop
vertex 0.920681 0.835995 0.018831
vertex 0.025029 0.835994 0.018831
vertex 0.025029 0.850000 0.012086
endloop
endfacet
facet normal 0.298015 -0.414169 -0.860030
outer loop
vertex 0.920681 0.850000 0.012086
vertex 0.972378 0.850000 0.030000
vertex 0.920681 0.835995 0.018831
endloop
endfacet
facet normal 0.298013 -0.930629 -0.212409
outer loop
vertex 0.920681 0.835995 0.018831
vertex 0.972378 0.850000 0.030000
vertex 0.920681 0.832536 0.033986
endloop
endfacet
facet normal 0.298013 -0.746310 0.595155
outer loop
vertex 0.920681 0.832536 0.033986
vertex 0.972378 0.850000 0.030000
vertex 0.920681 0.842228 0.046140
endloop
endfacet
facet normal 0.298013 0.000000 0.954562
outer loop
vertex 0.920681 0.842228 0.046140
vertex 0.972378 0.850000 0.030000
vertex 0.920681 0.857773 0.046140
endloop
endfacet
facet normal 0.298012 0.746305 0.595162
outer loop
vertex 0.920681 0.857773 0.046140
vertex 0.972378 0.850000 0.030000
vertex 0.920681 0.867465 0.033986
endloop
endfacet
facet normal 0.298012 0.930628 -0.212417
outer loop
vertex 0.920681 0.867465 0.033986
vertex 0.972378 0.850000 0.030000
vertex 0.920681 0.864006 0.018831
endloop
endfacet
facet normal 0.298014 0.414169 -0.860030
outer loop
vertex 0.920681 0.864006 0.018831
vertex 0.972378 0.850000 0.030000
vertex 0.920681 0.850000 0.012086
endloop
endfacet
facet normal -1.000000 0.000000 0.000000
outer loop
vertex 0.025029 0.671075 0.046140
vertex 0.025029 0.696312 0.033986
vertex 0.025029 0.692853 0.018831
endloop
endfacet
facet normal -1.000000 0.000000 0.000000
outer loop
vertex 0.025029 0.671075 0.046140
vertex 0.025029 0.686620 0.046140
vertex 0.025029 0.696312 0.033986
endloop
endfacet
facet normal -1.000000 0.000000 0.000000
outer loop
vertex 0.025029 0.661383 0.033986
vertex 0.025029 0.671075 0.046140
vertex 0.025029 0.692853 0.018831
endloop
endfacet
facet normal -1.000000 0.000000 0.000000
outer loop
vertex 0.025029 0.661383 0.033986
vertex 0.025029 0.692853 0.018831
vertex 0.025029 0.664842 0.018831
endloop
endfacet
facet normal -1.000000 0.000000 0.000000
outer loop
vertex 0.025029 0.664842 0.018831
vertex 0.025029 0.692853 0.018831
vertex 0.025029 0.678848 0.012086
endloop
endfacet
facet normal -0.000000 0.433880 -0.900971
outer loop
vertex 0.025029 0.692853 0.018831
vertex 0.920681 0.692853 0.018831
vertex 0.920681 0.678848 0.012086
endloop
endfacet
facet normal -0.000000 0.433886 -0.900968
outer loop
vertex 0.920681 0.678848 0.012086
vertex 0.025029 0.678848 0.012086
vertex 0.025029 0.692853 0.018831
endloop
endfacet
facet normal -0.000000 0.974930 -0.222514
outer loop
vertex 0.025029 0.696312 0.033986
vertex 0.920681 0.696312 0.033986
vertex 0.920681 0.692853 0.018831
endloop
endfacet
facet normal -0.000000 0.974930 -0.222514
outer loop
vertex 0.920681 0.692853 0.018831
vertex 0.025029 0.692853 0.018831
vertex 0.025029 0.696312 0.033986
endloop
endfacet
facet normal -0.000000 0.781832 0.623489
outer loop
vertex 0.025029 0.686620 0.046140
vertex 0.920681 0.686620 0.046140
vertex 0.920681 0.696312 0.033986
endloop
endfacet
facet normal -0.000000 0.781837 0.623484
outer loop
vertex 0.920681 0.696312 0.033986
vertex 0.025029 0.696312 0.033986
vertex 0.025029 0.686620 0.046140
endloop
endfacet
facet normal 0.000000 0.000000 1.000000
outer loop
vertex 0.025029 0.671075 0.046140
vertex 0.920681 0.671075 0.046140
vertex 0.920681 0.686620 0.046140
endloop
endfacet
facet normal 0.000000 0.000000 1.000000
outer loop
vertex 0.920681 0.686620 0.046140
vertex 0.025029 0.686620 0.046140
vertex 0.025029 0.671075 0.046140
endloop
endfacet
facet normal 0.000000 -0.781832 0.623489
outer loop
vertex 0.025029 0.661383 0.033986
vertex 0.920681 0.661383 0.033986
vertex 0.920681 0.671075 0.046140
endloop
endfacet
facet normal 0.000000 -0.781832 0.623489
outer loop
vertex 0.920681 0.671075 0.046140
vertex 0.025029 0.671075 0.046140
vertex 0.025029 0.661383 0.033986
endloop
endfacet
facet normal 0.000000 -0.974930 -0.222514
outer loop
vertex 0.025029 0.664842 0.018831
vertex 0.920681 0.664842 0.018831
vertex 0.920681 0.661383 0.033986
endloop
endfacet
facet normal 0.000000 -0.974928 -0.222522
outer loop
vertex 0.920681 0.661383 0.033986
vertex 0.025029 0.661383 0.033986
vertex 0.025029 0.664842 0.018831
endloop
endfacet
facet normal -0.000000 -0.433883 -0.900969
outer loop
vertex 0.025029 0.678848 0.012086
vertex 0.920681 0.678848 0.012086
vertex 0.920681 0.664842 0.018831
endloop
endfacet
facet normal -0.000000 -0.433883 -0.900969
outer loop
vertex 0.920681 0.664842 0.018831
vertex 0.025029 0.664842 0.018831
vertex 0.025029 0.678848 0.012086
endloop
endfacet
facet normal 0.298013 -0.414169 -0.860030
outer loop
vertex 0.920681 0.678848 0.012086
vertex 0.972378 0.678848 0.030000
vertex 0.920681 0.664842 0.018831
endloop
endfacet
facet normal 0.298013 -0.930629 -0.212409
outer loop
vertex 0.920681 0.664842 0.018831
vertex 0.972378 0.678848 0.030000
vertex 0.920681 0.661383 0.033986
endloop
endfacet
facet normal 0.298014 -0.746310 0.595155
outer loop
vertex 0.920681 0.661383 0.033986
vertex 0.972378 0.678848 0.030000
vertex 0.920681 0.671075 0.046140
endloop
endfacet
facet normal 0.298013 0.000000 0.954562
outer loop
vertex 0.920681 0.671075 0.046140
vertex 0.972378 0.678848 0.030000
vertex 0.920681 0.686620 0.046140
endloop
endfacet
facet normal 0.298012 0.746305 0.595162
outer loop
vertex 0.920681 0.686620 0.046140
vertex 0.972378 0.678848 0.030000
vertex 0.920681 0.696312 0.033986
endloop
endfacet
facet normal 0.298013 0.930629 -0.212409
outer loop
vertex 0.920681 0.696312 0.033986
vertex 0.972378 0.678848 0.030000
vertex 0.920681 0.692853 0.018831
endloop
endfacet
facet normal 0.298012 0.414166 -0.860032
outer loop
vertex 0.920681 0.692853 0.018831
vertex 0.972378 0.678848 0.030000
vertex 0.920681 0.678848 0.012086
endloop
endfacet
facet normal -1.000000 0.000000 0.000000
outer loop
vertex 0.025029 0.499923 0.046140
vertex 0.025029 0.525160 0.033986
vertex 0.025029 0.521701 0.018831
endloop
endfacet
facet normal -1.000000 0.000000 0.000000
outer loop
vertex 0.025029 0.499923 0.046140
vertex 0.025029 0.515468 0.046140
vertex 0.025029 0.525160 0.033986
endloop
endfacet
facet normal -1.000000 0.000000 0.000000
outer loop
vertex 0.025029 0.490231 0.033986
vertex 0.025029 0.499923 0.046140
vertex 0.025029 0.521701 0.018831
endloop
endfacet
facet normal -1.000000 0.000000 0.000000
outer loop
vertex 0.025029 0.490231 0.033986
vertex 0.025029 0.521701 0.018831
vertex 0.025029 0.493690 0.018831
endloop
endfacet
facet normal -1.000000 0.000000 0.000000
outer loop
vertex 0.025029 0.493690 0.018831
vertex 0.025029 0.521701 0.018831
vertex 0.025029 0.507695 0.012086
endloop
endfacet
facet normal -0.000000 0.433885 -0.900968
outer loop
vertex 0.025029 0.521701 0.018831
vertex 0.920681 0.521701 0.018831
vertex 0.920681 0.507695 0.012086
endloop
endfacet
facet normal -0.000000 0.433885 -0.900968
outer loop
vertex 0.920681 0.507695 0.012086
vertex 0.025029 0.507695 0.012086
vertex 0.025029 0.521701 0.018831
endloop
endfacet
facet normal -0.000000 0.974928 -0.222522
outer loop
vertex 0.025029 0.525160 0.033986
vertex 0.920681 0.525160 0.033986
vertex 0.920681 0.521701 0.018831
endloop
endfacet
facet normal -0.000000 0.974928 -0.222522
outer loop
vertex 0.920681 0.521701 0.018831
vertex 0.025029 0.521701 0.018831
vertex 0.025029 0.525160 0.033986
endloop
endfacet
facet normal -0.000000 0.781837 0.623483
outer loop
vertex 0.025029 0.515468 0.046140
vertex 0.920681 0.515468 0.046140
vertex 0.920681 0.525160 0.033986
endloop
endfacet
facet normal -0.000000 0.781828 0.623494
outer loop
vertex 0.920681 0.525160 0.033986
vertex 0.025029 0.525160 0.033986
vertex 0.025029 0.515468 0.046140
endloop
endfacet
facet normal 0.000000 0.000000 1.000000
outer loop
vertex 0.025029 0.499923 0.046140
vertex 0.920681 0.499923 0.046140
vertex 0.920681 0.515468 0.046140
endloop
endfacet
facet normal 0.000000 0.000000 1.000000
outer loop
vertex 0.920681 0.515468 0.046140
vertex 0.025029 0.515468 0.046140
vertex 0.025029 0.499923 0.046140
endloop
endfacet
facet normal 0.000000 -0.781830 0.623491
outer loop
vertex 0.025029 0.490231 0.033986
vertex 0.920681 0.490231 0.033986
vertex 0.920681 0.499923 0.046140
endloop
endfacet
facet normal 0.000000 -0.781832 0.623489
outer loop
vertex 0.920681 0.499923 0.046140
vertex 0.025029 0.499923 0.046140
vertex 0.025029 0.490231 0.033986
endloop
endfacet
facet normal 0.000000 -0.974928 -0.222522
outer loop
vertex 0.025029 0.493690 0.018831
vertex 0.920681 0.493690 0.018831
vertex 0.920681 0.490231 0.033986
endloop
endfacet
facet normal 0.000000 -0.974928 -0.222522
outer loop
vertex 0.920681 0.490231 0.033986
vertex 0.025029 0.490231 0.033986
vertex 0.025029 0.493690 0.018831
endloop
endfacet
facet normal -0.000000 -0.433881 -0.900970
outer loop
vertex 0.025029 0.507695 0.012086
vertex 0.920681 0.507695 0.012086
vertex 0.920681 0.493690 0.018831
endloop
endfacet
facet normal -0.000000 -0.433883 -0.900969
outer loop
vertex 0.920681 0.493690 0.018831
vertex 0.025029 0.493690 0.018831
vertex 0.025029 0.507695 0.012086
endloop
endfacet
facet normal 0.298012 -0.414166 -0.860032
outer loop
vertex 0.920681 0.507695 0.012086
vertex 0.972378 0.507695 0.030000
vertex 0.920681 0.493690 0.018831
endloop
endfacet
facet normal 0.298014 -0.930630 -0.212405
outer loop
vertex 0.920681 0.493690 0.018831
vertex 0.972378 0.507695 0.030000
vertex 0.920681 0.490231 0.033986
endloop
endfacet
facet normal 0.298013 -0.746307 0.595158
outer loop
vertex 0.920681 0.490231 0.033986
vertex 0.972378 0.507695 0.030000
vertex 0.920681 0.499923 0.046140
endloop
endfacet
facet normal 0.298014 0.000000 0.954562
outer loop
vertex 0.920681 0.499923 0.046140
vertex 0.972378 0.507695 0.030000
vertex 0.920681 0.515468 0.046140
endloop
endfacet
facet normal 0.298012 0.746305 0.595162
outer loop
vertex 0.920681 0.515468 0.046140
vertex 0.972378 0.507695 0.030000
vertex 0.920681 0.525160 0.033986
endloop
endfacet
facet normal 0.298013 0.930630 -0.212405
outer loop
vertex 0.920681 0.525160 0.033986
vertex 0.972378 0.507695 0.030000
vertex 0.920681 0.521701 0.018831
endloop
endfacet
facet normal 0.298011 0.414164 -0.860033
outer loop
vertex 0.920681 0.521701 0.018831
vertex 0.972378 0.507695 0.030000
vertex 0.920681 0.507695 0.012086
endloop
endfacet
facet normal -1.000000 0.000000 0.000000
outer loop
vertex 0.025029 0.328770 0.046140
vertex 0.025029 0.354007 0.033986
vertex 0.025029 0.350548 0.018831
endloop
endfacet
facet normal -1.000000 0.000000 0.000000
outer loop
vertex 0.025029 0.328770 0.046140
vertex 0.025029 0.344315 0.046140
vertex 0.025029 0.354007 0.033986
endloop
endfacet
facet normal -1.000000 0.000000 0.000000
outer loop
vertex 0.025029 0.319078 0.033986
vertex 0.025029 0.328770 0.046140
vertex 0.025029 0.350548 0.018831
endloop
endfacet
facet normal -1.000000 0.000000 0.000000
outer loop
vertex 0.025029 0.319078 0.033986
vertex 0.025029 0.350548 0.018831
vertex 0.025029 0.322538 0.018831
endloop
endfacet
facet normal -1.000000 0.000000 0.000000
outer loop
vertex 0.025029 0.322538 0.018831
vertex 0.025029 0.350548 0.018831
vertex 0.025029 0.336543 0.012086
endloop
endfacet
facet normal -0.000000 0.433885 -0.900968
outer loop
vertex 0.025029 0.350548 0.018831
vertex 0.920681 0.350549 0.018831
vertex 0.920681 0.336543 0.012086
endloop
endfacet
facet normal -0.000000 0.433883 -0.900969
outer loop
vertex 0.920681 0.336543 0.012086
vertex 0.025029 0.336543 0.012086
vertex 0.025029 0.350548 0.018831
endloop
endfacet
facet normal -0.000000 0.974929 -0.222518
outer loop
vertex 0.025029 0.354007 0.033986
vertex 0.920681 0.354008 0.033986
vertex 0.920681 0.350549 0.018831
endloop
endfacet
facet normal -0.000000 0.974928 -0.222522
outer loop
vertex 0.920681 0.350549 0.018831
vertex 0.025029 0.350548 0.018831
vertex 0.025029 0.354007 0.033986
endloop
endfacet
facet normal -0.000000 0.781832 0.623489
outer loop
vertex 0.025029 0.344315 0.046140
vertex 0.920681 0.344316 0.046140
vertex 0.920681 0.354008 0.033986
endloop
endfacet
facet normal -0.000000 0.781832 0.623489
outer loop
vertex 0.920681 0.354008 0.033986
vertex 0.025029 0.354007 0.033986
vertex 0.025029 0.344315 0.046140
endloop
endfacet
facet normal 0.000000 0.000000 1.000000
outer loop
vertex 0.025029 0.328770 0.046140
vertex 0.920681 0.328771 0.046140
vertex 0.920681 0.344316 0.046140
endloop
endfacet
facet normal 0.000000 0.000000 1.000000
outer loop
vertex 0.920681 0.344316 0.046140
vertex 0.025029 0.344315 0.046140
vertex 0.025029 0.328770 0.046140
endloop
endfacet
facet normal 0.000000 -0.781832 0.623489
outer loop
vertex 0.025029 0.319078 0.033986
vertex 0.920681 0.319079 0.033986
vertex 0.920681 0.328771 0.046140
endloop
endfacet
facet normal 0.000000 -0.781832 0.623489
outer loop
vertex 0.920681 0.328771 0.046140
vertex 0.025029 0.328770 0.046140
vertex 0.025029 0.319078 0.033986
endloop
endfacet
facet normal 0.000000 -0.974929 -0.222518
outer loop
vertex 0.025029 0.322538 0.018831
vertex 0.920681 0.322538 0.018831
vertex 0.920681 0.319079 0.033986
endloop
endfacet
facet normal 0.000000 -0.974928 -0.222522
outer loop
vertex 0.920681 0.319079 0.033986
vertex 0.025029 0.319078 0.033986
vertex 0.025029 0.322538 0.018831
endloop
endfacet
facet normal -0.000000 -0.433883 -0.900969
outer loop
vertex 0.025029 0.336543 0.012086
vertex 0.920681 0.336543 0.012086
vertex 0.920681 0.322538 0.018831
endloop
endfacet
facet normal -0.000000 -0.433883 -0.900969
outer loop
vertex 0.920681 0.322538 0.018831
vertex 0.025029 0.322538 0.018831
vertex 0.025029 0.336543 0.012086
endloop
endfacet
facet normal 0.298014 -0.414167 -0.860031
outer loop
vertex 0.920681 0.336543 0.012086
vertex 0.972378 0.336543 0.030000
vertex 0.920681 0.322538 0.018831
endloop
endfacet
facet normal 0.298013 -0.930629 -0.212409
outer loop
vertex 0.920681 0.322538 0.018831
vertex 0.972378 0.336543 0.030000
vertex 0.920681 0.319079 0.033986
endloop
endfacet
facet normal 0.298013 -0.746308 0.595158
outer loop
vertex 0.920681 0.319079 0.033986
vertex 0.972378 0.336543 0.030000
vertex 0.920681 0.328771 0.046140
endloop
endfacet
facet normal 0.298013 0.000000 0.954562
outer loop
vertex 0.920681 0.328771 0.046140
vertex 0.972378 0.336543 0.030000
vertex 0.920681 0.344316 0.046140
endloop
endfacet
facet normal 0.298013 0.746308 0.595158
outer loop
vertex 0.920681 0.344316 0.046140
vertex 0.972378 0.336543 0.030000
vertex 0.920681 0.354008 0.033986
endloop
endfacet
facet normal 0.298013 0.930630 -0.212405
outer loop
vertex 0.920681 0.354008 0.033986
vertex 0.972378 0.336543 0.030000
vertex 0.920681 0.350549 0.018831
endloop
endfacet
facet normal 0.298012 0.414166 -0.860032
outer loop
vertex 0.920681 0.350549 0.018831
vertex 0.972378 0.336543 0.030000
vertex 0.920681 0.336543 0.012086
endloop
endfacet
facet normal -1.000000 0.000000 0.000000
outer loop
vertex 0.025029 0.157618 0.046140
vertex 0.025029 0.182855 0.033986
vertex 0.025029 0.179396 0.018831
endloop
endfacet
facet normal -1.000000 0.000000 0.000000
outer loop
vertex 0.025029 0.157618 0.046140
vertex 0.025029 0.173163 0.046140
vertex 0.025029 0.182855 0.033986
endloop
endfacet
facet normal -1.000000 0.000000 0.000000
outer loop
vertex 0.025029 0.147926 0.033986
vertex 0.025029 0.157618 0.046140
vertex 0.025029 0.179396 0.018831
endloop
endfacet
facet normal -1.000000 0.000000 0.000000
outer loop
vertex 0.025029 0.147926 0.033986
vertex 0.025029 0.179396 0.018831
vertex 0.025029 0.151385 0.018831
endloop
endfacet
facet normal -1.000000 0.000000 0.000000
outer loop
vertex 0.025029 0.151385 0.018831
vertex 0.025029 0.179396 0.018831
vertex 0.025029 0.165391 0.012086
endloop
endfacet
facet normal -0.000000 0.433885 -0.900968
outer loop
vertex 0.025029 0.179396 0.018831
vertex 0.920681 0.179396 0.018831
vertex 0.920681 0.165391 0.012086
endloop
endfacet
facet normal -0.000000 0.433886 -0.900968
outer loop
vertex 0.920681 0.165391 0.012086
vertex 0.025029 0.165391 0.012086
vertex 0.025029 0.179396 0.018831
endloop
endfacet
facet normal -0.000000 0.974927 -0.222524
outer loop
vertex 0.025029 0.182855 0.033986
vertex 0.920681 0.182855 0.033986
vertex 0.920681 0.179396 0.018831
endloop
endfacet
facet normal -0.000000 0.974927 -0.222524
outer loop
vertex 0.920681 0.179396 0.018831
vertex 0.025029 0.179396 0.018831
vertex 0.025029 0.182855 0.033986
endloop
endfacet
facet normal -0.000000 0.781832 0.623489
outer loop
vertex 0.025029 0.173163 0.046140
vertex 0.920681 0.173163 0.046140
vertex 0.920681 0.182855 0.033986
endloop
endfacet
facet normal -0.000000 0.781830 0.623491
outer loop
vertex 0.920681 0.182855 0.033986
vertex 0.025029 0.182855 0.033986
vertex 0.025029 0.173163 0.046140
endloop
endfacet
facet normal 0.000000 0.000000 1.000000
outer loop
vertex 0.025029 0.157618 0.046140
vertex 0.920681 0.157618 0.046140
vertex 0.920681 0.173163 0.046140
endloop
endfacet
facet normal 0.000000 0.000000 1.000000
outer loop
vertex 0.920681 0.173163 0.046140
vertex 0.025029 0.173163 0.046140
vertex 0.025029 0.157618 0.046140
endloop
endfacet
facet normal 0.000000 -0.781830 0.623491
outer loop
vertex 0.025029 0.147926 0.033986
vertex 0.920681 0.147926 0.033986
vertex 0.920681 0.157618 0.046140
endloop
endfacet
facet normal 0.000000 -0.781832 0.623489
outer loop
vertex 0.920681 0.157618 0.046140
vertex 0.025029 0.157618 0.046140
vertex 0.025029 0.147926 0.033986
endloop
endfacet
facet normal 0.000000 -0.974927 -0.222524
outer loop
vertex 0.025029 0.151385 0.018831
vertex 0.920681 0.151385 0.018831
vertex 0.920681 0.147926 0.033986
endloop
endfacet
facet normal 0.000000 -0.974927 -0.222524
outer loop
vertex 0.920681 0.147926 0.033986
vertex 0.025029 0.147926 0.033986
vertex 0.025029 0.151385 0.018831
endloop
endfacet
facet normal -0.000000 -0.433885 -0.900968
outer loop
vertex 0.025029 0.165391 0.012086
vertex 0.920681 0.165391 0.012086
vertex 0.920681 0.151385 0.018831
endloop
endfacet
facet normal -0.000000 -0.433885 -0.900968
outer loop
vertex 0.920681 0.151385 0.018831
vertex 0.025029 0.151385 0.018831
vertex 0.025029 0.165391 0.012086
endloop
endfacet
facet normal 0.298013 -0.414171 -0.860030
outer loop
vertex 0.920681 0.165391 0.012086
vertex 0.972378 0.165391 0.030000
vertex 0.920681 0.151385 0.018831
endloop
endfacet
facet normal 0.298013 -0.930628 -0.212414
outer loop
vertex 0.920681 0.151385 0.018831
vertex 0.972378 0.165391 0.030000
vertex 0.920681 0.147926 0.033986
endloop
endfacet
facet normal 0.298013 -0.746306 0.595161
outer loop
vertex 0.920681 0.147926 0.033986
vertex 0.972378 0.165391 0.030000
vertex 0.920681 0.157618 0.046140
endloop
endfacet
facet normal 0.298013 0.000000 0.954562
outer loop
vertex 0.920681 0.157618 0.046140
vertex 0.972378 0.165391 0.030000
vertex 0.920681 0.173163 0.046140
endloop
endfacet
facet normal 0.298013 0.746306 0.595160
outer loop
vertex 0.920681 0.173163 0.046140
vertex 0.972378 0.165391 0.030000
vertex 0.920681 0.182855 0.033986
endloop
endfacet
facet normal 0.298013 0.930629 -0.212412
outer loop
vertex 0.920681 0.182855 0.033986
vertex 0.972378 0.165391 0.030000
vertex 0.920681 0.179396 0.018831
endloop
endfacet
facet normal 0.298013 0.414168 -0.860031
outer loop
vertex 0.920681 0.179396 0.018831
vertex 0.972378 0.165391 0.030000
vertex 0.920681 0.165391 0.012086
endloop
endfacet
facet normal 0.000000 -1.000000 0.000000
outer loop
vertex 0.022228 0.061325 0.046140
vertex 0.012535 0.061325 0.033986
vertex 0.037772 0.061325 0.046140
endloop
endfacet
facet normal -0.433884 -0.000000 -0.900969
outer loop
vertex 0.015995 0.061325 0.018831
vertex 0.015995 0.934346 0.018831
vertex 0.030000 0.934346 0.012086
endloop
endfacet
facet normal -0.433884 -0.000000 -0.900969
outer loop
vertex 0.030000 0.934346 0.012086
vertex 0.030000 0.061325 0.012086
vertex 0.015995 0.061325 0.018831
endloop
endfacet
facet normal -0.974928 -0.000000 -0.222521
outer loop
vertex 0.012535 0.061325 0.033986
vertex 0.012535 0.934346 0.033986
vertex 0.015995 0.934346 0.018831
endloop
endfacet
facet normal -0.974928 -0.000000 -0.222521
outer loop
vertex 0.015995 0.934346 0.018831
vertex 0.015995 0.061325 0.018831
vertex 0.012535 0.061325 0.033986
endloop
endfacet
facet normal -0.781832 0.000000 0.623490
outer loop
vertex 0.022228 0.061325 0.046140
vertex 0.022228 0.934346 0.046140
vertex 0.012535 0.934346 0.033986
endloop
endfacet
facet normal -0.781831 0.000000 0.623490
outer loop
vertex 0.012535 0.934346 0.033986
vertex 0.012535 0.061325 0.033986
vertex 0.022228 0.061325 0.046140
endloop
endfacet
facet normal 0.000000 0.000000 1.000000
outer loop
vertex 0.037772 0.061325 0.046140
vertex 0.037772 0.934346 0.046140
vertex 0.022228 0.934346 0.046140
endloop
endfacet
facet normal 0.000000 0.000000 1.000000
outer loop
vertex 0.022228 0.934346 0.046140
vertex 0.022228 0.061325 0.046140
vertex 0.037772 0.061325 0.046140
endloop
endfacet
facet normal 0.781831 0.000000 0.623490
outer loop
vertex 0.047465 0.061325 0.033986
vertex 0.047465 0.934346 0.033986
vertex 0.037772 0.934346 0.046140
endloop
endfacet
facet normal 0.781832 0.000000 0.623490
outer loop
vertex 0.037772 0.934346 0.046140
vertex 0.037772 0.061325 0.046140
vertex 0.047465 0.061325 0.033986
endloop
endfacet
facet normal 0.974928 -0.000000 -0.222521
outer loop
vertex 0.044005 0.061325 0.018831
vertex 0.044005 0.934346 0.018831
vertex 0.047465 0.934346 0.033986
endloop
endfacet
facet normal 0.974928 -0.000000 -0.222521
outer loop
vertex 0.047465 0.934346 0.033986
vertex 0.047465 0.061325 0.033986
vertex 0.044005 0.061325 0.018831
endloop
endfacet
facet normal 0.433884 -0.000000 -0.900969
outer loop
vertex 0.030000 0.061325 0.012086
vertex 0.030000 0.934346 0.012086
vertex 0.044005 0.934346 0.018831
endloop
endfacet
facet normal 0.433884 -0.000000 -0.900969
outer loop
vertex 0.044005 0.934346 0.018831
vertex 0.044005 0.061325 0.018831
vertex 0.030000 0.061325 0.012086
endloop
endfacet
facet normal 0.000000 -1.000000 0.000000
outer loop
vertex 0.015995 0.061325 0.018831
vertex 0.030000 0.061325 0.012086
vertex 0.044005 0.061325 0.018831
endloop
endfacet
facet normal 0.000000 1.000000 0.000000
outer loop
vertex 0.022228 0.934346 0.046140
vertex 0.037772 0.934346 0.046140
vertex 0.012535 0.934346 0.033986
endloop
endfacet
facet normal 0.000000 1.000000 -0.000009
outer loop
vertex 0.012535 0.934346 0.033986
vertex 0.037772 0.934346 0.046140
vertex 0.047465 0.934346 0.033986
endloop
endfacet
facet normal 0.000000 1.000000 0.000004
outer loop
vertex 0.012535 0.934346 0.033986
vertex 0.047465 0.934346 0.033986
vertex 0.044005 0.934346 0.018831
endloop
endfacet
facet normal 0.000000 1.000000 0.000000
outer loop
vertex 0.012535 0.934346 0.033986
vertex 0.044005 0.934346 0.018831
vertex 0.015995 0.934346 0.018831
endloop
endfacet
facet normal 0.000000 1.000000 0.000000
outer loop
vertex 0.015995 0.934346 0.018831
vertex 0.044005 0.934346 0.018831
vertex 0.030000 0.934346 0.012086
endloop
endfacet
facet normal 0.000000 -1.000000 0.000001
outer loop
vertex 0.012535 0.061325 0.033986
vertex 0.015995 0.061325 0.018831
vertex 0.044005 0.061325 0.018831
endloop
endfacet
facet normal 0.000000 -1.000000 0.000000
outer loop
vertex 0.012535 0.061325 0.033986
vertex 0.044005 0.061325 0.018831
vertex 0.047465 0.061325 0.033986
endloop
endfacet
facet normal 0.000000 -1.000000 -0.000001
outer loop
vertex 0.012535 0.061325 0.033986
vertex 0.047465 0.061325 0.033986
vertex 0.037772 0.061325 0.046140
endloop
endfacet
facet normal -0.731416 -0.353285 0.583284
outer loop
vertex 0.190674 0.018586 0.030000
vertex 0.182901 0.061325 0.046140
vertex 0.173209 0.061325 0.033986
endloop
endfacet
facet normal 0.000000 -0.353286 0.935515
outer loop
vertex 0.190674 0.018586 0.030000
vertex 0.198446 0.061325 0.046140
vertex 0.182901 0.061325 0.046140
endloop
endfacet
facet normal 0.731415 -0.353286 0.583285
outer loop
vertex 0.190674 0.018586 0.030000
vertex 0.208138 0.061325 0.033986
vertex 0.198446 0.061325 0.046140
endloop
endfacet
facet normal 0.912060 -0.353285 -0.208173
outer loop
vertex 0.190674 0.018586 0.030000
vertex 0.204679 0.061325 0.018831
vertex 0.208138 0.061325 0.033986
endloop
endfacet
facet normal 0.405905 -0.353286 -0.842870
outer loop
vertex 0.190674 0.018586 0.030000
vertex 0.190674 0.061325 0.012086
vertex 0.204679 0.061325 0.018831
endloop
endfacet
facet normal -0.433884 -0.000000 -0.900969
outer loop
vertex 0.176668 0.061325 0.018831
vertex 0.176668 0.934346 0.018831
vertex 0.190674 0.934346 0.012086
endloop
endfacet
facet normal -0.433884 -0.000000 -0.900969
outer loop
vertex 0.190674 0.934346 0.012086
vertex 0.190674 0.061325 0.012086
vertex 0.176668 0.061325 0.018831
endloop
endfacet
facet normal -0.974928 0.000000 -0.222520
outer loop
vertex 0.173209 0.061325 0.033986
vertex 0.173209 0.934346 0.033986
vertex 0.176668 0.934346 0.018831
endloop
endfacet
facet normal -0.974928 0.000000 -0.222520
outer loop
vertex 0.176668 0.934346 0.018831
vertex 0.176668 0.061325 0.018831
vertex 0.173209 0.061325 0.033986
endloop
endfacet
facet normal -0.781832 0.000000 0.623489
outer loop
vertex 0.182901 0.061325 0.046140
vertex 0.182901 0.934346 0.046140
vertex 0.173209 0.934346 0.033986
endloop
endfacet
facet normal -0.781832 0.000000 0.623489
outer loop
vertex 0.173209 0.934346 0.033986
vertex 0.173209 0.061325 0.033986
vertex 0.182901 0.061325 0.046140
endloop
endfacet
facet normal 0.000000 0.000000 1.000000
outer loop
vertex 0.198446 0.061325 0.046140
vertex 0.198446 0.934346 0.046140
vertex 0.182901 0.934346 0.046140
endloop
endfacet
facet normal 0.000000 0.000000 1.000000
outer loop
vertex 0.182901 0.934346 0.046140
vertex 0.182901 0.061325 0.046140
vertex 0.198446 0.061325 0.046140
endloop
endfacet
facet normal 0.781831 0.000000 0.623490
outer loop
vertex 0.208138 0.061325 0.033986
vertex 0.208138 0.934346 0.033986
vertex 0.198446 0.934346 0.046140
endloop
endfacet
facet normal 0.781831 0.000000 0.623490
outer loop
vertex 0.198446 0.934346 0.046140
vertex 0.198446 0.061325 0.046140
vertex 0.208138 0.061325 0.033986
endloop
endfacet
facet normal 0.974928 0.000000 -0.222522
outer loop
vertex 0.204679 0.061325 0.018831
vertex 0.204679 0.934346 0.018831
vertex 0.208138 0.934346 0.033986
endloop
endfacet
facet normal 0.974928 -0.000000 -0.222522
outer loop
vertex 0.208138 0.934346 0.033986
vertex 0.208138 0.061325 0.033986
vertex 0.204679 0.061325 0.018831
endloop
endfacet
facet normal 0.433884 -0.000000 -0.900969
outer loop
vertex 0.190674 0.061325 0.012086
vertex 0.190674 0.934346 0.012086
vertex 0.204679 0.934346 0.018831
endloop
endfacet
facet normal 0.433884 -0.000000 -0.900969
outer loop
vertex 0.204679 0.934346 0.018831
vertex 0.204679 0.061325 0.018831
vertex 0.190674 0.061325 0.012086
endloop
endfacet
facet normal 0.414808 0.293255 -0.861357
outer loop
vertex 0.190674 0.934346 0.012086
vertex 0.190674 0.986963 0.030000
vertex 0.204679 0.934346 0.018831
endloop
endfacet
facet normal 0.932063 0.293255 -0.212741
outer loop
vertex 0.204679 0.934346 0.018831
vertex 0.190674 0.986963 0.030000
vertex 0.208138 0.934346 0.033986
endloop
endfacet
facet normal 0.747456 0.293256 0.596079
outer loop
vertex 0.208138 0.934346 0.033986
vertex 0.190674 0.986963 0.030000
vertex 0.198446 0.934346 0.046140
endloop
endfacet
facet normal 0.000000 0.293256 0.956034
outer loop
vertex 0.198446 0.934346 0.046140
vertex 0.190674 0.986963 0.030000
vertex 0.182901 0.934346 0.046140
endloop
endfacet
facet normal -0.747459 0.293256 0.596075
outer loop
vertex 0.182901 0.934346 0.046140
vertex 0.190674 0.986963 0.030000
vertex 0.173209 0.934346 0.033986
endloop
endfacet
facet normal -0.932065 0.293256 -0.212735
outer loop
vertex 0.173209 0.934346 0.033986
vertex 0.190674 0.986963 0.030000
vertex 0.176668 0.934346 0.018831
endloop
endfacet
facet normal -0.414808 0.293255 -0.861357
outer loop
vertex 0.176668 0.934346 0.018831
vertex 0.190674 0.986963 0.030000
vertex 0.190674 0.934346 0.012086
endloop
endfacet
facet normal -0.912060 -0.353286 -0.208171
outer loop
vertex 0.190674 0.018586 0.030000
vertex 0.173209 0.061325 0.033986
vertex 0.176668 0.061325 0.018831
endloop
endfacet
facet normal -0.405905 -0.353286 -0.842870
outer loop
vertex 0.190674 0.018586 0.030000
vertex 0.176668 0.061325 0.018831
vertex 0.190674 0.061325 0.012086
endloop
endfacet
facet normal -0.731416 -0.353285 0.583284
outer loop
vertex 0.351347 0.018586 0.030000
vertex 0.343575 0.061325 0.046140
vertex 0.333883 0.061325 0.033986
endloop
endfacet
facet normal 0.000000 -0.353286 0.935515
outer loop
vertex 0.351347 0.018586 0.030000
vertex 0.359120 0.061325 0.046140
vertex 0.343575 0.061325 0.046140
endloop
endfacet
facet normal 0.731416 -0.353286 0.583284
outer loop
vertex 0.351347 0.018586 0.030000
vertex 0.368812 0.061325 0.033986
vertex 0.359120 0.061325 0.046140
endloop
endfacet
facet normal 0.912060 -0.353286 -0.208170
outer loop
vertex 0.351347 0.018586 0.030000
vertex 0.365353 0.061325 0.018831
vertex 0.368812 0.061325 0.033986
endloop
endfacet
facet normal 0.405905 -0.353286 -0.842870
outer loop
vertex 0.351347 0.018586 0.030000
vertex 0.351347 0.061325 0.012086
vertex 0.365353 0.061325 0.018831
endloop
endfacet
facet normal -0.433884 -0.000000 -0.900969
outer loop
vertex 0.337342 0.061325 0.018831
vertex 0.337342 0.934346 0.018831
vertex 0.351347 0.934346 0.012086
endloop
endfacet
facet normal -0.433884 0.000000 -0.900969
outer loop
vertex 0.351347 0.934346 0.012086
vertex 0.351347 0.061325 0.012086
vertex 0.337342 0.061325 0.018831
endloop
endfacet
facet normal -0.974928 0.000000 -0.222521
outer loop
vertex 0.333883 0.061325 0.033986
vertex 0.333883 0.934346 0.033986
vertex 0.337342 0.934346 0.018831
endloop
endfacet
facet normal -0.974928 -0.000000 -0.222521
outer loop
vertex 0.337342 0.934346 0.018831
vertex 0.337342 0.061325 0.018831
vertex 0.333883 0.061325 0.033986
endloop
endfacet
facet normal -0.781832 0.000000 0.623489
outer loop
vertex 0.343575 0.061325 0.046140
vertex 0.343575 0.934346 0.046140
vertex 0.333883 0.934346 0.033986
endloop
endfacet
facet normal -0.781831 0.000000 0.623490
outer loop
vertex 0.333883 0.934346 0.033986
vertex 0.333883 0.061325 0.033986
vertex 0.343575 0.061325 0.046140
endloop
endfacet
facet normal 0.000000 0.000000 1.000000
outer loop
vertex 0.359120 0.061325 0.046140
vertex 0.359120 0.934346 0.046140
vertex 0.343575 0.934346 0.046140
endloop
endfacet
facet normal 0.000000 0.000000 1.000000
outer loop
vertex 0.343575 0.934346 0.046140
vertex 0.343575 0.061325 0.046140
vertex 0.359120 0.061325 0.046140
endloop
endfacet
facet normal 0.781831 0.000000 0.623490
outer loop
vertex 0.368812 0.061325 0.033986
vertex 0.368812 0.934346 0.033986
vertex 0.359120 0.934346 0.046140
endloop
endfacet
facet normal 0.781832 0.000000 0.623489
outer loop
vertex 0.359120 0.934346 0.046140
vertex 0.359120 0.061325 0.046140
vertex 0.368812 0.061325 0.033986
endloop
endfacet
facet normal 0.974928 0.000000 -0.222519
outer loop
vertex 0.365353 0.061325 0.018831
vertex 0.365353 0.934346 0.018831
vertex 0.368812 0.934346 0.033986
endloop
endfacet
facet normal 0.974928 0.000000 -0.222519
outer loop
vertex 0.368812 0.934346 0.033986
vertex 0.368812 0.061325 0.033986
vertex 0.365353 0.061325 0.018831
endloop
endfacet
facet normal 0.433883 -0.000000 -0.900969
outer loop
vertex 0.351347 0.061325 0.012086
vertex 0.351347 0.934346 0.012086
vertex 0.365353 0.934346 0.018831
endloop
endfacet
facet normal 0.433883 0.000000 -0.900969
outer loop
vertex 0.365353 0.934346 0.018831
vertex 0.365353 0.061325 0.018831
vertex 0.351347 0.061325 0.012086
endloop
endfacet
facet normal 0.414807 0.293256 -0.861357
outer loop
vertex 0.351347 0.934346 0.012086
vertex 0.351347 0.986963 0.030000
vertex 0.365353 0.934346 0.018831
endloop
endfacet
facet normal 0.932064 0.293256 -0.212737
outer loop
vertex 0.365353 0.934346 0.018831
vertex 0.351347 0.986963 0.030000
vertex 0.368812 0.934346 0.033986
endloop
endfacet
facet normal 0.747458 0.293255 0.596078
outer loop
vertex 0.368812 0.934346 0.033986
vertex 0.351347 0.986963 0.030000
vertex 0.359120 0.934346 0.046140
endloop
endfacet
facet normal 0.000000 0.293257 0.956034
outer loop
vertex 0.359120 0.934346 0.046140
vertex 0.351347 0.986963 0.030000
vertex 0.343575 0.934346 0.046140
endloop
endfacet
facet normal -0.747457 0.293255 0.596078
outer loop
vertex 0.343575 0.934346 0.046140
vertex 0.351347 0.986963 0.030000
vertex 0.333883 0.934346 0.033986
endloop
endfacet
facet normal -0.932065 0.293255 -0.212737
outer loop
vertex 0.333883 0.934346 0.033986
vertex 0.351347 0.986963 0.030000
vertex 0.337342 0.934346 0.018831
endloop
endfacet
facet normal -0.414808 0.293256 -0.861357
outer loop
vertex 0.337342 0.934346 0.018831
vertex 0.351347 0.986963 0.030000
vertex 0.351347 0.934346 0.012086
endloop
endfacet
facet normal -0.912060 -0.353285 -0.208172
outer loop
vertex 0.351347 0.018586 0.030000
vertex 0.333883 0.061325 0.033986
vertex 0.337342 0.061325 0.018831
endloop
endfacet
facet normal -0.405905 -0.353285 -0.842870
outer loop
vertex 0.351347 0.018586 0.030000
vertex 0.337342 0.061325 0.018831
vertex 0.351347 0.061325 0.012086
endloop
endfacet
facet normal -0.731416 -0.353286 0.583283
outer loop
vertex 0.512021 0.018586 0.030000
vertex 0.504248 0.061325 0.046140
vertex 0.494556 0.061325 0.033986
endloop
endfacet
facet normal 0.000000 -0.353286 0.935515
outer loop
vertex 0.512021 0.018586 0.030000
vertex 0.519793 0.061325 0.046140
vertex 0.504248 0.061325 0.046140
endloop
endfacet
facet normal 0.731416 -0.353286 0.583284
outer loop
vertex 0.512021 0.018586 0.030000
vertex 0.529485 0.061325 0.033986
vertex 0.519793 0.061325 0.046140
endloop
endfacet
facet normal 0.912061 -0.353284 -0.208170
outer loop
vertex 0.512021 0.018586 0.030000
vertex 0.526026 0.061325 0.018831
vertex 0.529485 0.061325 0.033986
endloop
endfacet
facet normal 0.405904 -0.353288 -0.842870
outer loop
vertex 0.512021 0.018586 0.030000
vertex 0.512021 0.061325 0.012086
vertex 0.526026 0.061325 0.018831
endloop
endfacet
facet normal -0.433885 -0.000000 -0.900968
outer loop
vertex 0.498015 0.061325 0.018831
vertex 0.498015 0.934346 0.018831
vertex 0.512021 0.934346 0.012086
endloop
endfacet
facet normal -0.433885 -0.000000 -0.900968
outer loop
vertex 0.512021 0.934346 0.012086
vertex 0.512021 0.061325 0.012086
vertex 0.498015 0.061325 0.018831
endloop
endfacet
facet normal -0.974928 0.000000 -0.222521
outer loop
vertex 0.494556 0.061325 0.033986
vertex 0.494556 0.934346 0.033986
vertex 0.498015 0.934346 0.018831
endloop
endfacet
facet normal -0.974928 -0.000000 -0.222521
outer loop
vertex 0.498015 0.934346 0.018831
vertex 0.498015 0.061325 0.018831
vertex 0.494556 0.061325 0.033986
endloop
endfacet
facet normal -0.781833 0.000000 0.623488
outer loop
vertex 0.504248 0.061325 0.046140
vertex 0.504248 0.934346 0.046140
vertex 0.494556 0.934346 0.033986
endloop
endfacet
facet normal -0.781832 0.000000 0.623489
outer loop
vertex 0.494556 0.934346 0.033986
vertex 0.494556 0.061325 0.033986
vertex 0.504248 0.061325 0.046140
endloop
endfacet
facet normal 0.000000 0.000000 1.000000
outer loop
vertex 0.519793 0.061325 0.046140
vertex 0.519793 0.934346 0.046140
vertex 0.504248 0.934346 0.046140
endloop
endfacet
facet normal 0.000000 0.000000 1.000000
outer loop
vertex 0.504248 0.934346 0.046140
vertex 0.504248 0.061325 0.046140
vertex 0.519793 0.061325 0.046140
endloop
endfacet
facet normal 0.781831 0.000000 0.623490
outer loop
vertex 0.529485 0.061325 0.033986
vertex 0.529485 0.934346 0.033986
vertex 0.519793 0.934346 0.046140
endloop
endfacet
facet normal 0.781832 0.000000 0.623489
outer loop
vertex 0.519793 0.934346 0.046140
vertex 0.519793 0.061325 0.046140
vertex 0.529485 0.061325 0.033986
endloop
endfacet
facet normal 0.974928 0.000000 -0.222519
outer loop
vertex 0.526026 0.061325 0.018831
vertex 0.526026 0.934346 0.018831
vertex 0.529485 0.934346 0.033986
endloop
endfacet
facet normal 0.974928 0.000000 -0.222519
outer loop
vertex 0.529485 0.934346 0.033986
vertex 0.529485 0.061325 0.033986
vertex 0.526026 0.061325 0.018831
endloop
endfacet
facet normal 0.433883 -0.000000 -0.900969
outer loop
vertex 0.512021 0.061325 0.012086
vertex 0.512021 0.934346 0.012086
vertex 0.526026 0.934346 0.018831
endloop
endfacet
facet normal 0.433883 -0.000000 -0.900969
outer loop
vertex 0.526026 0.934346 0.018831
vertex 0.526026 0.061325 0.018831
vertex 0.512021 0.061325 0.012086
endloop
endfacet
facet normal 0.414807 0.293256 -0.861357
outer loop
vertex 0.512021 0.934346 0.012086
vertex 0.512021 0.986963 0.030000
vertex 0.526026 0.934346 0.018831
endloop
endfacet
facet normal 0.932065 0.293255 -0.212737
outer loop
vertex 0.526026 0.934346 0.018831
vertex 0.512021 0.986963 0.030000
vertex 0.529485 0.934346 0.033986
endloop
endfacet
facet normal 0.747457 0.293256 0.596078
outer loop
vertex 0.529485 0.934346 0.033986
vertex 0.512021 0.986963 0.030000
vertex 0.519793 0.934346 0.046140
endloop
endfacet
facet normal 0.000000 0.293256 0.956034
outer loop
vertex 0.519793 0.934346 0.046140
vertex 0.512021 0.986963 0.030000
vertex 0.504248 0.934346 0.046140
endloop
endfacet
facet normal -0.747457 0.293255 0.596078
outer loop
vertex 0.504248 0.934346 0.046140
vertex 0.512021 0.986963 0.030000
vertex 0.494556 0.934346 0.033986
endloop
endfacet
facet normal -0.932064 0.293255 -0.212739
outer loop
vertex 0.494556 0.934346 0.033986
vertex 0.512021 0.986963 0.030000
vertex 0.498015 0.934346 0.018831
endloop
endfacet
facet normal -0.414809 0.293254 -0.861357
outer loop
vertex 0.498015 0.934346 0.018831
vertex 0.512021 0.986963 0.030000
vertex 0.512021 0.934346 0.012086
endloop
endfacet
facet normal -0.912060 -0.353286 -0.208172
outer loop
vertex 0.512021 0.018586 0.030000
vertex 0.494556 0.061325 0.033986
vertex 0.498015 0.061325 0.018831
endloop
endfacet
facet normal -0.405906 -0.353285 -0.842870
outer loop
vertex 0.512021 0.018586 0.030000
vertex 0.498015 0.061325 0.018831
vertex 0.512021 0.061325 0.012086
endloop
endfacet
facet normal -0.731414 -0.353285 0.583286
outer loop
vertex 0.672694 0.018586 0.030000
vertex 0.664922 0.061325 0.046140
vertex 0.655230 0.061325 0.033986
endloop
endfacet
facet normal 0.000000 -0.353285 0.935516
outer loop
vertex 0.672694 0.018586 0.030000
vertex 0.680467 0.061325 0.046140
vertex 0.664922 0.061325 0.046140
endloop
endfacet
facet normal 0.731414 -0.353285 0.583286
outer loop
vertex 0.672694 0.018586 0.030000
vertex 0.690159 0.061325 0.033986
vertex 0.680467 0.061325 0.046140
endloop
endfacet
facet normal 0.912059 -0.353286 -0.208177
outer loop
vertex 0.672694 0.018586 0.030000
vertex 0.686700 0.061325 0.018831
vertex 0.690159 0.061325 0.033986
endloop
endfacet
facet normal 0.405906 -0.353285 -0.842870
outer loop
vertex 0.672694 0.018586 0.030000
vertex 0.672694 0.061325 0.012086
vertex 0.686700 0.061325 0.018831
endloop
endfacet
facet normal -0.433885 -0.000000 -0.900968
outer loop
vertex 0.658689 0.061325 0.018831
vertex 0.658689 0.934346 0.018831
vertex 0.672694 0.934346 0.012086
endloop
endfacet
facet normal -0.433885 0.000000 -0.900968
outer loop
vertex 0.672694 0.934346 0.012086
vertex 0.672694 0.061325 0.012086
vertex 0.658689 0.061325 0.018831
endloop
endfacet
facet normal -0.974927 -0.000000 -0.222523
outer loop
vertex 0.655230 0.061325 0.033986
vertex 0.655230 0.934346 0.033986
vertex 0.658689 0.934346 0.018831
endloop
endfacet
facet normal -0.974927 0.000000 -0.222523
outer loop
vertex 0.658689 0.934346 0.018831
vertex 0.658689 0.061325 0.018831
vertex 0.655230 0.061325 0.033986
endloop
endfacet
facet normal -0.781830 0.000000 0.623492
outer loop
vertex 0.664922 0.061325 0.046140
vertex 0.664922 0.934346 0.046140
vertex 0.655230 0.934346 0.033986
endloop
endfacet
facet normal -0.781830 0.000000 0.623492
outer loop
vertex 0.655230 0.934346 0.033986
vertex 0.655230 0.061325 0.033986
vertex 0.664922 0.061325 0.046140
endloop
endfacet
facet normal 0.000000 0.000000 1.000000
outer loop
vertex 0.680467 0.061325 0.046140
vertex 0.680467 0.934346 0.046140
vertex 0.664922 0.934346 0.046140
endloop
endfacet
facet normal 0.000000 0.000000 1.000000
outer loop
vertex 0.664922 0.934346 0.046140
vertex 0.664922 0.061325 0.046140
vertex 0.680467 0.061325 0.046140
endloop
endfacet
facet normal 0.781830 0.000000 0.623492
outer loop
vertex 0.690159 0.061325 0.033986
vertex 0.690159 0.934346 0.033986
vertex 0.680467 0.934346 0.046140
endloop
endfacet
facet normal 0.781830 0.000000 0.623492
outer loop
vertex 0.680467 0.934346 0.046140
vertex 0.680467 0.061325 0.046140
vertex 0.690159 0.061325 0.033986
endloop
endfacet
facet normal 0.974927 -0.000000 -0.222527
outer loop
vertex 0.686700 0.061325 0.018831
vertex 0.686700 0.934346 0.018831
vertex 0.690159 0.934346 0.033986
endloop
endfacet
facet normal 0.974927 0.000000 -0.222527
outer loop
vertex 0.690159 0.934346 0.033986
vertex 0.690159 0.061325 0.033986
vertex 0.686700 0.061325 0.018831
endloop
endfacet
facet normal 0.433885 0.000000 -0.900968
outer loop
vertex 0.672694 0.061325 0.012086
vertex 0.672694 0.934346 0.012086
vertex 0.686700 0.934346 0.018831
endloop
endfacet
facet normal 0.433885 -0.000000 -0.900968
outer loop
vertex 0.686700 0.934346 0.018831
vertex 0.686700 0.061325 0.018831
vertex 0.672694 0.061325 0.012086
endloop
endfacet
facet normal 0.414809 0.293255 -0.861356
outer loop
vertex 0.672694 0.934346 0.012086
vertex 0.672694 0.986963 0.030000
vertex 0.686700 0.934346 0.018831
endloop
endfacet
facet normal 0.932063 0.293255 -0.212745
outer loop
vertex 0.686700 0.934346 0.018831
vertex 0.672694 0.986963 0.030000
vertex 0.690159 0.934346 0.033986
endloop
endfacet
facet normal 0.747455 0.293255 0.596081
outer loop
vertex 0.690159 0.934346 0.033986
vertex 0.672694 0.986963 0.030000
vertex 0.680467 0.934346 0.046140
endloop
endfacet
facet normal 0.000000 0.293255 0.956034
outer loop
vertex 0.680467 0.934346 0.046140
vertex 0.672694 0.986963 0.030000
vertex 0.664922 0.934346 0.046140
endloop
endfacet
facet normal -0.747455 0.293256 0.596081
outer loop
vertex 0.664922 0.934346 0.046140
vertex 0.672694 0.986963 0.030000
vertex 0.655230 0.934346 0.033986
endloop
endfacet
facet normal -0.932064 0.293256 -0.212739
outer loop
vertex 0.655230 0.934346 0.033986
vertex 0.672694 0.986963 0.030000
vertex 0.658689 0.934346 0.018831
endloop
endfacet
facet normal -0.414809 0.293256 -0.861356
outer loop
vertex 0.658689 0.934346 0.018831
vertex 0.672694 0.986963 0.030000
vertex 0.672694 0.934346 0.012086
endloop
endfacet
facet normal -0.912060 -0.353286 -0.208174
outer loop
vertex 0.672694 0.018586 0.030000
vertex 0.655230 0.061325 0.033986
vertex 0.658689 0.061325 0.018831
endloop
endfacet
facet normal -0.405906 -0.353287 -0.842870
outer loop
vertex 0.672694 0.018586 0.030000
vertex 0.658689 0.061325 0.018831
vertex 0.672694 0.061325 0.012086
endloop
endfacet
facet normal -0.731413 -0.353288 0.583286
outer loop
vertex 0.833368 0.018586 0.030000
vertex 0.825596 0.061325 0.046140
vertex 0.815903 0.061325 0.033986
endloop
endfacet
facet normal 0.000000 -0.353285 0.935516
outer loop
vertex 0.833368 0.018586 0.030000
vertex 0.841140 0.061325 0.046140
vertex 0.825596 0.061325 0.046140
endloop
endfacet
facet normal 0.731414 -0.353285 0.583286
outer loop
vertex 0.833368 0.018586 0.030000
vertex 0.850833 0.061325 0.033986
vertex 0.841140 0.061325 0.046140
endloop
endfacet
facet normal 0.912059 -0.353286 -0.208177
outer loop
vertex 0.833368 0.018586 0.030000
vertex 0.847373 0.061325 0.018831
vertex 0.850833 0.061325 0.033986
endloop
endfacet
facet normal 0.405906 -0.353285 -0.842870
outer loop
vertex 0.833368 0.018586 0.030000
vertex 0.833368 0.061325 0.012086
vertex 0.847373 0.061325 0.018831
endloop
endfacet
facet normal -0.433885 0.000000 -0.900968
outer loop
vertex 0.819363 0.061325 0.018831
vertex 0.819363 0.934346 0.018831
vertex 0.833368 0.934346 0.012086
endloop
endfacet
facet normal -0.433885 -0.000000 -0.900968
outer loop
vertex 0.833368 0.934346 0.012086
vertex 0.833368 0.061325 0.012086
vertex 0.819363 0.061325 0.018831
endloop
endfacet
facet normal -0.974927 0.000000 -0.222523
outer loop
vertex 0.815903 0.061325 0.033986
vertex 0.815903 0.934346 0.033986
vertex 0.819363 0.934346 0.018831
endloop
endfacet
facet normal -0.974927 0.000000 -0.222523
outer loop
vertex 0.819363 0.934346 0.018831
vertex 0.819363 0.061325 0.018831
vertex 0.815903 0.061325 0.033986
endloop
endfacet
facet normal -0.781830 0.000000 0.623492
outer loop
vertex 0.825596 0.061325 0.046140
vertex 0.825596 0.934346 0.046140
vertex 0.815903 0.934346 0.033986
endloop
endfacet
facet normal -0.781830 0.000000 0.623492
outer loop
vertex 0.815903 0.934346 0.033986
vertex 0.815903 0.061325 0.033986
vertex 0.825596 0.061325 0.046140
endloop
endfacet
facet normal 0.000000 0.000000 1.000000
outer loop
vertex 0.841140 0.061325 0.046140
vertex 0.841140 0.934346 0.046140
vertex 0.825596 0.934346 0.046140
endloop
endfacet
facet normal 0.000000 0.000000 1.000000
outer loop
vertex 0.825596 0.934346 0.046140
vertex 0.825596 0.061325 0.046140
vertex 0.841140 0.061325 0.046140
endloop
endfacet
facet normal 0.781830 0.000000 0.623492
outer loop
vertex 0.850833 0.061325 0.033986
vertex 0.850833 0.934346 0.033986
vertex 0.841140 0.934346 0.046140
endloop
endfacet
facet normal 0.781830 0.000000 0.623492
outer loop
vertex 0.841140 0.934346 0.046140
vertex 0.841140 0.061325 0.046140
vertex 0.850833 0.061325 0.033986
endloop
endfacet
facet normal 0.974927 0.000000 -0.222527
outer loop
vertex 0.847373 0.061325 0.018831
vertex 0.847373 0.934346 0.018831
vertex 0.850833 0.934346 0.033986
endloop
endfacet
facet normal 0.974927 0.000000 -0.222527
outer loop
vertex 0.850833 0.934346 0.033986
vertex 0.850833 0.061325 0.033986
vertex 0.847373 0.061325 0.018831
endloop
endfacet
facet normal 0.433885 -0.000000 -0.900968
outer loop
vertex 0.833368 0.061325 0.012086
vertex 0.833368 0.934346 0.012086
vertex 0.847373 0.934346 0.018831
endloop
endfacet
facet normal 0.433885 0.000000 -0.900968
outer loop
vertex 0.847373 0.934346 0.018831
vertex 0.847373 0.061325 0.018831
vertex 0.833368 0.061325 0.012086
endloop
endfacet
facet normal 0.414809 0.293254 -0.861357
outer loop
vertex 0.833368 0.934346 0.012086
vertex 0.833368 0.986963 0.030000
vertex 0.847373 0.934346 0.018831
endloop
endfacet
facet normal 0.932062 0.293256 -0.212745
outer loop
vertex 0.847373 0.934346 0.018831
vertex 0.833368 0.986963 0.030000
vertex 0.850833 0.934346 0.033986
endloop
endfacet
facet normal 0.747455 0.293255 0.596081
outer loop
vertex 0.850833 0.934346 0.033986
vertex 0.833368 0.986963 0.030000
vertex 0.841140 0.934346 0.046140
endloop
endfacet
facet normal 0.000000 0.293255 0.956034
outer loop
vertex 0.841140 0.934346 0.046140
vertex 0.833368 0.986963 0.030000
vertex 0.825596 0.934346 0.046140
endloop
endfacet
facet normal -0.747455 0.293257 0.596080
outer loop
vertex 0.825596 0.934346 0.046140
vertex 0.833368 0.986963 0.030000
vertex 0.815903 0.934346 0.033986
endloop
endfacet
facet normal -0.932064 0.293256 -0.212739
outer loop
vertex 0.815903 0.934346 0.033986
vertex 0.833368 0.986963 0.030000
vertex 0.819363 0.934346 0.018831
endloop
endfacet
facet normal -0.414809 0.293254 -0.861357
outer loop
vertex 0.819363 0.934346 0.018831
vertex 0.833368 0.986963 0.030000
vertex 0.833368 0.934346 0.012086
endloop
endfacet
facet normal -0.912060 -0.353286 -0.208174
outer loop
vertex 0.833368 0.018586 0.030000
vertex 0.815903 0.061325 0.033986
vertex 0.819363 0.061325 0.018831
endloop
endfacet
facet normal -0.405906 -0.353285 -0.842870
outer loop
vertex 0.833368 0.018586 0.030000
vertex 0.819363 0.061325 0.018831
vertex 0.833368 0.061325 0.012086
endloop
endfacet
facet normal -0.997456 0.071284 0.000000
outer loop
vertex 0.024579 0.929596 0.035447
vertex 0.025689 0.945134 0.034553
vertex 0.025689 0.945134 0.023673
endloop
endfacet
facet normal -0.997456 0.071284 0.000000
outer loop
vertex 0.025689 0.945134 0.023673
vertex 0.024579 0.929596 0.022779
vertex 0.024579 0.929596 0.035447
endloop
endfacet
facet normal 0.000000 0.027986 -0.999608
outer loop
vertex 0.034311 0.945134 0.023673
vertex 0.025689 0.945134 0.023673
vertex 0.025689 0.959553 0.024076
endloop
endfacet
facet normal 0.000000 0.027986 -0.999608
outer loop
vertex 0.025689 0.959553 0.024076
vertex 0.034311 0.959553 0.024076
vertex 0.034311 0.945134 0.023673
endloop
endfacet
facet normal 0.997456 0.071284 0.000000
outer loop
vertex 0.034311 0.945134 0.034553
vertex 0.035421 0.929596 0.035447
vertex 0.035421 0.929596 0.022779
endloop
endfacet
facet normal 0.997456 0.071285 0.000000
outer loop
vertex 0.035421 0.929596 0.022779
vertex 0.034311 0.945134 0.023673
vertex 0.034311 0.945134 0.034553
endloop
endfacet
facet normal 0.997456 0.071285 0.000000
outer loop
vertex 0.024579 0.066075 0.035447
vertex 0.025689 0.050537 0.034553
vertex 0.025689 0.050537 0.023673
endloop
endfacet
facet normal 0.997456 0.071284 0.000000
outer loop
vertex 0.025689 0.050537 0.023673
vertex 0.024579 0.066075 0.022779
vertex 0.024579 0.066075 0.035447
endloop
endfacet
facet normal 0.000000 0.057421 -0.998350
outer loop
vertex 0.024579 0.929596 0.022779
vertex 0.025689 0.945134 0.023673
vertex 0.034311 0.945134 0.023673
endloop
endfacet
facet normal 0.000000 0.057422 -0.998350
outer loop
vertex 0.034311 0.945134 0.023673
vertex 0.035421 0.929596 0.022779
vertex 0.024579 0.929596 0.022779
endloop
endfacet
facet normal 0.000000 0.057422 0.998350
outer loop
vertex 0.035421 0.929596 0.035447
vertex 0.034311 0.945134 0.034553
vertex 0.025689 0.945134 0.034553
endloop
endfacet
facet normal 0.000000 0.057422 0.998350
outer loop
vertex 0.025689 0.945134 0.034553
vertex 0.024579 0.929596 0.035447
vertex 0.035421 0.929596 0.035447
endloop
endfacet
facet normal 0.000000 0.101043 -0.994882
outer loop
vertex 0.034311 0.959553 0.024076
vertex 0.025689 0.959553 0.024076
vertex 0.024713 0.969952 0.025132
endloop
endfacet
facet normal -0.056772 0.048877 -0.997190
outer loop
vertex 0.024713 0.969952 0.025132
vertex 0.035287 0.969952 0.024530
vertex 0.034311 0.959553 0.024076
endloop
endfacet
facet normal 0.000000 0.027986 0.999608
outer loop
vertex 0.025689 0.945134 0.034553
vertex 0.034311 0.945134 0.034553
vertex 0.034311 0.959553 0.034150
endloop
endfacet
facet normal 0.000000 0.027986 0.999608
outer loop
vertex 0.034311 0.959553 0.034150
vertex 0.025689 0.959553 0.034150
vertex 0.025689 0.945134 0.034553
endloop
endfacet
facet normal -1.000000 0.000000 0.000000
outer loop
vertex 0.025689 0.945134 0.023673
vertex 0.025689 0.945134 0.034553
vertex 0.025689 0.959553 0.034150
endloop
endfacet
facet normal -1.000000 0.000000 0.000000
outer loop
vertex 0.025689 0.959553 0.034150
vertex 0.025689 0.959553 0.024076
vertex 0.025689 0.945134 0.023673
endloop
endfacet
facet normal 1.000000 -0.000000 0.000000
outer loop
vertex 0.034311 0.945134 0.034553
vertex 0.034311 0.945134 0.023673
vertex 0.034311 0.959553 0.024076
endloop
endfacet
facet normal 1.000000 0.000000 0.000000
outer loop
vertex 0.034311 0.959553 0.024076
vertex 0.034311 0.959553 0.034150
vertex 0.034311 0.945134 0.034553
endloop
endfacet
facet normal 0.000000 1.000000 0.000000
outer loop
vertex 0.024713 0.969952 0.033093
vertex 0.035287 0.969952 0.033696
vertex 0.035287 0.969952 0.024530
endloop
endfacet
facet normal 0.000000 1.000000 0.000000
outer loop
vertex 0.035287 0.969952 0.024530
vertex 0.024713 0.969952 0.025132
vertex 0.024713 0.969952 0.033093
endloop
endfacet
facet normal 0.000000 0.043626 0.999048
outer loop
vertex 0.025689 0.959553 0.034150
vertex 0.034311 0.959553 0.034150
vertex 0.035287 0.969952 0.033696
endloop
endfacet
facet normal -0.056579 0.095622 0.993809
outer loop
vertex 0.035287 0.969952 0.033696
vertex 0.024713 0.969952 0.033093
vertex 0.025689 0.959553 0.034150
endloop
endfacet
facet normal 0.995619 -0.093503 0.000000
outer loop
vertex 0.034311 0.959553 0.034150
vertex 0.034311 0.959553 0.024076
vertex 0.035287 0.969952 0.024530
endloop
endfacet
facet normal 0.995619 -0.093504 0.000000
outer loop
vertex 0.035287 0.969952 0.024530
vertex 0.035287 0.969952 0.033696
vertex 0.034311 0.959553 0.034150
endloop
endfacet
facet normal 0.000000 -1.000000 0.000000
outer loop
vertex 0.007946 0.951525 0.024519
vertex 0.007946 0.951525 0.033707
vertex 0.002972 0.951525 0.033707
endloop
endfacet
facet normal 0.000000 -1.000000 0.000000
outer loop
vertex 0.002972 0.951525 0.033707
vertex 0.002972 0.951525 0.024519
vertex 0.007946 0.951525 0.024519
endloop
endfacet
facet normal 0.000000 1.000000 0.000000
outer loop
vertex 0.007946 0.977979 0.033707
vertex 0.007946 0.977979 0.024519
vertex 0.002972 0.977979 0.024519
endloop
endfacet
facet normal 0.000000 1.000000 0.000000
outer loop
vertex 0.002972 0.977979 0.024519
vertex 0.002972 0.977979 0.033707
vertex 0.007946 0.977979 0.033707
endloop
endfacet
facet normal 1.000000 0.000000 0.000000
outer loop
vertex 0.007946 0.960688 0.031261
vertex 0.007946 0.968816 0.031261
vertex 0.007946 0.977979 0.033707
endloop
endfacet
facet normal 1.000000 0.000000 0.000000
outer loop
vertex 0.007946 0.977979 0.033707
vertex 0.007946 0.951525 0.033707
vertex 0.007946 0.960688 0.031261
endloop
endfacet
facet normal 1.000000 -0.000000 0.000000
outer loop
vertex 0.007946 0.960688 0.026965
vertex 0.007946 0.960688 0.031261
vertex 0.007946 0.951525 0.033707
endloop
endfacet
facet normal 1.000000 0.000000 0.000000
outer loop
vertex 0.007946 0.951525 0.033707
vertex 0.007946 0.951525 0.024519
vertex 0.007946 0.960688 0.026965
endloop
endfacet
facet normal -0.114208 0.089760 0.989394
outer loop
vertex 0.025689 0.959553 0.034150
vertex 0.024713 0.969952 0.033093
vertex 0.007946 0.968816 0.031261
endloop
endfacet
facet normal -0.160683 0.000000 0.987006
outer loop
vertex 0.007946 0.968816 0.031261
vertex 0.007946 0.960688 0.031261
vertex 0.025689 0.959553 0.034150
endloop
endfacet
facet normal 0.000000 0.000000 1.000000
outer loop
vertex 0.007946 0.951525 0.033707
vertex 0.007946 0.977979 0.033707
vertex 0.002972 0.977979 0.033707
endloop
endfacet
facet normal 0.000000 0.000000 1.000000
outer loop
vertex 0.002972 0.977979 0.033707
vertex 0.002972 0.951525 0.033707
vertex 0.007946 0.951525 0.033707
endloop
endfacet
facet normal 1.000000 0.000000 0.000000
outer loop
vertex 0.007946 0.968816 0.031261
vertex 0.007946 0.968816 0.026965
vertex 0.007946 0.977979 0.024519
endloop
endfacet
facet normal 1.000000 -0.000000 0.000000
outer loop
vertex 0.007946 0.977979 0.024519
vertex 0.007946 0.977979 0.033707
vertex 0.007946 0.968816 0.031261
endloop
endfacet
facet normal 0.000000 0.000000 -1.000000
outer loop
vertex 0.007946 0.977979 0.024519
vertex 0.007946 0.951525 0.024519
vertex 0.002972 0.951525 0.024519
endloop
endfacet
facet normal 0.000000 0.000000 -1.000000
outer loop
vertex 0.002972 0.951525 0.024519
vertex 0.002972 0.977979 0.024519
vertex 0.007946 0.977979 0.024519
endloop
endfacet
facet normal -0.154767 0.085428 -0.984251
outer loop
vertex 0.024713 0.969952 0.025132
vertex 0.025689 0.959553 0.024076
vertex 0.007946 0.960688 0.026965
endloop
endfacet
facet normal -0.108644 0.000000 -0.994081
outer loop
vertex 0.007946 0.960688 0.026965
vertex 0.007946 0.968816 0.026965
vertex 0.024713 0.969952 0.025132
endloop
endfacet
facet normal -0.067552 0.997716 0.000000
outer loop
vertex 0.024713 0.969952 0.033093
vertex 0.024713 0.969952 0.025132
vertex 0.007946 0.968816 0.026965
endloop
endfacet
facet normal -0.067552 0.997716 0.000000
outer loop
vertex 0.007946 0.968816 0.026965
vertex 0.007946 0.968816 0.031261
vertex 0.024713 0.969952 0.033093
endloop
endfacet
facet normal -0.063849 -0.997960 0.000000
outer loop
vertex 0.025689 0.959553 0.024076
vertex 0.025689 0.959553 0.034150
vertex 0.007946 0.960688 0.031261
endloop
endfacet
facet normal -0.063849 -0.997959 0.000000
outer loop
vertex 0.007946 0.960688 0.031261
vertex 0.007946 0.960688 0.026965
vertex 0.025689 0.959553 0.024076
endloop
endfacet
facet normal 1.000000 0.000000 0.000000
outer loop
vertex 0.007946 0.968816 0.026965
vertex 0.007946 0.960688 0.026965
vertex 0.007946 0.951525 0.024519
endloop
endfacet
facet normal 1.000000 0.000000 0.000000
outer loop
vertex 0.007946 0.951525 0.024519
vertex 0.007946 0.977979 0.024519
vertex 0.007946 0.968816 0.026965
endloop
endfacet
facet normal -1.000000 0.000000 0.000000
outer loop
vertex 0.002972 0.977979 0.024519
vertex 0.002972 0.951525 0.024519
vertex 0.002972 0.951525 0.033707
endloop
endfacet
facet normal -1.000000 0.000000 0.000000
outer loop
vertex 0.002972 0.951525 0.033707
vertex 0.002972 0.977979 0.033707
vertex 0.002972 0.977979 0.024519
endloop
endfacet
facet normal 0.000000 0.027986 0.999608
outer loop
vertex 0.034311 0.050537 0.023673
vertex 0.025689 0.050537 0.023673
vertex 0.025689 0.036118 0.024076
endloop
endfacet
facet normal 0.000000 0.027986 0.999608
outer loop
vertex 0.025689 0.036118 0.024076
vertex 0.034311 0.036118 0.024076
vertex 0.034311 0.050537 0.023673
endloop
endfacet
facet normal -0.997456 0.071284 0.000000
outer loop
vertex 0.034311 0.050537 0.034553
vertex 0.035421 0.066075 0.035447
vertex 0.035421 0.066075 0.022779
endloop
endfacet
facet normal -0.997456 0.071285 0.000000
outer loop
vertex 0.035421 0.066075 0.022779
vertex 0.034311 0.050537 0.023673
vertex 0.034311 0.050537 0.034553
endloop
endfacet
facet normal 0.000000 0.057422 0.998350
outer loop
vertex 0.024579 0.066075 0.022779
vertex 0.025689 0.050537 0.023673
vertex 0.034311 0.050537 0.023673
endloop
endfacet
facet normal 0.000000 0.057422 0.998350
outer loop
vertex 0.034311 0.050537 0.023673
vertex 0.035421 0.066075 0.022779
vertex 0.024579 0.066075 0.022779
endloop
endfacet
facet normal 0.000000 0.057422 -0.998350
outer loop
vertex 0.035421 0.066075 0.035447
vertex 0.034311 0.050537 0.034553
vertex 0.025689 0.050537 0.034553
endloop
endfacet
facet normal 0.000000 0.057422 -0.998350
outer loop
vertex 0.025689 0.050537 0.034553
vertex 0.024579 0.066075 0.035447
vertex 0.035421 0.066075 0.035447
endloop
endfacet
facet normal 0.000000 0.101044 0.994882
outer loop
vertex 0.034311 0.036118 0.024076
vertex 0.025689 0.036118 0.024076
vertex 0.024713 0.025719 0.025132
endloop
endfacet
facet normal 0.056771 0.048876 0.997190
outer loop
vertex 0.024713 0.025719 0.025132
vertex 0.035287 0.025719 0.024530
vertex 0.034311 0.036118 0.024076
endloop
endfacet
facet normal 0.000000 0.027986 -0.999608
outer loop
vertex 0.025689 0.050537 0.034553
vertex 0.034311 0.050537 0.034553
vertex 0.034311 0.036118 0.034150
endloop
endfacet
facet normal 0.000000 0.027986 -0.999608
outer loop
vertex 0.034311 0.036118 0.034150
vertex 0.025689 0.036118 0.034150
vertex 0.025689 0.050537 0.034553
endloop
endfacet
facet normal 1.000000 -0.000000 0.000000
outer loop
vertex 0.025689 0.050537 0.023673
vertex 0.025689 0.050537 0.034553
vertex 0.025689 0.036118 0.034150
endloop
endfacet
facet normal 1.000000 0.000000 0.000000
outer loop
vertex 0.025689 0.036118 0.034150
vertex 0.025689 0.036118 0.024076
vertex 0.025689 0.050537 0.023673
endloop
endfacet
facet normal -1.000000 -0.000000 0.000000
outer loop
vertex 0.034311 0.050537 0.034553
vertex 0.034311 0.050537 0.023673
vertex 0.034311 0.036118 0.024076
endloop
endfacet
facet normal -1.000000 0.000000 0.000000
outer loop
vertex 0.034311 0.036118 0.024076
vertex 0.034311 0.036118 0.034150
vertex 0.034311 0.050537 0.034553
endloop
endfacet
facet normal 0.000000 1.000000 0.000000
outer loop
vertex 0.024713 0.025719 0.033093
vertex 0.035287 0.025719 0.033696
vertex 0.035287 0.025719 0.024530
endloop
endfacet
facet normal 0.000000 1.000000 0.000000
outer loop
vertex 0.035287 0.025719 0.024530
vertex 0.024713 0.025719 0.025132
vertex 0.024713 0.025719 0.033093
endloop
endfacet
facet normal 0.000000 0.043626 -0.999048
outer loop
vertex 0.025689 0.036118 0.034150
vertex 0.034311 0.036118 0.034150
vertex 0.035287 0.025719 0.033696
endloop
endfacet
facet normal 0.056578 0.095621 -0.993809
outer loop
vertex 0.035287 0.025719 0.033696
vertex 0.024713 0.025719 0.033093
vertex 0.025689 0.036118 0.034150
endloop
endfacet
facet normal -0.995619 -0.093503 0.000000
outer loop
vertex 0.034311 0.036118 0.034150
vertex 0.034311 0.036118 0.024076
vertex 0.035287 0.025719 0.024530
endloop
endfacet
facet normal -0.995619 -0.093504 0.000000
outer loop
vertex 0.035287 0.025719 0.024530
vertex 0.035287 0.025719 0.033696
vertex 0.034311 0.036118 0.034150
endloop
endfacet
facet normal 0.000000 -1.000000 0.000000
outer loop
vertex 0.007946 0.044146 0.024519
vertex 0.007946 0.044146 0.033707
vertex 0.002972 0.044146 0.033707
endloop
endfacet
facet normal 0.000000 -1.000000 0.000000
outer loop
vertex 0.002972 0.044146 0.033707
vertex 0.002972 0.044146 0.024519
vertex 0.007946 0.044146 0.024519
endloop
endfacet
facet normal 0.000000 1.000000 0.000000
outer loop
vertex 0.007946 0.017691 0.033707
vertex 0.007946 0.017691 0.024519
vertex 0.002972 0.017691 0.024519
endloop
endfacet
facet normal 0.000000 1.000000 0.000000
outer loop
vertex 0.002972 0.017691 0.024519
vertex 0.002972 0.017691 0.033707
vertex 0.007946 0.017691 0.033707
endloop
endfacet
facet normal -1.000000 0.000000 0.000000
outer loop
vertex 0.007946 0.034983 0.031261
vertex 0.007946 0.026854 0.031261
vertex 0.007946 0.017691 0.033707
endloop
endfacet
facet normal -1.000000 0.000000 0.000000
outer loop
vertex 0.007946 0.017691 0.033707
vertex 0.007946 0.044146 0.033707
vertex 0.007946 0.034983 0.031261
endloop
endfacet
facet normal -1.000000 -0.000000 0.000000
outer loop
vertex 0.007946 0.034983 0.026965
vertex 0.007946 0.034983 0.031261
vertex 0.007946 0.044146 0.033707
endloop
endfacet
facet normal -1.000000 0.000000 0.000000
outer loop
vertex 0.007946 0.044146 0.033707
vertex 0.007946 0.044146 0.024519
vertex 0.007946 0.034983 0.026965
endloop
endfacet
facet normal 0.114209 0.089760 -0.989394
outer loop
vertex 0.025689 0.036118 0.034150
vertex 0.024713 0.025719 0.033093
vertex 0.007946 0.026854 0.031261
endloop
endfacet
facet normal 0.160683 0.000000 -0.987006
outer loop
vertex 0.007946 0.026854 0.031261
vertex 0.007946 0.034983 0.031261
vertex 0.025689 0.036118 0.034150
endloop
endfacet
facet normal 0.000000 0.000000 -1.000000
outer loop
vertex 0.007946 0.044146 0.033707
vertex 0.007946 0.017691 0.033707
vertex 0.002972 0.017691 0.033707
endloop
endfacet
facet normal 0.000000 0.000000 -1.000000
outer loop
vertex 0.002972 0.017691 0.033707
vertex 0.002972 0.044146 0.033707
vertex 0.007946 0.044146 0.033707
endloop
endfacet
facet normal -1.000000 0.000000 0.000000
outer loop
vertex 0.007946 0.026854 0.031261
vertex 0.007946 0.026854 0.026965
vertex 0.007946 0.017691 0.024519
endloop
endfacet
facet normal -1.000000 -0.000000 0.000000
outer loop
vertex 0.007946 0.017691 0.024519
vertex 0.007946 0.017691 0.033707
vertex 0.007946 0.026854 0.031261
endloop
endfacet
facet normal 0.000000 0.000000 1.000000
outer loop
vertex 0.007946 0.017691 0.024519
vertex 0.007946 0.044146 0.024519
vertex 0.002972 0.044146 0.024519
endloop
endfacet
facet normal 0.000000 0.000000 1.000000
outer loop
vertex 0.002972 0.044146 0.024519
vertex 0.002972 0.017691 0.024519
vertex 0.007946 0.017691 0.024519
endloop
endfacet
facet normal 0.154769 0.085429 0.984250
outer loop
vertex 0.024713 0.025719 0.025132
vertex 0.025689 0.036118 0.024076
vertex 0.007946 0.034983 0.026965
endloop
endfacet
facet normal 0.108644 0.000000 0.994081
outer loop
vertex 0.007946 0.034983 0.026965
vertex 0.007946 0.026854 0.026965
vertex 0.024713 0.025719 0.025132
endloop
endfacet
facet normal 0.067552 0.997716 0.000000
outer loop
vertex 0.024713 0.025719 0.033093
vertex 0.024713 0.025719 0.025132
vertex 0.007946 0.026854 0.026965
endloop
endfacet
facet normal 0.067552 0.997716 0.000000
outer loop
vertex 0.007946 0.026854 0.026965
vertex 0.007946 0.026854 0.031261
vertex 0.024713 0.025719 0.033093
endloop
endfacet
facet normal 0.063849 -0.997960 0.000000
outer loop
vertex 0.025689 0.036118 0.024076
vertex 0.025689 0.036118 0.034150
vertex 0.007946 0.034983 0.031261
endloop
endfacet
facet normal 0.063849 -0.997959 0.000000
outer loop
vertex 0.007946 0.034983 0.031261
vertex 0.007946 0.034983 0.026965
vertex 0.025689 0.036118 0.024076
endloop
endfacet
facet normal -1.000000 0.000000 0.000000
outer loop
vertex 0.007946 0.026854 0.026965
vertex 0.007946 0.034983 0.026965
vertex 0.007946 0.044146 0.024519
endloop
endfacet
facet normal -1.000000 0.000000 0.000000
outer loop
vertex 0.007946 0.044146 0.024519
vertex 0.007946 0.017691 0.024519
vertex 0.007946 0.026854 0.026965
endloop
endfacet
facet normal 1.000000 0.000000 0.000000
outer loop
vertex 0.002972 0.017691 0.024519
vertex 0.002972 0.044146 0.024519
vertex 0.002972 0.044146 0.033707
endloop
endfacet
facet normal 1.000000 0.000000 0.000000
outer loop
vertex 0.002972 0.044146 0.033707
vertex 0.002972 0.017691 0.033707
vertex 0.002972 0.017691 0.024519
endloop
endfacet
endsolid Exported from Blender-2.76 (sub 0)
