solid Exported from Blender-2.76 (sub 0)
facet normal -0.471851 0.684352 -0.555895
outer loop
vertex 0.503027 0.482866 0.093639
vertex 0.494710 0.417898 0.020718
vertex 0.486103 0.414760 0.024161
endloop
endfacet
facet normal -0.471850 0.684356 -0.555890
outer loop
vertex 0.486103 0.414760 0.024161
vertex 0.494419 0.479728 0.097083
vertex 0.503027 0.482866 0.093639
endloop
endfacet
facet normal -0.995895 0.080046 0.042267
outer loop
vertex 0.494419 0.479728 0.097083
vertex 0.486103 0.414760 0.024161
vertex 0.485820 0.407679 0.030911
endloop
endfacet
facet normal -0.995896 0.080032 0.042269
outer loop
vertex 0.485820 0.407679 0.030911
vertex 0.494136 0.472647 0.103833
vertex 0.494419 0.479728 0.097083
endloop
endfacet
facet normal -0.524556 -0.605089 0.598922
outer loop
vertex 0.494136 0.472647 0.103833
vertex 0.485820 0.407679 0.030911
vertex 0.494145 0.403736 0.034218
endloop
endfacet
facet normal -0.524546 -0.605108 0.598912
outer loop
vertex 0.494145 0.403736 0.034218
vertex 0.502461 0.468703 0.107140
vertex 0.494136 0.472647 0.103833
endloop
endfacet
facet normal 0.471854 -0.684347 0.555898
outer loop
vertex 0.502461 0.468703 0.107140
vertex 0.494145 0.403736 0.034218
vertex 0.502752 0.406873 0.030775
endloop
endfacet
facet normal 0.471849 -0.684358 0.555890
outer loop
vertex 0.502752 0.406873 0.030775
vertex 0.511069 0.471841 0.103697
vertex 0.502461 0.468703 0.107140
endloop
endfacet
facet normal 0.995895 -0.080039 -0.042267
outer loop
vertex 0.511069 0.471841 0.103697
vertex 0.502752 0.406873 0.030775
vertex 0.503035 0.413955 0.024025
endloop
endfacet
facet normal 0.995895 -0.080042 -0.042267
outer loop
vertex 0.503035 0.413955 0.024025
vertex 0.511352 0.478922 0.096947
vertex 0.511069 0.471841 0.103697
endloop
endfacet
facet normal 0.524549 0.605102 -0.598916
outer loop
vertex 0.494710 0.417898 0.020718
vertex 0.503027 0.482866 0.093639
vertex 0.511352 0.478922 0.096947
endloop
endfacet
facet normal 0.524556 0.605092 -0.598920
outer loop
vertex 0.511352 0.478922 0.096947
vertex 0.503035 0.413955 0.024025
vertex 0.494710 0.417898 0.020718
endloop
endfacet
facet normal 0.851282 0.523958 0.028067
outer loop
vertex 0.505890 0.418914 0.036161
vertex 0.510931 0.411185 0.027530
vertex 0.505934 0.419725 0.019673
endloop
endfacet
facet normal 0.851278 0.523965 0.028066
outer loop
vertex 0.505934 0.419725 0.019673
vertex 0.502356 0.424952 0.030605
vertex 0.505890 0.418914 0.036161
endloop
endfacet
facet normal 0.863984 0.044100 -0.501584
outer loop
vertex 0.510931 0.411185 0.027530
vertex 0.506305 0.403241 0.018863
vertex 0.502771 0.409280 0.013307
endloop
endfacet
facet normal 0.863986 0.044102 -0.501580
outer loop
vertex 0.502771 0.409280 0.013307
vertex 0.505934 0.419725 0.019673
vertex 0.510931 0.411185 0.027530
endloop
endfacet
facet normal 0.338878 0.887145 -0.313267
outer loop
vertex 0.502356 0.424952 0.030605
vertex 0.505934 0.419725 0.019673
vertex 0.494196 0.423047 0.016382
endloop
endfacet
facet normal 0.338885 0.887139 -0.313275
outer loop
vertex 0.494196 0.423047 0.016382
vertex 0.494057 0.427301 0.028278
vertex 0.502356 0.424952 0.030605
endloop
endfacet
facet normal 0.351591 0.407278 -0.842917
outer loop
vertex 0.505934 0.419725 0.019673
vertex 0.502771 0.409280 0.013307
vertex 0.494472 0.411629 0.010980
endloop
endfacet
facet normal 0.351588 0.407282 -0.842916
outer loop
vertex 0.494472 0.411629 0.010980
vertex 0.494196 0.423047 0.016382
vertex 0.505934 0.419725 0.019673
endloop
endfacet
facet normal -0.375747 0.871193 -0.315970
outer loop
vertex 0.494057 0.427301 0.028278
vertex 0.494196 0.423047 0.016382
vertex 0.482594 0.419204 0.019585
endloop
endfacet
facet normal -0.375751 0.871194 -0.315963
outer loop
vertex 0.482594 0.419204 0.019585
vertex 0.485853 0.424584 0.030543
vertex 0.494057 0.427301 0.028278
endloop
endfacet
facet normal -0.363043 0.391331 -0.845612
outer loop
vertex 0.494196 0.423047 0.016382
vertex 0.494472 0.411629 0.010980
vertex 0.486268 0.408911 0.013245
endloop
endfacet
facet normal -0.363042 0.391331 -0.845613
outer loop
vertex 0.486268 0.408911 0.013245
vertex 0.482594 0.419204 0.019585
vertex 0.494196 0.423047 0.016382
endloop
endfacet
facet normal -0.873993 0.485460 0.021556
outer loop
vertex 0.485853 0.424584 0.030543
vertex 0.482594 0.419204 0.019585
vertex 0.477924 0.410449 0.027406
endloop
endfacet
facet normal -0.873992 0.485462 0.021562
outer loop
vertex 0.477924 0.410449 0.027406
vertex 0.482550 0.418393 0.036073
vertex 0.485853 0.424584 0.030543
endloop
endfacet
facet normal -0.861285 0.005596 -0.508092
outer loop
vertex 0.482594 0.419204 0.019585
vertex 0.486268 0.408911 0.013245
vertex 0.482965 0.402720 0.018775
endloop
endfacet
facet normal -0.861286 0.005597 -0.508090
outer loop
vertex 0.482965 0.402720 0.018775
vertex 0.477924 0.410449 0.027406
vertex 0.482594 0.419204 0.019585
endloop
endfacet
facet normal -0.851278 -0.523963 -0.028066
outer loop
vertex 0.477924 0.410449 0.027406
vertex 0.482965 0.402720 0.018775
vertex 0.486499 0.396682 0.024330
endloop
endfacet
facet normal -0.851277 -0.523965 -0.028067
outer loop
vertex 0.486499 0.396682 0.024330
vertex 0.482921 0.401909 0.035263
vertex 0.477924 0.410449 0.027406
endloop
endfacet
facet normal -0.863987 -0.044102 0.501579
outer loop
vertex 0.482550 0.418393 0.036073
vertex 0.477924 0.410449 0.027406
vertex 0.482921 0.401909 0.035263
endloop
endfacet
facet normal -0.863984 -0.044100 0.501585
outer loop
vertex 0.482921 0.401909 0.035263
vertex 0.486084 0.412354 0.041629
vertex 0.482550 0.418393 0.036073
endloop
endfacet
facet normal -0.338883 -0.887142 0.313269
outer loop
vertex 0.482921 0.401909 0.035263
vertex 0.486499 0.396682 0.024330
vertex 0.494798 0.394333 0.026658
endloop
endfacet
facet normal -0.338883 -0.887142 0.313270
outer loop
vertex 0.494798 0.394333 0.026658
vertex 0.494659 0.398587 0.038554
vertex 0.482921 0.401909 0.035263
endloop
endfacet
facet normal -0.351589 -0.407279 0.842917
outer loop
vertex 0.486084 0.412354 0.041629
vertex 0.482921 0.401909 0.035263
vertex 0.494659 0.398587 0.038554
endloop
endfacet
facet normal -0.351586 -0.407282 0.842917
outer loop
vertex 0.494659 0.398587 0.038554
vertex 0.494383 0.410005 0.043956
vertex 0.486084 0.412354 0.041629
endloop
endfacet
facet normal 0.375746 -0.871197 0.315961
outer loop
vertex 0.494659 0.398587 0.038554
vertex 0.494798 0.394333 0.026658
vertex 0.503003 0.397050 0.024393
endloop
endfacet
facet normal 0.375752 -0.871192 0.315967
outer loop
vertex 0.503003 0.397050 0.024393
vertex 0.506261 0.402430 0.035351
vertex 0.494659 0.398587 0.038554
endloop
endfacet
facet normal 0.363042 -0.391333 0.845611
outer loop
vertex 0.494383 0.410005 0.043956
vertex 0.494659 0.398587 0.038554
vertex 0.506261 0.402430 0.035351
endloop
endfacet
facet normal 0.363039 -0.391323 0.845617
outer loop
vertex 0.506261 0.402430 0.035351
vertex 0.502587 0.412722 0.041691
vertex 0.494383 0.410005 0.043956
endloop
endfacet
facet normal 0.391898 -0.488150 -0.779824
outer loop
vertex 0.506305 0.403241 0.018863
vertex 0.494721 0.399735 0.015236
vertex 0.502771 0.409280 0.013307
endloop
endfacet
facet normal 0.359455 0.736985 0.572402
outer loop
vertex 0.494134 0.421899 0.039700
vertex 0.505890 0.418914 0.036161
vertex 0.502356 0.424952 0.030605
endloop
endfacet
facet normal 0.167446 -0.329060 -0.929345
outer loop
vertex 0.502771 0.409280 0.013307
vertex 0.494721 0.399735 0.015236
vertex 0.494472 0.411629 0.010980
endloop
endfacet
facet normal 0.135006 0.896068 0.422891
outer loop
vertex 0.494134 0.421899 0.039700
vertex 0.502356 0.424952 0.030605
vertex 0.494057 0.427301 0.028278
endloop
endfacet
facet normal -0.145589 -0.336050 -0.930524
outer loop
vertex 0.494472 0.411629 0.010980
vertex 0.494721 0.399735 0.015236
vertex 0.486268 0.408911 0.013245
endloop
endfacet
facet normal -0.178032 0.889084 0.421704
outer loop
vertex 0.494134 0.421899 0.039700
vertex 0.494057 0.427301 0.028278
vertex 0.485853 0.424584 0.030543
endloop
endfacet
facet normal -0.363838 -0.505017 -0.782674
outer loop
vertex 0.486268 0.408911 0.013245
vertex 0.494721 0.399735 0.015236
vertex 0.482965 0.402720 0.018775
endloop
endfacet
facet normal -0.396281 0.720111 0.569563
outer loop
vertex 0.494134 0.421899 0.039700
vertex 0.485853 0.424584 0.030543
vertex 0.482550 0.418393 0.036073
endloop
endfacet
facet normal -0.359454 -0.736983 -0.572406
outer loop
vertex 0.482965 0.402720 0.018775
vertex 0.494721 0.399735 0.015236
vertex 0.486499 0.396682 0.024330
endloop
endfacet
facet normal -0.391900 0.488149 0.779824
outer loop
vertex 0.494134 0.421899 0.039700
vertex 0.482550 0.418393 0.036073
vertex 0.486084 0.412354 0.041629
endloop
endfacet
facet normal -0.167449 0.329059 0.929345
outer loop
vertex 0.494134 0.421899 0.039700
vertex 0.486084 0.412354 0.041629
vertex 0.494383 0.410005 0.043956
endloop
endfacet
facet normal -0.135006 -0.896067 -0.422892
outer loop
vertex 0.486499 0.396682 0.024330
vertex 0.494721 0.399735 0.015236
vertex 0.494798 0.394333 0.026658
endloop
endfacet
facet normal 0.145588 0.336052 0.930523
outer loop
vertex 0.494134 0.421899 0.039700
vertex 0.494383 0.410005 0.043956
vertex 0.502587 0.412722 0.041691
endloop
endfacet
facet normal 0.178028 -0.889084 -0.421706
outer loop
vertex 0.494798 0.394333 0.026658
vertex 0.494721 0.399735 0.015236
vertex 0.503003 0.397050 0.024393
endloop
endfacet
facet normal 0.363839 0.505010 0.782679
outer loop
vertex 0.494134 0.421899 0.039700
vertex 0.502587 0.412722 0.041691
vertex 0.505890 0.418914 0.036161
endloop
endfacet
facet normal 0.873996 -0.485455 -0.021558
outer loop
vertex 0.506261 0.402430 0.035351
vertex 0.503003 0.397050 0.024393
vertex 0.506305 0.403241 0.018863
endloop
endfacet
facet normal 0.873989 -0.485468 -0.021556
outer loop
vertex 0.506305 0.403241 0.018863
vertex 0.510931 0.411185 0.027530
vertex 0.506261 0.402430 0.035351
endloop
endfacet
facet normal 0.861284 -0.005597 0.508094
outer loop
vertex 0.502587 0.412722 0.041691
vertex 0.506261 0.402430 0.035351
vertex 0.510931 0.411185 0.027530
endloop
endfacet
facet normal 0.861286 -0.005601 0.508091
outer loop
vertex 0.510931 0.411185 0.027530
vertex 0.505890 0.418914 0.036161
vertex 0.502587 0.412722 0.041691
endloop
endfacet
facet normal 0.396282 -0.720113 -0.569560
outer loop
vertex 0.503003 0.397050 0.024393
vertex 0.494721 0.399735 0.015236
vertex 0.506305 0.403241 0.018863
endloop
endfacet
endsolid Exported from Blender-2.76 (sub 0)
