solid Exported from Blender-2.76 (sub 0)
facet normal -0.471849 0.560123 0.680897
outer loop
vertex 0.503027 0.482578 0.107429
vertex 0.494710 0.555096 0.042011
vertex 0.486103 0.551634 0.038895
endloop
endfacet
facet normal -0.471854 0.560120 0.680897
outer loop
vertex 0.486103 0.551634 0.038895
vertex 0.494419 0.479116 0.104313
vertex 0.503027 0.482578 0.107429
endloop
endfacet
facet normal -0.995895 -0.041772 0.080303
outer loop
vertex 0.494419 0.479116 0.104313
vertex 0.486103 0.551634 0.038895
vertex 0.485820 0.544840 0.031855
endloop
endfacet
facet normal -0.995895 -0.041764 0.080301
outer loop
vertex 0.485820 0.544840 0.031855
vertex 0.494136 0.472322 0.097273
vertex 0.494419 0.479116 0.104313
endloop
endfacet
facet normal -0.524551 -0.602655 -0.601376
outer loop
vertex 0.494136 0.472322 0.097273
vertex 0.485820 0.544840 0.031855
vertex 0.494145 0.541508 0.027932
endloop
endfacet
facet normal -0.524550 -0.602657 -0.601375
outer loop
vertex 0.494145 0.541508 0.027932
vertex 0.502461 0.468990 0.093350
vertex 0.494136 0.472322 0.097273
endloop
endfacet
facet normal 0.471855 -0.560116 -0.680899
outer loop
vertex 0.502461 0.468990 0.093350
vertex 0.494145 0.541508 0.027932
vertex 0.502752 0.544971 0.031049
endloop
endfacet
facet normal 0.471850 -0.560123 -0.680896
outer loop
vertex 0.502752 0.544971 0.031049
vertex 0.511069 0.472453 0.096467
vertex 0.502461 0.468990 0.093350
endloop
endfacet
facet normal 0.995895 0.041770 -0.080301
outer loop
vertex 0.511069 0.472453 0.096467
vertex 0.502752 0.544971 0.031049
vertex 0.503035 0.551765 0.038088
endloop
endfacet
facet normal 0.995895 0.041769 -0.080301
outer loop
vertex 0.503035 0.551765 0.038088
vertex 0.511352 0.479247 0.103506
vertex 0.511069 0.472453 0.096467
endloop
endfacet
facet normal 0.524552 0.602654 0.601376
outer loop
vertex 0.494710 0.555096 0.042011
vertex 0.503027 0.482578 0.107429
vertex 0.511352 0.479247 0.103506
endloop
endfacet
facet normal 0.524551 0.602655 0.601376
outer loop
vertex 0.511352 0.479247 0.103506
vertex 0.503035 0.551765 0.038088
vertex 0.494710 0.555096 0.042011
endloop
endfacet
facet normal 0.851280 -0.024817 0.524124
outer loop
vertex 0.505890 0.539659 0.043122
vertex 0.510931 0.548242 0.035341
vertex 0.505934 0.556152 0.043832
endloop
endfacet
facet normal 0.851279 -0.024817 0.524126
outer loop
vertex 0.505934 0.556152 0.043832
vertex 0.502356 0.545253 0.049126
vertex 0.505890 0.539659 0.043122
endloop
endfacet
facet normal 0.863987 0.501845 0.040977
outer loop
vertex 0.510931 0.548242 0.035341
vertex 0.506305 0.556860 0.027343
vertex 0.502771 0.562453 0.033347
endloop
endfacet
facet normal 0.863987 0.501842 0.040997
outer loop
vertex 0.502771 0.562453 0.033347
vertex 0.505934 0.556152 0.043832
vertex 0.510931 0.548242 0.035341
endloop
endfacet
facet normal 0.338878 0.318757 0.885187
outer loop
vertex 0.502356 0.545253 0.049126
vertex 0.505934 0.556152 0.043832
vertex 0.494196 0.559464 0.047133
endloop
endfacet
facet normal 0.338884 0.318760 0.885184
outer loop
vertex 0.494196 0.559464 0.047133
vertex 0.494057 0.547594 0.051460
vertex 0.502356 0.545253 0.049126
endloop
endfacet
facet normal 0.351583 0.845423 0.402057
outer loop
vertex 0.505934 0.556152 0.043832
vertex 0.502771 0.562453 0.033347
vertex 0.494472 0.564795 0.035681
endloop
endfacet
facet normal 0.351586 0.845429 0.402041
outer loop
vertex 0.494472 0.564795 0.035681
vertex 0.494196 0.559464 0.047133
vertex 0.505934 0.556152 0.043832
endloop
endfacet
facet normal -0.375749 0.321358 0.869219
outer loop
vertex 0.494057 0.547594 0.051460
vertex 0.494196 0.559464 0.047133
vertex 0.482594 0.556237 0.043310
endloop
endfacet
facet normal -0.375743 0.321352 0.869224
outer loop
vertex 0.482594 0.556237 0.043310
vertex 0.485853 0.545312 0.048758
vertex 0.494057 0.547594 0.051460
endloop
endfacet
facet normal -0.363042 0.848022 0.386082
outer loop
vertex 0.494196 0.559464 0.047133
vertex 0.494472 0.564795 0.035681
vertex 0.486268 0.562513 0.032978
endloop
endfacet
facet normal -0.363037 0.848022 0.386086
outer loop
vertex 0.486268 0.562513 0.032978
vertex 0.482594 0.556237 0.043310
vertex 0.494196 0.559464 0.047133
endloop
endfacet
facet normal -0.873993 -0.018548 0.485585
outer loop
vertex 0.485853 0.545312 0.048758
vertex 0.482594 0.556237 0.043310
vertex 0.477924 0.548362 0.034603
endloop
endfacet
facet normal -0.873992 -0.018553 0.485586
outer loop
vertex 0.477924 0.548362 0.034603
vertex 0.482550 0.539744 0.042601
vertex 0.485853 0.545312 0.048758
endloop
endfacet
facet normal -0.861285 0.508116 0.002450
outer loop
vertex 0.482594 0.556237 0.043310
vertex 0.486268 0.562513 0.032978
vertex 0.482965 0.556945 0.026821
endloop
endfacet
facet normal -0.861286 0.508115 0.002445
outer loop
vertex 0.482965 0.556945 0.026821
vertex 0.477924 0.548362 0.034603
vertex 0.482594 0.556237 0.043310
endloop
endfacet
facet normal -0.851278 0.024821 -0.524127
outer loop
vertex 0.477924 0.548362 0.034603
vertex 0.482965 0.556945 0.026821
vertex 0.486499 0.551352 0.020817
endloop
endfacet
facet normal -0.851280 0.024811 -0.524125
outer loop
vertex 0.486499 0.551352 0.020817
vertex 0.482921 0.540452 0.026112
vertex 0.477924 0.548362 0.034603
endloop
endfacet
facet normal -0.863990 -0.501837 -0.040998
outer loop
vertex 0.482550 0.539744 0.042601
vertex 0.477924 0.548362 0.034603
vertex 0.482921 0.540452 0.026112
endloop
endfacet
facet normal -0.863978 -0.501859 -0.040991
outer loop
vertex 0.482921 0.540452 0.026112
vertex 0.486084 0.534151 0.036597
vertex 0.482550 0.539744 0.042601
endloop
endfacet
facet normal -0.338884 -0.318761 -0.885183
outer loop
vertex 0.482921 0.540452 0.026112
vertex 0.486499 0.551352 0.020817
vertex 0.494798 0.549011 0.018483
endloop
endfacet
facet normal -0.338880 -0.318760 -0.885185
outer loop
vertex 0.494798 0.549011 0.018483
vertex 0.494659 0.537141 0.022811
vertex 0.482921 0.540452 0.026112
endloop
endfacet
facet normal -0.351590 -0.845424 -0.402048
outer loop
vertex 0.486084 0.534151 0.036597
vertex 0.482921 0.540452 0.026112
vertex 0.494659 0.537141 0.022811
endloop
endfacet
facet normal -0.351592 -0.845425 -0.402044
outer loop
vertex 0.494659 0.537141 0.022811
vertex 0.494383 0.531810 0.034262
vertex 0.486084 0.534151 0.036597
endloop
endfacet
facet normal 0.375749 -0.321358 -0.869219
outer loop
vertex 0.494659 0.537141 0.022811
vertex 0.494798 0.549011 0.018483
vertex 0.503003 0.551292 0.021186
endloop
endfacet
facet normal 0.375748 -0.321357 -0.869220
outer loop
vertex 0.503003 0.551292 0.021186
vertex 0.506261 0.540368 0.026633
vertex 0.494659 0.537141 0.022811
endloop
endfacet
facet normal 0.363045 -0.848023 -0.386077
outer loop
vertex 0.494383 0.531810 0.034262
vertex 0.494659 0.537141 0.022811
vertex 0.506261 0.540368 0.026633
endloop
endfacet
facet normal 0.363042 -0.848019 -0.386089
outer loop
vertex 0.506261 0.540368 0.026633
vertex 0.502587 0.534091 0.036965
vertex 0.494383 0.531810 0.034262
endloop
endfacet
facet normal 0.391900 0.776789 -0.492963
outer loop
vertex 0.506305 0.556860 0.027343
vertex 0.494721 0.560465 0.023814
vertex 0.502771 0.562453 0.033347
endloop
endfacet
facet normal 0.359456 -0.567835 0.740510
outer loop
vertex 0.494134 0.536139 0.046129
vertex 0.505890 0.539659 0.043122
vertex 0.502356 0.545253 0.049126
endloop
endfacet
facet normal 0.167447 0.927282 -0.334828
outer loop
vertex 0.502771 0.562453 0.033347
vertex 0.494721 0.560465 0.023814
vertex 0.494472 0.564795 0.035681
endloop
endfacet
facet normal 0.135005 -0.417329 0.898671
outer loop
vertex 0.494134 0.536139 0.046129
vertex 0.502356 0.545253 0.049126
vertex 0.494057 0.547594 0.051460
endloop
endfacet
facet normal -0.145589 0.928426 -0.341802
outer loop
vertex 0.494472 0.564795 0.035681
vertex 0.494721 0.560465 0.023814
vertex 0.486268 0.562513 0.032978
endloop
endfacet
facet normal -0.178031 -0.416192 0.891678
outer loop
vertex 0.494134 0.536139 0.046129
vertex 0.494057 0.547594 0.051460
vertex 0.485853 0.545312 0.048758
endloop
endfacet
facet normal -0.363840 0.779533 -0.509852
outer loop
vertex 0.486268 0.562513 0.032978
vertex 0.494721 0.560465 0.023814
vertex 0.482965 0.556945 0.026821
endloop
endfacet
facet normal -0.396280 -0.565086 0.723630
outer loop
vertex 0.494134 0.536139 0.046129
vertex 0.485853 0.545312 0.048758
vertex 0.482550 0.539744 0.042601
endloop
endfacet
facet normal -0.359454 0.567828 -0.740516
outer loop
vertex 0.482965 0.556945 0.026821
vertex 0.494721 0.560465 0.023814
vertex 0.486499 0.551352 0.020817
endloop
endfacet
facet normal -0.391896 -0.776786 0.492971
outer loop
vertex 0.494134 0.536139 0.046129
vertex 0.482550 0.539744 0.042601
vertex 0.486084 0.534151 0.036597
endloop
endfacet
facet normal -0.167453 -0.927285 0.334816
outer loop
vertex 0.494134 0.536139 0.046129
vertex 0.486084 0.534151 0.036597
vertex 0.494383 0.531810 0.034262
endloop
endfacet
facet normal -0.135004 0.417328 -0.898672
outer loop
vertex 0.486499 0.551352 0.020817
vertex 0.494721 0.560465 0.023814
vertex 0.494798 0.549011 0.018483
endloop
endfacet
facet normal 0.145587 -0.928423 0.341810
outer loop
vertex 0.494134 0.536139 0.046129
vertex 0.494383 0.531810 0.034262
vertex 0.502587 0.534091 0.036965
endloop
endfacet
facet normal 0.178031 0.416202 -0.891673
outer loop
vertex 0.494798 0.549011 0.018483
vertex 0.494721 0.560465 0.023814
vertex 0.503003 0.551292 0.021186
endloop
endfacet
facet normal 0.363838 -0.779530 0.509857
outer loop
vertex 0.494134 0.536139 0.046129
vertex 0.502587 0.534091 0.036965
vertex 0.505890 0.539659 0.043122
endloop
endfacet
facet normal 0.873994 0.018549 -0.485582
outer loop
vertex 0.506261 0.540368 0.026633
vertex 0.503003 0.551292 0.021186
vertex 0.506305 0.556860 0.027343
endloop
endfacet
facet normal 0.873994 0.018554 -0.485582
outer loop
vertex 0.506305 0.556860 0.027343
vertex 0.510931 0.548242 0.035341
vertex 0.506261 0.540368 0.026633
endloop
endfacet
facet normal 0.861287 -0.508114 -0.002450
outer loop
vertex 0.502587 0.534091 0.036965
vertex 0.506261 0.540368 0.026633
vertex 0.510931 0.548242 0.035341
endloop
endfacet
facet normal 0.861282 -0.508121 -0.002450
outer loop
vertex 0.510931 0.548242 0.035341
vertex 0.505890 0.539659 0.043122
vertex 0.502587 0.534091 0.036965
endloop
endfacet
facet normal 0.396279 0.565083 -0.723632
outer loop
vertex 0.503003 0.551292 0.021186
vertex 0.494721 0.560465 0.023814
vertex 0.506305 0.556860 0.027343
endloop
endfacet
endsolid Exported from Blender-2.76 (sub 0)
