solid Exported from Blender-2.76 (sub 0)
facet normal 0.923879 0.000000 -0.382683
outer loop
vertex 0.681270 0.025754 0.500000
vertex 0.681270 0.000000 0.500000
vertex 0.628178 0.000000 0.371822
endloop
endfacet
facet normal 0.923880 0.000000 -0.382683
outer loop
vertex 0.628178 0.000000 0.371822
vertex 0.628178 0.025754 0.371822
vertex 0.681270 0.025754 0.500000
endloop
endfacet
facet normal 0.382684 0.000000 -0.923879
outer loop
vertex 0.628178 0.025754 0.371822
vertex 0.628178 0.000000 0.371822
vertex 0.500000 0.000000 0.318729
endloop
endfacet
facet normal 0.382684 0.000000 -0.923879
outer loop
vertex 0.500000 0.000000 0.318729
vertex 0.500000 0.025754 0.318729
vertex 0.628178 0.025754 0.371822
endloop
endfacet
facet normal -0.382684 0.000000 -0.923879
outer loop
vertex 0.500000 0.025754 0.318729
vertex 0.500000 0.000000 0.318729
vertex 0.371822 0.000000 0.371822
endloop
endfacet
facet normal -0.382684 0.000000 -0.923879
outer loop
vertex 0.371822 0.000000 0.371822
vertex 0.371822 0.025754 0.371822
vertex 0.500000 0.025754 0.318729
endloop
endfacet
facet normal -0.923880 0.000000 -0.382683
outer loop
vertex 0.371822 0.025754 0.371822
vertex 0.371822 0.000000 0.371822
vertex 0.318729 0.000000 0.500000
endloop
endfacet
facet normal -0.923879 0.000000 -0.382684
outer loop
vertex 0.318729 0.000000 0.500000
vertex 0.318729 0.025754 0.500000
vertex 0.371822 0.025754 0.371822
endloop
endfacet
facet normal -0.923879 0.000000 0.382684
outer loop
vertex 0.318729 0.025754 0.500000
vertex 0.318729 0.000000 0.500000
vertex 0.371822 0.000000 0.628178
endloop
endfacet
facet normal -0.923880 0.000000 0.382683
outer loop
vertex 0.371822 0.000000 0.628178
vertex 0.371822 0.025754 0.628178
vertex 0.318729 0.025754 0.500000
endloop
endfacet
facet normal -0.382684 0.000000 0.923879
outer loop
vertex 0.371822 0.025754 0.628178
vertex 0.371822 0.000000 0.628178
vertex 0.500000 0.000000 0.681270
endloop
endfacet
facet normal -0.382684 0.000000 0.923879
outer loop
vertex 0.500000 0.000000 0.681270
vertex 0.500000 0.025754 0.681270
vertex 0.371822 0.025754 0.628178
endloop
endfacet
facet normal 0.382683 0.000000 0.923880
outer loop
vertex 0.500000 0.025754 0.681270
vertex 0.500000 0.000000 0.681270
vertex 0.628178 0.000000 0.628178
endloop
endfacet
facet normal 0.382684 0.000000 0.923879
outer loop
vertex 0.628178 0.000000 0.628178
vertex 0.628178 0.025754 0.628178
vertex 0.500000 0.025754 0.681270
endloop
endfacet
facet normal 0.923880 0.000000 0.382683
outer loop
vertex 0.681270 0.000000 0.500000
vertex 0.681270 0.025754 0.500000
vertex 0.628178 0.025754 0.628178
endloop
endfacet
facet normal 0.923880 0.000000 0.382683
outer loop
vertex 0.628178 0.025754 0.628178
vertex 0.628178 0.000000 0.628178
vertex 0.681270 0.000000 0.500000
endloop
endfacet
facet normal 0.313549 0.940648 -0.129876
outer loop
vertex 0.646932 0.037200 0.500000
vertex 0.681270 0.025754 0.500000
vertex 0.628178 0.025754 0.371822
endloop
endfacet
facet normal 0.313550 0.940648 -0.129877
outer loop
vertex 0.628178 0.025754 0.371822
vertex 0.603896 0.037200 0.396104
vertex 0.646932 0.037200 0.500000
endloop
endfacet
facet normal 0.129876 0.940648 -0.313549
outer loop
vertex 0.603896 0.037200 0.396104
vertex 0.628178 0.025754 0.371822
vertex 0.500000 0.025754 0.318729
endloop
endfacet
facet normal 0.129876 0.940648 -0.313549
outer loop
vertex 0.500000 0.025754 0.318729
vertex 0.500000 0.037200 0.353068
vertex 0.603896 0.037200 0.396104
endloop
endfacet
facet normal -0.129876 0.940648 -0.313549
outer loop
vertex 0.500000 0.037200 0.353068
vertex 0.500000 0.025754 0.318729
vertex 0.371822 0.025754 0.371822
endloop
endfacet
facet normal -0.129876 0.940648 -0.313549
outer loop
vertex 0.371822 0.025754 0.371822
vertex 0.396104 0.037200 0.396104
vertex 0.500000 0.037200 0.353068
endloop
endfacet
facet normal -0.313549 0.940648 -0.129876
outer loop
vertex 0.396104 0.037200 0.396104
vertex 0.371822 0.025754 0.371822
vertex 0.318729 0.025754 0.500000
endloop
endfacet
facet normal -0.313549 0.940648 -0.129876
outer loop
vertex 0.318729 0.025754 0.500000
vertex 0.353068 0.037200 0.500000
vertex 0.396104 0.037200 0.396104
endloop
endfacet
facet normal -0.313549 0.940648 0.129876
outer loop
vertex 0.353068 0.037200 0.500000
vertex 0.318729 0.025754 0.500000
vertex 0.371822 0.025754 0.628178
endloop
endfacet
facet normal -0.313549 0.940648 0.129876
outer loop
vertex 0.371822 0.025754 0.628178
vertex 0.396104 0.037200 0.603896
vertex 0.353068 0.037200 0.500000
endloop
endfacet
facet normal -0.129877 0.940648 0.313549
outer loop
vertex 0.396104 0.037200 0.603896
vertex 0.371822 0.025754 0.628178
vertex 0.500000 0.025754 0.681270
endloop
endfacet
facet normal -0.129876 0.940648 0.313549
outer loop
vertex 0.500000 0.025754 0.681270
vertex 0.500000 0.037200 0.646932
vertex 0.396104 0.037200 0.603896
endloop
endfacet
facet normal 0.129876 0.940648 0.313549
outer loop
vertex 0.500000 0.037200 0.646932
vertex 0.500000 0.025754 0.681270
vertex 0.628178 0.025754 0.628178
endloop
endfacet
facet normal 0.129877 0.940648 0.313549
outer loop
vertex 0.628178 0.025754 0.628178
vertex 0.603896 0.037200 0.603896
vertex 0.500000 0.037200 0.646932
endloop
endfacet
facet normal 0.313550 0.940648 0.129876
outer loop
vertex 0.603896 0.037200 0.603896
vertex 0.628178 0.025754 0.628178
vertex 0.681270 0.025754 0.500000
endloop
endfacet
facet normal 0.313549 0.940648 0.129876
outer loop
vertex 0.681270 0.025754 0.500000
vertex 0.646932 0.037200 0.500000
vertex 0.603896 0.037200 0.603896
endloop
endfacet
facet normal 0.891551 0.262222 -0.369292
outer loop
vertex 0.639778 0.061524 0.500000
vertex 0.646932 0.037200 0.500000
vertex 0.603896 0.037200 0.396104
endloop
endfacet
facet normal 0.891552 0.262218 -0.369293
outer loop
vertex 0.603896 0.037200 0.396104
vertex 0.598838 0.061524 0.401162
vertex 0.639778 0.061524 0.500000
endloop
endfacet
facet normal 0.369292 0.262221 -0.891551
outer loop
vertex 0.598838 0.061524 0.401162
vertex 0.603896 0.037200 0.396104
vertex 0.500000 0.037200 0.353068
endloop
endfacet
facet normal 0.369293 0.262221 -0.891551
outer loop
vertex 0.500000 0.037200 0.353068
vertex 0.500000 0.061524 0.360222
vertex 0.598838 0.061524 0.401162
endloop
endfacet
facet normal -0.369293 0.262222 -0.891551
outer loop
vertex 0.500000 0.061524 0.360222
vertex 0.500000 0.037200 0.353068
vertex 0.396104 0.037200 0.396104
endloop
endfacet
facet normal -0.369292 0.262222 -0.891551
outer loop
vertex 0.396104 0.037200 0.396104
vertex 0.401162 0.061524 0.401162
vertex 0.500000 0.061524 0.360222
endloop
endfacet
facet normal -0.891551 0.262222 -0.369292
outer loop
vertex 0.401162 0.061524 0.401162
vertex 0.396104 0.037200 0.396104
vertex 0.353068 0.037200 0.500000
endloop
endfacet
facet normal -0.891551 0.262220 -0.369293
outer loop
vertex 0.353068 0.037200 0.500000
vertex 0.360222 0.061524 0.500000
vertex 0.401162 0.061524 0.401162
endloop
endfacet
facet normal -0.891551 0.262220 0.369293
outer loop
vertex 0.360222 0.061524 0.500000
vertex 0.353068 0.037200 0.500000
vertex 0.396104 0.037200 0.603896
endloop
endfacet
facet normal -0.891551 0.262220 0.369293
outer loop
vertex 0.396104 0.037200 0.603896
vertex 0.401162 0.061524 0.598838
vertex 0.360222 0.061524 0.500000
endloop
endfacet
facet normal -0.369293 0.262221 0.891551
outer loop
vertex 0.401162 0.061524 0.598838
vertex 0.396104 0.037200 0.603896
vertex 0.500000 0.037200 0.646932
endloop
endfacet
facet normal -0.369292 0.262222 0.891551
outer loop
vertex 0.500000 0.037200 0.646932
vertex 0.500000 0.061524 0.639778
vertex 0.401162 0.061524 0.598838
endloop
endfacet
facet normal 0.369292 0.262222 0.891551
outer loop
vertex 0.500000 0.061524 0.639778
vertex 0.500000 0.037200 0.646932
vertex 0.603896 0.037200 0.603896
endloop
endfacet
facet normal 0.369293 0.262220 0.891551
outer loop
vertex 0.603896 0.037200 0.603896
vertex 0.598838 0.061524 0.598838
vertex 0.500000 0.061524 0.639778
endloop
endfacet
facet normal 0.891552 0.262218 0.369293
outer loop
vertex 0.598838 0.061524 0.598838
vertex 0.603896 0.037200 0.603896
vertex 0.646932 0.037200 0.500000
endloop
endfacet
facet normal 0.891551 0.262223 0.369292
outer loop
vertex 0.646932 0.037200 0.500000
vertex 0.639778 0.061524 0.500000
vertex 0.598838 0.061524 0.598838
endloop
endfacet
facet normal 0.794343 -0.510647 -0.329028
outer loop
vertex 0.652655 0.081554 0.500000
vertex 0.639778 0.061524 0.500000
vertex 0.598838 0.061524 0.401162
endloop
endfacet
facet normal 0.794341 -0.510650 -0.329027
outer loop
vertex 0.598838 0.061524 0.401162
vertex 0.607943 0.081554 0.392057
vertex 0.652655 0.081554 0.500000
endloop
endfacet
facet normal 0.329027 -0.510648 -0.794343
outer loop
vertex 0.607943 0.081554 0.392057
vertex 0.598838 0.061524 0.401162
vertex 0.500000 0.061524 0.360222
endloop
endfacet
facet normal 0.329028 -0.510649 -0.794341
outer loop
vertex 0.500000 0.061524 0.360222
vertex 0.500000 0.081554 0.347345
vertex 0.607943 0.081554 0.392057
endloop
endfacet
facet normal -0.329027 -0.510649 -0.794342
outer loop
vertex 0.500000 0.081554 0.347345
vertex 0.500000 0.061524 0.360222
vertex 0.401162 0.061524 0.401162
endloop
endfacet
facet normal -0.329027 -0.510648 -0.794342
outer loop
vertex 0.401162 0.061524 0.401162
vertex 0.392057 0.081554 0.392057
vertex 0.500000 0.081554 0.347345
endloop
endfacet
facet normal -0.794342 -0.510649 -0.329028
outer loop
vertex 0.392057 0.081554 0.392057
vertex 0.401162 0.061524 0.401162
vertex 0.360222 0.061524 0.500000
endloop
endfacet
facet normal -0.794343 -0.510646 -0.329028
outer loop
vertex 0.360222 0.061524 0.500000
vertex 0.347345 0.081554 0.500000
vertex 0.392057 0.081554 0.392057
endloop
endfacet
facet normal -0.794343 -0.510646 0.329028
outer loop
vertex 0.347345 0.081554 0.500000
vertex 0.360222 0.061524 0.500000
vertex 0.401162 0.061524 0.598838
endloop
endfacet
facet normal -0.794342 -0.510648 0.329027
outer loop
vertex 0.401162 0.061524 0.598838
vertex 0.392057 0.081554 0.607943
vertex 0.347345 0.081554 0.500000
endloop
endfacet
facet normal -0.329028 -0.510649 0.794342
outer loop
vertex 0.392057 0.081554 0.607943
vertex 0.401162 0.061524 0.598838
vertex 0.500000 0.061524 0.639778
endloop
endfacet
facet normal -0.329027 -0.510648 0.794342
outer loop
vertex 0.500000 0.061524 0.639778
vertex 0.500000 0.081554 0.652655
vertex 0.392057 0.081554 0.607943
endloop
endfacet
facet normal 0.329028 -0.510649 0.794342
outer loop
vertex 0.500000 0.081554 0.652655
vertex 0.500000 0.061524 0.639778
vertex 0.598838 0.061524 0.598838
endloop
endfacet
facet normal 0.329027 -0.510648 0.794342
outer loop
vertex 0.598838 0.061524 0.598838
vertex 0.607943 0.081554 0.607943
vertex 0.500000 0.081554 0.652655
endloop
endfacet
facet normal 0.794342 -0.510648 0.329027
outer loop
vertex 0.607943 0.081554 0.607943
vertex 0.598838 0.061524 0.598838
vertex 0.639778 0.061524 0.500000
endloop
endfacet
facet normal 0.794343 -0.510646 0.329027
outer loop
vertex 0.639778 0.061524 0.500000
vertex 0.652655 0.081554 0.500000
vertex 0.607943 0.081554 0.607943
endloop
endfacet
facet normal 0.711073 0.638455 -0.294536
outer loop
vertex 0.627497 0.109574 0.500000
vertex 0.652655 0.081554 0.500000
vertex 0.607943 0.081554 0.392057
endloop
endfacet
facet normal 0.711074 0.638452 -0.294537
outer loop
vertex 0.607943 0.081554 0.392057
vertex 0.590154 0.109574 0.409846
vertex 0.627497 0.109574 0.500000
endloop
endfacet
facet normal 0.294536 0.638454 -0.711073
outer loop
vertex 0.590154 0.109574 0.409846
vertex 0.607943 0.081554 0.392057
vertex 0.500000 0.081554 0.347345
endloop
endfacet
facet normal 0.294536 0.638453 -0.711074
outer loop
vertex 0.500000 0.081554 0.347345
vertex 0.500000 0.109574 0.372503
vertex 0.590154 0.109574 0.409846
endloop
endfacet
facet normal -0.294536 0.638454 -0.711073
outer loop
vertex 0.500000 0.109574 0.372503
vertex 0.500000 0.081554 0.347345
vertex 0.392057 0.081554 0.392057
endloop
endfacet
facet normal -0.294536 0.638454 -0.711074
outer loop
vertex 0.392057 0.081554 0.392057
vertex 0.409846 0.109574 0.409846
vertex 0.500000 0.109574 0.372503
endloop
endfacet
facet normal -0.711074 0.638452 -0.294537
outer loop
vertex 0.409846 0.109574 0.409846
vertex 0.392057 0.081554 0.392057
vertex 0.347345 0.081554 0.500000
endloop
endfacet
facet normal -0.711073 0.638453 -0.294537
outer loop
vertex 0.347345 0.081554 0.500000
vertex 0.372503 0.109574 0.500000
vertex 0.409846 0.109574 0.409846
endloop
endfacet
facet normal -0.711074 0.638452 0.294537
outer loop
vertex 0.372503 0.109574 0.500000
vertex 0.347345 0.081554 0.500000
vertex 0.392057 0.081554 0.607943
endloop
endfacet
facet normal -0.711073 0.638454 0.294537
outer loop
vertex 0.392057 0.081554 0.607943
vertex 0.409846 0.109574 0.590154
vertex 0.372503 0.109574 0.500000
endloop
endfacet
facet normal -0.294536 0.638453 0.711074
outer loop
vertex 0.409846 0.109574 0.590154
vertex 0.392057 0.081554 0.607943
vertex 0.500000 0.081554 0.652655
endloop
endfacet
facet normal -0.294536 0.638455 0.711073
outer loop
vertex 0.500000 0.081554 0.652655
vertex 0.500000 0.109574 0.627497
vertex 0.409846 0.109574 0.590154
endloop
endfacet
facet normal 0.294536 0.638454 0.711073
outer loop
vertex 0.500000 0.109574 0.627497
vertex 0.500000 0.081554 0.652655
vertex 0.607943 0.081554 0.607943
endloop
endfacet
facet normal 0.294536 0.638453 0.711074
outer loop
vertex 0.607943 0.081554 0.607943
vertex 0.590154 0.109574 0.590154
vertex 0.500000 0.109574 0.627497
endloop
endfacet
facet normal 0.711074 0.638453 0.294536
outer loop
vertex 0.590154 0.109574 0.590154
vertex 0.607943 0.081554 0.607943
vertex 0.652655 0.081554 0.500000
endloop
endfacet
facet normal 0.711075 0.638452 0.294537
outer loop
vertex 0.652655 0.081554 0.500000
vertex 0.627497 0.109574 0.500000
vertex 0.590154 0.109574 0.590154
endloop
endfacet
facet normal 0.395000 0.903994 -0.163614
outer loop
vertex 0.586839 0.127339 0.500000
vertex 0.627497 0.109574 0.500000
vertex 0.590154 0.109574 0.409846
endloop
endfacet
facet normal 0.395000 0.903994 -0.163614
outer loop
vertex 0.590154 0.109574 0.409846
vertex 0.561404 0.127339 0.438596
vertex 0.586839 0.127339 0.500000
endloop
endfacet
facet normal 0.163615 0.903994 -0.395000
outer loop
vertex 0.561404 0.127339 0.438596
vertex 0.590154 0.109574 0.409846
vertex 0.500000 0.109574 0.372503
endloop
endfacet
facet normal 0.163615 0.903994 -0.395001
outer loop
vertex 0.500000 0.109574 0.372503
vertex 0.500000 0.127339 0.413161
vertex 0.561404 0.127339 0.438596
endloop
endfacet
facet normal -0.163614 0.903994 -0.395000
outer loop
vertex 0.500000 0.127339 0.413161
vertex 0.500000 0.109574 0.372503
vertex 0.409846 0.109574 0.409846
endloop
endfacet
facet normal -0.163615 0.903994 -0.395000
outer loop
vertex 0.409846 0.109574 0.409846
vertex 0.438596 0.127339 0.438596
vertex 0.500000 0.127339 0.413161
endloop
endfacet
facet normal -0.394999 0.903995 -0.163614
outer loop
vertex 0.438596 0.127339 0.438596
vertex 0.409846 0.109574 0.409846
vertex 0.372503 0.109574 0.500000
endloop
endfacet
facet normal -0.395000 0.903994 -0.163615
outer loop
vertex 0.372503 0.109574 0.500000
vertex 0.413161 0.127339 0.500000
vertex 0.438596 0.127339 0.438596
endloop
endfacet
facet normal -0.395000 0.903994 0.163614
outer loop
vertex 0.413161 0.127339 0.500000
vertex 0.372503 0.109574 0.500000
vertex 0.409846 0.109574 0.590154
endloop
endfacet
facet normal -0.395000 0.903994 0.163614
outer loop
vertex 0.409846 0.109574 0.590154
vertex 0.438596 0.127339 0.561404
vertex 0.413161 0.127339 0.500000
endloop
endfacet
facet normal -0.163615 0.903994 0.395000
outer loop
vertex 0.438596 0.127339 0.561404
vertex 0.409846 0.109574 0.590154
vertex 0.500000 0.109574 0.627497
endloop
endfacet
facet normal -0.163614 0.903994 0.395000
outer loop
vertex 0.500000 0.109574 0.627497
vertex 0.500000 0.127339 0.586839
vertex 0.438596 0.127339 0.561404
endloop
endfacet
facet normal 0.163614 0.903994 0.395000
outer loop
vertex 0.500000 0.127339 0.586839
vertex 0.500000 0.109574 0.627497
vertex 0.590154 0.109574 0.590154
endloop
endfacet
facet normal 0.163614 0.903994 0.395000
outer loop
vertex 0.590154 0.109574 0.590154
vertex 0.561404 0.127339 0.561404
vertex 0.500000 0.127339 0.586839
endloop
endfacet
facet normal 0.394999 0.903995 0.163614
outer loop
vertex 0.561404 0.127339 0.561404
vertex 0.590154 0.109574 0.590154
vertex 0.627497 0.109574 0.500000
endloop
endfacet
facet normal 0.395000 0.903994 0.163615
outer loop
vertex 0.627497 0.109574 0.500000
vertex 0.586839 0.127339 0.500000
vertex 0.561404 0.127339 0.561404
endloop
endfacet
facet normal 0.923880 0.000000 -0.382683
outer loop
vertex 0.681270 1.000000 0.500000
vertex 0.681270 0.974246 0.500000
vertex 0.628178 0.974246 0.371822
endloop
endfacet
facet normal 0.923880 -0.000004 -0.382683
outer loop
vertex 0.628178 0.974246 0.371822
vertex 0.628178 1.000000 0.371822
vertex 0.681270 1.000000 0.500000
endloop
endfacet
facet normal 0.382683 0.000001 -0.923880
outer loop
vertex 0.628178 1.000000 0.371822
vertex 0.628178 0.974246 0.371822
vertex 0.500000 0.974246 0.318730
endloop
endfacet
facet normal 0.382684 0.000000 -0.923879
outer loop
vertex 0.500000 0.974246 0.318730
vertex 0.500000 1.000000 0.318730
vertex 0.628178 1.000000 0.371822
endloop
endfacet
facet normal -0.382683 0.000000 -0.923880
outer loop
vertex 0.500000 1.000000 0.318730
vertex 0.500000 0.974246 0.318730
vertex 0.371822 0.974246 0.371822
endloop
endfacet
facet normal -0.382683 0.000001 -0.923880
outer loop
vertex 0.371822 0.974246 0.371822
vertex 0.371822 1.000000 0.371822
vertex 0.500000 1.000000 0.318730
endloop
endfacet
facet normal -0.923880 0.000000 -0.382683
outer loop
vertex 0.371822 1.000000 0.371822
vertex 0.371822 0.974246 0.371822
vertex 0.318729 0.974246 0.500000
endloop
endfacet
facet normal -0.923880 0.000000 -0.382683
outer loop
vertex 0.318729 0.974246 0.500000
vertex 0.318729 1.000000 0.500000
vertex 0.371822 1.000000 0.371822
endloop
endfacet
facet normal -0.923880 0.000000 0.382684
outer loop
vertex 0.318729 1.000000 0.500000
vertex 0.318729 0.974246 0.500000
vertex 0.371822 0.974246 0.628178
endloop
endfacet
facet normal -0.923880 0.000000 0.382683
outer loop
vertex 0.371822 0.974246 0.628178
vertex 0.371822 1.000000 0.628178
vertex 0.318729 1.000000 0.500000
endloop
endfacet
facet normal -0.382683 0.000000 0.923880
outer loop
vertex 0.371822 1.000000 0.628178
vertex 0.371822 0.974246 0.628178
vertex 0.500000 0.974246 0.681271
endloop
endfacet
facet normal -0.382683 0.000000 0.923880
outer loop
vertex 0.500000 0.974246 0.681271
vertex 0.500000 1.000000 0.681271
vertex 0.371822 1.000000 0.628178
endloop
endfacet
facet normal 0.382683 0.000000 0.923880
outer loop
vertex 0.500000 1.000000 0.681271
vertex 0.500000 0.974246 0.681271
vertex 0.628178 0.974246 0.628178
endloop
endfacet
facet normal 0.382683 -0.000002 0.923880
outer loop
vertex 0.628178 0.974246 0.628178
vertex 0.628178 1.000000 0.628178
vertex 0.500000 1.000000 0.681271
endloop
endfacet
facet normal 0.923880 0.000000 0.382683
outer loop
vertex 0.628178 1.000000 0.628178
vertex 0.628178 0.974246 0.628178
vertex 0.681270 0.974246 0.500000
endloop
endfacet
facet normal 0.923880 0.000000 0.382684
outer loop
vertex 0.681270 0.974246 0.500000
vertex 0.681270 1.000000 0.500000
vertex 0.628178 1.000000 0.628178
endloop
endfacet
facet normal 0.313550 -0.940648 -0.129875
outer loop
vertex 0.681270 0.974246 0.500000
vertex 0.646932 0.962800 0.500000
vertex 0.603896 0.962800 0.396104
endloop
endfacet
facet normal 0.313550 -0.940648 -0.129878
outer loop
vertex 0.603896 0.962800 0.396104
vertex 0.628178 0.974246 0.371822
vertex 0.681270 0.974246 0.500000
endloop
endfacet
facet normal 0.129877 -0.940649 -0.313548
outer loop
vertex 0.628178 0.974246 0.371822
vertex 0.603896 0.962800 0.396104
vertex 0.500000 0.962800 0.353068
endloop
endfacet
facet normal 0.129876 -0.940648 -0.313550
outer loop
vertex 0.500000 0.962800 0.353068
vertex 0.500000 0.974246 0.318730
vertex 0.628178 0.974246 0.371822
endloop
endfacet
facet normal -0.129876 -0.940648 -0.313551
outer loop
vertex 0.500000 0.974246 0.318730
vertex 0.500000 0.962800 0.353068
vertex 0.396104 0.962800 0.396104
endloop
endfacet
facet normal -0.129877 -0.940649 -0.313547
outer loop
vertex 0.396104 0.962800 0.396104
vertex 0.371822 0.974246 0.371822
vertex 0.500000 0.974246 0.318730
endloop
endfacet
facet normal -0.313550 -0.940648 -0.129875
outer loop
vertex 0.371822 0.974246 0.371822
vertex 0.396104 0.962800 0.396104
vertex 0.353068 0.962800 0.500000
endloop
endfacet
facet normal -0.313549 -0.940648 -0.129878
outer loop
vertex 0.353068 0.962800 0.500000
vertex 0.318729 0.974246 0.500000
vertex 0.371822 0.974246 0.371822
endloop
endfacet
facet normal -0.313549 -0.940648 0.129877
outer loop
vertex 0.318729 0.974246 0.500000
vertex 0.353068 0.962800 0.500000
vertex 0.396104 0.962800 0.603896
endloop
endfacet
facet normal -0.313549 -0.940648 0.129878
outer loop
vertex 0.396104 0.962800 0.603896
vertex 0.371822 0.974246 0.628178
vertex 0.318729 0.974246 0.500000
endloop
endfacet
facet normal -0.129877 -0.940649 0.313548
outer loop
vertex 0.371822 0.974246 0.628178
vertex 0.396104 0.962800 0.603896
vertex 0.500000 0.962800 0.646932
endloop
endfacet
facet normal -0.129876 -0.940648 0.313550
outer loop
vertex 0.500000 0.962800 0.646932
vertex 0.500000 0.974246 0.681271
vertex 0.371822 0.974246 0.628178
endloop
endfacet
facet normal 0.129876 -0.940648 0.313551
outer loop
vertex 0.500000 0.974246 0.681271
vertex 0.500000 0.962800 0.646932
vertex 0.603896 0.962800 0.603896
endloop
endfacet
facet normal 0.129877 -0.940649 0.313547
outer loop
vertex 0.603896 0.962800 0.603896
vertex 0.628178 0.974246 0.628178
vertex 0.500000 0.974246 0.681271
endloop
endfacet
facet normal 0.313550 -0.940648 0.129875
outer loop
vertex 0.628178 0.974246 0.628178
vertex 0.603896 0.962800 0.603896
vertex 0.646932 0.962800 0.500000
endloop
endfacet
facet normal 0.313549 -0.940648 0.129876
outer loop
vertex 0.646932 0.962800 0.500000
vertex 0.681270 0.974246 0.500000
vertex 0.628178 0.974246 0.628178
endloop
endfacet
facet normal 0.891551 -0.262223 -0.369291
outer loop
vertex 0.646932 0.962800 0.500000
vertex 0.639778 0.938477 0.500000
vertex 0.598838 0.938477 0.401162
endloop
endfacet
facet normal 0.891551 -0.262223 -0.369291
outer loop
vertex 0.598838 0.938477 0.401162
vertex 0.603896 0.962800 0.396104
vertex 0.646932 0.962800 0.500000
endloop
endfacet
facet normal 0.369293 -0.262220 -0.891551
outer loop
vertex 0.603896 0.962800 0.396104
vertex 0.598838 0.938477 0.401162
vertex 0.500000 0.938477 0.360222
endloop
endfacet
facet normal 0.369292 -0.262222 -0.891551
outer loop
vertex 0.500000 0.938477 0.360222
vertex 0.500000 0.962800 0.353068
vertex 0.603896 0.962800 0.396104
endloop
endfacet
facet normal -0.369292 -0.262221 -0.891551
outer loop
vertex 0.500000 0.962800 0.353068
vertex 0.500000 0.938477 0.360222
vertex 0.401162 0.938477 0.401162
endloop
endfacet
facet normal -0.369295 -0.262224 -0.891549
outer loop
vertex 0.401162 0.938477 0.401162
vertex 0.396104 0.962800 0.396104
vertex 0.500000 0.962800 0.353068
endloop
endfacet
facet normal -0.891551 -0.262223 -0.369291
outer loop
vertex 0.396104 0.962800 0.396104
vertex 0.401162 0.938477 0.401162
vertex 0.360222 0.938477 0.500000
endloop
endfacet
facet normal -0.891551 -0.262220 -0.369293
outer loop
vertex 0.360222 0.938477 0.500000
vertex 0.353068 0.962800 0.500000
vertex 0.396104 0.962800 0.396104
endloop
endfacet
facet normal -0.891551 -0.262220 0.369294
outer loop
vertex 0.353068 0.962800 0.500000
vertex 0.360222 0.938477 0.500000
vertex 0.401162 0.938477 0.598838
endloop
endfacet
facet normal -0.891552 -0.262220 0.369291
outer loop
vertex 0.401162 0.938477 0.598838
vertex 0.396104 0.962800 0.603896
vertex 0.353068 0.962800 0.500000
endloop
endfacet
facet normal -0.369291 -0.262221 0.891551
outer loop
vertex 0.396104 0.962800 0.603896
vertex 0.401162 0.938477 0.598838
vertex 0.500000 0.938477 0.639778
endloop
endfacet
facet normal -0.369294 -0.262221 0.891551
outer loop
vertex 0.500000 0.938477 0.639778
vertex 0.500000 0.962800 0.646932
vertex 0.396104 0.962800 0.603896
endloop
endfacet
facet normal 0.369293 -0.262221 0.891551
outer loop
vertex 0.500000 0.962800 0.646932
vertex 0.500000 0.938477 0.639778
vertex 0.598838 0.938477 0.598838
endloop
endfacet
facet normal 0.369295 -0.262225 0.891549
outer loop
vertex 0.598838 0.938477 0.598838
vertex 0.603896 0.962800 0.603896
vertex 0.500000 0.962800 0.646932
endloop
endfacet
facet normal 0.891550 -0.262226 0.369292
outer loop
vertex 0.603896 0.962800 0.603896
vertex 0.598838 0.938477 0.598838
vertex 0.639778 0.938477 0.500000
endloop
endfacet
facet normal 0.891552 -0.262218 0.369291
outer loop
vertex 0.639778 0.938477 0.500000
vertex 0.646932 0.962800 0.500000
vertex 0.603896 0.962800 0.603896
endloop
endfacet
facet normal 0.794343 0.510647 -0.329027
outer loop
vertex 0.639778 0.938477 0.500000
vertex 0.652655 0.918446 0.500000
vertex 0.607943 0.918446 0.392057
endloop
endfacet
facet normal 0.794342 0.510649 -0.329026
outer loop
vertex 0.607943 0.918446 0.392057
vertex 0.598838 0.938477 0.401162
vertex 0.639778 0.938477 0.500000
endloop
endfacet
facet normal 0.329026 0.510646 -0.794344
outer loop
vertex 0.598838 0.938477 0.401162
vertex 0.607943 0.918446 0.392057
vertex 0.500000 0.918446 0.347345
endloop
endfacet
facet normal 0.329027 0.510649 -0.794342
outer loop
vertex 0.500000 0.918446 0.347345
vertex 0.500000 0.938477 0.360222
vertex 0.598838 0.938477 0.401162
endloop
endfacet
facet normal -0.329026 0.510646 -0.794344
outer loop
vertex 0.500000 0.938477 0.360222
vertex 0.500000 0.918446 0.347345
vertex 0.392057 0.918446 0.392057
endloop
endfacet
facet normal -0.329027 0.510649 -0.794342
outer loop
vertex 0.392057 0.918446 0.392057
vertex 0.401162 0.938477 0.401162
vertex 0.500000 0.938477 0.360222
endloop
endfacet
facet normal -0.794341 0.510650 -0.329028
outer loop
vertex 0.401162 0.938477 0.401162
vertex 0.392057 0.918446 0.392057
vertex 0.347345 0.918446 0.500000
endloop
endfacet
facet normal -0.794343 0.510647 -0.329027
outer loop
vertex 0.347345 0.918446 0.500000
vertex 0.360222 0.938477 0.500000
vertex 0.401162 0.938477 0.401162
endloop
endfacet
facet normal -0.794343 0.510647 0.329027
outer loop
vertex 0.360222 0.938477 0.500000
vertex 0.347345 0.918446 0.500000
vertex 0.392057 0.918446 0.607943
endloop
endfacet
facet normal -0.794342 0.510649 0.329026
outer loop
vertex 0.392057 0.918446 0.607943
vertex 0.401162 0.938477 0.598838
vertex 0.360222 0.938477 0.500000
endloop
endfacet
facet normal -0.329026 0.510646 0.794344
outer loop
vertex 0.401162 0.938477 0.598838
vertex 0.392057 0.918446 0.607943
vertex 0.500000 0.918446 0.652655
endloop
endfacet
facet normal -0.329027 0.510649 0.794342
outer loop
vertex 0.500000 0.918446 0.652655
vertex 0.500000 0.938477 0.639778
vertex 0.401162 0.938477 0.598838
endloop
endfacet
facet normal 0.329027 0.510649 0.794341
outer loop
vertex 0.500000 0.938477 0.639778
vertex 0.500000 0.918446 0.652655
vertex 0.607943 0.918446 0.607943
endloop
endfacet
facet normal 0.329027 0.510650 0.794341
outer loop
vertex 0.607943 0.918446 0.607943
vertex 0.598838 0.938477 0.598838
vertex 0.500000 0.938477 0.639778
endloop
endfacet
facet normal 0.794341 0.510651 0.329026
outer loop
vertex 0.598838 0.938477 0.598838
vertex 0.607943 0.918446 0.607943
vertex 0.652655 0.918446 0.500000
endloop
endfacet
facet normal 0.794342 0.510647 0.329030
outer loop
vertex 0.652655 0.918446 0.500000
vertex 0.639778 0.938477 0.500000
vertex 0.598838 0.938477 0.598838
endloop
endfacet
facet normal 0.711075 -0.638452 -0.294537
outer loop
vertex 0.652655 0.918446 0.500000
vertex 0.627497 0.890426 0.500000
vertex 0.590154 0.890426 0.409846
endloop
endfacet
facet normal 0.711072 -0.638454 -0.294538
outer loop
vertex 0.590154 0.890426 0.409846
vertex 0.607943 0.918446 0.392057
vertex 0.652655 0.918446 0.500000
endloop
endfacet
facet normal 0.294537 -0.638454 -0.711073
outer loop
vertex 0.607943 0.918446 0.392057
vertex 0.590154 0.890426 0.409846
vertex 0.500000 0.890426 0.372503
endloop
endfacet
facet normal 0.294537 -0.638454 -0.711073
outer loop
vertex 0.500000 0.890426 0.372503
vertex 0.500000 0.918446 0.347345
vertex 0.607943 0.918446 0.392057
endloop
endfacet
facet normal -0.294536 -0.638455 -0.711073
outer loop
vertex 0.500000 0.918446 0.347345
vertex 0.500000 0.890426 0.372503
vertex 0.409846 0.890426 0.409846
endloop
endfacet
facet normal -0.294537 -0.638454 -0.711073
outer loop
vertex 0.409846 0.890426 0.409846
vertex 0.392057 0.918446 0.392057
vertex 0.500000 0.918446 0.347345
endloop
endfacet
facet normal -0.711074 -0.638453 -0.294536
outer loop
vertex 0.392057 0.918446 0.392057
vertex 0.409846 0.890426 0.409846
vertex 0.372503 0.890426 0.500000
endloop
endfacet
facet normal -0.711073 -0.638453 -0.294538
outer loop
vertex 0.372503 0.890426 0.500000
vertex 0.347345 0.918446 0.500000
vertex 0.392057 0.918446 0.392057
endloop
endfacet
facet normal -0.711073 -0.638454 0.294536
outer loop
vertex 0.347345 0.918446 0.500000
vertex 0.372503 0.890426 0.500000
vertex 0.409846 0.890426 0.590154
endloop
endfacet
facet normal -0.711074 -0.638452 0.294538
outer loop
vertex 0.409846 0.890426 0.590154
vertex 0.392057 0.918446 0.607943
vertex 0.347345 0.918446 0.500000
endloop
endfacet
facet normal -0.294537 -0.638454 0.711073
outer loop
vertex 0.392057 0.918446 0.607943
vertex 0.409846 0.890426 0.590154
vertex 0.500000 0.890426 0.627497
endloop
endfacet
facet normal -0.294537 -0.638454 0.711073
outer loop
vertex 0.500000 0.890426 0.627497
vertex 0.500000 0.918446 0.652655
vertex 0.392057 0.918446 0.607943
endloop
endfacet
facet normal 0.294537 -0.638454 0.711072
outer loop
vertex 0.500000 0.918446 0.652655
vertex 0.500000 0.890426 0.627497
vertex 0.590154 0.890426 0.590154
endloop
endfacet
facet normal 0.294537 -0.638452 0.711075
outer loop
vertex 0.590154 0.890426 0.590154
vertex 0.607943 0.918446 0.607943
vertex 0.500000 0.918446 0.652655
endloop
endfacet
facet normal 0.711075 -0.638453 0.294535
outer loop
vertex 0.607943 0.918446 0.607943
vertex 0.590154 0.890426 0.590154
vertex 0.627497 0.890426 0.500000
endloop
endfacet
facet normal 0.711074 -0.638453 0.294537
outer loop
vertex 0.627497 0.890426 0.500000
vertex 0.652655 0.918446 0.500000
vertex 0.607943 0.918446 0.607943
endloop
endfacet
facet normal 0.395000 -0.903994 -0.163613
outer loop
vertex 0.627497 0.890426 0.500000
vertex 0.586839 0.872661 0.500000
vertex 0.561404 0.872661 0.438596
endloop
endfacet
facet normal 0.395000 -0.903994 -0.163615
outer loop
vertex 0.561404 0.872661 0.438596
vertex 0.590154 0.890426 0.409846
vertex 0.627497 0.890426 0.500000
endloop
endfacet
facet normal 0.163614 -0.903994 -0.395001
outer loop
vertex 0.590154 0.890426 0.409846
vertex 0.561404 0.872661 0.438596
vertex 0.500000 0.872661 0.413161
endloop
endfacet
facet normal 0.163615 -0.903993 -0.395001
outer loop
vertex 0.500000 0.872661 0.413161
vertex 0.500000 0.890426 0.372503
vertex 0.590154 0.890426 0.409846
endloop
endfacet
facet normal -0.163614 -0.903994 -0.395001
outer loop
vertex 0.500000 0.890426 0.372503
vertex 0.500000 0.872661 0.413161
vertex 0.438596 0.872661 0.438596
endloop
endfacet
facet normal -0.163615 -0.903993 -0.395001
outer loop
vertex 0.438596 0.872661 0.438596
vertex 0.409846 0.890426 0.409846
vertex 0.500000 0.890426 0.372503
endloop
endfacet
facet normal -0.395000 -0.903994 -0.163615
outer loop
vertex 0.409846 0.890426 0.409846
vertex 0.438596 0.872661 0.438596
vertex 0.413161 0.872661 0.500000
endloop
endfacet
facet normal -0.395000 -0.903994 -0.163615
outer loop
vertex 0.413161 0.872661 0.500000
vertex 0.372503 0.890426 0.500000
vertex 0.409846 0.890426 0.409846
endloop
endfacet
facet normal -0.395001 -0.903994 0.163614
outer loop
vertex 0.372503 0.890426 0.500000
vertex 0.413161 0.872661 0.500000
vertex 0.438596 0.872661 0.561404
endloop
endfacet
facet normal -0.395001 -0.903993 0.163616
outer loop
vertex 0.438596 0.872661 0.561404
vertex 0.409846 0.890426 0.590154
vertex 0.372503 0.890426 0.500000
endloop
endfacet
facet normal -0.163615 -0.903994 0.395000
outer loop
vertex 0.409846 0.890426 0.590154
vertex 0.438596 0.872661 0.561404
vertex 0.500000 0.872661 0.586839
endloop
endfacet
facet normal -0.163615 -0.903994 0.395001
outer loop
vertex 0.500000 0.872661 0.586839
vertex 0.500000 0.890426 0.627497
vertex 0.409846 0.890426 0.590154
endloop
endfacet
facet normal 0.163615 -0.903994 0.395001
outer loop
vertex 0.500000 0.890426 0.627497
vertex 0.500000 0.872661 0.586839
vertex 0.561404 0.872661 0.561404
endloop
endfacet
facet normal 0.163615 -0.903993 0.395001
outer loop
vertex 0.561404 0.872661 0.561404
vertex 0.590154 0.890426 0.590154
vertex 0.500000 0.890426 0.627497
endloop
endfacet
facet normal 0.394998 -0.903995 0.163613
outer loop
vertex 0.590154 0.890426 0.590154
vertex 0.561404 0.872661 0.561404
vertex 0.586839 0.872661 0.500000
endloop
endfacet
facet normal 0.395001 -0.903994 0.163616
outer loop
vertex 0.586839 0.872661 0.500000
vertex 0.627497 0.890426 0.500000
vertex 0.590154 0.890426 0.590154
endloop
endfacet
facet normal 0.923880 0.000000 -0.382684
outer loop
vertex 0.586839 0.872661 0.500000
vertex 0.586839 0.127339 0.500000
vertex 0.561404 0.127339 0.438596
endloop
endfacet
facet normal 0.923880 0.000000 -0.382683
outer loop
vertex 0.561404 0.127339 0.438596
vertex 0.561404 0.872661 0.438596
vertex 0.586839 0.872661 0.500000
endloop
endfacet
facet normal 0.382683 0.000000 -0.923880
outer loop
vertex 0.561404 0.872661 0.438596
vertex 0.561404 0.127339 0.438596
vertex 0.500000 0.127339 0.413161
endloop
endfacet
facet normal 0.382684 0.000000 -0.923879
outer loop
vertex 0.500000 0.127339 0.413161
vertex 0.500000 0.872661 0.413161
vertex 0.561404 0.872661 0.438596
endloop
endfacet
facet normal -0.382683 0.000000 -0.923880
outer loop
vertex 0.500000 0.872661 0.413161
vertex 0.500000 0.127339 0.413161
vertex 0.438596 0.127339 0.438596
endloop
endfacet
facet normal -0.382683 0.000000 -0.923880
outer loop
vertex 0.438596 0.127339 0.438596
vertex 0.438596 0.872661 0.438596
vertex 0.500000 0.872661 0.413161
endloop
endfacet
facet normal -0.923879 0.000000 -0.382684
outer loop
vertex 0.438596 0.872661 0.438596
vertex 0.438596 0.127339 0.438596
vertex 0.413161 0.127339 0.500000
endloop
endfacet
facet normal -0.923879 0.000000 -0.382684
outer loop
vertex 0.413161 0.127339 0.500000
vertex 0.413161 0.872661 0.500000
vertex 0.438596 0.872661 0.438596
endloop
endfacet
facet normal -0.923880 0.000000 0.382683
outer loop
vertex 0.413161 0.872661 0.500000
vertex 0.413161 0.127339 0.500000
vertex 0.438596 0.127339 0.561404
endloop
endfacet
facet normal -0.923880 -0.000000 0.382683
outer loop
vertex 0.438596 0.127339 0.561404
vertex 0.438596 0.872661 0.561404
vertex 0.413161 0.872661 0.500000
endloop
endfacet
facet normal -0.382682 -0.000000 0.923880
outer loop
vertex 0.438596 0.872661 0.561404
vertex 0.438596 0.127339 0.561404
vertex 0.500000 0.127339 0.586839
endloop
endfacet
facet normal -0.382684 -0.000000 0.923879
outer loop
vertex 0.500000 0.127339 0.586839
vertex 0.500000 0.872661 0.586839
vertex 0.438596 0.872661 0.561404
endloop
endfacet
facet normal 0.382684 -0.000000 0.923879
outer loop
vertex 0.500000 0.872661 0.586839
vertex 0.500000 0.127339 0.586839
vertex 0.561404 0.127339 0.561404
endloop
endfacet
facet normal 0.382682 -0.000000 0.923880
outer loop
vertex 0.561404 0.127339 0.561404
vertex 0.561404 0.872661 0.561404
vertex 0.500000 0.872661 0.586839
endloop
endfacet
facet normal 0.923880 0.000000 0.382683
outer loop
vertex 0.561404 0.872661 0.561404
vertex 0.561404 0.127339 0.561404
vertex 0.586839 0.127339 0.500000
endloop
endfacet
facet normal 0.923880 0.000000 0.382683
outer loop
vertex 0.586839 0.127339 0.500000
vertex 0.586839 0.872661 0.500000
vertex 0.561404 0.872661 0.561404
endloop
endfacet
endsolid Exported from Blender-2.76 (sub 0)
