solid Exported from Blender-2.76 (sub 0)
facet normal -0.976007 0.008227 -0.217584
outer loop
vertex 0.803553 0.672428 0.466959
vertex 0.804550 0.632466 0.460976
vertex 0.792711 0.628483 0.513928
endloop
endfacet
facet normal -0.983789 0.063430 -0.167737
outer loop
vertex 0.792711 0.628483 0.513928
vertex 0.795372 0.664035 0.511763
vertex 0.803553 0.672428 0.466959
endloop
endfacet
facet normal -0.789394 0.095996 0.606334
outer loop
vertex 0.795372 0.664035 0.511763
vertex 0.792711 0.628483 0.513928
vertex 0.826152 0.635258 0.556392
endloop
endfacet
facet normal -0.829619 -0.022161 0.557890
outer loop
vertex 0.826152 0.635258 0.556392
vertex 0.819045 0.680761 0.547630
vertex 0.795372 0.664035 0.511763
endloop
endfacet
facet normal -0.032187 0.184131 0.982375
outer loop
vertex 0.819045 0.680761 0.547630
vertex 0.826152 0.635258 0.556392
vertex 0.879878 0.644650 0.556392
endloop
endfacet
facet normal -0.070554 0.121371 0.990097
outer loop
vertex 0.879878 0.644650 0.556392
vertex 0.856221 0.708619 0.546865
vertex 0.819045 0.680761 0.547630
endloop
endfacet
facet normal 0.714387 0.354079 0.603555
outer loop
vertex 0.856221 0.708619 0.546865
vertex 0.879878 0.644650 0.556392
vertex 0.913449 0.649299 0.513928
endloop
endfacet
facet normal 0.706766 0.336245 0.622432
outer loop
vertex 0.913449 0.649299 0.513928
vertex 0.878215 0.727851 0.511501
vertex 0.856221 0.708619 0.546865
endloop
endfacet
facet normal 0.893791 0.394305 -0.213685
outer loop
vertex 0.878215 0.727851 0.511501
vertex 0.913449 0.649299 0.513928
vertex 0.901459 0.647783 0.460976
endloop
endfacet
facet normal 0.885821 0.402670 -0.230605
outer loop
vertex 0.901459 0.647783 0.460976
vertex 0.870540 0.719792 0.467947
vertex 0.878215 0.727851 0.511501
endloop
endfacet
facet normal 0.352885 0.267751 -0.896539
outer loop
vertex 0.852969 0.640699 0.437410
vertex 0.837729 0.694624 0.447516
vertex 0.870540 0.719792 0.467947
endloop
endfacet
facet normal 0.392480 0.254100 -0.883964
outer loop
vertex 0.870540 0.719792 0.467947
vertex 0.901459 0.647783 0.460976
vertex 0.852969 0.640699 0.437410
endloop
endfacet
facet normal -0.443073 0.042599 -0.895473
outer loop
vertex 0.837729 0.694624 0.447516
vertex 0.852969 0.640699 0.437410
vertex 0.804550 0.632466 0.460976
endloop
endfacet
facet normal -0.544865 0.110860 -0.831163
outer loop
vertex 0.804550 0.632466 0.460976
vertex 0.803553 0.672428 0.466959
vertex 0.837729 0.694624 0.447516
endloop
endfacet
facet normal 0.389858 0.685270 0.615155
outer loop
vertex 0.856221 0.708619 0.546865
vertex 0.878215 0.727851 0.511501
vertex 0.789623 0.778640 0.511070
endloop
endfacet
facet normal 0.395484 0.687499 0.609047
outer loop
vertex 0.789623 0.778640 0.511070
vertex 0.785563 0.750825 0.545103
vertex 0.856221 0.708619 0.546865
endloop
endfacet
facet normal -0.004730 0.033786 0.999418
outer loop
vertex 0.819045 0.680761 0.547630
vertex 0.856221 0.708619 0.546865
vertex 0.785563 0.750825 0.545103
endloop
endfacet
facet normal -0.027185 0.023052 0.999365
outer loop
vertex 0.785563 0.750825 0.545103
vertex 0.775808 0.707372 0.545840
vertex 0.819045 0.680761 0.547630
endloop
endfacet
facet normal -0.436967 -0.669555 0.600630
outer loop
vertex 0.795372 0.664035 0.511763
vertex 0.819045 0.680761 0.547630
vertex 0.775808 0.707372 0.545840
endloop
endfacet
facet normal -0.371697 -0.671700 0.640827
outer loop
vertex 0.775808 0.707372 0.545840
vertex 0.768860 0.678285 0.511322
vertex 0.795372 0.664035 0.511763
endloop
endfacet
facet normal -0.251831 -0.388633 -0.886310
outer loop
vertex 0.837729 0.694624 0.447516
vertex 0.803553 0.672428 0.466959
vertex 0.769879 0.691412 0.468203
endloop
endfacet
facet normal -0.255422 -0.366534 -0.894658
outer loop
vertex 0.769879 0.691412 0.468203
vertex 0.780831 0.729454 0.449491
vertex 0.837729 0.694624 0.447516
endloop
endfacet
facet normal 0.226057 0.419131 -0.879333
outer loop
vertex 0.870540 0.719792 0.467947
vertex 0.837729 0.694624 0.447516
vertex 0.780831 0.729454 0.449491
endloop
endfacet
facet normal 0.225971 0.410650 -0.883348
outer loop
vertex 0.780831 0.729454 0.449491
vertex 0.788980 0.767267 0.469154
vertex 0.870540 0.719792 0.467947
endloop
endfacet
facet normal -0.456020 -0.855982 -0.243599
outer loop
vertex 0.803553 0.672428 0.466959
vertex 0.795372 0.664035 0.511763
vertex 0.768860 0.678285 0.511322
endloop
endfacet
facet normal -0.480881 -0.835546 -0.265736
outer loop
vertex 0.768860 0.678285 0.511322
vertex 0.769879 0.691412 0.468203
vertex 0.803553 0.672428 0.466959
endloop
endfacet
facet normal 0.485568 0.840306 -0.241059
outer loop
vertex 0.878215 0.727851 0.511501
vertex 0.870540 0.719792 0.467947
vertex 0.788980 0.767267 0.469154
endloop
endfacet
facet normal 0.484165 0.842543 -0.236019
outer loop
vertex 0.788980 0.767267 0.469154
vertex 0.789623 0.778640 0.511070
vertex 0.878215 0.727851 0.511501
endloop
endfacet
facet normal -0.006921 0.965113 -0.261742
outer loop
vertex 0.789623 0.778640 0.511070
vertex 0.788980 0.767267 0.469154
vertex 0.697640 0.768088 0.474595
endloop
endfacet
facet normal 0.004741 0.957346 -0.288904
outer loop
vertex 0.697640 0.768088 0.474595
vertex 0.695751 0.778517 0.509123
vertex 0.789623 0.778640 0.511070
endloop
endfacet
facet normal -0.090785 0.037259 0.995173
outer loop
vertex 0.775808 0.707372 0.545840
vertex 0.785563 0.750825 0.545103
vertex 0.698703 0.751407 0.537158
endloop
endfacet
facet normal -0.106789 0.009053 0.994241
outer loop
vertex 0.698703 0.751407 0.537158
vertex 0.700868 0.710278 0.537765
vertex 0.775808 0.707372 0.545840
endloop
endfacet
facet normal -0.036475 -0.955770 -0.291843
outer loop
vertex 0.769879 0.691412 0.468203
vertex 0.768860 0.678285 0.511322
vertex 0.701385 0.681468 0.509331
endloop
endfacet
facet normal -0.057070 -0.944532 -0.323423
outer loop
vertex 0.701385 0.681468 0.509331
vertex 0.699727 0.693730 0.473812
vertex 0.769879 0.691412 0.468203
endloop
endfacet
facet normal -0.085119 0.474056 -0.876371
outer loop
vertex 0.788980 0.767267 0.469154
vertex 0.780831 0.729454 0.449491
vertex 0.699923 0.731394 0.458398
endloop
endfacet
facet normal -0.050903 0.400642 -0.914820
outer loop
vertex 0.699923 0.731394 0.458398
vertex 0.697640 0.768088 0.474595
vertex 0.788980 0.767267 0.469154
endloop
endfacet
facet normal -0.014113 0.775051 0.631740
outer loop
vertex 0.785563 0.750825 0.545103
vertex 0.789623 0.778640 0.511070
vertex 0.695751 0.778517 0.509123
endloop
endfacet
facet normal -0.058983 0.714501 0.697143
outer loop
vertex 0.695751 0.778517 0.509123
vertex 0.698703 0.751407 0.537158
vertex 0.785563 0.750825 0.545103
endloop
endfacet
facet normal -0.099462 -0.750953 0.652822
outer loop
vertex 0.768860 0.678285 0.511322
vertex 0.775808 0.707372 0.545840
vertex 0.700868 0.710278 0.537765
endloop
endfacet
facet normal -0.054069 -0.701914 0.710206
outer loop
vertex 0.700868 0.710278 0.537765
vertex 0.701385 0.681468 0.509331
vertex 0.768860 0.678285 0.511322
endloop
endfacet
facet normal -0.086119 -0.419668 -0.903583
outer loop
vertex 0.780831 0.729454 0.449491
vertex 0.769879 0.691412 0.468203
vertex 0.699727 0.693730 0.473812
endloop
endfacet
facet normal -0.110309 -0.375960 -0.920047
outer loop
vertex 0.699727 0.693730 0.473812
vertex 0.699923 0.731394 0.458398
vertex 0.780831 0.729454 0.449491
endloop
endfacet
facet normal -0.230536 -0.685619 0.690493
outer loop
vertex 0.701385 0.681468 0.509331
vertex 0.700868 0.710278 0.537765
vertex 0.608902 0.742019 0.538578
endloop
endfacet
facet normal -0.257748 -0.710135 0.655190
outer loop
vertex 0.608902 0.742019 0.538578
vertex 0.601384 0.717949 0.509531
vertex 0.701385 0.681468 0.509331
endloop
endfacet
facet normal -0.127359 -0.375109 -0.918190
outer loop
vertex 0.699923 0.731394 0.458398
vertex 0.699727 0.693730 0.473812
vertex 0.602834 0.728011 0.473247
endloop
endfacet
facet normal -0.126219 -0.386938 -0.913426
outer loop
vertex 0.602834 0.728011 0.473247
vertex 0.614580 0.761350 0.457501
vertex 0.699923 0.731394 0.458398
endloop
endfacet
facet normal 0.343042 0.904227 -0.254353
outer loop
vertex 0.695751 0.778517 0.509123
vertex 0.697640 0.768088 0.474595
vertex 0.624155 0.795813 0.474047
endloop
endfacet
facet normal 0.344386 0.902729 -0.257835
outer loop
vertex 0.624155 0.795813 0.474047
vertex 0.625366 0.805425 0.509319
vertex 0.695751 0.778517 0.509123
endloop
endfacet
facet normal 0.015970 0.015595 0.999751
outer loop
vertex 0.700868 0.710278 0.537765
vertex 0.698703 0.751407 0.537158
vertex 0.620067 0.780649 0.537958
endloop
endfacet
facet normal 0.013076 0.012271 0.999839
outer loop
vertex 0.620067 0.780649 0.537958
vertex 0.608902 0.742019 0.538578
vertex 0.700868 0.710278 0.537765
endloop
endfacet
facet normal -0.328030 -0.897567 -0.294568
outer loop
vertex 0.699727 0.693730 0.473812
vertex 0.701385 0.681468 0.509331
vertex 0.601384 0.717949 0.509531
endloop
endfacet
facet normal -0.320240 -0.909515 -0.265008
outer loop
vertex 0.601384 0.717949 0.509531
vertex 0.602834 0.728011 0.473247
vertex 0.699727 0.693730 0.473812
endloop
endfacet
facet normal 0.152333 0.407017 -0.900629
outer loop
vertex 0.697640 0.768088 0.474595
vertex 0.699923 0.731394 0.458398
vertex 0.614580 0.761350 0.457501
endloop
endfacet
facet normal 0.154776 0.392325 -0.906711
outer loop
vertex 0.614580 0.761350 0.457501
vertex 0.624155 0.795813 0.474047
vertex 0.697640 0.768088 0.474595
endloop
endfacet
facet normal 0.271702 0.705958 0.654065
outer loop
vertex 0.698703 0.751407 0.537158
vertex 0.695751 0.778517 0.509123
vertex 0.625366 0.805425 0.509319
endloop
endfacet
facet normal 0.268279 0.703433 0.658185
outer loop
vertex 0.625366 0.805425 0.509319
vertex 0.620067 0.780649 0.537958
vertex 0.698703 0.751407 0.537158
endloop
endfacet
facet normal 0.169718 0.387821 -0.905975
outer loop
vertex 0.624155 0.795813 0.474047
vertex 0.614580 0.761350 0.457501
vertex 0.545945 0.816319 0.468175
endloop
endfacet
facet normal 0.175029 0.411359 -0.894510
outer loop
vertex 0.545945 0.816319 0.468175
vertex 0.559128 0.837660 0.480568
vertex 0.624155 0.795813 0.474047
endloop
endfacet
facet normal 0.377987 0.664419 0.644727
outer loop
vertex 0.620067 0.780649 0.537958
vertex 0.625366 0.805425 0.509319
vertex 0.561743 0.843883 0.506987
endloop
endfacet
facet normal 0.385783 0.667673 0.636698
outer loop
vertex 0.561743 0.843883 0.506987
vertex 0.553416 0.828239 0.528437
vertex 0.620067 0.780649 0.537958
endloop
endfacet
facet normal -0.571991 -0.552718 0.606077
outer loop
vertex 0.601384 0.717949 0.509531
vertex 0.608902 0.742019 0.538578
vertex 0.538339 0.804433 0.528902
endloop
endfacet
facet normal -0.560011 -0.547506 0.621791
outer loop
vertex 0.538339 0.804433 0.528902
vertex 0.528549 0.789738 0.507146
vertex 0.601384 0.717949 0.509531
endloop
endfacet
facet normal -0.361180 -0.291150 -0.885879
outer loop
vertex 0.614580 0.761350 0.457501
vertex 0.602834 0.728011 0.473247
vertex 0.531402 0.796174 0.479969
endloop
endfacet
facet normal -0.354378 -0.268555 -0.895709
outer loop
vertex 0.531402 0.796174 0.479969
vertex 0.545945 0.816319 0.468175
vertex 0.614580 0.761350 0.457501
endloop
endfacet
facet normal 0.507650 0.826669 -0.242715
outer loop
vertex 0.625366 0.805425 0.509319
vertex 0.624155 0.795813 0.474047
vertex 0.559128 0.837660 0.480568
endloop
endfacet
facet normal 0.508124 0.825756 -0.244821
outer loop
vertex 0.559128 0.837660 0.480568
vertex 0.561743 0.843883 0.506987
vertex 0.625366 0.805425 0.509319
endloop
endfacet
facet normal -0.108141 0.047197 0.993015
outer loop
vertex 0.608902 0.742019 0.538578
vertex 0.620067 0.780649 0.537958
vertex 0.553416 0.828239 0.528437
endloop
endfacet
facet normal -0.076430 0.067813 0.994766
outer loop
vertex 0.553416 0.828239 0.528437
vertex 0.538339 0.804433 0.528902
vertex 0.608902 0.742019 0.538578
endloop
endfacet
facet normal -0.680965 -0.698225 -0.220837
outer loop
vertex 0.602834 0.728011 0.473247
vertex 0.601384 0.717949 0.509531
vertex 0.528549 0.789738 0.507146
endloop
endfacet
facet normal -0.682447 -0.691955 -0.235509
outer loop
vertex 0.528549 0.789738 0.507146
vertex 0.531402 0.796174 0.479969
vertex 0.602834 0.728011 0.473247
endloop
endfacet
facet normal 0.538257 0.597439 -0.594429
outer loop
vertex 0.783936 0.731979 0.459948
vertex 0.733050 0.788181 0.470356
vertex 0.749529 0.798497 0.495646
endloop
endfacet
facet normal 0.597015 0.596629 -0.536290
outer loop
vertex 0.749529 0.798497 0.495646
vertex 0.800759 0.745945 0.494213
vertex 0.783936 0.731979 0.459948
endloop
endfacet
facet normal 0.672147 0.645347 0.362968
outer loop
vertex 0.800759 0.745945 0.494213
vertex 0.749529 0.798497 0.495646
vertex 0.739422 0.792336 0.525316
endloop
endfacet
facet normal 0.668987 0.672984 0.315514
outer loop
vertex 0.739422 0.792336 0.525316
vertex 0.790428 0.737369 0.534412
vertex 0.800759 0.745945 0.494213
endloop
endfacet
facet normal 0.036935 0.196411 0.979826
outer loop
vertex 0.790428 0.737369 0.534412
vertex 0.739422 0.792336 0.525316
vertex 0.712808 0.775491 0.529696
endloop
endfacet
facet normal 0.042089 0.206622 0.977515
outer loop
vertex 0.712808 0.775491 0.529696
vertex 0.763274 0.714826 0.540346
vertex 0.790428 0.737369 0.534412
endloop
endfacet
facet normal -0.657108 -0.439061 0.612727
outer loop
vertex 0.763274 0.714826 0.540346
vertex 0.712808 0.775491 0.529696
vertex 0.696308 0.764892 0.504406
endloop
endfacet
facet normal -0.670649 -0.511108 0.537586
outer loop
vertex 0.696308 0.764892 0.504406
vertex 0.746450 0.700860 0.506081
vertex 0.763274 0.714826 0.540346
endloop
endfacet
facet normal -0.898345 -0.252270 -0.359632
outer loop
vertex 0.706424 0.771168 0.474736
vertex 0.696308 0.764892 0.504406
vertex 0.681023 0.820258 0.503749
endloop
endfacet
facet normal -0.898582 -0.253076 -0.358475
outer loop
vertex 0.681023 0.820258 0.503749
vertex 0.690574 0.822074 0.478527
vertex 0.706424 0.771168 0.474736
endloop
endfacet
facet normal -0.166034 0.005989 -0.986102
outer loop
vertex 0.756782 0.709437 0.465882
vertex 0.706424 0.771168 0.474736
vertex 0.733050 0.788181 0.470356
endloop
endfacet
facet normal -0.207876 -0.007075 -0.978130
outer loop
vertex 0.733050 0.788181 0.470356
vertex 0.783936 0.731979 0.459948
vertex 0.756782 0.709437 0.465882
endloop
endfacet
facet normal -0.726674 -0.578733 -0.370154
outer loop
vertex 0.746450 0.700860 0.506081
vertex 0.696308 0.764892 0.504406
vertex 0.706424 0.771168 0.474736
endloop
endfacet
facet normal -0.756763 -0.571951 -0.316516
outer loop
vertex 0.706424 0.771168 0.474736
vertex 0.756782 0.709437 0.465882
vertex 0.746450 0.700860 0.506081
endloop
endfacet
facet normal 0.807164 0.459661 0.370404
outer loop
vertex 0.739422 0.792336 0.525316
vertex 0.749529 0.798497 0.495646
vertex 0.731277 0.830018 0.496303
endloop
endfacet
facet normal 0.848605 0.425485 0.314376
outer loop
vertex 0.731277 0.830018 0.496303
vertex 0.721923 0.830039 0.521525
vertex 0.739422 0.792336 0.525316
endloop
endfacet
facet normal 0.703503 0.367489 -0.608306
outer loop
vertex 0.749529 0.798497 0.495646
vertex 0.733050 0.788181 0.470356
vertex 0.715866 0.828439 0.474804
endloop
endfacet
facet normal 0.719398 0.427955 -0.547103
outer loop
vertex 0.715866 0.828439 0.474804
vertex 0.731277 0.830018 0.496303
vertex 0.749529 0.798497 0.495646
endloop
endfacet
facet normal 0.077061 0.135103 0.987830
outer loop
vertex 0.712808 0.775491 0.529696
vertex 0.739422 0.792336 0.525316
vertex 0.721923 0.830039 0.521525
endloop
endfacet
facet normal 0.116352 0.128100 0.984913
outer loop
vertex 0.721923 0.830039 0.521525
vertex 0.696704 0.824318 0.525248
vertex 0.712808 0.775491 0.529696
endloop
endfacet
facet normal -0.174155 0.019104 -0.984533
outer loop
vertex 0.733050 0.788181 0.470356
vertex 0.706424 0.771168 0.474736
vertex 0.690574 0.822074 0.478527
endloop
endfacet
facet normal -0.155954 0.042469 -0.986851
outer loop
vertex 0.690574 0.822074 0.478527
vertex 0.715866 0.828439 0.474804
vertex 0.733050 0.788181 0.470356
endloop
endfacet
facet normal -0.779006 -0.202892 0.593283
outer loop
vertex 0.696308 0.764892 0.504406
vertex 0.712808 0.775491 0.529696
vertex 0.696704 0.824318 0.525248
endloop
endfacet
facet normal -0.771699 -0.205905 0.601734
outer loop
vertex 0.696704 0.824318 0.525248
vertex 0.681023 0.820258 0.503749
vertex 0.696308 0.764892 0.504406
endloop
endfacet
facet normal -0.149944 0.017580 -0.988538
outer loop
vertex 0.715866 0.828439 0.474804
vertex 0.690574 0.822074 0.478527
vertex 0.683967 0.877510 0.480515
endloop
endfacet
facet normal -0.164166 0.008082 -0.986400
outer loop
vertex 0.683967 0.877510 0.480515
vertex 0.704624 0.884720 0.477136
vertex 0.715866 0.828439 0.474804
endloop
endfacet
facet normal -0.797271 -0.085176 0.597582
outer loop
vertex 0.681023 0.820258 0.503749
vertex 0.696704 0.824318 0.525248
vertex 0.689005 0.880018 0.522916
endloop
endfacet
facet normal -0.829982 -0.066757 0.553780
outer loop
vertex 0.689005 0.880018 0.522916
vertex 0.676293 0.876216 0.503405
vertex 0.681023 0.820258 0.503749
endloop
endfacet
facet normal 0.913175 0.227016 0.338489
outer loop
vertex 0.721923 0.830039 0.521525
vertex 0.731277 0.830018 0.496303
vertex 0.717082 0.886604 0.496647
endloop
endfacet
facet normal 0.928943 0.212748 0.302990
outer loop
vertex 0.717082 0.886604 0.496647
vertex 0.709595 0.886696 0.519537
vertex 0.721923 0.830039 0.521525
endloop
endfacet
facet normal -0.930199 -0.080838 -0.358043
outer loop
vertex 0.690574 0.822074 0.478527
vertex 0.681023 0.820258 0.503749
vertex 0.676293 0.876216 0.503405
endloop
endfacet
facet normal -0.941587 -0.100695 -0.321362
outer loop
vertex 0.676293 0.876216 0.503405
vertex 0.683967 0.877510 0.480515
vertex 0.690574 0.822074 0.478527
endloop
endfacet
facet normal 0.131673 0.063360 0.989266
outer loop
vertex 0.696704 0.824318 0.525248
vertex 0.721923 0.830039 0.521525
vertex 0.709595 0.886696 0.519537
endloop
endfacet
facet normal 0.142332 0.061038 0.987935
outer loop
vertex 0.709595 0.886696 0.519537
vertex 0.689005 0.880018 0.522916
vertex 0.696704 0.824318 0.525248
endloop
endfacet
facet normal 0.792723 0.182451 -0.581638
outer loop
vertex 0.731277 0.830018 0.496303
vertex 0.715866 0.828439 0.474804
vertex 0.704624 0.884720 0.477136
endloop
endfacet
facet normal 0.815216 0.207789 -0.540599
outer loop
vertex 0.704624 0.884720 0.477136
vertex 0.717082 0.886604 0.496647
vertex 0.731277 0.830018 0.496303
endloop
endfacet
facet normal -0.805653 -0.511384 -0.299014
outer loop
vertex 0.683967 0.877510 0.480515
vertex 0.676293 0.876216 0.503405
vertex 0.656792 0.907070 0.503180
endloop
endfacet
facet normal -0.802280 -0.535886 -0.263007
outer loop
vertex 0.656792 0.907070 0.503180
vertex 0.660832 0.911507 0.481816
vertex 0.683967 0.877510 0.480515
endloop
endfacet
facet normal 0.120000 0.128130 0.984471
outer loop
vertex 0.689005 0.880018 0.522916
vertex 0.709595 0.886696 0.519537
vertex 0.674449 0.929605 0.518236
endloop
endfacet
facet normal 0.123487 0.129101 0.983913
outer loop
vertex 0.674449 0.929605 0.518236
vertex 0.663584 0.915963 0.521390
vertex 0.689005 0.880018 0.522916
endloop
endfacet
facet normal 0.682266 0.544235 -0.488183
outer loop
vertex 0.717082 0.886604 0.496647
vertex 0.704624 0.884720 0.477136
vertex 0.671931 0.927073 0.478662
endloop
endfacet
facet normal 0.694854 0.597148 -0.400739
outer loop
vertex 0.671931 0.927073 0.478662
vertex 0.678213 0.931984 0.496872
vertex 0.717082 0.886604 0.496647
endloop
endfacet
facet normal -0.141289 -0.058338 -0.988248
outer loop
vertex 0.704624 0.884720 0.477136
vertex 0.683967 0.877510 0.480515
vertex 0.660832 0.911507 0.481816
endloop
endfacet
facet normal -0.158066 -0.086573 -0.983626
outer loop
vertex 0.660832 0.911507 0.481816
vertex 0.671931 0.927073 0.478662
vertex 0.704624 0.884720 0.477136
endloop
endfacet
facet normal -0.695522 -0.468770 0.544523
outer loop
vertex 0.676293 0.876216 0.503405
vertex 0.689005 0.880018 0.522916
vertex 0.663584 0.915963 0.521390
endloop
endfacet
facet normal -0.734308 -0.460461 0.498766
outer loop
vertex 0.663584 0.915963 0.521390
vertex 0.656792 0.907070 0.503180
vertex 0.676293 0.876216 0.503405
endloop
endfacet
facet normal 0.738089 0.631001 0.238877
outer loop
vertex 0.709595 0.886696 0.519537
vertex 0.717082 0.886604 0.496647
vertex 0.678213 0.931984 0.496872
endloop
endfacet
facet normal 0.754585 0.624198 0.202431
outer loop
vertex 0.678213 0.931984 0.496872
vertex 0.674449 0.929605 0.518236
vertex 0.709595 0.886696 0.519537
endloop
endfacet
facet normal -0.071872 -0.148567 -0.986287
outer loop
vertex 0.671931 0.927073 0.478662
vertex 0.660832 0.911507 0.481816
vertex 0.628364 0.932822 0.480971
endloop
endfacet
facet normal -0.074347 -0.168683 -0.982863
outer loop
vertex 0.628364 0.932822 0.480971
vertex 0.626580 0.952836 0.477671
vertex 0.671931 0.927073 0.478662
endloop
endfacet
facet normal -0.428818 -0.738354 0.520527
outer loop
vertex 0.656792 0.907070 0.503180
vertex 0.663584 0.915963 0.521390
vertex 0.627919 0.937375 0.522381
endloop
endfacet
facet normal -0.498398 -0.750170 0.434562
outer loop
vertex 0.627919 0.937375 0.522381
vertex 0.629109 0.925546 0.503326
vertex 0.656792 0.907070 0.503180
endloop
endfacet
facet normal 0.506147 0.842807 0.183006
outer loop
vertex 0.674449 0.929605 0.518236
vertex 0.678213 0.931984 0.496872
vertex 0.625246 0.963825 0.496726
endloop
endfacet
facet normal 0.489669 0.843309 0.221482
outer loop
vertex 0.625246 0.963825 0.496726
vertex 0.626121 0.957446 0.519081
vertex 0.674449 0.929605 0.518236
endloop
endfacet
facet normal -0.535871 -0.800754 -0.267648
outer loop
vertex 0.660832 0.911507 0.481816
vertex 0.656792 0.907070 0.503180
vertex 0.629109 0.925546 0.503326
endloop
endfacet
facet normal -0.527292 -0.812985 -0.247018
outer loop
vertex 0.629109 0.925546 0.503326
vertex 0.628364 0.932822 0.480971
vertex 0.660832 0.911507 0.481816
endloop
endfacet
facet normal 0.101614 0.146537 0.983972
outer loop
vertex 0.663584 0.915963 0.521390
vertex 0.674449 0.929605 0.518236
vertex 0.626121 0.957446 0.519081
endloop
endfacet
facet normal 0.130528 0.172227 0.976371
outer loop
vertex 0.626121 0.957446 0.519081
vertex 0.627919 0.937375 0.522381
vertex 0.663584 0.915963 0.521390
endloop
endfacet
facet normal 0.463832 0.802040 -0.376287
outer loop
vertex 0.678213 0.931984 0.496872
vertex 0.671931 0.927073 0.478662
vertex 0.626580 0.952836 0.477671
endloop
endfacet
facet normal 0.469304 0.778772 -0.416255
outer loop
vertex 0.626580 0.952836 0.477671
vertex 0.625246 0.963825 0.496726
vertex 0.678213 0.931984 0.496872
endloop
endfacet
facet normal 0.083824 -0.946740 -0.310896
outer loop
vertex 0.628364 0.932822 0.480971
vertex 0.629109 0.925546 0.503326
vertex 0.592045 0.922482 0.502664
endloop
endfacet
facet normal 0.078745 -0.944674 -0.318420
outer loop
vertex 0.592045 0.922482 0.502664
vertex 0.587835 0.928156 0.484792
vertex 0.628364 0.932822 0.480971
endloop
endfacet
facet normal -0.103979 0.152278 0.982853
outer loop
vertex 0.627919 0.937375 0.522381
vertex 0.626121 0.957446 0.519081
vertex 0.574122 0.946600 0.515261
endloop
endfacet
facet normal -0.115607 0.089404 0.989263
outer loop
vertex 0.574122 0.946600 0.515261
vertex 0.585190 0.931718 0.517899
vertex 0.627919 0.937375 0.522381
endloop
endfacet
facet normal -0.210142 0.840483 -0.499428
outer loop
vertex 0.625246 0.963825 0.496726
vertex 0.626580 0.952836 0.477671
vertex 0.576768 0.943045 0.482154
endloop
endfacet
facet normal -0.175246 0.805661 -0.565861
outer loop
vertex 0.576768 0.943045 0.482154
vertex 0.569910 0.952253 0.497388
vertex 0.625246 0.963825 0.496726
endloop
endfacet
facet normal -0.073251 -0.168600 -0.982959
outer loop
vertex 0.626580 0.952836 0.477671
vertex 0.628364 0.932822 0.480971
vertex 0.587835 0.928156 0.484792
endloop
endfacet
facet normal -0.047018 -0.208064 -0.976985
outer loop
vertex 0.587835 0.928156 0.484792
vertex 0.576768 0.943045 0.482154
vertex 0.626580 0.952836 0.477671
endloop
endfacet
facet normal 0.056580 -0.846669 0.529104
outer loop
vertex 0.629109 0.925546 0.503326
vertex 0.627919 0.937375 0.522381
vertex 0.585190 0.931718 0.517899
endloop
endfacet
facet normal 0.059977 -0.841385 0.537098
outer loop
vertex 0.585190 0.931718 0.517899
vertex 0.592045 0.922482 0.502664
vertex 0.629109 0.925546 0.503326
endloop
endfacet
facet normal -0.193563 0.941404 0.276210
outer loop
vertex 0.626121 0.957446 0.519081
vertex 0.625246 0.963825 0.496726
vertex 0.569910 0.952253 0.497388
endloop
endfacet
facet normal -0.215896 0.915177 0.340353
outer loop
vertex 0.569910 0.952253 0.497388
vertex 0.574122 0.946600 0.515261
vertex 0.626121 0.957446 0.519081
endloop
endfacet
facet normal 0.061772 -0.129444 -0.989661
outer loop
vertex 0.576768 0.943045 0.482154
vertex 0.587835 0.928156 0.484792
vertex 0.552152 0.897912 0.486520
endloop
endfacet
facet normal 0.063727 -0.130485 -0.989400
outer loop
vertex 0.552152 0.897912 0.486520
vertex 0.539981 0.909702 0.484181
vertex 0.576768 0.943045 0.482154
endloop
endfacet
facet normal 0.501468 -0.621151 0.602247
outer loop
vertex 0.592045 0.922482 0.502664
vertex 0.585190 0.931718 0.517899
vertex 0.549242 0.900731 0.515871
endloop
endfacet
facet normal 0.500279 -0.613438 0.611077
outer loop
vertex 0.549242 0.900731 0.515871
vertex 0.556782 0.893426 0.502365
vertex 0.592045 0.922482 0.502664
endloop
endfacet
facet normal -0.636359 0.679614 0.364928
outer loop
vertex 0.574122 0.946600 0.515261
vertex 0.569910 0.952253 0.497388
vertex 0.532440 0.917007 0.497687
endloop
endfacet
facet normal -0.636588 0.673007 0.376587
outer loop
vertex 0.532440 0.917007 0.497687
vertex 0.537071 0.912521 0.513532
vertex 0.574122 0.946600 0.515261
endloop
endfacet
facet normal 0.593361 -0.716328 -0.367147
outer loop
vertex 0.587835 0.928156 0.484792
vertex 0.592045 0.922482 0.502664
vertex 0.556782 0.893426 0.502365
endloop
endfacet
facet normal 0.588796 -0.716124 -0.374814
outer loop
vertex 0.556782 0.893426 0.502365
vertex 0.552152 0.897912 0.486520
vertex 0.587835 0.928156 0.484792
endloop
endfacet
facet normal -0.123142 0.083727 0.988851
outer loop
vertex 0.585190 0.931718 0.517899
vertex 0.574122 0.946600 0.515261
vertex 0.537071 0.912521 0.513532
endloop
endfacet
facet normal -0.119149 0.073425 0.990158
outer loop
vertex 0.537071 0.912521 0.513532
vertex 0.549242 0.900731 0.515871
vertex 0.585190 0.931718 0.517899
endloop
endfacet
facet normal -0.555732 0.576736 -0.598779
outer loop
vertex 0.569910 0.952253 0.497388
vertex 0.576768 0.943045 0.482154
vertex 0.539981 0.909702 0.484181
endloop
endfacet
facet normal -0.543725 0.572825 -0.613380
outer loop
vertex 0.539981 0.909702 0.484181
vertex 0.532440 0.917007 0.497687
vertex 0.569910 0.952253 0.497388
endloop
endfacet
facet normal 0.983789 0.063425 -0.167738
outer loop
vertex 0.196447 0.672428 0.466959
vertex 0.204628 0.664035 0.511763
vertex 0.207289 0.628483 0.513928
endloop
endfacet
facet normal 0.976007 0.008228 -0.217585
outer loop
vertex 0.207289 0.628483 0.513928
vertex 0.195450 0.632466 0.460976
vertex 0.196447 0.672428 0.466959
endloop
endfacet
facet normal 0.829619 -0.022159 0.557890
outer loop
vertex 0.204628 0.664035 0.511763
vertex 0.180955 0.680761 0.547630
vertex 0.173848 0.635258 0.556392
endloop
endfacet
facet normal 0.789395 0.095997 0.606333
outer loop
vertex 0.173848 0.635258 0.556392
vertex 0.207289 0.628483 0.513928
vertex 0.204628 0.664035 0.511763
endloop
endfacet
facet normal 0.070554 0.121371 0.990097
outer loop
vertex 0.180955 0.680761 0.547630
vertex 0.143779 0.708619 0.546865
vertex 0.120122 0.644650 0.556392
endloop
endfacet
facet normal 0.032187 0.184130 0.982375
outer loop
vertex 0.120122 0.644650 0.556392
vertex 0.173848 0.635258 0.556392
vertex 0.180955 0.680761 0.547630
endloop
endfacet
facet normal -0.706767 0.336246 0.622430
outer loop
vertex 0.143779 0.708619 0.546865
vertex 0.121785 0.727851 0.511501
vertex 0.086551 0.649299 0.513928
endloop
endfacet
facet normal -0.714388 0.354078 0.603555
outer loop
vertex 0.086551 0.649299 0.513928
vertex 0.120122 0.644650 0.556392
vertex 0.143779 0.708619 0.546865
endloop
endfacet
facet normal -0.885822 0.402669 -0.230604
outer loop
vertex 0.121785 0.727851 0.511501
vertex 0.129459 0.719792 0.467947
vertex 0.098541 0.647783 0.460976
endloop
endfacet
facet normal -0.893791 0.394307 -0.213683
outer loop
vertex 0.098541 0.647783 0.460976
vertex 0.086551 0.649299 0.513928
vertex 0.121785 0.727851 0.511501
endloop
endfacet
facet normal -0.352884 0.267751 -0.896539
outer loop
vertex 0.129459 0.719792 0.467947
vertex 0.162271 0.694624 0.447516
vertex 0.147031 0.640699 0.437410
endloop
endfacet
facet normal -0.392480 0.254100 -0.883964
outer loop
vertex 0.147031 0.640699 0.437410
vertex 0.098541 0.647783 0.460976
vertex 0.129459 0.719792 0.467947
endloop
endfacet
facet normal 0.544867 0.110859 -0.831162
outer loop
vertex 0.162271 0.694624 0.447516
vertex 0.196447 0.672428 0.466959
vertex 0.195450 0.632466 0.460976
endloop
endfacet
facet normal 0.443074 0.042599 -0.895472
outer loop
vertex 0.195450 0.632466 0.460976
vertex 0.147031 0.640699 0.437410
vertex 0.162271 0.694624 0.447516
endloop
endfacet
facet normal -0.395483 0.687500 0.609046
outer loop
vertex 0.143779 0.708619 0.546865
vertex 0.214437 0.750825 0.545103
vertex 0.210377 0.778640 0.511070
endloop
endfacet
facet normal -0.389857 0.685270 0.615156
outer loop
vertex 0.210377 0.778640 0.511070
vertex 0.121785 0.727851 0.511501
vertex 0.143779 0.708619 0.546865
endloop
endfacet
facet normal 0.027186 0.023052 0.999365
outer loop
vertex 0.180955 0.680761 0.547630
vertex 0.224192 0.707372 0.545840
vertex 0.214437 0.750825 0.545103
endloop
endfacet
facet normal 0.004730 0.033785 0.999418
outer loop
vertex 0.214437 0.750825 0.545103
vertex 0.143779 0.708619 0.546865
vertex 0.180955 0.680761 0.547630
endloop
endfacet
facet normal 0.371697 -0.671699 0.640829
outer loop
vertex 0.204628 0.664035 0.511763
vertex 0.231140 0.678285 0.511322
vertex 0.224192 0.707372 0.545840
endloop
endfacet
facet normal 0.436966 -0.669556 0.600629
outer loop
vertex 0.224192 0.707372 0.545840
vertex 0.180955 0.680761 0.547630
vertex 0.204628 0.664035 0.511763
endloop
endfacet
facet normal 0.255422 -0.366534 -0.894658
outer loop
vertex 0.162271 0.694624 0.447516
vertex 0.219169 0.729454 0.449491
vertex 0.230121 0.691412 0.468203
endloop
endfacet
facet normal 0.251831 -0.388634 -0.886310
outer loop
vertex 0.230121 0.691412 0.468203
vertex 0.196447 0.672428 0.466959
vertex 0.162271 0.694624 0.447516
endloop
endfacet
facet normal -0.225970 0.410648 -0.883349
outer loop
vertex 0.129459 0.719792 0.467947
vertex 0.211020 0.767267 0.469154
vertex 0.219169 0.729454 0.449491
endloop
endfacet
facet normal -0.226058 0.419133 -0.879332
outer loop
vertex 0.219169 0.729454 0.449491
vertex 0.162271 0.694624 0.447516
vertex 0.129459 0.719792 0.467947
endloop
endfacet
facet normal 0.480880 -0.835547 -0.265737
outer loop
vertex 0.196447 0.672428 0.466959
vertex 0.230121 0.691412 0.468203
vertex 0.231140 0.678285 0.511322
endloop
endfacet
facet normal 0.456022 -0.855981 -0.243599
outer loop
vertex 0.231140 0.678285 0.511322
vertex 0.204628 0.664035 0.511763
vertex 0.196447 0.672428 0.466959
endloop
endfacet
facet normal -0.484165 0.842543 -0.236020
outer loop
vertex 0.121785 0.727851 0.511501
vertex 0.210377 0.778640 0.511070
vertex 0.211020 0.767267 0.469154
endloop
endfacet
facet normal -0.485568 0.840307 -0.241058
outer loop
vertex 0.211020 0.767267 0.469154
vertex 0.129459 0.719792 0.467947
vertex 0.121785 0.727851 0.511501
endloop
endfacet
facet normal -0.004741 0.957347 -0.288903
outer loop
vertex 0.210377 0.778640 0.511070
vertex 0.304249 0.778517 0.509123
vertex 0.302360 0.768088 0.474595
endloop
endfacet
facet normal 0.006921 0.965113 -0.261742
outer loop
vertex 0.302360 0.768088 0.474595
vertex 0.211020 0.767267 0.469154
vertex 0.210377 0.778640 0.511070
endloop
endfacet
facet normal 0.106788 0.009053 0.994241
outer loop
vertex 0.224192 0.707372 0.545840
vertex 0.299132 0.710278 0.537765
vertex 0.301297 0.751407 0.537158
endloop
endfacet
facet normal 0.090785 0.037259 0.995173
outer loop
vertex 0.301297 0.751407 0.537158
vertex 0.214437 0.750825 0.545103
vertex 0.224192 0.707372 0.545840
endloop
endfacet
facet normal 0.057070 -0.944533 -0.323421
outer loop
vertex 0.230121 0.691412 0.468203
vertex 0.300273 0.693730 0.473812
vertex 0.298615 0.681468 0.509331
endloop
endfacet
facet normal 0.036476 -0.955770 -0.291844
outer loop
vertex 0.298615 0.681468 0.509331
vertex 0.231140 0.678285 0.511322
vertex 0.230121 0.691412 0.468203
endloop
endfacet
facet normal 0.050903 0.400640 -0.914820
outer loop
vertex 0.211020 0.767267 0.469154
vertex 0.302360 0.768088 0.474595
vertex 0.300077 0.731394 0.458398
endloop
endfacet
facet normal 0.085118 0.474057 -0.876370
outer loop
vertex 0.300077 0.731394 0.458398
vertex 0.219169 0.729454 0.449491
vertex 0.211020 0.767267 0.469154
endloop
endfacet
facet normal 0.058983 0.714501 0.697143
outer loop
vertex 0.214437 0.750825 0.545103
vertex 0.301297 0.751407 0.537158
vertex 0.304249 0.778517 0.509123
endloop
endfacet
facet normal 0.014113 0.775051 0.631741
outer loop
vertex 0.304249 0.778517 0.509123
vertex 0.210377 0.778640 0.511070
vertex 0.214437 0.750825 0.545103
endloop
endfacet
facet normal 0.054068 -0.701914 0.710207
outer loop
vertex 0.231140 0.678285 0.511322
vertex 0.298615 0.681468 0.509331
vertex 0.299132 0.710278 0.537765
endloop
endfacet
facet normal 0.099462 -0.750952 0.652824
outer loop
vertex 0.299132 0.710278 0.537765
vertex 0.224192 0.707372 0.545840
vertex 0.231140 0.678285 0.511322
endloop
endfacet
facet normal 0.110309 -0.375959 -0.920047
outer loop
vertex 0.219169 0.729454 0.449491
vertex 0.300077 0.731394 0.458398
vertex 0.300273 0.693730 0.473812
endloop
endfacet
facet normal 0.086118 -0.419668 -0.903583
outer loop
vertex 0.300273 0.693730 0.473812
vertex 0.230121 0.691412 0.468203
vertex 0.219169 0.729454 0.449491
endloop
endfacet
facet normal 0.257748 -0.710136 0.655189
outer loop
vertex 0.298615 0.681468 0.509331
vertex 0.398616 0.717949 0.509531
vertex 0.391098 0.742019 0.538578
endloop
endfacet
facet normal 0.230536 -0.685619 0.690492
outer loop
vertex 0.391098 0.742019 0.538578
vertex 0.299132 0.710278 0.537765
vertex 0.298615 0.681468 0.509331
endloop
endfacet
facet normal 0.126219 -0.386938 -0.913426
outer loop
vertex 0.300077 0.731394 0.458398
vertex 0.385420 0.761350 0.457501
vertex 0.397166 0.728011 0.473247
endloop
endfacet
facet normal 0.127359 -0.375109 -0.918190
outer loop
vertex 0.397166 0.728011 0.473247
vertex 0.300273 0.693730 0.473812
vertex 0.300077 0.731394 0.458398
endloop
endfacet
facet normal -0.344386 0.902728 -0.257836
outer loop
vertex 0.304249 0.778517 0.509123
vertex 0.374634 0.805425 0.509319
vertex 0.375845 0.795813 0.474047
endloop
endfacet
facet normal -0.343042 0.904228 -0.254352
outer loop
vertex 0.375845 0.795813 0.474047
vertex 0.302360 0.768088 0.474595
vertex 0.304249 0.778517 0.509123
endloop
endfacet
facet normal -0.013076 0.012271 0.999839
outer loop
vertex 0.299132 0.710278 0.537765
vertex 0.391098 0.742019 0.538578
vertex 0.379933 0.780649 0.537958
endloop
endfacet
facet normal -0.015970 0.015595 0.999751
outer loop
vertex 0.379933 0.780649 0.537958
vertex 0.301297 0.751407 0.537158
vertex 0.299132 0.710278 0.537765
endloop
endfacet
facet normal 0.320240 -0.909515 -0.265006
outer loop
vertex 0.300273 0.693730 0.473812
vertex 0.397166 0.728011 0.473247
vertex 0.398616 0.717949 0.509531
endloop
endfacet
facet normal 0.328030 -0.897567 -0.294565
outer loop
vertex 0.398616 0.717949 0.509531
vertex 0.298615 0.681468 0.509331
vertex 0.300273 0.693730 0.473812
endloop
endfacet
facet normal -0.154776 0.392326 -0.906711
outer loop
vertex 0.302360 0.768088 0.474595
vertex 0.375845 0.795813 0.474047
vertex 0.385420 0.761350 0.457501
endloop
endfacet
facet normal -0.152333 0.407018 -0.900628
outer loop
vertex 0.385420 0.761350 0.457501
vertex 0.300077 0.731394 0.458398
vertex 0.302360 0.768088 0.474595
endloop
endfacet
facet normal -0.268279 0.703434 0.658185
outer loop
vertex 0.301297 0.751407 0.537158
vertex 0.379933 0.780649 0.537958
vertex 0.374634 0.805425 0.509319
endloop
endfacet
facet normal -0.271703 0.705958 0.654065
outer loop
vertex 0.374634 0.805425 0.509319
vertex 0.304249 0.778517 0.509123
vertex 0.301297 0.751407 0.537158
endloop
endfacet
facet normal -0.175028 0.411357 -0.894511
outer loop
vertex 0.375845 0.795813 0.474047
vertex 0.440872 0.837660 0.480568
vertex 0.454055 0.816319 0.468175
endloop
endfacet
facet normal -0.169719 0.387823 -0.905974
outer loop
vertex 0.454055 0.816319 0.468175
vertex 0.385420 0.761350 0.457501
vertex 0.375845 0.795813 0.474047
endloop
endfacet
facet normal -0.385782 0.667673 0.636699
outer loop
vertex 0.379933 0.780649 0.537958
vertex 0.446584 0.828239 0.528437
vertex 0.438257 0.843883 0.506987
endloop
endfacet
facet normal -0.377988 0.664421 0.644724
outer loop
vertex 0.438257 0.843883 0.506987
vertex 0.374634 0.805425 0.509319
vertex 0.379933 0.780649 0.537958
endloop
endfacet
facet normal 0.560010 -0.547508 0.621790
outer loop
vertex 0.398616 0.717949 0.509531
vertex 0.471451 0.789738 0.507146
vertex 0.461661 0.804433 0.528902
endloop
endfacet
facet normal 0.571990 -0.552719 0.606077
outer loop
vertex 0.461661 0.804433 0.528902
vertex 0.391098 0.742019 0.538578
vertex 0.398616 0.717949 0.509531
endloop
endfacet
facet normal 0.354377 -0.268554 -0.895710
outer loop
vertex 0.385420 0.761350 0.457501
vertex 0.454055 0.816319 0.468175
vertex 0.468598 0.796174 0.479969
endloop
endfacet
facet normal 0.361181 -0.291150 -0.885878
outer loop
vertex 0.468598 0.796174 0.479969
vertex 0.397166 0.728011 0.473247
vertex 0.385420 0.761350 0.457501
endloop
endfacet
facet normal -0.508123 0.825758 -0.244816
outer loop
vertex 0.374634 0.805425 0.509319
vertex 0.438257 0.843883 0.506987
vertex 0.440872 0.837660 0.480568
endloop
endfacet
facet normal -0.507650 0.826669 -0.242715
outer loop
vertex 0.440872 0.837660 0.480568
vertex 0.375845 0.795813 0.474047
vertex 0.374634 0.805425 0.509319
endloop
endfacet
facet normal 0.076429 0.067813 0.994766
outer loop
vertex 0.391098 0.742019 0.538578
vertex 0.461661 0.804433 0.528902
vertex 0.446584 0.828239 0.528437
endloop
endfacet
facet normal 0.108141 0.047197 0.993015
outer loop
vertex 0.446584 0.828239 0.528437
vertex 0.379933 0.780649 0.537958
vertex 0.391098 0.742019 0.538578
endloop
endfacet
facet normal 0.682448 -0.691955 -0.235508
outer loop
vertex 0.397166 0.728011 0.473247
vertex 0.468598 0.796174 0.479969
vertex 0.471451 0.789738 0.507146
endloop
endfacet
facet normal 0.680964 -0.698226 -0.220837
outer loop
vertex 0.471451 0.789738 0.507146
vertex 0.398616 0.717949 0.509531
vertex 0.397166 0.728011 0.473247
endloop
endfacet
facet normal -0.597016 0.596629 -0.536289
outer loop
vertex 0.216064 0.731979 0.459948
vertex 0.199241 0.745945 0.494213
vertex 0.250471 0.798497 0.495646
endloop
endfacet
facet normal -0.538256 0.597440 -0.594429
outer loop
vertex 0.250471 0.798497 0.495646
vertex 0.266950 0.788181 0.470356
vertex 0.216064 0.731979 0.459948
endloop
endfacet
facet normal -0.668987 0.672984 0.315514
outer loop
vertex 0.199241 0.745945 0.494213
vertex 0.209572 0.737369 0.534412
vertex 0.260578 0.792336 0.525316
endloop
endfacet
facet normal -0.672147 0.645347 0.362968
outer loop
vertex 0.260578 0.792336 0.525316
vertex 0.250471 0.798497 0.495646
vertex 0.199241 0.745945 0.494213
endloop
endfacet
facet normal -0.042089 0.206622 0.977515
outer loop
vertex 0.209572 0.737369 0.534412
vertex 0.236726 0.714826 0.540346
vertex 0.287192 0.775491 0.529696
endloop
endfacet
facet normal -0.036934 0.196411 0.979826
outer loop
vertex 0.287192 0.775491 0.529696
vertex 0.260578 0.792336 0.525316
vertex 0.209572 0.737369 0.534412
endloop
endfacet
facet normal 0.670649 -0.511108 0.537586
outer loop
vertex 0.236726 0.714826 0.540346
vertex 0.253550 0.700860 0.506081
vertex 0.303692 0.764892 0.504406
endloop
endfacet
facet normal 0.657108 -0.439059 0.612728
outer loop
vertex 0.303692 0.764892 0.504406
vertex 0.287192 0.775491 0.529696
vertex 0.236726 0.714826 0.540346
endloop
endfacet
facet normal 0.898582 -0.253076 -0.358475
outer loop
vertex 0.293576 0.771168 0.474736
vertex 0.309426 0.822074 0.478527
vertex 0.318977 0.820258 0.503749
endloop
endfacet
facet normal 0.898346 -0.252270 -0.359632
outer loop
vertex 0.318977 0.820258 0.503749
vertex 0.303692 0.764892 0.504406
vertex 0.293576 0.771168 0.474736
endloop
endfacet
facet normal 0.207876 -0.007075 -0.978130
outer loop
vertex 0.243218 0.709437 0.465882
vertex 0.216064 0.731979 0.459948
vertex 0.266950 0.788181 0.470356
endloop
endfacet
facet normal 0.166034 0.005989 -0.986102
outer loop
vertex 0.266950 0.788181 0.470356
vertex 0.293576 0.771168 0.474736
vertex 0.243218 0.709437 0.465882
endloop
endfacet
facet normal 0.756762 -0.571951 -0.316517
outer loop
vertex 0.253550 0.700860 0.506081
vertex 0.243218 0.709437 0.465882
vertex 0.293576 0.771168 0.474736
endloop
endfacet
facet normal 0.726674 -0.578732 -0.370154
outer loop
vertex 0.293576 0.771168 0.474736
vertex 0.303692 0.764892 0.504406
vertex 0.253550 0.700860 0.506081
endloop
endfacet
facet normal -0.848606 0.425482 0.314376
outer loop
vertex 0.260578 0.792336 0.525316
vertex 0.278077 0.830039 0.521525
vertex 0.268723 0.830018 0.496303
endloop
endfacet
facet normal -0.807164 0.459661 0.370403
outer loop
vertex 0.268723 0.830018 0.496303
vertex 0.250471 0.798497 0.495646
vertex 0.260578 0.792336 0.525316
endloop
endfacet
facet normal -0.719398 0.427955 -0.547103
outer loop
vertex 0.250471 0.798497 0.495646
vertex 0.268723 0.830018 0.496303
vertex 0.284134 0.828439 0.474804
endloop
endfacet
facet normal -0.703504 0.367488 -0.608305
outer loop
vertex 0.284134 0.828439 0.474804
vertex 0.266950 0.788181 0.470356
vertex 0.250471 0.798497 0.495646
endloop
endfacet
facet normal -0.116351 0.128100 0.984913
outer loop
vertex 0.287192 0.775491 0.529696
vertex 0.303296 0.824318 0.525248
vertex 0.278077 0.830039 0.521525
endloop
endfacet
facet normal -0.077060 0.135102 0.987830
outer loop
vertex 0.278077 0.830039 0.521525
vertex 0.260578 0.792336 0.525316
vertex 0.287192 0.775491 0.529696
endloop
endfacet
facet normal 0.155955 0.042470 -0.986851
outer loop
vertex 0.266950 0.788181 0.470356
vertex 0.284134 0.828439 0.474804
vertex 0.309426 0.822074 0.478527
endloop
endfacet
facet normal 0.174155 0.019104 -0.984533
outer loop
vertex 0.309426 0.822074 0.478527
vertex 0.293576 0.771168 0.474736
vertex 0.266950 0.788181 0.470356
endloop
endfacet
facet normal 0.771699 -0.205906 0.601733
outer loop
vertex 0.303692 0.764892 0.504406
vertex 0.318977 0.820258 0.503749
vertex 0.303296 0.824318 0.525248
endloop
endfacet
facet normal 0.779006 -0.202893 0.593283
outer loop
vertex 0.303296 0.824318 0.525248
vertex 0.287192 0.775491 0.529696
vertex 0.303692 0.764892 0.504406
endloop
endfacet
facet normal 0.164166 0.008082 -0.986400
outer loop
vertex 0.284134 0.828439 0.474804
vertex 0.295376 0.884720 0.477136
vertex 0.316033 0.877510 0.480515
endloop
endfacet
facet normal 0.149943 0.017579 -0.988538
outer loop
vertex 0.316033 0.877510 0.480515
vertex 0.309426 0.822074 0.478527
vertex 0.284134 0.828439 0.474804
endloop
endfacet
facet normal 0.829984 -0.066756 0.553779
outer loop
vertex 0.318977 0.820258 0.503749
vertex 0.323707 0.876216 0.503405
vertex 0.310995 0.880018 0.522916
endloop
endfacet
facet normal 0.797271 -0.085175 0.597582
outer loop
vertex 0.310995 0.880018 0.522916
vertex 0.303296 0.824318 0.525248
vertex 0.318977 0.820258 0.503749
endloop
endfacet
facet normal -0.928943 0.212751 0.302989
outer loop
vertex 0.278077 0.830039 0.521525
vertex 0.290405 0.886696 0.519537
vertex 0.282918 0.886604 0.496647
endloop
endfacet
facet normal -0.913176 0.227015 0.338488
outer loop
vertex 0.282918 0.886604 0.496647
vertex 0.268723 0.830018 0.496303
vertex 0.278077 0.830039 0.521525
endloop
endfacet
facet normal 0.941587 -0.100696 -0.321362
outer loop
vertex 0.309426 0.822074 0.478527
vertex 0.316033 0.877510 0.480515
vertex 0.323707 0.876216 0.503405
endloop
endfacet
facet normal 0.930199 -0.080837 -0.358043
outer loop
vertex 0.323707 0.876216 0.503405
vertex 0.318977 0.820258 0.503749
vertex 0.309426 0.822074 0.478527
endloop
endfacet
facet normal -0.142331 0.061038 0.987935
outer loop
vertex 0.303296 0.824318 0.525248
vertex 0.310995 0.880018 0.522916
vertex 0.290405 0.886696 0.519537
endloop
endfacet
facet normal -0.131674 0.063360 0.989266
outer loop
vertex 0.290405 0.886696 0.519537
vertex 0.278077 0.830039 0.521525
vertex 0.303296 0.824318 0.525248
endloop
endfacet
facet normal -0.815215 0.207791 -0.540599
outer loop
vertex 0.268723 0.830018 0.496303
vertex 0.282918 0.886604 0.496647
vertex 0.295376 0.884720 0.477136
endloop
endfacet
facet normal -0.792723 0.182451 -0.581637
outer loop
vertex 0.295376 0.884720 0.477136
vertex 0.284134 0.828439 0.474804
vertex 0.268723 0.830018 0.496303
endloop
endfacet
facet normal 0.802279 -0.535887 -0.263008
outer loop
vertex 0.316033 0.877510 0.480515
vertex 0.339168 0.911507 0.481816
vertex 0.343208 0.907070 0.503180
endloop
endfacet
facet normal 0.805653 -0.511383 -0.299015
outer loop
vertex 0.343208 0.907070 0.503180
vertex 0.323707 0.876216 0.503405
vertex 0.316033 0.877510 0.480515
endloop
endfacet
facet normal -0.123487 0.129100 0.983913
outer loop
vertex 0.310995 0.880018 0.522916
vertex 0.336415 0.915963 0.521390
vertex 0.325551 0.929605 0.518236
endloop
endfacet
facet normal -0.120001 0.128130 0.984471
outer loop
vertex 0.325551 0.929605 0.518236
vertex 0.290405 0.886696 0.519537
vertex 0.310995 0.880018 0.522916
endloop
endfacet
facet normal -0.694857 0.597148 -0.400735
outer loop
vertex 0.282918 0.886604 0.496647
vertex 0.321787 0.931984 0.496872
vertex 0.328069 0.927073 0.478662
endloop
endfacet
facet normal -0.682266 0.544235 -0.488182
outer loop
vertex 0.328069 0.927073 0.478662
vertex 0.295376 0.884720 0.477136
vertex 0.282918 0.886604 0.496647
endloop
endfacet
facet normal 0.158067 -0.086574 -0.983626
outer loop
vertex 0.295376 0.884720 0.477136
vertex 0.328069 0.927073 0.478662
vertex 0.339168 0.911507 0.481816
endloop
endfacet
facet normal 0.141288 -0.058337 -0.988248
outer loop
vertex 0.339168 0.911507 0.481816
vertex 0.316033 0.877510 0.480515
vertex 0.295376 0.884720 0.477136
endloop
endfacet
facet normal 0.734308 -0.460461 0.498765
outer loop
vertex 0.323707 0.876216 0.503405
vertex 0.343208 0.907070 0.503180
vertex 0.336415 0.915963 0.521390
endloop
endfacet
facet normal 0.695521 -0.468770 0.544523
outer loop
vertex 0.336415 0.915963 0.521390
vertex 0.310995 0.880018 0.522916
vertex 0.323707 0.876216 0.503405
endloop
endfacet
facet normal -0.754587 0.624196 0.202431
outer loop
vertex 0.290405 0.886696 0.519537
vertex 0.325551 0.929605 0.518236
vertex 0.321787 0.931984 0.496872
endloop
endfacet
facet normal -0.738089 0.631001 0.238878
outer loop
vertex 0.321787 0.931984 0.496872
vertex 0.282918 0.886604 0.496647
vertex 0.290405 0.886696 0.519537
endloop
endfacet
facet normal 0.074347 -0.168684 -0.982862
outer loop
vertex 0.328069 0.927073 0.478662
vertex 0.373420 0.952836 0.477671
vertex 0.371636 0.932822 0.480971
endloop
endfacet
facet normal 0.071873 -0.148567 -0.986287
outer loop
vertex 0.371636 0.932822 0.480971
vertex 0.339168 0.911507 0.481816
vertex 0.328069 0.927073 0.478662
endloop
endfacet
facet normal 0.498397 -0.750171 0.434561
outer loop
vertex 0.343208 0.907070 0.503180
vertex 0.370891 0.925546 0.503326
vertex 0.372081 0.937375 0.522381
endloop
endfacet
facet normal 0.428819 -0.738352 0.520529
outer loop
vertex 0.372081 0.937375 0.522381
vertex 0.336415 0.915963 0.521390
vertex 0.343208 0.907070 0.503180
endloop
endfacet
facet normal -0.489668 0.843309 0.221482
outer loop
vertex 0.325551 0.929605 0.518236
vertex 0.373879 0.957446 0.519081
vertex 0.374754 0.963825 0.496726
endloop
endfacet
facet normal -0.506145 0.842809 0.183006
outer loop
vertex 0.374754 0.963825 0.496726
vertex 0.321787 0.931984 0.496872
vertex 0.325551 0.929605 0.518236
endloop
endfacet
facet normal 0.527293 -0.812985 -0.247016
outer loop
vertex 0.339168 0.911507 0.481816
vertex 0.371636 0.932822 0.480971
vertex 0.370891 0.925546 0.503326
endloop
endfacet
facet normal 0.535870 -0.800756 -0.267644
outer loop
vertex 0.370891 0.925546 0.503326
vertex 0.343208 0.907070 0.503180
vertex 0.339168 0.911507 0.481816
endloop
endfacet
facet normal -0.130530 0.172230 0.976370
outer loop
vertex 0.336415 0.915963 0.521390
vertex 0.372081 0.937375 0.522381
vertex 0.373879 0.957446 0.519081
endloop
endfacet
facet normal -0.101614 0.146537 0.983972
outer loop
vertex 0.373879 0.957446 0.519081
vertex 0.325551 0.929605 0.518236
vertex 0.336415 0.915963 0.521390
endloop
endfacet
facet normal -0.469303 0.778771 -0.416258
outer loop
vertex 0.321787 0.931984 0.496872
vertex 0.374754 0.963825 0.496726
vertex 0.373420 0.952836 0.477671
endloop
endfacet
facet normal -0.463832 0.802040 -0.376286
outer loop
vertex 0.373420 0.952836 0.477671
vertex 0.328069 0.927073 0.478662
vertex 0.321787 0.931984 0.496872
endloop
endfacet
facet normal -0.078745 -0.944673 -0.318422
outer loop
vertex 0.371636 0.932822 0.480971
vertex 0.412165 0.928156 0.484792
vertex 0.407955 0.922482 0.502664
endloop
endfacet
facet normal -0.083824 -0.946741 -0.310894
outer loop
vertex 0.407955 0.922482 0.502664
vertex 0.370891 0.925546 0.503326
vertex 0.371636 0.932822 0.480971
endloop
endfacet
facet normal 0.115607 0.089404 0.989263
outer loop
vertex 0.372081 0.937375 0.522381
vertex 0.414810 0.931718 0.517899
vertex 0.425878 0.946600 0.515261
endloop
endfacet
facet normal 0.103979 0.152277 0.982853
outer loop
vertex 0.425878 0.946600 0.515261
vertex 0.373879 0.957446 0.519081
vertex 0.372081 0.937375 0.522381
endloop
endfacet
facet normal 0.175246 0.805660 -0.565863
outer loop
vertex 0.374754 0.963825 0.496726
vertex 0.430090 0.952253 0.497388
vertex 0.423232 0.943045 0.482154
endloop
endfacet
facet normal 0.210143 0.840485 -0.499424
outer loop
vertex 0.423232 0.943045 0.482154
vertex 0.373420 0.952836 0.477671
vertex 0.374754 0.963825 0.496726
endloop
endfacet
facet normal 0.047018 -0.208064 -0.976984
outer loop
vertex 0.373420 0.952836 0.477671
vertex 0.423232 0.943045 0.482154
vertex 0.412165 0.928156 0.484792
endloop
endfacet
facet normal 0.073251 -0.168601 -0.982959
outer loop
vertex 0.412165 0.928156 0.484792
vertex 0.371636 0.932822 0.480971
vertex 0.373420 0.952836 0.477671
endloop
endfacet
facet normal -0.059977 -0.841387 0.537095
outer loop
vertex 0.370891 0.925546 0.503326
vertex 0.407955 0.922482 0.502664
vertex 0.414810 0.931718 0.517899
endloop
endfacet
facet normal -0.056580 -0.846667 0.529107
outer loop
vertex 0.414810 0.931718 0.517899
vertex 0.372081 0.937375 0.522381
vertex 0.370891 0.925546 0.503326
endloop
endfacet
facet normal 0.215896 0.915177 0.340352
outer loop
vertex 0.373879 0.957446 0.519081
vertex 0.425878 0.946600 0.515261
vertex 0.430090 0.952253 0.497388
endloop
endfacet
facet normal 0.193563 0.941404 0.276210
outer loop
vertex 0.430090 0.952253 0.497388
vertex 0.374754 0.963825 0.496726
vertex 0.373879 0.957446 0.519081
endloop
endfacet
facet normal -0.063727 -0.130485 -0.989400
outer loop
vertex 0.423232 0.943045 0.482154
vertex 0.460019 0.909702 0.484181
vertex 0.447848 0.897912 0.486520
endloop
endfacet
facet normal -0.061773 -0.129444 -0.989661
outer loop
vertex 0.447848 0.897912 0.486520
vertex 0.412165 0.928156 0.484792
vertex 0.423232 0.943045 0.482154
endloop
endfacet
facet normal -0.500277 -0.613436 0.611080
outer loop
vertex 0.407955 0.922482 0.502664
vertex 0.443218 0.893426 0.502365
vertex 0.450758 0.900731 0.515871
endloop
endfacet
facet normal -0.501467 -0.621148 0.602250
outer loop
vertex 0.450758 0.900731 0.515871
vertex 0.414810 0.931718 0.517899
vertex 0.407955 0.922482 0.502664
endloop
endfacet
facet normal 0.636586 0.673008 0.376589
outer loop
vertex 0.425878 0.946600 0.515261
vertex 0.462929 0.912521 0.513532
vertex 0.467560 0.917007 0.497687
endloop
endfacet
facet normal 0.636359 0.679614 0.364928
outer loop
vertex 0.467560 0.917007 0.497687
vertex 0.430090 0.952253 0.497388
vertex 0.425878 0.946600 0.515261
endloop
endfacet
facet normal -0.588795 -0.716124 -0.374815
outer loop
vertex 0.412165 0.928156 0.484792
vertex 0.447848 0.897912 0.486520
vertex 0.443218 0.893426 0.502365
endloop
endfacet
facet normal -0.593360 -0.716327 -0.367152
outer loop
vertex 0.443218 0.893426 0.502365
vertex 0.407955 0.922482 0.502664
vertex 0.412165 0.928156 0.484792
endloop
endfacet
facet normal 0.119149 0.073425 0.990158
outer loop
vertex 0.414810 0.931718 0.517899
vertex 0.450758 0.900731 0.515871
vertex 0.462929 0.912521 0.513532
endloop
endfacet
facet normal 0.123141 0.083728 0.988851
outer loop
vertex 0.462929 0.912521 0.513532
vertex 0.425878 0.946600 0.515261
vertex 0.414810 0.931718 0.517899
endloop
endfacet
facet normal 0.543725 0.572821 -0.613383
outer loop
vertex 0.430090 0.952253 0.497388
vertex 0.467560 0.917007 0.497687
vertex 0.460019 0.909702 0.484181
endloop
endfacet
facet normal 0.555733 0.576738 -0.598777
outer loop
vertex 0.460019 0.909702 0.484181
vertex 0.423232 0.943045 0.482154
vertex 0.430090 0.952253 0.497388
endloop
endfacet
endsolid Exported from Blender-2.76 (sub 0)
