solid Exported from Blender-2.76 (sub 0)
facet normal -0.995902 -0.090434 0.000000
outer loop
vertex 0.748588 0.345105 0.487510
vertex 0.748588 0.345105 0.512490
vertex 0.737522 0.466969 0.512490
endloop
endfacet
facet normal -0.995902 -0.090435 0.000000
outer loop
vertex 0.737522 0.466969 0.512490
vertex 0.737522 0.466969 0.487510
vertex 0.748588 0.345105 0.487510
endloop
endfacet
facet normal -0.952164 -0.305586 0.000000
outer loop
vertex 0.707617 0.560148 0.512490
vertex 0.707617 0.560148 0.487510
vertex 0.737522 0.466969 0.487510
endloop
endfacet
facet normal -0.952165 -0.305585 0.000000
outer loop
vertex 0.737522 0.466969 0.487510
vertex 0.737522 0.466969 0.512490
vertex 0.707617 0.560148 0.512490
endloop
endfacet
facet normal 0.995902 0.090435 0.000000
outer loop
vertex 0.745855 0.471244 0.518152
vertex 0.757310 0.345105 0.518152
vertex 0.757310 0.345105 0.481848
endloop
endfacet
facet normal 0.995902 0.090435 0.000000
outer loop
vertex 0.757310 0.345105 0.481848
vertex 0.745855 0.471244 0.481848
vertex 0.745855 0.471244 0.518152
endloop
endfacet
facet normal 0.952165 0.305585 0.000000
outer loop
vertex 0.714901 0.567693 0.518152
vertex 0.745855 0.471244 0.518152
vertex 0.745855 0.471244 0.481848
endloop
endfacet
facet normal 0.952164 0.305586 0.000000
outer loop
vertex 0.745855 0.471244 0.481848
vertex 0.714901 0.567693 0.481848
vertex 0.714901 0.567693 0.518152
endloop
endfacet
facet normal -0.543848 -0.049385 -0.837730
outer loop
vertex 0.748588 0.345105 0.487510
vertex 0.737522 0.466969 0.487510
vertex 0.745855 0.471244 0.481848
endloop
endfacet
facet normal -0.543848 -0.049385 -0.837730
outer loop
vertex 0.745855 0.471244 0.481848
vertex 0.757310 0.345105 0.481848
vertex 0.748588 0.345105 0.487510
endloop
endfacet
facet normal -0.497439 -0.159646 -0.852682
outer loop
vertex 0.737522 0.466969 0.487510
vertex 0.707617 0.560148 0.487510
vertex 0.714901 0.567693 0.481848
endloop
endfacet
facet normal -0.497440 -0.159647 -0.852682
outer loop
vertex 0.714901 0.567693 0.481848
vertex 0.745855 0.471244 0.481848
vertex 0.737522 0.466969 0.487510
endloop
endfacet
facet normal -0.543840 -0.049386 0.837735
outer loop
vertex 0.737522 0.466969 0.512490
vertex 0.748588 0.345105 0.512490
vertex 0.757310 0.345105 0.518152
endloop
endfacet
facet normal -0.543855 -0.049384 0.837725
outer loop
vertex 0.757310 0.345105 0.518152
vertex 0.745855 0.471244 0.518152
vertex 0.737522 0.466969 0.512490
endloop
endfacet
facet normal -0.497434 -0.159647 0.852685
outer loop
vertex 0.707617 0.560148 0.512490
vertex 0.737522 0.466969 0.512490
vertex 0.745855 0.471244 0.518152
endloop
endfacet
facet normal -0.497444 -0.159646 0.852680
outer loop
vertex 0.745855 0.471244 0.518152
vertex 0.714901 0.567693 0.518152
vertex 0.707617 0.560148 0.512490
endloop
endfacet
facet normal -0.952165 0.305585 0.000000
outer loop
vertex 0.707617 0.130061 0.512490
vertex 0.737522 0.223241 0.512490
vertex 0.737522 0.223241 0.487510
endloop
endfacet
facet normal -0.952165 0.305585 0.000000
outer loop
vertex 0.737522 0.223241 0.487510
vertex 0.707617 0.130061 0.487510
vertex 0.707617 0.130061 0.512490
endloop
endfacet
facet normal -0.497438 0.159646 0.852683
outer loop
vertex 0.707617 0.130061 0.512490
vertex 0.714901 0.122516 0.518152
vertex 0.745855 0.218965 0.518152
endloop
endfacet
facet normal -0.497434 0.159648 0.852685
outer loop
vertex 0.745855 0.218965 0.518152
vertex 0.737522 0.223241 0.512490
vertex 0.707617 0.130061 0.512490
endloop
endfacet
facet normal 0.952165 -0.305585 0.000000
outer loop
vertex 0.714901 0.122516 0.518152
vertex 0.714901 0.122516 0.481848
vertex 0.745855 0.218965 0.481848
endloop
endfacet
facet normal 0.952164 -0.305586 0.000000
outer loop
vertex 0.745855 0.218965 0.481848
vertex 0.745855 0.218965 0.518152
vertex 0.714901 0.122516 0.518152
endloop
endfacet
facet normal -0.497432 0.159647 -0.852686
outer loop
vertex 0.737522 0.223241 0.487510
vertex 0.745855 0.218965 0.481848
vertex 0.714901 0.122516 0.481848
endloop
endfacet
facet normal -0.497439 0.159646 -0.852682
outer loop
vertex 0.714901 0.122516 0.481848
vertex 0.707617 0.130061 0.487510
vertex 0.737522 0.223241 0.487510
endloop
endfacet
facet normal 0.995902 -0.090434 0.000000
outer loop
vertex 0.745855 0.218965 0.518152
vertex 0.745855 0.218965 0.481848
vertex 0.757310 0.345105 0.481848
endloop
endfacet
facet normal 0.995902 -0.090435 0.000000
outer loop
vertex 0.757310 0.345105 0.481848
vertex 0.757310 0.345105 0.518152
vertex 0.745855 0.218965 0.518152
endloop
endfacet
facet normal -0.543845 0.049385 -0.837732
outer loop
vertex 0.745855 0.218965 0.481848
vertex 0.737522 0.223241 0.487510
vertex 0.748588 0.345105 0.487510
endloop
endfacet
facet normal -0.543852 0.049385 -0.837727
outer loop
vertex 0.748588 0.345105 0.487510
vertex 0.757310 0.345105 0.481848
vertex 0.745855 0.218965 0.481848
endloop
endfacet
facet normal -0.995902 0.090434 0.000000
outer loop
vertex 0.748588 0.345105 0.512490
vertex 0.748588 0.345105 0.487510
vertex 0.737522 0.223241 0.487510
endloop
endfacet
facet normal -0.995902 0.090436 0.000000
outer loop
vertex 0.737522 0.223241 0.487510
vertex 0.737522 0.223241 0.512490
vertex 0.748588 0.345105 0.512490
endloop
endfacet
facet normal -0.543839 0.049386 0.837735
outer loop
vertex 0.757310 0.345105 0.518152
vertex 0.748588 0.345105 0.512490
vertex 0.737522 0.223241 0.512490
endloop
endfacet
facet normal -0.543853 0.049384 0.837726
outer loop
vertex 0.737522 0.223241 0.512490
vertex 0.745855 0.218965 0.518152
vertex 0.757310 0.345105 0.518152
endloop
endfacet
facet normal -0.719416 -0.694579 0.000000
outer loop
vertex 0.714901 0.122516 0.518152
vertex 0.707617 0.130061 0.512490
vertex 0.707617 0.130061 0.487510
endloop
endfacet
facet normal -0.719419 -0.694576 0.000000
outer loop
vertex 0.707617 0.130061 0.487510
vertex 0.714901 0.122516 0.481848
vertex 0.714901 0.122516 0.518152
endloop
endfacet
facet normal -0.719423 0.694572 0.000000
outer loop
vertex 0.707617 0.560148 0.487510
vertex 0.707617 0.560148 0.512490
vertex 0.714901 0.567693 0.518152
endloop
endfacet
facet normal -0.719420 0.694576 0.000000
outer loop
vertex 0.714901 0.567693 0.518152
vertex 0.714901 0.567693 0.481848
vertex 0.707617 0.560148 0.487510
endloop
endfacet
facet normal -0.946690 -0.322146 0.000000
outer loop
vertex 0.726506 0.520729 0.502431
vertex 0.726506 0.520729 0.497569
vertex 0.728203 0.515743 0.497569
endloop
endfacet
facet normal -0.946692 -0.322140 0.000000
outer loop
vertex 0.728203 0.515743 0.497569
vertex 0.728203 0.515743 0.502431
vertex 0.726506 0.520729 0.502431
endloop
endfacet
facet normal 0.000002 0.000000 -1.000000
outer loop
vertex 0.726506 0.520729 0.497569
vertex 0.799658 0.550542 0.497569
vertex 0.801355 0.545555 0.497569
endloop
endfacet
facet normal -0.000002 0.000000 -1.000000
outer loop
vertex 0.801355 0.545555 0.497569
vertex 0.728203 0.515743 0.497569
vertex 0.726506 0.520729 0.497569
endloop
endfacet
facet normal 0.946684 0.322162 0.000000
outer loop
vertex 0.799658 0.550542 0.497569
vertex 0.799658 0.550542 0.502431
vertex 0.801355 0.545555 0.502431
endloop
endfacet
facet normal 0.946690 0.322146 0.000000
outer loop
vertex 0.801355 0.545555 0.502431
vertex 0.801355 0.545555 0.497569
vertex 0.799658 0.550542 0.497569
endloop
endfacet
facet normal -0.000001 0.000000 1.000000
outer loop
vertex 0.799658 0.550542 0.502431
vertex 0.726506 0.520729 0.502431
vertex 0.728203 0.515743 0.502431
endloop
endfacet
facet normal 0.000002 0.000000 1.000000
outer loop
vertex 0.728203 0.515743 0.502431
vertex 0.801355 0.545555 0.502431
vertex 0.799658 0.550542 0.502431
endloop
endfacet
facet normal 0.377404 -0.926049 0.000000
outer loop
vertex 0.728203 0.515743 0.502431
vertex 0.728203 0.515743 0.497569
vertex 0.801355 0.545555 0.497569
endloop
endfacet
facet normal 0.377407 -0.926047 0.000000
outer loop
vertex 0.801355 0.545555 0.497569
vertex 0.801355 0.545555 0.502431
vertex 0.728203 0.515743 0.502431
endloop
endfacet
facet normal -0.377404 0.926049 0.000000
outer loop
vertex 0.799658 0.550542 0.502431
vertex 0.799658 0.550542 0.497569
vertex 0.726506 0.520729 0.497569
endloop
endfacet
facet normal -0.377408 0.926047 0.000000
outer loop
vertex 0.726506 0.520729 0.497569
vertex 0.726506 0.520729 0.502431
vertex 0.799658 0.550542 0.502431
endloop
endfacet
facet normal -0.993274 -0.115787 0.000000
outer loop
vertex 0.747815 0.410885 0.502431
vertex 0.747815 0.410885 0.497569
vertex 0.748430 0.405607 0.497569
endloop
endfacet
facet normal -0.993278 -0.115751 0.000000
outer loop
vertex 0.748430 0.405607 0.497569
vertex 0.748430 0.405607 0.502431
vertex 0.747815 0.410885 0.502431
endloop
endfacet
facet normal 0.000000 -0.000000 -1.000000
outer loop
vertex 0.747815 0.410885 0.497569
vertex 0.825247 0.421695 0.497569
vertex 0.825862 0.416417 0.497569
endloop
endfacet
facet normal -0.000001 -0.000000 -1.000000
outer loop
vertex 0.825862 0.416417 0.497569
vertex 0.748430 0.405607 0.497569
vertex 0.747815 0.410885 0.497569
endloop
endfacet
facet normal 0.993274 0.115785 0.000000
outer loop
vertex 0.825247 0.421695 0.497569
vertex 0.825247 0.421695 0.502431
vertex 0.825862 0.416417 0.502431
endloop
endfacet
facet normal 0.993278 0.115751 0.000000
outer loop
vertex 0.825862 0.416417 0.502431
vertex 0.825862 0.416417 0.497569
vertex 0.825247 0.421695 0.497569
endloop
endfacet
facet normal 0.000000 0.000000 1.000000
outer loop
vertex 0.825247 0.421695 0.502431
vertex 0.747815 0.410885 0.502431
vertex 0.748430 0.405607 0.502431
endloop
endfacet
facet normal 0.000000 0.000000 1.000000
outer loop
vertex 0.748430 0.405607 0.502431
vertex 0.825862 0.416417 0.502431
vertex 0.825247 0.421695 0.502431
endloop
endfacet
facet normal 0.138256 -0.990396 0.000000
outer loop
vertex 0.748430 0.405607 0.502431
vertex 0.748430 0.405607 0.497569
vertex 0.825862 0.416417 0.497569
endloop
endfacet
facet normal 0.138257 -0.990396 0.000000
outer loop
vertex 0.825862 0.416417 0.497569
vertex 0.825862 0.416417 0.502431
vertex 0.748430 0.405607 0.502431
endloop
endfacet
facet normal -0.138258 0.990396 0.000000
outer loop
vertex 0.825247 0.421695 0.502431
vertex 0.825247 0.421695 0.497569
vertex 0.747815 0.410885 0.497569
endloop
endfacet
facet normal -0.138256 0.990396 0.000000
outer loop
vertex 0.747815 0.410885 0.497569
vertex 0.747815 0.410885 0.502431
vertex 0.825247 0.421695 0.502431
endloop
endfacet
facet normal -0.993278 0.115751 0.000000
outer loop
vertex 0.747815 0.279324 0.502431
vertex 0.748430 0.284602 0.502431
vertex 0.748430 0.284602 0.497569
endloop
endfacet
facet normal -0.993274 0.115787 0.000000
outer loop
vertex 0.748430 0.284602 0.497569
vertex 0.747815 0.279324 0.497569
vertex 0.747815 0.279324 0.502431
endloop
endfacet
facet normal 0.000000 0.000000 -1.000000
outer loop
vertex 0.747815 0.279324 0.497569
vertex 0.748430 0.284602 0.497569
vertex 0.825862 0.273792 0.497569
endloop
endfacet
facet normal 0.000000 0.000000 -1.000000
outer loop
vertex 0.825862 0.273792 0.497569
vertex 0.825247 0.268514 0.497569
vertex 0.747815 0.279324 0.497569
endloop
endfacet
facet normal 0.993278 -0.115751 0.000000
outer loop
vertex 0.825247 0.268514 0.497569
vertex 0.825862 0.273792 0.497569
vertex 0.825862 0.273792 0.502431
endloop
endfacet
facet normal 0.993274 -0.115787 0.000000
outer loop
vertex 0.825862 0.273792 0.502431
vertex 0.825247 0.268514 0.502431
vertex 0.825247 0.268514 0.497569
endloop
endfacet
facet normal 0.000000 0.000000 1.000000
outer loop
vertex 0.825247 0.268514 0.502431
vertex 0.825862 0.273792 0.502431
vertex 0.748430 0.284602 0.502431
endloop
endfacet
facet normal 0.000000 0.000000 1.000000
outer loop
vertex 0.748430 0.284602 0.502431
vertex 0.747815 0.279324 0.502431
vertex 0.825247 0.268514 0.502431
endloop
endfacet
facet normal 0.138257 0.990396 0.000000
outer loop
vertex 0.748430 0.284602 0.502431
vertex 0.825862 0.273792 0.502431
vertex 0.825862 0.273792 0.497569
endloop
endfacet
facet normal 0.138255 0.990397 0.000000
outer loop
vertex 0.825862 0.273792 0.497569
vertex 0.748430 0.284602 0.497569
vertex 0.748430 0.284602 0.502431
endloop
endfacet
facet normal -0.138258 -0.990396 0.000000
outer loop
vertex 0.825247 0.268514 0.502431
vertex 0.747815 0.279324 0.502431
vertex 0.747815 0.279324 0.497569
endloop
endfacet
facet normal -0.138255 -0.990397 0.000000
outer loop
vertex 0.747815 0.279324 0.497569
vertex 0.825247 0.268514 0.497569
vertex 0.825247 0.268514 0.502431
endloop
endfacet
facet normal -0.939909 0.341426 0.000000
outer loop
vertex 0.727599 0.170712 0.502431
vertex 0.729395 0.175656 0.502431
vertex 0.729395 0.175656 0.497569
endloop
endfacet
facet normal -0.939895 0.341464 0.000000
outer loop
vertex 0.729395 0.175656 0.497569
vertex 0.727599 0.170712 0.497569
vertex 0.727599 0.170712 0.502431
endloop
endfacet
facet normal 0.000009 0.000005 -1.000000
outer loop
vertex 0.727599 0.170712 0.497569
vertex 0.729395 0.175656 0.497569
vertex 0.801933 0.144098 0.497569
endloop
endfacet
facet normal 0.000000 0.000000 -1.000000
outer loop
vertex 0.801933 0.144098 0.497569
vertex 0.800137 0.139154 0.497569
vertex 0.727599 0.170712 0.497569
endloop
endfacet
facet normal 0.939903 -0.341442 0.000000
outer loop
vertex 0.800137 0.139154 0.497569
vertex 0.801933 0.144098 0.497569
vertex 0.801933 0.144098 0.502431
endloop
endfacet
facet normal 0.939903 -0.341442 0.000000
outer loop
vertex 0.801933 0.144098 0.502431
vertex 0.800137 0.139154 0.502431
vertex 0.800137 0.139154 0.497569
endloop
endfacet
facet normal 0.000000 0.000000 1.000000
outer loop
vertex 0.800137 0.139154 0.502431
vertex 0.801933 0.144098 0.502431
vertex 0.729395 0.175656 0.502431
endloop
endfacet
facet normal 0.000000 0.000000 1.000000
outer loop
vertex 0.729395 0.175656 0.502431
vertex 0.727599 0.170712 0.502431
vertex 0.800137 0.139154 0.502431
endloop
endfacet
facet normal 0.398938 0.916978 0.000000
outer loop
vertex 0.729395 0.175656 0.502431
vertex 0.801933 0.144098 0.502431
vertex 0.801933 0.144098 0.497569
endloop
endfacet
facet normal 0.398933 0.916980 0.000000
outer loop
vertex 0.801933 0.144098 0.497569
vertex 0.729395 0.175656 0.497569
vertex 0.729395 0.175656 0.502431
endloop
endfacet
facet normal -0.398939 -0.916978 0.000000
outer loop
vertex 0.800137 0.139154 0.502431
vertex 0.727599 0.170712 0.502431
vertex 0.727599 0.170712 0.497569
endloop
endfacet
facet normal -0.398939 -0.916978 0.000000
outer loop
vertex 0.727599 0.170712 0.497569
vertex 0.800137 0.139154 0.497569
vertex 0.800137 0.139154 0.502431
endloop
endfacet
facet normal 0.995902 -0.090434 0.000000
outer loop
vertex 0.262478 0.466969 0.512490
vertex 0.251412 0.345105 0.512490
vertex 0.251412 0.345105 0.487510
endloop
endfacet
facet normal 0.995902 -0.090435 0.000000
outer loop
vertex 0.251412 0.345105 0.487510
vertex 0.262478 0.466969 0.487510
vertex 0.262478 0.466969 0.512490
endloop
endfacet
facet normal 0.952165 -0.305585 0.000000
outer loop
vertex 0.292383 0.560148 0.512490
vertex 0.262478 0.466969 0.512490
vertex 0.262478 0.466969 0.487510
endloop
endfacet
facet normal 0.952164 -0.305586 0.000000
outer loop
vertex 0.262478 0.466969 0.487510
vertex 0.292383 0.560148 0.487510
vertex 0.292383 0.560148 0.512490
endloop
endfacet
facet normal -0.995902 0.090435 0.000000
outer loop
vertex 0.254145 0.471244 0.518152
vertex 0.254145 0.471244 0.481848
vertex 0.242690 0.345105 0.481848
endloop
endfacet
facet normal -0.995902 0.090435 0.000000
outer loop
vertex 0.242690 0.345105 0.481848
vertex 0.242690 0.345105 0.518152
vertex 0.254145 0.471244 0.518152
endloop
endfacet
facet normal -0.952165 0.305585 0.000000
outer loop
vertex 0.285099 0.567693 0.518152
vertex 0.285099 0.567693 0.481848
vertex 0.254145 0.471244 0.481848
endloop
endfacet
facet normal -0.952165 0.305585 0.000000
outer loop
vertex 0.254145 0.471244 0.481848
vertex 0.254145 0.471244 0.518152
vertex 0.285099 0.567693 0.518152
endloop
endfacet
facet normal 0.543848 -0.049385 -0.837730
outer loop
vertex 0.251412 0.345105 0.487510
vertex 0.242690 0.345105 0.481848
vertex 0.254145 0.471244 0.481848
endloop
endfacet
facet normal 0.543849 -0.049385 -0.837729
outer loop
vertex 0.254145 0.471244 0.481848
vertex 0.262478 0.466969 0.487510
vertex 0.251412 0.345105 0.487510
endloop
endfacet
facet normal 0.497438 -0.159647 -0.852683
outer loop
vertex 0.262478 0.466969 0.487510
vertex 0.254145 0.471244 0.481848
vertex 0.285099 0.567693 0.481848
endloop
endfacet
facet normal 0.497439 -0.159646 -0.852683
outer loop
vertex 0.285099 0.567693 0.481848
vertex 0.292383 0.560148 0.487510
vertex 0.262478 0.466969 0.487510
endloop
endfacet
facet normal 0.543852 -0.049385 0.837727
outer loop
vertex 0.262478 0.466969 0.512490
vertex 0.254145 0.471244 0.518152
vertex 0.242690 0.345105 0.518152
endloop
endfacet
facet normal 0.543840 -0.049385 0.837735
outer loop
vertex 0.242690 0.345105 0.518152
vertex 0.251412 0.345105 0.512490
vertex 0.262478 0.466969 0.512490
endloop
endfacet
facet normal 0.497443 -0.159646 0.852680
outer loop
vertex 0.292383 0.560148 0.512490
vertex 0.285099 0.567693 0.518152
vertex 0.254145 0.471244 0.518152
endloop
endfacet
facet normal 0.497433 -0.159647 0.852686
outer loop
vertex 0.254145 0.471244 0.518152
vertex 0.262478 0.466969 0.512490
vertex 0.292383 0.560148 0.512490
endloop
endfacet
facet normal 0.952165 0.305585 0.000000
outer loop
vertex 0.292383 0.130061 0.512490
vertex 0.292383 0.130061 0.487510
vertex 0.262478 0.223241 0.487510
endloop
endfacet
facet normal 0.952165 0.305586 0.000000
outer loop
vertex 0.262478 0.223241 0.487510
vertex 0.262478 0.223241 0.512490
vertex 0.292383 0.130061 0.512490
endloop
endfacet
facet normal 0.497435 0.159647 0.852685
outer loop
vertex 0.292383 0.130061 0.512490
vertex 0.262478 0.223241 0.512490
vertex 0.254145 0.218965 0.518152
endloop
endfacet
facet normal 0.497440 0.159646 0.852682
outer loop
vertex 0.254145 0.218965 0.518152
vertex 0.285099 0.122516 0.518152
vertex 0.292383 0.130061 0.512490
endloop
endfacet
facet normal -0.952165 -0.305586 0.000000
outer loop
vertex 0.285099 0.122516 0.518152
vertex 0.254145 0.218965 0.518152
vertex 0.254145 0.218965 0.481848
endloop
endfacet
facet normal -0.952165 -0.305586 0.000000
outer loop
vertex 0.254145 0.218965 0.481848
vertex 0.285099 0.122516 0.481848
vertex 0.285099 0.122516 0.518152
endloop
endfacet
facet normal 0.497441 0.159646 -0.852681
outer loop
vertex 0.262478 0.223241 0.487510
vertex 0.292383 0.130061 0.487510
vertex 0.285099 0.122516 0.481848
endloop
endfacet
facet normal 0.497434 0.159647 -0.852686
outer loop
vertex 0.285099 0.122516 0.481848
vertex 0.254145 0.218965 0.481848
vertex 0.262478 0.223241 0.487510
endloop
endfacet
facet normal -0.995902 -0.090435 0.000000
outer loop
vertex 0.254145 0.218965 0.518152
vertex 0.242690 0.345105 0.518152
vertex 0.242690 0.345105 0.481848
endloop
endfacet
facet normal -0.995902 -0.090435 0.000000
outer loop
vertex 0.242690 0.345105 0.481848
vertex 0.254145 0.218965 0.481848
vertex 0.254145 0.218965 0.518152
endloop
endfacet
facet normal 0.543852 0.049385 -0.837727
outer loop
vertex 0.254145 0.218965 0.481848
vertex 0.242690 0.345105 0.481848
vertex 0.251412 0.345105 0.487510
endloop
endfacet
facet normal 0.543844 0.049386 -0.837732
outer loop
vertex 0.251412 0.345105 0.487510
vertex 0.262478 0.223241 0.487510
vertex 0.254145 0.218965 0.481848
endloop
endfacet
facet normal 0.995902 0.090435 0.000000
outer loop
vertex 0.262478 0.223241 0.487510
vertex 0.251412 0.345105 0.487510
vertex 0.251412 0.345105 0.512490
endloop
endfacet
facet normal 0.995902 0.090435 0.000000
outer loop
vertex 0.251412 0.345105 0.512490
vertex 0.262478 0.223241 0.512490
vertex 0.262478 0.223241 0.487510
endloop
endfacet
facet normal 0.543839 0.049385 0.837735
outer loop
vertex 0.262478 0.223241 0.512490
vertex 0.251412 0.345105 0.512490
vertex 0.242690 0.345105 0.518152
endloop
endfacet
facet normal 0.543856 0.049385 0.837724
outer loop
vertex 0.242690 0.345105 0.518152
vertex 0.254145 0.218965 0.518152
vertex 0.262478 0.223241 0.512490
endloop
endfacet
facet normal 0.719416 -0.694579 0.000000
outer loop
vertex 0.285099 0.122516 0.518152
vertex 0.285099 0.122516 0.481848
vertex 0.292383 0.130061 0.487510
endloop
endfacet
facet normal 0.719416 -0.694580 0.000000
outer loop
vertex 0.292383 0.130061 0.487510
vertex 0.292383 0.130061 0.512490
vertex 0.285099 0.122516 0.518152
endloop
endfacet
facet normal 0.719417 0.694578 0.000000
outer loop
vertex 0.292383 0.560148 0.487510
vertex 0.285099 0.567693 0.481848
vertex 0.285099 0.567693 0.518152
endloop
endfacet
facet normal 0.719420 0.694576 0.000000
outer loop
vertex 0.285099 0.567693 0.518152
vertex 0.292383 0.560148 0.512490
vertex 0.292383 0.560148 0.487510
endloop
endfacet
facet normal 0.946686 -0.322157 0.000000
outer loop
vertex 0.273494 0.520729 0.502431
vertex 0.271797 0.515743 0.502431
vertex 0.271797 0.515743 0.497569
endloop
endfacet
facet normal 0.946690 -0.322146 0.000000
outer loop
vertex 0.271797 0.515743 0.497569
vertex 0.273494 0.520729 0.497569
vertex 0.273494 0.520729 0.502431
endloop
endfacet
facet normal 0.000004 0.000000 -1.000000
outer loop
vertex 0.273494 0.520729 0.497569
vertex 0.271797 0.515743 0.497569
vertex 0.198645 0.545555 0.497569
endloop
endfacet
facet normal -0.000004 0.000000 -1.000000
outer loop
vertex 0.198645 0.545555 0.497569
vertex 0.200342 0.550542 0.497569
vertex 0.273494 0.520729 0.497569
endloop
endfacet
facet normal -0.946690 0.322146 0.000000
outer loop
vertex 0.200342 0.550542 0.497569
vertex 0.198645 0.545555 0.497569
vertex 0.198645 0.545555 0.502431
endloop
endfacet
facet normal -0.946689 0.322150 0.000000
outer loop
vertex 0.198645 0.545555 0.502431
vertex 0.200342 0.550542 0.502431
vertex 0.200342 0.550542 0.497569
endloop
endfacet
facet normal 0.000000 0.000000 1.000000
outer loop
vertex 0.200342 0.550542 0.502431
vertex 0.198645 0.545555 0.502431
vertex 0.271797 0.515743 0.502431
endloop
endfacet
facet normal 0.000000 0.000000 1.000000
outer loop
vertex 0.271797 0.515743 0.502431
vertex 0.273494 0.520729 0.502431
vertex 0.200342 0.550542 0.502431
endloop
endfacet
facet normal -0.377408 -0.926047 0.000000
outer loop
vertex 0.271797 0.515743 0.502431
vertex 0.198645 0.545555 0.502431
vertex 0.198645 0.545555 0.497569
endloop
endfacet
facet normal -0.377404 -0.926049 0.000000
outer loop
vertex 0.198645 0.545555 0.497569
vertex 0.271797 0.515743 0.497569
vertex 0.271797 0.515743 0.502431
endloop
endfacet
facet normal 0.377408 0.926047 0.000000
outer loop
vertex 0.200342 0.550542 0.502431
vertex 0.273494 0.520729 0.502431
vertex 0.273494 0.520729 0.497569
endloop
endfacet
facet normal 0.377403 0.926049 0.000000
outer loop
vertex 0.273494 0.520729 0.497569
vertex 0.200342 0.550542 0.497569
vertex 0.200342 0.550542 0.502431
endloop
endfacet
facet normal 0.993276 -0.115769 0.000000
outer loop
vertex 0.252185 0.410885 0.502431
vertex 0.251570 0.405607 0.502431
vertex 0.251570 0.405607 0.497569
endloop
endfacet
facet normal 0.993275 -0.115778 0.000000
outer loop
vertex 0.251570 0.405607 0.497569
vertex 0.252185 0.410885 0.497569
vertex 0.252185 0.410885 0.502431
endloop
endfacet
facet normal 0.000002 -0.000000 -1.000000
outer loop
vertex 0.252185 0.410885 0.497569
vertex 0.251570 0.405607 0.497569
vertex 0.174138 0.416417 0.497569
endloop
endfacet
facet normal 0.000000 -0.000000 -1.000000
outer loop
vertex 0.174138 0.416417 0.497569
vertex 0.174753 0.421695 0.497569
vertex 0.252185 0.410885 0.497569
endloop
endfacet
facet normal -0.993275 0.115778 0.000000
outer loop
vertex 0.174753 0.421695 0.497569
vertex 0.174138 0.416417 0.497569
vertex 0.174138 0.416417 0.502431
endloop
endfacet
facet normal -0.993275 0.115776 0.000000
outer loop
vertex 0.174138 0.416417 0.502431
vertex 0.174753 0.421695 0.502431
vertex 0.174753 0.421695 0.497569
endloop
endfacet
facet normal 0.000000 0.000000 1.000000
outer loop
vertex 0.174753 0.421695 0.502431
vertex 0.174138 0.416417 0.502431
vertex 0.251570 0.405607 0.502431
endloop
endfacet
facet normal 0.000000 0.000000 1.000000
outer loop
vertex 0.251570 0.405607 0.502431
vertex 0.252185 0.410885 0.502431
vertex 0.174753 0.421695 0.502431
endloop
endfacet
facet normal -0.138258 -0.990396 0.000000
outer loop
vertex 0.251570 0.405607 0.502431
vertex 0.174138 0.416417 0.502431
vertex 0.174138 0.416417 0.497569
endloop
endfacet
facet normal -0.138256 -0.990396 0.000000
outer loop
vertex 0.174138 0.416417 0.497569
vertex 0.251570 0.405607 0.497569
vertex 0.251570 0.405607 0.502431
endloop
endfacet
facet normal 0.138256 0.990396 0.000000
outer loop
vertex 0.174753 0.421695 0.502431
vertex 0.252185 0.410885 0.502431
vertex 0.252185 0.410885 0.497569
endloop
endfacet
facet normal 0.138258 0.990396 0.000000
outer loop
vertex 0.252185 0.410885 0.497569
vertex 0.174753 0.421695 0.497569
vertex 0.174753 0.421695 0.502431
endloop
endfacet
facet normal 0.993275 0.115778 0.000000
outer loop
vertex 0.252185 0.279324 0.502431
vertex 0.252185 0.279324 0.497569
vertex 0.251570 0.284602 0.497569
endloop
endfacet
facet normal 0.993275 0.115778 0.000000
outer loop
vertex 0.251570 0.284602 0.497569
vertex 0.251570 0.284602 0.502431
vertex 0.252185 0.279324 0.502431
endloop
endfacet
facet normal 0.000000 0.000000 -1.000000
outer loop
vertex 0.252185 0.279324 0.497569
vertex 0.174753 0.268514 0.497569
vertex 0.174138 0.273792 0.497569
endloop
endfacet
facet normal 0.000000 0.000000 -1.000000
outer loop
vertex 0.174138 0.273792 0.497569
vertex 0.251570 0.284602 0.497569
vertex 0.252185 0.279324 0.497569
endloop
endfacet
facet normal -0.993275 -0.115778 0.000000
outer loop
vertex 0.174753 0.268514 0.497569
vertex 0.174753 0.268514 0.502431
vertex 0.174138 0.273792 0.502431
endloop
endfacet
facet normal -0.993275 -0.115778 0.000000
outer loop
vertex 0.174138 0.273792 0.502431
vertex 0.174138 0.273792 0.497569
vertex 0.174753 0.268514 0.497569
endloop
endfacet
facet normal 0.000001 0.000000 1.000000
outer loop
vertex 0.174753 0.268514 0.502431
vertex 0.252185 0.279324 0.502431
vertex 0.251570 0.284602 0.502431
endloop
endfacet
facet normal -0.000001 0.000000 1.000000
outer loop
vertex 0.251570 0.284602 0.502431
vertex 0.174138 0.273792 0.502431
vertex 0.174753 0.268514 0.502431
endloop
endfacet
facet normal -0.138255 0.990397 0.000000
outer loop
vertex 0.251570 0.284602 0.502431
vertex 0.251570 0.284602 0.497569
vertex 0.174138 0.273792 0.497569
endloop
endfacet
facet normal -0.138258 0.990396 0.000000
outer loop
vertex 0.174138 0.273792 0.497569
vertex 0.174138 0.273792 0.502431
vertex 0.251570 0.284602 0.502431
endloop
endfacet
facet normal 0.138255 -0.990397 0.000000
outer loop
vertex 0.174753 0.268514 0.502431
vertex 0.174753 0.268514 0.497569
vertex 0.252185 0.279324 0.497569
endloop
endfacet
facet normal 0.138258 -0.990396 0.000000
outer loop
vertex 0.252185 0.279324 0.497569
vertex 0.252185 0.279324 0.502431
vertex 0.174753 0.268514 0.502431
endloop
endfacet
facet normal 0.939899 0.341452 0.000000
outer loop
vertex 0.272401 0.170712 0.502431
vertex 0.272401 0.170712 0.497569
vertex 0.270605 0.175656 0.497569
endloop
endfacet
facet normal 0.939906 0.341434 0.000000
outer loop
vertex 0.270605 0.175656 0.497569
vertex 0.270605 0.175656 0.502431
vertex 0.272401 0.170712 0.502431
endloop
endfacet
facet normal -0.000002 0.000000 -1.000000
outer loop
vertex 0.272401 0.170712 0.497569
vertex 0.199863 0.139154 0.497569
vertex 0.198067 0.144098 0.497569
endloop
endfacet
facet normal -0.000006 0.000005 -1.000000
outer loop
vertex 0.198067 0.144098 0.497569
vertex 0.270605 0.175656 0.497569
vertex 0.272401 0.170712 0.497569
endloop
endfacet
facet normal -0.939904 -0.341438 0.000000
outer loop
vertex 0.199863 0.139154 0.497569
vertex 0.199863 0.139154 0.502431
vertex 0.198067 0.144098 0.502431
endloop
endfacet
facet normal -0.939906 -0.341434 0.000000
outer loop
vertex 0.198067 0.144098 0.502431
vertex 0.198067 0.144098 0.497569
vertex 0.199863 0.139154 0.497569
endloop
endfacet
facet normal 0.000000 0.000000 1.000000
outer loop
vertex 0.199863 0.139154 0.502431
vertex 0.272401 0.170712 0.502431
vertex 0.270605 0.175656 0.502431
endloop
endfacet
facet normal 0.000000 0.000000 1.000000
outer loop
vertex 0.270605 0.175656 0.502431
vertex 0.198067 0.144098 0.502431
vertex 0.199863 0.139154 0.502431
endloop
endfacet
facet normal -0.398933 0.916980 0.000000
outer loop
vertex 0.270605 0.175656 0.502431
vertex 0.270605 0.175656 0.497569
vertex 0.198067 0.144098 0.497569
endloop
endfacet
facet normal -0.398939 0.916977 0.000000
outer loop
vertex 0.198067 0.144098 0.497569
vertex 0.198067 0.144098 0.502431
vertex 0.270605 0.175656 0.502431
endloop
endfacet
facet normal 0.398939 -0.916978 0.000000
outer loop
vertex 0.199863 0.139154 0.502431
vertex 0.199863 0.139154 0.497569
vertex 0.272401 0.170712 0.497569
endloop
endfacet
facet normal 0.398939 -0.916978 0.000000
outer loop
vertex 0.272401 0.170712 0.497569
vertex 0.272401 0.170712 0.502431
vertex 0.199863 0.139154 0.502431
endloop
endfacet
endsolid Exported from Blender-2.76 (sub 0)
