solid Exported from Blender-2.76 (sub 0)
facet normal 0.866025 0.000000 -0.500000
outer loop
vertex 0.889767 0.024323 0.500000
vertex 0.889767 0.000000 0.500000
vertex 0.694883 0.000000 0.162452
endloop
endfacet
facet normal 0.866025 0.000000 -0.500000
outer loop
vertex 0.694883 0.000000 0.162452
vertex 0.694883 0.024323 0.162452
vertex 0.889767 0.024323 0.500000
endloop
endfacet
facet normal 0.000000 0.000000 -1.000000
outer loop
vertex 0.694883 0.024323 0.162452
vertex 0.694883 0.000000 0.162452
vertex 0.305116 0.000000 0.162452
endloop
endfacet
facet normal 0.000000 0.000000 -1.000000
outer loop
vertex 0.305116 0.000000 0.162452
vertex 0.305116 0.024323 0.162452
vertex 0.694883 0.024323 0.162452
endloop
endfacet
facet normal -0.866025 0.000000 -0.500000
outer loop
vertex 0.305116 0.024323 0.162452
vertex 0.305116 0.000000 0.162452
vertex 0.110233 0.000000 0.500000
endloop
endfacet
facet normal -0.866026 0.000000 -0.500000
outer loop
vertex 0.110233 0.000000 0.500000
vertex 0.110233 0.024323 0.500000
vertex 0.305116 0.024323 0.162452
endloop
endfacet
facet normal -0.866025 0.000000 0.500000
outer loop
vertex 0.110233 0.024323 0.500000
vertex 0.110233 0.000000 0.500000
vertex 0.305117 0.000000 0.837548
endloop
endfacet
facet normal -0.866025 0.000000 0.500000
outer loop
vertex 0.305117 0.000000 0.837548
vertex 0.305117 0.024323 0.837548
vertex 0.110233 0.024323 0.500000
endloop
endfacet
facet normal 0.000000 0.000000 1.000000
outer loop
vertex 0.305117 0.024323 0.837548
vertex 0.305117 0.000000 0.837548
vertex 0.694883 0.000000 0.837548
endloop
endfacet
facet normal 0.000000 0.000000 1.000000
outer loop
vertex 0.694883 0.000000 0.837548
vertex 0.694883 0.024323 0.837548
vertex 0.305117 0.024323 0.837548
endloop
endfacet
facet normal 0.866025 0.000000 0.500000
outer loop
vertex 0.694883 0.024323 0.837548
vertex 0.694883 0.000000 0.837548
vertex 0.889767 0.000000 0.500000
endloop
endfacet
facet normal 0.866025 0.000000 0.500000
outer loop
vertex 0.889767 0.000000 0.500000
vertex 0.889767 0.024323 0.500000
vertex 0.694883 0.024323 0.837548
endloop
endfacet
facet normal 0.438048 0.862642 -0.252907
outer loop
vertex 0.854547 0.042208 0.500000
vertex 0.889767 0.024323 0.500000
vertex 0.694883 0.024323 0.162452
endloop
endfacet
facet normal 0.438049 0.862641 -0.252908
outer loop
vertex 0.694883 0.024323 0.162452
vertex 0.677273 0.042208 0.192953
vertex 0.854547 0.042208 0.500000
endloop
endfacet
facet normal 0.000000 0.862642 -0.505815
outer loop
vertex 0.677273 0.042208 0.192953
vertex 0.694883 0.024323 0.162452
vertex 0.305116 0.024323 0.162452
endloop
endfacet
facet normal -0.000000 0.862642 -0.505815
outer loop
vertex 0.305116 0.024323 0.162452
vertex 0.322727 0.042208 0.192953
vertex 0.677273 0.042208 0.192953
endloop
endfacet
facet normal -0.438048 0.862643 -0.252907
outer loop
vertex 0.322727 0.042208 0.192953
vertex 0.305116 0.024323 0.162452
vertex 0.110233 0.024323 0.500000
endloop
endfacet
facet normal -0.438049 0.862642 -0.252907
outer loop
vertex 0.110233 0.024323 0.500000
vertex 0.145453 0.042208 0.500000
vertex 0.322727 0.042208 0.192953
endloop
endfacet
facet normal -0.438048 0.862642 0.252907
outer loop
vertex 0.145453 0.042208 0.500000
vertex 0.110233 0.024323 0.500000
vertex 0.305117 0.024323 0.837548
endloop
endfacet
facet normal -0.438049 0.862642 0.252908
outer loop
vertex 0.305117 0.024323 0.837548
vertex 0.322727 0.042208 0.807047
vertex 0.145453 0.042208 0.500000
endloop
endfacet
facet normal 0.000000 0.862642 0.505815
outer loop
vertex 0.322727 0.042208 0.807047
vertex 0.305117 0.024323 0.837548
vertex 0.694883 0.024323 0.837548
endloop
endfacet
facet normal 0.000000 0.862642 0.505815
outer loop
vertex 0.694883 0.024323 0.837548
vertex 0.677273 0.042208 0.807047
vertex 0.322727 0.042208 0.807047
endloop
endfacet
facet normal 0.438048 0.862642 0.252907
outer loop
vertex 0.677273 0.042208 0.807047
vertex 0.694883 0.024323 0.837548
vertex 0.889767 0.024323 0.500000
endloop
endfacet
facet normal 0.438048 0.862642 0.252907
outer loop
vertex 0.889767 0.024323 0.500000
vertex 0.854547 0.042208 0.500000
vertex 0.677273 0.042208 0.807047
endloop
endfacet
facet normal 0.315299 -0.931369 -0.182038
outer loop
vertex 0.896811 0.056516 0.500000
vertex 0.854547 0.042208 0.500000
vertex 0.677273 0.042208 0.192953
endloop
endfacet
facet normal 0.315299 -0.931369 -0.182038
outer loop
vertex 0.677273 0.042208 0.192953
vertex 0.698406 0.056516 0.156352
vertex 0.896811 0.056516 0.500000
endloop
endfacet
facet normal 0.000000 -0.931369 -0.364076
outer loop
vertex 0.698406 0.056516 0.156352
vertex 0.677273 0.042208 0.192953
vertex 0.322727 0.042208 0.192953
endloop
endfacet
facet normal 0.000000 -0.931369 -0.364076
outer loop
vertex 0.322727 0.042208 0.192953
vertex 0.301594 0.056516 0.156352
vertex 0.698406 0.056516 0.156352
endloop
endfacet
facet normal -0.315299 -0.931369 -0.182038
outer loop
vertex 0.301594 0.056516 0.156352
vertex 0.322727 0.042208 0.192953
vertex 0.145453 0.042208 0.500000
endloop
endfacet
facet normal -0.315299 -0.931369 -0.182038
outer loop
vertex 0.145453 0.042208 0.500000
vertex 0.103189 0.056516 0.500000
vertex 0.301594 0.056516 0.156352
endloop
endfacet
facet normal -0.315299 -0.931369 0.182038
outer loop
vertex 0.103189 0.056516 0.500000
vertex 0.145453 0.042208 0.500000
vertex 0.322727 0.042208 0.807047
endloop
endfacet
facet normal -0.315299 -0.931369 0.182038
outer loop
vertex 0.322727 0.042208 0.807047
vertex 0.301594 0.056516 0.843648
vertex 0.103189 0.056516 0.500000
endloop
endfacet
facet normal 0.000000 -0.931369 0.364076
outer loop
vertex 0.301594 0.056516 0.843648
vertex 0.322727 0.042208 0.807047
vertex 0.677273 0.042208 0.807047
endloop
endfacet
facet normal 0.000000 -0.931369 0.364076
outer loop
vertex 0.677273 0.042208 0.807047
vertex 0.698405 0.056516 0.843648
vertex 0.301594 0.056516 0.843648
endloop
endfacet
facet normal 0.315299 -0.931369 0.182038
outer loop
vertex 0.698405 0.056516 0.843648
vertex 0.677273 0.042208 0.807047
vertex 0.854547 0.042208 0.500000
endloop
endfacet
facet normal 0.315298 -0.931370 0.182037
outer loop
vertex 0.854547 0.042208 0.500000
vertex 0.896811 0.056516 0.500000
vertex 0.698405 0.056516 0.843648
endloop
endfacet
facet normal 0.866025 0.000000 -0.500000
outer loop
vertex 0.896811 0.076785 0.500000
vertex 0.896811 0.056516 0.500000
vertex 0.698406 0.056516 0.156352
endloop
endfacet
facet normal 0.866025 0.000000 -0.500000
outer loop
vertex 0.698406 0.056516 0.156352
vertex 0.698406 0.076785 0.156352
vertex 0.896811 0.076785 0.500000
endloop
endfacet
facet normal 0.000000 0.000000 -1.000000
outer loop
vertex 0.698406 0.076785 0.156352
vertex 0.698406 0.056516 0.156352
vertex 0.301594 0.056516 0.156352
endloop
endfacet
facet normal 0.000000 0.000000 -1.000000
outer loop
vertex 0.301594 0.056516 0.156352
vertex 0.301594 0.076785 0.156352
vertex 0.698406 0.076785 0.156352
endloop
endfacet
facet normal -0.866025 0.000000 -0.500000
outer loop
vertex 0.301594 0.076785 0.156352
vertex 0.301594 0.056516 0.156352
vertex 0.103189 0.056516 0.500000
endloop
endfacet
facet normal -0.866025 0.000000 -0.500000
outer loop
vertex 0.103189 0.056516 0.500000
vertex 0.103189 0.076785 0.500000
vertex 0.301594 0.076785 0.156352
endloop
endfacet
facet normal -0.866025 0.000000 0.500000
outer loop
vertex 0.103189 0.076785 0.500000
vertex 0.103189 0.056516 0.500000
vertex 0.301594 0.056516 0.843648
endloop
endfacet
facet normal -0.866026 0.000000 0.500000
outer loop
vertex 0.301594 0.056516 0.843648
vertex 0.301594 0.076785 0.843648
vertex 0.103189 0.076785 0.500000
endloop
endfacet
facet normal 0.000000 0.000000 1.000000
outer loop
vertex 0.301594 0.076785 0.843648
vertex 0.301594 0.056516 0.843648
vertex 0.698405 0.056516 0.843648
endloop
endfacet
facet normal 0.000000 0.000000 1.000000
outer loop
vertex 0.698405 0.056516 0.843648
vertex 0.698405 0.076785 0.843648
vertex 0.301594 0.076785 0.843648
endloop
endfacet
facet normal 0.866025 0.000000 0.500000
outer loop
vertex 0.698405 0.076785 0.843648
vertex 0.698405 0.056516 0.843648
vertex 0.896811 0.056516 0.500000
endloop
endfacet
facet normal 0.866025 0.000000 0.500000
outer loop
vertex 0.896811 0.056516 0.500000
vertex 0.896811 0.076785 0.500000
vertex 0.698405 0.076785 0.843648
endloop
endfacet
facet normal 0.315299 0.931369 -0.182038
outer loop
vertex 0.826371 0.100632 0.500000
vertex 0.896811 0.076785 0.500000
vertex 0.698406 0.076785 0.156352
endloop
endfacet
facet normal 0.315299 0.931369 -0.182038
outer loop
vertex 0.698406 0.076785 0.156352
vertex 0.663185 0.100632 0.217355
vertex 0.826371 0.100632 0.500000
endloop
endfacet
facet normal 0.000000 0.931369 -0.364076
outer loop
vertex 0.663185 0.100632 0.217355
vertex 0.698406 0.076785 0.156352
vertex 0.301594 0.076785 0.156352
endloop
endfacet
facet normal 0.000000 0.931369 -0.364076
outer loop
vertex 0.301594 0.076785 0.156352
vertex 0.336815 0.100632 0.217355
vertex 0.663185 0.100632 0.217355
endloop
endfacet
facet normal -0.315299 0.931369 -0.182038
outer loop
vertex 0.336815 0.100632 0.217355
vertex 0.301594 0.076785 0.156352
vertex 0.103189 0.076785 0.500000
endloop
endfacet
facet normal -0.315299 0.931369 -0.182038
outer loop
vertex 0.103189 0.076785 0.500000
vertex 0.173629 0.100632 0.500000
vertex 0.336815 0.100632 0.217355
endloop
endfacet
facet normal -0.315299 0.931369 0.182038
outer loop
vertex 0.173629 0.100632 0.500000
vertex 0.103189 0.076785 0.500000
vertex 0.301594 0.076785 0.843648
endloop
endfacet
facet normal -0.315299 0.931369 0.182038
outer loop
vertex 0.301594 0.076785 0.843648
vertex 0.336815 0.100631 0.782645
vertex 0.173629 0.100632 0.500000
endloop
endfacet
facet normal 0.000000 0.931369 0.364076
outer loop
vertex 0.336815 0.100631 0.782645
vertex 0.301594 0.076785 0.843648
vertex 0.698405 0.076785 0.843648
endloop
endfacet
facet normal 0.000000 0.931369 0.364076
outer loop
vertex 0.698405 0.076785 0.843648
vertex 0.663185 0.100631 0.782645
vertex 0.336815 0.100631 0.782645
endloop
endfacet
facet normal 0.315299 0.931369 0.182038
outer loop
vertex 0.663185 0.100631 0.782645
vertex 0.698405 0.076785 0.843648
vertex 0.896811 0.076785 0.500000
endloop
endfacet
facet normal 0.315299 0.931369 0.182038
outer loop
vertex 0.896811 0.076785 0.500000
vertex 0.826371 0.100632 0.500000
vertex 0.663185 0.100631 0.782645
endloop
endfacet
facet normal 0.498356 0.817836 -0.287726
outer loop
vertex 0.779411 0.129247 0.500000
vertex 0.826371 0.100632 0.500000
vertex 0.663185 0.100632 0.217355
endloop
endfacet
facet normal 0.498355 0.817837 -0.287725
outer loop
vertex 0.663185 0.100632 0.217355
vertex 0.639705 0.129247 0.258023
vertex 0.779411 0.129247 0.500000
endloop
endfacet
facet normal 0.000000 0.817836 -0.575451
outer loop
vertex 0.639705 0.129247 0.258023
vertex 0.663185 0.100632 0.217355
vertex 0.336815 0.100632 0.217355
endloop
endfacet
facet normal 0.000000 0.817836 -0.575451
outer loop
vertex 0.336815 0.100632 0.217355
vertex 0.360295 0.129247 0.258023
vertex 0.639705 0.129247 0.258023
endloop
endfacet
facet normal -0.498356 0.817836 -0.287726
outer loop
vertex 0.360295 0.129247 0.258023
vertex 0.336815 0.100632 0.217355
vertex 0.173629 0.100632 0.500000
endloop
endfacet
facet normal -0.498355 0.817836 -0.287725
outer loop
vertex 0.173629 0.100632 0.500000
vertex 0.220589 0.129247 0.500000
vertex 0.360295 0.129247 0.258023
endloop
endfacet
facet normal -0.498355 0.817836 0.287726
outer loop
vertex 0.220589 0.129247 0.500000
vertex 0.173629 0.100632 0.500000
vertex 0.336815 0.100631 0.782645
endloop
endfacet
facet normal -0.498355 0.817837 0.287726
outer loop
vertex 0.336815 0.100631 0.782645
vertex 0.360295 0.129247 0.741977
vertex 0.220589 0.129247 0.500000
endloop
endfacet
facet normal 0.000000 0.817836 0.575452
outer loop
vertex 0.360295 0.129247 0.741977
vertex 0.336815 0.100631 0.782645
vertex 0.663185 0.100631 0.782645
endloop
endfacet
facet normal 0.000000 0.817836 0.575452
outer loop
vertex 0.663185 0.100631 0.782645
vertex 0.639705 0.129247 0.741977
vertex 0.360295 0.129247 0.741977
endloop
endfacet
facet normal 0.498355 0.817836 0.287726
outer loop
vertex 0.639705 0.129247 0.741977
vertex 0.663185 0.100631 0.782645
vertex 0.826371 0.100632 0.500000
endloop
endfacet
facet normal 0.498356 0.817835 0.287726
outer loop
vertex 0.826371 0.100632 0.500000
vertex 0.779411 0.129247 0.500000
vertex 0.639705 0.129247 0.741977
endloop
endfacet
facet normal 0.838484 -0.250187 -0.484099
outer loop
vertex 0.791151 0.168593 0.500000
vertex 0.779411 0.129247 0.500000
vertex 0.639705 0.129247 0.258023
endloop
endfacet
facet normal 0.838485 -0.250181 -0.484100
outer loop
vertex 0.639705 0.129247 0.258023
vertex 0.645575 0.168594 0.247856
vertex 0.791151 0.168593 0.500000
endloop
endfacet
facet normal 0.000000 -0.250183 -0.968199
outer loop
vertex 0.645575 0.168594 0.247856
vertex 0.639705 0.129247 0.258023
vertex 0.360295 0.129247 0.258023
endloop
endfacet
facet normal 0.000000 -0.250184 -0.968198
outer loop
vertex 0.360295 0.129247 0.258023
vertex 0.354425 0.168594 0.247856
vertex 0.645575 0.168594 0.247856
endloop
endfacet
facet normal -0.838484 -0.250184 -0.484099
outer loop
vertex 0.354425 0.168594 0.247856
vertex 0.360295 0.129247 0.258023
vertex 0.220589 0.129247 0.500000
endloop
endfacet
facet normal -0.838484 -0.250184 -0.484099
outer loop
vertex 0.220589 0.129247 0.500000
vertex 0.208849 0.168593 0.500000
vertex 0.354425 0.168594 0.247856
endloop
endfacet
facet normal -0.838484 -0.250184 0.484099
outer loop
vertex 0.208849 0.168593 0.500000
vertex 0.220589 0.129247 0.500000
vertex 0.360295 0.129247 0.741977
endloop
endfacet
facet normal -0.838485 -0.250184 0.484099
outer loop
vertex 0.360295 0.129247 0.741977
vertex 0.354425 0.168593 0.752144
vertex 0.208849 0.168593 0.500000
endloop
endfacet
facet normal 0.000000 -0.250183 0.968199
outer loop
vertex 0.354425 0.168593 0.752144
vertex 0.360295 0.129247 0.741977
vertex 0.639705 0.129247 0.741977
endloop
endfacet
facet normal -0.000000 -0.250184 0.968198
outer loop
vertex 0.639705 0.129247 0.741977
vertex 0.645575 0.168593 0.752144
vertex 0.354425 0.168593 0.752144
endloop
endfacet
facet normal 0.838485 -0.250182 0.484100
outer loop
vertex 0.645575 0.168593 0.752144
vertex 0.639705 0.129247 0.741977
vertex 0.779411 0.129247 0.500000
endloop
endfacet
facet normal 0.838484 -0.250184 0.484099
outer loop
vertex 0.779411 0.129247 0.500000
vertex 0.791151 0.168593 0.500000
vertex 0.645575 0.168593 0.752144
endloop
endfacet
facet normal 0.707451 0.576787 -0.408447
outer loop
vertex 0.753355 0.214951 0.500000
vertex 0.791151 0.168593 0.500000
vertex 0.645575 0.168594 0.247856
endloop
endfacet
facet normal 0.707452 0.576786 -0.408447
outer loop
vertex 0.645575 0.168594 0.247856
vertex 0.626678 0.214951 0.280588
vertex 0.753355 0.214951 0.500000
endloop
endfacet
facet normal 0.000000 0.576787 -0.816895
outer loop
vertex 0.626678 0.214951 0.280588
vertex 0.645575 0.168594 0.247856
vertex 0.354425 0.168594 0.247856
endloop
endfacet
facet normal 0.000000 0.576787 -0.816895
outer loop
vertex 0.354425 0.168594 0.247856
vertex 0.373322 0.214951 0.280588
vertex 0.626678 0.214951 0.280588
endloop
endfacet
facet normal -0.707451 0.576787 -0.408447
outer loop
vertex 0.373322 0.214951 0.280588
vertex 0.354425 0.168594 0.247856
vertex 0.208849 0.168593 0.500000
endloop
endfacet
facet normal -0.707452 0.576787 -0.408447
outer loop
vertex 0.208849 0.168593 0.500000
vertex 0.246645 0.214951 0.500000
vertex 0.373322 0.214951 0.280588
endloop
endfacet
facet normal -0.707451 0.576787 0.408447
outer loop
vertex 0.246645 0.214951 0.500000
vertex 0.208849 0.168593 0.500000
vertex 0.354425 0.168593 0.752144
endloop
endfacet
facet normal -0.707452 0.576786 0.408448
outer loop
vertex 0.354425 0.168593 0.752144
vertex 0.373322 0.214951 0.719412
vertex 0.246645 0.214951 0.500000
endloop
endfacet
facet normal -0.000000 0.576787 0.816894
outer loop
vertex 0.373322 0.214951 0.719412
vertex 0.354425 0.168593 0.752144
vertex 0.645575 0.168593 0.752144
endloop
endfacet
facet normal -0.000001 0.576786 0.816895
outer loop
vertex 0.645575 0.168593 0.752144
vertex 0.626678 0.214951 0.719412
vertex 0.373322 0.214951 0.719412
endloop
endfacet
facet normal 0.707451 0.576787 0.408447
outer loop
vertex 0.626678 0.214951 0.719412
vertex 0.645575 0.168593 0.752144
vertex 0.791151 0.168593 0.500000
endloop
endfacet
facet normal 0.707452 0.576786 0.408448
outer loop
vertex 0.791151 0.168593 0.500000
vertex 0.753355 0.214951 0.500000
vertex 0.626678 0.214951 0.719412
endloop
endfacet
facet normal 0.531947 -0.789119 -0.307120
outer loop
vertex 0.917160 1.000000 0.500000
vertex 0.854547 0.957792 0.500000
vertex 0.677273 0.957792 0.192953
endloop
endfacet
facet normal 0.531947 -0.789120 -0.307119
outer loop
vertex 0.677273 0.957792 0.192953
vertex 0.708580 1.000000 0.138729
vertex 0.917160 1.000000 0.500000
endloop
endfacet
facet normal -0.000000 -0.789119 -0.614240
outer loop
vertex 0.708580 1.000000 0.138729
vertex 0.677273 0.957792 0.192953
vertex 0.322727 0.957792 0.192954
endloop
endfacet
facet normal -0.000000 -0.789120 -0.614239
outer loop
vertex 0.322727 0.957792 0.192954
vertex 0.291420 1.000000 0.138729
vertex 0.708580 1.000000 0.138729
endloop
endfacet
facet normal -0.531947 -0.789120 -0.307120
outer loop
vertex 0.291420 1.000000 0.138729
vertex 0.322727 0.957792 0.192954
vertex 0.145453 0.957792 0.500000
endloop
endfacet
facet normal -0.531947 -0.789120 -0.307119
outer loop
vertex 0.145453 0.957792 0.500000
vertex 0.082840 1.000000 0.500000
vertex 0.291420 1.000000 0.138729
endloop
endfacet
facet normal -0.531947 -0.789119 0.307120
outer loop
vertex 0.082840 1.000000 0.500000
vertex 0.145453 0.957792 0.500000
vertex 0.322727 0.957792 0.807047
endloop
endfacet
facet normal -0.531947 -0.789120 0.307119
outer loop
vertex 0.322727 0.957792 0.807047
vertex 0.291420 1.000000 0.861272
vertex 0.082840 1.000000 0.500000
endloop
endfacet
facet normal 0.000000 -0.789119 0.614240
outer loop
vertex 0.291420 1.000000 0.861272
vertex 0.322727 0.957792 0.807047
vertex 0.677273 0.957792 0.807047
endloop
endfacet
facet normal 0.000000 -0.789120 0.614239
outer loop
vertex 0.677273 0.957792 0.807047
vertex 0.708580 1.000000 0.861272
vertex 0.291420 1.000000 0.861272
endloop
endfacet
facet normal 0.531948 -0.789119 0.307120
outer loop
vertex 0.708580 1.000000 0.861272
vertex 0.677273 0.957792 0.807047
vertex 0.854547 0.957792 0.500000
endloop
endfacet
facet normal 0.531947 -0.789120 0.307119
outer loop
vertex 0.854547 0.957792 0.500000
vertex 0.917160 1.000000 0.500000
vertex 0.708580 1.000000 0.861272
endloop
endfacet
facet normal 0.315298 0.931370 -0.182037
outer loop
vertex 0.854547 0.957792 0.500000
vertex 0.896811 0.943484 0.500000
vertex 0.698406 0.943484 0.156352
endloop
endfacet
facet normal 0.315298 0.931370 -0.182038
outer loop
vertex 0.698406 0.943484 0.156352
vertex 0.677273 0.957792 0.192953
vertex 0.854547 0.957792 0.500000
endloop
endfacet
facet normal 0.000000 0.931370 -0.364074
outer loop
vertex 0.677273 0.957792 0.192953
vertex 0.698406 0.943484 0.156352
vertex 0.301594 0.943484 0.156352
endloop
endfacet
facet normal -0.000000 0.931370 -0.364075
outer loop
vertex 0.301594 0.943484 0.156352
vertex 0.322727 0.957792 0.192954
vertex 0.677273 0.957792 0.192953
endloop
endfacet
facet normal -0.315297 0.931370 -0.182037
outer loop
vertex 0.322727 0.957792 0.192954
vertex 0.301594 0.943484 0.156352
vertex 0.103189 0.943484 0.500000
endloop
endfacet
facet normal -0.315298 0.931370 -0.182038
outer loop
vertex 0.103189 0.943484 0.500000
vertex 0.145453 0.957792 0.500000
vertex 0.322727 0.957792 0.192954
endloop
endfacet
facet normal -0.315298 0.931370 0.182037
outer loop
vertex 0.145453 0.957792 0.500000
vertex 0.103189 0.943484 0.500000
vertex 0.301594 0.943484 0.843648
endloop
endfacet
facet normal -0.315297 0.931370 0.182037
outer loop
vertex 0.301594 0.943484 0.843648
vertex 0.322727 0.957792 0.807047
vertex 0.145453 0.957792 0.500000
endloop
endfacet
facet normal 0.000000 0.931370 0.364074
outer loop
vertex 0.322727 0.957792 0.807047
vertex 0.301594 0.943484 0.843648
vertex 0.698405 0.943484 0.843648
endloop
endfacet
facet normal 0.000000 0.931370 0.364075
outer loop
vertex 0.698405 0.943484 0.843648
vertex 0.677273 0.957792 0.807047
vertex 0.322727 0.957792 0.807047
endloop
endfacet
facet normal 0.315297 0.931370 0.182037
outer loop
vertex 0.677273 0.957792 0.807047
vertex 0.698405 0.943484 0.843648
vertex 0.896811 0.943484 0.500000
endloop
endfacet
facet normal 0.315296 0.931370 0.182037
outer loop
vertex 0.896811 0.943484 0.500000
vertex 0.854547 0.957792 0.500000
vertex 0.677273 0.957792 0.807047
endloop
endfacet
facet normal 0.866024 0.000000 -0.500002
outer loop
vertex 0.896811 0.943484 0.500000
vertex 0.896811 0.923215 0.500000
vertex 0.698406 0.923215 0.156352
endloop
endfacet
facet normal 0.866026 0.000000 -0.500000
outer loop
vertex 0.698406 0.923215 0.156352
vertex 0.698406 0.943484 0.156352
vertex 0.896811 0.943484 0.500000
endloop
endfacet
facet normal 0.000000 0.000000 -1.000000
outer loop
vertex 0.698406 0.943484 0.156352
vertex 0.698406 0.923215 0.156352
vertex 0.301594 0.923215 0.156352
endloop
endfacet
facet normal 0.000000 0.000000 -1.000000
outer loop
vertex 0.301594 0.923215 0.156352
vertex 0.301594 0.943484 0.156352
vertex 0.698406 0.943484 0.156352
endloop
endfacet
facet normal -0.866026 0.000000 -0.500000
outer loop
vertex 0.301594 0.943484 0.156352
vertex 0.301594 0.923215 0.156352
vertex 0.103189 0.923215 0.500000
endloop
endfacet
facet normal -0.866026 0.000000 -0.500000
outer loop
vertex 0.103189 0.923215 0.500000
vertex 0.103189 0.943484 0.500000
vertex 0.301594 0.943484 0.156352
endloop
endfacet
facet normal -0.866026 0.000000 0.500000
outer loop
vertex 0.103189 0.943484 0.500000
vertex 0.103189 0.923215 0.500000
vertex 0.301594 0.923215 0.843648
endloop
endfacet
facet normal -0.866026 0.000000 0.500000
outer loop
vertex 0.301594 0.923215 0.843648
vertex 0.301594 0.943484 0.843648
vertex 0.103189 0.943484 0.500000
endloop
endfacet
facet normal 0.000000 0.000000 1.000000
outer loop
vertex 0.301594 0.943484 0.843648
vertex 0.301594 0.923215 0.843648
vertex 0.698405 0.923215 0.843648
endloop
endfacet
facet normal 0.000000 0.000000 1.000000
outer loop
vertex 0.698405 0.923215 0.843648
vertex 0.698405 0.943484 0.843648
vertex 0.301594 0.943484 0.843648
endloop
endfacet
facet normal 0.866026 0.000000 0.500000
outer loop
vertex 0.698405 0.943484 0.843648
vertex 0.698405 0.923215 0.843648
vertex 0.896811 0.923215 0.500000
endloop
endfacet
facet normal 0.866026 0.000000 0.500000
outer loop
vertex 0.896811 0.923215 0.500000
vertex 0.896811 0.943484 0.500000
vertex 0.698405 0.943484 0.843648
endloop
endfacet
facet normal 0.397114 -0.888670 -0.229274
outer loop
vertex 0.896811 0.923215 0.500000
vertex 0.779411 0.870753 0.500000
vertex 0.639705 0.870753 0.258023
endloop
endfacet
facet normal 0.397114 -0.888670 -0.229273
outer loop
vertex 0.639705 0.870753 0.258023
vertex 0.698406 0.923215 0.156352
vertex 0.896811 0.923215 0.500000
endloop
endfacet
facet normal 0.000000 -0.888670 -0.458548
outer loop
vertex 0.698406 0.923215 0.156352
vertex 0.639705 0.870753 0.258023
vertex 0.360295 0.870753 0.258023
endloop
endfacet
facet normal 0.000000 -0.888670 -0.458547
outer loop
vertex 0.360295 0.870753 0.258023
vertex 0.301594 0.923215 0.156352
vertex 0.698406 0.923215 0.156352
endloop
endfacet
facet normal -0.397113 -0.888670 -0.229274
outer loop
vertex 0.301594 0.923215 0.156352
vertex 0.360295 0.870753 0.258023
vertex 0.220589 0.870753 0.500000
endloop
endfacet
facet normal -0.397114 -0.888670 -0.229274
outer loop
vertex 0.220589 0.870753 0.500000
vertex 0.103189 0.923215 0.500000
vertex 0.301594 0.923215 0.156352
endloop
endfacet
facet normal -0.397114 -0.888670 0.229273
outer loop
vertex 0.103189 0.923215 0.500000
vertex 0.220589 0.870753 0.500000
vertex 0.360295 0.870753 0.741977
endloop
endfacet
facet normal -0.397114 -0.888670 0.229274
outer loop
vertex 0.360295 0.870753 0.741977
vertex 0.301594 0.923215 0.843648
vertex 0.103189 0.923215 0.500000
endloop
endfacet
facet normal 0.000000 -0.888670 0.458546
outer loop
vertex 0.301594 0.923215 0.843648
vertex 0.360295 0.870753 0.741977
vertex 0.639705 0.870753 0.741977
endloop
endfacet
facet normal 0.000000 -0.888669 0.458548
outer loop
vertex 0.639705 0.870753 0.741977
vertex 0.698405 0.923215 0.843648
vertex 0.301594 0.923215 0.843648
endloop
endfacet
facet normal 0.397114 -0.888670 0.229275
outer loop
vertex 0.698405 0.923215 0.843648
vertex 0.639705 0.870753 0.741977
vertex 0.779411 0.870753 0.500000
endloop
endfacet
facet normal 0.397114 -0.888670 0.229274
outer loop
vertex 0.779411 0.870753 0.500000
vertex 0.896811 0.923215 0.500000
vertex 0.698405 0.923215 0.843648
endloop
endfacet
facet normal 0.838485 0.250182 -0.484099
outer loop
vertex 0.779411 0.870753 0.500000
vertex 0.791151 0.831407 0.500000
vertex 0.645575 0.831407 0.247856
endloop
endfacet
facet normal 0.838484 0.250186 -0.484099
outer loop
vertex 0.645575 0.831407 0.247856
vertex 0.639705 0.870753 0.258023
vertex 0.779411 0.870753 0.500000
endloop
endfacet
facet normal 0.000000 0.250182 -0.968199
outer loop
vertex 0.639705 0.870753 0.258023
vertex 0.645575 0.831407 0.247856
vertex 0.354425 0.831407 0.247856
endloop
endfacet
facet normal 0.000000 0.250184 -0.968198
outer loop
vertex 0.354425 0.831407 0.247856
vertex 0.360295 0.870753 0.258023
vertex 0.639705 0.870753 0.258023
endloop
endfacet
facet normal -0.838485 0.250183 -0.484099
outer loop
vertex 0.360295 0.870753 0.258023
vertex 0.354425 0.831407 0.247856
vertex 0.208849 0.831407 0.500000
endloop
endfacet
facet normal -0.838484 0.250186 -0.484098
outer loop
vertex 0.208849 0.831407 0.500000
vertex 0.220589 0.870753 0.500000
vertex 0.360295 0.870753 0.258023
endloop
endfacet
facet normal -0.838485 0.250184 0.484097
outer loop
vertex 0.220589 0.870753 0.500000
vertex 0.208849 0.831407 0.500000
vertex 0.354425 0.831407 0.752144
endloop
endfacet
facet normal -0.838484 0.250184 0.484100
outer loop
vertex 0.354425 0.831407 0.752144
vertex 0.360295 0.870753 0.741977
vertex 0.220589 0.870753 0.500000
endloop
endfacet
facet normal 0.000000 0.250182 0.968199
outer loop
vertex 0.360295 0.870753 0.741977
vertex 0.354425 0.831407 0.752144
vertex 0.645575 0.831407 0.752144
endloop
endfacet
facet normal 0.000000 0.250184 0.968198
outer loop
vertex 0.645575 0.831407 0.752144
vertex 0.639705 0.870753 0.741977
vertex 0.360295 0.870753 0.741977
endloop
endfacet
facet normal 0.838484 0.250184 0.484100
outer loop
vertex 0.639705 0.870753 0.741977
vertex 0.645575 0.831407 0.752144
vertex 0.791151 0.831407 0.500000
endloop
endfacet
facet normal 0.838485 0.250182 0.484098
outer loop
vertex 0.791151 0.831407 0.500000
vertex 0.779411 0.870753 0.500000
vertex 0.639705 0.870753 0.741977
endloop
endfacet
facet normal 0.671607 -0.631341 -0.387753
outer loop
vertex 0.791151 0.831407 0.500000
vertex 0.728585 0.764850 0.500000
vertex 0.614292 0.764850 0.302040
endloop
endfacet
facet normal 0.671607 -0.631341 -0.387752
outer loop
vertex 0.614292 0.764850 0.302040
vertex 0.645575 0.831407 0.247856
vertex 0.791151 0.831407 0.500000
endloop
endfacet
facet normal 0.000000 -0.631341 -0.775505
outer loop
vertex 0.645575 0.831407 0.247856
vertex 0.614292 0.764850 0.302040
vertex 0.385708 0.764850 0.302040
endloop
endfacet
facet normal 0.000000 -0.631340 -0.775506
outer loop
vertex 0.385708 0.764850 0.302040
vertex 0.354425 0.831407 0.247856
vertex 0.645575 0.831407 0.247856
endloop
endfacet
facet normal -0.671607 -0.631341 -0.387752
outer loop
vertex 0.354425 0.831407 0.247856
vertex 0.385708 0.764850 0.302040
vertex 0.271415 0.764850 0.500000
endloop
endfacet
facet normal -0.671607 -0.631341 -0.387753
outer loop
vertex 0.271415 0.764850 0.500000
vertex 0.208849 0.831407 0.500000
vertex 0.354425 0.831407 0.247856
endloop
endfacet
facet normal -0.671607 -0.631341 0.387753
outer loop
vertex 0.208849 0.831407 0.500000
vertex 0.271415 0.764850 0.500000
vertex 0.385708 0.764850 0.697960
endloop
endfacet
facet normal -0.671607 -0.631341 0.387752
outer loop
vertex 0.385708 0.764850 0.697960
vertex 0.354425 0.831407 0.752144
vertex 0.208849 0.831407 0.500000
endloop
endfacet
facet normal 0.000000 -0.631343 0.775504
outer loop
vertex 0.354425 0.831407 0.752144
vertex 0.385708 0.764850 0.697960
vertex 0.614292 0.764850 0.697960
endloop
endfacet
facet normal -0.000000 -0.631341 0.775505
outer loop
vertex 0.614292 0.764850 0.697960
vertex 0.645575 0.831407 0.752144
vertex 0.354425 0.831407 0.752144
endloop
endfacet
facet normal 0.671607 -0.631341 0.387753
outer loop
vertex 0.728585 0.764850 0.500000
vertex 0.791151 0.831407 0.500000
vertex 0.645575 0.831407 0.752144
endloop
endfacet
facet normal 0.671607 -0.631342 0.387752
outer loop
vertex 0.645575 0.831407 0.752144
vertex 0.614292 0.764850 0.697960
vertex 0.728585 0.764850 0.500000
endloop
endfacet
facet normal 0.593679 0.728052 -0.342760
outer loop
vertex 0.728585 0.235150 0.500000
vertex 0.753355 0.214951 0.500000
vertex 0.626678 0.214951 0.280588
endloop
endfacet
facet normal 0.593679 0.728052 -0.342761
outer loop
vertex 0.626678 0.214951 0.280588
vertex 0.614292 0.235150 0.302040
vertex 0.728585 0.235150 0.500000
endloop
endfacet
facet normal 0.000000 0.728053 -0.685521
outer loop
vertex 0.614292 0.235150 0.302040
vertex 0.626678 0.214951 0.280588
vertex 0.373322 0.214951 0.280588
endloop
endfacet
facet normal 0.000000 0.728053 -0.685521
outer loop
vertex 0.373322 0.214951 0.280588
vertex 0.385708 0.235150 0.302040
vertex 0.614292 0.235150 0.302040
endloop
endfacet
facet normal -0.593678 0.728053 -0.342761
outer loop
vertex 0.385708 0.235150 0.302040
vertex 0.373322 0.214951 0.280588
vertex 0.246645 0.214951 0.500000
endloop
endfacet
facet normal -0.593679 0.728052 -0.342760
outer loop
vertex 0.246645 0.214951 0.500000
vertex 0.271415 0.235150 0.500000
vertex 0.385708 0.235150 0.302040
endloop
endfacet
facet normal -0.593678 0.728053 0.342760
outer loop
vertex 0.271415 0.235150 0.500000
vertex 0.246645 0.214951 0.500000
vertex 0.373322 0.214951 0.719412
endloop
endfacet
facet normal -0.593680 0.728051 0.342761
outer loop
vertex 0.373322 0.214951 0.719412
vertex 0.385708 0.235149 0.697960
vertex 0.271415 0.235150 0.500000
endloop
endfacet
facet normal -0.000001 0.728052 0.685522
outer loop
vertex 0.385708 0.235149 0.697960
vertex 0.373322 0.214951 0.719412
vertex 0.626678 0.214951 0.719412
endloop
endfacet
facet normal 0.000000 0.728052 0.685522
outer loop
vertex 0.626678 0.214951 0.719412
vertex 0.614292 0.235149 0.697960
vertex 0.385708 0.235149 0.697960
endloop
endfacet
facet normal 0.593679 0.728052 0.342761
outer loop
vertex 0.614292 0.235149 0.697960
vertex 0.626678 0.214951 0.719412
vertex 0.753355 0.214951 0.500000
endloop
endfacet
facet normal 0.593677 0.728054 0.342760
outer loop
vertex 0.753355 0.214951 0.500000
vertex 0.728585 0.235150 0.500000
vertex 0.614292 0.235149 0.697960
endloop
endfacet
facet normal 0.866025 0.000000 -0.500000
outer loop
vertex 0.728585 0.764850 0.500000
vertex 0.728585 0.235150 0.500000
vertex 0.614292 0.235150 0.302040
endloop
endfacet
facet normal 0.866026 0.000000 -0.500000
outer loop
vertex 0.614292 0.235150 0.302040
vertex 0.614292 0.764850 0.302040
vertex 0.728585 0.764850 0.500000
endloop
endfacet
facet normal 0.000000 0.000000 -1.000000
outer loop
vertex 0.614292 0.764850 0.302040
vertex 0.614292 0.235150 0.302040
vertex 0.385708 0.235150 0.302040
endloop
endfacet
facet normal 0.000000 0.000000 -1.000000
outer loop
vertex 0.385708 0.235150 0.302040
vertex 0.385708 0.764850 0.302040
vertex 0.614292 0.764850 0.302040
endloop
endfacet
facet normal -0.866025 0.000000 -0.500000
outer loop
vertex 0.385708 0.764850 0.302040
vertex 0.385708 0.235150 0.302040
vertex 0.271415 0.235150 0.500000
endloop
endfacet
facet normal -0.866025 0.000000 -0.500000
outer loop
vertex 0.271415 0.235150 0.500000
vertex 0.271415 0.764850 0.500000
vertex 0.385708 0.764850 0.302040
endloop
endfacet
facet normal -0.866026 -0.000000 0.500000
outer loop
vertex 0.271415 0.764850 0.500000
vertex 0.271415 0.235150 0.500000
vertex 0.385708 0.235149 0.697960
endloop
endfacet
facet normal -0.866025 0.000000 0.500000
outer loop
vertex 0.385708 0.235149 0.697960
vertex 0.385708 0.764850 0.697960
vertex 0.271415 0.764850 0.500000
endloop
endfacet
facet normal -0.000000 0.000000 1.000000
outer loop
vertex 0.385708 0.764850 0.697960
vertex 0.385708 0.235149 0.697960
vertex 0.614292 0.235149 0.697960
endloop
endfacet
facet normal 0.000000 -0.000000 1.000000
outer loop
vertex 0.614292 0.235149 0.697960
vertex 0.614292 0.764850 0.697960
vertex 0.385708 0.764850 0.697960
endloop
endfacet
facet normal 0.866026 0.000000 0.500000
outer loop
vertex 0.728585 0.235150 0.500000
vertex 0.728585 0.764850 0.500000
vertex 0.614292 0.764850 0.697960
endloop
endfacet
facet normal 0.866025 -0.000000 0.500001
outer loop
vertex 0.614292 0.764850 0.697960
vertex 0.614292 0.235149 0.697960
vertex 0.728585 0.235150 0.500000
endloop
endfacet
facet normal -0.749195 0.000000 0.662350
outer loop
vertex 0.486688 0.509540 0.742977
vertex 0.429977 0.550182 0.678831
vertex 0.429977 0.449818 0.678831
endloop
endfacet
facet normal -0.749196 0.000000 0.662349
outer loop
vertex 0.429977 0.449818 0.678831
vertex 0.486688 0.490460 0.742977
vertex 0.486688 0.509540 0.742977
endloop
endfacet
facet normal 0.749197 0.000000 0.662347
outer loop
vertex 0.570023 0.550182 0.678831
vertex 0.513312 0.509540 0.742977
vertex 0.513312 0.490460 0.742977
endloop
endfacet
facet normal 0.749195 0.000000 0.662350
outer loop
vertex 0.513312 0.490460 0.742977
vertex 0.570023 0.449818 0.678831
vertex 0.570023 0.550182 0.678831
endloop
endfacet
facet normal 0.000000 0.000000 1.000000
outer loop
vertex 0.513312 0.509540 0.742977
vertex 0.486688 0.509540 0.742977
vertex 0.486688 0.490460 0.742977
endloop
endfacet
facet normal 0.000000 0.000000 1.000000
outer loop
vertex 0.486688 0.490460 0.742977
vertex 0.513312 0.490460 0.742977
vertex 0.513312 0.509540 0.742977
endloop
endfacet
facet normal 0.000000 -0.844724 0.535203
outer loop
vertex 0.486688 0.490460 0.742977
vertex 0.429977 0.449818 0.678831
vertex 0.570023 0.449818 0.678831
endloop
endfacet
facet normal 0.000000 -0.844724 0.535202
outer loop
vertex 0.570023 0.449818 0.678831
vertex 0.513312 0.490460 0.742977
vertex 0.486688 0.490460 0.742977
endloop
endfacet
facet normal 0.000000 0.844724 0.535203
outer loop
vertex 0.513312 0.509540 0.742977
vertex 0.570023 0.550182 0.678831
vertex 0.429977 0.550182 0.678831
endloop
endfacet
facet normal 0.000000 0.844724 0.535202
outer loop
vertex 0.429977 0.550182 0.678831
vertex 0.486688 0.509540 0.742977
vertex 0.513312 0.509540 0.742977
endloop
endfacet
facet normal 0.948209 -0.000000 0.317647
outer loop
vertex 0.717080 0.509540 0.390040
vertex 0.689883 0.550183 0.471226
vertex 0.689883 0.449817 0.471226
endloop
endfacet
facet normal 0.948209 0.000000 0.317647
outer loop
vertex 0.689883 0.449817 0.471226
vertex 0.717080 0.490460 0.390040
vertex 0.717080 0.509540 0.390040
endloop
endfacet
facet normal 0.199014 0.000000 -0.979997
outer loop
vertex 0.619861 0.550183 0.349943
vertex 0.703768 0.509540 0.366983
vertex 0.703768 0.490460 0.366983
endloop
endfacet
facet normal 0.199014 0.000000 -0.979997
outer loop
vertex 0.703768 0.490460 0.366983
vertex 0.619861 0.449817 0.349943
vertex 0.619861 0.550183 0.349943
endloop
endfacet
facet normal 0.866026 0.000000 -0.499999
outer loop
vertex 0.703768 0.509540 0.366983
vertex 0.717080 0.509540 0.390040
vertex 0.717080 0.490460 0.390040
endloop
endfacet
facet normal 0.866026 0.000000 -0.499999
outer loop
vertex 0.717080 0.490460 0.390040
vertex 0.703768 0.490460 0.366983
vertex 0.703768 0.509540 0.366983
endloop
endfacet
facet normal 0.463500 -0.844723 -0.267602
outer loop
vertex 0.717080 0.490460 0.390040
vertex 0.689883 0.449817 0.471226
vertex 0.619861 0.449817 0.349943
endloop
endfacet
facet normal 0.463500 -0.844724 -0.267600
outer loop
vertex 0.619861 0.449817 0.349943
vertex 0.703768 0.490460 0.366983
vertex 0.717080 0.490460 0.390040
endloop
endfacet
facet normal 0.463500 0.844723 -0.267602
outer loop
vertex 0.703768 0.509540 0.366983
vertex 0.619861 0.550183 0.349943
vertex 0.689883 0.550183 0.471226
endloop
endfacet
facet normal 0.463500 0.844723 -0.267602
outer loop
vertex 0.689883 0.550183 0.471226
vertex 0.717080 0.509540 0.390040
vertex 0.703768 0.509540 0.366983
endloop
endfacet
facet normal -0.199013 0.000000 -0.979997
outer loop
vertex 0.296232 0.509540 0.366983
vertex 0.380140 0.550183 0.349943
vertex 0.380140 0.449817 0.349943
endloop
endfacet
facet normal -0.199015 0.000000 -0.979996
outer loop
vertex 0.380140 0.449817 0.349943
vertex 0.296232 0.490460 0.366983
vertex 0.296232 0.509540 0.366983
endloop
endfacet
facet normal -0.948209 0.000000 0.317648
outer loop
vertex 0.310117 0.550183 0.471226
vertex 0.282920 0.509540 0.390040
vertex 0.282920 0.490460 0.390040
endloop
endfacet
facet normal -0.948209 0.000000 0.317647
outer loop
vertex 0.282920 0.490460 0.390040
vertex 0.310117 0.449817 0.471226
vertex 0.310117 0.550183 0.471226
endloop
endfacet
facet normal -0.866025 0.000000 -0.500001
outer loop
vertex 0.282920 0.509540 0.390040
vertex 0.296232 0.509540 0.366983
vertex 0.296232 0.490460 0.366983
endloop
endfacet
facet normal -0.866026 0.000000 -0.499999
outer loop
vertex 0.296232 0.490460 0.366983
vertex 0.282920 0.490460 0.390040
vertex 0.282920 0.509540 0.390040
endloop
endfacet
facet normal -0.463500 -0.844723 -0.267602
outer loop
vertex 0.296232 0.490460 0.366983
vertex 0.380140 0.449817 0.349943
vertex 0.310117 0.449817 0.471226
endloop
endfacet
facet normal -0.463503 -0.844721 -0.267603
outer loop
vertex 0.310117 0.449817 0.471226
vertex 0.282920 0.490460 0.390040
vertex 0.296232 0.490460 0.366983
endloop
endfacet
facet normal -0.463500 0.844723 -0.267601
outer loop
vertex 0.282920 0.509540 0.390040
vertex 0.310117 0.550183 0.471226
vertex 0.380140 0.550183 0.349943
endloop
endfacet
facet normal -0.463499 0.844723 -0.267603
outer loop
vertex 0.380140 0.550183 0.349943
vertex 0.296232 0.509540 0.366983
vertex 0.282920 0.509540 0.390040
endloop
endfacet
facet normal -0.749195 0.000000 0.662349
outer loop
vertex 0.486688 0.659540 0.742977
vertex 0.429977 0.700182 0.678831
vertex 0.429977 0.599817 0.678831
endloop
endfacet
facet normal -0.749194 0.000000 0.662351
outer loop
vertex 0.429977 0.599817 0.678831
vertex 0.486688 0.640460 0.742977
vertex 0.486688 0.659540 0.742977
endloop
endfacet
facet normal 0.749196 0.000000 0.662349
outer loop
vertex 0.570023 0.700182 0.678831
vertex 0.513312 0.659540 0.742977
vertex 0.513312 0.640460 0.742977
endloop
endfacet
facet normal 0.749195 0.000000 0.662350
outer loop
vertex 0.513312 0.640460 0.742977
vertex 0.570023 0.599817 0.678831
vertex 0.570023 0.700182 0.678831
endloop
endfacet
facet normal 0.000000 0.000000 1.000000
outer loop
vertex 0.513312 0.659540 0.742977
vertex 0.486688 0.659540 0.742977
vertex 0.486688 0.640460 0.742977
endloop
endfacet
facet normal 0.000000 0.000000 1.000000
outer loop
vertex 0.486688 0.640460 0.742977
vertex 0.513312 0.640460 0.742977
vertex 0.513312 0.659540 0.742977
endloop
endfacet
facet normal 0.000000 -0.844724 0.535203
outer loop
vertex 0.486688 0.640460 0.742977
vertex 0.429977 0.599817 0.678831
vertex 0.570023 0.599817 0.678831
endloop
endfacet
facet normal 0.000000 -0.844722 0.535205
outer loop
vertex 0.570023 0.599817 0.678831
vertex 0.513312 0.640460 0.742977
vertex 0.486688 0.640460 0.742977
endloop
endfacet
facet normal 0.000000 0.844723 0.535204
outer loop
vertex 0.513312 0.659540 0.742977
vertex 0.570023 0.700182 0.678831
vertex 0.429977 0.700182 0.678831
endloop
endfacet
facet normal 0.000000 0.844723 0.535205
outer loop
vertex 0.429977 0.700182 0.678831
vertex 0.486688 0.659540 0.742977
vertex 0.513312 0.659540 0.742977
endloop
endfacet
facet normal 0.948209 0.000000 0.317647
outer loop
vertex 0.717080 0.659540 0.390040
vertex 0.689883 0.700183 0.471226
vertex 0.689883 0.599817 0.471226
endloop
endfacet
facet normal 0.948209 0.000000 0.317646
outer loop
vertex 0.689883 0.599817 0.471226
vertex 0.717080 0.640460 0.390040
vertex 0.717080 0.659540 0.390040
endloop
endfacet
facet normal 0.199014 0.000000 -0.979997
outer loop
vertex 0.619861 0.700183 0.349943
vertex 0.703768 0.659540 0.366983
vertex 0.703768 0.640460 0.366983
endloop
endfacet
facet normal 0.199014 0.000000 -0.979997
outer loop
vertex 0.703768 0.640460 0.366983
vertex 0.619861 0.599817 0.349943
vertex 0.619861 0.700183 0.349943
endloop
endfacet
facet normal 0.866026 0.000000 -0.500000
outer loop
vertex 0.703768 0.659540 0.366983
vertex 0.717080 0.659540 0.390040
vertex 0.717080 0.640460 0.390040
endloop
endfacet
facet normal 0.866027 0.000000 -0.499997
outer loop
vertex 0.717080 0.640460 0.390040
vertex 0.703768 0.640460 0.366983
vertex 0.703768 0.659540 0.366983
endloop
endfacet
facet normal 0.463500 -0.844723 -0.267602
outer loop
vertex 0.717080 0.640460 0.390040
vertex 0.689883 0.599817 0.471226
vertex 0.619861 0.599817 0.349943
endloop
endfacet
facet normal 0.463500 -0.844723 -0.267601
outer loop
vertex 0.619861 0.599817 0.349943
vertex 0.703768 0.640460 0.366983
vertex 0.717080 0.640460 0.390040
endloop
endfacet
facet normal 0.463501 0.844723 -0.267602
outer loop
vertex 0.703768 0.659540 0.366983
vertex 0.619861 0.700183 0.349943
vertex 0.689883 0.700183 0.471226
endloop
endfacet
facet normal 0.463502 0.844722 -0.267602
outer loop
vertex 0.689883 0.700183 0.471226
vertex 0.717080 0.659540 0.390040
vertex 0.703768 0.659540 0.366983
endloop
endfacet
facet normal -0.199014 0.000000 -0.979997
outer loop
vertex 0.296232 0.659540 0.366983
vertex 0.380140 0.700183 0.349943
vertex 0.380140 0.599817 0.349943
endloop
endfacet
facet normal -0.199015 0.000000 -0.979996
outer loop
vertex 0.380140 0.599817 0.349943
vertex 0.296232 0.640460 0.366983
vertex 0.296232 0.659540 0.366983
endloop
endfacet
facet normal -0.948209 -0.000001 0.317647
outer loop
vertex 0.310117 0.700183 0.471226
vertex 0.282920 0.659540 0.390040
vertex 0.282920 0.640460 0.390040
endloop
endfacet
facet normal -0.948209 0.000000 0.317647
outer loop
vertex 0.282920 0.640460 0.390040
vertex 0.310117 0.599817 0.471226
vertex 0.310117 0.700183 0.471226
endloop
endfacet
facet normal -0.866025 0.000000 -0.500000
outer loop
vertex 0.282920 0.659540 0.390040
vertex 0.296232 0.659540 0.366983
vertex 0.296232 0.640460 0.366983
endloop
endfacet
facet normal -0.866026 -0.000000 -0.500000
outer loop
vertex 0.296232 0.640460 0.366983
vertex 0.282920 0.640460 0.390040
vertex 0.282920 0.659540 0.390040
endloop
endfacet
facet normal -0.463500 -0.844723 -0.267602
outer loop
vertex 0.296232 0.640460 0.366983
vertex 0.380140 0.599817 0.349943
vertex 0.310117 0.599817 0.471226
endloop
endfacet
facet normal -0.463502 -0.844722 -0.267603
outer loop
vertex 0.310117 0.599817 0.471226
vertex 0.282920 0.640460 0.390040
vertex 0.296232 0.640460 0.366983
endloop
endfacet
facet normal -0.463501 0.844723 -0.267602
outer loop
vertex 0.282920 0.659540 0.390040
vertex 0.310117 0.700183 0.471226
vertex 0.380140 0.700183 0.349943
endloop
endfacet
facet normal -0.463501 0.844723 -0.267601
outer loop
vertex 0.380140 0.700183 0.349943
vertex 0.296232 0.659540 0.366983
vertex 0.282920 0.659540 0.390040
endloop
endfacet
facet normal -0.749195 0.000000 0.662349
outer loop
vertex 0.486688 0.359540 0.742977
vertex 0.429977 0.400182 0.678831
vertex 0.429977 0.299818 0.678831
endloop
endfacet
facet normal -0.749193 0.000000 0.662352
outer loop
vertex 0.429977 0.299818 0.678831
vertex 0.486688 0.340460 0.742977
vertex 0.486688 0.359540 0.742977
endloop
endfacet
facet normal 0.749195 0.000000 0.662349
outer loop
vertex 0.570023 0.400182 0.678831
vertex 0.513312 0.359540 0.742977
vertex 0.513312 0.340460 0.742977
endloop
endfacet
facet normal 0.749195 0.000000 0.662350
outer loop
vertex 0.513312 0.340460 0.742977
vertex 0.570023 0.299818 0.678831
vertex 0.570023 0.400182 0.678831
endloop
endfacet
facet normal 0.000000 0.000000 1.000000
outer loop
vertex 0.513312 0.359540 0.742977
vertex 0.486688 0.359540 0.742977
vertex 0.486688 0.340460 0.742977
endloop
endfacet
facet normal 0.000000 0.000000 1.000000
outer loop
vertex 0.486688 0.340460 0.742977
vertex 0.513312 0.340460 0.742977
vertex 0.513312 0.359540 0.742977
endloop
endfacet
facet normal 0.000000 -0.844723 0.535204
outer loop
vertex 0.486688 0.340460 0.742977
vertex 0.429977 0.299818 0.678831
vertex 0.570023 0.299818 0.678831
endloop
endfacet
facet normal 0.000000 -0.844723 0.535203
outer loop
vertex 0.570023 0.299818 0.678831
vertex 0.513312 0.340460 0.742977
vertex 0.486688 0.340460 0.742977
endloop
endfacet
facet normal 0.000000 0.844723 0.535204
outer loop
vertex 0.513312 0.359540 0.742977
vertex 0.570023 0.400182 0.678831
vertex 0.429977 0.400182 0.678831
endloop
endfacet
facet normal 0.000000 0.844722 0.535205
outer loop
vertex 0.429977 0.400182 0.678831
vertex 0.486688 0.359540 0.742977
vertex 0.513312 0.359540 0.742977
endloop
endfacet
facet normal 0.948209 0.000000 0.317647
outer loop
vertex 0.717080 0.359540 0.390040
vertex 0.689883 0.400183 0.471226
vertex 0.689883 0.299817 0.471226
endloop
endfacet
facet normal 0.948209 0.000000 0.317648
outer loop
vertex 0.689883 0.299817 0.471226
vertex 0.717080 0.340460 0.390040
vertex 0.717080 0.359540 0.390040
endloop
endfacet
facet normal 0.199012 0.000000 -0.979997
outer loop
vertex 0.619861 0.400183 0.349943
vertex 0.703768 0.359540 0.366983
vertex 0.703768 0.340460 0.366983
endloop
endfacet
facet normal 0.199014 0.000000 -0.979997
outer loop
vertex 0.703768 0.340460 0.366983
vertex 0.619861 0.299817 0.349943
vertex 0.619861 0.400183 0.349943
endloop
endfacet
facet normal 0.866025 0.000000 -0.500000
outer loop
vertex 0.703768 0.359540 0.366983
vertex 0.717080 0.359540 0.390040
vertex 0.717080 0.340460 0.390040
endloop
endfacet
facet normal 0.866026 0.000000 -0.499999
outer loop
vertex 0.717080 0.340460 0.390040
vertex 0.703768 0.340460 0.366983
vertex 0.703768 0.359540 0.366983
endloop
endfacet
facet normal 0.463501 -0.844722 -0.267603
outer loop
vertex 0.717080 0.340460 0.390040
vertex 0.689883 0.299817 0.471226
vertex 0.619861 0.299817 0.349943
endloop
endfacet
facet normal 0.463500 -0.844723 -0.267601
outer loop
vertex 0.619861 0.299817 0.349943
vertex 0.703768 0.340460 0.366983
vertex 0.717080 0.340460 0.390040
endloop
endfacet
facet normal 0.463500 0.844723 -0.267601
outer loop
vertex 0.703768 0.359540 0.366983
vertex 0.619861 0.400183 0.349943
vertex 0.689883 0.400183 0.471226
endloop
endfacet
facet normal 0.463499 0.844724 -0.267601
outer loop
vertex 0.689883 0.400183 0.471226
vertex 0.717080 0.359540 0.390040
vertex 0.703768 0.359540 0.366983
endloop
endfacet
facet normal -0.199013 0.000000 -0.979997
outer loop
vertex 0.296232 0.359540 0.366983
vertex 0.380140 0.400183 0.349943
vertex 0.380140 0.299817 0.349943
endloop
endfacet
facet normal -0.199013 0.000000 -0.979997
outer loop
vertex 0.380140 0.299817 0.349943
vertex 0.296232 0.340460 0.366983
vertex 0.296232 0.359540 0.366983
endloop
endfacet
facet normal -0.948209 -0.000001 0.317648
outer loop
vertex 0.310117 0.400183 0.471226
vertex 0.282920 0.359540 0.390040
vertex 0.282920 0.340460 0.390040
endloop
endfacet
facet normal -0.948209 0.000000 0.317647
outer loop
vertex 0.282920 0.340460 0.390040
vertex 0.310117 0.299817 0.471226
vertex 0.310117 0.400183 0.471226
endloop
endfacet
facet normal -0.866026 0.000000 -0.499999
outer loop
vertex 0.282920 0.359540 0.390040
vertex 0.296232 0.359540 0.366983
vertex 0.296232 0.340460 0.366983
endloop
endfacet
facet normal -0.866025 -0.000000 -0.500001
outer loop
vertex 0.296232 0.340460 0.366983
vertex 0.282920 0.340460 0.390040
vertex 0.282920 0.359540 0.390040
endloop
endfacet
facet normal -0.463501 -0.844723 -0.267603
outer loop
vertex 0.296232 0.340460 0.366983
vertex 0.380140 0.299817 0.349943
vertex 0.310117 0.299817 0.471226
endloop
endfacet
facet normal -0.463502 -0.844721 -0.267603
outer loop
vertex 0.310117 0.299817 0.471226
vertex 0.282920 0.340460 0.390040
vertex 0.296232 0.340460 0.366983
endloop
endfacet
facet normal -0.463500 0.844723 -0.267602
outer loop
vertex 0.282920 0.359540 0.390040
vertex 0.310117 0.400183 0.471226
vertex 0.380140 0.400183 0.349943
endloop
endfacet
facet normal -0.463500 0.844723 -0.267601
outer loop
vertex 0.380140 0.400183 0.349943
vertex 0.296232 0.359540 0.366983
vertex 0.282920 0.359540 0.390040
endloop
endfacet
endsolid Exported from Blender-2.76 (sub 0)
