solid OBJECT
  facet normal -1.820156e-003 -9.999983e-001 9.180257e-005
    outer loop
      vertex 4.966210e-001 3.352220e-001 3.626220e-001
      vertex 5.224420e-001 3.351750e-001 3.626220e-001
      vertex 5.095310e-001 3.351990e-001 3.679690e-001
    endloop
  endfacet
  facet normal -1.820156e-003 -9.999983e-001 -1.932621e-005
    outer loop
      vertex 5.224420e-001 3.351750e-001 3.626220e-001
      vertex 4.966210e-001 3.352220e-001 3.626220e-001
      vertex 4.912730e-001 3.352320e-001 3.497110e-001
    endloop
  endfacet
  facet normal -1.789400e-003 -9.999984e-001 -1.754248e-005
    outer loop
      vertex 5.095310e-001 3.351990e-001 3.314530e-001
      vertex 5.277890e-001 3.351660e-001 3.497110e-001
      vertex 4.966210e-001 3.352220e-001 3.368010e-001
    endloop
  endfacet
  facet normal -1.894403e-003 -9.999982e-001 8.746024e-005
    outer loop
      vertex 5.277890e-001 3.351660e-001 3.497110e-001
      vertex 5.095310e-001 3.351990e-001 3.314530e-001
      vertex 5.224420e-001 3.351750e-001 3.368010e-001
    endloop
  endfacet
  facet normal -1.833822e-003 -9.999983e-001 1.366634e-005
    outer loop
      vertex 4.966210e-001 3.352220e-001 3.368010e-001
      vertex 5.224420e-001 3.351750e-001 3.626220e-001
      vertex 4.912730e-001 3.352320e-001 3.497110e-001
    endloop
  endfacet
  facet normal -1.780058e-003 -9.999984e-001 -4.009803e-005
    outer loop
      vertex 5.224420e-001 3.351750e-001 3.626220e-001
      vertex 4.966210e-001 3.352220e-001 3.368010e-001
      vertex 5.277890e-001 3.351660e-001 3.497110e-001
    endloop
  endfacet
  facet normal 1.820156e-003 9.999983e-001 -5.670441e-005
    outer loop
      vertex 4.966290e-001 3.399410e-001 3.626220e-001
      vertex 5.224500e-001 3.398940e-001 3.626220e-001
      vertex 4.912820e-001 3.399500e-001 3.497110e-001
    endloop
  endfacet
  facet normal 1.820156e-003 9.999983e-001 9.178228e-005
    outer loop
      vertex 5.224500e-001 3.398940e-001 3.626220e-001
      vertex 4.966290e-001 3.399410e-001 3.626220e-001
      vertex 5.095400e-001 3.399170e-001 3.679690e-001
    endloop
  endfacet
  facet normal 1.764602e-003 9.999984e-001 4.234126e-005
    outer loop
      vertex 5.095400e-001 3.399170e-001 3.314530e-001
      vertex 5.277980e-001 3.398840e-001 3.497110e-001
      vertex 5.224500e-001 3.398940e-001 3.368010e-001
    endloop
  endfacet
  facet normal 1.843163e-003 9.999983e-001 -3.622058e-005
    outer loop
      vertex 5.277980e-001 3.398840e-001 3.497110e-001
      vertex 5.095400e-001 3.399170e-001 3.314530e-001
      vertex 4.966290e-001 3.399410e-001 3.368010e-001
    endloop
  endfacet
  facet normal 1.833821e-003 9.999983e-001 -1.366560e-005
    outer loop
      vertex 4.966290e-001 3.399410e-001 3.368010e-001
      vertex 5.224500e-001 3.398940e-001 3.626220e-001
      vertex 5.277980e-001 3.398840e-001 3.497110e-001
    endloop
  endfacet
  facet normal 1.780056e-003 9.999984e-001 4.010019e-005
    outer loop
      vertex 5.224500e-001 3.398940e-001 3.626220e-001
      vertex 4.966290e-001 3.399410e-001 3.368010e-001
      vertex 4.912820e-001 3.399500e-001 3.497110e-001
    endloop
  endfacet
  facet normal 3.826283e-001 -7.299207e-004 9.239021e-001
    outer loop
      vertex 5.224420e-001 3.351750e-001 3.626220e-001
      vertex 5.095400e-001 3.399170e-001 3.679690e-001
      vertex 5.095310e-001 3.351990e-001 3.679690e-001
    endloop
  endfacet
  facet normal 3.826541e-001 -6.476529e-004 9.238914e-001
    outer loop
      vertex 5.095400e-001 3.399170e-001 3.679690e-001
      vertex 5.224420e-001 3.351750e-001 3.626220e-001
      vertex 5.224500e-001 3.398940e-001 3.626220e-001
    endloop
  endfacet
  facet normal 9.238900e-001 -1.762458e-003 -3.826541e-001
    outer loop
      vertex 5.224420e-001 3.351750e-001 3.368010e-001
      vertex 5.277980e-001 3.398840e-001 3.497110e-001
      vertex 5.277890e-001 3.351660e-001 3.497110e-001
    endloop
  endfacet
  facet normal 9.238647e-001 -1.563667e-003 -3.827161e-001
    outer loop
      vertex 5.277980e-001 3.398840e-001 3.497110e-001
      vertex 5.224420e-001 3.351750e-001 3.368010e-001
      vertex 5.224500e-001 3.398940e-001 3.368010e-001
    endloop
  endfacet
  facet normal -3.827125e-001 7.300814e-004 -9.238672e-001
    outer loop
      vertex 4.966210e-001 3.352220e-001 3.368010e-001
      vertex 5.095400e-001 3.399170e-001 3.314530e-001
      vertex 5.095310e-001 3.351990e-001 3.314530e-001
    endloop
  endfacet
  facet normal -3.826870e-001 6.477086e-004 -9.238778e-001
    outer loop
      vertex 5.095400e-001 3.399170e-001 3.314530e-001
      vertex 4.966210e-001 3.352220e-001 3.368010e-001
      vertex 4.966290e-001 3.399410e-001 3.368010e-001
    endloop
  endfacet
  facet normal -9.238746e-001 1.762429e-003 3.826913e-001
    outer loop
      vertex 4.966210e-001 3.352220e-001 3.626220e-001
      vertex 4.912820e-001 3.399500e-001 3.497110e-001
      vertex 4.912730e-001 3.352320e-001 3.497110e-001
    endloop
  endfacet
  facet normal -9.239006e-001 1.563728e-003 3.826293e-001
    outer loop
      vertex 4.912820e-001 3.399500e-001 3.497110e-001
      vertex 4.966210e-001 3.352220e-001 3.626220e-001
      vertex 4.966290e-001 3.399410e-001 3.626220e-001
    endloop
  endfacet
  facet normal 9.239006e-001 -1.563728e-003 3.826293e-001
    outer loop
      vertex 5.277890e-001 3.351660e-001 3.497110e-001
      vertex 5.224500e-001 3.398940e-001 3.626220e-001
      vertex 5.224420e-001 3.351750e-001 3.626220e-001
    endloop
  endfacet
  facet normal 9.238746e-001 -1.762429e-003 3.826913e-001
    outer loop
      vertex 5.224500e-001 3.398940e-001 3.626220e-001
      vertex 5.277890e-001 3.351660e-001 3.497110e-001
      vertex 5.277980e-001 3.398840e-001 3.497110e-001
    endloop
  endfacet
  facet normal 3.826885e-001 -6.477111e-004 -9.238772e-001
    outer loop
      vertex 5.095310e-001 3.351990e-001 3.314530e-001
      vertex 5.224500e-001 3.398940e-001 3.368010e-001
      vertex 5.224420e-001 3.351750e-001 3.368010e-001
    endloop
  endfacet
  facet normal 3.827140e-001 -7.300843e-004 -9.238666e-001
    outer loop
      vertex 5.224500e-001 3.398940e-001 3.368010e-001
      vertex 5.095310e-001 3.351990e-001 3.314530e-001
      vertex 5.095400e-001 3.399170e-001 3.314530e-001
    endloop
  endfacet
  facet normal -9.238647e-001 1.563667e-003 -3.827161e-001
    outer loop
      vertex 4.912730e-001 3.352320e-001 3.497110e-001
      vertex 4.966290e-001 3.399410e-001 3.368010e-001
      vertex 4.966210e-001 3.352220e-001 3.368010e-001
    endloop
  endfacet
  facet normal -9.238900e-001 1.762458e-003 -3.826541e-001
    outer loop
      vertex 4.966290e-001 3.399410e-001 3.368010e-001
      vertex 4.912730e-001 3.352320e-001 3.497110e-001
      vertex 4.912820e-001 3.399500e-001 3.497110e-001
    endloop
  endfacet
  facet normal -3.826526e-001 6.476504e-004 9.238921e-001
    outer loop
      vertex 5.095310e-001 3.351990e-001 3.679690e-001
      vertex 4.966290e-001 3.399410e-001 3.626220e-001
      vertex 4.966210e-001 3.352220e-001 3.626220e-001
    endloop
  endfacet
  facet normal -3.826268e-001 7.299178e-004 9.239027e-001
    outer loop
      vertex 4.966290e-001 3.399410e-001 3.626220e-001
      vertex 5.095310e-001 3.351990e-001 3.679690e-001
      vertex 5.095400e-001 3.399170e-001 3.679690e-001
    endloop
  endfacet
  facet normal 2.213350e-001 9.744125e-001 3.912908e-002
    outer loop
      vertex 7.770730e-001 2.653210e-001 4.962150e-001
      vertex 8.662530e-001 2.431030e-001 5.450490e-001
      vertex 8.662530e-001 2.450640e-001 4.962150e-001
    endloop
  endfacet
  facet normal 1.379730e-001 9.719898e-001 1.902613e-001
    outer loop
      vertex 8.662530e-001 2.431030e-001 5.450490e-001
      vertex 7.770730e-001 2.653210e-001 4.962150e-001
      vertex 7.770730e-001 2.557620e-001 5.450490e-001
    endloop
  endfacet
  facet normal -1.776649e-001 8.919150e-001 4.158399e-001
    outer loop
      vertex 4.203560e-001 2.566370e-001 4.962150e-001
      vertex 5.095350e-001 2.516330e-001 5.450490e-001
      vertex 5.095350e-001 2.744010e-001 4.962150e-001
    endloop
  endfacet
  facet normal -5.917289e-002 9.763155e-001 2.081024e-001
    outer loop
      vertex 5.095350e-001 2.516330e-001 5.450490e-001
      vertex 4.203560e-001 2.566370e-001 4.962150e-001
      vertex 4.203560e-001 2.462280e-001 5.450490e-001
    endloop
  endfacet
  facet normal -5.920763e-002 9.776084e-001 -2.019314e-001
    outer loop
      vertex 4.203560e-001 3.217280e-001 3.008770e-001
      vertex 5.095350e-001 3.372160e-001 3.497110e-001
      vertex 5.095350e-001 3.271290e-001 3.008770e-001
    endloop
  endfacet
  facet normal -2.291515e-001 9.669496e-001 1.117948e-001
    outer loop
      vertex 5.095350e-001 3.372160e-001 3.497110e-001
      vertex 4.203560e-001 3.217280e-001 3.008770e-001
      vertex 4.203560e-001 3.160820e-001 3.497110e-001
    endloop
  endfacet
  facet normal 3.135386e-001 9.223914e-001 2.255830e-001
    outer loop
      vertex 7.770730e-001 2.886330e-001 3.008770e-001
      vertex 8.662530e-001 2.463760e-001 3.497110e-001
      vertex 8.662530e-001 2.583190e-001 3.008770e-001
    endloop
  endfacet
  facet normal 1.612311e-001 8.727514e-001 4.607706e-001
    outer loop
      vertex 8.662530e-001 2.463760e-001 3.497110e-001
      vertex 7.770730e-001 2.886330e-001 3.008770e-001
      vertex 7.770730e-001 2.628510e-001 3.497110e-001
    endloop
  endfacet
  facet normal 2.504209e-001 9.655948e-001 -7.011506e-002
    outer loop
      vertex 5.987150e-001 3.018780e-001 3.008770e-001
      vertex 6.878940e-001 2.822960e-001 3.497110e-001
      vertex 6.878940e-001 2.787500e-001 3.008770e-001
    endloop
  endfacet
  facet normal 3.563155e-001 8.865042e-001 -2.952109e-001
    outer loop
      vertex 6.878940e-001 2.822960e-001 3.497110e-001
      vertex 5.987150e-001 3.018780e-001 3.008770e-001
      vertex 5.987150e-001 3.181400e-001 3.497110e-001
    endloop
  endfacet
  facet normal -3.096625e-002 9.692966e-001 -2.439368e-001
    outer loop
      vertex 5.987150e-001 2.571340e-001 2.032080e-001
      vertex 6.878940e-001 2.722730e-001 2.520430e-001
      vertex 6.878940e-001 2.599830e-001 2.032080e-001
    endloop
  endfacet
  facet normal 6.298360e-002 9.149379e-001 -3.986499e-001
    outer loop
      vertex 6.878940e-001 2.722730e-001 2.520430e-001
      vertex 5.987150e-001 2.571340e-001 2.032080e-001
      vertex 5.987150e-001 2.784120e-001 2.520430e-001
    endloop
  endfacet
  facet normal 3.105383e-001 9.414854e-001 -1.310390e-001
    outer loop
      vertex 7.770730e-001 2.877340e-001 2.032080e-001
      vertex 8.662530e-001 2.651160e-001 2.520430e-001
      vertex 8.662530e-001 2.583190e-001 2.032080e-001
    endloop
  endfacet
  facet normal 3.671853e-001 8.941020e-001 -2.564304e-001
    outer loop
      vertex 8.662530e-001 2.651160e-001 2.520430e-001
      vertex 7.770730e-001 2.877340e-001 2.032080e-001
      vertex 7.770730e-001 3.017400e-001 2.520430e-001
    endloop
  endfacet
  facet normal -4.391107e-001 8.913852e-001 -1.123128e-001
    outer loop
      vertex 2.419980e-001 2.625410e-001 3.008770e-001
      vertex 3.311770e-001 3.126250e-001 3.497110e-001
      vertex 3.311770e-001 3.064720e-001 3.008770e-001
    endloop
  endfacet
  facet normal -4.254789e-001 8.940785e-001 -1.399689e-001
    outer loop
      vertex 3.311770e-001 3.126250e-001 3.497110e-001
      vertex 2.419980e-001 2.625410e-001 3.008770e-001
      vertex 2.419980e-001 2.701860e-001 3.497110e-001
    endloop
  endfacet
  facet normal -4.724437e-002 7.070335e-001 -7.056001e-001
    outer loop
      vertex 2.419980e-001 2.475260e-001 2.032080e-001
      vertex 3.311770e-001 3.022210e-001 2.520430e-001
      vertex 3.311770e-001 2.534850e-001 2.032080e-001
    endloop
  endfacet
  facet normal -5.574417e-001 8.248642e-001 9.411585e-002
    outer loop
      vertex 3.311770e-001 3.022210e-001 2.520430e-001
      vertex 2.419980e-001 2.475260e-001 2.032080e-001
      vertex 2.419980e-001 2.419540e-001 2.520430e-001
    endloop
  endfacet
  facet normal -8.891754e-002 8.597599e-001 -5.028981e-001
    outer loop
      vertex 4.203560e-001 2.651780e-001 2.032080e-001
      vertex 5.095350e-001 3.029660e-001 2.520430e-001
      vertex 5.095350e-001 2.744010e-001 2.032080e-001
    endloop
  endfacet
  facet normal 7.256315e-002 7.202928e-001 -6.898644e-001
    outer loop
      vertex 5.095350e-001 3.029660e-001 2.520430e-001
      vertex 4.203560e-001 2.651780e-001 2.032080e-001
      vertex 4.203560e-001 3.119500e-001 2.520430e-001
    endloop
  endfacet
  facet normal -1.550075e-001 9.787175e-001 1.344797e-001
    outer loop
      vertex 2.419980e-001 2.347280e-001 4.962150e-001
      vertex 3.311770e-001 2.421420e-001 5.450490e-001
      vertex 3.311770e-001 2.488520e-001 4.962150e-001
    endloop
  endfacet
  facet normal -4.917447e-002 9.968920e-001 -6.154809e-002
    outer loop
      vertex 3.311770e-001 2.421420e-001 5.450490e-001
      vertex 2.419980e-001 2.347280e-001 4.962150e-001
      vertex 2.419980e-001 2.377430e-001 5.450490e-001
    endloop
  endfacet
  facet normal -3.295322e-001 8.340862e-001 4.423897e-001
    outer loop
      vertex 2.419980e-001 2.644790e-001 3.985460e-001
      vertex 3.311770e-001 2.738110e-001 4.473800e-001
      vertex 3.311770e-001 2.997120e-001 3.985460e-001
    endloop
  endfacet
  facet normal -3.061734e-001 8.668557e-001 3.934705e-001
    outer loop
      vertex 3.311770e-001 2.738110e-001 4.473800e-001
      vertex 2.419980e-001 2.644790e-001 3.985460e-001
      vertex 2.419980e-001 2.423130e-001 4.473800e-001
    endloop
  endfacet
  facet normal -9.974276e-002 8.918145e-001 4.412689e-001
    outer loop
      vertex 4.203560e-001 3.171550e-001 3.985460e-001
      vertex 5.095350e-001 3.029660e-001 4.473800e-001
      vertex 5.095350e-001 3.271290e-001 3.985460e-001
    endloop
  endfacet
  facet normal -1.870496e-001 7.976716e-001 5.733520e-001
    outer loop
      vertex 5.095350e-001 3.029660e-001 4.473800e-001
      vertex 4.203560e-001 3.171550e-001 3.985460e-001
      vertex 4.203560e-001 2.820540e-001 4.473800e-001
    endloop
  endfacet
  facet normal 2.581600e-001 9.328001e-001 2.514704e-001
    outer loop
      vertex 5.987150e-001 2.822290e-001 4.962150e-001
      vertex 6.878940e-001 2.443830e-001 5.450490e-001
      vertex 6.878940e-001 2.575480e-001 4.962150e-001
    endloop
  endfacet
  facet normal 1.387812e-001 8.892982e-001 4.357621e-001
    outer loop
      vertex 6.878940e-001 2.443830e-001 5.450490e-001
      vertex 5.987150e-001 2.822290e-001 4.962150e-001
      vertex 5.987150e-001 2.583000e-001 5.450490e-001
    endloop
  endfacet
  facet normal 3.959591e-001 9.080708e-001 1.364691e-001
    outer loop
      vertex 5.987150e-001 3.202310e-001 3.985460e-001
      vertex 6.878940e-001 2.740060e-001 4.473800e-001
      vertex 6.878940e-001 2.813450e-001 3.985460e-001
    endloop
  endfacet
  facet normal 3.260113e-001 9.077770e-001 2.639273e-001
    outer loop
      vertex 6.878940e-001 2.740060e-001 4.473800e-001
      vertex 5.987150e-001 3.202310e-001 3.985460e-001
      vertex 5.987150e-001 3.060330e-001 4.473800e-001
    endloop
  endfacet
  facet normal 7.178455e-002 9.973139e-001 -1.456108e-002
    outer loop
      vertex 7.770730e-001 2.488090e-001 3.985460e-001
      vertex 8.662530e-001 2.431030e-001 4.473800e-001
      vertex 8.662530e-001 2.423900e-001 3.985460e-001
    endloop
  endfacet
  facet normal 1.630430e-001 9.692146e-001 -1.844992e-001
    outer loop
      vertex 8.662530e-001 2.431030e-001 4.473800e-001
      vertex 7.770730e-001 2.488090e-001 3.985460e-001
      vertex 7.770730e-001 2.581050e-001 4.473800e-001
    endloop
  endfacet
  facet normal 3.373886e-001 9.247594e-001 -1.760367e-001
    outer loop
      vertex 6.878940e-001 2.813450e-001 3.985460e-001
      vertex 7.770730e-001 2.581050e-001 4.473800e-001
      vertex 7.770730e-001 2.488090e-001 3.985460e-001
    endloop
  endfacet
  facet normal 1.736455e-001 9.738720e-001 1.463580e-001
    outer loop
      vertex 7.770730e-001 2.581050e-001 4.473800e-001
      vertex 6.878940e-001 2.813450e-001 3.985460e-001
      vertex 6.878940e-001 2.740060e-001 4.473800e-001
    endloop
  endfacet
  facet normal 2.050989e-001 9.406283e-001 2.704680e-001
    outer loop
      vertex 6.878940e-001 2.822960e-001 3.497110e-001
      vertex 7.770730e-001 2.488090e-001 3.985460e-001
      vertex 7.770730e-001 2.628510e-001 3.497110e-001
    endloop
  endfacet
  facet normal 3.426836e-001 9.392728e-001 1.829100e-002
    outer loop
      vertex 7.770730e-001 2.488090e-001 3.985460e-001
      vertex 6.878940e-001 2.822960e-001 3.497110e-001
      vertex 6.878940e-001 2.813450e-001 3.985460e-001
    endloop
  endfacet
  facet normal 1.810825e-001 9.802082e-001 8.000605e-002
    outer loop
      vertex 7.770730e-001 2.628510e-001 3.497110e-001
      vertex 8.662530e-001 2.423900e-001 3.985460e-001
      vertex 8.662530e-001 2.463760e-001 3.497110e-001
    endloop
  endfacet
  facet normal 6.901010e-002 9.587680e-001 2.756839e-001
    outer loop
      vertex 8.662530e-001 2.423900e-001 3.985460e-001
      vertex 7.770730e-001 2.628510e-001 3.497110e-001
      vertex 7.770730e-001 2.488090e-001 3.985460e-001
    endloop
  endfacet
  facet normal 7.406983e-002 9.576011e-001 2.784131e-001
    outer loop
      vertex 5.095350e-001 3.271290e-001 3.985460e-001
      vertex 5.987150e-001 3.060330e-001 4.473800e-001
      vertex 5.987150e-001 3.202310e-001 3.985460e-001
    endloop
  endfacet
  facet normal -3.080945e-002 8.958586e-001 4.432698e-001
    outer loop
      vertex 5.987150e-001 3.060330e-001 4.473800e-001
      vertex 5.095350e-001 3.271290e-001 3.985460e-001
      vertex 5.095350e-001 3.029660e-001 4.473800e-001
    endloop
  endfacet
  facet normal 2.089894e-001 9.770227e-001 -4.183362e-002
    outer loop
      vertex 5.095350e-001 3.372160e-001 3.497110e-001
      vertex 5.987150e-001 3.202310e-001 3.985460e-001
      vertex 5.987150e-001 3.181400e-001 3.497110e-001
    endloop
  endfacet
  facet normal 7.553394e-002 9.765295e-001 2.017044e-001
    outer loop
      vertex 5.987150e-001 3.202310e-001 3.985460e-001
      vertex 5.095350e-001 3.372160e-001 3.497110e-001
      vertex 5.095350e-001 3.271290e-001 3.985460e-001
    endloop
  endfacet
  facet normal 3.728757e-001 9.277054e-001 1.806574e-002
    outer loop
      vertex 5.987150e-001 3.181400e-001 3.497110e-001
      vertex 6.878940e-001 2.813450e-001 3.985460e-001
      vertex 6.878940e-001 2.822960e-001 3.497110e-001
    endloop
  endfacet
  facet normal 3.993910e-001 9.159415e-001 -3.921828e-002
    outer loop
      vertex 6.878940e-001 2.813450e-001 3.985460e-001
      vertex 5.987150e-001 3.181400e-001 3.497110e-001
      vertex 5.987150e-001 3.202310e-001 3.985460e-001
    endloop
  endfacet
  facet normal -7.857941e-002 8.952112e-001 4.386595e-001
    outer loop
      vertex 5.095350e-001 2.744010e-001 4.962150e-001
      vertex 5.987150e-001 2.583000e-001 5.450490e-001
      vertex 5.987150e-001 2.822290e-001 4.962150e-001
    endloop
  endfacet
  facet normal -6.760172e-002 9.042605e-001 4.215958e-001
    outer loop
      vertex 5.987150e-001 2.583000e-001 5.450490e-001
      vertex 5.095350e-001 2.744010e-001 4.962150e-001
      vertex 5.095350e-001 2.516330e-001 5.450490e-001
    endloop
  endfacet
  facet normal -3.089924e-002 8.984695e-001 4.379473e-001
    outer loop
      vertex 5.095350e-001 3.029660e-001 4.473800e-001
      vertex 5.987150e-001 2.822290e-001 4.962150e-001
      vertex 5.987150e-001 3.060330e-001 4.473800e-001
    endloop
  endfacet
  facet normal -7.555114e-002 8.607118e-001 5.034552e-001
    outer loop
      vertex 5.987150e-001 2.822290e-001 4.962150e-001
      vertex 5.095350e-001 3.029660e-001 4.473800e-001
      vertex 5.095350e-001 2.744010e-001 4.962150e-001
    endloop
  endfacet
  facet normal 3.221781e-001 8.971035e-001 3.023352e-001
    outer loop
      vertex 5.987150e-001 3.060330e-001 4.473800e-001
      vertex 6.878940e-001 2.575480e-001 4.962150e-001
      vertex 6.878940e-001 2.740060e-001 4.473800e-001
    endloop
  endfacet
  facet normal 2.414189e-001 8.723102e-001 4.251963e-001
    outer loop
      vertex 6.878940e-001 2.575480e-001 4.962150e-001
      vertex 5.987150e-001 3.060330e-001 4.473800e-001
      vertex 5.987150e-001 2.822290e-001 4.962150e-001
    endloop
  endfacet
  facet normal -1.568580e-001 8.019514e-001 5.764282e-001
    outer loop
      vertex 3.311770e-001 2.997120e-001 3.985460e-001
      vertex 4.203560e-001 2.820540e-001 4.473800e-001
      vertex 4.203560e-001 3.171550e-001 3.985460e-001
    endloop
  endfacet
  facet normal -8.138640e-002 8.805002e-001 4.670072e-001
    outer loop
      vertex 4.203560e-001 2.820540e-001 4.473800e-001
      vertex 3.311770e-001 2.997120e-001 3.985460e-001
      vertex 3.311770e-001 2.738110e-001 4.473800e-001
    endloop
  endfacet
  facet normal -3.872641e-002 9.990087e-001 -2.195022e-002
    outer loop
      vertex 3.311770e-001 3.126250e-001 3.497110e-001
      vertex 4.203560e-001 3.171550e-001 3.985460e-001
      vertex 4.203560e-001 3.160820e-001 3.497110e-001
    endloop
  endfacet
  facet normal -1.858036e-001 9.499389e-001 2.511835e-001
    outer loop
      vertex 4.203560e-001 3.171550e-001 3.985460e-001
      vertex 3.311770e-001 3.126250e-001 3.497110e-001
      vertex 3.311770e-001 2.997120e-001 3.985460e-001
    endloop
  endfacet
  facet normal -2.260760e-001 9.539721e-001 1.970451e-001
    outer loop
      vertex 4.203560e-001 3.160820e-001 3.497110e-001
      vertex 5.095350e-001 3.271290e-001 3.985460e-001
      vertex 5.095350e-001 3.372160e-001 3.497110e-001
    endloop
  endfacet
  facet normal -1.111230e-001 9.935669e-001 -2.183065e-002
    outer loop
      vertex 5.095350e-001 3.271290e-001 3.985460e-001
      vertex 4.203560e-001 3.160820e-001 3.497110e-001
      vertex 4.203560e-001 3.171550e-001 3.985460e-001
    endloop
  endfacet
  facet normal -2.200164e-001 8.882731e-001 4.031919e-001
    outer loop
      vertex 1.528180e-001 2.423900e-001 3.985460e-001
      vertex 2.419980e-001 2.423130e-001 4.473800e-001
      vertex 2.419980e-001 2.644790e-001 3.985460e-001
    endloop
  endfacet
  facet normal -1.917339e-003 9.999853e-001 5.078355e-003
    outer loop
      vertex 2.419980e-001 2.423130e-001 4.473800e-001
      vertex 1.528180e-001 2.423900e-001 3.985460e-001
      vertex 1.528180e-001 2.421420e-001 4.473800e-001
    endloop
  endfacet
  facet normal -2.945648e-001 9.491721e-001 1.109229e-001
    outer loop
      vertex 1.528180e-001 2.425100e-001 3.497110e-001
      vertex 2.419980e-001 2.644790e-001 3.985460e-001
      vertex 2.419980e-001 2.701860e-001 3.497110e-001
    endloop
  endfacet
  facet normal -2.404241e-001 9.706650e-001 2.385151e-003
    outer loop
      vertex 2.419980e-001 2.644790e-001 3.985460e-001
      vertex 1.528180e-001 2.425100e-001 3.497110e-001
      vertex 1.528180e-001 2.423900e-001 3.985460e-001
    endloop
  endfacet
  facet normal -4.179606e-001 8.782799e-001 2.322354e-001
    outer loop
      vertex 2.419980e-001 2.701860e-001 3.497110e-001
      vertex 3.311770e-001 2.997120e-001 3.985460e-001
      vertex 3.311770e-001 3.126250e-001 3.497110e-001
    endloop
  endfacet
  facet normal -3.652928e-001 9.246005e-001 1.080514e-001
    outer loop
      vertex 3.311770e-001 2.997120e-001 3.985460e-001
      vertex 2.419980e-001 2.701860e-001 3.497110e-001
      vertex 2.419980e-001 2.644790e-001 3.985460e-001
    endloop
  endfacet
  facet normal 7.514246e-002 9.952777e-001 -6.144842e-002
    outer loop
      vertex 1.528180e-001 2.414610e-001 4.962150e-001
      vertex 2.419980e-001 2.377430e-001 5.450490e-001
      vertex 2.419980e-001 2.347280e-001 4.962150e-001
    endloop
  endfacet
  facet normal 4.926254e-002 9.986888e-001 -1.392717e-002
    outer loop
      vertex 2.419980e-001 2.377430e-001 5.450490e-001
      vertex 1.528180e-001 2.414610e-001 4.962150e-001
      vertex 1.528180e-001 2.421420e-001 5.450490e-001
    endloop
  endfacet
  facet normal -1.894647e-003 9.881502e-001 1.534786e-001
    outer loop
      vertex 1.528180e-001 2.421420e-001 4.473800e-001
      vertex 2.419980e-001 2.347280e-001 4.962150e-001
      vertex 2.419980e-001 2.423130e-001 4.473800e-001
    endloop
  endfacet
  facet normal 7.527745e-002 9.970657e-001 1.390427e-002
    outer loop
      vertex 2.419980e-001 2.347280e-001 4.962150e-001
      vertex 1.528180e-001 2.421420e-001 4.473800e-001
      vertex 1.528180e-001 2.414610e-001 4.962150e-001
    endloop
  endfacet
  facet normal -3.000164e-001 8.494236e-001 4.341309e-001
    outer loop
      vertex 2.419980e-001 2.423130e-001 4.473800e-001
      vertex 3.311770e-001 2.488520e-001 4.962150e-001
      vertex 3.311770e-001 2.738110e-001 4.473800e-001
    endloop
  endfacet
  facet normal -1.546196e-001 9.762685e-001 1.516331e-001
    outer loop
      vertex 3.311770e-001 2.488520e-001 4.962150e-001
      vertex 2.419980e-001 2.423130e-001 4.473800e-001
      vertex 2.419980e-001 2.347280e-001 4.962150e-001
    endloop
  endfacet
  facet normal -9.427148e-002 7.189803e-001 -6.886074e-001
    outer loop
      vertex 3.311770e-001 2.534850e-001 2.032080e-001
      vertex 4.203560e-001 3.119500e-001 2.520430e-001
      vertex 4.203560e-001 2.651780e-001 2.032080e-001
    endloop
  endfacet
  facet normal -7.699095e-002 7.057229e-001 -7.042922e-001
    outer loop
      vertex 4.203560e-001 3.119500e-001 2.520430e-001
      vertex 3.311770e-001 2.534850e-001 2.032080e-001
      vertex 3.311770e-001 3.022210e-001 2.520430e-001
    endloop
  endfacet
  facet normal -5.246893e-002 9.309847e-001 -3.612680e-001
    outer loop
      vertex 3.311770e-001 2.412020e-001 1.543740e-001
      vertex 4.203560e-001 2.651780e-001 2.032080e-001
      vertex 4.203560e-001 2.462280e-001 1.543740e-001
    endloop
  endfacet
  facet normal -1.261420e-001 9.620469e-001 -2.419794e-001
    outer loop
      vertex 4.203560e-001 2.651780e-001 2.032080e-001
      vertex 3.311770e-001 2.412020e-001 1.543740e-001
      vertex 3.311770e-001 2.534850e-001 2.032080e-001
    endloop
  endfacet
  facet normal -5.484871e-002 9.049694e-001 -4.219266e-001
    outer loop
      vertex 4.203560e-001 2.462280e-001 1.543740e-001
      vertex 5.095350e-001 2.744010e-001 2.032080e-001
      vertex 5.095350e-001 2.516330e-001 1.543740e-001
    endloop
  endfacet
  facet normal -9.597146e-002 9.279655e-001 -3.600964e-001
    outer loop
      vertex 5.095350e-001 2.744010e-001 2.032080e-001
      vertex 4.203560e-001 2.462280e-001 1.543740e-001
      vertex 4.203560e-001 2.651780e-001 2.032080e-001
    endloop
  endfacet
  facet normal -9.106536e-002 9.894253e-001 1.128920e-001
    outer loop
      vertex 1.528180e-001 2.393180e-001 2.032080e-001
      vertex 2.419980e-001 2.419540e-001 2.520430e-001
      vertex 2.419980e-001 2.475260e-001 2.032080e-001
    endloop
  endfacet
  facet normal -8.425838e-003 9.992212e-001 -3.854880e-002
    outer loop
      vertex 2.419980e-001 2.419540e-001 2.520430e-001
      vertex 1.528180e-001 2.393180e-001 2.032080e-001
      vertex 1.528180e-001 2.412020e-001 2.520430e-001
    endloop
  endfacet
  facet normal 3.711577e-002 9.801582e-001 -1.947109e-001
    outer loop
      vertex 1.528180e-001 2.412020e-001 1.543740e-001
      vertex 2.419980e-001 2.475260e-001 2.032080e-001
      vertex 2.419980e-001 2.378250e-001 1.543740e-001
    endloop
  endfacet
  facet normal -9.158371e-002 9.950571e-001 3.838896e-002
    outer loop
      vertex 2.419980e-001 2.475260e-001 2.032080e-001
      vertex 1.528180e-001 2.412020e-001 1.543740e-001
      vertex 1.528180e-001 2.393180e-001 2.032080e-001
    endloop
  endfacet
  facet normal -3.669897e-002 9.691401e-001 -2.437635e-001
    outer loop
      vertex 2.419980e-001 2.378250e-001 1.543740e-001
      vertex 3.311770e-001 2.534850e-001 2.032080e-001
      vertex 3.311770e-001 2.412020e-001 1.543740e-001
    endloop
  endfacet
  facet normal -6.539956e-002 9.787342e-001 -1.944281e-001
    outer loop
      vertex 3.311770e-001 2.534850e-001 2.032080e-001
      vertex 2.419980e-001 2.378250e-001 1.543740e-001
      vertex 2.419980e-001 2.475260e-001 2.032080e-001
    endloop
  endfacet
  facet normal -2.178765e-001 9.642321e-001 -1.509515e-001
    outer loop
      vertex 1.528180e-001 2.423900e-001 3.008770e-001
      vertex 2.419980e-001 2.701860e-001 3.497110e-001
      vertex 2.419980e-001 2.625410e-001 3.008770e-001
    endloop
  endfacet
  facet normal -2.963930e-001 9.550632e-001 -2.346863e-003
    outer loop
      vertex 2.419980e-001 2.701860e-001 3.497110e-001
      vertex 1.528180e-001 2.423900e-001 3.008770e-001
      vertex 1.528180e-001 2.425100e-001 3.497110e-001
    endloop
  endfacet
  facet normal -7.769927e-003 9.214366e-001 -3.884510e-001
    outer loop
      vertex 1.528180e-001 2.412020e-001 2.520430e-001
      vertex 2.419980e-001 2.625410e-001 3.008770e-001
      vertex 2.419980e-001 2.419540e-001 2.520430e-001
    endloop
  endfacet
  facet normal -2.203400e-001 9.751346e-001 -2.372261e-002
    outer loop
      vertex 2.419980e-001 2.625410e-001 3.008770e-001
      vertex 1.528180e-001 2.412020e-001 2.520430e-001
      vertex 1.528180e-001 2.423900e-001 3.008770e-001
    endloop
  endfacet
  facet normal -5.584764e-001 8.263952e-001 -7.193777e-002
    outer loop
      vertex 2.419980e-001 2.419540e-001 2.520430e-001
      vertex 3.311770e-001 3.064720e-001 3.008770e-001
      vertex 3.311770e-001 3.022210e-001 2.520430e-001
    endloop
  endfacet
  facet normal -4.133371e-001 8.390653e-001 -3.537256e-001
    outer loop
      vertex 3.311770e-001 3.064720e-001 3.008770e-001
      vertex 2.419980e-001 2.419540e-001 2.520430e-001
      vertex 2.419980e-001 2.625410e-001 3.008770e-001
    endloop
  endfacet
  facet normal -2.865776e-001 9.209297e-001 -2.641247e-001
    outer loop
      vertex 6.878940e-001 2.599830e-001 2.032080e-001
      vertex 7.770730e-001 3.017400e-001 2.520430e-001
      vertex 7.770730e-001 2.877340e-001 2.032080e-001
    endloop
  endfacet
  facet normal -3.051502e-001 9.235082e-001 -2.324135e-001
    outer loop
      vertex 7.770730e-001 3.017400e-001 2.520430e-001
      vertex 6.878940e-001 2.599830e-001 2.032080e-001
      vertex 6.878940e-001 2.722730e-001 2.520430e-001
    endloop
  endfacet
  facet normal -1.362696e-001 8.646918e-001 -4.834652e-001
    outer loop
      vertex 6.878940e-001 2.463760e-001 1.543740e-001
      vertex 7.770730e-001 2.877340e-001 2.032080e-001
      vertex 7.770730e-001 2.604300e-001 1.543740e-001
    endloop
  endfacet
  facet normal -2.871403e-001 9.227378e-001 -2.571099e-001
    outer loop
      vertex 7.770730e-001 2.877340e-001 2.032080e-001
      vertex 6.878940e-001 2.463760e-001 1.543740e-001
      vertex 6.878940e-001 2.599830e-001 2.032080e-001
    endloop
  endfacet
  facet normal 1.513174e-001 9.601873e-001 -2.348265e-001
    outer loop
      vertex 7.770730e-001 2.604300e-001 1.543740e-001
      vertex 8.662530e-001 2.583190e-001 2.032080e-001
      vertex 8.662530e-001 2.463760e-001 1.543740e-001
    endloop
  endfacet
  facet normal 2.766574e-001 8.387659e-001 -4.689696e-001
    outer loop
      vertex 8.662530e-001 2.583190e-001 2.032080e-001
      vertex 7.770730e-001 2.604300e-001 1.543740e-001
      vertex 7.770730e-001 2.877340e-001 2.032080e-001
    endloop
  endfacet
  facet normal 1.747707e-001 9.026484e-001 -3.932952e-001
    outer loop
      vertex 5.095350e-001 2.744010e-001 2.032080e-001
      vertex 5.987150e-001 2.784120e-001 2.520430e-001
      vertex 5.987150e-001 2.571340e-001 2.032080e-001
    endloop
  endfacet
  facet normal 2.312194e-001 8.397883e-001 -4.912161e-001
    outer loop
      vertex 5.987150e-001 2.784120e-001 2.520430e-001
      vertex 5.095350e-001 2.744010e-001 2.032080e-001
      vertex 5.095350e-001 3.029660e-001 2.520430e-001
    endloop
  endfacet
  facet normal 5.904736e-002 9.742551e-001 -2.175784e-001
    outer loop
      vertex 5.095350e-001 2.516330e-001 1.543740e-001
      vertex 5.987150e-001 2.571340e-001 2.032080e-001
      vertex 5.987150e-001 2.462280e-001 1.543740e-001
    endloop
  endfacet
  facet normal 1.728431e-001 8.926928e-001 -4.162029e-001
    outer loop
      vertex 5.987150e-001 2.571340e-001 2.032080e-001
      vertex 5.095350e-001 2.516330e-001 1.543740e-001
      vertex 5.095350e-001 2.744010e-001 2.032080e-001
    endloop
  endfacet
  facet normal -1.598664e-003 9.633027e-001 -2.684128e-001
    outer loop
      vertex 5.987150e-001 2.462280e-001 1.543740e-001
      vertex 6.878940e-001 2.599830e-001 2.032080e-001
      vertex 6.878940e-001 2.463760e-001 1.543740e-001
    endloop
  endfacet
  facet normal -3.116391e-002 9.754840e-001 -2.178528e-001
    outer loop
      vertex 6.878940e-001 2.599830e-001 2.032080e-001
      vertex 5.987150e-001 2.462280e-001 1.543740e-001
      vertex 5.987150e-001 2.571340e-001 2.032080e-001
    endloop
  endfacet
  facet normal 2.594439e-001 9.162887e-001 -3.051293e-001
    outer loop
      vertex 5.095350e-001 3.271290e-001 3.008770e-001
      vertex 5.987150e-001 3.181400e-001 3.497110e-001
      vertex 5.987150e-001 3.018780e-001 3.008770e-001
    endloop
  endfacet
  facet normal 2.050318e-001 9.585209e-001 -1.979888e-001
    outer loop
      vertex 5.987150e-001 3.181400e-001 3.497110e-001
      vertex 5.095350e-001 3.271290e-001 3.008770e-001
      vertex 5.095350e-001 3.372160e-001 3.497110e-001
    endloop
  endfacet
  facet normal 2.408600e-001 8.748026e-001 -4.203652e-001
    outer loop
      vertex 5.095350e-001 3.029660e-001 2.520430e-001
      vertex 5.987150e-001 3.018780e-001 3.008770e-001
      vertex 5.987150e-001 2.784120e-001 2.520430e-001
    endloop
  endfacet
  facet normal 2.459821e-001 8.687452e-001 -4.298542e-001
    outer loop
      vertex 5.987150e-001 3.018780e-001 3.008770e-001
      vertex 5.095350e-001 3.029660e-001 2.520430e-001
      vertex 5.095350e-001 3.271290e-001 3.008770e-001
    endloop
  endfacet
  facet normal 6.808324e-002 9.890184e-001 -1.311765e-001
    outer loop
      vertex 5.987150e-001 2.784120e-001 2.520430e-001
      vertex 6.878940e-001 2.787500e-001 3.008770e-001
      vertex 6.878940e-001 2.722730e-001 2.520430e-001
    endloop
  endfacet
  facet normal 2.276202e-001 8.776780e-001 -4.217468e-001
    outer loop
      vertex 6.878940e-001 2.787500e-001 3.008770e-001
      vertex 5.987150e-001 2.784120e-001 2.520430e-001
      vertex 5.987150e-001 3.018780e-001 3.008770e-001
    endloop
  endfacet
  facet normal -9.753486e-002 8.801049e-001 4.646529e-001
    outer loop
      vertex 6.878940e-001 2.787500e-001 3.008770e-001
      vertex 7.770730e-001 2.628510e-001 3.497110e-001
      vertex 7.770730e-001 2.886330e-001 3.008770e-001
    endloop
  endfacet
  facet normal 2.125049e-001 9.745940e-001 -7.076853e-002
    outer loop
      vertex 7.770730e-001 2.628510e-001 3.497110e-001
      vertex 6.878940e-001 2.787500e-001 3.008770e-001
      vertex 6.878940e-001 2.822960e-001 3.497110e-001
    endloop
  endfacet
  facet normal -3.040239e-001 9.200996e-001 2.469539e-001
    outer loop
      vertex 6.878940e-001 2.722730e-001 2.520430e-001
      vertex 7.770730e-001 2.886330e-001 3.008770e-001
      vertex 7.770730e-001 3.017400e-001 2.520430e-001
    endloop
  endfacet
  facet normal -1.092028e-001 9.853900e-001 -1.306952e-001
    outer loop
      vertex 7.770730e-001 2.886330e-001 3.008770e-001
      vertex 6.878940e-001 2.722730e-001 2.520430e-001
      vertex 6.878940e-001 2.787500e-001 3.008770e-001
    endloop
  endfacet
  facet normal 3.767776e-001 9.174595e-001 1.276977e-001
    outer loop
      vertex 7.770730e-001 3.017400e-001 2.520430e-001
      vertex 8.662530e-001 2.583190e-001 3.008770e-001
      vertex 8.662530e-001 2.651160e-001 2.520430e-001
    endloop
  endfacet
  facet normal 3.119204e-001 9.176308e-001 2.462913e-001
    outer loop
      vertex 8.662530e-001 2.583190e-001 3.008770e-001
      vertex 7.770730e-001 3.017400e-001 2.520430e-001
      vertex 7.770730e-001 2.886330e-001 3.008770e-001
    endloop
  endfacet
  facet normal -1.675375e-001 9.793420e-001 1.132276e-001
    outer loop
      vertex 3.311770e-001 3.064720e-001 3.008770e-001
      vertex 4.203560e-001 3.160820e-001 3.497110e-001
      vertex 4.203560e-001 3.217280e-001 3.008770e-001
    endloop
  endfacet
  facet normal -3.843233e-002 9.914225e-001 -1.249173e-001
    outer loop
      vertex 4.203560e-001 3.160820e-001 3.497110e-001
      vertex 3.311770e-001 3.064720e-001 3.008770e-001
      vertex 3.311770e-001 3.126250e-001 3.497110e-001
    endloop
  endfacet
  facet normal -1.063650e-001 9.749750e-001 -1.952185e-001
    outer loop
      vertex 3.311770e-001 3.022210e-001 2.520430e-001
      vertex 4.203560e-001 3.217280e-001 3.008770e-001
      vertex 4.203560e-001 3.119500e-001 2.520430e-001
    endloop
  endfacet
  facet normal -1.680046e-001 9.820723e-001 -8.548947e-002
    outer loop
      vertex 4.203560e-001 3.217280e-001 3.008770e-001
      vertex 3.311770e-001 3.022210e-001 2.520430e-001
      vertex 3.311770e-001 3.064720e-001 3.008770e-001
    endloop
  endfacet
  facet normal 8.992689e-002 8.926527e-001 -4.416836e-001
    outer loop
      vertex 4.203560e-001 3.119500e-001 2.520430e-001
      vertex 5.095350e-001 3.271290e-001 3.008770e-001
      vertex 5.095350e-001 3.029660e-001 2.520430e-001
    endloop
  endfacet
  facet normal -5.928059e-002 9.788130e-001 -1.959870e-001
    outer loop
      vertex 5.095350e-001 3.271290e-001 3.008770e-001
      vertex 4.203560e-001 3.119500e-001 2.520430e-001
      vertex 4.203560e-001 3.217280e-001 3.008770e-001
    endloop
  endfacet
  facet normal -8.506895e-002 9.744840e-001 2.077120e-001
    outer loop
      vertex 3.311770e-001 2.488520e-001 4.962150e-001
      vertex 4.203560e-001 2.462280e-001 5.450490e-001
      vertex 4.203560e-001 2.566370e-001 4.962150e-001
    endloop
  endfacet
  facet normal -4.534464e-002 9.896726e-001 1.359850e-001
    outer loop
      vertex 4.203560e-001 2.462280e-001 5.450490e-001
      vertex 3.311770e-001 2.488520e-001 4.962150e-001
      vertex 3.311770e-001 2.421420e-001 5.450490e-001
    endloop
  endfacet
  facet normal -8.171733e-002 8.840805e-001 4.601348e-001
    outer loop
      vertex 3.311770e-001 2.738110e-001 4.473800e-001
      vertex 4.203560e-001 2.566370e-001 4.962150e-001
      vertex 4.203560e-001 2.820540e-001 4.473800e-001
    endloop
  endfacet
  facet normal -7.749867e-002 8.877647e-001 4.537266e-001
    outer loop
      vertex 4.203560e-001 2.566370e-001 4.962150e-001
      vertex 3.311770e-001 2.738110e-001 4.473800e-001
      vertex 3.311770e-001 2.488520e-001 4.962150e-001
    endloop
  endfacet
  facet normal -1.983876e-001 8.460220e-001 4.948627e-001
    outer loop
      vertex 4.203560e-001 2.820540e-001 4.473800e-001
      vertex 5.095350e-001 2.744010e-001 4.962150e-001
      vertex 5.095350e-001 3.029660e-001 4.473800e-001
    endloop
  endfacet
  facet normal -1.739999e-001 8.735158e-001 4.546363e-001
    outer loop
      vertex 5.095350e-001 2.744010e-001 4.962150e-001
      vertex 4.203560e-001 2.820540e-001 4.473800e-001
      vertex 4.203560e-001 2.566370e-001 4.962150e-001
    endloop
  endfacet
  facet normal -8.522698e-002 9.778050e-001 1.913996e-001
    outer loop
      vertex 6.878940e-001 2.575480e-001 4.962150e-001
      vertex 7.770730e-001 2.557620e-001 5.450490e-001
      vertex 7.770730e-001 2.653210e-001 4.962150e-001
    endloop
  endfacet
  facet normal -1.222745e-001 9.582844e-001 2.583406e-001
    outer loop
      vertex 7.770730e-001 2.557620e-001 5.450490e-001
      vertex 6.878940e-001 2.575480e-001 4.962150e-001
      vertex 6.878940e-001 2.443830e-001 5.450490e-001
    endloop
  endfacet
  facet normal 1.737074e-001 9.742193e-001 -1.439530e-001
    outer loop
      vertex 6.878940e-001 2.740060e-001 4.473800e-001
      vertex 7.770730e-001 2.653210e-001 4.962150e-001
      vertex 7.770730e-001 2.581050e-001 4.473800e-001
    endloop
  endfacet
  facet normal -8.231676e-002 9.444161e-001 3.182801e-001
    outer loop
      vertex 7.770730e-001 2.653210e-001 4.962150e-001
      vertex 6.878940e-001 2.740060e-001 4.473800e-001
      vertex 6.878940e-001 2.575480e-001 4.962150e-001
    endloop
  endfacet
  facet normal 1.657610e-001 9.853718e-001 -3.956840e-002
    outer loop
      vertex 7.770730e-001 2.581050e-001 4.473800e-001
      vertex 8.662530e-001 2.450640e-001 4.962150e-001
      vertex 8.662530e-001 2.431030e-001 4.473800e-001
    endloop
  endfacet
  facet normal 2.192404e-001 9.651909e-001 -1.426190e-001
    outer loop
      vertex 8.662530e-001 2.450640e-001 4.962150e-001
      vertex 7.770730e-001 2.581050e-001 4.473800e-001
      vertex 7.770730e-001 2.653210e-001 4.962150e-001
    endloop
  endfacet
  facet normal -3.521149e-001 -9.282077e-001 -1.201898e-001
    outer loop
      vertex 6.294290e-001 3.018180e-001 4.138530e-001
      vertex 6.550650e-001 2.920930e-001 4.138530e-001
      vertex 6.422470e-001 2.962630e-001 4.192010e-001
    endloop
  endfacet
  facet normal -3.521089e-001 -9.281918e-001 -1.203296e-001
    outer loop
      vertex 6.550650e-001 2.920930e-001 4.138530e-001
      vertex 6.294290e-001 3.018180e-001 4.138530e-001
      vertex 6.241190e-001 3.055060e-001 4.009430e-001
    endloop
  endfacet
  facet normal -3.710794e-001 -9.259222e-001 -7.048526e-002
    outer loop
      vertex 6.422470e-001 3.000230e-001 3.826850e-001
      vertex 6.603750e-001 2.913680e-001 4.009430e-001
      vertex 6.294290e-001 3.047530e-001 3.880320e-001
    endloop
  endfacet
  facet normal -3.693179e-001 -9.264712e-001 -7.249453e-002
    outer loop
      vertex 6.603750e-001 2.913680e-001 4.009430e-001
      vertex 6.422470e-001 3.000230e-001 3.826850e-001
      vertex 6.550650e-001 2.944950e-001 3.880320e-001
    endloop
  endfacet
  facet normal -3.622868e-001 -9.272205e-001 -9.492346e-002
    outer loop
      vertex 6.294290e-001 3.047530e-001 3.880320e-001
      vertex 6.550650e-001 2.920930e-001 4.138530e-001
      vertex 6.241190e-001 3.055060e-001 4.009430e-001
    endloop
  endfacet
  facet normal -3.609882e-001 -9.275759e-001 -9.638696e-002
    outer loop
      vertex 6.550650e-001 2.920930e-001 4.138530e-001
      vertex 6.294290e-001 3.047530e-001 3.880320e-001
      vertex 6.603750e-001 2.913680e-001 4.009430e-001
    endloop
  endfacet
  facet normal 3.516305e-001 9.284013e-001 1.201123e-001
    outer loop
      vertex 6.299940e-001 3.064400e-001 4.138530e-001
      vertex 6.556310e-001 2.967300e-001 4.138530e-001
      vertex 6.246850e-001 3.101210e-001 4.009430e-001
    endloop
  endfacet
  facet normal 3.516357e-001 9.284150e-001 1.199913e-001
    outer loop
      vertex 6.556310e-001 2.967300e-001 4.138530e-001
      vertex 6.299940e-001 3.064400e-001 4.138530e-001
      vertex 6.428120e-001 3.008940e-001 4.192010e-001
    endloop
  endfacet
  facet normal 3.687090e-001 9.267205e-001 7.240642e-002
    outer loop
      vertex 6.428120e-001 3.046450e-001 3.826850e-001
      vertex 6.609400e-001 2.960060e-001 4.009430e-001
      vertex 6.556310e-001 2.991270e-001 3.880320e-001
    endloop
  endfacet
  facet normal 3.706150e-001 9.261273e-001 7.023329e-002
    outer loop
      vertex 6.609400e-001 2.960060e-001 4.009430e-001
      vertex 6.428120e-001 3.046450e-001 3.826850e-001
      vertex 6.299940e-001 3.093690e-001 3.880320e-001
    endloop
  endfacet
  facet normal 3.604924e-001 9.277867e-001 9.621355e-002
    outer loop
      vertex 6.299940e-001 3.093690e-001 3.880320e-001
      vertex 6.556310e-001 2.967300e-001 4.138530e-001
      vertex 6.609400e-001 2.960060e-001 4.009430e-001
    endloop
  endfacet
  facet normal 3.617916e-001 9.274316e-001 9.474974e-002
    outer loop
      vertex 6.556310e-001 2.967300e-001 4.138530e-001
      vertex 6.299940e-001 3.093690e-001 3.880320e-001
      vertex 6.246850e-001 3.101210e-001 4.009430e-001
    endloop
  endfacet
  facet normal 3.720455e-001 -4.539055e-002 9.271040e-001
    outer loop
      vertex 6.550650e-001 2.920930e-001 4.138530e-001
      vertex 6.428120e-001 3.008940e-001 4.192010e-001
      vertex 6.422470e-001 2.962630e-001 4.192010e-001
    endloop
  endfacet
  facet normal 3.720324e-001 -4.541133e-002 9.271083e-001
    outer loop
      vertex 6.428120e-001 3.008940e-001 4.192010e-001
      vertex 6.550650e-001 2.920930e-001 4.138530e-001
      vertex 6.556310e-001 2.967300e-001 4.138530e-001
    endloop
  endfacet
  facet normal 9.094191e-001 -1.107840e-001 -4.008539e-001
    outer loop
      vertex 6.550650e-001 2.944950e-001 3.880320e-001
      vertex 6.609400e-001 2.960060e-001 4.009430e-001
      vertex 6.603750e-001 2.913680e-001 4.009430e-001
    endloop
  endfacet
  facet normal 9.093992e-001 -1.111231e-001 -4.008052e-001
    outer loop
      vertex 6.609400e-001 2.960060e-001 4.009430e-001
      vertex 6.550650e-001 2.944950e-001 3.880320e-001
      vertex 6.556310e-001 2.991270e-001 3.880320e-001
    endloop
  endfacet
  facet normal -3.703227e-001 4.526805e-002 -9.277995e-001
    outer loop
      vertex 6.294290e-001 3.047530e-001 3.880320e-001
      vertex 6.428120e-001 3.046450e-001 3.826850e-001
      vertex 6.422470e-001 3.000230e-001 3.826850e-001
    endloop
  endfacet
  facet normal -3.703213e-001 4.532692e-002 -9.277972e-001
    outer loop
      vertex 6.428120e-001 3.046450e-001 3.826850e-001
      vertex 6.294290e-001 3.047530e-001 3.880320e-001
      vertex 6.299940e-001 3.093690e-001 3.880320e-001
    endloop
  endfacet
  facet normal -9.074926e-001 1.112990e-001 4.050551e-001
    outer loop
      vertex 6.294290e-001 3.018180e-001 4.138530e-001
      vertex 6.246850e-001 3.101210e-001 4.009430e-001
      vertex 6.241190e-001 3.055060e-001 4.009430e-001
    endloop
  endfacet
  facet normal -9.076163e-001 1.109473e-001 4.048744e-001
    outer loop
      vertex 6.246850e-001 3.101210e-001 4.009430e-001
      vertex 6.294290e-001 3.018180e-001 4.138530e-001
      vertex 6.299940e-001 3.064400e-001 4.138530e-001
    endloop
  endfacet
  facet normal 9.167906e-001 -1.119061e-001 3.833693e-001
    outer loop
      vertex 6.603750e-001 2.913680e-001 4.009430e-001
      vertex 6.556310e-001 2.967300e-001 4.138530e-001
      vertex 6.550650e-001 2.920930e-001 4.138530e-001
    endloop
  endfacet
  facet normal 9.168463e-001 -1.116888e-001 3.832995e-001
    outer loop
      vertex 6.556310e-001 2.967300e-001 4.138530e-001
      vertex 6.603750e-001 2.913680e-001 4.009430e-001
      vertex 6.609400e-001 2.960060e-001 4.009430e-001
    endloop
  endfacet
  facet normal 3.680224e-001 -4.497012e-002 -9.287288e-001
    outer loop
      vertex 6.422470e-001 3.000230e-001 3.826850e-001
      vertex 6.556310e-001 2.991270e-001 3.880320e-001
      vertex 6.550650e-001 2.944950e-001 3.880320e-001
    endloop
  endfacet
  facet normal 3.680211e-001 -4.498671e-002 -9.287285e-001
    outer loop
      vertex 6.556310e-001 2.991270e-001 3.880320e-001
      vertex 6.422470e-001 3.000230e-001 3.826850e-001
      vertex 6.428120e-001 3.046450e-001 3.826850e-001
    endloop
  endfacet
  facet normal -9.166783e-001 1.122004e-001 -3.835518e-001
    outer loop
      vertex 6.241190e-001 3.055060e-001 4.009430e-001
      vertex 6.299940e-001 3.093690e-001 3.880320e-001
      vertex 6.294290e-001 3.047530e-001 3.880320e-001
    endloop
  endfacet
  facet normal -9.166788e-001 1.124257e-001 -3.834847e-001
    outer loop
      vertex 6.299940e-001 3.093690e-001 3.880320e-001
      vertex 6.241190e-001 3.055060e-001 4.009430e-001
      vertex 6.246850e-001 3.101210e-001 4.009430e-001
    endloop
  endfacet
  facet normal -3.679972e-001 4.498408e-002 9.287381e-001
    outer loop
      vertex 6.422470e-001 2.962630e-001 4.192010e-001
      vertex 6.299940e-001 3.064400e-001 4.138530e-001
      vertex 6.294290e-001 3.018180e-001 4.138530e-001
    endloop
  endfacet
  facet normal -3.680555e-001 4.490376e-002 9.287189e-001
    outer loop
      vertex 6.299940e-001 3.064400e-001 4.138530e-001
      vertex 6.422470e-001 2.962630e-001 4.192010e-001
      vertex 6.428120e-001 3.008940e-001 4.192010e-001
    endloop
  endfacet
  facet normal 1.103276e-001 -9.938445e-001 1.004587e-002
    outer loop
      vertex 3.463390e-001 3.114920e-001 3.367470e-001
      vertex 3.717780e-001 3.143160e-001 3.367470e-001
      vertex 3.590580e-001 3.129580e-001 3.420950e-001
    endloop
  endfacet
  facet normal 1.102984e-001 -9.935816e-001 2.509602e-002
    outer loop
      vertex 3.717780e-001 3.143160e-001 3.367470e-001
      vertex 3.463390e-001 3.114920e-001 3.367470e-001
      vertex 3.410700e-001 3.105810e-001 3.238370e-001
    endloop
  endfacet
  facet normal 9.653811e-002 -9.923412e-001 7.706750e-002
    outer loop
      vertex 3.590580e-001 3.112210e-001 3.055790e-001
      vertex 3.770470e-001 3.143890e-001 3.238370e-001
      vertex 3.463390e-001 3.103990e-001 3.109270e-001
    endloop
  endfacet
  facet normal 1.054643e-001 -9.920798e-001 6.822743e-002
    outer loop
      vertex 3.770470e-001 3.143890e-001 3.238370e-001
      vertex 3.590580e-001 3.112210e-001 3.055790e-001
      vertex 3.717780e-001 3.129410e-001 3.109270e-001
    endloop
  endfacet
  facet normal 9.813583e-002 -9.937035e-001 5.406144e-002
    outer loop
      vertex 3.463390e-001 3.103990e-001 3.109270e-001
      vertex 3.717780e-001 3.143160e-001 3.367470e-001
      vertex 3.410700e-001 3.105810e-001 3.238370e-001
    endloop
  endfacet
  facet normal 1.121288e-001 -9.928822e-001 4.015029e-002
    outer loop
      vertex 3.717780e-001 3.143160e-001 3.367470e-001
      vertex 3.463390e-001 3.103990e-001 3.109270e-001
      vertex 3.770470e-001 3.143890e-001 3.238370e-001
    endloop
  endfacet
  facet normal -1.115704e-001 9.934335e-001 -2.533670e-002
    outer loop
      vertex 3.471510e-001 3.162940e-001 3.367470e-001
      vertex 3.725900e-001 3.191510e-001 3.367470e-001
      vertex 3.418820e-001 3.153730e-001 3.238370e-001
    endloop
  endfacet
  facet normal -1.116005e-001 9.937015e-001 -1.013623e-002
    outer loop
      vertex 3.725900e-001 3.191510e-001 3.367470e-001
      vertex 3.471510e-001 3.162940e-001 3.367470e-001
      vertex 3.598700e-001 3.177770e-001 3.420950e-001
    endloop
  endfacet
  facet normal -1.067081e-001 9.919240e-001 -6.855769e-002
    outer loop
      vertex 3.598700e-001 3.160320e-001 3.055790e-001
      vertex 3.778580e-001 3.192290e-001 3.238370e-001
      vertex 3.725900e-001 3.177700e-001 3.109270e-001
    endloop
  endfacet
  facet normal -9.782123e-002 9.921927e-001 -7.736023e-002
    outer loop
      vertex 3.778580e-001 3.192290e-001 3.238370e-001
      vertex 3.598700e-001 3.160320e-001 3.055790e-001
      vertex 3.471510e-001 3.151950e-001 3.109270e-001
    endloop
  endfacet
  facet normal -1.134700e-001 9.927236e-001 -4.030491e-002
    outer loop
      vertex 3.471510e-001 3.151950e-001 3.109270e-001
      vertex 3.725900e-001 3.191510e-001 3.367470e-001
      vertex 3.778580e-001 3.192290e-001 3.238370e-001
    endloop
  endfacet
  facet normal -9.941992e-002 9.935642e-001 -5.427644e-002
    outer loop
      vertex 3.725900e-001 3.191510e-001 3.367470e-001
      vertex 3.471510e-001 3.151950e-001 3.109270e-001
      vertex 3.418820e-001 3.153730e-001 3.238370e-001
    endloop
  endfacet
  facet normal 3.927225e-001 -6.617306e-002 9.172732e-001
    outer loop
      vertex 3.717780e-001 3.143160e-001 3.367470e-001
      vertex 3.598700e-001 3.177770e-001 3.420950e-001
      vertex 3.590580e-001 3.129580e-001 3.420950e-001
    endloop
  endfacet
  facet normal 3.927793e-001 -6.596356e-002 9.172640e-001
    outer loop
      vertex 3.598700e-001 3.177770e-001 3.420950e-001
      vertex 3.717780e-001 3.143160e-001 3.367470e-001
      vertex 3.725900e-001 3.191510e-001 3.367470e-001
    endloop
  endfacet
  facet normal 9.207065e-001 -1.542769e-001 -3.584665e-001
    outer loop
      vertex 3.717780e-001 3.129410e-001 3.109270e-001
      vertex 3.778580e-001 3.192290e-001 3.238370e-001
      vertex 3.770470e-001 3.143890e-001 3.238370e-001
    endloop
  endfacet
  facet normal 9.207164e-001 -1.548184e-001 -3.582074e-001
    outer loop
      vertex 3.778580e-001 3.192290e-001 3.238370e-001
      vertex 3.717780e-001 3.129410e-001 3.109270e-001
      vertex 3.725900e-001 3.177700e-001 3.109270e-001
    endloop
  endfacet
  facet normal -3.903762e-001 6.588733e-002 -9.182948e-001
    outer loop
      vertex 3.463390e-001 3.103990e-001 3.109270e-001
      vertex 3.598700e-001 3.160320e-001 3.055790e-001
      vertex 3.590580e-001 3.112210e-001 3.055790e-001
    endloop
  endfacet
  facet normal -3.904496e-001 6.610811e-002 -9.182477e-001
    outer loop
      vertex 3.598700e-001 3.160320e-001 3.055790e-001
      vertex 3.463390e-001 3.103990e-001 3.109270e-001
      vertex 3.471510e-001 3.151950e-001 3.109270e-001
    endloop
  endfacet
  facet normal -9.183716e-001 1.556159e-001 3.638369e-001
    outer loop
      vertex 3.463390e-001 3.114920e-001 3.367470e-001
      vertex 3.418820e-001 3.153730e-001 3.238370e-001
      vertex 3.410700e-001 3.105810e-001 3.238370e-001
    endloop
  endfacet
  facet normal -9.184492e-001 1.553102e-001 3.637717e-001
    outer loop
      vertex 3.418820e-001 3.153730e-001 3.238370e-001
      vertex 3.463390e-001 3.114920e-001 3.367470e-001
      vertex 3.471510e-001 3.162940e-001 3.367470e-001
    endloop
  endfacet
  facet normal 9.151607e-001 -1.536926e-001 3.726386e-001
    outer loop
      vertex 3.770470e-001 3.143890e-001 3.238370e-001
      vertex 3.725900e-001 3.191510e-001 3.367470e-001
      vertex 3.717780e-001 3.143160e-001 3.367470e-001
    endloop
  endfacet
  facet normal 9.152525e-001 -1.533630e-001 3.725487e-001
    outer loop
      vertex 3.725900e-001 3.191510e-001 3.367470e-001
      vertex 3.770470e-001 3.143890e-001 3.238370e-001
      vertex 3.778580e-001 3.192290e-001 3.238370e-001
    endloop
  endfacet
  facet normal 3.943297e-001 -6.630651e-002 -9.165738e-001
    outer loop
      vertex 3.590580e-001 3.112210e-001 3.055790e-001
      vertex 3.725900e-001 3.177700e-001 3.109270e-001
      vertex 3.717780e-001 3.129410e-001 3.109270e-001
    endloop
  endfacet
  facet normal 3.944331e-001 -6.657203e-002 -9.165101e-001
    outer loop
      vertex 3.725900e-001 3.177700e-001 3.109270e-001
      vertex 3.590580e-001 3.112210e-001 3.055790e-001
      vertex 3.598700e-001 3.160320e-001 3.055790e-001
    endloop
  endfacet
  facet normal -9.139405e-001 1.547418e-001 -3.751901e-001
    outer loop
      vertex 3.410700e-001 3.105810e-001 3.238370e-001
      vertex 3.471510e-001 3.151950e-001 3.109270e-001
      vertex 3.463390e-001 3.103990e-001 3.109270e-001
    endloop
  endfacet
  facet normal -9.139382e-001 1.548647e-001 -3.751451e-001
    outer loop
      vertex 3.471510e-001 3.151950e-001 3.109270e-001
      vertex 3.410700e-001 3.105810e-001 3.238370e-001
      vertex 3.418820e-001 3.153730e-001 3.238370e-001
    endloop
  endfacet
  facet normal -3.932485e-001 6.649854e-002 9.170243e-001
    outer loop
      vertex 3.590580e-001 3.129580e-001 3.420950e-001
      vertex 3.471510e-001 3.162940e-001 3.367470e-001
      vertex 3.463390e-001 3.114920e-001 3.367470e-001
    endloop
  endfacet
  facet normal -3.933080e-001 6.627172e-002 9.170152e-001
    outer loop
      vertex 3.471510e-001 3.162940e-001 3.367470e-001
      vertex 3.590580e-001 3.129580e-001 3.420950e-001
      vertex 3.598700e-001 3.177770e-001 3.420950e-001
    endloop
  endfacet
  facet normal -3.741015e-003 -9.961877e-001 8.715600e-002
    outer loop
      vertex 6.431910e-001 2.822510e-001 2.783660e-001
      vertex 6.687300e-001 2.821740e-001 2.785820e-001
      vertex 6.560930e-001 2.826680e-001 2.836860e-001
    endloop
  endfacet
  facet normal -5.118010e-003 -9.653360e-001 2.609603e-001
    outer loop
      vertex 6.687300e-001 2.821740e-001 2.785820e-001
      vertex 6.431910e-001 2.822510e-001 2.783660e-001
      vertex 6.375810e-001 2.788670e-001 2.657380e-001
    endloop
  endfacet
  facet normal 2.085255e-002 -9.116392e-001 4.104622e-001
    outer loop
      vertex 6.551870e-001 2.715380e-001 2.480970e-001
      vertex 6.736990e-001 2.800420e-001 2.660440e-001
      vertex 6.425500e-001 2.735470e-001 2.532010e-001
    endloop
  endfacet
  facet normal 1.368876e-001 -9.423566e-001 3.053291e-001
    outer loop
      vertex 6.736990e-001 2.800420e-001 2.660440e-001
      vertex 6.551870e-001 2.715380e-001 2.480970e-001
      vertex 6.680900e-001 2.751360e-001 2.534170e-001
    endloop
  endfacet
  facet normal -5.481257e-002 -9.267917e-001 3.715545e-001
    outer loop
      vertex 6.425500e-001 2.735470e-001 2.532010e-001
      vertex 6.687300e-001 2.821740e-001 2.785820e-001
      vertex 6.375810e-001 2.788670e-001 2.657380e-001
    endloop
  endfacet
  facet normal 1.154765e-001 -9.706798e-001 2.108221e-001
    outer loop
      vertex 6.687300e-001 2.821740e-001 2.785820e-001
      vertex 6.425500e-001 2.735470e-001 2.532010e-001
      vertex 6.736990e-001 2.800420e-001 2.660440e-001
    endloop
  endfacet
  facet normal -4.453808e-004 9.658298e-001 -2.591769e-001
    outer loop
      vertex 6.438790e-001 2.867760e-001 2.773050e-001
      vertex 6.694180e-001 2.868460e-001 2.775220e-001
      vertex 6.382690e-001 2.833850e-001 2.646780e-001
    endloop
  endfacet
  facet normal -2.018702e-003 9.964730e-001 -8.388915e-002
    outer loop
      vertex 6.694180e-001 2.868460e-001 2.775220e-001
      vertex 6.438790e-001 2.867760e-001 2.773050e-001
      vertex 6.567810e-001 2.872500e-001 2.826250e-001
    endloop
  endfacet
  facet normal -1.437529e-001 9.422366e-001 -3.025316e-001
    outer loop
      vertex 6.558750e-001 2.761930e-001 2.470360e-001
      vertex 6.743870e-001 2.847800e-001 2.649840e-001
      vertex 6.687780e-001 2.798700e-001 2.523570e-001
    endloop
  endfacet
  facet normal -2.674945e-002 9.122112e-001 -4.088461e-001
    outer loop
      vertex 6.743870e-001 2.847800e-001 2.649840e-001
      vertex 6.558750e-001 2.761930e-001 2.470360e-001
      vertex 6.432380e-001 2.781100e-001 2.521400e-001
    endloop
  endfacet
  facet normal -1.219391e-001 9.704474e-001 -2.082372e-001
    outer loop
      vertex 6.432380e-001 2.781100e-001 2.521400e-001
      vertex 6.694180e-001 2.868460e-001 2.775220e-001
      vertex 6.743870e-001 2.847800e-001 2.649840e-001
    endloop
  endfacet
  facet normal 4.972190e-002 9.274959e-001 -3.705118e-001
    outer loop
      vertex 6.694180e-001 2.868460e-001 2.775220e-001
      vertex 6.432380e-001 2.781100e-001 2.521400e-001
      vertex 6.382690e-001 2.833850e-001 2.646780e-001
    endloop
  endfacet
  facet normal 3.751708e-001 1.552807e-001 9.138571e-001
    outer loop
      vertex 6.687300e-001 2.821740e-001 2.785820e-001
      vertex 6.567810e-001 2.872500e-001 2.826250e-001
      vertex 6.560930e-001 2.826680e-001 2.836860e-001
    endloop
  endfacet
  facet normal 3.742487e-001 1.524265e-001 9.147153e-001
    outer loop
      vertex 6.567810e-001 2.872500e-001 2.826250e-001
      vertex 6.687300e-001 2.821740e-001 2.785820e-001
      vertex 6.694180e-001 2.868460e-001 2.775220e-001
    endloop
  endfacet
  facet normal 9.213843e-001 -2.073286e-001 -3.287338e-001
    outer loop
      vertex 6.680900e-001 2.751360e-001 2.534170e-001
      vertex 6.743870e-001 2.847800e-001 2.649840e-001
      vertex 6.736990e-001 2.800420e-001 2.660440e-001
    endloop
  endfacet
  facet normal 9.213939e-001 -2.074879e-001 -3.286062e-001
    outer loop
      vertex 6.743870e-001 2.847800e-001 2.649840e-001
      vertex 6.680900e-001 2.751360e-001 2.534170e-001
      vertex 6.687780e-001 2.798700e-001 2.523570e-001
    endloop
  endfacet
  facet normal -3.906184e-001 -1.493078e-001 -9.083636e-001
    outer loop
      vertex 6.425500e-001 2.735470e-001 2.532010e-001
      vertex 6.558750e-001 2.761930e-001 2.470360e-001
      vertex 6.551870e-001 2.715380e-001 2.480970e-001
    endloop
  endfacet
  facet normal -3.899128e-001 -1.523795e-001 -9.081567e-001
    outer loop
      vertex 6.558750e-001 2.761930e-001 2.470360e-001
      vertex 6.425500e-001 2.735470e-001 2.532010e-001
      vertex 6.432380e-001 2.781100e-001 2.521400e-001
    endloop
  endfacet
  facet normal -9.119884e-001 2.200987e-001 3.461701e-001
    outer loop
      vertex 6.431910e-001 2.822510e-001 2.783660e-001
      vertex 6.382690e-001 2.833850e-001 2.646780e-001
      vertex 6.375810e-001 2.788670e-001 2.657380e-001
    endloop
  endfacet
  facet normal -9.120498e-001 2.198428e-001 3.461710e-001
    outer loop
      vertex 6.382690e-001 2.833850e-001 2.646780e-001
      vertex 6.431910e-001 2.822510e-001 2.783660e-001
      vertex 6.438790e-001 2.867760e-001 2.773050e-001
    endloop
  endfacet
  facet normal 9.254337e-001 -5.108669e-002 3.754500e-001
    outer loop
      vertex 6.736990e-001 2.800420e-001 2.660440e-001
      vertex 6.694180e-001 2.868460e-001 2.775220e-001
      vertex 6.687300e-001 2.821740e-001 2.785820e-001
    endloop
  endfacet
  facet normal 9.255920e-001 -5.046927e-002 3.751430e-001
    outer loop
      vertex 6.694180e-001 2.868460e-001 2.775220e-001
      vertex 6.736990e-001 2.800420e-001 2.660440e-001
      vertex 6.743870e-001 2.847800e-001 2.649840e-001
    endloop
  endfacet
  facet normal 4.286669e-001 -2.562825e-001 -8.663510e-001
    outer loop
      vertex 6.551870e-001 2.715380e-001 2.480970e-001
      vertex 6.687780e-001 2.798700e-001 2.523570e-001
      vertex 6.680900e-001 2.751360e-001 2.534170e-001
    endloop
  endfacet
  facet normal 4.306061e-001 -2.605970e-001 -8.640993e-001
    outer loop
      vertex 6.687780e-001 2.798700e-001 2.523570e-001
      vertex 6.551870e-001 2.715380e-001 2.480970e-001
      vertex 6.558750e-001 2.761930e-001 2.470360e-001
    endloop
  endfacet
  facet normal -9.212003e-001 4.915102e-002 -3.859718e-001
    outer loop
      vertex 6.375810e-001 2.788670e-001 2.657380e-001
      vertex 6.432380e-001 2.781100e-001 2.521400e-001
      vertex 6.425500e-001 2.735470e-001 2.532010e-001
    endloop
  endfacet
  facet normal -9.211631e-001 4.971772e-002 -3.859879e-001
    outer loop
      vertex 6.432380e-001 2.781100e-001 2.521400e-001
      vertex 6.375810e-001 2.788670e-001 2.657380e-001
      vertex 6.382690e-001 2.833850e-001 2.646780e-001
    endloop
  endfacet
  facet normal -3.748614e-001 2.652829e-001 8.883152e-001
    outer loop
      vertex 6.560930e-001 2.826680e-001 2.836860e-001
      vertex 6.438790e-001 2.867760e-001 2.773050e-001
      vertex 6.431910e-001 2.822510e-001 2.783660e-001
    endloop
  endfacet
  facet normal -3.760785e-001 2.622594e-001 8.886985e-001
    outer loop
      vertex 6.438790e-001 2.867760e-001 2.773050e-001
      vertex 6.560930e-001 2.826680e-001 2.836860e-001
      vertex 6.567810e-001 2.872500e-001 2.826250e-001
    endloop
  endfacet
  facet normal 2.922550e-001 -8.299569e-001 -4.751405e-001
    outer loop
      vertex 2.739130e-001 2.550240e-001 4.364860e-001
      vertex 2.988610e-001 2.638090e-001 4.364860e-001
      vertex 2.869690e-001 2.568460e-001 4.413340e-001
    endloop
  endfacet
  facet normal 2.978694e-001 -8.459008e-001 -4.424088e-001
    outer loop
      vertex 2.988610e-001 2.638090e-001 4.364860e-001
      vertex 2.739130e-001 2.550240e-001 4.364860e-001
      vertex 2.673410e-001 2.588310e-001 4.247820e-001
    endloop
  endfacet
  facet normal 3.115589e-001 -8.547607e-001 -4.151087e-001
    outer loop
      vertex 2.829960e-001 2.725420e-001 4.082300e-001
      vertex 3.026240e-001 2.716580e-001 4.247820e-001
      vertex 2.711040e-001 2.658530e-001 4.130780e-001
    endloop
  endfacet
  facet normal 3.323686e-001 -8.348962e-001 -4.387248e-001
    outer loop
      vertex 3.026240e-001 2.716580e-001 4.247820e-001
      vertex 2.829960e-001 2.725420e-001 4.082300e-001
      vertex 2.960520e-001 2.751920e-001 4.130780e-001
    endloop
  endfacet
  facet normal 2.920284e-001 -8.586376e-001 -4.212611e-001
    outer loop
      vertex 2.711040e-001 2.658530e-001 4.130780e-001
      vertex 2.988610e-001 2.638090e-001 4.364860e-001
      vertex 2.673410e-001 2.588310e-001 4.247820e-001
    endloop
  endfacet
  facet normal 3.215855e-001 -8.309999e-001 -4.538963e-001
    outer loop
      vertex 2.988610e-001 2.638090e-001 4.364860e-001
      vertex 2.711040e-001 2.658530e-001 4.130780e-001
      vertex 3.026240e-001 2.716580e-001 4.247820e-001
    endloop
  endfacet
  facet normal -2.941707e-001 8.475900e-001 4.416501e-001
    outer loop
      vertex 2.728050e-001 2.591240e-001 4.384860e-001
      vertex 2.977540e-001 2.677830e-001 4.384860e-001
      vertex 2.662340e-001 2.629420e-001 4.267820e-001
    endloop
  endfacet
  facet normal -2.886407e-001 8.316564e-001 4.743778e-001
    outer loop
      vertex 2.977540e-001 2.677830e-001 4.384860e-001
      vertex 2.728050e-001 2.591240e-001 4.384860e-001
      vertex 2.858610e-001 2.608900e-001 4.433340e-001
    endloop
  endfacet
  facet normal -3.285524e-001 8.368254e-001 4.379230e-001
    outer loop
      vertex 2.818890e-001 2.765440e-001 4.102300e-001
      vertex 3.015160e-001 2.755880e-001 4.267820e-001
      vertex 2.949450e-001 2.791330e-001 4.150780e-001
    endloop
  endfacet
  facet normal -3.077880e-001 8.564522e-001 4.144347e-001
    outer loop
      vertex 3.015160e-001 2.755880e-001 4.267820e-001
      vertex 2.818890e-001 2.765440e-001 4.102300e-001
      vertex 2.699960e-001 2.699240e-001 4.150780e-001
    endloop
  endfacet
  facet normal -3.179236e-001 8.327995e-001 4.531773e-001
    outer loop
      vertex 2.699960e-001 2.699240e-001 4.150780e-001
      vertex 2.977540e-001 2.677830e-001 4.384860e-001
      vertex 3.015160e-001 2.755880e-001 4.267820e-001
    endloop
  endfacet
  facet normal -2.882750e-001 8.602624e-001 4.205309e-001
    outer loop
      vertex 2.977540e-001 2.677830e-001 4.384860e-001
      vertex 2.699960e-001 2.699240e-001 4.150780e-001
      vertex 2.662340e-001 2.629420e-001 4.267820e-001
    endloop
  endfacet
  facet normal 4.955946e-001 -2.721354e-001 8.248202e-001
    outer loop
      vertex 2.988610e-001 2.638090e-001 4.364860e-001
      vertex 2.858610e-001 2.608900e-001 4.433340e-001
      vertex 2.869690e-001 2.568460e-001 4.413340e-001
    endloop
  endfacet
  facet normal 4.957493e-001 -2.762729e-001 8.233504e-001
    outer loop
      vertex 2.858610e-001 2.608900e-001 4.433340e-001
      vertex 2.988610e-001 2.638090e-001 4.364860e-001
      vertex 2.977540e-001 2.677830e-001 4.384860e-001
    endloop
  endfacet
  facet normal 8.413604e-001 4.140136e-001 -3.474268e-001
    outer loop
      vertex 2.960520e-001 2.751920e-001 4.130780e-001
      vertex 3.015160e-001 2.755880e-001 4.267820e-001
      vertex 3.026240e-001 2.716580e-001 4.247820e-001
    endloop
  endfacet
  facet normal 8.418544e-001 4.128703e-001 -3.475907e-001
    outer loop
      vertex 3.015160e-001 2.755880e-001 4.267820e-001
      vertex 2.960520e-001 2.751920e-001 4.130780e-001
      vertex 2.949450e-001 2.791330e-001 4.150780e-001
    endloop
  endfacet
  facet normal -4.920351e-001 2.764489e-001 -8.255165e-001
    outer loop
      vertex 2.711040e-001 2.658530e-001 4.130780e-001
      vertex 2.818890e-001 2.765440e-001 4.102300e-001
      vertex 2.829960e-001 2.725420e-001 4.082300e-001
    endloop
  endfacet
  facet normal -4.896930e-001 2.734500e-001 -8.279045e-001
    outer loop
      vertex 2.818890e-001 2.765440e-001 4.102300e-001
      vertex 2.711040e-001 2.658530e-001 4.130780e-001
      vertex 2.699960e-001 2.699240e-001 4.150780e-001
    endloop
  endfacet
  facet normal -8.491763e-001 -3.977025e-001 3.474656e-001
    outer loop
      vertex 2.739130e-001 2.550240e-001 4.364860e-001
      vertex 2.662340e-001 2.629420e-001 4.267820e-001
      vertex 2.673410e-001 2.588310e-001 4.247820e-001
    endloop
  endfacet
  facet normal -8.490874e-001 -3.985718e-001 3.466859e-001
    outer loop
      vertex 2.662340e-001 2.629420e-001 4.267820e-001
      vertex 2.739130e-001 2.550240e-001 4.364860e-001
      vertex 2.728050e-001 2.591240e-001 4.384860e-001
    endloop
  endfacet
  facet normal 9.316704e-001 8.132756e-002 3.540848e-001
    outer loop
      vertex 3.026240e-001 2.716580e-001 4.247820e-001
      vertex 2.977540e-001 2.677830e-001 4.384860e-001
      vertex 2.988610e-001 2.638090e-001 4.364860e-001
    endloop
  endfacet
  facet normal 9.315010e-001 8.231219e-002 3.543030e-001
    outer loop
      vertex 2.977540e-001 2.677830e-001 4.384860e-001
      vertex 3.026240e-001 2.716580e-001 4.247820e-001
      vertex 3.015160e-001 2.755880e-001 4.267820e-001
    endloop
  endfacet
  facet normal 2.145820e-001 4.892658e-001 -8.453245e-001
    outer loop
      vertex 2.829960e-001 2.725420e-001 4.082300e-001
      vertex 2.949450e-001 2.791330e-001 4.150780e-001
      vertex 2.960520e-001 2.751920e-001 4.130780e-001
    endloop
  endfacet
  facet normal 2.186708e-001 4.839446e-001 -8.473374e-001
    outer loop
      vertex 2.949450e-001 2.791330e-001 4.150780e-001
      vertex 2.829960e-001 2.725420e-001 4.082300e-001
      vertex 2.818890e-001 2.765440e-001 4.102300e-001
    endloop
  endfacet
  facet normal -9.333209e-001 -8.233466e-002 -3.494754e-001
    outer loop
      vertex 2.673410e-001 2.588310e-001 4.247820e-001
      vertex 2.699960e-001 2.699240e-001 4.150780e-001
      vertex 2.711040e-001 2.658530e-001 4.130780e-001
    endloop
  endfacet
  facet normal -9.336204e-001 -8.169432e-002 -3.488253e-001
    outer loop
      vertex 2.699960e-001 2.699240e-001 4.150780e-001
      vertex 2.673410e-001 2.588310e-001 4.247820e-001
      vertex 2.662340e-001 2.629420e-001 4.267820e-001
    endloop
  endfacet
  facet normal -2.463946e-001 -4.778816e-001 8.431600e-001
    outer loop
      vertex 2.869690e-001 2.568460e-001 4.413340e-001
      vertex 2.728050e-001 2.591240e-001 4.384860e-001
      vertex 2.739130e-001 2.550240e-001 4.364860e-001
    endloop
  endfacet
  facet normal -2.466202e-001 -4.830689e-001 8.401327e-001
    outer loop
      vertex 2.728050e-001 2.591240e-001 4.384860e-001
      vertex 2.869690e-001 2.568460e-001 4.413340e-001
      vertex 2.858610e-001 2.608900e-001 4.433340e-001
    endloop
  endfacet
  facet normal 2.345371e-001 -8.485256e-001 -4.743381e-001
    outer loop
      vertex 4.282950e-001 2.711830e-001 4.701120e-001
      vertex 4.538930e-001 2.783870e-001 4.698820e-001
      vertex 4.413480e-001 2.720020e-001 4.751010e-001
    endloop
  endfacet
  facet normal 2.355988e-001 -8.520767e-001 -4.673954e-001
    outer loop
      vertex 4.538930e-001 2.783870e-001 4.698820e-001
      vertex 4.282950e-001 2.711830e-001 4.701120e-001
      vertex 4.223810e-001 2.762800e-001 4.578390e-001
    endloop
  endfacet
  facet normal 2.497896e-001 -8.328347e-001 -4.939550e-001
    outer loop
      vertex 4.396150e-001 2.914790e-001 4.402510e-001
      vertex 4.585820e-001 2.869290e-001 4.575140e-001
      vertex 4.270700e-001 2.846210e-001 4.454700e-001
    endloop
  endfacet
  facet normal 2.554840e-001 -8.281071e-001 -4.989654e-001
    outer loop
      vertex 4.585820e-001 2.869290e-001 4.575140e-001
      vertex 4.396150e-001 2.914790e-001 4.402510e-001
      vertex 4.526680e-001 2.925000e-001 4.452400e-001
    endloop
  endfacet
  facet normal 2.394601e-001 -8.446352e-001 -4.788009e-001
    outer loop
      vertex 4.270700e-001 2.846210e-001 4.454700e-001
      vertex 4.538930e-001 2.783870e-001 4.698820e-001
      vertex 4.223810e-001 2.762800e-001 4.578390e-001
    endloop
  endfacet
  facet normal 2.469947e-001 -8.385979e-001 -4.855379e-001
    outer loop
      vertex 4.538930e-001 2.783870e-001 4.698820e-001
      vertex 4.270700e-001 2.846210e-001 4.454700e-001
      vertex 4.585820e-001 2.869290e-001 4.575140e-001
    endloop
  endfacet
  facet normal -2.352208e-001 8.525218e-001 4.667738e-001
    outer loop
      vertex 4.277160e-001 2.755350e-001 4.715270e-001
      vertex 4.533150e-001 2.827240e-001 4.712970e-001
      vertex 4.218020e-001 2.806230e-001 4.592540e-001
    endloop
  endfacet
  facet normal -2.341539e-001 8.489466e-001 4.737737e-001
    outer loop
      vertex 4.533150e-001 2.827240e-001 4.712970e-001
      vertex 4.277160e-001 2.755350e-001 4.715270e-001
      vertex 4.407690e-001 2.763510e-001 4.765160e-001
    endloop
  endfacet
  facet normal -2.550896e-001 8.286112e-001 4.983301e-001
    outer loop
      vertex 4.390360e-001 2.957920e-001 4.416660e-001
      vertex 4.580030e-001 2.912490e-001 4.589290e-001
      vertex 4.520890e-001 2.968100e-001 4.466550e-001
    endloop
  endfacet
  facet normal -2.493607e-001 8.333599e-001 4.932854e-001
    outer loop
      vertex 4.580030e-001 2.912490e-001 4.589290e-001
      vertex 4.390360e-001 2.957920e-001 4.416660e-001
      vertex 4.264910e-001 2.889490e-001 4.468850e-001
    endloop
  endfacet
  facet normal -2.465753e-001 8.390882e-001 4.849038e-001
    outer loop
      vertex 4.264910e-001 2.889490e-001 4.468850e-001
      vertex 4.533150e-001 2.827240e-001 4.712970e-001
      vertex 4.580030e-001 2.912490e-001 4.589290e-001
    endloop
  endfacet
  facet normal -2.390948e-001 8.450731e-001 4.782104e-001
    outer loop
      vertex 4.533150e-001 2.827240e-001 4.712970e-001
      vertex 4.264910e-001 2.889490e-001 4.468850e-001
      vertex 4.218020e-001 2.806230e-001 4.592540e-001
    endloop
  endfacet
  facet normal 4.669755e-001 -2.167629e-001 8.572909e-001
    outer loop
      vertex 4.538930e-001 2.783870e-001 4.698820e-001
      vertex 4.407690e-001 2.763510e-001 4.765160e-001
      vertex 4.413480e-001 2.720020e-001 4.751010e-001
    endloop
  endfacet
  facet normal 4.669892e-001 -2.174058e-001 8.571207e-001
    outer loop
      vertex 4.407690e-001 2.763510e-001 4.765160e-001
      vertex 4.538930e-001 2.783870e-001 4.698820e-001
      vertex 4.533150e-001 2.827240e-001 4.712970e-001
    endloop
  endfacet
  facet normal 9.132953e-001 2.320483e-001 -3.347316e-001
    outer loop
      vertex 4.526680e-001 2.925000e-001 4.452400e-001
      vertex 4.580030e-001 2.912490e-001 4.589290e-001
      vertex 4.585820e-001 2.869290e-001 4.575140e-001
    endloop
  endfacet
  facet normal 9.131992e-001 2.325457e-001 -3.346487e-001
    outer loop
      vertex 4.580030e-001 2.912490e-001 4.589290e-001
      vertex 4.526680e-001 2.925000e-001 4.452400e-001
      vertex 4.520890e-001 2.968100e-001 4.466550e-001
    endloop
  endfacet
  facet normal -4.735432e-001 2.165244e-001 -8.537412e-001
    outer loop
      vertex 4.270700e-001 2.846210e-001 4.454700e-001
      vertex 4.390360e-001 2.957920e-001 4.416660e-001
      vertex 4.396150e-001 2.914790e-001 4.402510e-001
    endloop
  endfacet
  facet normal -4.731251e-001 2.159480e-001 -8.541189e-001
    outer loop
      vertex 4.390360e-001 2.957920e-001 4.416660e-001
      vertex 4.270700e-001 2.846210e-001 4.454700e-001
      vertex 4.264910e-001 2.889490e-001 4.468850e-001
    endloop
  endfacet
  facet normal -9.104016e-001 -2.328027e-001 3.420115e-001
    outer loop
      vertex 4.282950e-001 2.711830e-001 4.701120e-001
      vertex 4.218020e-001 2.806230e-001 4.592540e-001
      vertex 4.223810e-001 2.762800e-001 4.578390e-001
    endloop
  endfacet
  facet normal -9.103796e-001 -2.324248e-001 3.423269e-001
    outer loop
      vertex 4.218020e-001 2.806230e-001 4.592540e-001
      vertex 4.282950e-001 2.711830e-001 4.701120e-001
      vertex 4.277160e-001 2.755350e-001 4.715270e-001
    endloop
  endfacet
  facet normal 9.333490e-001 7.299636e-003 3.588960e-001
    outer loop
      vertex 4.585820e-001 2.869290e-001 4.575140e-001
      vertex 4.533150e-001 2.827240e-001 4.712970e-001
      vertex 4.538930e-001 2.783870e-001 4.698820e-001
    endloop
  endfacet
  facet normal 9.333253e-001 7.516469e-003 3.589531e-001
    outer loop
      vertex 4.533150e-001 2.827240e-001 4.712970e-001
      vertex 4.585820e-001 2.869290e-001 4.575140e-001
      vertex 4.580030e-001 2.912490e-001 4.589290e-001
    endloop
  endfacet
  facet normal 3.136189e-001 3.339593e-001 -8.888838e-001
    outer loop
      vertex 4.396150e-001 2.914790e-001 4.402510e-001
      vertex 4.520890e-001 2.968100e-001 4.466550e-001
      vertex 4.526680e-001 2.925000e-001 4.452400e-001
    endloop
  endfacet
  facet normal 3.137269e-001 3.337536e-001 -8.889229e-001
    outer loop
      vertex 4.520890e-001 2.968100e-001 4.466550e-001
      vertex 4.396150e-001 2.914790e-001 4.402510e-001
      vertex 4.390360e-001 2.957920e-001 4.416660e-001
    endloop
  endfacet
  facet normal -9.333464e-001 -7.525809e-003 -3.588982e-001
    outer loop
      vertex 4.223810e-001 2.762800e-001 4.578390e-001
      vertex 4.264910e-001 2.889490e-001 4.468850e-001
      vertex 4.270700e-001 2.846210e-001 4.454700e-001
    endloop
  endfacet
  facet normal -9.333538e-001 -7.507002e-003 -3.588792e-001
    outer loop
      vertex 4.264910e-001 2.889490e-001 4.468850e-001
      vertex 4.223810e-001 2.762800e-001 4.578390e-001
      vertex 4.218020e-001 2.806230e-001 4.592540e-001
    endloop
  endfacet
  facet normal -3.186743e-001 -3.311668e-001 8.881302e-001
    outer loop
      vertex 4.413480e-001 2.720020e-001 4.751010e-001
      vertex 4.277160e-001 2.755350e-001 4.715270e-001
      vertex 4.282950e-001 2.711830e-001 4.701120e-001
    endloop
  endfacet
  facet normal -3.187042e-001 -3.313696e-001 8.880438e-001
    outer loop
      vertex 4.277160e-001 2.755350e-001 4.715270e-001
      vertex 4.413480e-001 2.720020e-001 4.751010e-001
      vertex 4.407690e-001 2.763510e-001 4.765160e-001
    endloop
  endfacet
  facet normal -4.968260e-002 -7.102146e-001 7.022299e-001
    outer loop
      vertex 4.374870e-001 3.109690e-001 2.525150e-001
      vertex 4.627320e-001 3.092030e-001 2.525150e-001
      vertex 4.507440e-001 3.144060e-001 2.569290e-001
    endloop
  endfacet
  facet normal -5.041177e-002 -7.206381e-001 6.914763e-001
    outer loop
      vertex 4.627320e-001 3.092030e-001 2.525150e-001
      vertex 4.374870e-001 3.109690e-001 2.525150e-001
      vertex 4.307280e-001 3.012180e-001 2.418600e-001
    endloop
  endfacet
  facet normal -6.165539e-002 -7.175445e-001 6.937785e-001
    outer loop
      vertex 4.464140e-001 2.854840e-001 2.267910e-001
      vertex 4.664300e-001 2.983340e-001 2.418600e-001
      vertex 4.344250e-001 2.907810e-001 2.312040e-001
    endloop
  endfacet
  facet normal -7.270971e-002 -7.091473e-001 7.013012e-001
    outer loop
      vertex 4.664300e-001 2.983340e-001 2.418600e-001
      vertex 4.464140e-001 2.854840e-001 2.267910e-001
      vertex 4.596700e-001 2.884890e-001 2.312040e-001
    endloop
  endfacet
  facet normal -4.957395e-002 -7.220748e-001 6.900365e-001
    outer loop
      vertex 4.344250e-001 2.907810e-001 2.312040e-001
      vertex 4.627320e-001 3.092030e-001 2.525150e-001
      vertex 4.307280e-001 3.012180e-001 2.418600e-001
    endloop
  endfacet
  facet normal -6.595037e-002 -7.098698e-001 7.012385e-001
    outer loop
      vertex 4.627320e-001 3.092030e-001 2.525150e-001
      vertex 4.344250e-001 2.907810e-001 2.312040e-001
      vertex 4.664300e-001 2.983340e-001 2.418600e-001
    endloop
  endfacet
  facet normal 5.168475e-002 7.216637e-001 -6.903117e-001
    outer loop
      vertex 4.383090e-001 3.143230e-001 2.498390e-001
      vertex 4.635540e-001 3.125150e-001 2.498390e-001
      vertex 4.315500e-001 3.046150e-001 2.391840e-001
    endloop
  endfacet
  facet normal 5.094197e-002 7.112924e-001 -7.010478e-001
    outer loop
      vertex 4.635540e-001 3.125150e-001 2.498390e-001
      vertex 4.383090e-001 3.143230e-001 2.498390e-001
      vertex 4.515660e-001 3.177240e-001 2.542530e-001
    endloop
  endfacet
  facet normal 7.370887e-002 7.102503e-001 -7.000797e-001
    outer loop
      vertex 4.472350e-001 2.889010e-001 2.241150e-001
      vertex 4.672510e-001 3.016770e-001 2.391840e-001
      vertex 4.604920e-001 2.918750e-001 2.285280e-001
    endloop
  endfacet
  facet normal 6.281925e-002 7.185397e-001 -6.926431e-001
    outer loop
      vertex 4.672510e-001 3.016770e-001 2.391840e-001
      vertex 4.472350e-001 2.889010e-001 2.241150e-001
      vertex 4.352470e-001 2.942030e-001 2.285280e-001
    endloop
  endfacet
  facet normal 6.701759e-002 7.110158e-001 -6.999752e-001
    outer loop
      vertex 4.352470e-001 2.942030e-001 2.285280e-001
      vertex 4.635540e-001 3.125150e-001 2.498390e-001
      vertex 4.672510e-001 3.016770e-001 2.391840e-001
    endloop
  endfacet
  facet normal 5.085766e-002 7.230867e-001 -6.888825e-001
    outer loop
      vertex 4.635540e-001 3.125150e-001 2.498390e-001
      vertex 4.352470e-001 2.942030e-001 2.285280e-001
      vertex 4.315500e-001 3.046150e-001 2.391840e-001
    endloop
  endfacet
  facet normal 4.783915e-001 4.764266e-001 7.376715e-001
    outer loop
      vertex 4.627320e-001 3.092030e-001 2.525150e-001
      vertex 4.515660e-001 3.177240e-001 2.542530e-001
      vertex 4.507440e-001 3.144060e-001 2.569290e-001
    endloop
  endfacet
  facet normal 4.786515e-001 4.768586e-001 7.372236e-001
    outer loop
      vertex 4.515660e-001 3.177240e-001 2.542530e-001
      vertex 4.627320e-001 3.092030e-001 2.525150e-001
      vertex 4.635540e-001 3.125150e-001 2.498390e-001
    endloop
  endfacet
  facet normal 8.971419e-001 -3.885508e-001 -2.101541e-001
    outer loop
      vertex 4.596700e-001 2.884890e-001 2.312040e-001
      vertex 4.672510e-001 3.016770e-001 2.391840e-001
      vertex 4.664300e-001 2.983340e-001 2.418600e-001
    endloop
  endfacet
  facet normal 8.972099e-001 -3.865570e-001 -2.135138e-001
    outer loop
      vertex 4.672510e-001 3.016770e-001 2.391840e-001
      vertex 4.596700e-001 2.884890e-001 2.312040e-001
      vertex 4.604920e-001 2.918750e-001 2.285280e-001
    endloop
  endfacet
  facet normal -4.796894e-001 -4.666595e-001 -7.430525e-001
    outer loop
      vertex 4.344250e-001 2.907810e-001 2.312040e-001
      vertex 4.472350e-001 2.889010e-001 2.241150e-001
      vertex 4.464140e-001 2.854840e-001 2.267910e-001
    endloop
  endfacet
  facet normal -4.797773e-001 -4.660644e-001 -7.433691e-001
    outer loop
      vertex 4.472350e-001 2.889010e-001 2.241150e-001
      vertex 4.344250e-001 2.907810e-001 2.312040e-001
      vertex 4.352470e-001 2.942030e-001 2.285280e-001
    endloop
  endfacet
  facet normal -8.968277e-001 3.865219e-001 2.151764e-001
    outer loop
      vertex 4.374870e-001 3.109690e-001 2.525150e-001
      vertex 4.315500e-001 3.046150e-001 2.391840e-001
      vertex 4.307280e-001 3.012180e-001 2.418600e-001
    endloop
  endfacet
  facet normal -8.959083e-001 3.897100e-001 2.132474e-001
    outer loop
      vertex 4.315500e-001 3.046150e-001 2.391840e-001
      vertex 4.374870e-001 3.109690e-001 2.525150e-001
      vertex 4.383090e-001 3.143230e-001 2.498390e-001
    endloop
  endfacet
  facet normal 9.497642e-001 1.678097e-002 3.125162e-001
    outer loop
      vertex 4.664300e-001 2.983340e-001 2.418600e-001
      vertex 4.635540e-001 3.125150e-001 2.498390e-001
      vertex 4.627320e-001 3.092030e-001 2.525150e-001
    endloop
  endfacet
  facet normal 9.497921e-001 1.683607e-002 3.124283e-001
    outer loop
      vertex 4.635540e-001 3.125150e-001 2.498390e-001
      vertex 4.664300e-001 2.983340e-001 2.418600e-001
      vertex 4.672510e-001 3.016770e-001 2.391840e-001
    endloop
  endfacet
  facet normal 3.701246e-001 -6.296650e-001 -6.830298e-001
    outer loop
      vertex 4.464140e-001 2.854840e-001 2.267910e-001
      vertex 4.604920e-001 2.918750e-001 2.285280e-001
      vertex 4.596700e-001 2.884890e-001 2.312040e-001
    endloop
  endfacet
  facet normal 3.690760e-001 -6.263834e-001 -6.866052e-001
    outer loop
      vertex 4.604920e-001 2.918750e-001 2.285280e-001
      vertex 4.464140e-001 2.854840e-001 2.267910e-001
      vertex 4.472350e-001 2.889010e-001 2.241150e-001
    endloop
  endfacet
  facet normal -9.495822e-001 -1.672109e-002 -3.130720e-001
    outer loop
      vertex 4.307280e-001 3.012180e-001 2.418600e-001
      vertex 4.352470e-001 2.942030e-001 2.285280e-001
      vertex 4.344250e-001 2.907810e-001 2.312040e-001
    endloop
  endfacet
  facet normal -9.495943e-001 -1.680745e-002 -3.130306e-001
    outer loop
      vertex 4.352470e-001 2.942030e-001 2.285280e-001
      vertex 4.307280e-001 3.012180e-001 2.418600e-001
      vertex 4.315500e-001 3.046150e-001 2.391840e-001
    endloop
  endfacet
  facet normal -3.873818e-001 6.311187e-001 6.720302e-001
    outer loop
      vertex 4.507440e-001 3.144060e-001 2.569290e-001
      vertex 4.383090e-001 3.143230e-001 2.498390e-001
      vertex 4.374870e-001 3.109690e-001 2.525150e-001
    endloop
  endfacet
  facet normal -3.857433e-001 6.352131e-001 6.691087e-001
    outer loop
      vertex 4.383090e-001 3.143230e-001 2.498390e-001
      vertex 4.507440e-001 3.144060e-001 2.569290e-001
      vertex 4.515660e-001 3.177240e-001 2.542530e-001
    endloop
  endfacet
endsolid OBJECT
