solid Exported from Blender-2.76 (sub 0)
facet normal 0.000000 -1.000000 -0.000000
outer loop
vertex 0.000000 0.000000 -0.000000
vertex 0.116691 0.000000 -0.000000
vertex 0.116691 -0.000000 1.000000
endloop
endfacet
facet normal 0.000000 -1.000000 -0.000000
outer loop
vertex 0.116691 -0.000000 1.000000
vertex -0.000000 -0.000000 1.000000
vertex 0.000000 0.000000 -0.000000
endloop
endfacet
facet normal 0.000000 -1.000000 0.000000
outer loop
vertex 0.000000 0.621566 0.133134
vertex 0.000000 0.621566 -0.000000
vertex 0.116691 0.621566 -0.000000
endloop
endfacet
facet normal 0.000000 -1.000000 0.000000
outer loop
vertex 0.116691 0.621566 -0.000000
vertex 0.116691 0.621566 0.133134
vertex 0.000000 0.621566 0.133134
endloop
endfacet
facet normal 0.000000 0.000000 1.000000
outer loop
vertex -0.000000 0.473636 1.000000
vertex 0.116691 0.473636 1.000000
vertex 0.116691 1.000000 1.000000
endloop
endfacet
facet normal 0.000000 0.000000 1.000000
outer loop
vertex 0.116691 1.000000 1.000000
vertex -0.000000 1.000000 1.000000
vertex -0.000000 0.473636 1.000000
endloop
endfacet
facet normal 1.000000 0.000000 0.000000
outer loop
vertex 0.116691 0.473636 1.000000
vertex 0.116691 -0.000000 1.000000
vertex 0.116691 0.000000 -0.000000
endloop
endfacet
facet normal 1.000000 0.000000 0.000000
outer loop
vertex 0.116691 0.000000 -0.000000
vertex 0.116691 0.325705 0.133134
vertex 0.116691 0.473636 1.000000
endloop
endfacet
facet normal 0.000000 1.000000 0.000000
outer loop
vertex -0.000000 1.000000 1.000000
vertex 0.116691 1.000000 1.000000
vertex 0.116691 1.000000 -0.000000
endloop
endfacet
facet normal -0.000000 1.000000 0.000000
outer loop
vertex 0.116691 1.000000 -0.000000
vertex 0.000000 1.000000 -0.000000
vertex -0.000000 1.000000 1.000000
endloop
endfacet
facet normal 0.000000 0.000000 -1.000000
outer loop
vertex 0.000000 0.621566 0.133134
vertex 0.116691 0.621566 0.133134
vertex 0.116691 0.325705 0.133134
endloop
endfacet
facet normal 0.000000 0.000000 -1.000000
outer loop
vertex 0.116691 0.325705 0.133134
vertex 0.000000 0.325705 0.133134
vertex 0.000000 0.621566 0.133134
endloop
endfacet
facet normal 0.000000 1.000000 0.000000
outer loop
vertex 0.116691 0.325705 0.133134
vertex 0.116691 0.325705 -0.000000
vertex 0.000000 0.325705 -0.000000
endloop
endfacet
facet normal 0.000000 1.000000 0.000000
outer loop
vertex 0.000000 0.325705 -0.000000
vertex 0.000000 0.325705 0.133134
vertex 0.116691 0.325705 0.133134
endloop
endfacet
facet normal 0.000000 0.000000 -1.000000
outer loop
vertex 0.000000 0.325705 -0.000000
vertex 0.116691 0.325705 -0.000000
vertex 0.116691 0.000000 -0.000000
endloop
endfacet
facet normal 0.000000 0.000000 -1.000000
outer loop
vertex 0.116691 0.000000 -0.000000
vertex 0.000000 0.000000 -0.000000
vertex 0.000000 0.325705 -0.000000
endloop
endfacet
facet normal 0.000000 -0.000000 1.000000
outer loop
vertex 0.116691 0.473636 1.000000
vertex -0.000000 0.473636 1.000000
vertex -0.000000 -0.000000 1.000000
endloop
endfacet
facet normal 0.000001 -0.000000 1.000000
outer loop
vertex -0.000000 -0.000000 1.000000
vertex 0.116691 -0.000000 1.000000
vertex 0.116691 0.473636 1.000000
endloop
endfacet
facet normal 0.000000 0.000000 -1.000000
outer loop
vertex 0.000000 1.000000 -0.000000
vertex 0.116691 1.000000 -0.000000
vertex 0.116691 0.621566 -0.000000
endloop
endfacet
facet normal 0.000000 0.000000 -1.000000
outer loop
vertex 0.116691 0.621566 -0.000000
vertex 0.000000 0.621566 -0.000000
vertex 0.000000 1.000000 -0.000000
endloop
endfacet
facet normal 1.000000 0.000000 0.000000
outer loop
vertex 0.116691 1.000000 1.000000
vertex 0.116691 0.473636 1.000000
vertex 0.116691 0.621566 0.133134
endloop
endfacet
facet normal 1.000000 0.000000 0.000000
outer loop
vertex 0.116691 0.621566 0.133134
vertex 0.116691 1.000000 -0.000000
vertex 0.116691 1.000000 1.000000
endloop
endfacet
facet normal 1.000000 0.000000 0.000000
outer loop
vertex 0.116691 0.325705 0.133134
vertex 0.116691 0.000000 -0.000000
vertex 0.116691 0.325705 -0.000000
endloop
endfacet
facet normal 1.000000 0.000000 0.000000
outer loop
vertex 0.116691 1.000000 -0.000000
vertex 0.116691 0.621566 0.133134
vertex 0.116691 0.621566 -0.000000
endloop
endfacet
facet normal 1.000000 0.000000 0.000000
outer loop
vertex 0.116691 0.473636 1.000000
vertex 0.116691 0.325705 0.133134
vertex 0.116691 0.621566 0.133134
endloop
endfacet
facet normal -1.000000 -0.000000 -0.000000
outer loop
vertex -0.000000 0.473636 1.000000
vertex 0.000000 0.621566 0.133134
vertex 0.000000 0.325705 0.133134
endloop
endfacet
facet normal 0.000000 -1.000000 0.000003
outer loop
vertex 0.041505 0.615676 0.085780
vertex 0.041505 0.615676 0.047354
vertex 0.075186 0.615676 0.047354
endloop
endfacet
facet normal 0.000000 -1.000000 -0.000003
outer loop
vertex 0.075186 0.615676 0.047354
vertex 0.075186 0.615676 0.085780
vertex 0.041505 0.615676 0.085780
endloop
endfacet
facet normal 0.000000 -0.481676 0.876350
outer loop
vertex 0.041505 0.615676 0.085780
vertex 0.052172 0.593534 0.073610
vertex 0.064519 0.593534 0.073610
endloop
endfacet
facet normal -0.000000 -0.481677 0.876349
outer loop
vertex 0.064519 0.593534 0.073610
vertex 0.075186 0.615676 0.085780
vertex 0.041505 0.615676 0.085780
endloop
endfacet
facet normal 0.000001 0.354059 -0.935223
outer loop
vertex 0.041505 0.615676 0.047354
vertex 0.052358 0.648383 0.059736
vertex 0.064333 0.648383 0.059736
endloop
endfacet
facet normal 0.000000 0.354060 -0.935223
outer loop
vertex 0.064333 0.648383 0.059736
vertex 0.075186 0.615676 0.047354
vertex 0.041505 0.615676 0.047354
endloop
endfacet
facet normal 0.000000 0.354060 0.935223
outer loop
vertex 0.075186 0.615676 0.085780
vertex 0.064333 0.648383 0.073397
vertex 0.052358 0.648383 0.073397
endloop
endfacet
facet normal 0.000000 0.354059 0.935223
outer loop
vertex 0.052358 0.648383 0.073397
vertex 0.041505 0.615676 0.085780
vertex 0.075186 0.615676 0.085780
endloop
endfacet
facet normal -0.949112 0.314939 -0.000000
outer loop
vertex 0.041505 0.615676 0.085780
vertex 0.052358 0.648383 0.073397
vertex 0.052358 0.648383 0.059736
endloop
endfacet
facet normal -0.949112 0.314939 -0.000000
outer loop
vertex 0.052358 0.648383 0.059736
vertex 0.041505 0.615676 0.047354
vertex 0.041505 0.615676 0.085780
endloop
endfacet
facet normal 0.949112 0.314939 0.000000
outer loop
vertex 0.075186 0.615676 0.047354
vertex 0.064333 0.648383 0.059736
vertex 0.064333 0.648383 0.073397
endloop
endfacet
facet normal 0.949112 0.314940 0.000000
outer loop
vertex 0.064333 0.648383 0.073397
vertex 0.075186 0.615676 0.085780
vertex 0.075186 0.615676 0.047354
endloop
endfacet
facet normal 0.900906 -0.434014 0.000000
outer loop
vertex 0.075186 0.615676 0.085780
vertex 0.064519 0.593534 0.073610
vertex 0.064519 0.593534 0.059524
endloop
endfacet
facet normal 0.900906 -0.434014 0.000001
outer loop
vertex 0.064519 0.593534 0.059524
vertex 0.075186 0.615676 0.047354
vertex 0.075186 0.615676 0.085780
endloop
endfacet
facet normal 0.000000 -0.481674 -0.876350
outer loop
vertex 0.075186 0.615676 0.047354
vertex 0.064519 0.593534 0.059524
vertex 0.052172 0.593534 0.059524
endloop
endfacet
facet normal 0.000000 -0.481677 -0.876349
outer loop
vertex 0.052172 0.593534 0.059524
vertex 0.041505 0.615676 0.047354
vertex 0.075186 0.615676 0.047354
endloop
endfacet
facet normal -0.900906 -0.434014 -0.000001
outer loop
vertex 0.041505 0.615676 0.047354
vertex 0.052172 0.593534 0.059524
vertex 0.052172 0.593534 0.073610
endloop
endfacet
facet normal -0.900906 -0.434014 0.000000
outer loop
vertex 0.052172 0.593534 0.073610
vertex 0.041505 0.615676 0.085780
vertex 0.041505 0.615676 0.047354
endloop
endfacet
facet normal -0.983035 -0.183416 0.000000
outer loop
vertex 0.052172 0.593534 0.073610
vertex 0.052172 0.593534 0.059524
vertex 0.058345 0.560447 0.066567
endloop
endfacet
facet normal 0.983036 -0.183415 0.000000
outer loop
vertex 0.064519 0.593534 0.059524
vertex 0.064519 0.593534 0.073610
vertex 0.058345 0.560447 0.066567
endloop
endfacet
facet normal 0.000000 -0.208206 -0.978085
outer loop
vertex 0.052172 0.593534 0.059524
vertex 0.064519 0.593534 0.059524
vertex 0.058345 0.560447 0.066567
endloop
endfacet
facet normal 0.000000 -0.208206 0.978085
outer loop
vertex 0.064519 0.593534 0.073610
vertex 0.052172 0.593534 0.073610
vertex 0.058345 0.560447 0.066567
endloop
endfacet
facet normal -1.000000 -0.000000 -0.000000
outer loop
vertex 0.000000 1.000000 -0.000000
vertex 0.000000 0.621566 -0.000000
vertex 0.000000 0.621566 0.133134
endloop
endfacet
facet normal -1.000000 -0.000000 -0.000000
outer loop
vertex 0.000000 0.325705 0.133134
vertex 0.000000 0.325705 -0.000000
vertex 0.000000 0.000000 -0.000000
endloop
endfacet
facet normal -1.000000 -0.000000 -0.000000
outer loop
vertex -0.000000 0.473636 1.000000
vertex 0.000000 0.325705 0.133134
vertex 0.000000 0.000000 -0.000000
endloop
endfacet
facet normal -1.000000 -0.000000 -0.000000
outer loop
vertex 0.000000 0.000000 -0.000000
vertex -0.000000 -0.000000 1.000000
vertex -0.000000 0.473636 1.000000
endloop
endfacet
facet normal -1.000000 -0.000000 -0.000000
outer loop
vertex -0.000000 1.000000 1.000000
vertex 0.000000 1.000000 -0.000000
vertex 0.000000 0.621566 0.133134
endloop
endfacet
facet normal -1.000000 -0.000000 -0.000000
outer loop
vertex 0.000000 0.621566 0.133134
vertex -0.000000 0.473636 1.000000
vertex -0.000000 1.000000 1.000000
endloop
endfacet
facet normal 0.000000 -1.000000 -0.000000
outer loop
vertex 1.000000 0.000000 0.000000
vertex 1.000000 0.000000 1.000000
vertex 0.883309 0.000000 1.000000
endloop
endfacet
facet normal 0.000000 -1.000000 -0.000000
outer loop
vertex 0.883309 0.000000 1.000000
vertex 0.883309 0.000000 0.000000
vertex 1.000000 0.000000 0.000000
endloop
endfacet
facet normal 0.000000 -1.000000 0.000000
outer loop
vertex 1.000000 0.621566 0.133134
vertex 0.883309 0.621566 0.133134
vertex 0.883309 0.621566 0.000000
endloop
endfacet
facet normal 0.000000 -1.000000 0.000000
outer loop
vertex 0.883309 0.621566 0.000000
vertex 1.000000 0.621566 0.000000
vertex 1.000000 0.621566 0.133134
endloop
endfacet
facet normal 0.000000 -0.000000 1.000000
outer loop
vertex 1.000000 0.473636 1.000000
vertex 1.000000 1.000000 1.000000
vertex 0.883309 1.000000 1.000000
endloop
endfacet
facet normal 0.000000 -0.000000 1.000000
outer loop
vertex 0.883309 1.000000 1.000000
vertex 0.883309 0.473636 1.000000
vertex 1.000000 0.473636 1.000000
endloop
endfacet
facet normal -1.000000 -0.000000 -0.000000
outer loop
vertex 0.883309 0.473636 1.000000
vertex 0.883309 0.325705 0.133134
vertex 0.883309 0.000000 0.000000
endloop
endfacet
facet normal -1.000000 0.000000 -0.000000
outer loop
vertex 0.883309 0.000000 0.000000
vertex 0.883309 0.000000 1.000000
vertex 0.883309 0.473636 1.000000
endloop
endfacet
facet normal 0.000000 1.000000 0.000000
outer loop
vertex 1.000000 1.000000 1.000000
vertex 1.000000 1.000000 0.000000
vertex 0.883309 1.000000 0.000000
endloop
endfacet
facet normal 0.000000 1.000000 0.000000
outer loop
vertex 0.883309 1.000000 0.000000
vertex 0.883309 1.000000 1.000000
vertex 1.000000 1.000000 1.000000
endloop
endfacet
facet normal 0.000000 0.000000 -1.000000
outer loop
vertex 1.000000 0.621566 0.133134
vertex 1.000000 0.325705 0.133134
vertex 0.883309 0.325705 0.133134
endloop
endfacet
facet normal 0.000000 0.000000 -1.000000
outer loop
vertex 0.883309 0.325705 0.133134
vertex 0.883309 0.621566 0.133134
vertex 1.000000 0.621566 0.133134
endloop
endfacet
facet normal -0.000000 1.000000 0.000000
outer loop
vertex 0.883309 0.325705 0.133134
vertex 1.000000 0.325705 0.133134
vertex 1.000000 0.325705 0.000000
endloop
endfacet
facet normal -0.000000 1.000000 0.000000
outer loop
vertex 1.000000 0.325705 0.000000
vertex 0.883309 0.325705 0.000000
vertex 0.883309 0.325705 0.133134
endloop
endfacet
facet normal 0.000000 0.000000 -1.000000
outer loop
vertex 1.000000 0.325705 0.000000
vertex 1.000000 0.000000 0.000000
vertex 0.883309 0.000000 0.000000
endloop
endfacet
facet normal 0.000000 0.000000 -1.000000
outer loop
vertex 0.883309 0.000000 0.000000
vertex 0.883309 0.325705 0.000000
vertex 1.000000 0.325705 0.000000
endloop
endfacet
facet normal 0.000000 0.000000 1.000000
outer loop
vertex 1.000000 0.000000 1.000000
vertex 1.000000 0.473636 1.000000
vertex 0.883309 0.473636 1.000000
endloop
endfacet
facet normal -0.000000 0.000000 1.000000
outer loop
vertex 0.883309 0.473636 1.000000
vertex 0.883309 0.000000 1.000000
vertex 1.000000 0.000000 1.000000
endloop
endfacet
facet normal 0.000000 0.000000 -1.000000
outer loop
vertex 1.000000 1.000000 0.000000
vertex 1.000000 0.621566 0.000000
vertex 0.883309 0.621566 0.000000
endloop
endfacet
facet normal 0.000000 0.000000 -1.000000
outer loop
vertex 0.883309 0.621566 0.000000
vertex 0.883309 1.000000 0.000000
vertex 1.000000 1.000000 0.000000
endloop
endfacet
facet normal -1.000000 -0.000000 -0.000000
outer loop
vertex 0.883309 1.000000 1.000000
vertex 0.883309 1.000000 0.000000
vertex 0.883309 0.621566 0.133134
endloop
endfacet
facet normal -1.000000 0.000000 -0.000000
outer loop
vertex 0.883309 0.621566 0.133134
vertex 0.883309 0.473636 1.000000
vertex 0.883309 1.000000 1.000000
endloop
endfacet
facet normal -1.000000 -0.000000 0.000000
outer loop
vertex 0.883309 0.325705 0.133134
vertex 0.883309 0.325705 0.000000
vertex 0.883309 0.000000 0.000000
endloop
endfacet
facet normal -1.000000 -0.000000 0.000000
outer loop
vertex 0.883309 1.000000 0.000000
vertex 0.883309 0.621566 0.000000
vertex 0.883309 0.621566 0.133134
endloop
endfacet
facet normal -1.000000 0.000000 -0.000000
outer loop
vertex 0.883309 0.473636 1.000000
vertex 0.883309 0.621566 0.133134
vertex 0.883309 0.325705 0.133134
endloop
endfacet
facet normal 1.000000 0.000000 0.000000
outer loop
vertex 1.000000 0.473636 1.000000
vertex 1.000000 0.325705 0.133134
vertex 1.000000 0.621566 0.133134
endloop
endfacet
facet normal 0.000000 -1.000000 0.000000
outer loop
vertex 0.958495 0.615676 0.085780
vertex 0.924814 0.615676 0.085780
vertex 0.924814 0.615676 0.047354
endloop
endfacet
facet normal 0.000000 -1.000000 0.000000
outer loop
vertex 0.924814 0.615676 0.047354
vertex 0.958495 0.615676 0.047354
vertex 0.958495 0.615676 0.085780
endloop
endfacet
facet normal 0.000000 -0.481677 0.876349
outer loop
vertex 0.958495 0.615676 0.085780
vertex 0.924814 0.615676 0.085780
vertex 0.935481 0.593534 0.073610
endloop
endfacet
facet normal 0.000000 -0.481675 0.876350
outer loop
vertex 0.935481 0.593534 0.073610
vertex 0.947828 0.593534 0.073610
vertex 0.958495 0.615676 0.085780
endloop
endfacet
facet normal 0.000000 0.354060 -0.935223
outer loop
vertex 0.958495 0.615676 0.047354
vertex 0.924814 0.615676 0.047354
vertex 0.935668 0.648383 0.059736
endloop
endfacet
facet normal 0.000000 0.354060 -0.935223
outer loop
vertex 0.935668 0.648383 0.059736
vertex 0.947642 0.648383 0.059736
vertex 0.958495 0.615676 0.047354
endloop
endfacet
facet normal 0.000000 0.354058 0.935223
outer loop
vertex 0.924814 0.615676 0.085780
vertex 0.958495 0.615676 0.085780
vertex 0.947642 0.648383 0.073398
endloop
endfacet
facet normal 0.000000 0.354060 0.935223
outer loop
vertex 0.947642 0.648383 0.073398
vertex 0.935668 0.648383 0.073398
vertex 0.924814 0.615676 0.085780
endloop
endfacet
facet normal 0.949111 0.314940 0.000000
outer loop
vertex 0.958495 0.615676 0.085780
vertex 0.958495 0.615676 0.047354
vertex 0.947642 0.648383 0.059736
endloop
endfacet
facet normal 0.949112 0.314939 0.000000
outer loop
vertex 0.947642 0.648383 0.059736
vertex 0.947642 0.648383 0.073398
vertex 0.958495 0.615676 0.085780
endloop
endfacet
facet normal -0.949112 0.314939 0.000000
outer loop
vertex 0.924814 0.615676 0.047354
vertex 0.924814 0.615676 0.085780
vertex 0.935668 0.648383 0.073398
endloop
endfacet
facet normal -0.949113 0.314936 0.000000
outer loop
vertex 0.935668 0.648383 0.073398
vertex 0.935668 0.648383 0.059736
vertex 0.924814 0.615676 0.047354
endloop
endfacet
facet normal -0.900905 -0.434016 0.000000
outer loop
vertex 0.924814 0.615676 0.085780
vertex 0.924814 0.615676 0.047354
vertex 0.935481 0.593534 0.059524
endloop
endfacet
facet normal -0.900908 -0.434011 0.000000
outer loop
vertex 0.935481 0.593534 0.059524
vertex 0.935481 0.593534 0.073610
vertex 0.924814 0.615676 0.085780
endloop
endfacet
facet normal 0.000000 -0.481677 -0.876349
outer loop
vertex 0.924814 0.615676 0.047354
vertex 0.958495 0.615676 0.047354
vertex 0.947828 0.593534 0.059524
endloop
endfacet
facet normal 0.000000 -0.481675 -0.876350
outer loop
vertex 0.947828 0.593534 0.059524
vertex 0.935481 0.593534 0.059524
vertex 0.924814 0.615676 0.047354
endloop
endfacet
facet normal 0.900904 -0.434018 0.000000
outer loop
vertex 0.958495 0.615676 0.047354
vertex 0.958495 0.615676 0.085780
vertex 0.947828 0.593534 0.073610
endloop
endfacet
facet normal 0.900908 -0.434011 0.000000
outer loop
vertex 0.947828 0.593534 0.073610
vertex 0.947828 0.593534 0.059524
vertex 0.958495 0.615676 0.047354
endloop
endfacet
facet normal 0.983036 -0.183414 0.000000
outer loop
vertex 0.947828 0.593534 0.073610
vertex 0.941655 0.560448 0.066567
vertex 0.947828 0.593534 0.059524
endloop
endfacet
facet normal -0.983036 -0.183414 0.000000
outer loop
vertex 0.935481 0.593534 0.059524
vertex 0.941655 0.560448 0.066567
vertex 0.935481 0.593534 0.073610
endloop
endfacet
facet normal 0.000000 -0.208207 -0.978085
outer loop
vertex 0.947828 0.593534 0.059524
vertex 0.941655 0.560448 0.066567
vertex 0.935481 0.593534 0.059524
endloop
endfacet
facet normal 0.000000 -0.208207 0.978085
outer loop
vertex 0.935481 0.593534 0.073610
vertex 0.941655 0.560448 0.066567
vertex 0.947828 0.593534 0.073610
endloop
endfacet
facet normal 1.000000 0.000001 0.000000
outer loop
vertex 1.000000 1.000000 0.000000
vertex 1.000000 0.621566 0.133134
vertex 1.000000 0.621566 0.000000
endloop
endfacet
facet normal 1.000000 0.000000 0.000000
outer loop
vertex 1.000000 0.325705 0.133134
vertex 1.000000 0.000000 0.000000
vertex 1.000000 0.325705 0.000000
endloop
endfacet
facet normal 1.000000 0.000000 0.000000
outer loop
vertex 1.000000 0.473636 1.000000
vertex 1.000000 0.000000 1.000000
vertex 1.000000 0.000000 0.000000
endloop
endfacet
facet normal 1.000000 -0.000000 0.000000
outer loop
vertex 1.000000 0.000000 0.000000
vertex 1.000000 0.325705 0.133134
vertex 1.000000 0.473636 1.000000
endloop
endfacet
facet normal 1.000000 0.000000 0.000000
outer loop
vertex 1.000000 1.000000 1.000000
vertex 1.000000 0.473636 1.000000
vertex 1.000000 0.621566 0.133134
endloop
endfacet
facet normal 1.000000 0.000000 0.000000
outer loop
vertex 1.000000 0.621566 0.133134
vertex 1.000000 1.000000 0.000000
vertex 1.000000 1.000000 1.000000
endloop
endfacet
facet normal -0.135064 -0.305326 -0.942621
outer loop
vertex 0.296432 0.811623 0.866524
vertex 0.092864 0.811623 0.895692
vertex 0.092864 0.871965 0.876147
endloop
endfacet
facet normal -0.022373 0.083404 -0.996265
outer loop
vertex 0.092864 0.871965 0.876147
vertex 0.296432 0.876183 0.871928
vertex 0.296432 0.811623 0.866524
endloop
endfacet
facet normal 0.043339 -0.139795 -0.989232
outer loop
vertex 0.296432 0.062433 0.133886
vertex 0.092864 0.062433 0.124968
vertex 0.092864 0.135020 0.114710
endloop
endfacet
facet normal 0.141492 0.137831 -0.980297
outer loop
vertex 0.092864 0.135020 0.114710
vertex 0.296432 0.109260 0.140470
vertex 0.296432 0.062433 0.133886
endloop
endfacet
facet normal 0.069959 0.967637 0.242456
outer loop
vertex 0.296432 0.122662 0.187298
vertex 0.092864 0.137379 0.187298
vertex 0.092864 0.120690 0.253905
endloop
endfacet
facet normal -0.040282 0.994789 -0.093660
outer loop
vertex 0.092864 0.120690 0.253905
vertex 0.296432 0.128224 0.246372
vertex 0.296432 0.122662 0.187298
endloop
endfacet
facet normal -0.102555 -0.199804 -0.974454
outer loop
vertex 0.296432 0.187298 0.235996
vertex 0.092864 0.187298 0.257421
vertex 0.092864 0.256159 0.243301
endloop
endfacet
facet normal 0.032682 0.200482 -0.979152
outer loop
vertex 0.092864 0.256159 0.243301
vertex 0.296432 0.250519 0.248941
vertex 0.296432 0.187298 0.235996
endloop
endfacet
facet normal -0.104404 0.983998 -0.144389
outer loop
vertex 0.296432 0.267088 0.312163
vertex 0.092864 0.245489 0.312163
vertex 0.092864 0.254021 0.370305
endloop
endfacet
facet normal -0.000733 0.976208 0.216835
outer loop
vertex 0.092864 0.254021 0.370305
vertex 0.296432 0.254217 0.370108
vertex 0.296432 0.267088 0.312163
endloop
endfacet
facet normal 0.042458 0.236215 -0.970773
outer loop
vertex 0.296432 0.312163 0.379140
vertex 0.092864 0.312163 0.370237
vertex 0.092864 0.365883 0.383308
endloop
endfacet
facet normal -0.007262 0.049972 -0.998724
outer loop
vertex 0.092864 0.365883 0.383308
vertex 0.296432 0.367292 0.381898
vertex 0.296432 0.312163 0.379140
endloop
endfacet
facet normal 0.088457 0.985687 -0.143512
outer loop
vertex 0.296432 0.358888 0.437028
vertex 0.092864 0.377157 0.437028
vertex 0.092864 0.384766 0.489290
endloop
endfacet
facet normal 0.101009 0.990161 -0.096838
outer loop
vertex 0.092864 0.384766 0.489290
vertex 0.296432 0.365849 0.508206
vertex 0.296432 0.358888 0.437028
endloop
endfacet
facet normal -0.031688 -0.086925 -0.995711
outer loop
vertex 0.296432 0.437028 0.493983
vertex 0.092864 0.437028 0.500462
vertex 0.092864 0.504335 0.494586
endloop
endfacet
facet normal -0.046748 -0.132521 -0.990077
outer loop
vertex 0.092864 0.504335 0.494586
vertex 0.296432 0.515432 0.483489
vertex 0.296432 0.437028 0.493983
endloop
endfacet
facet normal 0.046566 0.984026 0.171824
outer loop
vertex 0.296432 0.498241 0.561893
vertex 0.092864 0.507874 0.561893
vertex 0.092864 0.496446 0.627340
endloop
endfacet
facet normal 0.003338 0.999280 0.037786
outer loop
vertex 0.092864 0.496446 0.627340
vertex 0.296432 0.495739 0.628047
vertex 0.296432 0.498241 0.561893
endloop
endfacet
facet normal -0.009660 0.997444 -0.070794
outer loop
vertex 0.703568 0.002460 0.062433
vertex 0.907136 0.004431 0.062433
vertex 0.907136 0.000000 0.000000
endloop
endfacet
facet normal -0.000000 0.999225 -0.039367
outer loop
vertex 0.907136 0.000000 0.000000
vertex 0.703568 0.000000 -0.000000
vertex 0.703568 0.002460 0.062433
endloop
endfacet
facet normal -0.024296 0.981253 -0.191185
outer loop
vertex 0.296432 0.888867 0.937028
vertex 0.296432 0.876183 0.871928
vertex 0.092864 0.871965 0.876147
endloop
endfacet
facet normal -0.172791 0.931853 0.319052
outer loop
vertex 0.092864 0.871965 0.876147
vertex 0.092864 0.851120 0.937028
vertex 0.296432 0.888867 0.937028
endloop
endfacet
facet normal -0.040184 0.000000 -0.999192
outer loop
vertex 0.296432 0.937028 0.991696
vertex 0.092864 0.937028 0.999882
vertex 0.092864 1.000000 0.999882
endloop
endfacet
facet normal 0.000000 0.128918 -0.991655
outer loop
vertex 0.092864 1.000000 0.999882
vertex 0.296432 1.000000 0.999882
vertex 0.296432 0.937028 0.991696
endloop
endfacet
facet normal -0.006591 0.997580 0.069223
outer loop
vertex 0.296432 0.744268 0.811623
vertex 0.296432 0.748556 0.749825
vertex 0.092864 0.747111 0.751270
endloop
endfacet
facet normal 0.054771 0.988895 -0.138154
outer loop
vertex 0.092864 0.747111 0.751270
vertex 0.092864 0.755543 0.811623
vertex 0.296432 0.744268 0.811623
endloop
endfacet
facet normal -0.057232 -0.080565 -0.995105
outer loop
vertex 0.296432 0.561893 0.618549
vertex 0.092864 0.561893 0.630257
vertex 0.092864 0.623372 0.625279
endloop
endfacet
facet normal 0.029896 0.206071 -0.978080
outer loop
vertex 0.092864 0.623372 0.625279
vertex 0.296432 0.618233 0.630419
vertex 0.296432 0.561893 0.618549
endloop
endfacet
facet normal 0.026046 0.999131 -0.032547
outer loop
vertex 0.296432 0.620068 0.686758
vertex 0.296432 0.618233 0.630419
vertex 0.092864 0.623372 0.625279
endloop
endfacet
facet normal -0.019692 0.992751 0.118561
outer loop
vertex 0.092864 0.623372 0.625279
vertex 0.092864 0.616030 0.686758
vertex 0.296432 0.620068 0.686758
endloop
endfacet
facet normal -0.011120 -0.016307 -0.999805
outer loop
vertex 0.296432 0.686758 0.749991
vertex 0.092864 0.686758 0.752255
vertex 0.092864 0.747111 0.751270
endloop
endfacet
facet normal -0.007081 -0.002675 -0.999971
outer loop
vertex 0.092864 0.747111 0.751270
vertex 0.296432 0.748556 0.749825
vertex 0.296432 0.686758 0.749991
endloop
endfacet
facet normal -0.050095 -0.149989 -0.987418
outer loop
vertex 0.703568 0.686758 0.747860
vertex 0.500000 0.686758 0.758188
vertex 0.500000 0.749764 0.748617
endloop
endfacet
facet normal -0.000606 0.010057 -0.999949
outer loop
vertex 0.500000 0.749764 0.748617
vertex 0.703568 0.749887 0.748495
vertex 0.703568 0.686758 0.747860
endloop
endfacet
facet normal -0.008375 0.999268 0.037337
outer loop
vertex 0.703568 0.623845 0.686758
vertex 0.703568 0.626249 0.622402
vertex 0.500000 0.624477 0.624174
endloop
endfacet
facet normal 0.006100 0.999934 -0.009742
outer loop
vertex 0.500000 0.624477 0.624174
vertex 0.500000 0.625087 0.686758
vertex 0.703568 0.623845 0.686758
endloop
endfacet
facet normal 0.187458 0.252967 -0.949140
outer loop
vertex 0.703568 0.561893 0.647700
vertex 0.500000 0.561893 0.607494
vertex 0.500000 0.624477 0.624174
endloop
endfacet
facet normal -0.004918 -0.365832 -0.930668
outer loop
vertex 0.500000 0.624477 0.624174
vertex 0.703568 0.626249 0.622402
vertex 0.703568 0.561893 0.647700
endloop
endfacet
facet normal -0.000494 0.986557 0.163416
outer loop
vertex 0.703568 0.739430 0.811623
vertex 0.703568 0.749887 0.748495
vertex 0.500000 0.749764 0.748617
endloop
endfacet
facet normal 0.047351 0.998820 0.010843
outer loop
vertex 0.500000 0.749764 0.748617
vertex 0.500000 0.749080 0.811623
vertex 0.703568 0.739430 0.811623
endloop
endfacet
facet normal -0.041866 0.000000 -0.999123
outer loop
vertex 0.703568 0.937028 0.991352
vertex 0.500000 0.937028 0.999882
vertex 0.500000 1.000000 0.999882
endloop
endfacet
facet normal 0.000001 0.134229 -0.990950
outer loop
vertex 0.500000 1.000000 0.999882
vertex 0.703568 1.000000 0.999882
vertex 0.703568 0.937028 0.991352
endloop
endfacet
facet normal 0.026365 0.959326 -0.281068
outer loop
vertex 0.703568 0.886803 0.937028
vertex 0.703568 0.861891 0.852000
vertex 0.500000 0.873972 0.874139
endloop
endfacet
facet normal -0.044802 0.997285 -0.058449
outer loop
vertex 0.500000 0.873972 0.874139
vertex 0.500000 0.877658 0.937028
vertex 0.703568 0.886803 0.937028
endloop
endfacet
facet normal -0.029120 0.959671 -0.279615
outer loop
vertex 0.296432 0.012014 0.062432
vertex 0.500000 0.018191 0.062432
vertex 0.500000 0.000000 -0.000000
endloop
endfacet
facet normal -0.000000 0.981985 -0.188961
outer loop
vertex 0.500000 0.000000 -0.000000
vertex 0.296432 0.000000 -0.000000
vertex 0.296432 0.012014 0.062432
endloop
endfacet
facet normal -0.066919 0.997194 -0.033565
outer loop
vertex 0.703568 0.510761 0.561893
vertex 0.500000 0.497100 0.561893
vertex 0.500000 0.499210 0.624577
endloop
endfacet
facet normal 0.033380 0.957965 0.284935
outer loop
vertex 0.500000 0.499210 0.624577
vertex 0.703568 0.489113 0.634673
vertex 0.703568 0.510761 0.561893
endloop
endfacet
facet normal -0.069508 -0.043006 -0.996654
outer loop
vertex 0.703568 0.437028 0.487650
vertex 0.500000 0.437028 0.501847
vertex 0.500000 0.499782 0.499139
endloop
endfacet
facet normal -0.050312 0.019608 -0.998541
outer loop
vertex 0.500000 0.499782 0.499139
vertex 0.703568 0.509841 0.489080
vertex 0.703568 0.437028 0.487650
endloop
endfacet
facet normal 0.010576 0.996791 0.079342
outer loop
vertex 0.703568 0.377465 0.437028
vertex 0.500000 0.379625 0.437028
vertex 0.500000 0.374661 0.499395
endloop
endfacet
facet normal -0.123069 0.924753 -0.360118
outer loop
vertex 0.500000 0.374661 0.499395
vertex 0.703568 0.394159 0.479897
vertex 0.703568 0.377465 0.437028
endloop
endfacet
facet normal 0.005153 -0.185573 -0.982617
outer loop
vertex 0.703568 0.312163 0.387645
vertex 0.500000 0.312163 0.386578
vertex 0.500000 0.374359 0.374832
endloop
endfacet
facet normal 0.015141 -0.153982 -0.987958
outer loop
vertex 0.500000 0.374359 0.374832
vertex 0.703568 0.370663 0.378528
vertex 0.703568 0.312163 0.387645
endloop
endfacet
facet normal -0.093074 0.995506 -0.017462
outer loop
vertex 0.703568 0.267833 0.312163
vertex 0.500000 0.248800 0.312163
vertex 0.500000 0.249892 0.374433
endloop
endfacet
facet normal -0.030857 0.982766 0.182260
outer loop
vertex 0.500000 0.249892 0.374433
vertex 0.703568 0.257739 0.366586
vertex 0.703568 0.267833 0.312163
endloop
endfacet
facet normal -0.147076 -0.187185 -0.971252
outer loop
vertex 0.703568 0.187298 0.230967
vertex 0.500000 0.187298 0.261793
vertex 0.500000 0.249692 0.249768
endloop
endfacet
facet normal -0.070903 0.068531 -0.995126
outer loop
vertex 0.500000 0.249692 0.249768
vertex 0.703568 0.263262 0.236198
vertex 0.703568 0.187298 0.230967
endloop
endfacet
facet normal -0.003506 0.997312 -0.073184
outer loop
vertex 0.703568 0.121120 0.187298
vertex 0.500000 0.120404 0.187298
vertex 0.500000 0.124978 0.249618
endloop
endfacet
facet normal -0.061617 0.963396 -0.260905
outer loop
vertex 0.500000 0.124978 0.249618
vertex 0.703568 0.135223 0.239373
vertex 0.703568 0.121120 0.187298
endloop
endfacet
facet normal 0.043375 0.300319 -0.952852
outer loop
vertex 0.703568 0.062433 0.114356
vertex 0.500000 0.062433 0.105090
vertex 0.500000 0.124939 0.124791
endloop
endfacet
facet normal -0.012373 0.125305 -0.992041
outer loop
vertex 0.500000 0.124939 0.124791
vertex 0.703568 0.127194 0.122536
vertex 0.703568 0.062433 0.114356
endloop
endfacet
facet normal -0.114055 -0.098650 -0.988564
outer loop
vertex 0.703568 0.811623 0.856875
vertex 0.500000 0.811623 0.880361
vertex 0.500000 0.873972 0.874139
endloop
endfacet
facet normal -0.113243 -0.095893 -0.988929
outer loop
vertex 0.500000 0.873972 0.874139
vertex 0.703568 0.861891 0.852000
vertex 0.703568 0.811623 0.856875
endloop
endfacet
facet normal 0.067847 -0.096291 -0.993038
outer loop
vertex 0.907136 0.811623 0.870783
vertex 0.703568 0.811623 0.856875
vertex 0.703568 0.861891 0.852000
endloop
endfacet
facet normal 0.130214 0.161825 -0.978191
outer loop
vertex 0.703568 0.861891 0.852000
vertex 0.907136 0.868002 0.880110
vertex 0.907136 0.811623 0.870783
endloop
endfacet
facet normal -0.042002 -0.298300 -0.953547
outer loop
vertex 0.907136 0.758820 0.864426
vertex 0.703568 0.745771 0.877475
vertex 0.703568 0.811623 0.856875
endloop
endfacet
facet normal 0.067676 0.119240 -0.990556
outer loop
vertex 0.703568 0.811623 0.856875
vertex 0.907136 0.811623 0.870783
vertex 0.907136 0.758820 0.864426
endloop
endfacet
facet normal 0.021020 0.108538 -0.993870
outer loop
vertex 0.703568 0.745771 0.877475
vertex 0.500000 0.749653 0.873593
vertex 0.500000 0.811623 0.880361
endloop
endfacet
facet normal -0.109450 -0.296770 -0.948656
outer loop
vertex 0.500000 0.811623 0.880361
vertex 0.703568 0.811623 0.856875
vertex 0.703568 0.745771 0.877475
endloop
endfacet
facet normal 0.124177 0.124344 -0.984438
outer loop
vertex 0.907136 0.062433 0.140035
vertex 0.703568 0.062433 0.114356
vertex 0.703568 0.127194 0.122536
endloop
endfacet
facet normal 0.020778 -0.199396 -0.979699
outer loop
vertex 0.703568 0.127194 0.122536
vertex 0.907136 0.121773 0.127957
vertex 0.907136 0.062433 0.140035
endloop
endfacet
facet normal 0.038405 -0.102931 -0.993947
outer loop
vertex 0.907136 -0.004264 0.129129
vertex 0.703568 0.004510 0.120355
vertex 0.703568 0.062433 0.114356
endloop
endfacet
facet normal 0.123534 0.160129 -0.979335
outer loop
vertex 0.703568 0.062433 0.114356
vertex 0.907136 0.062433 0.140035
vertex 0.907136 -0.004264 0.129129
endloop
endfacet
facet normal -0.014502 -0.302161 -0.953147
outer loop
vertex 0.703568 0.004510 0.120355
vertex 0.500000 -0.000025 0.124890
vertex 0.500000 0.062433 0.105090
endloop
endfacet
facet normal 0.045233 -0.102902 -0.993663
outer loop
vertex 0.500000 0.062433 0.105090
vertex 0.703568 0.062433 0.114356
vertex 0.703568 0.004510 0.120355
endloop
endfacet
facet normal -0.046725 0.964176 -0.261116
outer loop
vertex 0.907136 0.130985 0.187298
vertex 0.703568 0.121120 0.187298
vertex 0.703568 0.135223 0.239373
endloop
endfacet
facet normal 0.054223 0.989843 0.131415
outer loop
vertex 0.703568 0.135223 0.239373
vertex 0.907136 0.122364 0.252231
vertex 0.907136 0.130985 0.187298
endloop
endfacet
facet normal 0.024018 0.995344 0.093350
outer loop
vertex 0.907136 0.121773 0.127957
vertex 0.703568 0.127194 0.122536
vertex 0.703568 0.121120 0.187298
endloop
endfacet
facet normal -0.047833 0.987033 -0.153227
outer loop
vertex 0.703568 0.121120 0.187298
vertex 0.907136 0.130985 0.187298
vertex 0.907136 0.121773 0.127957
endloop
endfacet
facet normal -0.010243 0.997326 0.072358
outer loop
vertex 0.703568 0.127194 0.122536
vertex 0.500000 0.124939 0.124791
vertex 0.500000 0.120404 0.187298
endloop
endfacet
facet normal -0.003500 0.995625 0.093377
outer loop
vertex 0.500000 0.120404 0.187298
vertex 0.703568 0.121120 0.187298
vertex 0.703568 0.127194 0.122536
endloop
endfacet
facet normal 0.117959 0.068224 -0.990672
outer loop
vertex 0.907136 0.187298 0.255206
vertex 0.703568 0.187298 0.230967
vertex 0.703568 0.263262 0.236198
endloop
endfacet
facet normal 0.082314 -0.028677 -0.996194
outer loop
vertex 0.703568 0.263262 0.236198
vertex 0.907136 0.245943 0.253518
vertex 0.907136 0.187298 0.255206
endloop
endfacet
facet normal 0.052221 -0.159131 -0.985875
outer loop
vertex 0.907136 0.122364 0.252231
vertex 0.703568 0.135223 0.239373
vertex 0.703568 0.187298 0.230967
endloop
endfacet
facet normal 0.118112 0.045446 -0.991960
outer loop
vertex 0.703568 0.187298 0.230967
vertex 0.907136 0.187298 0.255206
vertex 0.907136 0.122364 0.252231
endloop
endfacet
facet normal -0.058942 0.191412 -0.979738
outer loop
vertex 0.703568 0.135223 0.239373
vertex 0.500000 0.124978 0.249618
vertex 0.500000 0.187298 0.261793
endloop
endfacet
facet normal -0.147851 -0.157598 -0.976372
outer loop
vertex 0.500000 0.187298 0.261793
vertex 0.703568 0.187298 0.230967
vertex 0.703568 0.135223 0.239373
endloop
endfacet
facet normal 0.084011 0.979759 0.181701
outer loop
vertex 0.907136 0.250377 0.312163
vertex 0.703568 0.267833 0.312163
vertex 0.703568 0.257739 0.366586
endloop
endfacet
facet normal 0.034606 0.999384 -0.005748
outer loop
vertex 0.703568 0.257739 0.366586
vertex 0.907136 0.250731 0.373595
vertex 0.907136 0.250377 0.312163
endloop
endfacet
facet normal 0.089671 0.994174 -0.059817
outer loop
vertex 0.907136 0.245943 0.253518
vertex 0.703568 0.263262 0.236198
vertex 0.703568 0.267833 0.312163
endloop
endfacet
facet normal 0.085192 0.993528 -0.075124
outer loop
vertex 0.703568 0.267833 0.312163
vertex 0.907136 0.250377 0.312163
vertex 0.907136 0.245943 0.253518
endloop
endfacet
facet normal -0.065558 0.997747 0.014265
outer loop
vertex 0.703568 0.263262 0.236198
vertex 0.500000 0.249692 0.249768
vertex 0.500000 0.248800 0.312163
endloop
endfacet
facet normal -0.092921 0.993876 -0.059798
outer loop
vertex 0.500000 0.248800 0.312163
vertex 0.703568 0.267833 0.312163
vertex 0.703568 0.263262 0.236198
endloop
endfacet
facet normal -0.056465 -0.153753 -0.986494
outer loop
vertex 0.907136 0.312163 0.375993
vertex 0.703568 0.312163 0.387645
vertex 0.703568 0.370663 0.378528
endloop
endfacet
facet normal -0.031292 -0.065686 -0.997350
outer loop
vertex 0.703568 0.370663 0.378528
vertex 0.907136 0.377501 0.371690
vertex 0.907136 0.312163 0.375993
endloop
endfacet
facet normal 0.044490 0.360518 -0.931691
outer loop
vertex 0.907136 0.250731 0.373595
vertex 0.703568 0.257739 0.366586
vertex 0.703568 0.312163 0.387645
endloop
endfacet
facet normal -0.057102 0.038948 -0.997608
outer loop
vertex 0.703568 0.312163 0.387645
vertex 0.907136 0.312163 0.375993
vertex 0.907136 0.250731 0.373595
endloop
endfacet
facet normal -0.045167 0.191228 -0.980506
outer loop
vertex 0.703568 0.257739 0.366586
vertex 0.500000 0.249892 0.374433
vertex 0.500000 0.312163 0.386578
endloop
endfacet
facet normal 0.004891 0.360871 -0.932603
outer loop
vertex 0.500000 0.312163 0.386578
vertex 0.703568 0.312163 0.387645
vertex 0.703568 0.257739 0.366586
endloop
endfacet
facet normal -0.036212 0.931225 -0.362642
outer loop
vertex 0.907136 0.385381 0.437028
vertex 0.703568 0.377465 0.437028
vertex 0.703568 0.394159 0.479897
endloop
endfacet
facet normal 0.098945 0.956634 0.273972
outer loop
vertex 0.703568 0.394159 0.479897
vertex 0.907136 0.364654 0.509402
vertex 0.907136 0.385381 0.437028
endloop
endfacet
facet normal -0.037217 0.992620 -0.115414
outer loop
vertex 0.907136 0.377501 0.371690
vertex 0.703568 0.370663 0.378528
vertex 0.703568 0.377465 0.437028
endloop
endfacet
facet normal -0.038578 0.992066 -0.119656
outer loop
vertex 0.703568 0.377465 0.437028
vertex 0.907136 0.385381 0.437028
vertex 0.907136 0.377501 0.371690
endloop
endfacet
facet normal 0.019618 0.996243 -0.084349
outer loop
vertex 0.703568 0.370663 0.378528
vertex 0.500000 0.374359 0.374832
vertex 0.500000 0.379625 0.437028
endloop
endfacet
facet normal 0.010539 0.993253 -0.115489
outer loop
vertex 0.500000 0.379625 0.437028
vertex 0.703568 0.377465 0.437028
vertex 0.703568 0.370663 0.378528
endloop
endfacet
facet normal 0.120340 0.019490 -0.992541
outer loop
vertex 0.907136 0.437028 0.512331
vertex 0.703568 0.437028 0.487650
vertex 0.703568 0.509841 0.489080
endloop
endfacet
facet normal 0.034176 -0.216050 -0.975784
outer loop
vertex 0.703568 0.509841 0.489080
vertex 0.907136 0.500684 0.498237
vertex 0.907136 0.437028 0.512331
endloop
endfacet
facet normal 0.166082 0.175500 -0.970369
outer loop
vertex 0.907136 0.364654 0.509402
vertex 0.703568 0.394159 0.479897
vertex 0.703568 0.437028 0.487650
endloop
endfacet
facet normal 0.120265 0.040150 -0.991930
outer loop
vertex 0.703568 0.437028 0.487650
vertex 0.907136 0.437028 0.512331
vertex 0.907136 0.364654 0.509402
endloop
endfacet
facet normal -0.098983 0.039089 -0.994321
outer loop
vertex 0.703568 0.394159 0.479897
vertex 0.500000 0.374661 0.499395
vertex 0.500000 0.437028 0.501847
endloop
endfacet
facet normal -0.068466 0.177555 -0.981727
outer loop
vertex 0.500000 0.437028 0.501847
vertex 0.703568 0.437028 0.487650
vertex 0.703568 0.394159 0.479897
endloop
endfacet
facet normal 0.050117 0.957295 0.284735
outer loop
vertex 0.907136 0.500103 0.561893
vertex 0.703568 0.510761 0.561893
vertex 0.703568 0.489113 0.634673
endloop
endfacet
facet normal -0.062931 0.997696 -0.025364
outer loop
vertex 0.703568 0.489113 0.634673
vertex 0.907136 0.501635 0.622151
vertex 0.907136 0.500103 0.561893
endloop
endfacet
facet normal 0.045501 0.998885 -0.012612
outer loop
vertex 0.907136 0.500684 0.498237
vertex 0.703568 0.509841 0.489080
vertex 0.703568 0.510761 0.561893
endloop
endfacet
facet normal 0.052279 0.998591 0.009113
outer loop
vertex 0.703568 0.510761 0.561893
vertex 0.907136 0.500103 0.561893
vertex 0.907136 0.500684 0.498237
endloop
endfacet
facet normal -0.047207 0.997974 0.042655
outer loop
vertex 0.703568 0.509841 0.489080
vertex 0.500000 0.499782 0.499139
vertex 0.500000 0.497100 0.561893
endloop
endfacet
facet normal -0.066952 0.997677 -0.012596
outer loop
vertex 0.500000 0.497100 0.561893
vertex 0.703568 0.510761 0.561893
vertex 0.703568 0.509841 0.489080
endloop
endfacet
facet normal -0.031557 0.981495 -0.188867
outer loop
vertex 0.092864 0.005469 0.062432
vertex 0.296432 0.012014 0.062432
vertex 0.296432 0.000000 -0.000000
endloop
endfacet
facet normal -0.000000 0.996186 -0.087260
outer loop
vertex 0.296432 0.000000 -0.000000
vertex 0.092864 0.000000 -0.000000
vertex 0.092864 0.005469 0.062432
endloop
endfacet
facet normal -0.057888 0.994058 0.092187
outer loop
vertex 0.092864 -0.006206 0.131071
vertex 0.296432 0.006860 0.118005
vertex 0.296432 0.012014 0.062432
endloop
endfacet
facet normal -0.031680 0.985346 0.167602
outer loop
vertex 0.296432 0.012014 0.062432
vertex 0.092864 0.005469 0.062432
vertex 0.092864 -0.006206 0.131071
endloop
endfacet
facet normal 0.022992 0.959752 0.279907
outer loop
vertex 0.296432 0.006860 0.118005
vertex 0.500000 -0.000025 0.124890
vertex 0.500000 0.018191 0.062432
endloop
endfacet
facet normal -0.030200 0.995273 0.092300
outer loop
vertex 0.500000 0.018191 0.062432
vertex 0.296432 0.012014 0.062432
vertex 0.296432 0.006860 0.118005
endloop
endfacet
facet normal -0.044761 0.996367 0.072453
outer loop
vertex 0.703568 0.882864 0.991191
vertex 0.703568 0.886803 0.937028
vertex 0.500000 0.877658 0.937028
endloop
endfacet
facet normal -0.044150 0.996560 0.070139
outer loop
vertex 0.500000 0.877658 0.937028
vertex 0.500000 0.874005 0.988929
vertex 0.703568 0.882864 0.991191
endloop
endfacet
facet normal 0.103258 0.993293 -0.052018
outer loop
vertex 0.907136 0.868933 0.999882
vertex 0.907136 0.865641 0.937028
vertex 0.703568 0.886803 0.937028
endloop
endfacet
facet normal 0.065022 0.995256 0.072375
outer loop
vertex 0.703568 0.886803 0.937028
vertex 0.703568 0.882864 0.991191
vertex 0.907136 0.868933 0.999882
endloop
endfacet
facet normal -0.035691 0.998504 0.041413
outer loop
vertex 0.907136 0.865641 0.937028
vertex 0.907136 0.868002 0.880110
vertex 0.703568 0.861891 0.852000
endloop
endfacet
facet normal 0.099269 0.954919 -0.279777
outer loop
vertex 0.703568 0.861891 0.852000
vertex 0.703568 0.886803 0.937028
vertex 0.907136 0.865641 0.937028
endloop
endfacet
facet normal 0.041487 0.134113 -0.990097
outer loop
vertex 0.907136 0.937028 0.999882
vertex 0.703568 0.937028 0.991352
vertex 0.703568 1.000000 0.999882
endloop
endfacet
facet normal 0.000000 0.000000 -1.000000
outer loop
vertex 0.703568 1.000000 0.999882
vertex 0.907136 1.000000 0.999882
vertex 0.907136 0.937028 0.999882
endloop
endfacet
facet normal 0.042856 0.002969 -0.999077
outer loop
vertex 0.907136 0.868933 0.999882
vertex 0.703568 0.882864 0.991191
vertex 0.703568 0.937028 0.991352
endloop
endfacet
facet normal 0.041866 0.000000 -0.999123
outer loop
vertex 0.703568 0.937028 0.991352
vertex 0.907136 0.937028 0.999882
vertex 0.907136 0.868933 0.999882
endloop
endfacet
facet normal 0.003498 0.171234 -0.985224
outer loop
vertex 0.703568 0.882864 0.991191
vertex 0.500000 0.874005 0.988929
vertex 0.500000 0.937028 0.999882
endloop
endfacet
facet normal -0.041865 0.002969 -0.999119
outer loop
vertex 0.500000 0.937028 0.999882
vertex 0.703568 0.937028 0.991352
vertex 0.703568 0.882864 0.991191
endloop
endfacet
facet normal 0.047136 0.994289 -0.095751
outer loop
vertex 0.703568 0.745771 0.877475
vertex 0.703568 0.739430 0.811623
vertex 0.500000 0.749080 0.811623
endloop
endfacet
facet normal 0.019239 0.999772 -0.009240
outer loop
vertex 0.500000 0.749080 0.811623
vertex 0.500000 0.749653 0.873593
vertex 0.703568 0.745771 0.877475
endloop
endfacet
facet normal -0.151261 0.961334 0.230124
outer loop
vertex 0.907136 0.758820 0.864426
vertex 0.907136 0.771460 0.811623
vertex 0.703568 0.739430 0.811623
endloop
endfacet
facet normal -0.069778 0.992969 -0.095624
outer loop
vertex 0.703568 0.739430 0.811623
vertex 0.703568 0.745771 0.877475
vertex 0.907136 0.758820 0.864426
endloop
endfacet
facet normal 0.022743 0.921300 -0.388187
outer loop
vertex 0.907136 0.771460 0.811623
vertex 0.907136 0.746351 0.752031
vertex 0.703568 0.749887 0.748495
endloop
endfacet
facet normal -0.153392 0.974882 0.161482
outer loop
vertex 0.703568 0.749887 0.748495
vertex 0.703568 0.739430 0.811623
vertex 0.907136 0.771460 0.811623
endloop
endfacet
facet normal -0.059444 -0.365189 -0.929034
outer loop
vertex 0.907136 0.561893 0.634674
vertex 0.703568 0.561893 0.647700
vertex 0.703568 0.626249 0.622402
endloop
endfacet
facet normal -0.012497 -0.225302 -0.974209
outer loop
vertex 0.703568 0.626249 0.622402
vertex 0.907136 0.629646 0.619005
vertex 0.907136 0.561893 0.634674
endloop
endfacet
facet normal -0.071206 0.175738 -0.981858
outer loop
vertex 0.907136 0.501635 0.622151
vertex 0.703568 0.489113 0.634673
vertex 0.703568 0.561893 0.647700
endloop
endfacet
facet normal -0.062524 0.203079 -0.977164
outer loop
vertex 0.703568 0.561893 0.647700
vertex 0.907136 0.561893 0.634674
vertex 0.907136 0.501635 0.622151
endloop
endfacet
facet normal 0.034791 -0.262767 -0.964232
outer loop
vertex 0.703568 0.489113 0.634673
vertex 0.500000 0.499210 0.624577
vertex 0.500000 0.561893 0.607494
endloop
endfacet
facet normal 0.190840 0.172947 -0.966266
outer loop
vertex 0.500000 0.561893 0.607494
vertex 0.703568 0.561893 0.647700
vertex 0.703568 0.489113 0.634673
endloop
endfacet
facet normal 0.005922 0.970737 -0.240073
outer loop
vertex 0.703568 0.636319 0.737197
vertex 0.703568 0.623845 0.686758
vertex 0.500000 0.625087 0.686758
endloop
endfacet
facet normal -0.058038 0.998243 0.011936
outer loop
vertex 0.500000 0.625087 0.686758
vertex 0.500000 0.624340 0.749176
vertex 0.703568 0.636319 0.737197
endloop
endfacet
facet normal -0.071067 0.979061 0.190758
outer loop
vertex 0.907136 0.626973 0.746544
vertex 0.907136 0.638621 0.686758
vertex 0.703568 0.623845 0.686758
endloop
endfacet
facet normal 0.055506 0.969257 -0.239710
outer loop
vertex 0.703568 0.623845 0.686758
vertex 0.703568 0.636319 0.737197
vertex 0.907136 0.626973 0.746544
endloop
endfacet
facet normal -0.018730 0.991166 -0.131295
outer loop
vertex 0.907136 0.638621 0.686758
vertex 0.907136 0.629646 0.619005
vertex 0.703568 0.626249 0.622402
endloop
endfacet
facet normal -0.072346 0.996684 0.037240
outer loop
vertex 0.703568 0.626249 0.622402
vertex 0.703568 0.623845 0.686758
vertex 0.907136 0.638621 0.686758
endloop
endfacet
facet normal -0.082688 0.010022 -0.996525
outer loop
vertex 0.907136 0.686758 0.730969
vertex 0.703568 0.686758 0.747860
vertex 0.703568 0.749887 0.748495
endloop
endfacet
facet normal 0.022158 0.333149 -0.942614
outer loop
vertex 0.703568 0.749887 0.748495
vertex 0.907136 0.746351 0.752031
vertex 0.907136 0.686758 0.730969
endloop
endfacet
facet normal 0.054336 0.206518 -0.976933
outer loop
vertex 0.907136 0.626973 0.746544
vertex 0.703568 0.636319 0.737197
vertex 0.703568 0.686758 0.747860
endloop
endfacet
facet normal -0.080039 -0.251292 -0.964596
outer loop
vertex 0.703568 0.686758 0.747860
vertex 0.907136 0.686758 0.730969
vertex 0.907136 0.626973 0.746544
endloop
endfacet
facet normal -0.066501 0.142579 -0.987547
outer loop
vertex 0.703568 0.636319 0.737197
vertex 0.500000 0.624340 0.749176
vertex 0.500000 0.686758 0.758188
endloop
endfacet
facet normal -0.049575 0.206569 -0.977175
outer loop
vertex 0.500000 0.686758 0.758188
vertex 0.703568 0.686758 0.747860
vertex 0.703568 0.636319 0.737197
endloop
endfacet
facet normal 0.040235 -0.002673 -0.999187
outer loop
vertex 0.500000 0.686758 0.758188
vertex 0.296432 0.686758 0.749991
vertex 0.296432 0.748556 0.749825
endloop
endfacet
facet normal -0.004976 -0.150176 -0.988647
outer loop
vertex 0.296432 0.748556 0.749825
vertex 0.500000 0.749764 0.748617
vertex 0.500000 0.686758 0.758188
endloop
endfacet
facet normal 0.075558 0.258989 -0.962921
outer loop
vertex 0.500000 0.624340 0.749176
vertex 0.296432 0.636928 0.736588
vertex 0.296432 0.686758 0.749991
endloop
endfacet
facet normal 0.039822 0.142781 -0.988953
outer loop
vertex 0.296432 0.686758 0.749991
vertex 0.500000 0.686758 0.758188
vertex 0.500000 0.624340 0.749176
endloop
endfacet
facet normal -0.048593 0.113480 -0.992351
outer loop
vertex 0.296432 0.636928 0.736588
vertex 0.092864 0.627983 0.745534
vertex 0.092864 0.686758 0.752255
endloop
endfacet
facet normal -0.010741 0.259715 -0.965626
outer loop
vertex 0.092864 0.686758 0.752255
vertex 0.296432 0.686758 0.749991
vertex 0.296432 0.636928 0.736588
endloop
endfacet
facet normal -0.018786 0.947079 -0.320450
outer loop
vertex 0.296432 0.636928 0.736588
vertex 0.296432 0.620068 0.686758
vertex 0.092864 0.616030 0.686758
endloop
endfacet
facet normal -0.051750 0.978628 -0.199020
outer loop
vertex 0.092864 0.616030 0.686758
vertex 0.092864 0.627983 0.745534
vertex 0.296432 0.636928 0.736588
endloop
endfacet
facet normal -0.024645 0.999625 0.011953
outer loop
vertex 0.500000 0.624340 0.749176
vertex 0.500000 0.625087 0.686758
vertex 0.296432 0.620068 0.686758
endloop
endfacet
facet normal 0.078153 0.944349 -0.319526
outer loop
vertex 0.296432 0.620068 0.686758
vertex 0.296432 0.636928 0.736588
vertex 0.500000 0.624340 0.749176
endloop
endfacet
facet normal -0.030957 0.999473 -0.009738
outer loop
vertex 0.500000 0.625087 0.686758
vertex 0.500000 0.624477 0.624174
vertex 0.296432 0.618233 0.630419
endloop
endfacet
facet normal -0.024634 0.999167 -0.032545
outer loop
vertex 0.296432 0.618233 0.630419
vertex 0.296432 0.620068 0.686758
vertex 0.500000 0.625087 0.686758
endloop
endfacet
facet normal -0.053061 0.205872 -0.977139
outer loop
vertex 0.500000 0.561893 0.607494
vertex 0.296432 0.561893 0.618549
vertex 0.296432 0.618233 0.630419
endloop
endfacet
facet normal -0.037512 0.257351 -0.965589
outer loop
vertex 0.296432 0.618233 0.630419
vertex 0.500000 0.624477 0.624174
vertex 0.500000 0.561893 0.607494
endloop
endfacet
facet normal -0.014449 -0.142104 -0.989746
outer loop
vertex 0.500000 0.499210 0.624577
vertex 0.296432 0.495739 0.628047
vertex 0.296432 0.561893 0.618549
endloop
endfacet
facet normal -0.052320 -0.262566 -0.963494
outer loop
vertex 0.296432 0.561893 0.618549
vertex 0.500000 0.561893 0.607494
vertex 0.500000 0.499210 0.624577
endloop
endfacet
facet normal 0.003622 0.044520 -0.999002
outer loop
vertex 0.296432 0.495739 0.628047
vertex 0.092864 0.496446 0.627340
vertex 0.092864 0.561893 0.630257
endloop
endfacet
facet normal -0.056838 -0.141889 -0.988249
outer loop
vertex 0.092864 0.561893 0.630257
vertex 0.296432 0.561893 0.618549
vertex 0.296432 0.495739 0.628047
endloop
endfacet
facet normal 0.054457 0.983228 -0.174062
outer loop
vertex 0.296432 0.754398 0.868848
vertex 0.296432 0.744268 0.811623
vertex 0.092864 0.755543 0.811623
endloop
endfacet
facet normal -0.069006 0.961856 0.264710
outer loop
vertex 0.092864 0.755543 0.811623
vertex 0.092864 0.734248 0.888998
vertex 0.296432 0.754398 0.868848
endloop
endfacet
facet normal -0.023633 0.999678 -0.009241
outer loop
vertex 0.500000 0.749653 0.873593
vertex 0.500000 0.749080 0.811623
vertex 0.296432 0.744268 0.811623
endloop
endfacet
facet normal 0.027007 0.984330 -0.174255
outer loop
vertex 0.296432 0.744268 0.811623
vertex 0.296432 0.754398 0.868848
vertex 0.500000 0.749653 0.873593
endloop
endfacet
facet normal -0.005870 0.999924 0.010855
outer loop
vertex 0.500000 0.749080 0.811623
vertex 0.500000 0.749764 0.748617
vertex 0.296432 0.748556 0.749825
endloop
endfacet
facet normal -0.023577 0.997323 0.069210
outer loop
vertex 0.296432 0.748556 0.749825
vertex 0.296432 0.744268 0.811623
vertex 0.500000 0.749080 0.811623
endloop
endfacet
facet normal 0.039849 0.128816 -0.990867
outer loop
vertex 0.500000 0.937028 0.999882
vertex 0.296432 0.937028 0.991696
vertex 0.296432 1.000000 0.999882
endloop
endfacet
facet normal 0.000000 0.000000 -1.000000
outer loop
vertex 0.296432 1.000000 0.999882
vertex 0.500000 1.000000 0.999882
vertex 0.500000 0.937028 0.999882
endloop
endfacet
facet normal -0.062248 -0.157798 -0.985507
outer loop
vertex 0.500000 0.874005 0.988929
vertex 0.296432 0.885899 0.999882
vertex 0.296432 0.937028 0.991696
endloop
endfacet
facet normal 0.039591 0.171100 -0.984458
outer loop
vertex 0.296432 0.937028 0.991696
vertex 0.500000 0.937028 0.999882
vertex 0.500000 0.874005 0.988929
endloop
endfacet
facet normal 0.000001 0.000000 -1.000000
outer loop
vertex 0.296432 0.885899 0.999882
vertex 0.092864 0.863631 0.999882
vertex 0.092864 0.937028 0.999882
endloop
endfacet
facet normal -0.039679 -0.157980 -0.986645
outer loop
vertex 0.092864 0.937028 0.999882
vertex 0.296432 0.937028 0.991696
vertex 0.296432 0.885899 0.999882
endloop
endfacet
facet normal -0.182122 0.982181 0.046381
outer loop
vertex 0.296432 0.885899 0.999882
vertex 0.296432 0.888867 0.937028
vertex 0.092864 0.851120 0.937028
endloop
endfacet
facet normal -0.106670 0.975164 -0.194107
outer loop
vertex 0.092864 0.851120 0.937028
vertex 0.092864 0.863631 0.999882
vertex 0.296432 0.885899 0.999882
endloop
endfacet
facet normal 0.054843 0.996031 0.070104
outer loop
vertex 0.500000 0.874005 0.988929
vertex 0.500000 0.877658 0.937028
vertex 0.296432 0.888867 0.937028
endloop
endfacet
facet normal 0.060786 0.997040 0.047082
outer loop
vertex 0.296432 0.888867 0.937028
vertex 0.296432 0.885899 0.999882
vertex 0.500000 0.874005 0.988929
endloop
endfacet
facet normal 0.011476 0.998221 -0.058504
outer loop
vertex 0.500000 0.877658 0.937028
vertex 0.500000 0.873972 0.874139
vertex 0.296432 0.876183 0.871928
endloop
endfacet
facet normal 0.053966 0.980113 -0.190962
outer loop
vertex 0.296432 0.876183 0.871928
vertex 0.296432 0.888867 0.937028
vertex 0.500000 0.877658 0.937028
endloop
endfacet
facet normal 0.076987 0.996259 -0.039250
outer loop
vertex 0.500000 0.018191 0.062432
vertex 0.703568 0.002460 0.062433
vertex 0.703568 0.000000 -0.000000
endloop
endfacet
facet normal -0.000000 0.960078 -0.279733
outer loop
vertex 0.703568 0.000000 -0.000000
vertex 0.500000 0.000000 -0.000000
vertex 0.500000 0.018191 0.062432
endloop
endfacet
facet normal -0.023045 0.999108 -0.035370
outer loop
vertex 0.500000 -0.000025 0.124890
vertex 0.703568 0.004510 0.120355
vertex 0.703568 0.002460 0.062433
endloop
endfacet
facet normal 0.073982 0.957375 0.279214
outer loop
vertex 0.703568 0.002460 0.062433
vertex 0.500000 0.018191 0.062432
vertex 0.500000 -0.000025 0.124890
endloop
endfacet
facet normal 0.037143 0.990924 0.129188
outer loop
vertex 0.703568 0.004510 0.120355
vertex 0.907136 -0.004264 0.129129
vertex 0.907136 0.004431 0.062433
endloop
endfacet
facet normal -0.009678 0.999327 -0.035377
outer loop
vertex 0.907136 0.004431 0.062433
vertex 0.703568 0.002460 0.062433
vertex 0.703568 0.004510 0.120355
endloop
endfacet
facet normal 0.005602 0.999270 0.037785
outer loop
vertex 0.500000 0.497100 0.561893
vertex 0.296432 0.498241 0.561893
vertex 0.296432 0.495739 0.628047
endloop
endfacet
facet normal -0.017608 0.999279 -0.033634
outer loop
vertex 0.296432 0.495739 0.628047
vertex 0.500000 0.499210 0.624577
vertex 0.500000 0.497100 0.561893
endloop
endfacet
facet normal 0.058529 0.975120 0.213809
outer loop
vertex 0.500000 0.499782 0.499139
vertex 0.296432 0.515432 0.483489
vertex 0.296432 0.498241 0.561893
endloop
endfacet
facet normal 0.005601 0.999072 0.042703
outer loop
vertex 0.296432 0.498241 0.561893
vertex 0.500000 0.497100 0.561893
vertex 0.500000 0.499782 0.499139
endloop
endfacet
facet normal -0.057205 0.996985 -0.052418
outer loop
vertex 0.296432 0.515432 0.483489
vertex 0.092864 0.504335 0.494586
vertex 0.092864 0.507874 0.561893
endloop
endfacet
facet normal 0.046175 0.975753 0.213948
outer loop
vertex 0.092864 0.507874 0.561893
vertex 0.296432 0.498241 0.561893
vertex 0.296432 0.515432 0.483489
endloop
endfacet
facet normal 0.038261 -0.132569 -0.990435
outer loop
vertex 0.500000 0.437028 0.501847
vertex 0.296432 0.437028 0.493983
vertex 0.296432 0.515432 0.483489
endloop
endfacet
facet normal 0.073297 -0.042994 -0.996383
outer loop
vertex 0.296432 0.515432 0.483489
vertex 0.500000 0.499782 0.499139
vertex 0.500000 0.437028 0.501847
endloop
endfacet
facet normal -0.033944 -0.195841 -0.980048
outer loop
vertex 0.500000 0.374661 0.499395
vertex 0.296432 0.365849 0.508206
vertex 0.296432 0.437028 0.493983
endloop
endfacet
facet normal 0.038572 0.039253 -0.998485
outer loop
vertex 0.296432 0.437028 0.493983
vertex 0.500000 0.437028 0.501847
vertex 0.500000 0.374661 0.499395
endloop
endfacet
facet normal 0.109631 0.207776 -0.972014
outer loop
vertex 0.296432 0.365849 0.508206
vertex 0.092864 0.384766 0.489290
vertex 0.092864 0.437028 0.500462
endloop
endfacet
facet normal -0.031193 -0.195858 -0.980136
outer loop
vertex 0.092864 0.437028 0.500462
vertex 0.296432 0.437028 0.493983
vertex 0.296432 0.365849 0.508206
endloop
endfacet
facet normal -0.100867 0.990176 -0.096838
outer loop
vertex 0.500000 0.379625 0.437028
vertex 0.296432 0.358888 0.437028
vertex 0.296432 0.365849 0.508206
endloop
endfacet
facet normal -0.039683 0.996062 0.079284
outer loop
vertex 0.296432 0.365849 0.508206
vertex 0.500000 0.374661 0.499395
vertex 0.500000 0.379625 0.437028
endloop
endfacet
facet normal -0.029074 0.988161 0.150640
outer loop
vertex 0.500000 0.374359 0.374832
vertex 0.296432 0.367292 0.381898
vertex 0.296432 0.358888 0.437028
endloop
endfacet
facet normal -0.100986 0.991341 -0.083936
outer loop
vertex 0.296432 0.358888 0.437028
vertex 0.500000 0.379625 0.437028
vertex 0.500000 0.374359 0.374832
endloop
endfacet
facet normal -0.008200 0.978647 -0.205383
outer loop
vertex 0.296432 0.367292 0.381898
vertex 0.092864 0.365883 0.383308
vertex 0.092864 0.377157 0.437028
endloop
endfacet
facet normal 0.088369 0.984711 0.150116
outer loop
vertex 0.092864 0.377157 0.437028
vertex 0.296432 0.358888 0.437028
vertex 0.296432 0.367292 0.381898
endloop
endfacet
facet normal 0.036468 0.049940 -0.998086
outer loop
vertex 0.500000 0.312163 0.386578
vertex 0.296432 0.312163 0.379140
vertex 0.296432 0.367292 0.381898
endloop
endfacet
facet normal -0.027658 -0.185504 -0.982254
outer loop
vertex 0.296432 0.367292 0.381898
vertex 0.500000 0.374359 0.374832
vertex 0.500000 0.312163 0.386578
endloop
endfacet
facet normal 0.024256 0.153957 -0.987780
outer loop
vertex 0.500000 0.249892 0.374433
vertex 0.296432 0.254217 0.370108
vertex 0.296432 0.312163 0.379140
endloop
endfacet
facet normal 0.035839 0.191301 -0.980877
outer loop
vertex 0.296432 0.312163 0.379140
vertex 0.500000 0.312163 0.386578
vertex 0.500000 0.249892 0.374433
endloop
endfacet
facet normal -0.000963 -0.001173 -0.999999
outer loop
vertex 0.296432 0.254217 0.370108
vertex 0.092864 0.254021 0.370305
vertex 0.092864 0.312163 0.370237
endloop
endfacet
facet normal 0.043175 0.153858 -0.987149
outer loop
vertex 0.092864 0.312163 0.370237
vertex 0.296432 0.312163 0.379140
vertex 0.296432 0.254217 0.370108
endloop
endfacet
facet normal 0.087364 0.972476 0.216006
outer loop
vertex 0.500000 0.248800 0.312163
vertex 0.296432 0.267088 0.312163
vertex 0.296432 0.254217 0.370108
endloop
endfacet
facet normal 0.021609 0.999613 -0.017534
outer loop
vertex 0.296432 0.254217 0.370108
vertex 0.500000 0.249892 0.374433
vertex 0.500000 0.248800 0.312163
endloop
endfacet
facet normal 0.004960 0.967321 -0.253508
outer loop
vertex 0.500000 0.249692 0.249768
vertex 0.296432 0.250519 0.248941
vertex 0.296432 0.267088 0.312163
endloop
endfacet
facet normal 0.089467 0.995888 0.014239
outer loop
vertex 0.296432 0.267088 0.312163
vertex 0.500000 0.248800 0.312163
vertex 0.500000 0.249692 0.249768
endloop
endfacet
facet normal 0.023130 0.987943 0.153083
outer loop
vertex 0.296432 0.250519 0.248941
vertex 0.092864 0.256159 0.243301
vertex 0.092864 0.245489 0.312163
endloop
endfacet
facet normal -0.102099 0.962277 -0.252187
outer loop
vertex 0.092864 0.245489 0.312163
vertex 0.296432 0.267088 0.312163
vertex 0.296432 0.250519 0.248941
endloop
endfacet
facet normal 0.123202 0.199061 -0.972212
outer loop
vertex 0.500000 0.187298 0.261793
vertex 0.296432 0.187298 0.235996
vertex 0.296432 0.250519 0.248941
endloop
endfacet
facet normal 0.003221 -0.189242 -0.981925
outer loop
vertex 0.296432 0.250519 0.248941
vertex 0.500000 0.249692 0.249768
vertex 0.500000 0.187298 0.261793
endloop
endfacet
facet normal 0.012946 -0.172971 -0.984842
outer loop
vertex 0.500000 0.124978 0.249618
vertex 0.296432 0.128224 0.246372
vertex 0.296432 0.187298 0.235996
endloop
endfacet
facet normal 0.123421 0.190279 -0.973941
outer loop
vertex 0.296432 0.187298 0.235996
vertex 0.500000 0.187298 0.261793
vertex 0.500000 0.124978 0.249618
endloop
endfacet
facet normal -0.038878 0.052660 -0.997855
outer loop
vertex 0.296432 0.128224 0.246372
vertex 0.092864 0.120690 0.253905
vertex 0.092864 0.187298 0.257421
endloop
endfacet
facet normal -0.103104 -0.172064 -0.979675
outer loop
vertex 0.092864 0.187298 0.257421
vertex 0.296432 0.187298 0.235996
vertex 0.296432 0.128224 0.246372
endloop
endfacet
facet normal 0.011039 0.995536 -0.093730
outer loop
vertex 0.500000 0.120404 0.187298
vertex 0.296432 0.122662 0.187298
vertex 0.296432 0.128224 0.246372
endloop
endfacet
facet normal 0.017067 0.997173 -0.073174
outer loop
vertex 0.296432 0.128224 0.246372
vertex 0.500000 0.124978 0.249618
vertex 0.500000 0.120404 0.187298
endloop
endfacet
facet normal -0.094815 0.957070 -0.273910
outer loop
vertex 0.500000 0.124939 0.124791
vertex 0.296432 0.109260 0.140470
vertex 0.296432 0.122662 0.187298
endloop
endfacet
facet normal 0.011059 0.997317 0.072358
outer loop
vertex 0.296432 0.122662 0.187298
vertex 0.500000 0.120404 0.187298
vertex 0.500000 0.124939 0.124791
endloop
endfacet
facet normal 0.129488 0.991058 -0.032212
outer loop
vertex 0.296432 0.109260 0.140470
vertex 0.092864 0.135020 0.114710
vertex 0.092864 0.137379 0.187298
endloop
endfacet
facet normal 0.069341 0.959087 -0.274487
outer loop
vertex 0.092864 0.137379 0.187298
vertex 0.296432 0.122662 0.187298
vertex 0.296432 0.109260 0.140470
endloop
endfacet
facet normal -0.138726 0.137885 -0.980685
outer loop
vertex 0.500000 0.062433 0.105090
vertex 0.296432 0.062433 0.133886
vertex 0.296432 0.109260 0.140470
endloop
endfacet
facet normal -0.096167 0.299209 -0.949329
outer loop
vertex 0.296432 0.109260 0.140470
vertex 0.500000 0.124939 0.124791
vertex 0.500000 0.062433 0.105090
endloop
endfacet
facet normal 0.041775 0.274539 -0.960668
outer loop
vertex 0.500000 -0.000025 0.124890
vertex 0.296432 0.006860 0.118005
vertex 0.296432 0.062433 0.133886
endloop
endfacet
facet normal -0.133635 -0.299482 -0.944697
outer loop
vertex 0.296432 0.062433 0.133886
vertex 0.500000 0.062433 0.105090
vertex 0.500000 -0.000025 0.124890
endloop
endfacet
facet normal -0.058151 -0.088420 -0.994384
outer loop
vertex 0.296432 0.006860 0.118005
vertex 0.092864 -0.006206 0.131071
vertex 0.092864 0.062433 0.124968
endloop
endfacet
facet normal 0.042087 0.274535 -0.960656
outer loop
vertex 0.092864 0.062433 0.124968
vertex 0.296432 0.062433 0.133886
vertex 0.296432 0.006860 0.118005
endloop
endfacet
facet normal 0.067583 0.083234 -0.994236
outer loop
vertex 0.500000 0.811623 0.880361
vertex 0.296432 0.811623 0.866524
vertex 0.296432 0.876183 0.871928
endloop
endfacet
facet normal 0.009728 -0.099293 -0.995011
outer loop
vertex 0.296432 0.876183 0.871928
vertex 0.500000 0.873972 0.874139
vertex 0.500000 0.811623 0.880361
endloop
endfacet
facet normal 0.022341 -0.040577 -0.998927
outer loop
vertex 0.500000 0.749653 0.873593
vertex 0.296432 0.754398 0.868848
vertex 0.296432 0.811623 0.866524
endloop
endfacet
facet normal 0.067419 0.108315 -0.991828
outer loop
vertex 0.296432 0.811623 0.866524
vertex 0.500000 0.811623 0.880361
vertex 0.500000 0.749653 0.873593
endloop
endfacet
facet normal -0.106537 0.085703 -0.990608
outer loop
vertex 0.296432 0.754398 0.868848
vertex 0.092864 0.734248 0.888998
vertex 0.092864 0.811623 0.895692
endloop
endfacet
facet normal -0.141724 -0.040178 -0.989091
outer loop
vertex 0.092864 0.811623 0.895692
vertex 0.296432 0.811623 0.866524
vertex 0.296432 0.754398 0.868848
endloop
endfacet
facet normal 1.000000 0.000000 0.000000
outer loop
vertex 1.000000 0.325705 0.000000
vertex 1.000000 0.621566 0.000000
vertex 1.000000 0.621566 0.133134
endloop
endfacet
facet normal 1.000000 0.000000 0.000000
outer loop
vertex 1.000000 0.621566 0.133134
vertex 1.000000 0.325705 0.133134
vertex 1.000000 0.325705 0.000000
endloop
endfacet
facet normal -1.000000 -0.000000 -0.000000
outer loop
vertex 0.000000 0.621566 -0.000000
vertex 0.000000 0.325705 -0.000000
vertex 0.000000 0.325705 0.133134
endloop
endfacet
facet normal -1.000000 -0.000000 -0.000000
outer loop
vertex 0.000000 0.325705 0.133134
vertex 0.000000 0.621566 0.133134
vertex 0.000000 0.621566 -0.000000
endloop
endfacet
facet normal -0.000000 -0.000000 1.000000
outer loop
vertex 0.116691 1.000000 1.000000
vertex 0.116691 0.473636 1.000000
vertex 0.883309 0.473636 1.000000
endloop
endfacet
facet normal 0.000000 -0.000000 1.000000
outer loop
vertex 0.883309 0.473636 1.000000
vertex 0.883309 1.000000 1.000000
vertex 0.116691 1.000000 1.000000
endloop
endfacet
facet normal -0.000000 -0.000000 1.000000
outer loop
vertex 0.883309 0.473636 1.000000
vertex 0.116691 0.473636 1.000000
vertex 0.116691 -0.000000 1.000000
endloop
endfacet
facet normal -0.000000 -0.000000 1.000000
outer loop
vertex 0.116691 -0.000000 1.000000
vertex 0.883309 0.000000 1.000000
vertex 0.883309 0.473636 1.000000
endloop
endfacet
endsolid Exported from Blender-2.76 (sub 0)
