solid Exported from Blender-2.76 (sub 0)
facet normal 0.959446 -0.009925 -0.281719
outer loop
vertex 0.681825 0.220000 0.488904
vertex 0.680799 0.120847 0.488904
vertex 0.651263 0.120847 0.388315
endloop
endfacet
facet normal 0.959446 -0.009925 -0.281719
outer loop
vertex 0.651263 0.120847 0.388315
vertex 0.652126 0.220000 0.387761
vertex 0.681825 0.220000 0.488904
endloop
endfacet
facet normal 0.654829 -0.009925 -0.755712
outer loop
vertex 0.572034 0.120847 0.319663
vertex 0.572460 0.220000 0.318730
vertex 0.652126 0.220000 0.387761
endloop
endfacet
facet normal 0.654828 -0.009925 -0.755713
outer loop
vertex 0.652126 0.220000 0.387761
vertex 0.651263 0.120847 0.388315
vertex 0.572034 0.120847 0.319663
endloop
endfacet
facet normal 0.142308 -0.009925 -0.989773
outer loop
vertex 0.468266 0.120847 0.304743
vertex 0.468120 0.220000 0.303728
vertex 0.572460 0.220000 0.318730
endloop
endfacet
facet normal 0.142308 -0.009925 -0.989773
outer loop
vertex 0.572460 0.220000 0.318730
vertex 0.572034 0.120847 0.319663
vertex 0.468266 0.120847 0.304743
endloop
endfacet
facet normal -0.415394 -0.009924 -0.909587
outer loop
vertex 0.372905 0.120847 0.348293
vertex 0.372233 0.220000 0.347518
vertex 0.468120 0.220000 0.303728
endloop
endfacet
facet normal -0.415395 -0.009925 -0.909587
outer loop
vertex 0.468120 0.220000 0.303728
vertex 0.468266 0.120847 0.304743
vertex 0.372905 0.120847 0.348293
endloop
endfacet
facet normal -0.841212 -0.009925 -0.540614
outer loop
vertex 0.316227 0.120847 0.436486
vertex 0.315243 0.220000 0.436197
vertex 0.372233 0.220000 0.347518
endloop
endfacet
facet normal -0.841212 -0.009924 -0.540614
outer loop
vertex 0.372233 0.220000 0.347518
vertex 0.372905 0.120847 0.348293
vertex 0.316227 0.120847 0.436486
endloop
endfacet
facet normal -0.999951 -0.009925 0.000000
outer loop
vertex 0.316227 0.120847 0.541321
vertex 0.315243 0.220000 0.541610
vertex 0.315243 0.220000 0.436197
endloop
endfacet
facet normal -0.999951 -0.009925 0.000000
outer loop
vertex 0.315243 0.220000 0.436197
vertex 0.316227 0.120847 0.436486
vertex 0.316227 0.120847 0.541321
endloop
endfacet
facet normal -0.841212 -0.009925 0.540614
outer loop
vertex 0.372905 0.120847 0.629514
vertex 0.372233 0.220000 0.630289
vertex 0.315243 0.220000 0.541610
endloop
endfacet
facet normal -0.841212 -0.009924 0.540614
outer loop
vertex 0.315243 0.220000 0.541610
vertex 0.316227 0.120847 0.541321
vertex 0.372905 0.120847 0.629514
endloop
endfacet
facet normal -0.415394 -0.009925 0.909587
outer loop
vertex 0.468266 0.120847 0.673064
vertex 0.468120 0.220000 0.674079
vertex 0.372233 0.220000 0.630289
endloop
endfacet
facet normal -0.415394 -0.009924 0.909588
outer loop
vertex 0.372233 0.220000 0.630289
vertex 0.372905 0.120847 0.629514
vertex 0.468266 0.120847 0.673064
endloop
endfacet
facet normal 0.142307 -0.009925 0.989773
outer loop
vertex 0.572034 0.120847 0.658145
vertex 0.572460 0.220000 0.659078
vertex 0.468120 0.220000 0.674079
endloop
endfacet
facet normal 0.142307 -0.009925 0.989773
outer loop
vertex 0.468120 0.220000 0.674079
vertex 0.468266 0.120847 0.673064
vertex 0.572034 0.120847 0.658145
endloop
endfacet
facet normal 0.654829 -0.009924 0.755712
outer loop
vertex 0.651263 0.120847 0.589492
vertex 0.652126 0.220000 0.590047
vertex 0.572460 0.220000 0.659078
endloop
endfacet
facet normal 0.654829 -0.009925 0.755712
outer loop
vertex 0.572460 0.220000 0.659078
vertex 0.572034 0.120847 0.658145
vertex 0.651263 0.120847 0.589492
endloop
endfacet
facet normal 0.959446 -0.009924 0.281719
outer loop
vertex 0.680799 0.120847 0.488904
vertex 0.681825 0.220000 0.488904
vertex 0.652126 0.220000 0.590047
endloop
endfacet
facet normal 0.959446 -0.009925 0.281719
outer loop
vertex 0.652126 0.220000 0.590047
vertex 0.651263 0.120847 0.589492
vertex 0.680799 0.120847 0.488904
endloop
endfacet
facet normal 0.890143 -0.373271 -0.261370
outer loop
vertex 0.680799 0.120847 0.488904
vertex 0.649004 0.045024 0.488904
vertex 0.624515 0.045024 0.405505
endloop
endfacet
facet normal 0.890143 -0.373271 -0.261369
outer loop
vertex 0.624515 0.045024 0.405505
vertex 0.651263 0.120847 0.388315
vertex 0.680799 0.120847 0.488904
endloop
endfacet
facet normal 0.607529 -0.373270 -0.701126
outer loop
vertex 0.558826 0.045024 0.348585
vertex 0.572034 0.120847 0.319663
vertex 0.651263 0.120847 0.388315
endloop
endfacet
facet normal 0.607529 -0.373271 -0.701126
outer loop
vertex 0.651263 0.120847 0.388315
vertex 0.624515 0.045024 0.405505
vertex 0.558826 0.045024 0.348585
endloop
endfacet
facet normal 0.132029 -0.373271 -0.918279
outer loop
vertex 0.472791 0.045024 0.336215
vertex 0.468266 0.120847 0.304743
vertex 0.572034 0.120847 0.319663
endloop
endfacet
facet normal 0.132029 -0.373271 -0.918279
outer loop
vertex 0.572034 0.120847 0.319663
vertex 0.558826 0.045024 0.348585
vertex 0.472791 0.045024 0.336215
endloop
endfacet
facet normal -0.385390 -0.373271 -0.843886
outer loop
vertex 0.393726 0.045024 0.372322
vertex 0.372905 0.120847 0.348293
vertex 0.468266 0.120847 0.304743
endloop
endfacet
facet normal -0.385390 -0.373271 -0.843886
outer loop
vertex 0.468266 0.120847 0.304743
vertex 0.472791 0.045024 0.336215
vertex 0.393726 0.045024 0.372322
endloop
endfacet
facet normal -0.780450 -0.373271 -0.501564
outer loop
vertex 0.346734 0.045024 0.445444
vertex 0.316227 0.120847 0.436486
vertex 0.372905 0.120847 0.348293
endloop
endfacet
facet normal -0.780450 -0.373272 -0.501564
outer loop
vertex 0.372905 0.120847 0.348293
vertex 0.393726 0.045024 0.372322
vertex 0.346734 0.045024 0.445444
endloop
endfacet
facet normal -0.927722 -0.373271 -0.000000
outer loop
vertex 0.346734 0.045024 0.532363
vertex 0.316227 0.120847 0.541321
vertex 0.316227 0.120847 0.436486
endloop
endfacet
facet normal -0.927722 -0.373271 -0.000000
outer loop
vertex 0.316227 0.120847 0.436486
vertex 0.346734 0.045024 0.445444
vertex 0.346734 0.045024 0.532363
endloop
endfacet
facet normal -0.780450 -0.373271 0.501565
outer loop
vertex 0.393726 0.045024 0.605485
vertex 0.372905 0.120847 0.629514
vertex 0.316227 0.120847 0.541321
endloop
endfacet
facet normal -0.780450 -0.373271 0.501565
outer loop
vertex 0.316227 0.120847 0.541321
vertex 0.346734 0.045024 0.532363
vertex 0.393726 0.045024 0.605485
endloop
endfacet
facet normal -0.385390 -0.373271 0.843886
outer loop
vertex 0.472791 0.045024 0.641592
vertex 0.468266 0.120847 0.673064
vertex 0.372905 0.120847 0.629514
endloop
endfacet
facet normal -0.385389 -0.373271 0.843886
outer loop
vertex 0.372905 0.120847 0.629514
vertex 0.393726 0.045024 0.605485
vertex 0.472791 0.045024 0.641592
endloop
endfacet
facet normal 0.132029 -0.373271 0.918279
outer loop
vertex 0.558826 0.045024 0.629222
vertex 0.572034 0.120847 0.658145
vertex 0.468266 0.120847 0.673064
endloop
endfacet
facet normal 0.132029 -0.373271 0.918279
outer loop
vertex 0.468266 0.120847 0.673064
vertex 0.472791 0.045024 0.641592
vertex 0.558826 0.045024 0.629222
endloop
endfacet
facet normal 0.607530 -0.373271 0.701125
outer loop
vertex 0.624515 0.045024 0.572302
vertex 0.651263 0.120847 0.589492
vertex 0.572034 0.120847 0.658145
endloop
endfacet
facet normal 0.607529 -0.373272 0.701126
outer loop
vertex 0.572034 0.120847 0.658145
vertex 0.558826 0.045024 0.629222
vertex 0.624515 0.045024 0.572302
endloop
endfacet
facet normal 0.890143 -0.373270 0.261370
outer loop
vertex 0.649004 0.045024 0.488904
vertex 0.680799 0.120847 0.488904
vertex 0.651263 0.120847 0.589492
endloop
endfacet
facet normal 0.890143 -0.373271 0.261370
outer loop
vertex 0.651263 0.120847 0.589492
vertex 0.624515 0.045024 0.572302
vertex 0.649004 0.045024 0.488904
endloop
endfacet
facet normal 0.552229 -0.817772 -0.162149
outer loop
vertex 0.569294 0.000697 0.440994
vertex 0.624515 0.045024 0.405505
vertex 0.649004 0.045024 0.488904
endloop
endfacet
facet normal 0.552230 -0.817771 -0.162150
outer loop
vertex 0.649004 0.045024 0.488904
vertex 0.583361 0.000697 0.488904
vertex 0.569294 0.000697 0.440994
endloop
endfacet
facet normal 0.376900 -0.817772 -0.434966
outer loop
vertex 0.531557 0.000697 0.408295
vertex 0.558826 0.045024 0.348585
vertex 0.624515 0.045024 0.405505
endloop
endfacet
facet normal 0.376899 -0.817772 -0.434966
outer loop
vertex 0.624515 0.045024 0.405505
vertex 0.569294 0.000697 0.440994
vertex 0.531557 0.000697 0.408295
endloop
endfacet
facet normal 0.081908 -0.817772 -0.569684
outer loop
vertex 0.482133 0.000697 0.401189
vertex 0.472791 0.045024 0.336215
vertex 0.558826 0.045024 0.348585
endloop
endfacet
facet normal 0.081909 -0.817771 -0.569686
outer loop
vertex 0.558826 0.045024 0.348585
vertex 0.531557 0.000697 0.408295
vertex 0.482133 0.000697 0.401189
endloop
endfacet
facet normal -0.239089 -0.817772 -0.523532
outer loop
vertex 0.436713 0.000697 0.421931
vertex 0.393726 0.045024 0.372322
vertex 0.472791 0.045024 0.336215
endloop
endfacet
facet normal -0.239089 -0.817771 -0.523533
outer loop
vertex 0.472791 0.045024 0.336215
vertex 0.482133 0.000697 0.401189
vertex 0.436713 0.000697 0.421931
endloop
endfacet
facet normal -0.484178 -0.817772 -0.311162
outer loop
vertex 0.409717 0.000697 0.463937
vertex 0.346734 0.045024 0.445444
vertex 0.393726 0.045024 0.372322
endloop
endfacet
facet normal -0.484178 -0.817771 -0.311162
outer loop
vertex 0.393726 0.045024 0.372322
vertex 0.436713 0.000697 0.421931
vertex 0.409717 0.000697 0.463937
endloop
endfacet
facet normal -0.575543 -0.817772 -0.000000
outer loop
vertex 0.409717 0.000697 0.513870
vertex 0.346734 0.045024 0.532363
vertex 0.346734 0.045024 0.445444
endloop
endfacet
facet normal -0.575543 -0.817772 0.000000
outer loop
vertex 0.346734 0.045024 0.445444
vertex 0.409717 0.000697 0.463937
vertex 0.409717 0.000697 0.513870
endloop
endfacet
facet normal -0.484178 -0.817771 0.311162
outer loop
vertex 0.436713 0.000697 0.555876
vertex 0.393726 0.045024 0.605485
vertex 0.346734 0.045024 0.532363
endloop
endfacet
facet normal -0.484177 -0.817772 0.311162
outer loop
vertex 0.346734 0.045024 0.532363
vertex 0.409717 0.000697 0.513870
vertex 0.436713 0.000697 0.555876
endloop
endfacet
facet normal -0.239089 -0.817772 0.523532
outer loop
vertex 0.482133 0.000697 0.576618
vertex 0.472791 0.045024 0.641592
vertex 0.393726 0.045024 0.605485
endloop
endfacet
facet normal -0.239089 -0.817772 0.523533
outer loop
vertex 0.393726 0.045024 0.605485
vertex 0.436713 0.000697 0.555876
vertex 0.482133 0.000697 0.576618
endloop
endfacet
facet normal 0.081908 -0.817772 0.569684
outer loop
vertex 0.531557 0.000697 0.569512
vertex 0.558826 0.045024 0.629222
vertex 0.472791 0.045024 0.641592
endloop
endfacet
facet normal 0.081909 -0.817771 0.569685
outer loop
vertex 0.472791 0.045024 0.641592
vertex 0.482133 0.000697 0.576618
vertex 0.531557 0.000697 0.569512
endloop
endfacet
facet normal 0.376900 -0.817772 0.434966
outer loop
vertex 0.569294 0.000697 0.536813
vertex 0.624515 0.045024 0.572302
vertex 0.558826 0.045024 0.629222
endloop
endfacet
facet normal 0.376900 -0.817772 0.434966
outer loop
vertex 0.558826 0.045024 0.629222
vertex 0.531557 0.000697 0.569512
vertex 0.569294 0.000697 0.536813
endloop
endfacet
facet normal 0.552229 -0.817772 0.162149
outer loop
vertex 0.583361 0.000697 0.488904
vertex 0.649004 0.045024 0.488904
vertex 0.624515 0.045024 0.572302
endloop
endfacet
facet normal 0.552228 -0.817772 0.162149
outer loop
vertex 0.624515 0.045024 0.572302
vertex 0.569294 0.000697 0.536813
vertex 0.583361 0.000697 0.488904
endloop
endfacet
facet normal 0.903456 0.336742 -0.265279
outer loop
vertex 0.652126 0.220000 0.387761
vertex 0.630244 0.289787 0.401824
vertex 0.655813 0.289787 0.488904
endloop
endfacet
facet normal 0.903455 0.336744 -0.265279
outer loop
vertex 0.655813 0.289787 0.488904
vertex 0.681825 0.220000 0.488904
vertex 0.652126 0.220000 0.387761
endloop
endfacet
facet normal 0.616615 0.336744 -0.711611
outer loop
vertex 0.572460 0.220000 0.318730
vertex 0.561655 0.289787 0.342391
vertex 0.630244 0.289787 0.401824
endloop
endfacet
facet normal 0.616614 0.336743 -0.711611
outer loop
vertex 0.630244 0.289787 0.401824
vertex 0.652126 0.220000 0.387761
vertex 0.572460 0.220000 0.318730
endloop
endfacet
facet normal 0.134003 0.336743 -0.932013
outer loop
vertex 0.468120 0.220000 0.303728
vertex 0.471822 0.289787 0.329475
vertex 0.561655 0.289787 0.342391
endloop
endfacet
facet normal 0.134003 0.336743 -0.932012
outer loop
vertex 0.561655 0.289787 0.342391
vertex 0.572460 0.220000 0.318730
vertex 0.468120 0.220000 0.303728
endloop
endfacet
facet normal -0.391153 0.336743 -0.856507
outer loop
vertex 0.372233 0.220000 0.347518
vertex 0.389267 0.289787 0.367176
vertex 0.471822 0.289787 0.329475
endloop
endfacet
facet normal -0.391154 0.336743 -0.856506
outer loop
vertex 0.471822 0.289787 0.329475
vertex 0.468120 0.220000 0.303728
vertex 0.372233 0.220000 0.347518
endloop
endfacet
facet normal -0.792121 0.336743 -0.509065
outer loop
vertex 0.315243 0.220000 0.436197
vertex 0.340201 0.289787 0.443525
vertex 0.389267 0.289787 0.367176
endloop
endfacet
facet normal -0.792121 0.336742 -0.509066
outer loop
vertex 0.389267 0.289787 0.367176
vertex 0.372233 0.220000 0.347518
vertex 0.315243 0.220000 0.436197
endloop
endfacet
facet normal -0.941597 0.336742 0.000000
outer loop
vertex 0.315243 0.220000 0.541610
vertex 0.340201 0.289787 0.534282
vertex 0.340201 0.289787 0.443525
endloop
endfacet
facet normal -0.941597 0.336743 0.000000
outer loop
vertex 0.340201 0.289787 0.443525
vertex 0.315243 0.220000 0.436197
vertex 0.315243 0.220000 0.541610
endloop
endfacet
facet normal -0.792121 0.336744 0.509066
outer loop
vertex 0.372233 0.220000 0.630289
vertex 0.389267 0.289787 0.610631
vertex 0.340201 0.289787 0.534282
endloop
endfacet
facet normal -0.792122 0.336743 0.509066
outer loop
vertex 0.340201 0.289787 0.534282
vertex 0.315243 0.220000 0.541610
vertex 0.372233 0.220000 0.630289
endloop
endfacet
facet normal -0.391153 0.336742 0.856507
outer loop
vertex 0.468120 0.220000 0.674079
vertex 0.471822 0.289787 0.648332
vertex 0.389267 0.289787 0.610631
endloop
endfacet
facet normal -0.391154 0.336743 0.856506
outer loop
vertex 0.389267 0.289787 0.610631
vertex 0.372233 0.220000 0.630289
vertex 0.468120 0.220000 0.674079
endloop
endfacet
facet normal 0.134001 0.336743 0.932013
outer loop
vertex 0.572460 0.220000 0.659078
vertex 0.561655 0.289787 0.635416
vertex 0.471822 0.289787 0.648332
endloop
endfacet
facet normal 0.134004 0.336743 0.932012
outer loop
vertex 0.471822 0.289787 0.648332
vertex 0.468120 0.220000 0.674079
vertex 0.572460 0.220000 0.659078
endloop
endfacet
facet normal 0.616615 0.336743 0.711611
outer loop
vertex 0.652126 0.220000 0.590047
vertex 0.630244 0.289787 0.575984
vertex 0.561655 0.289787 0.635416
endloop
endfacet
facet normal 0.616615 0.336743 0.711611
outer loop
vertex 0.561655 0.289787 0.635416
vertex 0.572460 0.220000 0.659078
vertex 0.652126 0.220000 0.590047
endloop
endfacet
facet normal 0.903456 0.336742 0.265279
outer loop
vertex 0.681825 0.220000 0.488904
vertex 0.655813 0.289787 0.488904
vertex 0.630244 0.289787 0.575984
endloop
endfacet
facet normal 0.903456 0.336742 0.265279
outer loop
vertex 0.630244 0.289787 0.575984
vertex 0.652126 0.220000 0.590047
vertex 0.681825 0.220000 0.488904
endloop
endfacet
facet normal 0.827844 0.505557 -0.243076
outer loop
vertex 0.584633 0.345395 0.431136
vertex 0.562885 0.387727 0.445113
vertex 0.575743 0.387727 0.488904
endloop
endfacet
facet normal 0.827844 0.505557 -0.243077
outer loop
vertex 0.575743 0.387727 0.488904
vertex 0.601595 0.345395 0.488904
vertex 0.584633 0.345395 0.431136
endloop
endfacet
facet normal 0.565011 0.505557 -0.652054
outer loop
vertex 0.539132 0.345395 0.391709
vertex 0.528392 0.387727 0.415225
vertex 0.562885 0.387727 0.445113
endloop
endfacet
facet normal 0.565010 0.505556 -0.652056
outer loop
vertex 0.562885 0.387727 0.445113
vertex 0.584633 0.345395 0.431136
vertex 0.539132 0.345395 0.391709
endloop
endfacet
facet normal 0.122788 0.505557 -0.854011
outer loop
vertex 0.479538 0.345395 0.383141
vertex 0.483217 0.387727 0.408730
vertex 0.528392 0.387727 0.415225
endloop
endfacet
facet normal 0.122789 0.505554 -0.854013
outer loop
vertex 0.528392 0.387727 0.415225
vertex 0.539132 0.345395 0.391709
vertex 0.479538 0.345395 0.383141
endloop
endfacet
facet normal -0.358416 0.505556 -0.784825
outer loop
vertex 0.424773 0.345395 0.408152
vertex 0.441702 0.387727 0.427689
vertex 0.483217 0.387727 0.408730
endloop
endfacet
facet normal -0.358417 0.505556 -0.784825
outer loop
vertex 0.483217 0.387727 0.408730
vertex 0.479538 0.345395 0.383141
vertex 0.424773 0.345395 0.408152
endloop
endfacet
facet normal -0.725829 0.505555 -0.466462
outer loop
vertex 0.392222 0.345395 0.458800
vertex 0.417027 0.387727 0.466084
vertex 0.441702 0.387727 0.427689
endloop
endfacet
facet normal -0.725828 0.505557 -0.466461
outer loop
vertex 0.441702 0.387727 0.427689
vertex 0.424773 0.345395 0.408152
vertex 0.392222 0.345395 0.458800
endloop
endfacet
facet normal -0.862794 0.505556 -0.000000
outer loop
vertex 0.392222 0.345395 0.519007
vertex 0.417027 0.387727 0.511723
vertex 0.417027 0.387727 0.466084
endloop
endfacet
facet normal -0.862794 0.505556 0.000000
outer loop
vertex 0.417027 0.387727 0.466084
vertex 0.392222 0.345395 0.458800
vertex 0.392222 0.345395 0.519007
endloop
endfacet
facet normal -0.725830 0.505555 0.466460
outer loop
vertex 0.424773 0.345395 0.569656
vertex 0.441702 0.387727 0.550118
vertex 0.417027 0.387727 0.511723
endloop
endfacet
facet normal -0.725828 0.505556 0.466462
outer loop
vertex 0.417027 0.387727 0.511723
vertex 0.392222 0.345395 0.519007
vertex 0.424773 0.345395 0.569656
endloop
endfacet
facet normal -0.358418 0.505556 0.784825
outer loop
vertex 0.479538 0.345395 0.594666
vertex 0.483217 0.387727 0.569077
vertex 0.441702 0.387727 0.550118
endloop
endfacet
facet normal -0.358416 0.505557 0.784825
outer loop
vertex 0.441702 0.387727 0.550118
vertex 0.424773 0.345395 0.569656
vertex 0.479538 0.345395 0.594666
endloop
endfacet
facet normal 0.122786 0.505556 0.854012
outer loop
vertex 0.539132 0.345395 0.586098
vertex 0.528392 0.387727 0.562582
vertex 0.483217 0.387727 0.569077
endloop
endfacet
facet normal 0.122789 0.505557 0.854011
outer loop
vertex 0.483217 0.387727 0.569077
vertex 0.479538 0.345395 0.594666
vertex 0.539132 0.345395 0.586098
endloop
endfacet
facet normal 0.565010 0.505554 0.652057
outer loop
vertex 0.584633 0.345395 0.546671
vertex 0.562885 0.387727 0.532695
vertex 0.528392 0.387727 0.562582
endloop
endfacet
facet normal 0.565010 0.505556 0.652056
outer loop
vertex 0.528392 0.387727 0.562582
vertex 0.539132 0.345395 0.586098
vertex 0.584633 0.345395 0.546671
endloop
endfacet
facet normal 0.827845 0.505556 0.243076
outer loop
vertex 0.601595 0.345395 0.488904
vertex 0.575743 0.387727 0.488904
vertex 0.562885 0.387727 0.532695
endloop
endfacet
facet normal 0.827846 0.505553 0.243078
outer loop
vertex 0.562885 0.387727 0.532695
vertex 0.584633 0.345395 0.546671
vertex 0.601595 0.345395 0.488904
endloop
endfacet
facet normal 0.305134 -0.948085 -0.089596
outer loop
vertex 0.556784 0.431236 0.449033
vertex 0.572916 0.437408 0.438666
vertex 0.587667 0.437408 0.488904
endloop
endfacet
facet normal 0.305133 -0.948086 -0.089593
outer loop
vertex 0.587667 0.437408 0.488904
vertex 0.568491 0.431236 0.488904
vertex 0.556784 0.431236 0.449033
endloop
endfacet
facet normal 0.208256 -0.948085 -0.240342
outer loop
vertex 0.525380 0.431236 0.421821
vertex 0.533346 0.437408 0.404378
vertex 0.572916 0.437408 0.438666
endloop
endfacet
facet normal 0.208256 -0.948085 -0.240340
outer loop
vertex 0.572916 0.437408 0.438666
vertex 0.556784 0.431236 0.449033
vertex 0.525380 0.431236 0.421821
endloop
endfacet
facet normal 0.045259 -0.948086 -0.314778
outer loop
vertex 0.484249 0.431236 0.415907
vertex 0.481520 0.437408 0.396927
vertex 0.533346 0.437408 0.404378
endloop
endfacet
facet normal 0.045259 -0.948087 -0.314774
outer loop
vertex 0.533346 0.437408 0.404378
vertex 0.525380 0.431236 0.421821
vertex 0.484249 0.431236 0.415907
endloop
endfacet
facet normal -0.132108 -0.948085 -0.289278
outer loop
vertex 0.446451 0.431236 0.433169
vertex 0.433893 0.437408 0.418677
vertex 0.481520 0.437408 0.396927
endloop
endfacet
facet normal -0.132108 -0.948085 -0.289279
outer loop
vertex 0.481520 0.437408 0.396927
vertex 0.484249 0.431236 0.415907
vertex 0.446451 0.431236 0.433169
endloop
endfacet
facet normal -0.267530 -0.948086 -0.171932
outer loop
vertex 0.423985 0.431236 0.468127
vertex 0.405586 0.437408 0.462724
vertex 0.433893 0.437408 0.418677
endloop
endfacet
facet normal -0.267533 -0.948085 -0.171932
outer loop
vertex 0.433893 0.437408 0.418677
vertex 0.446451 0.431236 0.433169
vertex 0.423985 0.431236 0.468127
endloop
endfacet
facet normal -0.318016 -0.948085 0.000000
outer loop
vertex 0.423985 0.431236 0.509680
vertex 0.405586 0.437408 0.515083
vertex 0.405586 0.437408 0.462724
endloop
endfacet
facet normal -0.318016 -0.948085 -0.000000
outer loop
vertex 0.405586 0.437408 0.462724
vertex 0.423985 0.431236 0.468127
vertex 0.423985 0.431236 0.509680
endloop
endfacet
facet normal -0.267532 -0.948085 0.171933
outer loop
vertex 0.446451 0.431236 0.544638
vertex 0.433893 0.437408 0.559130
vertex 0.405586 0.437408 0.515083
endloop
endfacet
facet normal -0.267533 -0.948085 0.171932
outer loop
vertex 0.405586 0.437408 0.515083
vertex 0.423985 0.431236 0.509680
vertex 0.446451 0.431236 0.544638
endloop
endfacet
facet normal -0.132109 -0.948085 0.289279
outer loop
vertex 0.484249 0.431236 0.561900
vertex 0.481520 0.437408 0.580881
vertex 0.433893 0.437408 0.559130
endloop
endfacet
facet normal -0.132109 -0.948086 0.289276
outer loop
vertex 0.433893 0.437408 0.559130
vertex 0.446451 0.431236 0.544638
vertex 0.484249 0.431236 0.561900
endloop
endfacet
facet normal 0.045259 -0.948085 0.314781
outer loop
vertex 0.525380 0.431236 0.555986
vertex 0.533346 0.437408 0.573429
vertex 0.481520 0.437408 0.580881
endloop
endfacet
facet normal 0.045258 -0.948087 0.314775
outer loop
vertex 0.481520 0.437408 0.580881
vertex 0.484249 0.431236 0.561900
vertex 0.525380 0.431236 0.555986
endloop
endfacet
facet normal 0.208256 -0.948085 0.240343
outer loop
vertex 0.556784 0.431236 0.528774
vertex 0.572916 0.437408 0.539141
vertex 0.533346 0.437408 0.573429
endloop
endfacet
facet normal 0.208255 -0.948086 0.240339
outer loop
vertex 0.533346 0.437408 0.573429
vertex 0.525380 0.431236 0.555986
vertex 0.556784 0.431236 0.528774
endloop
endfacet
facet normal 0.305134 -0.948085 0.089595
outer loop
vertex 0.568491 0.431236 0.488904
vertex 0.587667 0.437408 0.488904
vertex 0.572916 0.437408 0.539141
endloop
endfacet
facet normal 0.305133 -0.948086 0.089595
outer loop
vertex 0.572916 0.437408 0.539141
vertex 0.556784 0.431236 0.528774
vertex 0.568491 0.431236 0.488904
endloop
endfacet
facet normal 0.959493 0.000000 -0.281732
outer loop
vertex 0.572916 0.437408 0.438666
vertex 0.572916 0.453381 0.438666
vertex 0.587667 0.453381 0.488904
endloop
endfacet
facet normal 0.959493 0.000000 -0.281731
outer loop
vertex 0.587667 0.453381 0.488904
vertex 0.587667 0.437408 0.488904
vertex 0.572916 0.437408 0.438666
endloop
endfacet
facet normal 0.654862 0.000000 -0.755749
outer loop
vertex 0.533346 0.437408 0.404378
vertex 0.533346 0.453381 0.404378
vertex 0.572916 0.453381 0.438666
endloop
endfacet
facet normal 0.654861 0.000000 -0.755749
outer loop
vertex 0.572916 0.453381 0.438666
vertex 0.572916 0.437408 0.438666
vertex 0.533346 0.437408 0.404378
endloop
endfacet
facet normal 0.142316 0.000002 -0.989821
outer loop
vertex 0.481520 0.437408 0.396927
vertex 0.481520 0.453381 0.396927
vertex 0.533346 0.453381 0.404378
endloop
endfacet
facet normal 0.142315 0.000000 -0.989821
outer loop
vertex 0.533346 0.453381 0.404378
vertex 0.533346 0.437408 0.404378
vertex 0.481520 0.437408 0.396927
endloop
endfacet
facet normal -0.415413 0.000000 -0.909633
outer loop
vertex 0.433893 0.437408 0.418677
vertex 0.433893 0.453381 0.418677
vertex 0.481520 0.453381 0.396927
endloop
endfacet
facet normal -0.415417 0.000002 -0.909631
outer loop
vertex 0.481520 0.453381 0.396927
vertex 0.481520 0.437408 0.396927
vertex 0.433893 0.437408 0.418677
endloop
endfacet
facet normal -0.841252 0.000000 -0.540643
outer loop
vertex 0.405586 0.437408 0.462724
vertex 0.405586 0.453381 0.462724
vertex 0.433893 0.453381 0.418677
endloop
endfacet
facet normal -0.841253 0.000000 -0.540641
outer loop
vertex 0.433893 0.453381 0.418677
vertex 0.433893 0.437408 0.418677
vertex 0.405586 0.437408 0.462724
endloop
endfacet
facet normal -1.000000 0.000000 0.000000
outer loop
vertex 0.405586 0.437408 0.515083
vertex 0.405586 0.453381 0.515083
vertex 0.405586 0.453381 0.462724
endloop
endfacet
facet normal -1.000000 0.000000 0.000000
outer loop
vertex 0.405586 0.453381 0.462724
vertex 0.405586 0.437408 0.462724
vertex 0.405586 0.437408 0.515083
endloop
endfacet
facet normal -0.841254 0.000000 0.540640
outer loop
vertex 0.433893 0.437408 0.559130
vertex 0.433893 0.453381 0.559130
vertex 0.405586 0.453381 0.515083
endloop
endfacet
facet normal -0.841253 0.000000 0.540641
outer loop
vertex 0.405586 0.453381 0.515083
vertex 0.405586 0.437408 0.515083
vertex 0.433893 0.437408 0.559130
endloop
endfacet
facet normal -0.415414 0.000000 0.909632
outer loop
vertex 0.481520 0.437408 0.580881
vertex 0.481520 0.453381 0.580881
vertex 0.433893 0.453381 0.559130
endloop
endfacet
facet normal -0.415418 -0.000002 0.909631
outer loop
vertex 0.433893 0.453381 0.559130
vertex 0.433893 0.437408 0.559130
vertex 0.481520 0.437408 0.580881
endloop
endfacet
facet normal 0.142315 0.000000 0.989821
outer loop
vertex 0.533346 0.437408 0.573429
vertex 0.533346 0.453381 0.573429
vertex 0.481520 0.453381 0.580881
endloop
endfacet
facet normal 0.142313 0.000000 0.989822
outer loop
vertex 0.481520 0.453381 0.580881
vertex 0.481520 0.437408 0.580881
vertex 0.533346 0.437408 0.573429
endloop
endfacet
facet normal 0.654862 0.000000 0.755748
outer loop
vertex 0.572916 0.437408 0.539141
vertex 0.572916 0.453381 0.539141
vertex 0.533346 0.453381 0.573429
endloop
endfacet
facet normal 0.654861 0.000000 0.755749
outer loop
vertex 0.533346 0.453381 0.573429
vertex 0.533346 0.437408 0.573429
vertex 0.572916 0.437408 0.539141
endloop
endfacet
facet normal 0.959493 0.000000 0.281733
outer loop
vertex 0.587667 0.437408 0.488904
vertex 0.587667 0.453381 0.488904
vertex 0.572916 0.453381 0.539141
endloop
endfacet
facet normal 0.959493 0.000000 0.281733
outer loop
vertex 0.572916 0.453381 0.539141
vertex 0.572916 0.437408 0.539141
vertex 0.587667 0.437408 0.488904
endloop
endfacet
facet normal 0.149699 0.987754 -0.043956
outer loop
vertex 0.572916 0.453381 0.438666
vertex 0.560017 0.455705 0.446956
vertex 0.572334 0.455705 0.488904
endloop
endfacet
facet normal 0.149700 0.987754 -0.043956
outer loop
vertex 0.572334 0.455705 0.488904
vertex 0.587667 0.453381 0.488904
vertex 0.572916 0.453381 0.438666
endloop
endfacet
facet normal 0.102172 0.987754 -0.117912
outer loop
vertex 0.533346 0.453381 0.404378
vertex 0.526976 0.455705 0.418326
vertex 0.560017 0.455705 0.446956
endloop
endfacet
facet normal 0.102170 0.987754 -0.117910
outer loop
vertex 0.560017 0.455705 0.446956
vertex 0.572916 0.453381 0.438666
vertex 0.533346 0.453381 0.404378
endloop
endfacet
facet normal 0.022204 0.987754 -0.154433
outer loop
vertex 0.481520 0.453381 0.396927
vertex 0.483702 0.455705 0.412104
vertex 0.526976 0.455705 0.418326
endloop
endfacet
facet normal 0.022204 0.987753 -0.154435
outer loop
vertex 0.526976 0.455705 0.418326
vertex 0.533346 0.453381 0.404378
vertex 0.481520 0.453381 0.396927
endloop
endfacet
facet normal -0.064813 0.987754 -0.141922
outer loop
vertex 0.433893 0.453381 0.418677
vertex 0.443934 0.455705 0.430265
vertex 0.483702 0.455705 0.412104
endloop
endfacet
facet normal -0.064813 0.987754 -0.141920
outer loop
vertex 0.483702 0.455705 0.412104
vertex 0.481520 0.453381 0.396927
vertex 0.433893 0.453381 0.418677
endloop
endfacet
facet normal -0.131252 0.987754 -0.084351
outer loop
vertex 0.405586 0.453381 0.462724
vertex 0.420298 0.455705 0.467044
vertex 0.443934 0.455705 0.430265
endloop
endfacet
facet normal -0.131251 0.987754 -0.084349
outer loop
vertex 0.443934 0.455705 0.430265
vertex 0.433893 0.453381 0.418677
vertex 0.405586 0.453381 0.462724
endloop
endfacet
facet normal -0.156019 0.987754 -0.000000
outer loop
vertex 0.405586 0.453381 0.515083
vertex 0.420298 0.455705 0.510763
vertex 0.420298 0.455705 0.467044
endloop
endfacet
facet normal -0.156020 0.987754 0.000000
outer loop
vertex 0.420298 0.455705 0.467044
vertex 0.405586 0.453381 0.462724
vertex 0.405586 0.453381 0.515083
endloop
endfacet
facet normal -0.131252 0.987754 0.084351
outer loop
vertex 0.433893 0.453381 0.559130
vertex 0.443934 0.455705 0.547542
vertex 0.420298 0.455705 0.510763
endloop
endfacet
facet normal -0.131252 0.987754 0.084351
outer loop
vertex 0.420298 0.455705 0.510763
vertex 0.405586 0.453381 0.515083
vertex 0.433893 0.453381 0.559130
endloop
endfacet
facet normal -0.064812 0.987755 0.141916
outer loop
vertex 0.481520 0.453381 0.580881
vertex 0.483702 0.455705 0.565703
vertex 0.443934 0.455705 0.547542
endloop
endfacet
facet normal -0.064813 0.987753 0.141924
outer loop
vertex 0.443934 0.455705 0.547542
vertex 0.433893 0.453381 0.559130
vertex 0.481520 0.453381 0.580881
endloop
endfacet
facet normal 0.022204 0.987755 0.154428
outer loop
vertex 0.533346 0.453381 0.573429
vertex 0.526976 0.455705 0.559481
vertex 0.483702 0.455705 0.565703
endloop
endfacet
facet normal 0.022204 0.987754 0.154434
outer loop
vertex 0.483702 0.455705 0.565703
vertex 0.481520 0.453381 0.580881
vertex 0.533346 0.453381 0.573429
endloop
endfacet
facet normal 0.102171 0.987754 0.117909
outer loop
vertex 0.572916 0.453381 0.539141
vertex 0.560017 0.455705 0.530852
vertex 0.526976 0.455705 0.559481
endloop
endfacet
facet normal 0.102172 0.987753 0.117916
outer loop
vertex 0.526976 0.455705 0.559481
vertex 0.533346 0.453381 0.573429
vertex 0.572916 0.453381 0.539141
endloop
endfacet
facet normal 0.149700 0.987754 0.043956
outer loop
vertex 0.587667 0.453381 0.488904
vertex 0.572334 0.455705 0.488904
vertex 0.560017 0.455705 0.530852
endloop
endfacet
facet normal 0.149699 0.987754 0.043956
outer loop
vertex 0.560017 0.455705 0.530852
vertex 0.572916 0.453381 0.539141
vertex 0.587667 0.453381 0.488904
endloop
endfacet
facet normal 0.856529 0.450673 -0.251501
outer loop
vertex 0.560017 0.455705 0.446956
vertex 0.556942 0.462651 0.448932
vertex 0.568679 0.462651 0.488904
endloop
endfacet
facet normal 0.856532 0.450668 -0.251498
outer loop
vertex 0.568679 0.462651 0.488904
vertex 0.572334 0.455705 0.488904
vertex 0.560017 0.455705 0.446956
endloop
endfacet
facet normal 0.584589 0.450669 -0.674650
outer loop
vertex 0.526976 0.455705 0.418326
vertex 0.525458 0.462651 0.421650
vertex 0.556942 0.462651 0.448932
endloop
endfacet
facet normal 0.584591 0.450658 -0.674656
outer loop
vertex 0.556942 0.462651 0.448932
vertex 0.560017 0.455705 0.446956
vertex 0.526976 0.455705 0.418326
endloop
endfacet
facet normal 0.127045 0.450666 -0.883606
outer loop
vertex 0.483702 0.455705 0.412104
vertex 0.484223 0.462651 0.415721
vertex 0.525458 0.462651 0.421650
endloop
endfacet
facet normal 0.127044 0.450664 -0.883607
outer loop
vertex 0.525458 0.462651 0.421650
vertex 0.526976 0.455705 0.418326
vertex 0.483702 0.455705 0.412104
endloop
endfacet
facet normal -0.370834 0.450660 -0.812027
outer loop
vertex 0.443934 0.455705 0.430265
vertex 0.446328 0.462651 0.433027
vertex 0.484223 0.462651 0.415721
endloop
endfacet
facet normal -0.370839 0.450663 -0.812023
outer loop
vertex 0.484223 0.462651 0.415721
vertex 0.483702 0.455705 0.412104
vertex 0.443934 0.455705 0.430265
endloop
endfacet
facet normal -0.750982 0.450662 -0.482628
outer loop
vertex 0.420298 0.455705 0.467044
vertex 0.423805 0.462651 0.468074
vertex 0.446328 0.462651 0.433027
endloop
endfacet
facet normal -0.750983 0.450659 -0.482629
outer loop
vertex 0.446328 0.462651 0.433027
vertex 0.443934 0.455705 0.430265
vertex 0.420298 0.455705 0.467044
endloop
endfacet
facet normal -0.892699 0.450653 -0.000000
outer loop
vertex 0.420298 0.455705 0.510763
vertex 0.423805 0.462651 0.509733
vertex 0.423805 0.462651 0.468074
endloop
endfacet
facet normal -0.892696 0.450660 -0.000001
outer loop
vertex 0.423805 0.462651 0.468074
vertex 0.420298 0.455705 0.467044
vertex 0.420298 0.455705 0.510763
endloop
endfacet
facet normal -0.750984 0.450658 0.482629
outer loop
vertex 0.443934 0.455705 0.547542
vertex 0.446328 0.462651 0.544780
vertex 0.423805 0.462651 0.509733
endloop
endfacet
facet normal -0.750979 0.450668 0.482628
outer loop
vertex 0.423805 0.462651 0.509733
vertex 0.420298 0.455705 0.510763
vertex 0.443934 0.455705 0.547542
endloop
endfacet
facet normal -0.370841 0.450664 0.812022
outer loop
vertex 0.483702 0.455705 0.565703
vertex 0.484223 0.462651 0.562086
vertex 0.446328 0.462651 0.544780
endloop
endfacet
facet normal -0.370835 0.450664 0.812025
outer loop
vertex 0.446328 0.462651 0.544780
vertex 0.443934 0.455705 0.547542
vertex 0.483702 0.455705 0.565703
endloop
endfacet
facet normal 0.127043 0.450663 0.883608
outer loop
vertex 0.526976 0.455705 0.559481
vertex 0.525458 0.462651 0.556157
vertex 0.484223 0.462651 0.562086
endloop
endfacet
facet normal 0.127042 0.450658 0.883611
outer loop
vertex 0.484223 0.462651 0.562086
vertex 0.483702 0.455705 0.565703
vertex 0.526976 0.455705 0.559481
endloop
endfacet
facet normal 0.584594 0.450666 0.674648
outer loop
vertex 0.560017 0.455705 0.530852
vertex 0.556942 0.462651 0.528876
vertex 0.525458 0.462651 0.556157
endloop
endfacet
facet normal 0.584591 0.450662 0.674654
outer loop
vertex 0.525458 0.462651 0.556157
vertex 0.526976 0.455705 0.559481
vertex 0.560017 0.455705 0.530852
endloop
endfacet
facet normal 0.856534 0.450664 0.251499
outer loop
vertex 0.572334 0.455705 0.488904
vertex 0.568679 0.462651 0.488904
vertex 0.556942 0.462651 0.528876
endloop
endfacet
facet normal 0.856527 0.450677 0.251500
outer loop
vertex 0.556942 0.462651 0.528876
vertex 0.560017 0.455705 0.530852
vertex 0.572334 0.455705 0.488904
endloop
endfacet
facet normal 0.000000 1.000000 0.000003
outer loop
vertex 0.556942 0.462651 0.448932
vertex 0.548620 0.462651 0.454280
vertex 0.558787 0.462651 0.488904
endloop
endfacet
facet normal 0.000000 1.000000 0.000000
outer loop
vertex 0.558787 0.462651 0.488904
vertex 0.568679 0.462651 0.488904
vertex 0.556942 0.462651 0.448932
endloop
endfacet
facet normal 0.000000 1.000000 0.000000
outer loop
vertex 0.525458 0.462651 0.421650
vertex 0.521349 0.462651 0.430649
vertex 0.548620 0.462651 0.454280
endloop
endfacet
facet normal 0.000000 1.000000 0.000000
outer loop
vertex 0.548620 0.462651 0.454280
vertex 0.556942 0.462651 0.448932
vertex 0.525458 0.462651 0.421650
endloop
endfacet
facet normal 0.000000 1.000000 0.000011
outer loop
vertex 0.484223 0.462651 0.415721
vertex 0.485630 0.462651 0.425513
vertex 0.521349 0.462651 0.430649
endloop
endfacet
facet normal 0.000000 1.000000 -0.000009
outer loop
vertex 0.521349 0.462651 0.430649
vertex 0.525458 0.462651 0.421650
vertex 0.484223 0.462651 0.415721
endloop
endfacet
facet normal 0.000000 1.000000 0.000000
outer loop
vertex 0.446328 0.462651 0.433027
vertex 0.452806 0.462651 0.440504
vertex 0.485630 0.462651 0.425513
endloop
endfacet
facet normal 0.000000 1.000000 0.000000
outer loop
vertex 0.485630 0.462651 0.425513
vertex 0.484223 0.462651 0.415721
vertex 0.446328 0.462651 0.433027
endloop
endfacet
facet normal 0.000000 1.000000 -0.000005
outer loop
vertex 0.423805 0.462651 0.468074
vertex 0.433297 0.462651 0.470861
vertex 0.452806 0.462651 0.440504
endloop
endfacet
facet normal 0.000000 1.000000 0.000005
outer loop
vertex 0.452806 0.462651 0.440504
vertex 0.446328 0.462651 0.433027
vertex 0.423805 0.462651 0.468074
endloop
endfacet
facet normal 0.000000 1.000000 0.000001
outer loop
vertex 0.423805 0.462651 0.509733
vertex 0.433297 0.462651 0.506946
vertex 0.433297 0.462651 0.470861
endloop
endfacet
facet normal 0.000000 1.000000 -0.000001
outer loop
vertex 0.433297 0.462651 0.470861
vertex 0.423805 0.462651 0.468074
vertex 0.423805 0.462651 0.509733
endloop
endfacet
facet normal 0.000000 1.000000 0.000000
outer loop
vertex 0.446328 0.462651 0.544780
vertex 0.452806 0.462651 0.537303
vertex 0.433297 0.462651 0.506946
endloop
endfacet
facet normal 0.000000 1.000000 0.000000
outer loop
vertex 0.433297 0.462651 0.506946
vertex 0.423805 0.462651 0.509733
vertex 0.446328 0.462651 0.544780
endloop
endfacet
facet normal 0.000000 1.000000 0.000000
outer loop
vertex 0.484223 0.462651 0.562086
vertex 0.485630 0.462651 0.552294
vertex 0.452806 0.462651 0.537303
endloop
endfacet
facet normal 0.000000 1.000000 -0.000009
outer loop
vertex 0.452806 0.462651 0.537303
vertex 0.446328 0.462651 0.544780
vertex 0.484223 0.462651 0.562086
endloop
endfacet
facet normal 0.000000 1.000000 0.000000
outer loop
vertex 0.525458 0.462651 0.556157
vertex 0.521349 0.462651 0.547158
vertex 0.485630 0.462651 0.552294
endloop
endfacet
facet normal 0.000000 1.000000 -0.000009
outer loop
vertex 0.485630 0.462651 0.552294
vertex 0.484223 0.462651 0.562086
vertex 0.525458 0.462651 0.556157
endloop
endfacet
facet normal 0.000000 1.000000 0.000005
outer loop
vertex 0.556942 0.462651 0.528876
vertex 0.548620 0.462651 0.523527
vertex 0.521349 0.462651 0.547158
endloop
endfacet
facet normal 0.000000 1.000000 -0.000005
outer loop
vertex 0.521349 0.462651 0.547158
vertex 0.525458 0.462651 0.556157
vertex 0.556942 0.462651 0.528876
endloop
endfacet
facet normal 0.000000 1.000000 0.000000
outer loop
vertex 0.568679 0.462651 0.488904
vertex 0.558787 0.462651 0.488904
vertex 0.548620 0.462651 0.523527
endloop
endfacet
facet normal 0.000000 1.000000 0.000000
outer loop
vertex 0.548620 0.462651 0.523527
vertex 0.556942 0.462651 0.528876
vertex 0.568679 0.462651 0.488904
endloop
endfacet
facet normal -0.946495 -0.164046 0.277915
outer loop
vertex 0.548620 0.462651 0.454280
vertex 0.566391 0.340768 0.442859
vertex 0.579911 0.340768 0.488904
endloop
endfacet
facet normal -0.946495 -0.164045 0.277915
outer loop
vertex 0.579911 0.340768 0.488904
vertex 0.558787 0.462651 0.488904
vertex 0.548620 0.462651 0.454280
endloop
endfacet
facet normal -0.645990 -0.164046 0.745511
outer loop
vertex 0.521349 0.462651 0.430649
vertex 0.530124 0.340768 0.411433
vertex 0.566391 0.340768 0.442859
endloop
endfacet
facet normal -0.645990 -0.164046 0.745511
outer loop
vertex 0.566391 0.340768 0.442859
vertex 0.548620 0.462651 0.454280
vertex 0.521349 0.462651 0.430649
endloop
endfacet
facet normal -0.140387 -0.164046 0.976412
outer loop
vertex 0.485630 0.462651 0.425513
vertex 0.482624 0.340768 0.404604
vertex 0.530124 0.340768 0.411433
endloop
endfacet
facet normal -0.140389 -0.164046 0.976412
outer loop
vertex 0.530124 0.340768 0.411433
vertex 0.521349 0.462651 0.430649
vertex 0.485630 0.462651 0.425513
endloop
endfacet
facet normal 0.409786 -0.164046 0.897309
outer loop
vertex 0.452806 0.462651 0.440504
vertex 0.438972 0.340768 0.424539
vertex 0.482624 0.340768 0.404604
endloop
endfacet
facet normal 0.409787 -0.164046 0.897309
outer loop
vertex 0.482624 0.340768 0.404604
vertex 0.485630 0.462651 0.425513
vertex 0.452806 0.462651 0.440504
endloop
endfacet
facet normal 0.829856 -0.164045 0.533318
outer loop
vertex 0.433297 0.462651 0.470861
vertex 0.413028 0.340768 0.464909
vertex 0.438972 0.340768 0.424539
endloop
endfacet
facet normal 0.829857 -0.164046 0.533316
outer loop
vertex 0.438972 0.340768 0.424539
vertex 0.452806 0.462651 0.440504
vertex 0.433297 0.462651 0.470861
endloop
endfacet
facet normal 0.986453 -0.164046 0.000000
outer loop
vertex 0.433297 0.462651 0.506946
vertex 0.413028 0.340768 0.512898
vertex 0.413028 0.340768 0.464909
endloop
endfacet
facet normal 0.986453 -0.164047 0.000001
outer loop
vertex 0.413028 0.340768 0.464909
vertex 0.433297 0.462651 0.470861
vertex 0.433297 0.462651 0.506946
endloop
endfacet
facet normal 0.829857 -0.164046 -0.533316
outer loop
vertex 0.452806 0.462651 0.537303
vertex 0.438972 0.340768 0.553268
vertex 0.413028 0.340768 0.512898
endloop
endfacet
facet normal 0.829857 -0.164046 -0.533317
outer loop
vertex 0.413028 0.340768 0.512898
vertex 0.433297 0.462651 0.506946
vertex 0.452806 0.462651 0.537303
endloop
endfacet
facet normal 0.409789 -0.164046 -0.897308
outer loop
vertex 0.485630 0.462651 0.552294
vertex 0.482624 0.340768 0.573204
vertex 0.438972 0.340768 0.553268
endloop
endfacet
facet normal 0.409786 -0.164046 -0.897310
outer loop
vertex 0.438972 0.340768 0.553268
vertex 0.452806 0.462651 0.537303
vertex 0.485630 0.462651 0.552294
endloop
endfacet
facet normal -0.140387 -0.164046 -0.976412
outer loop
vertex 0.521349 0.462651 0.547158
vertex 0.530124 0.340768 0.566374
vertex 0.482624 0.340768 0.573204
endloop
endfacet
facet normal -0.140385 -0.164046 -0.976412
outer loop
vertex 0.482624 0.340768 0.573204
vertex 0.485630 0.462651 0.552294
vertex 0.521349 0.462651 0.547158
endloop
endfacet
facet normal -0.645989 -0.164046 -0.745512
outer loop
vertex 0.548620 0.462651 0.523527
vertex 0.566391 0.340768 0.534948
vertex 0.530124 0.340768 0.566374
endloop
endfacet
facet normal -0.645990 -0.164046 -0.745510
outer loop
vertex 0.530124 0.340768 0.566374
vertex 0.521349 0.462651 0.547158
vertex 0.548620 0.462651 0.523527
endloop
endfacet
facet normal -0.946494 -0.164047 -0.277915
outer loop
vertex 0.558787 0.462651 0.488904
vertex 0.579911 0.340768 0.488904
vertex 0.566391 0.340768 0.534948
endloop
endfacet
facet normal -0.946494 -0.164046 -0.277916
outer loop
vertex 0.566391 0.340768 0.534948
vertex 0.548620 0.462651 0.523527
vertex 0.558787 0.462651 0.488904
endloop
endfacet
facet normal 0.947456 0.157906 -0.278197
outer loop
vertex 0.562885 0.387727 0.445113
vertex 0.556784 0.431236 0.449033
vertex 0.568491 0.431236 0.488904
endloop
endfacet
facet normal 0.947456 0.157906 -0.278197
outer loop
vertex 0.568491 0.431236 0.488904
vertex 0.575743 0.387727 0.488904
vertex 0.562885 0.387727 0.445113
endloop
endfacet
facet normal 0.646645 0.157909 -0.746267
outer loop
vertex 0.528392 0.387727 0.415225
vertex 0.525380 0.431236 0.421821
vertex 0.556784 0.431236 0.449033
endloop
endfacet
facet normal 0.646645 0.157906 -0.746268
outer loop
vertex 0.556784 0.431236 0.449033
vertex 0.562885 0.387727 0.445113
vertex 0.528392 0.387727 0.415225
endloop
endfacet
facet normal 0.140530 0.157907 -0.977403
outer loop
vertex 0.483217 0.387727 0.408730
vertex 0.484249 0.431236 0.415907
vertex 0.525380 0.431236 0.421821
endloop
endfacet
facet normal 0.140529 0.157907 -0.977403
outer loop
vertex 0.525380 0.431236 0.421821
vertex 0.528392 0.387727 0.415225
vertex 0.483217 0.387727 0.408730
endloop
endfacet
facet normal -0.410203 0.157907 -0.898220
outer loop
vertex 0.441702 0.387727 0.427689
vertex 0.446451 0.431236 0.433169
vertex 0.484249 0.431236 0.415907
endloop
endfacet
facet normal -0.410202 0.157907 -0.898220
outer loop
vertex 0.484249 0.431236 0.415907
vertex 0.483217 0.387727 0.408730
vertex 0.441702 0.387727 0.427689
endloop
endfacet
facet normal -0.830699 0.157906 -0.533858
outer loop
vertex 0.417027 0.387727 0.466084
vertex 0.423985 0.431236 0.468127
vertex 0.446451 0.431236 0.433169
endloop
endfacet
facet normal -0.830699 0.157907 -0.533858
outer loop
vertex 0.446451 0.431236 0.433169
vertex 0.441702 0.387727 0.427689
vertex 0.417027 0.387727 0.466084
endloop
endfacet
facet normal -0.987454 0.157906 -0.000001
outer loop
vertex 0.417027 0.387727 0.511723
vertex 0.423985 0.431236 0.509680
vertex 0.423985 0.431236 0.468127
endloop
endfacet
facet normal -0.987454 0.157906 -0.000001
outer loop
vertex 0.423985 0.431236 0.468127
vertex 0.417027 0.387727 0.466084
vertex 0.417027 0.387727 0.511723
endloop
endfacet
facet normal -0.830700 0.157907 0.533857
outer loop
vertex 0.441702 0.387727 0.550118
vertex 0.446451 0.431236 0.544638
vertex 0.423985 0.431236 0.509680
endloop
endfacet
facet normal -0.830700 0.157907 0.533857
outer loop
vertex 0.423985 0.431236 0.509680
vertex 0.417027 0.387727 0.511723
vertex 0.441702 0.387727 0.550118
endloop
endfacet
facet normal -0.410202 0.157906 0.898220
outer loop
vertex 0.483217 0.387727 0.569077
vertex 0.484249 0.431236 0.561900
vertex 0.446451 0.431236 0.544638
endloop
endfacet
facet normal -0.410204 0.157906 0.898220
outer loop
vertex 0.446451 0.431236 0.544638
vertex 0.441702 0.387727 0.550118
vertex 0.483217 0.387727 0.569077
endloop
endfacet
facet normal 0.140526 0.157907 0.977404
outer loop
vertex 0.528392 0.387727 0.562582
vertex 0.525380 0.431236 0.555986
vertex 0.484249 0.431236 0.561900
endloop
endfacet
facet normal 0.140529 0.157907 0.977403
outer loop
vertex 0.484249 0.431236 0.561900
vertex 0.483217 0.387727 0.569077
vertex 0.528392 0.387727 0.562582
endloop
endfacet
facet normal 0.646644 0.157910 0.746268
outer loop
vertex 0.562885 0.387727 0.532695
vertex 0.556784 0.431236 0.528774
vertex 0.525380 0.431236 0.555986
endloop
endfacet
facet normal 0.646644 0.157905 0.746269
outer loop
vertex 0.525380 0.431236 0.555986
vertex 0.528392 0.387727 0.562582
vertex 0.562885 0.387727 0.532695
endloop
endfacet
facet normal 0.947455 0.157906 0.278198
outer loop
vertex 0.575743 0.387727 0.488904
vertex 0.568491 0.431236 0.488904
vertex 0.556784 0.431236 0.528774
endloop
endfacet
facet normal 0.947455 0.157908 0.278197
outer loop
vertex 0.556784 0.431236 0.528774
vertex 0.562885 0.387727 0.532695
vertex 0.575743 0.387727 0.488904
endloop
endfacet
facet normal 0.700678 0.683171 -0.205737
outer loop
vertex 0.630244 0.289787 0.401824
vertex 0.584633 0.345395 0.431136
vertex 0.601595 0.345395 0.488904
endloop
endfacet
facet normal 0.700677 0.683172 -0.205737
outer loop
vertex 0.601595 0.345395 0.488904
vertex 0.655813 0.289787 0.488904
vertex 0.630244 0.289787 0.401824
endloop
endfacet
facet normal 0.478217 0.683172 -0.551892
outer loop
vertex 0.561655 0.289787 0.342391
vertex 0.539132 0.345395 0.391709
vertex 0.584633 0.345395 0.431136
endloop
endfacet
facet normal 0.478218 0.683170 -0.551892
outer loop
vertex 0.584633 0.345395 0.431136
vertex 0.630244 0.289787 0.401824
vertex 0.561655 0.289787 0.342391
endloop
endfacet
facet normal 0.103927 0.683171 -0.722826
outer loop
vertex 0.471822 0.289787 0.329475
vertex 0.479538 0.345395 0.383141
vertex 0.539132 0.345395 0.391709
endloop
endfacet
facet normal 0.103926 0.683172 -0.722825
outer loop
vertex 0.539132 0.345395 0.391709
vertex 0.561655 0.289787 0.342391
vertex 0.471822 0.289787 0.329475
endloop
endfacet
facet normal -0.303360 0.683172 -0.664265
outer loop
vertex 0.389267 0.289787 0.367176
vertex 0.424773 0.345395 0.408152
vertex 0.479538 0.345395 0.383141
endloop
endfacet
facet normal -0.303361 0.683171 -0.664266
outer loop
vertex 0.479538 0.345395 0.383141
vertex 0.471822 0.289787 0.329475
vertex 0.389267 0.289787 0.367176
endloop
endfacet
facet normal -0.614332 0.683171 -0.394808
outer loop
vertex 0.340201 0.289787 0.443525
vertex 0.392222 0.345395 0.458800
vertex 0.424773 0.345395 0.408152
endloop
endfacet
facet normal -0.614332 0.683171 -0.394807
outer loop
vertex 0.424773 0.345395 0.408152
vertex 0.389267 0.289787 0.367176
vertex 0.340201 0.289787 0.443525
endloop
endfacet
facet normal -0.730258 0.683171 0.000000
outer loop
vertex 0.340201 0.289787 0.534282
vertex 0.392222 0.345395 0.519007
vertex 0.392222 0.345395 0.458800
endloop
endfacet
facet normal -0.730258 0.683172 0.000000
outer loop
vertex 0.392222 0.345395 0.458800
vertex 0.340201 0.289787 0.443525
vertex 0.340201 0.289787 0.534282
endloop
endfacet
facet normal -0.614333 0.683170 0.394807
outer loop
vertex 0.389267 0.289787 0.610631
vertex 0.424773 0.345395 0.569656
vertex 0.392222 0.345395 0.519007
endloop
endfacet
facet normal -0.614332 0.683172 0.394807
outer loop
vertex 0.392222 0.345395 0.519007
vertex 0.340201 0.289787 0.534282
vertex 0.389267 0.289787 0.610631
endloop
endfacet
facet normal -0.303361 0.683171 0.664266
outer loop
vertex 0.471822 0.289787 0.648332
vertex 0.479538 0.345395 0.594666
vertex 0.424773 0.345395 0.569656
endloop
endfacet
facet normal -0.303360 0.683171 0.664267
outer loop
vertex 0.424773 0.345395 0.569656
vertex 0.389267 0.289787 0.610631
vertex 0.471822 0.289787 0.648332
endloop
endfacet
facet normal 0.103926 0.683172 0.722824
outer loop
vertex 0.561655 0.289787 0.635416
vertex 0.539132 0.345395 0.586098
vertex 0.479538 0.345395 0.594666
endloop
endfacet
facet normal 0.103928 0.683171 0.722825
outer loop
vertex 0.479538 0.345395 0.594666
vertex 0.471822 0.289787 0.648332
vertex 0.561655 0.289787 0.635416
endloop
endfacet
facet normal 0.478217 0.683172 0.551892
outer loop
vertex 0.630244 0.289787 0.575984
vertex 0.584633 0.345395 0.546671
vertex 0.539132 0.345395 0.586098
endloop
endfacet
facet normal 0.478218 0.683171 0.551893
outer loop
vertex 0.539132 0.345395 0.586098
vertex 0.561655 0.289787 0.635416
vertex 0.630244 0.289787 0.575984
endloop
endfacet
facet normal 0.700677 0.683172 0.205737
outer loop
vertex 0.655813 0.289787 0.488904
vertex 0.601595 0.345395 0.488904
vertex 0.584633 0.345395 0.546671
endloop
endfacet
facet normal 0.700676 0.683173 0.205738
outer loop
vertex 0.584633 0.345395 0.546671
vertex 0.630244 0.289787 0.575984
vertex 0.655813 0.289787 0.488904
endloop
endfacet
endsolid Exported from Blender-2.76 (sub 0)
