solid Exported from Blender-2.76 (sub 0)
facet normal 0.234976 0.965364 0.113394
outer loop
vertex 0.302949 0.079309 0.415680
vertex 0.292841 0.082479 0.409641
vertex 0.286632 0.082479 0.422507
endloop
endfacet
facet normal 0.234978 0.965363 0.113398
outer loop
vertex 0.286632 0.082479 0.422507
vertex 0.297649 0.079309 0.426663
vertex 0.302949 0.079309 0.415680
endloop
endfacet
facet normal -0.357676 -0.019123 0.933650
outer loop
vertex 0.297649 0.079309 0.426663
vertex 0.286632 0.082479 0.422507
vertex 0.284022 0.069802 0.421247
endloop
endfacet
facet normal -0.357676 -0.019124 0.933650
outer loop
vertex 0.284022 0.069802 0.421247
vertex 0.295421 0.068488 0.425587
vertex 0.297649 0.079309 0.426663
endloop
endfacet
facet normal -0.096822 -0.994204 -0.046725
outer loop
vertex 0.295421 0.068488 0.425587
vertex 0.284022 0.069802 0.421247
vertex 0.290230 0.069802 0.408382
endloop
endfacet
facet normal -0.096823 -0.994204 -0.046725
outer loop
vertex 0.290230 0.069802 0.408382
vertex 0.300721 0.068488 0.414605
vertex 0.295421 0.068488 0.425587
endloop
endfacet
facet normal 0.508353 -0.019125 -0.860936
outer loop
vertex 0.292841 0.082479 0.409641
vertex 0.302949 0.079309 0.415680
vertex 0.300721 0.068488 0.414605
endloop
endfacet
facet normal 0.508353 -0.019124 -0.860936
outer loop
vertex 0.300721 0.068488 0.414605
vertex 0.290230 0.069802 0.408382
vertex 0.292841 0.082479 0.409641
endloop
endfacet
facet normal -0.877962 0.222871 -0.423688
outer loop
vertex 0.292841 0.082479 0.409641
vertex 0.290230 0.069802 0.408382
vertex 0.284022 0.069802 0.421247
endloop
endfacet
facet normal -0.877964 0.222871 -0.423682
outer loop
vertex 0.284022 0.069802 0.421247
vertex 0.286632 0.082479 0.422507
vertex 0.292841 0.082479 0.409641
endloop
endfacet
facet normal 0.877962 -0.222867 0.423691
outer loop
vertex 0.300721 0.068488 0.414605
vertex 0.302949 0.079309 0.415680
vertex 0.297649 0.079309 0.426663
endloop
endfacet
facet normal 0.877961 -0.222875 0.423687
outer loop
vertex 0.297649 0.079309 0.426663
vertex 0.295421 0.068488 0.425587
vertex 0.300721 0.068488 0.414605
endloop
endfacet
facet normal 0.877962 -0.222872 0.423687
outer loop
vertex 0.315187 0.015941 0.371381
vertex 0.340351 0.072904 0.349201
vertex 0.338644 0.129867 0.382702
endloop
endfacet
facet normal 0.877961 -0.222872 0.423688
outer loop
vertex 0.282101 0.001872 0.432541
vertex 0.315187 0.015941 0.371381
vertex 0.338644 0.129867 0.382702
endloop
endfacet
facet normal 0.877962 -0.222872 0.423687
outer loop
vertex 0.282101 0.001872 0.432541
vertex 0.338644 0.129867 0.382702
vertex 0.311352 0.143936 0.446657
endloop
endfacet
facet normal 0.877962 -0.222873 0.423687
outer loop
vertex 0.266008 0.041292 0.486625
vertex 0.282101 0.001872 0.432541
vertex 0.311352 0.143936 0.446657
endloop
endfacet
facet normal 0.877962 -0.222872 0.423687
outer loop
vertex 0.266008 0.041292 0.486625
vertex 0.311352 0.143936 0.446657
vertex 0.279026 0.104516 0.492907
endloop
endfacet
facet normal -0.877962 0.222873 -0.423687
outer loop
vertex 0.306731 0.017704 0.367301
vertex 0.330189 0.131630 0.378621
vertex 0.331895 0.074667 0.345120
endloop
endfacet
facet normal -0.877962 0.222872 -0.423687
outer loop
vertex 0.273645 0.003635 0.428460
vertex 0.330189 0.131630 0.378621
vertex 0.306731 0.017704 0.367301
endloop
endfacet
facet normal -0.877962 0.222873 -0.423688
outer loop
vertex 0.273645 0.003635 0.428460
vertex 0.302896 0.145698 0.442576
vertex 0.330189 0.131630 0.378621
endloop
endfacet
facet normal -0.877962 0.222872 -0.423688
outer loop
vertex 0.257552 0.043054 0.482544
vertex 0.302896 0.145698 0.442576
vertex 0.273645 0.003635 0.428460
endloop
endfacet
facet normal -0.877962 0.222874 -0.423686
outer loop
vertex 0.257552 0.043054 0.482544
vertex 0.270570 0.106279 0.488827
vertex 0.302896 0.145698 0.442576
endloop
endfacet
facet normal 0.251072 0.962306 -0.104543
outer loop
vertex 0.338644 0.129867 0.382702
vertex 0.330189 0.131630 0.378621
vertex 0.302896 0.145698 0.442576
endloop
endfacet
facet normal 0.251073 0.962306 -0.104543
outer loop
vertex 0.302896 0.145698 0.442576
vertex 0.311352 0.143936 0.446657
vertex 0.338644 0.129867 0.382702
endloop
endfacet
facet normal -0.434615 -0.000001 0.900616
outer loop
vertex 0.279026 0.104516 0.492907
vertex 0.270570 0.106279 0.488827
vertex 0.257552 0.043054 0.482544
endloop
endfacet
facet normal -0.434615 0.000000 0.900616
outer loop
vertex 0.257552 0.043054 0.482544
vertex 0.266008 0.041292 0.486625
vertex 0.279026 0.104516 0.492907
endloop
endfacet
facet normal -0.074379 -0.962306 -0.261600
outer loop
vertex 0.282101 0.001872 0.432541
vertex 0.273645 0.003635 0.428460
vertex 0.306731 0.017704 0.367301
endloop
endfacet
facet normal -0.074382 -0.962306 -0.261601
outer loop
vertex 0.306731 0.017704 0.367301
vertex 0.315187 0.015941 0.371381
vertex 0.282101 0.001872 0.432541
endloop
endfacet
facet normal 0.461867 0.459872 -0.758417
outer loop
vertex 0.340351 0.072904 0.349201
vertex 0.331895 0.074667 0.345120
vertex 0.330189 0.131630 0.378621
endloop
endfacet
facet normal 0.461869 0.459874 -0.758415
outer loop
vertex 0.330189 0.131630 0.378621
vertex 0.338644 0.129867 0.382702
vertex 0.340351 0.072904 0.349201
endloop
endfacet
facet normal -0.120661 0.795562 0.593735
outer loop
vertex 0.311352 0.143936 0.446657
vertex 0.302896 0.145698 0.442576
vertex 0.270570 0.106279 0.488827
endloop
endfacet
facet normal -0.120672 0.795564 0.593731
outer loop
vertex 0.270570 0.106279 0.488827
vertex 0.279026 0.104516 0.492907
vertex 0.311352 0.143936 0.446657
endloop
endfacet
facet normal -0.389722 -0.795564 0.463890
outer loop
vertex 0.266008 0.041292 0.486625
vertex 0.257552 0.043054 0.482544
vertex 0.273645 0.003635 0.428460
endloop
endfacet
facet normal -0.389723 -0.795565 0.463889
outer loop
vertex 0.273645 0.003635 0.428460
vertex 0.282101 0.001872 0.432541
vertex 0.266008 0.041292 0.486625
endloop
endfacet
facet normal 0.306338 -0.459872 -0.833472
outer loop
vertex 0.315187 0.015941 0.371381
vertex 0.306731 0.017704 0.367301
vertex 0.331895 0.074667 0.345120
endloop
endfacet
facet normal 0.306338 -0.459871 -0.833472
outer loop
vertex 0.331895 0.074667 0.345120
vertex 0.340351 0.072904 0.349201
vertex 0.315187 0.015941 0.371381
endloop
endfacet
endsolid Exported from Blender-2.76 (sub 0)
