solid Exported from Blender-2.76 (sub 0)
facet normal -0.855738 -0.153673 -0.494062
outer loop
vertex 0.923190 0.355365 0.034585
vertex 0.904725 0.355365 0.066567
vertex 0.901121 0.375434 0.066567
endloop
endfacet
facet normal -0.855738 -0.153673 -0.494062
outer loop
vertex 0.901121 0.375434 0.066567
vertex 0.921388 0.375434 0.031464
vertex 0.923190 0.355365 0.034585
endloop
endfacet
facet normal 0.000000 -0.153672 -0.988122
outer loop
vertex 0.921388 0.375434 0.031464
vertex 0.961921 0.375434 0.031464
vertex 0.960119 0.355365 0.034585
endloop
endfacet
facet normal 0.000000 -0.153673 -0.988122
outer loop
vertex 0.960119 0.355365 0.034585
vertex 0.923190 0.355365 0.034585
vertex 0.921388 0.375434 0.031464
endloop
endfacet
facet normal 0.855737 -0.153681 -0.494062
outer loop
vertex 0.961921 0.375434 0.031464
vertex 0.982188 0.375434 0.066567
vertex 0.978584 0.355365 0.066567
endloop
endfacet
facet normal 0.855739 -0.153667 -0.494061
outer loop
vertex 0.978584 0.355365 0.066567
vertex 0.960119 0.355365 0.034585
vertex 0.961921 0.375434 0.031464
endloop
endfacet
facet normal 0.855738 -0.153674 0.494062
outer loop
vertex 0.982188 0.375434 0.066567
vertex 0.961921 0.375434 0.101670
vertex 0.960119 0.355365 0.098549
endloop
endfacet
facet normal 0.855738 -0.153675 0.494061
outer loop
vertex 0.960119 0.355365 0.098549
vertex 0.978584 0.355365 0.066567
vertex 0.982188 0.375434 0.066567
endloop
endfacet
facet normal -0.000001 -0.153673 0.988122
outer loop
vertex 0.961921 0.375434 0.101670
vertex 0.921388 0.375434 0.101670
vertex 0.923190 0.355365 0.098549
endloop
endfacet
facet normal 0.000000 -0.153673 0.988122
outer loop
vertex 0.923190 0.355365 0.098549
vertex 0.960119 0.355365 0.098549
vertex 0.961921 0.375434 0.101670
endloop
endfacet
facet normal -0.855738 -0.153673 0.494061
outer loop
vertex 0.904725 0.355365 0.066567
vertex 0.923190 0.355365 0.098549
vertex 0.921388 0.375434 0.101670
endloop
endfacet
facet normal -0.855738 -0.153674 0.494062
outer loop
vertex 0.921388 0.375434 0.101670
vertex 0.901121 0.375434 0.066567
vertex 0.904725 0.355365 0.066567
endloop
endfacet
facet normal -0.814755 -0.338971 -0.470397
outer loop
vertex 0.904725 0.355365 0.066567
vertex 0.923190 0.355365 0.034585
vertex 0.926524 0.339336 0.040361
endloop
endfacet
facet normal -0.814755 -0.338966 -0.470400
outer loop
vertex 0.926524 0.339336 0.040361
vertex 0.911394 0.339336 0.066567
vertex 0.904725 0.355365 0.066567
endloop
endfacet
facet normal 0.000000 -0.338969 -0.940798
outer loop
vertex 0.923190 0.355365 0.034585
vertex 0.960119 0.355365 0.034585
vertex 0.956785 0.339336 0.040361
endloop
endfacet
facet normal 0.000000 -0.338968 -0.940798
outer loop
vertex 0.956785 0.339336 0.040361
vertex 0.926524 0.339336 0.040361
vertex 0.923190 0.355365 0.034585
endloop
endfacet
facet normal 0.814753 -0.338975 -0.470397
outer loop
vertex 0.960119 0.355365 0.034585
vertex 0.978584 0.355365 0.066567
vertex 0.971915 0.339336 0.066567
endloop
endfacet
facet normal 0.814756 -0.338968 -0.470397
outer loop
vertex 0.971915 0.339336 0.066567
vertex 0.956785 0.339336 0.040361
vertex 0.960119 0.355365 0.034585
endloop
endfacet
facet normal 0.814755 -0.338971 0.470397
outer loop
vertex 0.978584 0.355365 0.066567
vertex 0.960119 0.355365 0.098549
vertex 0.956785 0.339336 0.092773
endloop
endfacet
facet normal 0.814754 -0.338972 0.470397
outer loop
vertex 0.956785 0.339336 0.092773
vertex 0.971915 0.339336 0.066567
vertex 0.978584 0.355365 0.066567
endloop
endfacet
facet normal -0.000000 -0.338970 0.940797
outer loop
vertex 0.960119 0.355365 0.098549
vertex 0.923190 0.355365 0.098549
vertex 0.926524 0.339336 0.092773
endloop
endfacet
facet normal 0.000000 -0.338967 0.940798
outer loop
vertex 0.926524 0.339336 0.092773
vertex 0.956785 0.339336 0.092773
vertex 0.960119 0.355365 0.098549
endloop
endfacet
facet normal -0.814755 -0.338969 0.470398
outer loop
vertex 0.923190 0.355365 0.098549
vertex 0.904725 0.355365 0.066567
vertex 0.911394 0.339336 0.066567
endloop
endfacet
facet normal -0.814756 -0.338966 0.470399
outer loop
vertex 0.911394 0.339336 0.066567
vertex 0.926524 0.339336 0.092773
vertex 0.923190 0.355365 0.098549
endloop
endfacet
facet normal -0.732662 -0.533175 -0.423001
outer loop
vertex 0.911394 0.339336 0.066567
vertex 0.926524 0.339336 0.040361
vertex 0.930715 0.327818 0.047619
endloop
endfacet
facet normal -0.732657 -0.533181 -0.423003
outer loop
vertex 0.930715 0.327818 0.047619
vertex 0.919775 0.327818 0.066567
vertex 0.911394 0.339336 0.066567
endloop
endfacet
facet normal 0.000000 -0.533176 -0.846004
outer loop
vertex 0.926524 0.339336 0.040361
vertex 0.956785 0.339336 0.040361
vertex 0.952594 0.327818 0.047619
endloop
endfacet
facet normal 0.000000 -0.533176 -0.846004
outer loop
vertex 0.952594 0.327818 0.047619
vertex 0.930715 0.327818 0.047619
vertex 0.926524 0.339336 0.040361
endloop
endfacet
facet normal 0.732662 -0.533178 -0.422999
outer loop
vertex 0.956785 0.339336 0.040361
vertex 0.971915 0.339336 0.066567
vertex 0.963534 0.327818 0.066567
endloop
endfacet
facet normal 0.732666 -0.533168 -0.423005
outer loop
vertex 0.963534 0.327818 0.066567
vertex 0.952594 0.327818 0.047619
vertex 0.956785 0.339336 0.040361
endloop
endfacet
facet normal 0.732663 -0.533174 0.423001
outer loop
vertex 0.971915 0.339336 0.066567
vertex 0.956785 0.339336 0.092773
vertex 0.952594 0.327818 0.085515
endloop
endfacet
facet normal 0.732663 -0.533173 0.423002
outer loop
vertex 0.952594 0.327818 0.085515
vertex 0.963534 0.327818 0.066567
vertex 0.971915 0.339336 0.066567
endloop
endfacet
facet normal 0.000000 -0.533174 0.846006
outer loop
vertex 0.956785 0.339336 0.092773
vertex 0.926524 0.339336 0.092773
vertex 0.930715 0.327818 0.085515
endloop
endfacet
facet normal 0.000000 -0.533174 0.846006
outer loop
vertex 0.930715 0.327818 0.085515
vertex 0.952594 0.327818 0.085515
vertex 0.956785 0.339336 0.092773
endloop
endfacet
facet normal -0.732662 -0.533176 0.423002
outer loop
vertex 0.926524 0.339336 0.092773
vertex 0.911394 0.339336 0.066567
vertex 0.919775 0.327818 0.066567
endloop
endfacet
facet normal -0.732663 -0.533173 0.423002
outer loop
vertex 0.919775 0.327818 0.066567
vertex 0.930715 0.327818 0.085515
vertex 0.926524 0.339336 0.092773
endloop
endfacet
facet normal -0.846773 0.209685 -0.488884
outer loop
vertex 0.906824 0.398466 0.066567
vertex 0.924240 0.398466 0.036403
vertex 0.921388 0.375434 0.031464
endloop
endfacet
facet normal -0.846773 0.209682 -0.488886
outer loop
vertex 0.921388 0.375434 0.031464
vertex 0.901121 0.375434 0.066567
vertex 0.906824 0.398466 0.066567
endloop
endfacet
facet normal 0.000000 0.209680 -0.977770
outer loop
vertex 0.924240 0.398466 0.036403
vertex 0.959069 0.398466 0.036403
vertex 0.961921 0.375434 0.031464
endloop
endfacet
facet normal 0.000000 0.209680 -0.977770
outer loop
vertex 0.961921 0.375434 0.031464
vertex 0.921388 0.375434 0.031464
vertex 0.924240 0.398466 0.036403
endloop
endfacet
facet normal 0.846773 0.209684 -0.488884
outer loop
vertex 0.959069 0.398466 0.036403
vertex 0.976485 0.398466 0.066567
vertex 0.982188 0.375434 0.066567
endloop
endfacet
facet normal 0.846772 0.209684 -0.488886
outer loop
vertex 0.982188 0.375434 0.066567
vertex 0.961921 0.375434 0.031464
vertex 0.959069 0.398466 0.036403
endloop
endfacet
facet normal 0.846774 0.209678 0.488885
outer loop
vertex 0.976485 0.398466 0.066567
vertex 0.959069 0.398466 0.096731
vertex 0.961921 0.375434 0.101670
endloop
endfacet
facet normal 0.846771 0.209690 0.488885
outer loop
vertex 0.961921 0.375434 0.101670
vertex 0.982188 0.375434 0.066567
vertex 0.976485 0.398466 0.066567
endloop
endfacet
facet normal 0.000000 0.209680 0.977770
outer loop
vertex 0.959069 0.398466 0.096731
vertex 0.924240 0.398466 0.096731
vertex 0.921388 0.375434 0.101670
endloop
endfacet
facet normal 0.000000 0.209680 0.977770
outer loop
vertex 0.921388 0.375434 0.101670
vertex 0.961921 0.375434 0.101670
vertex 0.959069 0.398466 0.096731
endloop
endfacet
facet normal -0.846773 0.209684 0.488884
outer loop
vertex 0.924240 0.398466 0.096731
vertex 0.906824 0.398466 0.066567
vertex 0.901121 0.375434 0.066567
endloop
endfacet
facet normal -0.846772 0.209683 0.488886
outer loop
vertex 0.901121 0.375434 0.066567
vertex 0.921388 0.375434 0.101670
vertex 0.924240 0.398466 0.096731
endloop
endfacet
facet normal -0.760174 0.479075 -0.438888
outer loop
vertex 0.916276 0.413463 0.066567
vertex 0.928965 0.413463 0.044589
vertex 0.924240 0.398466 0.036403
endloop
endfacet
facet normal -0.760174 0.479077 -0.438886
outer loop
vertex 0.924240 0.398466 0.036403
vertex 0.906824 0.398466 0.066567
vertex 0.916276 0.413463 0.066567
endloop
endfacet
facet normal 0.000000 0.479083 -0.877770
outer loop
vertex 0.928965 0.413463 0.044589
vertex 0.954344 0.413463 0.044589
vertex 0.959069 0.398466 0.036403
endloop
endfacet
facet normal 0.000000 0.479080 -0.877771
outer loop
vertex 0.959069 0.398466 0.036403
vertex 0.924240 0.398466 0.036403
vertex 0.928965 0.413463 0.044589
endloop
endfacet
facet normal 0.760172 0.479076 -0.438891
outer loop
vertex 0.954344 0.413463 0.044589
vertex 0.967033 0.413463 0.066567
vertex 0.976485 0.398466 0.066567
endloop
endfacet
facet normal 0.760174 0.479078 -0.438885
outer loop
vertex 0.976485 0.398466 0.066567
vertex 0.959069 0.398466 0.036403
vertex 0.954344 0.413463 0.044589
endloop
endfacet
facet normal 0.760170 0.479082 0.438888
outer loop
vertex 0.967033 0.413463 0.066567
vertex 0.954344 0.413463 0.088545
vertex 0.959069 0.398466 0.096731
endloop
endfacet
facet normal 0.760175 0.479075 0.438887
outer loop
vertex 0.959069 0.398466 0.096731
vertex 0.976485 0.398466 0.066567
vertex 0.967033 0.413463 0.066567
endloop
endfacet
facet normal 0.000000 0.479081 0.877771
outer loop
vertex 0.954344 0.413463 0.088545
vertex 0.928965 0.413463 0.088545
vertex 0.924240 0.398466 0.096731
endloop
endfacet
facet normal 0.000000 0.479080 0.877771
outer loop
vertex 0.924240 0.398466 0.096731
vertex 0.959069 0.398466 0.096731
vertex 0.954344 0.413463 0.088545
endloop
endfacet
facet normal -0.760174 0.479074 0.438890
outer loop
vertex 0.928965 0.413463 0.088545
vertex 0.916276 0.413463 0.066567
vertex 0.906824 0.398466 0.066567
endloop
endfacet
facet normal -0.760176 0.479074 0.438885
outer loop
vertex 0.906824 0.398466 0.066567
vertex 0.924240 0.398466 0.096731
vertex 0.928965 0.413463 0.088545
endloop
endfacet
facet normal -0.783503 0.426025 -0.452355
outer loop
vertex 0.927234 0.433615 0.066567
vertex 0.934444 0.433615 0.054078
vertex 0.928965 0.413463 0.044589
endloop
endfacet
facet normal -0.783503 0.426026 -0.452354
outer loop
vertex 0.928965 0.413463 0.044589
vertex 0.916276 0.413463 0.066567
vertex 0.927234 0.433615 0.066567
endloop
endfacet
facet normal 0.000000 0.426026 -0.904711
outer loop
vertex 0.934444 0.433615 0.054078
vertex 0.948865 0.433615 0.054078
vertex 0.954344 0.413463 0.044589
endloop
endfacet
facet normal 0.000000 0.426022 -0.904713
outer loop
vertex 0.954344 0.413463 0.044589
vertex 0.928965 0.413463 0.044589
vertex 0.934444 0.433615 0.054078
endloop
endfacet
facet normal 0.783502 0.426026 -0.452356
outer loop
vertex 0.948865 0.433615 0.054078
vertex 0.956075 0.433615 0.066567
vertex 0.967033 0.413463 0.066567
endloop
endfacet
facet normal 0.783505 0.426021 -0.452356
outer loop
vertex 0.967033 0.413463 0.066567
vertex 0.954344 0.413463 0.044589
vertex 0.948865 0.433615 0.054078
endloop
endfacet
facet normal 0.783506 0.426020 0.452356
outer loop
vertex 0.956075 0.433615 0.066567
vertex 0.948865 0.433615 0.079056
vertex 0.954344 0.413463 0.088545
endloop
endfacet
facet normal 0.783503 0.426023 0.452357
outer loop
vertex 0.954344 0.413463 0.088545
vertex 0.967033 0.413463 0.066567
vertex 0.956075 0.433615 0.066567
endloop
endfacet
facet normal 0.000000 0.426018 0.904714
outer loop
vertex 0.948865 0.433615 0.079056
vertex 0.934444 0.433615 0.079056
vertex 0.928965 0.413463 0.088545
endloop
endfacet
facet normal 0.000000 0.426023 0.904712
outer loop
vertex 0.928965 0.413463 0.088545
vertex 0.954344 0.413463 0.088545
vertex 0.948865 0.433615 0.079056
endloop
endfacet
facet normal -0.783503 0.426026 0.452356
outer loop
vertex 0.934444 0.433615 0.079056
vertex 0.927234 0.433615 0.066567
vertex 0.916276 0.413463 0.066567
endloop
endfacet
facet normal -0.783504 0.426024 0.452354
outer loop
vertex 0.916276 0.413463 0.066567
vertex 0.928965 0.413463 0.088545
vertex 0.934444 0.433615 0.079056
endloop
endfacet
facet normal -0.857870 0.136916 -0.495291
outer loop
vertex 0.931062 0.457602 0.066567
vertex 0.936358 0.457602 0.057394
vertex 0.934444 0.433615 0.054078
endloop
endfacet
facet normal -0.857872 0.136909 -0.495289
outer loop
vertex 0.934444 0.433615 0.054078
vertex 0.927234 0.433615 0.066567
vertex 0.931062 0.457602 0.066567
endloop
endfacet
facet normal -0.000003 0.136911 -0.990583
outer loop
vertex 0.936358 0.457602 0.057394
vertex 0.946951 0.457602 0.057394
vertex 0.948865 0.433615 0.054078
endloop
endfacet
facet normal 0.000000 0.136912 -0.990583
outer loop
vertex 0.948865 0.433615 0.054078
vertex 0.934444 0.433615 0.054078
vertex 0.936358 0.457602 0.057394
endloop
endfacet
facet normal 0.857870 0.136916 -0.495290
outer loop
vertex 0.946951 0.457602 0.057394
vertex 0.952247 0.457602 0.066567
vertex 0.956075 0.433615 0.066567
endloop
endfacet
facet normal 0.857872 0.136908 -0.495290
outer loop
vertex 0.956075 0.433615 0.066567
vertex 0.948865 0.433615 0.054078
vertex 0.946951 0.457602 0.057394
endloop
endfacet
facet normal 0.857870 0.136918 0.495291
outer loop
vertex 0.952247 0.457602 0.066567
vertex 0.946951 0.457602 0.075740
vertex 0.948865 0.433615 0.079056
endloop
endfacet
facet normal 0.857872 0.136911 0.495288
outer loop
vertex 0.948865 0.433615 0.079056
vertex 0.956075 0.433615 0.066567
vertex 0.952247 0.457602 0.066567
endloop
endfacet
facet normal 0.000003 0.136911 0.990583
outer loop
vertex 0.946951 0.457602 0.075740
vertex 0.936358 0.457602 0.075741
vertex 0.934444 0.433615 0.079056
endloop
endfacet
facet normal 0.000000 0.136913 0.990583
outer loop
vertex 0.934444 0.433615 0.079056
vertex 0.948865 0.433615 0.079056
vertex 0.946951 0.457602 0.075740
endloop
endfacet
facet normal -0.857871 0.136912 0.495290
outer loop
vertex 0.936358 0.457602 0.075741
vertex 0.931062 0.457602 0.066567
vertex 0.927234 0.433615 0.066567
endloop
endfacet
facet normal -0.857871 0.136911 0.495290
outer loop
vertex 0.927234 0.433615 0.066567
vertex 0.934444 0.433615 0.079056
vertex 0.936358 0.457602 0.075741
endloop
endfacet
facet normal -0.699447 -0.589661 -0.403824
outer loop
vertex 0.924676 0.465178 0.066567
vertex 0.933165 0.465178 0.051863
vertex 0.936358 0.457602 0.057394
endloop
endfacet
facet normal -0.699453 -0.589651 -0.403828
outer loop
vertex 0.936358 0.457602 0.057394
vertex 0.931062 0.457602 0.066567
vertex 0.924676 0.465178 0.066567
endloop
endfacet
facet normal -0.000001 -0.589656 -0.807654
outer loop
vertex 0.933165 0.465178 0.051863
vertex 0.950144 0.465178 0.051863
vertex 0.946951 0.457602 0.057394
endloop
endfacet
facet normal -0.000001 -0.589656 -0.807655
outer loop
vertex 0.946951 0.457602 0.057394
vertex 0.936358 0.457602 0.057394
vertex 0.933165 0.465178 0.051863
endloop
endfacet
facet normal 0.699457 -0.589644 -0.403833
outer loop
vertex 0.950144 0.465178 0.051863
vertex 0.958633 0.465178 0.066567
vertex 0.952247 0.457602 0.066567
endloop
endfacet
facet normal 0.699444 -0.589663 -0.403826
outer loop
vertex 0.952247 0.457602 0.066567
vertex 0.946951 0.457602 0.057394
vertex 0.950144 0.465178 0.051863
endloop
endfacet
facet normal 0.699447 -0.589661 0.403824
outer loop
vertex 0.958633 0.465178 0.066567
vertex 0.950144 0.465178 0.081271
vertex 0.946951 0.457602 0.075740
endloop
endfacet
facet normal 0.699448 -0.589659 0.403825
outer loop
vertex 0.946951 0.457602 0.075740
vertex 0.952247 0.457602 0.066567
vertex 0.958633 0.465178 0.066567
endloop
endfacet
facet normal 0.000001 -0.589656 0.807654
outer loop
vertex 0.950144 0.465178 0.081271
vertex 0.933165 0.465178 0.081271
vertex 0.936358 0.457602 0.075741
endloop
endfacet
facet normal 0.000002 -0.589650 0.807659
outer loop
vertex 0.936358 0.457602 0.075741
vertex 0.946951 0.457602 0.075740
vertex 0.950144 0.465178 0.081271
endloop
endfacet
facet normal -0.699454 -0.589648 0.403831
outer loop
vertex 0.933165 0.465178 0.081271
vertex 0.924676 0.465178 0.066567
vertex 0.931062 0.457602 0.066567
endloop
endfacet
facet normal -0.699444 -0.589663 0.403826
outer loop
vertex 0.931062 0.457602 0.066567
vertex 0.936358 0.457602 0.075741
vertex 0.933165 0.465178 0.081271
endloop
endfacet
facet normal -0.814577 -0.339544 -0.470292
outer loop
vertex 0.921518 0.472753 0.066567
vertex 0.931586 0.472753 0.049128
vertex 0.933165 0.465178 0.051863
endloop
endfacet
facet normal -0.814574 -0.339554 -0.470290
outer loop
vertex 0.933165 0.465178 0.051863
vertex 0.924676 0.465178 0.066567
vertex 0.921518 0.472753 0.066567
endloop
endfacet
facet normal -0.000001 -0.339552 -0.940587
outer loop
vertex 0.931586 0.472753 0.049128
vertex 0.951723 0.472753 0.049128
vertex 0.950144 0.465178 0.051863
endloop
endfacet
facet normal -0.000001 -0.339550 -0.940588
outer loop
vertex 0.950144 0.465178 0.051863
vertex 0.933165 0.465178 0.051863
vertex 0.931586 0.472753 0.049128
endloop
endfacet
facet normal 0.814572 -0.339556 -0.470291
outer loop
vertex 0.951723 0.472753 0.049128
vertex 0.961791 0.472753 0.066567
vertex 0.958633 0.465178 0.066567
endloop
endfacet
facet normal 0.814572 -0.339548 -0.470296
outer loop
vertex 0.958633 0.465178 0.066567
vertex 0.950144 0.465178 0.051863
vertex 0.951723 0.472753 0.049128
endloop
endfacet
facet normal 0.814577 -0.339552 0.470286
outer loop
vertex 0.961791 0.472753 0.066567
vertex 0.951723 0.472753 0.084006
vertex 0.950144 0.465178 0.081271
endloop
endfacet
facet normal 0.814577 -0.339540 0.470295
outer loop
vertex 0.950144 0.465178 0.081271
vertex 0.958633 0.465178 0.066567
vertex 0.961791 0.472753 0.066567
endloop
endfacet
facet normal 0.000001 -0.339550 0.940588
outer loop
vertex 0.951723 0.472753 0.084006
vertex 0.931586 0.472753 0.084006
vertex 0.933165 0.465178 0.081271
endloop
endfacet
facet normal 0.000002 -0.339550 0.940588
outer loop
vertex 0.933165 0.465178 0.081271
vertex 0.950144 0.465178 0.081271
vertex 0.951723 0.472753 0.084006
endloop
endfacet
facet normal -0.814570 -0.339557 0.470294
outer loop
vertex 0.931586 0.472753 0.084006
vertex 0.921518 0.472753 0.066567
vertex 0.924676 0.465178 0.066567
endloop
endfacet
facet normal -0.814573 -0.339543 0.470298
outer loop
vertex 0.924676 0.465178 0.066567
vertex 0.933165 0.465178 0.081271
vertex 0.931586 0.472753 0.084006
endloop
endfacet
facet normal 0.000000 1.000000 0.000003
outer loop
vertex 0.927508 0.472753 0.066567
vertex 0.934581 0.472753 0.054315
vertex 0.931586 0.472753 0.049128
endloop
endfacet
facet normal -0.000005 1.000000 -0.000009
outer loop
vertex 0.931586 0.472753 0.049128
vertex 0.921518 0.472753 0.066567
vertex 0.927508 0.472753 0.066567
endloop
endfacet
facet normal 0.000000 1.000000 0.000003
outer loop
vertex 0.934581 0.472753 0.054315
vertex 0.948728 0.472753 0.054315
vertex 0.951723 0.472753 0.049128
endloop
endfacet
facet normal 0.000000 1.000000 -0.000009
outer loop
vertex 0.951723 0.472753 0.049128
vertex 0.931586 0.472753 0.049128
vertex 0.934581 0.472753 0.054315
endloop
endfacet
facet normal 0.000000 1.000000 0.000000
outer loop
vertex 0.948728 0.472753 0.054315
vertex 0.955801 0.472753 0.066567
vertex 0.961791 0.472753 0.066567
endloop
endfacet
facet normal 0.000000 1.000000 -0.000002
outer loop
vertex 0.961791 0.472753 0.066567
vertex 0.951723 0.472753 0.049128
vertex 0.948728 0.472753 0.054315
endloop
endfacet
facet normal 0.000000 1.000000 -0.000003
outer loop
vertex 0.955801 0.472753 0.066567
vertex 0.948728 0.472753 0.078819
vertex 0.951723 0.472753 0.084006
endloop
endfacet
facet normal 0.000000 1.000000 0.000004
outer loop
vertex 0.951723 0.472753 0.084006
vertex 0.961791 0.472753 0.066567
vertex 0.955801 0.472753 0.066567
endloop
endfacet
facet normal -0.000002 1.000000 0.000010
outer loop
vertex 0.948728 0.472753 0.078819
vertex 0.934581 0.472753 0.078819
vertex 0.931586 0.472753 0.084006
endloop
endfacet
facet normal -0.000001 1.000000 -0.000009
outer loop
vertex 0.931586 0.472753 0.084006
vertex 0.951723 0.472753 0.084006
vertex 0.948728 0.472753 0.078819
endloop
endfacet
facet normal -0.000005 1.000000 0.000000
outer loop
vertex 0.934581 0.472753 0.078819
vertex 0.927508 0.472753 0.066567
vertex 0.921518 0.472753 0.066567
endloop
endfacet
facet normal 0.000000 1.000000 0.000002
outer loop
vertex 0.921518 0.472753 0.066567
vertex 0.931586 0.472753 0.084006
vertex 0.934581 0.472753 0.078819
endloop
endfacet
facet normal -0.918365 0.109092 0.380400
outer loop
vertex 0.010570 0.365953 0.066567
vertex 0.008533 0.348806 0.066567
vertex 0.023123 0.348806 0.101789
endloop
endfacet
facet normal -0.918366 0.109090 0.380400
outer loop
vertex 0.023123 0.348806 0.101789
vertex 0.024563 0.365953 0.100349
vertex 0.010570 0.365953 0.066567
endloop
endfacet
facet normal -0.380399 0.109091 0.918366
outer loop
vertex 0.024563 0.365953 0.100349
vertex 0.023123 0.348806 0.101789
vertex 0.058345 0.348806 0.116379
endloop
endfacet
facet normal -0.380400 0.109091 0.918365
outer loop
vertex 0.058345 0.348806 0.116379
vertex 0.058345 0.365953 0.114342
vertex 0.024563 0.365953 0.100349
endloop
endfacet
facet normal 0.380399 0.109091 0.918366
outer loop
vertex 0.058345 0.365953 0.114342
vertex 0.058345 0.348806 0.116379
vertex 0.093568 0.348806 0.101789
endloop
endfacet
facet normal 0.380400 0.109091 0.918366
outer loop
vertex 0.093568 0.348806 0.101789
vertex 0.092128 0.365953 0.100349
vertex 0.058345 0.365953 0.114342
endloop
endfacet
facet normal 0.918365 0.109090 0.380401
outer loop
vertex 0.092128 0.365953 0.100349
vertex 0.093568 0.348806 0.101789
vertex 0.108158 0.348806 0.066567
endloop
endfacet
facet normal 0.918366 0.109092 0.380398
outer loop
vertex 0.108158 0.348806 0.066567
vertex 0.106121 0.365953 0.066567
vertex 0.092128 0.365953 0.100349
endloop
endfacet
facet normal 0.918365 0.109093 -0.380400
outer loop
vertex 0.106121 0.365953 0.066567
vertex 0.108158 0.348806 0.066567
vertex 0.093568 0.348806 0.031344
endloop
endfacet
facet normal 0.918366 0.109090 -0.380399
outer loop
vertex 0.093568 0.348806 0.031344
vertex 0.092128 0.365953 0.032785
vertex 0.106121 0.365953 0.066567
endloop
endfacet
facet normal 0.380399 0.109091 -0.918366
outer loop
vertex 0.092128 0.365953 0.032785
vertex 0.093568 0.348806 0.031344
vertex 0.058345 0.348806 0.016755
endloop
endfacet
facet normal 0.380400 0.109091 -0.918365
outer loop
vertex 0.058345 0.348806 0.016755
vertex 0.058345 0.365953 0.018792
vertex 0.092128 0.365953 0.032785
endloop
endfacet
facet normal -0.380399 0.109091 -0.918366
outer loop
vertex 0.058345 0.365953 0.018792
vertex 0.058345 0.348806 0.016755
vertex 0.023123 0.348806 0.031344
endloop
endfacet
facet normal -0.380400 0.109091 -0.918365
outer loop
vertex 0.023123 0.348806 0.031344
vertex 0.024563 0.365953 0.032785
vertex 0.058345 0.365953 0.018792
endloop
endfacet
facet normal -0.918365 0.109090 -0.380401
outer loop
vertex 0.024563 0.365953 0.032785
vertex 0.023123 0.348806 0.031344
vertex 0.008533 0.348806 0.066567
endloop
endfacet
facet normal -0.918366 0.109092 -0.380398
outer loop
vertex 0.008533 0.348806 0.066567
vertex 0.010570 0.365953 0.066567
vertex 0.024563 0.365953 0.032785
endloop
endfacet
facet normal -0.891717 -0.261557 0.369363
outer loop
vertex 0.008533 0.348806 0.066567
vertex 0.012451 0.335450 0.066567
vertex 0.025893 0.335450 0.099019
endloop
endfacet
facet normal -0.891718 -0.261555 0.369361
outer loop
vertex 0.025893 0.335450 0.099019
vertex 0.023123 0.348806 0.101789
vertex 0.008533 0.348806 0.066567
endloop
endfacet
facet normal -0.369361 -0.261555 0.891718
outer loop
vertex 0.023123 0.348806 0.101789
vertex 0.025893 0.335450 0.099019
vertex 0.058345 0.335450 0.112462
endloop
endfacet
facet normal -0.369363 -0.261558 0.891716
outer loop
vertex 0.058345 0.335450 0.112462
vertex 0.058345 0.348806 0.116379
vertex 0.023123 0.348806 0.101789
endloop
endfacet
facet normal 0.369362 -0.261558 0.891717
outer loop
vertex 0.058345 0.348806 0.116379
vertex 0.058345 0.335450 0.112462
vertex 0.090798 0.335450 0.099019
endloop
endfacet
facet normal 0.369362 -0.261558 0.891717
outer loop
vertex 0.090798 0.335450 0.099019
vertex 0.093568 0.348806 0.101789
vertex 0.058345 0.348806 0.116379
endloop
endfacet
facet normal 0.891717 -0.261558 0.369362
outer loop
vertex 0.093568 0.348806 0.101789
vertex 0.090798 0.335450 0.099019
vertex 0.104240 0.335450 0.066567
endloop
endfacet
facet normal 0.891717 -0.261558 0.369362
outer loop
vertex 0.104240 0.335450 0.066567
vertex 0.108158 0.348806 0.066567
vertex 0.093568 0.348806 0.101789
endloop
endfacet
facet normal 0.891717 -0.261558 -0.369362
outer loop
vertex 0.108158 0.348806 0.066567
vertex 0.104240 0.335450 0.066567
vertex 0.090798 0.335450 0.034114
endloop
endfacet
facet normal 0.891717 -0.261558 -0.369362
outer loop
vertex 0.090798 0.335450 0.034114
vertex 0.093568 0.348806 0.031344
vertex 0.108158 0.348806 0.066567
endloop
endfacet
facet normal 0.369362 -0.261558 -0.891717
outer loop
vertex 0.093568 0.348806 0.031344
vertex 0.090798 0.335450 0.034114
vertex 0.058345 0.335450 0.020672
endloop
endfacet
facet normal 0.369362 -0.261558 -0.891717
outer loop
vertex 0.058345 0.335450 0.020672
vertex 0.058345 0.348806 0.016755
vertex 0.093568 0.348806 0.031344
endloop
endfacet
facet normal -0.369362 -0.261557 -0.891717
outer loop
vertex 0.058345 0.348806 0.016755
vertex 0.058345 0.335450 0.020672
vertex 0.025893 0.335450 0.034114
endloop
endfacet
facet normal -0.369363 -0.261557 -0.891717
outer loop
vertex 0.025893 0.335450 0.034114
vertex 0.023123 0.348806 0.031344
vertex 0.058345 0.348806 0.016755
endloop
endfacet
facet normal -0.891717 -0.261556 -0.369362
outer loop
vertex 0.023123 0.348806 0.031344
vertex 0.025893 0.335450 0.034114
vertex 0.012451 0.335450 0.066567
endloop
endfacet
facet normal -0.891717 -0.261557 -0.369361
outer loop
vertex 0.012451 0.335450 0.066567
vertex 0.008533 0.348806 0.066567
vertex 0.023123 0.348806 0.031344
endloop
endfacet
facet normal -0.544425 -0.807928 0.225507
outer loop
vertex 0.012451 0.335450 0.066567
vertex 0.025312 0.326784 0.066567
vertex 0.034987 0.326784 0.089925
endloop
endfacet
facet normal -0.544425 -0.807929 0.225506
outer loop
vertex 0.034987 0.326784 0.089925
vertex 0.025893 0.335450 0.099019
vertex 0.012451 0.335450 0.066567
endloop
endfacet
facet normal -0.225508 -0.807927 0.544426
outer loop
vertex 0.025893 0.335450 0.099019
vertex 0.034987 0.326784 0.089925
vertex 0.058345 0.326784 0.099600
endloop
endfacet
facet normal -0.225508 -0.807929 0.544424
outer loop
vertex 0.058345 0.326784 0.099600
vertex 0.058345 0.335450 0.112462
vertex 0.025893 0.335450 0.099019
endloop
endfacet
facet normal 0.225508 -0.807928 0.544425
outer loop
vertex 0.058345 0.335450 0.112462
vertex 0.058345 0.326784 0.099600
vertex 0.081704 0.326784 0.089925
endloop
endfacet
facet normal 0.225509 -0.807927 0.544427
outer loop
vertex 0.081704 0.326784 0.089925
vertex 0.090798 0.335450 0.099019
vertex 0.058345 0.335450 0.112462
endloop
endfacet
facet normal 0.544427 -0.807927 0.225508
outer loop
vertex 0.090798 0.335450 0.099019
vertex 0.081704 0.326784 0.089925
vertex 0.091379 0.326784 0.066567
endloop
endfacet
facet normal 0.544426 -0.807927 0.225510
outer loop
vertex 0.091379 0.326784 0.066567
vertex 0.104240 0.335450 0.066567
vertex 0.090798 0.335450 0.099019
endloop
endfacet
facet normal 0.544426 -0.807928 -0.225507
outer loop
vertex 0.104240 0.335450 0.066567
vertex 0.091379 0.326784 0.066567
vertex 0.081704 0.326784 0.043209
endloop
endfacet
facet normal 0.544426 -0.807926 -0.225510
outer loop
vertex 0.081704 0.326784 0.043209
vertex 0.090798 0.335450 0.034114
vertex 0.104240 0.335450 0.066567
endloop
endfacet
facet normal 0.225508 -0.807927 -0.544427
outer loop
vertex 0.090798 0.335450 0.034114
vertex 0.081704 0.326784 0.043209
vertex 0.058345 0.326784 0.033534
endloop
endfacet
facet normal 0.225508 -0.807927 -0.544426
outer loop
vertex 0.058345 0.326784 0.033534
vertex 0.058345 0.335450 0.020672
vertex 0.090798 0.335450 0.034114
endloop
endfacet
facet normal -0.225508 -0.807928 -0.544425
outer loop
vertex 0.058345 0.335450 0.020672
vertex 0.058345 0.326784 0.033534
vertex 0.034987 0.326784 0.043209
endloop
endfacet
facet normal -0.225508 -0.807927 -0.544427
outer loop
vertex 0.034987 0.326784 0.043209
vertex 0.025893 0.335450 0.034114
vertex 0.058345 0.335450 0.020672
endloop
endfacet
facet normal -0.544426 -0.807928 -0.225507
outer loop
vertex 0.025893 0.335450 0.034114
vertex 0.034987 0.326784 0.043209
vertex 0.025312 0.326784 0.066567
endloop
endfacet
facet normal -0.544425 -0.807928 -0.225508
outer loop
vertex 0.025312 0.326784 0.066567
vertex 0.012451 0.335450 0.066567
vertex 0.025893 0.335450 0.034114
endloop
endfacet
facet normal -0.783448 0.529998 0.324516
outer loop
vertex 0.019189 0.378693 0.066567
vertex 0.010570 0.365953 0.066567
vertex 0.024563 0.365953 0.100349
endloop
endfacet
facet normal -0.783449 0.529998 0.324514
outer loop
vertex 0.024563 0.365953 0.100349
vertex 0.030658 0.378693 0.094255
vertex 0.019189 0.378693 0.066567
endloop
endfacet
facet normal -0.324516 0.529999 0.783448
outer loop
vertex 0.030658 0.378693 0.094255
vertex 0.024563 0.365953 0.100349
vertex 0.058345 0.365953 0.114342
endloop
endfacet
facet normal -0.324516 0.529999 0.783448
outer loop
vertex 0.058345 0.365953 0.114342
vertex 0.058345 0.378693 0.105723
vertex 0.030658 0.378693 0.094255
endloop
endfacet
facet normal 0.324514 0.529998 0.783449
outer loop
vertex 0.058345 0.378693 0.105723
vertex 0.058345 0.365953 0.114342
vertex 0.092128 0.365953 0.100349
endloop
endfacet
facet normal 0.324515 0.529998 0.783449
outer loop
vertex 0.092128 0.365953 0.100349
vertex 0.086033 0.378693 0.094255
vertex 0.058345 0.378693 0.105723
endloop
endfacet
facet normal 0.783449 0.529999 0.324515
outer loop
vertex 0.086033 0.378693 0.094255
vertex 0.092128 0.365953 0.100349
vertex 0.106121 0.365953 0.066567
endloop
endfacet
facet normal 0.783449 0.529998 0.324514
outer loop
vertex 0.106121 0.365953 0.066567
vertex 0.097502 0.378693 0.066567
vertex 0.086033 0.378693 0.094255
endloop
endfacet
facet normal 0.783448 0.529998 -0.324516
outer loop
vertex 0.097502 0.378693 0.066567
vertex 0.106121 0.365953 0.066567
vertex 0.092128 0.365953 0.032785
endloop
endfacet
facet normal 0.783449 0.529998 -0.324514
outer loop
vertex 0.092128 0.365953 0.032785
vertex 0.086033 0.378693 0.038879
vertex 0.097502 0.378693 0.066567
endloop
endfacet
facet normal 0.324515 0.529998 -0.783449
outer loop
vertex 0.086033 0.378693 0.038879
vertex 0.092128 0.365953 0.032785
vertex 0.058345 0.365953 0.018792
endloop
endfacet
facet normal 0.324516 0.530000 -0.783447
outer loop
vertex 0.058345 0.365953 0.018792
vertex 0.058345 0.378693 0.027410
vertex 0.086033 0.378693 0.038879
endloop
endfacet
facet normal -0.324516 0.529999 -0.783448
outer loop
vertex 0.058345 0.378693 0.027410
vertex 0.058345 0.365953 0.018792
vertex 0.024563 0.365953 0.032785
endloop
endfacet
facet normal -0.324515 0.529998 -0.783449
outer loop
vertex 0.024563 0.365953 0.032785
vertex 0.030658 0.378693 0.038879
vertex 0.058345 0.378693 0.027410
endloop
endfacet
facet normal -0.783449 0.529998 -0.324515
outer loop
vertex 0.030658 0.378693 0.038879
vertex 0.024563 0.365953 0.032785
vertex 0.010570 0.365953 0.066567
endloop
endfacet
facet normal -0.783449 0.529999 -0.324514
outer loop
vertex 0.010570 0.365953 0.066567
vertex 0.019189 0.378693 0.066567
vertex 0.030658 0.378693 0.038879
endloop
endfacet
facet normal -0.587226 0.772011 0.243237
outer loop
vertex 0.033751 0.389770 0.066567
vertex 0.019189 0.378693 0.066567
vertex 0.030658 0.378693 0.094255
endloop
endfacet
facet normal -0.587226 0.772011 0.243237
outer loop
vertex 0.030658 0.378693 0.094255
vertex 0.040955 0.389770 0.083958
vertex 0.033751 0.389770 0.066567
endloop
endfacet
facet normal -0.243237 0.772011 0.587226
outer loop
vertex 0.040955 0.389770 0.083958
vertex 0.030658 0.378693 0.094255
vertex 0.058345 0.378693 0.105723
endloop
endfacet
facet normal -0.243237 0.772011 0.587226
outer loop
vertex 0.058345 0.378693 0.105723
vertex 0.058345 0.389770 0.091161
vertex 0.040955 0.389770 0.083958
endloop
endfacet
facet normal 0.243237 0.772011 0.587226
outer loop
vertex 0.058345 0.389770 0.091161
vertex 0.058345 0.378693 0.105723
vertex 0.086033 0.378693 0.094255
endloop
endfacet
facet normal 0.243236 0.772010 0.587228
outer loop
vertex 0.086033 0.378693 0.094255
vertex 0.075736 0.389770 0.083958
vertex 0.058345 0.389770 0.091161
endloop
endfacet
facet normal 0.587225 0.772012 0.243237
outer loop
vertex 0.075736 0.389770 0.083958
vertex 0.086033 0.378693 0.094255
vertex 0.097502 0.378693 0.066567
endloop
endfacet
facet normal 0.587226 0.772011 0.243237
outer loop
vertex 0.097502 0.378693 0.066567
vertex 0.082940 0.389770 0.066567
vertex 0.075736 0.389770 0.083958
endloop
endfacet
facet normal 0.587226 0.772011 -0.243237
outer loop
vertex 0.082940 0.389770 0.066567
vertex 0.097502 0.378693 0.066567
vertex 0.086033 0.378693 0.038879
endloop
endfacet
facet normal 0.587225 0.772012 -0.243237
outer loop
vertex 0.086033 0.378693 0.038879
vertex 0.075736 0.389770 0.049176
vertex 0.082940 0.389770 0.066567
endloop
endfacet
facet normal 0.243237 0.772012 -0.587226
outer loop
vertex 0.075736 0.389770 0.049176
vertex 0.086033 0.378693 0.038879
vertex 0.058345 0.378693 0.027410
endloop
endfacet
facet normal 0.243237 0.772011 -0.587226
outer loop
vertex 0.058345 0.378693 0.027410
vertex 0.058345 0.389770 0.041973
vertex 0.075736 0.389770 0.049176
endloop
endfacet
facet normal -0.243237 0.772011 -0.587226
outer loop
vertex 0.058345 0.389770 0.041973
vertex 0.058345 0.378693 0.027410
vertex 0.030658 0.378693 0.038879
endloop
endfacet
facet normal -0.243237 0.772011 -0.587227
outer loop
vertex 0.030658 0.378693 0.038879
vertex 0.040955 0.389770 0.049176
vertex 0.058345 0.389770 0.041973
endloop
endfacet
facet normal -0.587226 0.772011 -0.243239
outer loop
vertex 0.040955 0.389770 0.049176
vertex 0.030658 0.378693 0.038879
vertex 0.019189 0.378693 0.066567
endloop
endfacet
facet normal -0.587227 0.772012 -0.243234
outer loop
vertex 0.019189 0.378693 0.066567
vertex 0.033751 0.389770 0.066567
vertex 0.040955 0.389770 0.049176
endloop
endfacet
facet normal -0.696964 0.656428 0.288691
outer loop
vertex 0.045086 0.401804 0.066567
vertex 0.033751 0.389770 0.066567
vertex 0.040955 0.389770 0.083958
endloop
endfacet
facet normal -0.696965 0.656428 0.288692
outer loop
vertex 0.040955 0.389770 0.083958
vertex 0.048969 0.401804 0.075943
vertex 0.045086 0.401804 0.066567
endloop
endfacet
facet normal -0.288693 0.656429 0.696964
outer loop
vertex 0.048969 0.401804 0.075943
vertex 0.040955 0.389770 0.083958
vertex 0.058345 0.389770 0.091161
endloop
endfacet
facet normal -0.288692 0.656427 0.696965
outer loop
vertex 0.058345 0.389770 0.091161
vertex 0.058345 0.401804 0.079827
vertex 0.048969 0.401804 0.075943
endloop
endfacet
facet normal 0.288692 0.656429 0.696964
outer loop
vertex 0.058345 0.401804 0.079827
vertex 0.058345 0.389770 0.091161
vertex 0.075736 0.389770 0.083958
endloop
endfacet
facet normal 0.288691 0.656429 0.696964
outer loop
vertex 0.075736 0.389770 0.083958
vertex 0.067721 0.401804 0.075943
vertex 0.058345 0.401804 0.079827
endloop
endfacet
facet normal 0.696964 0.656428 0.288692
outer loop
vertex 0.067721 0.401804 0.075943
vertex 0.075736 0.389770 0.083958
vertex 0.082940 0.389770 0.066567
endloop
endfacet
facet normal 0.696964 0.656430 0.288690
outer loop
vertex 0.082940 0.389770 0.066567
vertex 0.071605 0.401804 0.066567
vertex 0.067721 0.401804 0.075943
endloop
endfacet
facet normal 0.696964 0.656429 -0.288691
outer loop
vertex 0.071605 0.401804 0.066567
vertex 0.082940 0.389770 0.066567
vertex 0.075736 0.389770 0.049176
endloop
endfacet
facet normal 0.696966 0.656426 -0.288692
outer loop
vertex 0.075736 0.389770 0.049176
vertex 0.067721 0.401804 0.057191
vertex 0.071605 0.401804 0.066567
endloop
endfacet
facet normal 0.288692 0.656429 -0.696964
outer loop
vertex 0.067721 0.401804 0.057191
vertex 0.075736 0.389770 0.049176
vertex 0.058345 0.389770 0.041973
endloop
endfacet
facet normal 0.288692 0.656428 -0.696964
outer loop
vertex 0.058345 0.389770 0.041973
vertex 0.058345 0.401804 0.053307
vertex 0.067721 0.401804 0.057191
endloop
endfacet
facet normal -0.288692 0.656429 -0.696964
outer loop
vertex 0.058345 0.401804 0.053307
vertex 0.058345 0.389770 0.041973
vertex 0.040955 0.389770 0.049176
endloop
endfacet
facet normal -0.288692 0.656428 -0.696964
outer loop
vertex 0.040955 0.389770 0.049176
vertex 0.048969 0.401804 0.057191
vertex 0.058345 0.401804 0.053307
endloop
endfacet
facet normal -0.696964 0.656429 -0.288690
outer loop
vertex 0.048969 0.401804 0.057191
vertex 0.040955 0.389770 0.049176
vertex 0.033751 0.389770 0.066567
endloop
endfacet
facet normal -0.696963 0.656428 -0.288695
outer loop
vertex 0.033751 0.389770 0.066567
vertex 0.045086 0.401804 0.066567
vertex 0.048969 0.401804 0.057191
endloop
endfacet
facet normal -0.912325 0.157668 0.377895
outer loop
vertex 0.049215 0.425697 0.066567
vertex 0.045086 0.401804 0.066567
vertex 0.048969 0.401804 0.075943
endloop
endfacet
facet normal -0.912326 0.157667 0.377893
outer loop
vertex 0.048969 0.401804 0.075943
vertex 0.051889 0.425697 0.073023
vertex 0.049215 0.425697 0.066567
endloop
endfacet
facet normal -0.377897 0.157668 0.912324
outer loop
vertex 0.051889 0.425697 0.073023
vertex 0.048969 0.401804 0.075943
vertex 0.058345 0.401804 0.079827
endloop
endfacet
facet normal -0.377899 0.157668 0.912323
outer loop
vertex 0.058345 0.401804 0.079827
vertex 0.058345 0.425697 0.075697
vertex 0.051889 0.425697 0.073023
endloop
endfacet
facet normal 0.377897 0.157668 0.912324
outer loop
vertex 0.058345 0.425697 0.075697
vertex 0.058345 0.401804 0.079827
vertex 0.067721 0.401804 0.075943
endloop
endfacet
facet normal 0.377893 0.157668 0.912326
outer loop
vertex 0.067721 0.401804 0.075943
vertex 0.064802 0.425697 0.073023
vertex 0.058345 0.425697 0.075697
endloop
endfacet
facet normal 0.912324 0.157668 0.377895
outer loop
vertex 0.064802 0.425697 0.073023
vertex 0.067721 0.401804 0.075943
vertex 0.071605 0.401804 0.066567
endloop
endfacet
facet normal 0.912325 0.157666 0.377896
outer loop
vertex 0.071605 0.401804 0.066567
vertex 0.067476 0.425697 0.066567
vertex 0.064802 0.425697 0.073023
endloop
endfacet
facet normal 0.912326 0.157667 -0.377893
outer loop
vertex 0.067476 0.425697 0.066567
vertex 0.071605 0.401804 0.066567
vertex 0.067721 0.401804 0.057191
endloop
endfacet
facet normal 0.912324 0.157669 -0.377896
outer loop
vertex 0.067721 0.401804 0.057191
vertex 0.064802 0.425697 0.060111
vertex 0.067476 0.425697 0.066567
endloop
endfacet
facet normal 0.377897 0.157668 -0.912324
outer loop
vertex 0.064802 0.425697 0.060111
vertex 0.067721 0.401804 0.057191
vertex 0.058345 0.401804 0.053307
endloop
endfacet
facet normal 0.377897 0.157668 -0.912324
outer loop
vertex 0.058345 0.401804 0.053307
vertex 0.058345 0.425697 0.057436
vertex 0.064802 0.425697 0.060111
endloop
endfacet
facet normal -0.377897 0.157668 -0.912324
outer loop
vertex 0.058345 0.425697 0.057436
vertex 0.058345 0.401804 0.053307
vertex 0.048969 0.401804 0.057191
endloop
endfacet
facet normal -0.377896 0.157668 -0.912324
outer loop
vertex 0.048969 0.401804 0.057191
vertex 0.051889 0.425697 0.060111
vertex 0.058345 0.425697 0.057436
endloop
endfacet
facet normal -0.912324 0.157667 -0.377895
outer loop
vertex 0.051889 0.425697 0.060111
vertex 0.048969 0.401804 0.057191
vertex 0.045086 0.401804 0.066567
endloop
endfacet
facet normal -0.912325 0.157668 -0.377894
outer loop
vertex 0.045086 0.401804 0.066567
vertex 0.049215 0.425697 0.066567
vertex 0.051889 0.425697 0.060111
endloop
endfacet
facet normal -0.737336 -0.602543 0.305413
outer loop
vertex 0.040921 0.435846 0.066567
vertex 0.049215 0.425697 0.066567
vertex 0.051889 0.425697 0.073023
endloop
endfacet
facet normal -0.737337 -0.602542 0.305413
outer loop
vertex 0.051889 0.425697 0.073023
vertex 0.046025 0.435846 0.078888
vertex 0.040921 0.435846 0.066567
endloop
endfacet
facet normal -0.305416 -0.602540 0.737337
outer loop
vertex 0.046025 0.435846 0.078888
vertex 0.051889 0.425697 0.073023
vertex 0.058345 0.425697 0.075697
endloop
endfacet
facet normal -0.305417 -0.602545 0.737333
outer loop
vertex 0.058345 0.425697 0.075697
vertex 0.058345 0.435846 0.083991
vertex 0.046025 0.435846 0.078888
endloop
endfacet
facet normal 0.305413 -0.602542 0.737337
outer loop
vertex 0.058345 0.435846 0.083991
vertex 0.058345 0.425697 0.075697
vertex 0.064802 0.425697 0.073023
endloop
endfacet
facet normal 0.305415 -0.602545 0.737334
outer loop
vertex 0.064802 0.425697 0.073023
vertex 0.070666 0.435846 0.078888
vertex 0.058345 0.435846 0.083991
endloop
endfacet
facet normal 0.737336 -0.602542 0.305415
outer loop
vertex 0.070666 0.435846 0.078888
vertex 0.064802 0.425697 0.073023
vertex 0.067476 0.425697 0.066567
endloop
endfacet
facet normal 0.737338 -0.602542 0.305413
outer loop
vertex 0.067476 0.425697 0.066567
vertex 0.075770 0.435846 0.066567
vertex 0.070666 0.435846 0.078888
endloop
endfacet
facet normal 0.737336 -0.602541 -0.305416
outer loop
vertex 0.075770 0.435846 0.066567
vertex 0.067476 0.425697 0.066567
vertex 0.064802 0.425697 0.060111
endloop
endfacet
facet normal 0.737337 -0.602544 -0.305410
outer loop
vertex 0.064802 0.425697 0.060111
vertex 0.070666 0.435846 0.054246
vertex 0.075770 0.435846 0.066567
endloop
endfacet
facet normal 0.305412 -0.602539 -0.737340
outer loop
vertex 0.070666 0.435846 0.054246
vertex 0.064802 0.425697 0.060111
vertex 0.058345 0.425697 0.057436
endloop
endfacet
facet normal 0.305416 -0.602546 -0.737333
outer loop
vertex 0.058345 0.425697 0.057436
vertex 0.058345 0.435846 0.049143
vertex 0.070666 0.435846 0.054246
endloop
endfacet
facet normal -0.305412 -0.602541 -0.737338
outer loop
vertex 0.058345 0.435846 0.049143
vertex 0.058345 0.425697 0.057436
vertex 0.051889 0.425697 0.060111
endloop
endfacet
facet normal -0.305415 -0.602545 -0.737334
outer loop
vertex 0.051889 0.425697 0.060111
vertex 0.046025 0.435846 0.054246
vertex 0.058345 0.435846 0.049143
endloop
endfacet
facet normal -0.737338 -0.602542 -0.305412
outer loop
vertex 0.046025 0.435846 0.054246
vertex 0.051889 0.425697 0.060111
vertex 0.049215 0.425697 0.066567
endloop
endfacet
facet normal -0.737336 -0.602543 -0.305415
outer loop
vertex 0.049215 0.425697 0.066567
vertex 0.040921 0.435846 0.066567
vertex 0.046025 0.435846 0.054246
endloop
endfacet
facet normal 0.000000 1.000000 0.000000
outer loop
vertex 0.046160 0.435846 0.066567
vertex 0.040921 0.435846 0.066567
vertex 0.046025 0.435846 0.078888
endloop
endfacet
facet normal 0.000000 1.000000 0.000000
outer loop
vertex 0.046025 0.435846 0.078888
vertex 0.049729 0.435846 0.075183
vertex 0.046160 0.435846 0.066567
endloop
endfacet
facet normal 0.000000 1.000000 0.000000
outer loop
vertex 0.049729 0.435846 0.075183
vertex 0.046025 0.435846 0.078888
vertex 0.058345 0.435846 0.083991
endloop
endfacet
facet normal 0.000000 1.000000 0.000000
outer loop
vertex 0.058345 0.435846 0.083991
vertex 0.058345 0.435846 0.078752
vertex 0.049729 0.435846 0.075183
endloop
endfacet
facet normal 0.000000 1.000000 0.000000
outer loop
vertex 0.058345 0.435846 0.078752
vertex 0.058345 0.435846 0.083991
vertex 0.070666 0.435846 0.078888
endloop
endfacet
facet normal 0.000000 1.000000 0.000000
outer loop
vertex 0.070666 0.435846 0.078888
vertex 0.066961 0.435846 0.075183
vertex 0.058345 0.435846 0.078752
endloop
endfacet
facet normal 0.000000 1.000000 0.000000
outer loop
vertex 0.066961 0.435846 0.075183
vertex 0.070666 0.435846 0.078888
vertex 0.075770 0.435846 0.066567
endloop
endfacet
facet normal 0.000000 1.000000 0.000000
outer loop
vertex 0.075770 0.435846 0.066567
vertex 0.070530 0.435846 0.066567
vertex 0.066961 0.435846 0.075183
endloop
endfacet
facet normal 0.000000 1.000000 -0.000007
outer loop
vertex 0.070530 0.435846 0.066567
vertex 0.075770 0.435846 0.066567
vertex 0.070666 0.435846 0.054246
endloop
endfacet
facet normal 0.000000 1.000000 0.000000
outer loop
vertex 0.070666 0.435846 0.054246
vertex 0.066962 0.435846 0.057951
vertex 0.070530 0.435846 0.066567
endloop
endfacet
facet normal 0.000000 1.000000 0.000000
outer loop
vertex 0.066962 0.435846 0.057951
vertex 0.070666 0.435846 0.054246
vertex 0.058345 0.435846 0.049143
endloop
endfacet
facet normal 0.000000 1.000000 0.000000
outer loop
vertex 0.058345 0.435846 0.049143
vertex 0.058345 0.435846 0.054382
vertex 0.066962 0.435846 0.057951
endloop
endfacet
facet normal 0.000000 1.000000 0.000000
outer loop
vertex 0.058345 0.435846 0.054382
vertex 0.058345 0.435846 0.049143
vertex 0.046025 0.435846 0.054246
endloop
endfacet
facet normal 0.000000 1.000000 -0.000010
outer loop
vertex 0.046025 0.435846 0.054246
vertex 0.049729 0.435846 0.057951
vertex 0.058345 0.435846 0.054382
endloop
endfacet
facet normal 0.000000 1.000000 0.000000
outer loop
vertex 0.049729 0.435846 0.057951
vertex 0.046025 0.435846 0.054246
vertex 0.040921 0.435846 0.066567
endloop
endfacet
facet normal 0.000000 1.000000 -0.000005
outer loop
vertex 0.040921 0.435846 0.066567
vertex 0.046160 0.435846 0.066567
vertex 0.049729 0.435846 0.057951
endloop
endfacet
endsolid Exported from Blender-2.76 (sub 0)
