solid Exported from Blender-2.76 (sub 0)
facet normal 0.008378 0.143475 -0.989618
outer loop
vertex 0.149058 0.900784 0.072095
vertex 0.009327 0.891975 0.069635
vertex 0.011920 0.985232 0.083178
endloop
endfacet
facet normal -0.032243 0.078399 -0.996400
outer loop
vertex 0.011920 0.985232 0.083178
vertex 0.163299 0.983131 0.078114
vertex 0.149058 0.900784 0.072095
endloop
endfacet
facet normal 0.063907 -0.995889 -0.064192
outer loop
vertex 0.000000 0.888889 0.108235
vertex 0.009327 0.891975 0.069635
vertex 0.149058 0.900784 0.072095
endloop
endfacet
facet normal -0.000000 -0.949875 -0.312631
outer loop
vertex 0.149058 0.900784 0.072095
vertex 0.166667 0.888889 0.108235
vertex 0.000000 0.888889 0.108235
endloop
endfacet
facet normal -0.876773 0.092899 -0.471846
outer loop
vertex -0.000000 1.000000 0.108235
vertex 0.011920 0.985232 0.083178
vertex 0.009327 0.891975 0.069635
endloop
endfacet
facet normal -0.972025 -0.000000 -0.234878
outer loop
vertex 0.009327 0.891975 0.069635
vertex 0.000000 0.888889 0.108235
vertex -0.000000 1.000000 0.108235
endloop
endfacet
facet normal -0.004221 0.872686 -0.488264
outer loop
vertex 0.166667 1.000000 0.108235
vertex 0.163299 0.983131 0.078114
vertex 0.011920 0.985232 0.083178
endloop
endfacet
facet normal 0.000000 0.861510 -0.507741
outer loop
vertex 0.011920 0.985232 0.083178
vertex -0.000000 1.000000 0.108235
vertex 0.166667 1.000000 0.108235
endloop
endfacet
facet normal 0.876948 -0.117598 -0.465976
outer loop
vertex 0.166667 0.888889 0.108235
vertex 0.149058 0.900784 0.072095
vertex 0.163299 0.983131 0.078114
endloop
endfacet
facet normal 0.993808 -0.000000 -0.111109
outer loop
vertex 0.163299 0.983131 0.078114
vertex 0.166667 1.000000 0.108235
vertex 0.166667 0.888889 0.108235
endloop
endfacet
facet normal 0.145981 0.144848 -0.978626
outer loop
vertex 0.157679 0.013281 0.091658
vertex 0.015808 0.007218 0.069598
vertex 0.026486 0.105387 0.085721
endloop
endfacet
facet normal -0.097457 -0.201639 -0.974599
outer loop
vertex 0.026486 0.105387 0.085721
vertex 0.156500 0.101149 0.073596
vertex 0.157679 0.013281 0.091658
endloop
endfacet
facet normal 0.066503 -0.985376 -0.156879
outer loop
vertex 0.000000 0.000000 0.108235
vertex 0.015808 0.007218 0.069598
vertex 0.157679 0.013281 0.091658
endloop
endfacet
facet normal 0.000000 -0.780432 -0.625241
outer loop
vertex 0.157679 0.013281 0.091658
vertex 0.166667 0.000000 0.108235
vertex 0.000000 0.000000 0.108235
endloop
endfacet
facet normal -0.611059 0.192567 -0.767806
outer loop
vertex 0.000000 0.111111 0.108235
vertex 0.026486 0.105387 0.085721
vertex 0.015808 0.007218 0.069598
endloop
endfacet
facet normal -0.925530 0.000000 -0.378674
outer loop
vertex 0.015808 0.007218 0.069598
vertex 0.000000 0.000000 0.108235
vertex 0.000000 0.111111 0.108235
endloop
endfacet
facet normal 0.005398 0.960607 -0.277857
outer loop
vertex 0.166667 0.111111 0.108235
vertex 0.156500 0.101149 0.073596
vertex 0.026486 0.105387 0.085721
endloop
endfacet
facet normal -0.000000 0.969163 -0.246420
outer loop
vertex 0.026486 0.105387 0.085721
vertex 0.000000 0.111111 0.108235
vertex 0.166667 0.111111 0.108235
endloop
endfacet
facet normal 0.839621 -0.098530 -0.534161
outer loop
vertex 0.166667 0.000000 0.108235
vertex 0.157679 0.013281 0.091658
vertex 0.156500 0.101149 0.073596
endloop
endfacet
facet normal 0.959521 -0.000000 -0.281638
outer loop
vertex 0.156500 0.101149 0.073596
vertex 0.166667 0.111111 0.108235
vertex 0.166667 0.000000 0.108235
endloop
endfacet
facet normal -0.062713 0.029492 -0.997596
outer loop
vertex 0.148123 0.117948 0.069185
vertex 0.013150 0.120895 0.077757
vertex 0.013229 0.197440 0.080015
endloop
endfacet
facet normal -0.016489 0.107452 -0.994074
outer loop
vertex 0.013229 0.197440 0.080015
vertex 0.151877 0.213261 0.079425
vertex 0.148123 0.117948 0.069185
endloop
endfacet
facet normal -0.041072 -0.946045 -0.321421
outer loop
vertex 0.000000 0.111111 0.108235
vertex 0.013150 0.120895 0.077757
vertex 0.148123 0.117948 0.069185
endloop
endfacet
facet normal 0.000000 -0.985018 -0.172452
outer loop
vertex 0.148123 0.117948 0.069185
vertex 0.166667 0.111111 0.108235
vertex 0.000000 0.111111 0.108235
endloop
endfacet
facet normal -0.900671 0.013742 -0.434285
outer loop
vertex 0.000000 0.222222 0.108235
vertex 0.013229 0.197440 0.080015
vertex 0.013150 0.120895 0.077757
endloop
endfacet
facet normal -0.918184 0.000000 -0.396155
outer loop
vertex 0.013150 0.120895 0.077757
vertex 0.000000 0.111111 0.108235
vertex 0.000000 0.222222 0.108235
endloop
endfacet
facet normal -0.111004 0.963713 -0.242767
outer loop
vertex 0.166667 0.222222 0.108235
vertex 0.151877 0.213261 0.079425
vertex 0.013229 0.197440 0.080015
endloop
endfacet
facet normal -0.000000 0.751394 -0.659854
outer loop
vertex 0.013229 0.197440 0.080015
vertex 0.000000 0.222222 0.108235
vertex 0.166667 0.222222 0.108235
endloop
endfacet
facet normal 0.903971 0.010322 -0.427468
outer loop
vertex 0.166667 0.111111 0.108235
vertex 0.148123 0.117948 0.069185
vertex 0.151877 0.213261 0.079425
endloop
endfacet
facet normal 0.889621 0.000000 -0.456700
outer loop
vertex 0.151877 0.213261 0.079425
vertex 0.166667 0.222222 0.108235
vertex 0.166667 0.111111 0.108235
endloop
endfacet
facet normal 0.009636 0.113839 -0.993452
outer loop
vertex 0.155823 0.230529 0.074978
vertex 0.010716 0.231132 0.073640
vertex 0.017253 0.323262 0.084260
endloop
endfacet
facet normal -0.099210 -0.048767 -0.993871
outer loop
vertex 0.017253 0.323262 0.084260
vertex 0.151998 0.322595 0.070842
vertex 0.155823 0.230529 0.074978
endloop
endfacet
facet normal -0.001722 -0.968266 -0.249915
outer loop
vertex 0.000000 0.222222 0.108235
vertex 0.010716 0.231132 0.073640
vertex 0.155823 0.230529 0.074978
endloop
endfacet
facet normal 0.000000 -0.970194 -0.242328
outer loop
vertex 0.155823 0.230529 0.074978
vertex 0.166667 0.222222 0.108235
vertex 0.000000 0.222222 0.108235
endloop
endfacet
facet normal -0.779344 0.126052 -0.613787
outer loop
vertex 0.000000 0.333333 0.108235
vertex 0.017253 0.323262 0.084260
vertex 0.010716 0.231132 0.073640
endloop
endfacet
facet normal -0.955223 -0.000000 -0.295887
outer loop
vertex 0.010716 0.231132 0.073640
vertex 0.000000 0.222222 0.108235
vertex 0.000000 0.333333 0.108235
endloop
endfacet
facet normal -0.021920 0.963169 -0.268003
outer loop
vertex 0.166667 0.333333 0.108235
vertex 0.151998 0.322595 0.070842
vertex 0.017253 0.323262 0.084260
endloop
endfacet
facet normal 0.000000 0.921954 -0.387299
outer loop
vertex 0.017253 0.323262 0.084260
vertex 0.000000 0.333333 0.108235
vertex 0.166667 0.333333 0.108235
endloop
endfacet
facet normal 0.952309 0.025908 -0.304034
outer loop
vertex 0.166667 0.222222 0.108235
vertex 0.155823 0.230529 0.074978
vertex 0.151998 0.322595 0.070842
endloop
endfacet
facet normal 0.930932 0.000000 -0.365192
outer loop
vertex 0.151998 0.322595 0.070842
vertex 0.166667 0.333333 0.108235
vertex 0.166667 0.222222 0.108235
endloop
endfacet
facet normal 0.194981 -0.068143 -0.978437
outer loop
vertex 0.150683 0.338975 0.096527
vertex 0.012353 0.353252 0.067966
vertex 0.022808 0.430408 0.064676
endloop
endfacet
facet normal 0.033040 -0.287259 -0.957283
outer loop
vertex 0.022808 0.430408 0.064676
vertex 0.157527 0.430040 0.069437
vertex 0.150683 0.338975 0.096527
endloop
endfacet
facet normal -0.000916 -0.896225 -0.443600
outer loop
vertex 0.000000 0.333333 0.108235
vertex 0.012353 0.353252 0.067966
vertex 0.150683 0.338975 0.096527
endloop
endfacet
facet normal -0.000000 -0.900884 -0.434059
outer loop
vertex 0.150683 0.338975 0.096527
vertex 0.166667 0.333333 0.108235
vertex 0.000000 0.333333 0.108235
endloop
endfacet
facet normal -0.868545 0.096972 -0.486030
outer loop
vertex 0.000000 0.444444 0.108235
vertex 0.022808 0.430408 0.064676
vertex 0.012353 0.353252 0.067966
endloop
endfacet
facet normal -0.956031 0.000000 -0.293267
outer loop
vertex 0.012353 0.353252 0.067966
vertex 0.000000 0.333333 0.108235
vertex 0.000000 0.444444 0.108235
endloop
endfacet
facet normal 0.014967 0.936213 -0.351116
outer loop
vertex 0.166667 0.444444 0.108235
vertex 0.157527 0.430040 0.069437
vertex 0.022808 0.430408 0.064676
endloop
endfacet
facet normal 0.000000 0.951803 -0.306711
outer loop
vertex 0.022808 0.430408 0.064676
vertex 0.000000 0.444444 0.108235
vertex 0.166667 0.444444 0.108235
endloop
endfacet
facet normal 0.500531 -0.281192 -0.818779
outer loop
vertex 0.166667 0.333333 0.108235
vertex 0.150683 0.338975 0.096527
vertex 0.157527 0.430040 0.069437
endloop
endfacet
facet normal 0.973360 0.000000 -0.229280
outer loop
vertex 0.157527 0.430040 0.069437
vertex 0.166667 0.444444 0.108235
vertex 0.166667 0.333333 0.108235
endloop
endfacet
facet normal -0.186536 -0.245983 -0.951155
outer loop
vertex 0.140714 0.469193 0.067965
vertex 0.043416 0.463230 0.088589
vertex 0.012412 0.546912 0.073028
endloop
endfacet
facet normal 0.128092 0.273555 -0.953289
outer loop
vertex 0.012412 0.546912 0.073028
vertex 0.143602 0.544526 0.089971
vertex 0.140714 0.469193 0.067965
endloop
endfacet
facet normal -0.143104 -0.538029 -0.830690
outer loop
vertex 0.000000 0.444444 0.108235
vertex 0.043416 0.463230 0.088589
vertex 0.140714 0.469193 0.067965
endloop
endfacet
facet normal -0.000000 -0.851974 -0.523585
outer loop
vertex 0.140714 0.469193 0.067965
vertex 0.166667 0.444444 0.108235
vertex 0.000000 0.444444 0.108235
endloop
endfacet
facet normal -0.899303 -0.375028 -0.224964
outer loop
vertex 0.000000 0.555556 0.108235
vertex 0.012412 0.546912 0.073028
vertex 0.043416 0.463230 0.088589
endloop
endfacet
facet normal -0.412271 0.000000 -0.911061
outer loop
vertex 0.043416 0.463230 0.088589
vertex 0.000000 0.444444 0.108235
vertex 0.000000 0.555556 0.108235
endloop
endfacet
facet normal 0.091592 0.797026 -0.596959
outer loop
vertex 0.166667 0.555556 0.108235
vertex 0.143602 0.544526 0.089971
vertex 0.012412 0.546912 0.073028
endloop
endfacet
facet normal 0.000000 0.971160 -0.238428
outer loop
vertex 0.012412 0.546912 0.073028
vertex 0.000000 0.555556 0.108235
vertex 0.166667 0.555556 0.108235
endloop
endfacet
facet normal 0.864860 0.109921 -0.489831
outer loop
vertex 0.166667 0.444444 0.108235
vertex 0.140714 0.469193 0.067965
vertex 0.143602 0.544526 0.089971
endloop
endfacet
facet normal 0.620808 0.000000 -0.783963
outer loop
vertex 0.143602 0.544526 0.089971
vertex 0.166667 0.555556 0.108235
vertex 0.166667 0.444444 0.108235
endloop
endfacet
facet normal -0.010870 0.032165 -0.999424
outer loop
vertex 0.149778 0.563725 0.066614
vertex 0.014030 0.559735 0.067962
vertex 0.010231 0.658704 0.071188
endloop
endfacet
facet normal 0.001444 0.050224 -0.998737
outer loop
vertex 0.010231 0.658704 0.071188
vertex 0.156738 0.657014 0.071315
vertex 0.149778 0.563725 0.066614
endloop
endfacet
facet normal 0.028324 -0.995225 -0.093409
outer loop
vertex 0.000000 0.555556 0.108235
vertex 0.014030 0.559735 0.067962
vertex 0.149778 0.563725 0.066614
endloop
endfacet
facet normal -0.000000 -0.981278 -0.192598
outer loop
vertex 0.149778 0.563725 0.066614
vertex 0.166667 0.555556 0.108235
vertex 0.000000 0.555556 0.108235
endloop
endfacet
facet normal -0.965080 -0.028551 -0.260393
outer loop
vertex 0.000000 0.666667 0.108235
vertex 0.010231 0.658704 0.071188
vertex 0.014030 0.559735 0.067962
endloop
endfacet
facet normal -0.944340 0.000000 -0.328973
outer loop
vertex 0.014030 0.559735 0.067962
vertex 0.000000 0.555556 0.108235
vertex 0.000000 0.666667 0.108235
endloop
endfacet
facet normal 0.011374 0.966666 -0.255788
outer loop
vertex 0.166667 0.666667 0.108235
vertex 0.156738 0.657014 0.071315
vertex 0.010231 0.658704 0.071188
endloop
endfacet
facet normal 0.000000 0.977675 -0.210123
outer loop
vertex 0.010231 0.658704 0.071188
vertex 0.000000 0.666667 0.108235
vertex 0.166667 0.666667 0.108235
endloop
endfacet
facet normal 0.922071 -0.049449 -0.383850
outer loop
vertex 0.166667 0.555556 0.108235
vertex 0.149778 0.563725 0.066614
vertex 0.156738 0.657014 0.071315
endloop
endfacet
facet normal 0.965692 -0.000000 -0.259692
outer loop
vertex 0.156738 0.657014 0.071315
vertex 0.166667 0.666667 0.108235
vertex 0.166667 0.555556 0.108235
endloop
endfacet
facet normal -0.126583 -0.067727 -0.989641
outer loop
vertex 0.159851 0.671781 0.061023
vertex 0.014320 0.673268 0.079535
vertex 0.011729 0.768901 0.073322
endloop
endfacet
facet normal 0.040339 0.185853 -0.981749
outer loop
vertex 0.011729 0.768901 0.073322
vertex 0.159663 0.764004 0.078474
vertex 0.159851 0.671781 0.061023
endloop
endfacet
facet normal -0.040850 -0.969093 -0.243289
outer loop
vertex 0.000000 0.666667 0.108235
vertex 0.014320 0.673268 0.079535
vertex 0.159851 0.671781 0.061023
endloop
endfacet
facet normal 0.000000 -0.994184 -0.107699
outer loop
vertex 0.159851 0.671781 0.061023
vertex 0.166667 0.666667 0.108235
vertex 0.000000 0.666667 0.108235
endloop
endfacet
facet normal -0.950398 -0.045741 -0.307655
outer loop
vertex 0.000000 0.777778 0.108235
vertex 0.011729 0.768901 0.073322
vertex 0.014320 0.673268 0.079535
endloop
endfacet
facet normal -0.894795 0.000000 -0.446477
outer loop
vertex 0.014320 0.673268 0.079535
vertex 0.000000 0.666667 0.108235
vertex 0.000000 0.777778 0.108235
endloop
endfacet
facet normal 0.044790 0.902556 -0.428236
outer loop
vertex 0.166667 0.777778 0.108235
vertex 0.159663 0.764004 0.078474
vertex 0.011729 0.768901 0.073322
endloop
endfacet
facet normal -0.000000 0.969167 -0.246405
outer loop
vertex 0.011729 0.768901 0.073322
vertex 0.000000 0.777778 0.108235
vertex 0.166667 0.777778 0.108235
endloop
endfacet
facet normal 0.989770 0.028470 -0.139800
outer loop
vertex 0.166667 0.666667 0.108235
vertex 0.159851 0.671781 0.061023
vertex 0.159663 0.764004 0.078474
endloop
endfacet
facet normal 0.973412 0.000000 -0.229063
outer loop
vertex 0.159663 0.764004 0.078474
vertex 0.166667 0.777778 0.108235
vertex 0.166667 0.666667 0.108235
endloop
endfacet
facet normal 0.169646 0.164190 -0.971731
outer loop
vertex 0.144865 0.786448 0.094988
vertex 0.014556 0.802720 0.074988
vertex 0.014558 0.873837 0.087005
endloop
endfacet
facet normal -0.117244 -0.262326 -0.957830
outer loop
vertex 0.014558 0.873837 0.087005
vertex 0.150184 0.882645 0.067991
vertex 0.144865 0.786448 0.094988
endloop
endfacet
facet normal -0.007281 -0.798366 -0.602129
outer loop
vertex 0.000000 0.777778 0.108235
vertex 0.014556 0.802720 0.074988
vertex 0.144865 0.786448 0.094988
endloop
endfacet
facet normal 0.000000 -0.836734 -0.547609
outer loop
vertex 0.144865 0.786448 0.094988
vertex 0.166667 0.777778 0.108235
vertex 0.000000 0.777778 0.108235
endloop
endfacet
facet normal -0.784633 0.103321 -0.611290
outer loop
vertex 0.000000 0.888889 0.108235
vertex 0.014558 0.873837 0.087005
vertex 0.014556 0.802720 0.074988
endloop
endfacet
facet normal -0.916058 0.000000 -0.401046
outer loop
vertex 0.014556 0.802720 0.074988
vertex 0.000000 0.777778 0.108235
vertex 0.000000 0.888889 0.108235
endloop
endfacet
facet normal -0.081123 0.989421 -0.120273
outer loop
vertex 0.166667 0.888889 0.108235
vertex 0.150184 0.882645 0.067991
vertex 0.014558 0.873837 0.087005
endloop
endfacet
facet normal -0.000000 0.815774 -0.578371
outer loop
vertex 0.014558 0.873837 0.087005
vertex 0.000000 0.888889 0.108235
vertex 0.166667 0.888889 0.108235
endloop
endfacet
facet normal 0.420834 -0.266610 -0.867074
outer loop
vertex 0.166667 0.777778 0.108235
vertex 0.144865 0.786448 0.094988
vertex 0.150184 0.882645 0.067991
endloop
endfacet
facet normal 0.925397 0.000000 -0.378998
outer loop
vertex 0.150184 0.882645 0.067991
vertex 0.166667 0.888889 0.108235
vertex 0.166667 0.777778 0.108235
endloop
endfacet
facet normal -0.041835 0.013930 -0.999027
outer loop
vertex 0.985662 0.780512 0.079322
vertex 0.870109 0.781016 0.084168
vertex 0.848321 0.882670 0.086498
endloop
endfacet
facet normal -0.088600 -0.049235 -0.994850
outer loop
vertex 0.848321 0.882670 0.086498
vertex 0.988541 0.881215 0.074082
vertex 0.985662 0.780512 0.079322
endloop
endfacet
facet normal -0.010572 -0.988753 -0.149184
outer loop
vertex 0.833333 0.777778 0.108235
vertex 0.870109 0.781016 0.084168
vertex 0.985662 0.780512 0.079322
endloop
endfacet
facet normal -0.000000 -0.995559 -0.094141
outer loop
vertex 0.985662 0.780512 0.079322
vertex 1.000000 0.777778 0.108235
vertex 0.833333 0.777778 0.108235
endloop
endfacet
facet normal -0.833409 -0.166556 -0.526961
outer loop
vertex 0.833333 0.888889 0.108235
vertex 0.848321 0.882670 0.086498
vertex 0.870109 0.781016 0.084168
endloop
endfacet
facet normal -0.547594 0.000000 -0.836745
outer loop
vertex 0.870109 0.781016 0.084168
vertex 0.833333 0.777778 0.108235
vertex 0.833333 0.888889 0.108235
endloop
endfacet
facet normal -0.009023 0.976277 -0.216338
outer loop
vertex 1.000000 0.888889 0.108235
vertex 0.988541 0.881215 0.074082
vertex 0.848321 0.882670 0.086498
endloop
endfacet
facet normal 0.000000 0.961428 -0.275058
outer loop
vertex 0.848321 0.882670 0.086498
vertex 0.833333 0.888889 0.108235
vertex 1.000000 0.888889 0.108235
endloop
endfacet
facet normal 0.892979 -0.048814 -0.447443
outer loop
vertex 1.000000 0.777778 0.108235
vertex 0.985662 0.780512 0.079322
vertex 0.988541 0.881215 0.074082
endloop
endfacet
facet normal 0.948062 0.000000 -0.318086
outer loop
vertex 0.988541 0.881215 0.074082
vertex 1.000000 0.888889 0.108235
vertex 1.000000 0.777778 0.108235
endloop
endfacet
facet normal -0.055123 0.046674 -0.997388
outer loop
vertex 0.823328 0.786064 0.066106
vertex 0.677778 0.784850 0.074094
vertex 0.677230 0.881457 0.078645
endloop
endfacet
facet normal -0.070896 0.022496 -0.997230
outer loop
vertex 0.677230 0.881457 0.078645
vertex 0.826696 0.876301 0.067903
vertex 0.823328 0.786064 0.066106
endloop
endfacet
facet normal -0.003017 -0.979014 -0.203773
outer loop
vertex 0.666667 0.777778 0.108235
vertex 0.677778 0.784850 0.074094
vertex 0.823328 0.786064 0.066106
endloop
endfacet
facet normal 0.000000 -0.981202 -0.192986
outer loop
vertex 0.823328 0.786064 0.066106
vertex 0.833333 0.777778 0.108235
vertex 0.666667 0.777778 0.108235
endloop
endfacet
facet normal -0.940890 0.010614 -0.338546
outer loop
vertex 0.666667 0.888889 0.108235
vertex 0.677230 0.881457 0.078645
vertex 0.677778 0.784850 0.074094
endloop
endfacet
facet normal -0.950910 -0.000000 -0.309468
outer loop
vertex 0.677778 0.784850 0.074094
vertex 0.666667 0.777778 0.108235
vertex 0.666667 0.888889 0.108235
endloop
endfacet
facet normal 0.011378 0.953991 -0.299619
outer loop
vertex 0.833333 0.888889 0.108235
vertex 0.826696 0.876301 0.067903
vertex 0.677230 0.881457 0.078645
endloop
endfacet
facet normal -0.000000 0.969879 -0.243586
outer loop
vertex 0.677230 0.881457 0.078645
vertex 0.666667 0.888889 0.108235
vertex 0.833333 0.888889 0.108235
endloop
endfacet
facet normal 0.971040 -0.031530 -0.236826
outer loop
vertex 0.833333 0.777778 0.108235
vertex 0.823328 0.786064 0.066106
vertex 0.826696 0.876301 0.067903
endloop
endfacet
facet normal 0.986727 0.000001 -0.162388
outer loop
vertex 0.826696 0.876301 0.067903
vertex 0.833333 0.888889 0.108235
vertex 0.833333 0.777778 0.108235
endloop
endfacet
facet normal 0.048363 0.042178 -0.997939
outer loop
vertex 0.639257 0.782558 0.077265
vertex 0.508741 0.785163 0.071050
vertex 0.516071 0.883765 0.075573
endloop
endfacet
facet normal -0.021268 -0.042591 -0.998866
outer loop
vertex 0.516071 0.883765 0.075573
vertex 0.654655 0.874641 0.073011
vertex 0.639257 0.782558 0.077265
endloop
endfacet
facet normal -0.010183 -0.980333 -0.197087
outer loop
vertex 0.500000 0.777778 0.108235
vertex 0.508741 0.785163 0.071050
vertex 0.639257 0.782558 0.077265
endloop
endfacet
facet normal 0.000000 -0.988298 -0.152533
outer loop
vertex 0.639257 0.782558 0.077265
vertex 0.666667 0.777778 0.108235
vertex 0.500000 0.777778 0.108235
endloop
endfacet
facet normal -0.888438 0.086712 -0.450732
outer loop
vertex 0.500000 0.888889 0.108235
vertex 0.516071 0.883765 0.075573
vertex 0.508741 0.785163 0.071050
endloop
endfacet
facet normal -0.973464 0.000000 -0.228840
outer loop
vertex 0.508741 0.785163 0.071050
vertex 0.500000 0.777778 0.108235
vertex 0.500000 0.888889 0.108235
endloop
endfacet
facet normal 0.053314 0.919262 -0.390020
outer loop
vertex 0.666667 0.888889 0.108235
vertex 0.654655 0.874641 0.073011
vertex 0.516071 0.883765 0.075573
endloop
endfacet
facet normal -0.000000 0.987919 -0.154974
outer loop
vertex 0.516071 0.883765 0.075573
vertex 0.500000 0.888889 0.108235
vertex 0.666667 0.888889 0.108235
endloop
endfacet
facet normal 0.728256 -0.152640 -0.668090
outer loop
vertex 0.666667 0.777778 0.108235
vertex 0.639257 0.782558 0.077265
vertex 0.654655 0.874641 0.073011
endloop
endfacet
facet normal 0.946481 -0.000001 -0.322759
outer loop
vertex 0.654655 0.874641 0.073011
vertex 0.666667 0.888889 0.108235
vertex 0.666667 0.777778 0.108235
endloop
endfacet
facet normal -0.053170 -0.096912 -0.993872
outer loop
vertex 0.488167 0.785940 0.069795
vertex 0.340572 0.795822 0.076727
vertex 0.339155 0.872291 0.069347
endloop
endfacet
facet normal -0.013935 -0.029235 -0.999475
outer loop
vertex 0.339155 0.872291 0.069347
vertex 0.492444 0.883839 0.066872
vertex 0.488167 0.785940 0.069795
endloop
endfacet
facet normal -0.081282 -0.856738 -0.509306
outer loop
vertex 0.333333 0.777778 0.108235
vertex 0.340572 0.795822 0.076727
vertex 0.488167 0.785940 0.069795
endloop
endfacet
facet normal 0.000000 -0.978191 -0.207705
outer loop
vertex 0.488167 0.785940 0.069795
vertex 0.500000 0.777778 0.108235
vertex 0.333333 0.777778 0.108235
endloop
endfacet
facet normal -0.990367 -0.031371 -0.134869
outer loop
vertex 0.333333 0.888889 0.108235
vertex 0.339155 0.872291 0.069347
vertex 0.340572 0.795822 0.076727
endloop
endfacet
facet normal -0.974610 0.000000 -0.223909
outer loop
vertex 0.340572 0.795822 0.076727
vertex 0.333333 0.777778 0.108235
vertex 0.333333 0.888889 0.108235
endloop
endfacet
facet normal -0.076407 0.991310 -0.107078
outer loop
vertex 0.500000 0.888889 0.108235
vertex 0.492444 0.883839 0.066872
vertex 0.339155 0.872291 0.069347
endloop
endfacet
facet normal -0.000000 0.919731 -0.392548
outer loop
vertex 0.339155 0.872291 0.069347
vertex 0.333333 0.888889 0.108235
vertex 0.500000 0.888889 0.108235
endloop
endfacet
facet normal 0.951445 -0.050634 -0.303625
outer loop
vertex 0.500000 0.777778 0.108235
vertex 0.488167 0.785940 0.069795
vertex 0.492444 0.883839 0.066872
endloop
endfacet
facet normal 0.983724 0.000000 -0.179688
outer loop
vertex 0.492444 0.883839 0.066872
vertex 0.500000 0.888889 0.108235
vertex 0.500000 0.777778 0.108235
endloop
endfacet
facet normal -0.079477 -0.020206 -0.996632
outer loop
vertex 0.312219 0.782364 0.068024
vertex 0.174261 0.787650 0.078918
vertex 0.171623 0.881859 0.077219
endloop
endfacet
facet normal -0.066077 -0.001161 -0.997814
outer loop
vertex 0.171623 0.881859 0.077219
vertex 0.324408 0.870638 0.067114
vertex 0.312219 0.782364 0.068024
endloop
endfacet
facet normal -0.062346 -0.940869 -0.332984
outer loop
vertex 0.166667 0.777778 0.108235
vertex 0.174261 0.787650 0.078918
vertex 0.312219 0.782364 0.068024
endloop
endfacet
facet normal -0.000000 -0.993559 -0.113318
outer loop
vertex 0.312219 0.782364 0.068024
vertex 0.333333 0.777778 0.108235
vertex 0.166667 0.777778 0.108235
endloop
endfacet
facet normal -0.988065 -0.030385 -0.151014
outer loop
vertex 0.166667 0.888889 0.108235
vertex 0.171623 0.881859 0.077219
vertex 0.174261 0.787650 0.078918
endloop
endfacet
facet normal -0.968051 0.000000 -0.250754
outer loop
vertex 0.174261 0.787650 0.078918
vertex 0.166667 0.777778 0.108235
vertex 0.166667 0.888889 0.108235
endloop
endfacet
facet normal 0.039562 0.910091 -0.412517
outer loop
vertex 0.333333 0.888889 0.108235
vertex 0.324408 0.870638 0.067114
vertex 0.171623 0.881859 0.077219
endloop
endfacet
facet normal 0.000000 0.975268 -0.221025
outer loop
vertex 0.171623 0.881859 0.077219
vertex 0.166667 0.888889 0.108235
vertex 0.333333 0.888889 0.108235
endloop
endfacet
facet normal 0.872429 -0.125338 -0.472396
outer loop
vertex 0.333333 0.777778 0.108235
vertex 0.312219 0.782364 0.068024
vertex 0.324408 0.870638 0.067114
endloop
endfacet
facet normal 0.977246 0.000001 -0.212107
outer loop
vertex 0.324408 0.870638 0.067114
vertex 0.333333 0.888889 0.108235
vertex 0.333333 0.777778 0.108235
endloop
endfacet
facet normal 0.029257 0.052761 -0.998178
outer loop
vertex 0.989361 0.686122 0.074400
vertex 0.867995 0.682835 0.070669
vertex 0.846345 0.770832 0.074686
endloop
endfacet
facet normal 0.052781 0.092465 -0.994316
outer loop
vertex 0.846345 0.770832 0.074686
vertex 0.994830 0.764589 0.081988
vertex 0.989361 0.686122 0.074400
endloop
endfacet
facet normal 0.036450 -0.929704 -0.366501
outer loop
vertex 0.833333 0.666667 0.108235
vertex 0.867995 0.682835 0.070669
vertex 0.989361 0.686122 0.074400
endloop
endfacet
facet normal -0.000000 -0.866903 -0.498477
outer loop
vertex 0.989361 0.686122 0.074400
vertex 1.000000 0.666667 0.108235
vertex 0.833333 0.666667 0.108235
endloop
endfacet
facet normal -0.924972 -0.213217 -0.314586
outer loop
vertex 0.833333 0.777778 0.108235
vertex 0.846345 0.770832 0.074686
vertex 0.867995 0.682835 0.070669
endloop
endfacet
facet normal -0.734944 -0.000000 -0.678128
outer loop
vertex 0.867995 0.682835 0.070669
vertex 0.833333 0.666667 0.108235
vertex 0.833333 0.777778 0.108235
endloop
endfacet
facet normal 0.059797 0.887173 -0.457547
outer loop
vertex 1.000000 0.777778 0.108235
vertex 0.994830 0.764589 0.081988
vertex 0.846345 0.770832 0.074686
endloop
endfacet
facet normal -0.000000 0.979234 -0.202735
outer loop
vertex 0.846345 0.770832 0.074686
vertex 0.833333 0.777778 0.108235
vertex 1.000000 0.777778 0.108235
endloop
endfacet
facet normal 0.947377 -0.035263 -0.318172
outer loop
vertex 1.000000 0.666667 0.108235
vertex 0.989361 0.686122 0.074400
vertex 0.994830 0.764589 0.081988
endloop
endfacet
facet normal 0.981146 0.000000 -0.193269
outer loop
vertex 0.994830 0.764589 0.081988
vertex 1.000000 0.777778 0.108235
vertex 1.000000 0.666667 0.108235
endloop
endfacet
facet normal 0.101374 0.224385 -0.969213
outer loop
vertex 0.827246 0.671856 0.073728
vertex 0.675342 0.682823 0.060378
vertex 0.674380 0.769823 0.080420
endloop
endfacet
facet normal 0.039305 0.129013 -0.990864
outer loop
vertex 0.674380 0.769823 0.080420
vertex 0.805800 0.772223 0.085945
vertex 0.827246 0.671856 0.073728
endloop
endfacet
facet normal -0.039538 -0.944530 -0.326038
outer loop
vertex 0.666667 0.666667 0.108235
vertex 0.675342 0.682823 0.060378
vertex 0.827246 0.671856 0.073728
endloop
endfacet
facet normal 0.000000 -0.988880 -0.148718
outer loop
vertex 0.827246 0.671856 0.073728
vertex 0.833333 0.666667 0.108235
vertex 0.666667 0.666667 0.108235
endloop
endfacet
facet normal -0.958121 0.054187 -0.281191
outer loop
vertex 0.666667 0.777778 0.108235
vertex 0.674380 0.769823 0.080420
vertex 0.675342 0.682823 0.060378
endloop
endfacet
facet normal -0.983965 0.000000 -0.178360
outer loop
vertex 0.675342 0.682823 0.060378
vertex 0.666667 0.666667 0.108235
vertex 0.666667 0.777778 0.108235
endloop
endfacet
facet normal -0.007984 0.972564 -0.232498
outer loop
vertex 0.833333 0.777778 0.108235
vertex 0.805800 0.772223 0.085945
vertex 0.674380 0.769823 0.080420
endloop
endfacet
facet normal 0.000000 0.961460 -0.274944
outer loop
vertex 0.674380 0.769823 0.080420
vertex 0.666667 0.777778 0.108235
vertex 0.833333 0.777778 0.108235
endloop
endfacet
facet normal 0.965207 0.222887 -0.136740
outer loop
vertex 0.833333 0.666667 0.108235
vertex 0.827246 0.671856 0.073728
vertex 0.805800 0.772223 0.085945
endloop
endfacet
facet normal 0.629227 0.000001 -0.777221
outer loop
vertex 0.805800 0.772223 0.085945
vertex 0.833333 0.777778 0.108235
vertex 0.833333 0.666667 0.108235
endloop
endfacet
facet normal -0.141007 -0.051442 -0.988671
outer loop
vertex 0.639710 0.676209 0.064311
vertex 0.532638 0.691164 0.078804
vertex 0.509790 0.771444 0.077886
endloop
endfacet
facet normal 0.030024 0.181073 -0.983011
outer loop
vertex 0.509790 0.771444 0.077886
vertex 0.635840 0.772442 0.081919
vertex 0.639710 0.676209 0.064311
endloop
endfacet
facet normal -0.190169 -0.640518 -0.744024
outer loop
vertex 0.500000 0.666667 0.108235
vertex 0.532638 0.691164 0.078804
vertex 0.639710 0.676209 0.064311
endloop
endfacet
facet normal 0.000000 -0.977203 -0.212305
outer loop
vertex 0.639710 0.676209 0.064311
vertex 0.666667 0.666667 0.108235
vertex 0.500000 0.666667 0.108235
endloop
endfacet
facet normal -0.931835 -0.267994 -0.244669
outer loop
vertex 0.500000 0.777778 0.108235
vertex 0.509790 0.771444 0.077886
vertex 0.532638 0.691164 0.078804
endloop
endfacet
facet normal -0.669685 0.000000 -0.742645
outer loop
vertex 0.532638 0.691164 0.078804
vertex 0.500000 0.666667 0.108235
vertex 0.500000 0.777778 0.108235
endloop
endfacet
facet normal -0.001457 0.980388 -0.197072
outer loop
vertex 0.666667 0.777778 0.108235
vertex 0.635840 0.772442 0.081919
vertex 0.509790 0.771444 0.077886
endloop
endfacet
facet normal -0.000000 0.978910 -0.204291
outer loop
vertex 0.509790 0.771444 0.077886
vertex 0.500000 0.777778 0.108235
vertex 0.666667 0.777778 0.108235
endloop
endfacet
facet normal 0.857475 0.125771 -0.498917
outer loop
vertex 0.666667 0.666667 0.108235
vertex 0.639710 0.676209 0.064311
vertex 0.635840 0.772442 0.081919
endloop
endfacet
facet normal 0.649272 0.000000 -0.760556
outer loop
vertex 0.635840 0.772442 0.081919
vertex 0.666667 0.777778 0.108235
vertex 0.666667 0.666667 0.108235
endloop
endfacet
facet normal -0.113121 0.174971 -0.978054
outer loop
vertex 0.481039 0.691077 0.060150
vertex 0.340133 0.687280 0.075768
vertex 0.340180 0.769139 0.090406
endloop
endfacet
facet normal -0.060899 0.263288 -0.962793
outer loop
vertex 0.340180 0.769139 0.090406
vertex 0.487740 0.761430 0.078965
vertex 0.481039 0.691077 0.060150
endloop
endfacet
facet normal -0.037339 -0.840083 -0.541172
outer loop
vertex 0.333333 0.666667 0.108235
vertex 0.340133 0.687280 0.075768
vertex 0.481039 0.691077 0.060150
endloop
endfacet
facet normal 0.000000 -0.891680 -0.452667
outer loop
vertex 0.481039 0.691077 0.060150
vertex 0.500000 0.666667 0.108235
vertex 0.333333 0.666667 0.108235
endloop
endfacet
facet normal -0.919489 0.069713 -0.386886
outer loop
vertex 0.333333 0.777778 0.108235
vertex 0.340180 0.769139 0.090406
vertex 0.340133 0.687280 0.075768
endloop
endfacet
facet normal -0.978765 -0.000000 -0.204987
outer loop
vertex 0.340133 0.687280 0.075768
vertex 0.333333 0.666667 0.108235
vertex 0.333333 0.777778 0.108235
endloop
endfacet
facet normal 0.007546 0.871683 -0.490012
outer loop
vertex 0.500000 0.777778 0.108235
vertex 0.487740 0.761430 0.078965
vertex 0.340180 0.769139 0.090406
endloop
endfacet
facet normal 0.000000 0.899922 -0.436051
outer loop
vertex 0.340180 0.769139 0.090406
vertex 0.333333 0.777778 0.108235
vertex 0.500000 0.777778 0.108235
endloop
endfacet
facet normal 0.931697 0.008374 -0.363140
outer loop
vertex 0.500000 0.666667 0.108235
vertex 0.481039 0.691077 0.060150
vertex 0.487740 0.761430 0.078965
endloop
endfacet
facet normal 0.922357 0.000000 -0.386339
outer loop
vertex 0.487740 0.761430 0.078965
vertex 0.500000 0.777778 0.108235
vertex 0.500000 0.666667 0.108235
endloop
endfacet
facet normal 0.018412 0.051122 -0.998523
outer loop
vertex 0.305140 0.683275 0.071935
vertex 0.177716 0.679071 0.069370
vertex 0.193384 0.764955 0.074056
endloop
endfacet
facet normal 0.004560 0.032193 -0.999471
outer loop
vertex 0.193384 0.764955 0.074056
vertex 0.315053 0.774196 0.074908
vertex 0.305140 0.683275 0.071935
endloop
endfacet
facet normal 0.037428 -0.955024 -0.294156
outer loop
vertex 0.166667 0.666667 0.108235
vertex 0.177716 0.679071 0.069370
vertex 0.305140 0.683275 0.071935
endloop
endfacet
facet normal 0.000000 -0.909348 -0.416035
outer loop
vertex 0.305140 0.683275 0.071935
vertex 0.333333 0.666667 0.108235
vertex 0.166667 0.666667 0.108235
endloop
endfacet
facet normal -0.744113 0.170984 -0.645802
outer loop
vertex 0.166667 0.777778 0.108235
vertex 0.193384 0.764955 0.074056
vertex 0.177716 0.679071 0.069370
endloop
endfacet
facet normal -0.961882 -0.000000 -0.273466
outer loop
vertex 0.177716 0.679071 0.069370
vertex 0.166667 0.666667 0.108235
vertex 0.166667 0.777778 0.108235
endloop
endfacet
facet normal -0.075111 0.995005 -0.065748
outer loop
vertex 0.333333 0.777778 0.108235
vertex 0.315053 0.774196 0.074908
vertex 0.193384 0.764955 0.074056
endloop
endfacet
facet normal 0.000000 0.936280 -0.351256
outer loop
vertex 0.193384 0.764955 0.074056
vertex 0.166667 0.777778 0.108235
vertex 0.333333 0.777778 0.108235
endloop
endfacet
facet normal 0.773837 -0.063757 -0.630168
outer loop
vertex 0.333333 0.666667 0.108235
vertex 0.305140 0.683275 0.071935
vertex 0.315053 0.774196 0.074908
endloop
endfacet
facet normal 0.876767 0.000000 -0.480916
outer loop
vertex 0.315053 0.774196 0.074908
vertex 0.333333 0.777778 0.108235
vertex 0.333333 0.666667 0.108235
endloop
endfacet
facet normal -0.004467 -0.089325 -0.995992
outer loop
vertex 0.981209 0.576588 0.074613
vertex 0.847828 0.571670 0.075652
vertex 0.857127 0.652199 0.068388
endloop
endfacet
facet normal -0.023456 -0.120199 -0.992473
outer loop
vertex 0.857127 0.652199 0.068388
vertex 0.979272 0.656497 0.064981
vertex 0.981209 0.576588 0.074613
endloop
endfacet
facet normal 0.029859 -0.901187 -0.432401
outer loop
vertex 0.833333 0.555556 0.108235
vertex 0.847828 0.571670 0.075652
vertex 0.981209 0.576588 0.074613
endloop
endfacet
facet normal 0.000000 -0.847791 -0.530330
outer loop
vertex 0.981209 0.576588 0.074613
vertex 1.000000 0.555556 0.108235
vertex 0.833333 0.555556 0.108235
endloop
endfacet
facet normal -0.849273 0.050668 -0.525517
outer loop
vertex 0.833333 0.666667 0.108235
vertex 0.857127 0.652199 0.068388
vertex 0.847828 0.571670 0.075652
endloop
endfacet
facet normal -0.913674 -0.000001 -0.406447
outer loop
vertex 0.847828 0.571670 0.075652
vertex 0.833333 0.555556 0.108235
vertex 0.833333 0.666667 0.108235
endloop
endfacet
facet normal -0.040244 0.976795 -0.210363
outer loop
vertex 1.000000 0.666667 0.108235
vertex 0.979272 0.656497 0.064981
vertex 0.857127 0.652199 0.068388
endloop
endfacet
facet normal -0.000000 0.939958 -0.341290
outer loop
vertex 0.857127 0.652199 0.068388
vertex 0.833333 0.666667 0.108235
vertex 1.000000 0.666667 0.108235
endloop
endfacet
facet normal 0.861302 -0.040171 -0.506502
outer loop
vertex 1.000000 0.555556 0.108235
vertex 0.981209 0.576588 0.074613
vertex 0.979272 0.656497 0.064981
endloop
endfacet
facet normal 0.901797 0.000000 -0.432159
outer loop
vertex 0.979272 0.656497 0.064981
vertex 1.000000 0.666667 0.108235
vertex 1.000000 0.555556 0.108235
endloop
endfacet
facet normal 0.140639 -0.119001 -0.982883
outer loop
vertex 0.810626 0.569580 0.088918
vertex 0.675714 0.562141 0.070515
vertex 0.695138 0.650254 0.062626
endloop
endfacet
facet normal 0.096851 -0.180360 -0.978821
outer loop
vertex 0.695138 0.650254 0.062626
vertex 0.816935 0.661436 0.072617
vertex 0.810626 0.569580 0.088918
endloop
endfacet
facet normal 0.075325 -0.985206 -0.153934
outer loop
vertex 0.666667 0.555556 0.108235
vertex 0.675714 0.562141 0.070515
vertex 0.810626 0.569580 0.088918
endloop
endfacet
facet normal -0.000000 -0.809215 -0.587513
outer loop
vertex 0.810626 0.569580 0.088918
vertex 0.833333 0.555556 0.108235
vertex 0.666667 0.555556 0.108235
endloop
endfacet
facet normal -0.819229 0.130599 -0.558397
outer loop
vertex 0.666667 0.666667 0.108235
vertex 0.695138 0.650254 0.062626
vertex 0.675714 0.562141 0.070515
endloop
endfacet
facet normal -0.972418 -0.000000 -0.233244
outer loop
vertex 0.675714 0.562141 0.070515
vertex 0.666667 0.555556 0.108235
vertex 0.666667 0.666667 0.108235
endloop
endfacet
facet normal -0.082120 0.990785 -0.107706
outer loop
vertex 0.833333 0.666667 0.108235
vertex 0.816935 0.661436 0.072617
vertex 0.695138 0.650254 0.062626
endloop
endfacet
facet normal -0.000000 0.940935 -0.338586
outer loop
vertex 0.695138 0.650254 0.062626
vertex 0.666667 0.666667 0.108235
vertex 0.833333 0.666667 0.108235
endloop
endfacet
facet normal 0.569819 -0.181377 -0.801504
outer loop
vertex 0.833333 0.555556 0.108235
vertex 0.810626 0.569580 0.088918
vertex 0.816935 0.661436 0.072617
endloop
endfacet
facet normal 0.908355 -0.000000 -0.418199
outer loop
vertex 0.816935 0.661436 0.072617
vertex 0.833333 0.666667 0.108235
vertex 0.833333 0.555556 0.108235
endloop
endfacet
facet normal 0.153338 0.255656 -0.954530
outer loop
vertex 0.657043 0.562344 0.088909
vertex 0.513152 0.568312 0.067393
vertex 0.513088 0.659114 0.091702
endloop
endfacet
facet normal -0.181516 -0.242515 -0.953016
outer loop
vertex 0.513088 0.659114 0.091702
vertex 0.647350 0.650275 0.068380
vertex 0.657043 0.562344 0.088909
endloop
endfacet
facet normal 0.004764 -0.954953 -0.296719
outer loop
vertex 0.500000 0.555556 0.108235
vertex 0.513152 0.568312 0.067393
vertex 0.657043 0.562344 0.088909
endloop
endfacet
facet normal -0.000000 -0.943485 -0.331416
outer loop
vertex 0.657043 0.562344 0.088909
vertex 0.666667 0.555556 0.108235
vertex 0.500000 0.555556 0.108235
endloop
endfacet
facet normal -0.731126 0.175953 -0.659162
outer loop
vertex 0.500000 0.666667 0.108235
vertex 0.513088 0.659114 0.091702
vertex 0.513152 0.568312 0.067393
endloop
endfacet
facet normal -0.951863 0.000000 -0.306525
outer loop
vertex 0.513152 0.568312 0.067393
vertex 0.500000 0.555556 0.108235
vertex 0.500000 0.666667 0.108235
endloop
endfacet
facet normal -0.004786 0.925641 -0.378372
outer loop
vertex 0.666667 0.666667 0.108235
vertex 0.647350 0.650275 0.068380
vertex 0.513088 0.659114 0.091702
endloop
endfacet
facet normal 0.000000 0.909591 -0.415506
outer loop
vertex 0.513088 0.659114 0.091702
vertex 0.500000 0.666667 0.108235
vertex 0.666667 0.666667 0.108235
endloop
endfacet
facet normal 0.894316 -0.005868 -0.447397
outer loop
vertex 0.666667 0.555556 0.108235
vertex 0.657043 0.562344 0.088909
vertex 0.647350 0.650275 0.068380
endloop
endfacet
facet normal 0.899876 0.000000 -0.436146
outer loop
vertex 0.647350 0.650275 0.068380
vertex 0.666667 0.666667 0.108235
vertex 0.666667 0.555556 0.108235
endloop
endfacet
facet normal -0.012806 0.018779 -0.999742
outer loop
vertex 0.487556 0.564398 0.067492
vertex 0.341519 0.574193 0.069546
vertex 0.350869 0.654909 0.070943
endloop
endfacet
facet normal 0.064347 0.134875 -0.988771
outer loop
vertex 0.350869 0.654909 0.070943
vertex 0.482220 0.659943 0.080177
vertex 0.487556 0.564398 0.067492
endloop
endfacet
facet normal -0.066176 -0.893392 -0.444378
outer loop
vertex 0.333333 0.555556 0.108235
vertex 0.341519 0.574193 0.069546
vertex 0.487556 0.564398 0.067492
endloop
endfacet
facet normal 0.000000 -0.977250 -0.212091
outer loop
vertex 0.487556 0.564398 0.067492
vertex 0.500000 0.555556 0.108235
vertex 0.333333 0.555556 0.108235
endloop
endfacet
facet normal -0.885567 0.110391 -0.451204
outer loop
vertex 0.333333 0.666667 0.108235
vertex 0.350869 0.654909 0.070943
vertex 0.341519 0.574193 0.069546
endloop
endfacet
facet normal -0.978345 0.000000 -0.206982
outer loop
vertex 0.341519 0.574193 0.069546
vertex 0.333333 0.555556 0.108235
vertex 0.333333 0.666667 0.108235
endloop
endfacet
facet normal -0.021927 0.975295 -0.219815
outer loop
vertex 0.500000 0.666667 0.108235
vertex 0.482220 0.659943 0.080177
vertex 0.350869 0.654909 0.070943
endloop
endfacet
facet normal -0.000000 0.953720 -0.300695
outer loop
vertex 0.350869 0.654909 0.070943
vertex 0.333333 0.666667 0.108235
vertex 0.500000 0.666667 0.108235
endloop
endfacet
facet normal 0.957801 0.089740 -0.273065
outer loop
vertex 0.500000 0.555556 0.108235
vertex 0.487556 0.564398 0.067492
vertex 0.482220 0.659943 0.080177
endloop
endfacet
facet normal 0.844688 0.000000 -0.535259
outer loop
vertex 0.482220 0.659943 0.080177
vertex 0.500000 0.666667 0.108235
vertex 0.500000 0.555556 0.108235
endloop
endfacet
facet normal -0.077493 -0.068756 -0.994619
outer loop
vertex 0.320128 0.571515 0.070678
vertex 0.189191 0.563747 0.081417
vertex 0.177044 0.662471 0.075538
endloop
endfacet
facet normal -0.042446 -0.013390 -0.999009
outer loop
vertex 0.177044 0.662471 0.075538
vertex 0.321829 0.644833 0.069623
vertex 0.320128 0.571515 0.070678
endloop
endfacet
facet normal 0.035473 -0.963713 -0.264574
outer loop
vertex 0.166667 0.555556 0.108235
vertex 0.189191 0.563747 0.081417
vertex 0.320128 0.571515 0.070678
endloop
endfacet
facet normal -0.000000 -0.920353 -0.391089
outer loop
vertex 0.320128 0.571515 0.070678
vertex 0.333333 0.555556 0.108235
vertex 0.166667 0.555556 0.108235
endloop
endfacet
facet normal -0.949407 -0.133737 -0.284148
outer loop
vertex 0.166667 0.666667 0.108235
vertex 0.177044 0.662471 0.075538
vertex 0.189191 0.563747 0.081417
endloop
endfacet
facet normal -0.765754 0.000000 -0.643134
outer loop
vertex 0.189191 0.563747 0.081417
vertex 0.166667 0.555556 0.108235
vertex 0.166667 0.666667 0.108235
endloop
endfacet
facet normal 0.083543 0.856558 -0.509243
outer loop
vertex 0.333333 0.666667 0.108235
vertex 0.321829 0.644833 0.069623
vertex 0.177044 0.662471 0.075538
endloop
endfacet
facet normal -0.000000 0.991867 -0.127277
outer loop
vertex 0.177044 0.662471 0.075538
vertex 0.166667 0.666667 0.108235
vertex 0.333333 0.666667 0.108235
endloop
endfacet
facet normal 0.939441 -0.026709 -0.341669
outer loop
vertex 0.333333 0.555556 0.108235
vertex 0.320128 0.571515 0.070678
vertex 0.321829 0.644833 0.069623
endloop
endfacet
facet normal 0.958364 0.000000 -0.285550
outer loop
vertex 0.321829 0.644833 0.069623
vertex 0.333333 0.666667 0.108235
vertex 0.333333 0.555556 0.108235
endloop
endfacet
facet normal 0.001107 -0.151288 -0.988489
outer loop
vertex 0.983545 0.451303 0.079296
vertex 0.857044 0.451566 0.079114
vertex 0.853860 0.534557 0.066408
endloop
endfacet
facet normal 0.173758 0.119349 -0.977529
outer loop
vertex 0.853860 0.534557 0.066408
vertex 0.983601 0.548509 0.091174
vertex 0.983545 0.451303 0.079296
endloop
endfacet
facet normal -0.001672 -0.971062 -0.238821
outer loop
vertex 0.833333 0.444444 0.108235
vertex 0.857044 0.451566 0.079114
vertex 0.983545 0.451303 0.079296
endloop
endfacet
facet normal -0.000000 -0.973045 -0.230617
outer loop
vertex 0.983545 0.451303 0.079296
vertex 1.000000 0.444444 0.108235
vertex 0.833333 0.444444 0.108235
endloop
endfacet
facet normal -0.911802 -0.096097 -0.399228
outer loop
vertex 0.833333 0.555556 0.108235
vertex 0.853860 0.534557 0.066408
vertex 0.857044 0.451566 0.079114
endloop
endfacet
facet normal -0.775471 0.000000 -0.631383
outer loop
vertex 0.857044 0.451566 0.079114
vertex 0.833333 0.444444 0.108235
vertex 0.833333 0.555556 0.108235
endloop
endfacet
facet normal -0.032850 0.934519 -0.354394
outer loop
vertex 1.000000 0.555556 0.108235
vertex 0.983601 0.548509 0.091174
vertex 0.853860 0.534557 0.066408
endloop
endfacet
facet normal -0.000000 0.893695 -0.448675
outer loop
vertex 0.853860 0.534557 0.066408
vertex 0.833333 0.555556 0.108235
vertex 1.000000 0.555556 0.108235
endloop
endfacet
facet normal 0.873706 0.058507 -0.482923
outer loop
vertex 1.000000 0.444444 0.108235
vertex 0.983545 0.451303 0.079296
vertex 0.983601 0.548509 0.091174
endloop
endfacet
facet normal 0.720966 0.000001 -0.692971
outer loop
vertex 0.983601 0.548509 0.091174
vertex 1.000000 0.555556 0.108235
vertex 1.000000 0.444444 0.108235
endloop
endfacet
facet normal 0.017036 0.031825 -0.999348
outer loop
vertex 0.828794 0.449607 0.070601
vertex 0.682957 0.454410 0.068268
vertex 0.686775 0.541865 0.071118
endloop
endfacet
facet normal 0.083649 0.134299 -0.987404
outer loop
vertex 0.686775 0.541865 0.071118
vertex 0.815470 0.545261 0.082483
vertex 0.828794 0.449607 0.070601
endloop
endfacet
facet normal -0.027820 -0.967193 -0.252515
outer loop
vertex 0.666667 0.444444 0.108235
vertex 0.682957 0.454410 0.068268
vertex 0.828794 0.449607 0.070601
endloop
endfacet
facet normal 0.000000 -0.990724 -0.135889
outer loop
vertex 0.828794 0.449607 0.070601
vertex 0.833333 0.444444 0.108235
vertex 0.666667 0.444444 0.108235
endloop
endfacet
facet normal -0.869504 0.053967 -0.490969
outer loop
vertex 0.666667 0.555556 0.108235
vertex 0.686775 0.541865 0.071118
vertex 0.682957 0.454410 0.068268
endloop
endfacet
facet normal -0.926034 -0.000001 -0.377440
outer loop
vertex 0.682957 0.454410 0.068268
vertex 0.666667 0.444444 0.108235
vertex 0.666667 0.555556 0.108235
endloop
endfacet
facet normal 0.008791 0.926407 -0.376422
outer loop
vertex 0.833333 0.555556 0.108235
vertex 0.815470 0.545261 0.082483
vertex 0.686775 0.541865 0.071118
endloop
endfacet
facet normal 0.000000 0.938210 -0.346067
outer loop
vertex 0.686775 0.541865 0.071118
vertex 0.666667 0.555556 0.108235
vertex 0.833333 0.555556 0.108235
endloop
endfacet
facet normal 0.983910 0.149255 -0.098203
outer loop
vertex 0.833333 0.444444 0.108235
vertex 0.828794 0.449607 0.070601
vertex 0.815470 0.545261 0.082483
endloop
endfacet
facet normal 0.821669 0.000000 -0.569964
outer loop
vertex 0.815470 0.545261 0.082483
vertex 0.833333 0.555556 0.108235
vertex 0.833333 0.444444 0.108235
endloop
endfacet
facet normal 0.104309 -0.022667 -0.994287
outer loop
vertex 0.659155 0.453373 0.077601
vertex 0.522407 0.459247 0.063121
vertex 0.514127 0.537003 0.060479
endloop
endfacet
facet normal 0.088483 -0.050220 -0.994811
outer loop
vertex 0.514127 0.537003 0.060479
vertex 0.656573 0.547175 0.072636
vertex 0.659155 0.453373 0.077601
endloop
endfacet
facet normal -0.007403 -0.949038 -0.315075
outer loop
vertex 0.500000 0.444444 0.108235
vertex 0.522407 0.459247 0.063121
vertex 0.659155 0.453373 0.077601
endloop
endfacet
facet normal 0.000000 -0.960051 -0.279824
outer loop
vertex 0.659155 0.453373 0.077601
vertex 0.666667 0.444444 0.108235
vertex 0.500000 0.444444 0.108235
endloop
endfacet
facet normal -0.963905 -0.110870 -0.242065
outer loop
vertex 0.500000 0.555556 0.108235
vertex 0.514127 0.537003 0.060479
vertex 0.522407 0.459247 0.063121
endloop
endfacet
facet normal -0.895616 0.000000 -0.444828
outer loop
vertex 0.522407 0.459247 0.063121
vertex 0.500000 0.444444 0.108235
vertex 0.500000 0.555556 0.108235
endloop
endfacet
facet normal -0.051293 0.975258 -0.215036
outer loop
vertex 0.666667 0.555556 0.108235
vertex 0.656573 0.547175 0.072636
vertex 0.514127 0.537003 0.060479
endloop
endfacet
facet normal -0.000000 0.932133 -0.362116
outer loop
vertex 0.514127 0.537003 0.060479
vertex 0.500000 0.555556 0.108235
vertex 0.666667 0.555556 0.108235
endloop
endfacet
facet normal 0.972085 0.014353 -0.234189
outer loop
vertex 0.666667 0.444444 0.108235
vertex 0.659155 0.453373 0.077601
vertex 0.656573 0.547175 0.072636
endloop
endfacet
facet normal 0.962078 -0.000000 -0.272774
outer loop
vertex 0.656573 0.547175 0.072636
vertex 0.666667 0.555556 0.108235
vertex 0.666667 0.444444 0.108235
endloop
endfacet
facet normal -0.097725 0.046957 -0.994105
outer loop
vertex 0.472097 0.456368 0.069333
vertex 0.347241 0.449591 0.081287
vertex 0.338193 0.541658 0.086525
endloop
endfacet
facet normal -0.176580 -0.079472 -0.981073
outer loop
vertex 0.338193 0.541658 0.086525
vertex 0.465753 0.540291 0.063677
vertex 0.472097 0.456368 0.069333
endloop
endfacet
facet normal 0.037300 -0.984936 -0.168846
outer loop
vertex 0.333333 0.444444 0.108235
vertex 0.347241 0.449591 0.081287
vertex 0.472097 0.456368 0.069333
endloop
endfacet
facet normal 0.000000 -0.956096 -0.293054
outer loop
vertex 0.472097 0.456368 0.069333
vertex 0.500000 0.444444 0.108235
vertex 0.333333 0.444444 0.108235
endloop
endfacet
facet normal -0.982582 -0.087233 -0.164082
outer loop
vertex 0.333333 0.555556 0.108235
vertex 0.338193 0.541658 0.086525
vertex 0.347241 0.449591 0.081287
endloop
endfacet
facet normal -0.888635 -0.000000 -0.458615
outer loop
vertex 0.347241 0.449591 0.081287
vertex 0.333333 0.444444 0.108235
vertex 0.333333 0.555556 0.108235
endloop
endfacet
facet normal -0.042503 0.954733 -0.294411
outer loop
vertex 0.500000 0.555556 0.108235
vertex 0.465753 0.540291 0.063677
vertex 0.338193 0.541658 0.086525
endloop
endfacet
facet normal -0.000000 0.842207 -0.539154
outer loop
vertex 0.338193 0.541658 0.086525
vertex 0.333333 0.555556 0.108235
vertex 0.500000 0.555556 0.108235
endloop
endfacet
facet normal 0.815656 0.022689 -0.578092
outer loop
vertex 0.500000 0.444444 0.108235
vertex 0.472097 0.456368 0.069333
vertex 0.465753 0.540291 0.063677
endloop
endfacet
facet normal 0.792874 0.000000 -0.609385
outer loop
vertex 0.465753 0.540291 0.063677
vertex 0.500000 0.555556 0.108235
vertex 0.500000 0.444444 0.108235
endloop
endfacet
facet normal 0.210265 -0.031136 -0.977149
outer loop
vertex 0.320900 0.469631 0.097022
vertex 0.184617 0.451732 0.068267
vertex 0.187309 0.544951 0.065876
endloop
endfacet
facet normal 0.187180 -0.073095 -0.979602
outer loop
vertex 0.187309 0.544951 0.065876
vertex 0.310307 0.531079 0.090413
vertex 0.320900 0.469631 0.097022
endloop
endfacet
facet normal 0.152337 -0.982115 -0.110647
outer loop
vertex 0.166667 0.444444 0.108235
vertex 0.184617 0.451732 0.068267
vertex 0.320900 0.469631 0.097022
endloop
endfacet
facet normal 0.000000 -0.406707 -0.913559
outer loop
vertex 0.320900 0.469631 0.097022
vertex 0.333333 0.444444 0.108235
vertex 0.166667 0.444444 0.108235
endloop
endfacet
facet normal -0.897399 0.014611 -0.440978
outer loop
vertex 0.166667 0.555556 0.108235
vertex 0.187309 0.544951 0.065876
vertex 0.184617 0.451732 0.068267
endloop
endfacet
facet normal -0.912228 -0.000000 -0.409682
outer loop
vertex 0.184617 0.451732 0.068267
vertex 0.166667 0.444444 0.108235
vertex 0.166667 0.555556 0.108235
endloop
endfacet
facet normal 0.222991 0.427962 -0.875856
outer loop
vertex 0.333333 0.555556 0.108235
vertex 0.310307 0.531079 0.090413
vertex 0.187309 0.544951 0.065876
endloop
endfacet
facet normal -0.000000 0.970061 -0.242861
outer loop
vertex 0.187309 0.544951 0.065876
vertex 0.166667 0.555556 0.108235
vertex 0.333333 0.555556 0.108235
endloop
endfacet
facet normal 0.723551 0.050699 -0.688406
outer loop
vertex 0.333333 0.444444 0.108235
vertex 0.320900 0.469631 0.097022
vertex 0.310307 0.531079 0.090413
endloop
endfacet
facet normal 0.612066 0.000000 -0.790807
outer loop
vertex 0.310307 0.531079 0.090413
vertex 0.333333 0.555556 0.108235
vertex 0.333333 0.444444 0.108235
endloop
endfacet
facet normal -0.024551 -0.107850 -0.993864
outer loop
vertex 0.983237 0.343950 0.077086
vertex 0.849910 0.342152 0.080575
vertex 0.872370 0.424332 0.071102
endloop
endfacet
facet normal 0.071137 0.023883 -0.997181
outer loop
vertex 0.872370 0.424332 0.071102
vertex 0.986073 0.434585 0.079459
vertex 0.983237 0.343950 0.077086
endloop
endfacet
facet normal 0.004987 -0.953603 -0.301026
outer loop
vertex 0.833333 0.333333 0.108235
vertex 0.849910 0.342152 0.080575
vertex 0.983237 0.343950 0.077086
endloop
endfacet
facet normal -0.000000 -0.946530 -0.322616
outer loop
vertex 0.983237 0.343950 0.077086
vertex 1.000000 0.333333 0.108235
vertex 0.833333 0.333333 0.108235
endloop
endfacet
facet normal -0.660139 0.094521 -0.745173
outer loop
vertex 0.833333 0.444444 0.108235
vertex 0.872370 0.424332 0.071102
vertex 0.849910 0.342152 0.080575
endloop
endfacet
facet normal -0.857759 0.000001 -0.514051
outer loop
vertex 0.849910 0.342152 0.080575
vertex 0.833333 0.333333 0.108235
vertex 0.833333 0.444444 0.108235
endloop
endfacet
facet normal -0.064235 0.953180 -0.295503
outer loop
vertex 1.000000 0.444444 0.108235
vertex 0.986073 0.434585 0.079459
vertex 0.872370 0.424332 0.071102
endloop
endfacet
facet normal -0.000000 0.879301 -0.476266
outer loop
vertex 0.872370 0.424332 0.071102
vertex 0.833333 0.444444 0.108235
vertex 1.000000 0.444444 0.108235
endloop
endfacet
facet normal 0.878351 -0.014970 -0.477782
outer loop
vertex 1.000000 0.333333 0.108235
vertex 0.983237 0.343950 0.077086
vertex 0.986073 0.434585 0.079459
endloop
endfacet
facet normal 0.900119 0.000001 -0.435643
outer loop
vertex 0.986073 0.434585 0.079459
vertex 1.000000 0.444444 0.108235
vertex 1.000000 0.333333 0.108235
endloop
endfacet
facet normal -0.070753 -0.086221 -0.993760
outer loop
vertex 0.824896 0.347958 0.073085
vertex 0.680789 0.340988 0.083950
vertex 0.677870 0.436028 0.075912
endloop
endfacet
facet normal -0.021527 -0.003849 -0.999761
outer loop
vertex 0.677870 0.436028 0.075912
vertex 0.824285 0.438343 0.072751
vertex 0.824896 0.347958 0.073085
endloop
endfacet
facet normal 0.024638 -0.957473 -0.287470
outer loop
vertex 0.666667 0.333333 0.108235
vertex 0.680789 0.340988 0.083950
vertex 0.824896 0.347958 0.073085
endloop
endfacet
facet normal -0.000000 -0.923270 -0.384152
outer loop
vertex 0.824896 0.347958 0.073085
vertex 0.833333 0.333333 0.108235
vertex 0.666667 0.333333 0.108235
endloop
endfacet
facet normal -0.947786 -0.055666 -0.314011
outer loop
vertex 0.666667 0.444444 0.108235
vertex 0.677870 0.436028 0.075912
vertex 0.680789 0.340988 0.083950
endloop
endfacet
facet normal -0.864461 0.000001 -0.502700
outer loop
vertex 0.680789 0.340988 0.083950
vertex 0.666667 0.333333 0.108235
vertex 0.666667 0.444444 0.108235
endloop
endfacet
facet normal -0.019150 0.986161 -0.164680
outer loop
vertex 0.833333 0.444444 0.108235
vertex 0.824285 0.438343 0.072751
vertex 0.677870 0.436028 0.075912
endloop
endfacet
facet normal -0.000000 0.967731 -0.251985
outer loop
vertex 0.677870 0.436028 0.075912
vertex 0.666667 0.444444 0.108235
vertex 0.833333 0.444444 0.108235
endloop
endfacet
facet normal 0.972900 0.005724 -0.231157
outer loop
vertex 0.833333 0.333333 0.108235
vertex 0.824896 0.347958 0.073085
vertex 0.824285 0.438343 0.072751
endloop
endfacet
facet normal 0.968990 -0.000001 -0.247099
outer loop
vertex 0.824285 0.438343 0.072751
vertex 0.833333 0.444444 0.108235
vertex 0.833333 0.333333 0.108235
endloop
endfacet
facet normal -0.023282 -0.018423 -0.999559
outer loop
vertex 0.634007 0.341418 0.067142
vertex 0.507706 0.342288 0.070068
vertex 0.506192 0.437652 0.068346
endloop
endfacet
facet normal 0.035677 0.059861 -0.997569
outer loop
vertex 0.506192 0.437652 0.068346
vertex 0.658481 0.435093 0.073639
vertex 0.634007 0.341418 0.067142
endloop
endfacet
facet normal -0.012043 -0.972950 -0.230700
outer loop
vertex 0.500000 0.333333 0.108235
vertex 0.507706 0.342288 0.070068
vertex 0.634007 0.341418 0.067142
endloop
endfacet
facet normal 0.000000 -0.981189 -0.193049
outer loop
vertex 0.634007 0.341418 0.067142
vertex 0.666667 0.333333 0.108235
vertex 0.500000 0.333333 0.108235
endloop
endfacet
facet normal -0.988468 -0.018410 -0.150305
outer loop
vertex 0.500000 0.444444 0.108235
vertex 0.506192 0.437652 0.068346
vertex 0.507706 0.342288 0.070068
endloop
endfacet
facet normal -0.980220 0.000000 -0.197910
outer loop
vertex 0.507706 0.342288 0.070068
vertex 0.500000 0.333333 0.108235
vertex 0.500000 0.444444 0.108235
endloop
endfacet
facet normal 0.025446 0.963513 -0.266450
outer loop
vertex 0.666667 0.444444 0.108235
vertex 0.658481 0.435093 0.073639
vertex 0.506192 0.437652 0.068346
endloop
endfacet
facet normal -0.000000 0.985809 -0.167871
outer loop
vertex 0.506192 0.437652 0.068346
vertex 0.500000 0.444444 0.108235
vertex 0.666667 0.444444 0.108235
endloop
endfacet
facet normal 0.758481 -0.154252 -0.633177
outer loop
vertex 0.666667 0.333333 0.108235
vertex 0.634007 0.341418 0.067142
vertex 0.658481 0.435093 0.073639
endloop
endfacet
facet normal 0.973130 0.000000 -0.230257
outer loop
vertex 0.658481 0.435093 0.073639
vertex 0.666667 0.444444 0.108235
vertex 0.666667 0.333333 0.108235
endloop
endfacet
facet normal -0.062994 -0.081230 -0.994703
outer loop
vertex 0.483191 0.362094 0.069127
vertex 0.350693 0.346489 0.078792
vertex 0.346655 0.423569 0.072753
endloop
endfacet
facet normal 0.010641 0.082420 -0.996541
outer loop
vertex 0.346655 0.423569 0.072753
vertex 0.481014 0.436905 0.075291
vertex 0.483191 0.362094 0.069127
endloop
endfacet
facet normal 0.082529 -0.927115 -0.365577
outer loop
vertex 0.333333 0.333333 0.108235
vertex 0.350693 0.346489 0.078792
vertex 0.483191 0.362094 0.069127
endloop
endfacet
facet normal 0.000000 -0.805605 -0.592454
outer loop
vertex 0.483191 0.362094 0.069127
vertex 0.500000 0.333333 0.108235
vertex 0.333333 0.333333 0.108235
endloop
endfacet
facet normal -0.947179 -0.074070 -0.312033
outer loop
vertex 0.333333 0.444444 0.108235
vertex 0.346655 0.423569 0.072753
vertex 0.350693 0.346489 0.078792
endloop
endfacet
facet normal -0.861419 0.000000 -0.507895
outer loop
vertex 0.350693 0.346489 0.078792
vertex 0.333333 0.333333 0.108235
vertex 0.333333 0.444444 0.108235
endloop
endfacet
facet normal -0.094139 0.980896 -0.170239
outer loop
vertex 0.500000 0.444444 0.108235
vertex 0.481014 0.436905 0.075291
vertex 0.346655 0.423569 0.072753
endloop
endfacet
facet normal -0.000000 0.861901 -0.507077
outer loop
vertex 0.346655 0.423569 0.072753
vertex 0.333333 0.444444 0.108235
vertex 0.500000 0.444444 0.108235
endloop
endfacet
facet normal 0.931708 0.056678 -0.358759
outer loop
vertex 0.500000 0.333333 0.108235
vertex 0.483191 0.362094 0.069127
vertex 0.481014 0.436905 0.075291
endloop
endfacet
facet normal 0.866420 0.000001 -0.499316
outer loop
vertex 0.481014 0.436905 0.075291
vertex 0.500000 0.444444 0.108235
vertex 0.500000 0.333333 0.108235
endloop
endfacet
facet normal 0.138218 -0.011078 -0.990340
outer loop
vertex 0.311708 0.349111 0.095775
vertex 0.203715 0.345005 0.080748
vertex 0.180174 0.438041 0.076422
endloop
endfacet
facet normal -0.026135 -0.249321 -0.968068
outer loop
vertex 0.180174 0.438041 0.076422
vertex 0.317814 0.437169 0.072931
vertex 0.311708 0.349111 0.095775
endloop
endfacet
facet normal 0.077769 -0.951068 -0.299034
outer loop
vertex 0.166667 0.333333 0.108235
vertex 0.203715 0.345005 0.080748
vertex 0.311708 0.349111 0.095775
endloop
endfacet
facet normal -0.000000 -0.619781 -0.784775
outer loop
vertex 0.311708 0.349111 0.095775
vertex 0.333333 0.333333 0.108235
vertex 0.166667 0.333333 0.108235
endloop
endfacet
facet normal -0.909061 -0.245669 -0.336534
outer loop
vertex 0.166667 0.444444 0.108235
vertex 0.180174 0.438041 0.076422
vertex 0.203715 0.345005 0.080748
endloop
endfacet
facet normal -0.595837 0.000000 -0.803106
outer loop
vertex 0.203715 0.345005 0.080748
vertex 0.166667 0.333333 0.108235
vertex 0.166667 0.444444 0.108235
endloop
endfacet
facet normal 0.001075 0.979326 -0.202285
outer loop
vertex 0.333333 0.444444 0.108235
vertex 0.317814 0.437169 0.072931
vertex 0.180174 0.438041 0.076422
endloop
endfacet
facet normal 0.000000 0.980340 -0.197316
outer loop
vertex 0.180174 0.438041 0.076422
vertex 0.166667 0.444444 0.108235
vertex 0.333333 0.444444 0.108235
endloop
endfacet
facet normal 0.333881 -0.258318 -0.906529
outer loop
vertex 0.333333 0.333333 0.108235
vertex 0.311708 0.349111 0.095775
vertex 0.317814 0.437169 0.072931
endloop
endfacet
facet normal 0.915452 -0.000000 -0.402428
outer loop
vertex 0.317814 0.437169 0.072931
vertex 0.333333 0.444444 0.108235
vertex 0.333333 0.333333 0.108235
endloop
endfacet
facet normal -0.089472 -0.081353 -0.992661
outer loop
vertex 0.982195 0.239941 0.072172
vertex 0.840617 0.235528 0.085295
vertex 0.847858 0.326266 0.077206
endloop
endfacet
facet normal -0.006620 0.047939 -0.998828
outer loop
vertex 0.847858 0.326266 0.077206
vertex 0.993974 0.315613 0.075726
vertex 0.982195 0.239941 0.072172
endloop
endfacet
facet normal -0.020064 -0.862076 -0.506382
outer loop
vertex 0.833333 0.222222 0.108235
vertex 0.840617 0.235528 0.085295
vertex 0.982195 0.239941 0.072172
endloop
endfacet
facet normal -0.000000 -0.897520 -0.440974
outer loop
vertex 0.982195 0.239941 0.072172
vertex 1.000000 0.222222 0.108235
vertex 0.833333 0.222222 0.108235
endloop
endfacet
facet normal -0.902208 0.033663 -0.429985
outer loop
vertex 0.833333 0.333333 0.108235
vertex 0.847858 0.326266 0.077206
vertex 0.840617 0.235528 0.085295
endloop
endfacet
facet normal -0.953109 -0.000000 -0.302626
outer loop
vertex 0.840617 0.235528 0.085295
vertex 0.833333 0.222222 0.108235
vertex 0.833333 0.333333 0.108235
endloop
endfacet
facet normal 0.058644 0.871912 -0.486139
outer loop
vertex 1.000000 0.333333 0.108235
vertex 0.993974 0.315613 0.075726
vertex 0.847858 0.326266 0.077206
endloop
endfacet
facet normal -0.000000 0.975027 -0.222087
outer loop
vertex 0.847858 0.326266 0.077206
vertex 0.833333 0.333333 0.108235
vertex 1.000000 0.333333 0.108235
endloop
endfacet
facet normal 0.867956 -0.112386 -0.483757
outer loop
vertex 1.000000 0.222222 0.108235
vertex 0.982195 0.239941 0.072172
vertex 0.993974 0.315613 0.075726
endloop
endfacet
facet normal 0.983249 0.000000 -0.182268
outer loop
vertex 0.993974 0.315613 0.075726
vertex 1.000000 0.333333 0.108235
vertex 1.000000 0.222222 0.108235
endloop
endfacet
facet normal 0.121365 -0.032135 -0.992088
outer loop
vertex 0.825552 0.242911 0.097489
vertex 0.673683 0.238108 0.079066
vertex 0.678789 0.319812 0.077044
endloop
endfacet
facet normal -0.057898 -0.358233 -0.931835
outer loop
vertex 0.678789 0.319812 0.077044
vertex 0.818828 0.319961 0.068285
vertex 0.825552 0.242911 0.097489
endloop
endfacet
facet normal 0.083859 -0.883450 -0.460959
outer loop
vertex 0.666667 0.222222 0.108235
vertex 0.673683 0.238108 0.079066
vertex 0.825552 0.242911 0.097489
endloop
endfacet
facet normal 0.000000 -0.460960 -0.887421
outer loop
vertex 0.825552 0.242911 0.097489
vertex 0.833333 0.222222 0.108235
vertex 0.666667 0.222222 0.108235
endloop
endfacet
facet normal -0.923745 0.048325 -0.379946
outer loop
vertex 0.666667 0.333333 0.108235
vertex 0.678789 0.319812 0.077044
vertex 0.673683 0.238108 0.079066
endloop
endfacet
facet normal -0.972271 -0.000001 -0.233859
outer loop
vertex 0.673683 0.238108 0.079066
vertex 0.666667 0.222222 0.108235
vertex 0.666667 0.333333 0.108235
endloop
endfacet
facet normal -0.020437 0.950297 -0.310673
outer loop
vertex 0.833333 0.333333 0.108235
vertex 0.818828 0.319961 0.068285
vertex 0.678789 0.319812 0.077044
endloop
endfacet
facet normal 0.000000 0.917507 -0.397720
outer loop
vertex 0.678789 0.319812 0.077044
vertex 0.666667 0.333333 0.108235
vertex 0.833333 0.333333 0.108235
endloop
endfacet
facet normal 0.418473 -0.289731 -0.860777
outer loop
vertex 0.833333 0.222222 0.108235
vertex 0.825552 0.242911 0.097489
vertex 0.818828 0.319961 0.068285
endloop
endfacet
facet normal 0.939961 -0.000001 -0.341282
outer loop
vertex 0.818828 0.319961 0.068285
vertex 0.833333 0.333333 0.108235
vertex 0.833333 0.222222 0.108235
endloop
endfacet
facet normal -0.024569 0.046909 -0.998597
outer loop
vertex 0.649934 0.249728 0.070789
vertex 0.509932 0.234180 0.073503
vertex 0.517662 0.326845 0.077665
endloop
endfacet
facet normal -0.052038 -0.000202 -0.998645
outer loop
vertex 0.517662 0.326845 0.077665
vertex 0.653409 0.318319 0.070594
vertex 0.649934 0.249728 0.070789
endloop
endfacet
facet normal 0.099633 -0.949249 -0.298328
outer loop
vertex 0.500000 0.222222 0.108235
vertex 0.509932 0.234180 0.073503
vertex 0.649934 0.249728 0.070789
endloop
endfacet
facet normal -0.000000 -0.805944 -0.591992
outer loop
vertex 0.649934 0.249728 0.070789
vertex 0.666667 0.222222 0.108235
vertex 0.500000 0.222222 0.108235
endloop
endfacet
facet normal -0.853232 0.094213 -0.512951
outer loop
vertex 0.500000 0.333333 0.108235
vertex 0.517662 0.326845 0.077665
vertex 0.509932 0.234180 0.073503
endloop
endfacet
facet normal -0.961460 -0.000000 -0.274944
outer loop
vertex 0.509932 0.234180 0.073503
vertex 0.500000 0.222222 0.108235
vertex 0.500000 0.333333 0.108235
endloop
endfacet
facet normal 0.038115 0.923468 -0.381777
outer loop
vertex 0.666667 0.333333 0.108235
vertex 0.653409 0.318319 0.070594
vertex 0.517662 0.326845 0.077665
endloop
endfacet
facet normal -0.000000 0.978211 -0.207614
outer loop
vertex 0.517662 0.326845 0.077665
vertex 0.500000 0.333333 0.108235
vertex 0.666667 0.333333 0.108235
endloop
endfacet
facet normal 0.898760 -0.046760 -0.435941
outer loop
vertex 0.666667 0.222222 0.108235
vertex 0.649934 0.249728 0.070789
vertex 0.653409 0.318319 0.070594
endloop
endfacet
facet normal 0.943203 0.000000 -0.332216
outer loop
vertex 0.653409 0.318319 0.070594
vertex 0.666667 0.333333 0.108235
vertex 0.666667 0.222222 0.108235
endloop
endfacet
facet normal 0.092333 0.032227 -0.995207
outer loop
vertex 0.484670 0.231349 0.087127
vertex 0.357072 0.244012 0.075699
vertex 0.338589 0.318473 0.076395
endloop
endfacet
facet normal -0.017467 -0.151032 -0.988375
outer loop
vertex 0.338589 0.318473 0.076395
vertex 0.491828 0.320631 0.073357
vertex 0.484670 0.231349 0.087127
endloop
endfacet
facet normal -0.030224 -0.820173 -0.571317
outer loop
vertex 0.333333 0.222222 0.108235
vertex 0.357072 0.244012 0.075699
vertex 0.484670 0.231349 0.087127
endloop
endfacet
facet normal 0.000000 -0.917875 -0.396870
outer loop
vertex 0.484670 0.231349 0.087127
vertex 0.500000 0.222222 0.108235
vertex 0.333333 0.222222 0.108235
endloop
endfacet
facet normal -0.969536 -0.240216 -0.047929
outer loop
vertex 0.333333 0.333333 0.108235
vertex 0.338589 0.318473 0.076395
vertex 0.357072 0.244012 0.075699
endloop
endfacet
facet normal -0.807835 -0.000000 -0.589408
outer loop
vertex 0.357072 0.244012 0.075699
vertex 0.333333 0.222222 0.108235
vertex 0.333333 0.333333 0.108235
endloop
endfacet
facet normal -0.019954 0.940936 -0.337996
outer loop
vertex 0.500000 0.333333 0.108235
vertex 0.491828 0.320631 0.073357
vertex 0.338589 0.318473 0.076395
endloop
endfacet
facet normal -0.000000 0.906166 -0.422921
outer loop
vertex 0.338589 0.318473 0.076395
vertex 0.333333 0.333333 0.108235
vertex 0.500000 0.333333 0.108235
endloop
endfacet
facet normal 0.765364 -0.157599 -0.624004
outer loop
vertex 0.500000 0.222222 0.108235
vertex 0.484670 0.231349 0.087127
vertex 0.491828 0.320631 0.073357
endloop
endfacet
facet normal 0.973630 0.000000 -0.228132
outer loop
vertex 0.491828 0.320631 0.073357
vertex 0.500000 0.333333 0.108235
vertex 0.500000 0.222222 0.108235
endloop
endfacet
facet normal -0.056117 -0.015536 -0.998303
outer loop
vertex 0.320050 0.227275 0.073951
vertex 0.177497 0.229402 0.081931
vertex 0.169910 0.323869 0.080887
endloop
endfacet
facet normal -0.037231 0.013884 -0.999210
outer loop
vertex 0.169910 0.323869 0.080887
vertex 0.325242 0.321111 0.075061
vertex 0.320050 0.227275 0.073951
endloop
endfacet
facet normal -0.029709 -0.961109 -0.274565
outer loop
vertex 0.166667 0.222222 0.108235
vertex 0.177497 0.229402 0.081931
vertex 0.320050 0.227275 0.073951
endloop
endfacet
facet normal -0.000000 -0.989313 -0.145805
outer loop
vertex 0.320050 0.227275 0.073951
vertex 0.333333 0.222222 0.108235
vertex 0.166667 0.222222 0.108235
endloop
endfacet
facet normal -0.992684 -0.080714 -0.089804
outer loop
vertex 0.166667 0.333333 0.108235
vertex 0.169910 0.323869 0.080887
vertex 0.177497 0.229402 0.081931
endloop
endfacet
facet normal -0.924690 0.000000 -0.380720
outer loop
vertex 0.177497 0.229402 0.081931
vertex 0.166667 0.222222 0.108235
vertex 0.166667 0.333333 0.108235
endloop
endfacet
facet normal 0.003657 0.938047 -0.346488
outer loop
vertex 0.333333 0.333333 0.108235
vertex 0.325242 0.321111 0.075061
vertex 0.169910 0.323869 0.080887
endloop
endfacet
facet normal -0.000000 0.945009 -0.327045
outer loop
vertex 0.169910 0.323869 0.080887
vertex 0.166667 0.333333 0.108235
vertex 0.333333 0.333333 0.108235
endloop
endfacet
facet normal 0.929072 -0.047061 -0.366892
outer loop
vertex 0.333333 0.222222 0.108235
vertex 0.320050 0.227275 0.073951
vertex 0.325242 0.321111 0.075061
endloop
endfacet
facet normal 0.971520 0.000001 -0.236958
outer loop
vertex 0.325242 0.321111 0.075061
vertex 0.333333 0.333333 0.108235
vertex 0.333333 0.222222 0.108235
endloop
endfacet
facet normal -0.000283 -0.051000 -0.998699
outer loop
vertex 0.981949 0.127267 0.076642
vertex 0.846454 0.123489 0.076874
vertex 0.839742 0.213744 0.072267
endloop
endfacet
facet normal 0.166274 0.224845 -0.960103
outer loop
vertex 0.839742 0.213744 0.072267
vertex 0.989896 0.214373 0.098418
vertex 0.981949 0.127267 0.076642
endloop
endfacet
facet normal 0.025415 -0.933459 -0.357784
outer loop
vertex 0.833333 0.111111 0.108235
vertex 0.846454 0.123489 0.076874
vertex 0.981949 0.127267 0.076642
endloop
endfacet
facet normal -0.000000 -0.890342 -0.455292
outer loop
vertex 0.981949 0.127267 0.076642
vertex 1.000000 0.111111 0.108235
vertex 0.833333 0.111111 0.108235
endloop
endfacet
facet normal -0.984374 -0.081175 -0.156262
outer loop
vertex 0.833333 0.222222 0.108235
vertex 0.839742 0.213744 0.072267
vertex 0.846454 0.123489 0.076874
endloop
endfacet
facet normal -0.922523 0.000001 -0.385943
outer loop
vertex 0.846454 0.123489 0.076874
vertex 0.833333 0.111111 0.108235
vertex 0.833333 0.222222 0.108235
endloop
endfacet
facet normal 0.117371 0.713215 -0.691048
outer loop
vertex 1.000000 0.222222 0.108235
vertex 0.989896 0.214373 0.098418
vertex 0.839742 0.213744 0.072267
endloop
endfacet
facet normal -0.000000 0.973329 -0.229416
outer loop
vertex 0.839742 0.213744 0.072267
vertex 0.833333 0.222222 0.108235
vertex 1.000000 0.222222 0.108235
endloop
endfacet
facet normal 0.876259 0.040090 -0.480170
outer loop
vertex 1.000000 0.111111 0.108235
vertex 0.981949 0.127267 0.076642
vertex 0.989896 0.214373 0.098418
endloop
endfacet
facet normal 0.696858 0.000000 -0.717209
outer loop
vertex 0.989896 0.214373 0.098418
vertex 1.000000 0.222222 0.108235
vertex 1.000000 0.111111 0.108235
endloop
endfacet
facet normal 0.017702 0.144277 -0.989379
outer loop
vertex 0.820432 0.123125 0.076729
vertex 0.688449 0.120181 0.073939
vertex 0.695626 0.213206 0.087632
endloop
endfacet
facet normal -0.049786 0.051746 -0.997419
outer loop
vertex 0.695626 0.213206 0.087632
vertex 0.826453 0.202537 0.080549
vertex 0.820432 0.123125 0.076729
endloop
endfacet
facet normal 0.026718 -0.970484 -0.239680
outer loop
vertex 0.666667 0.111111 0.108235
vertex 0.688449 0.120181 0.073939
vertex 0.820432 0.123125 0.076729
endloop
endfacet
facet normal 0.000000 -0.934369 -0.356306
outer loop
vertex 0.820432 0.123125 0.076729
vertex 0.833333 0.111111 0.108235
vertex 0.666667 0.111111 0.108235
endloop
endfacet
facet normal -0.537676 0.163252 -0.827196
outer loop
vertex 0.666667 0.222222 0.108235
vertex 0.695626 0.213206 0.087632
vertex 0.688449 0.120181 0.073939
endloop
endfacet
facet normal -0.844143 0.000000 -0.536118
outer loop
vertex 0.688449 0.120181 0.073939
vertex 0.666667 0.111111 0.108235
vertex 0.666667 0.222222 0.108235
endloop
endfacet
facet normal 0.034427 0.810452 -0.584793
outer loop
vertex 0.833333 0.222222 0.108235
vertex 0.826453 0.202537 0.080549
vertex 0.695626 0.213206 0.087632
endloop
endfacet
facet normal -0.000000 0.916112 -0.400923
outer loop
vertex 0.695626 0.213206 0.087632
vertex 0.666667 0.222222 0.108235
vertex 0.833333 0.222222 0.108235
endloop
endfacet
facet normal 0.917328 -0.050556 -0.394909
outer loop
vertex 0.833333 0.111111 0.108235
vertex 0.820432 0.123125 0.076729
vertex 0.826453 0.202537 0.080549
endloop
endfacet
facet normal 0.970482 0.000000 -0.241174
outer loop
vertex 0.826453 0.202537 0.080549
vertex 0.833333 0.222222 0.108235
vertex 0.833333 0.111111 0.108235
endloop
endfacet
facet normal 0.078795 -0.023148 -0.996622
outer loop
vertex 0.639624 0.129814 0.085509
vertex 0.512403 0.132970 0.075377
vertex 0.514132 0.211195 0.073697
endloop
endfacet
facet normal -0.040202 -0.203965 -0.978152
outer loop
vertex 0.514132 0.211195 0.073697
vertex 0.653317 0.210368 0.068149
vertex 0.639624 0.129814 0.085509
endloop
endfacet
facet normal 0.022878 -0.836343 -0.547729
outer loop
vertex 0.500000 0.111111 0.108235
vertex 0.512403 0.132970 0.075377
vertex 0.639624 0.129814 0.085509
endloop
endfacet
facet normal -0.000000 -0.772142 -0.635450
outer loop
vertex 0.639624 0.129814 0.085509
vertex 0.666667 0.111111 0.108235
vertex 0.500000 0.111111 0.108235
endloop
endfacet
facet normal -0.924079 0.012225 -0.382007
outer loop
vertex 0.500000 0.222222 0.108235
vertex 0.514132 0.211195 0.073697
vertex 0.512403 0.132970 0.075377
endloop
endfacet
facet normal -0.935571 -0.000000 -0.353139
outer loop
vertex 0.512403 0.132970 0.075377
vertex 0.500000 0.111111 0.108235
vertex 0.500000 0.222222 0.108235
endloop
endfacet
facet normal -0.005539 0.959438 -0.281866
outer loop
vertex 0.666667 0.222222 0.108235
vertex 0.653317 0.210368 0.068149
vertex 0.514132 0.211195 0.073697
endloop
endfacet
facet normal -0.000000 0.952623 -0.304154
outer loop
vertex 0.514132 0.211195 0.073697
vertex 0.500000 0.222222 0.108235
vertex 0.666667 0.222222 0.108235
endloop
endfacet
facet normal 0.507557 -0.263093 -0.820468
outer loop
vertex 0.666667 0.111111 0.108235
vertex 0.639624 0.129814 0.085509
vertex 0.653317 0.210368 0.068149
endloop
endfacet
facet normal 0.948772 -0.000000 -0.315962
outer loop
vertex 0.653317 0.210368 0.068149
vertex 0.666667 0.222222 0.108235
vertex 0.666667 0.111111 0.108235
endloop
endfacet
facet normal -0.061631 -0.275750 -0.959251
outer loop
vertex 0.493294 0.129915 0.078424
vertex 0.352408 0.126597 0.088430
vertex 0.340069 0.212333 0.064576
endloop
endfacet
facet normal 0.091189 0.002214 -0.995831
outer loop
vertex 0.340069 0.212333 0.064576
vertex 0.484969 0.213036 0.077846
vertex 0.493294 0.129915 0.078424
endloop
endfacet
facet normal -0.026598 -0.774917 -0.631504
outer loop
vertex 0.333333 0.111111 0.108235
vertex 0.352408 0.126597 0.088430
vertex 0.493294 0.129915 0.078424
endloop
endfacet
facet normal -0.000000 -0.845802 -0.533497
outer loop
vertex 0.493294 0.129915 0.078424
vertex 0.500000 0.111111 0.108235
vertex 0.333333 0.111111 0.108235
endloop
endfacet
facet normal -0.978701 -0.172022 -0.112035
outer loop
vertex 0.333333 0.222222 0.108235
vertex 0.340069 0.212333 0.064576
vertex 0.352408 0.126597 0.088430
endloop
endfacet
facet normal -0.720268 0.000000 -0.693696
outer loop
vertex 0.352408 0.126597 0.088430
vertex 0.333333 0.111111 0.108235
vertex 0.333333 0.222222 0.108235
endloop
endfacet
facet normal 0.022813 0.953789 -0.299609
outer loop
vertex 0.500000 0.222222 0.108235
vertex 0.484969 0.213036 0.077846
vertex 0.340069 0.212333 0.064576
endloop
endfacet
facet normal -0.000000 0.975294 -0.220910
outer loop
vertex 0.340069 0.212333 0.064576
vertex 0.333333 0.222222 0.108235
vertex 0.500000 0.222222 0.108235
endloop
endfacet
facet normal 0.982373 0.097279 -0.159626
outer loop
vertex 0.500000 0.111111 0.108235
vertex 0.493294 0.129915 0.078424
vertex 0.484969 0.213036 0.077846
endloop
endfacet
facet normal 0.896348 0.000000 -0.443351
outer loop
vertex 0.484969 0.213036 0.077846
vertex 0.500000 0.222222 0.108235
vertex 0.500000 0.111111 0.108235
endloop
endfacet
facet normal 0.018322 0.055774 -0.998275
outer loop
vertex 0.319702 0.129005 0.076418
vertex 0.181804 0.123954 0.073605
vertex 0.196557 0.217537 0.079104
endloop
endfacet
facet normal -0.118829 -0.135443 -0.983634
outer loop
vertex 0.196557 0.217537 0.079104
vertex 0.324789 0.210427 0.064592
vertex 0.319702 0.129005 0.076418
endloop
endfacet
facet normal 0.041285 -0.942550 -0.331503
outer loop
vertex 0.166667 0.111111 0.108235
vertex 0.181804 0.123954 0.073605
vertex 0.319702 0.129005 0.076418
endloop
endfacet
facet normal 0.000000 -0.871619 -0.490185
outer loop
vertex 0.319702 0.129005 0.076418
vertex 0.333333 0.111111 0.108235
vertex 0.166667 0.111111 0.108235
endloop
endfacet
facet normal -0.678057 0.149184 -0.719710
outer loop
vertex 0.166667 0.222222 0.108235
vertex 0.196557 0.217537 0.079104
vertex 0.181804 0.123954 0.073605
endloop
endfacet
facet normal -0.916291 -0.000000 -0.400513
outer loop
vertex 0.181804 0.123954 0.073605
vertex 0.166667 0.111111 0.108235
vertex 0.166667 0.222222 0.108235
endloop
endfacet
facet normal 0.023445 0.963932 -0.265113
outer loop
vertex 0.333333 0.222222 0.108235
vertex 0.324789 0.210427 0.064592
vertex 0.196557 0.217537 0.079104
endloop
endfacet
facet normal -0.000000 0.987312 -0.158792
outer loop
vertex 0.196557 0.217537 0.079104
vertex 0.166667 0.222222 0.108235
vertex 0.333333 0.222222 0.108235
endloop
endfacet
facet normal 0.886224 -0.120342 -0.447353
outer loop
vertex 0.333333 0.111111 0.108235
vertex 0.319702 0.129005 0.076418
vertex 0.324789 0.210427 0.064592
endloop
endfacet
facet normal 0.981370 0.000000 -0.192127
outer loop
vertex 0.324789 0.210427 0.064592
vertex 0.333333 0.222222 0.108235
vertex 0.333333 0.111111 0.108235
endloop
endfacet
facet normal -0.052106 0.074260 -0.995877
outer loop
vertex 0.991390 0.016892 0.071416
vertex 0.857514 0.019228 0.078595
vertex 0.847542 0.100002 0.085140
endloop
endfacet
facet normal -0.045080 0.086316 -0.995247
outer loop
vertex 0.847542 0.100002 0.085140
vertex 0.983035 0.097541 0.078789
vertex 0.991390 0.016892 0.071416
endloop
endfacet
facet normal 0.000000 -0.908910 -0.416991
outer loop
vertex 0.991390 0.016892 0.071416
vertex 1.000000 0.000000 0.108235
vertex 0.833333 0.000000 0.108235
endloop
endfacet
facet normal -0.044844 -0.820999 -0.569166
outer loop
vertex 0.833333 0.000000 0.108235
vertex 0.857514 0.019228 0.078595
vertex 0.991390 0.016892 0.071416
endloop
endfacet
facet normal -0.863747 -0.066156 -0.499563
outer loop
vertex 0.833333 0.111111 0.108235
vertex 0.847542 0.100002 0.085140
vertex 0.857514 0.019228 0.078595
endloop
endfacet
facet normal -0.774860 -0.000000 -0.632133
outer loop
vertex 0.857514 0.019228 0.078595
vertex 0.833333 0.000000 0.108235
vertex 0.833333 0.111111 0.108235
endloop
endfacet
facet normal -0.003043 0.908863 -0.417084
outer loop
vertex 1.000000 0.111111 0.108235
vertex 0.983035 0.097541 0.078789
vertex 0.847542 0.100002 0.085140
endloop
endfacet
facet normal -0.000000 0.901168 -0.433469
outer loop
vertex 0.847542 0.100002 0.085140
vertex 0.833333 0.111111 0.108235
vertex 1.000000 0.111111 0.108235
endloop
endfacet
facet normal 0.977596 0.117256 -0.174804
outer loop
vertex 1.000000 0.000000 0.108235
vertex 0.991390 0.016892 0.071416
vertex 0.983035 0.097541 0.078789
endloop
endfacet
facet normal 0.866482 0.000000 -0.499207
outer loop
vertex 0.983035 0.097541 0.078789
vertex 1.000000 0.111111 0.108235
vertex 1.000000 0.000000 0.108235
endloop
endfacet
facet normal -0.045066 -0.034372 -0.998393
outer loop
vertex 0.832412 0.021319 0.070835
vertex 0.676382 0.008136 0.078331
vertex 0.679791 0.107536 0.074755
endloop
endfacet
facet normal 0.077448 0.181679 -0.980303
outer loop
vertex 0.679791 0.107536 0.074755
vertex 0.826264 0.096678 0.084315
vertex 0.832412 0.021319 0.070835
endloop
endfacet
facet normal 0.070239 -0.968088 -0.240566
outer loop
vertex 0.666667 0.000000 0.108235
vertex 0.676382 0.008136 0.078331
vertex 0.832412 0.021319 0.070835
endloop
endfacet
facet normal 0.000000 -0.868768 -0.495220
outer loop
vertex 0.832412 0.021319 0.070835
vertex 0.833333 0.000000 0.108235
vertex 0.666667 0.000000 0.108235
endloop
endfacet
facet normal -0.930177 0.018716 -0.366633
outer loop
vertex 0.666667 0.111111 0.108235
vertex 0.679791 0.107536 0.074755
vertex 0.676382 0.008136 0.078331
endloop
endfacet
facet normal -0.951070 -0.000001 -0.308976
outer loop
vertex 0.676382 0.008136 0.078331
vertex 0.666667 0.000000 0.108235
vertex 0.666667 0.111111 0.108235
endloop
endfacet
facet normal 0.097134 0.839199 -0.535080
outer loop
vertex 0.833333 0.111111 0.108235
vertex 0.826264 0.096678 0.084315
vertex 0.679791 0.107536 0.074755
endloop
endfacet
facet normal 0.000000 0.994347 -0.106180
outer loop
vertex 0.679791 0.107536 0.074755
vertex 0.666667 0.111111 0.108235
vertex 0.833333 0.111111 0.108235
endloop
endfacet
facet normal 0.996775 0.077777 0.019771
outer loop
vertex 0.833333 0.000000 0.108235
vertex 0.832412 0.021319 0.070835
vertex 0.826264 0.096678 0.084315
endloop
endfacet
facet normal 0.958997 -0.000001 -0.283415
outer loop
vertex 0.826264 0.096678 0.084315
vertex 0.833333 0.111111 0.108235
vertex 0.833333 0.000000 0.108235
endloop
endfacet
facet normal 0.027734 0.187330 -0.981905
outer loop
vertex 0.650625 0.005520 0.071395
vertex 0.508363 0.008175 0.067884
vertex 0.504436 0.104479 0.086146
endloop
endfacet
facet normal -0.076497 0.035520 -0.996437
outer loop
vertex 0.504436 0.104479 0.086146
vertex 0.656807 0.104045 0.074433
vertex 0.650625 0.005520 0.071395
endloop
endfacet
facet normal -0.013313 -0.979460 -0.201199
outer loop
vertex 0.500000 0.000000 0.108235
vertex 0.508363 0.008175 0.067884
vertex 0.650625 0.005520 0.071395
endloop
endfacet
facet normal -0.000000 -0.988959 -0.148189
outer loop
vertex 0.650625 0.005520 0.071395
vertex 0.666667 0.000000 0.108235
vertex 0.500000 0.000000 0.108235
endloop
endfacet
facet normal -0.980581 -0.002800 -0.196095
outer loop
vertex 0.500000 0.111111 0.108235
vertex 0.504436 0.104479 0.086146
vertex 0.508363 0.008175 0.067884
endloop
endfacet
facet normal -0.979189 0.000001 -0.202949
outer loop
vertex 0.508363 0.008175 0.067884
vertex 0.500000 0.000000 0.108235
vertex 0.500000 0.111111 0.108235
endloop
endfacet
facet normal -0.012664 0.979498 -0.201056
outer loop
vertex 0.666667 0.111111 0.108235
vertex 0.656807 0.104045 0.074433
vertex 0.504436 0.104479 0.086146
endloop
endfacet
facet normal -0.000000 0.957768 -0.287541
outer loop
vertex 0.504436 0.104479 0.086146
vertex 0.500000 0.111111 0.108235
vertex 0.666667 0.111111 0.108235
endloop
endfacet
facet normal 0.913449 -0.044847 -0.404475
outer loop
vertex 0.666667 0.000000 0.108235
vertex 0.650625 0.005520 0.071395
vertex 0.656807 0.104045 0.074433
endloop
endfacet
facet normal 0.959997 -0.000000 -0.280012
outer loop
vertex 0.656807 0.104045 0.074433
vertex 0.666667 0.111111 0.108235
vertex 0.666667 0.000000 0.108235
endloop
endfacet
facet normal 0.128114 0.207836 -0.969738
outer loop
vertex 0.486921 0.006620 0.090616
vertex 0.349581 0.007357 0.072630
vertex 0.356975 0.089982 0.091315
endloop
endfacet
facet normal -0.096934 -0.142842 -0.984987
outer loop
vertex 0.356975 0.089982 0.091315
vertex 0.485146 0.100544 0.077170
vertex 0.486921 0.006620 0.090616
endloop
endfacet
facet normal 0.020079 -0.980893 -0.193510
outer loop
vertex 0.333333 0.000000 0.108235
vertex 0.349581 0.007357 0.072630
vertex 0.486921 0.006620 0.090616
endloop
endfacet
facet normal 0.000000 -0.936108 -0.351713
outer loop
vertex 0.486921 0.006620 0.090616
vertex 0.500000 0.000000 0.108235
vertex 0.333333 0.000000 0.108235
endloop
endfacet
facet normal -0.417349 0.235813 -0.877617
outer loop
vertex 0.333333 0.111111 0.108235
vertex 0.356975 0.089982 0.091315
vertex 0.349581 0.007357 0.072630
endloop
endfacet
facet normal -0.909751 -0.000000 -0.415155
outer loop
vertex 0.349581 0.007357 0.072630
vertex 0.333333 0.000000 0.108235
vertex 0.333333 0.111111 0.108235
endloop
endfacet
facet normal -0.108895 0.955810 -0.273075
outer loop
vertex 0.500000 0.111111 0.108235
vertex 0.485146 0.100544 0.077170
vertex 0.356975 0.089982 0.091315
endloop
endfacet
facet normal -0.000000 0.625075 -0.780565
outer loop
vertex 0.356975 0.089982 0.091315
vertex 0.333333 0.111111 0.108235
vertex 0.500000 0.111111 0.108235
endloop
endfacet
facet normal 0.787557 -0.072714 -0.611937
outer loop
vertex 0.500000 0.000000 0.108235
vertex 0.486921 0.006620 0.090616
vertex 0.485146 0.100544 0.077170
endloop
endfacet
facet normal 0.902164 0.000000 -0.431394
outer loop
vertex 0.485146 0.100544 0.077170
vertex 0.500000 0.111111 0.108235
vertex 0.500000 0.000000 0.108235
endloop
endfacet
facet normal 0.068217 -0.095242 -0.993114
outer loop
vertex 0.320993 0.005022 0.088163
vertex 0.181910 0.005939 0.078521
vertex 0.182508 0.102175 0.069333
endloop
endfacet
facet normal 0.089764 -0.064672 -0.993861
outer loop
vertex 0.182508 0.102175 0.069333
vertex 0.326478 0.104628 0.082176
vertex 0.320993 0.005022 0.088163
endloop
endfacet
facet normal 0.006881 -0.981254 -0.192595
outer loop
vertex 0.166667 0.000000 0.108235
vertex 0.181910 0.005939 0.078521
vertex 0.320993 0.005022 0.088163
endloop
endfacet
facet normal 0.000000 -0.970099 -0.242711
outer loop
vertex 0.320993 0.005022 0.088163
vertex 0.333333 0.000000 0.108235
vertex 0.166667 0.000000 0.108235
endloop
endfacet
facet normal -0.928114 -0.029670 -0.371111
outer loop
vertex 0.166667 0.111111 0.108235
vertex 0.182508 0.102175 0.069333
vertex 0.181910 0.005939 0.078521
endloop
endfacet
facet normal -0.889751 0.000000 -0.456447
outer loop
vertex 0.181910 0.005939 0.078521
vertex 0.166667 0.000000 0.108235
vertex 0.166667 0.111111 0.108235
endloop
endfacet
facet normal 0.005124 0.970086 -0.242709
outer loop
vertex 0.333333 0.111111 0.108235
vertex 0.326478 0.104628 0.082176
vertex 0.182508 0.102175 0.069333
endloop
endfacet
facet normal 0.000000 0.974616 -0.223881
outer loop
vertex 0.182508 0.102175 0.069333
vertex 0.166667 0.111111 0.108235
vertex 0.333333 0.111111 0.108235
endloop
endfacet
facet normal 0.840380 -0.078501 -0.536283
outer loop
vertex 0.333333 0.000000 0.108235
vertex 0.320993 0.005022 0.088163
vertex 0.326478 0.104628 0.082176
endloop
endfacet
facet normal 0.967090 -0.000000 -0.254434
outer loop
vertex 0.326478 0.104628 0.082176
vertex 0.333333 0.111111 0.108235
vertex 0.333333 0.000000 0.108235
endloop
endfacet
facet normal 0.036901 -0.018694 -0.999144
outer loop
vertex 0.984547 0.890096 0.085814
vertex 0.849091 0.894052 0.080737
vertex 0.856988 0.995716 0.079127
endloop
endfacet
facet normal 0.028716 -0.028582 -0.999179
outer loop
vertex 0.856988 0.995716 0.079127
vertex 0.993657 0.985202 0.083355
vertex 0.984547 0.890096 0.085814
endloop
endfacet
facet normal -0.021278 -0.980322 -0.196256
outer loop
vertex 0.833333 0.888889 0.108235
vertex 0.849091 0.894052 0.080737
vertex 0.984547 0.890096 0.085814
endloop
endfacet
facet normal 0.000000 -0.998555 -0.053739
outer loop
vertex 0.984547 0.890096 0.085814
vertex 1.000000 0.888889 0.108235
vertex 0.833333 0.888889 0.108235
endloop
endfacet
facet normal -0.771487 0.049883 -0.634286
outer loop
vertex 0.833333 1.000000 0.108235
vertex 0.856988 0.995716 0.079127
vertex 0.849091 0.894052 0.080737
endloop
endfacet
facet normal -0.867639 0.000001 -0.497194
outer loop
vertex 0.849091 0.894052 0.080737
vertex 0.833333 0.888889 0.108235
vertex 0.833333 1.000000 0.108235
endloop
endfacet
facet normal 0.081420 0.847359 -0.524742
outer loop
vertex 1.000000 1.000000 0.108235
vertex 0.993657 0.985202 0.083355
vertex 0.856988 0.995716 0.079127
endloop
endfacet
facet normal -0.000000 0.989341 -0.145617
outer loop
vertex 0.856988 0.995716 0.079127
vertex 0.833333 1.000000 0.108235
vertex 1.000000 1.000000 0.108235
endloop
endfacet
facet normal 0.817471 -0.093001 -0.568412
outer loop
vertex 1.000000 0.888889 0.108235
vertex 0.984547 0.890096 0.085814
vertex 0.993657 0.985202 0.083355
endloop
endfacet
facet normal 0.969007 0.000000 -0.247033
outer loop
vertex 0.993657 0.985202 0.083355
vertex 1.000000 1.000000 0.108235
vertex 1.000000 0.888889 0.108235
endloop
endfacet
facet normal -0.016999 -0.002925 -0.999851
outer loop
vertex 0.817850 0.900291 0.074782
vertex 0.687237 0.906157 0.076986
vertex 0.674492 0.989700 0.076958
endloop
endfacet
facet normal -0.031184 -0.025686 -0.999184
outer loop
vertex 0.674492 0.989700 0.076958
vertex 0.816074 0.989216 0.072552
vertex 0.817850 0.900291 0.074782
endloop
endfacet
facet normal -0.047203 -0.860808 -0.506735
outer loop
vertex 0.666667 0.888889 0.108235
vertex 0.687237 0.906157 0.076986
vertex 0.817850 0.900291 0.074782
endloop
endfacet
facet normal 0.000000 -0.946527 -0.322623
outer loop
vertex 0.817850 0.900291 0.074782
vertex 0.833333 0.888889 0.108235
vertex 0.666667 0.888889 0.108235
endloop
endfacet
facet normal -0.969792 -0.148003 -0.193906
outer loop
vertex 0.666667 1.000000 0.108235
vertex 0.674492 0.989700 0.076958
vertex 0.687237 0.906157 0.076986
endloop
endfacet
facet normal -0.835282 -0.000001 -0.549822
outer loop
vertex 0.687237 0.906157 0.076986
vertex 0.666667 0.888889 0.108235
vertex 0.666667 1.000000 0.108235
endloop
endfacet
facet normal -0.005654 0.957981 -0.286776
outer loop
vertex 0.833333 1.000000 0.108235
vertex 0.816074 0.989216 0.072552
vertex 0.674492 0.989700 0.076958
endloop
endfacet
facet normal -0.000000 0.949819 -0.312800
outer loop
vertex 0.674492 0.989700 0.076958
vertex 0.666667 1.000000 0.108235
vertex 0.833333 1.000000 0.108235
endloop
endfacet
facet normal 0.908473 0.007657 -0.417873
outer loop
vertex 0.833333 0.888889 0.108235
vertex 0.817850 0.900291 0.074782
vertex 0.816074 0.989216 0.072552
endloop
endfacet
facet normal 0.900230 0.000000 -0.435414
outer loop
vertex 0.816074 0.989216 0.072552
vertex 0.833333 1.000000 0.108235
vertex 0.833333 0.888889 0.108235
endloop
endfacet
facet normal 0.087546 0.076599 -0.993211
outer loop
vertex 0.655751 0.903414 0.085198
vertex 0.511086 0.894334 0.071747
vertex 0.519227 0.992638 0.080046
endloop
endfacet
facet normal -0.060978 -0.150289 -0.986760
outer loop
vertex 0.519227 0.992638 0.080046
vertex 0.657265 0.994681 0.071204
vertex 0.655751 0.903414 0.085198
endloop
endfacet
facet normal 0.073746 -0.989383 -0.125233
outer loop
vertex 0.500000 0.888889 0.108235
vertex 0.511086 0.894334 0.071747
vertex 0.655751 0.903414 0.085198
endloop
endfacet
facet normal 0.000000 -0.845894 -0.533350
outer loop
vertex 0.655751 0.903414 0.085198
vertex 0.666667 0.888889 0.108235
vertex 0.500000 0.888889 0.108235
endloop
endfacet
facet normal -0.806243 0.115753 -0.580150
outer loop
vertex 0.500000 1.000000 0.108235
vertex 0.519227 0.992638 0.080046
vertex 0.511086 0.894334 0.071747
endloop
endfacet
facet normal -0.956817 0.000000 -0.290690
outer loop
vertex 0.511086 0.894334 0.071747
vertex 0.500000 0.888889 0.108235
vertex 0.500000 1.000000 0.108235
endloop
endfacet
facet normal -0.023388 0.990387 -0.136330
outer loop
vertex 0.666667 1.000000 0.108235
vertex 0.657265 0.994681 0.071204
vertex 0.519227 0.992638 0.080046
endloop
endfacet
facet normal 0.000000 0.967546 -0.252695
outer loop
vertex 0.519227 0.992638 0.080046
vertex 0.500000 1.000000 0.108235
vertex 0.666667 1.000000 0.108235
endloop
endfacet
facet normal 0.878013 -0.086734 -0.470713
outer loop
vertex 0.666667 0.888889 0.108235
vertex 0.655751 0.903414 0.085198
vertex 0.657265 0.994681 0.071204
endloop
endfacet
facet normal 0.969247 0.000001 -0.246089
outer loop
vertex 0.657265 0.994681 0.071204
vertex 0.666667 1.000000 0.108235
vertex 0.666667 0.888889 0.108235
endloop
endfacet
facet normal -0.071035 -0.142388 -0.987259
outer loop
vertex 0.488651 0.919321 0.074108
vertex 0.348620 0.898375 0.087205
vertex 0.352364 0.988788 0.073896
endloop
endfacet
facet normal 0.004880 0.006510 -0.999967
outer loop
vertex 0.352364 0.988788 0.073896
vertex 0.483576 0.988134 0.074532
vertex 0.488651 0.919321 0.074108
endloop
endfacet
facet normal 0.107539 -0.933245 -0.342767
outer loop
vertex 0.333333 0.888889 0.108235
vertex 0.348620 0.898375 0.087205
vertex 0.488651 0.919321 0.074108
endloop
endfacet
facet normal -0.000000 -0.746361 -0.665542
outer loop
vertex 0.488651 0.919321 0.074108
vertex 0.500000 0.888889 0.108235
vertex 0.333333 0.888889 0.108235
endloop
endfacet
facet normal -0.878787 -0.033683 -0.476024
outer loop
vertex 0.333333 1.000000 0.108235
vertex 0.352364 0.988788 0.073896
vertex 0.348620 0.898375 0.087205
endloop
endfacet
facet normal -0.808881 0.000000 -0.587973
outer loop
vertex 0.348620 0.898375 0.087205
vertex 0.333333 0.888889 0.108235
vertex 0.333333 1.000000 0.108235
endloop
endfacet
facet normal 0.006317 0.942262 -0.334817
outer loop
vertex 0.500000 1.000000 0.108235
vertex 0.483576 0.988134 0.074532
vertex 0.352364 0.988788 0.073896
endloop
endfacet
facet normal -0.000000 0.950611 -0.310385
outer loop
vertex 0.352364 0.988788 0.073896
vertex 0.333333 1.000000 0.108235
vertex 0.500000 1.000000 0.108235
endloop
endfacet
facet normal 0.964000 0.072664 -0.255780
outer loop
vertex 0.500000 0.888889 0.108235
vertex 0.488651 0.919321 0.074108
vertex 0.483576 0.988134 0.074532
endloop
endfacet
facet normal 0.898950 0.000001 -0.438051
outer loop
vertex 0.483576 0.988134 0.074532
vertex 0.500000 1.000000 0.108235
vertex 0.500000 0.888889 0.108235
endloop
endfacet
facet normal 0.131809 -0.050306 -0.989998
outer loop
vertex 0.325709 0.893171 0.100316
vertex 0.170135 0.906277 0.078937
vertex 0.172206 0.981510 0.075390
endloop
endfacet
facet normal 0.021156 -0.237281 -0.971211
outer loop
vertex 0.172206 0.981510 0.075390
vertex 0.327144 0.995431 0.075364
vertex 0.325709 0.893171 0.100316
endloop
endfacet
facet normal -0.002273 -0.859837 -0.510564
outer loop
vertex 0.166667 0.888889 0.108235
vertex 0.170135 0.906277 0.078937
vertex 0.325709 0.893171 0.100316
endloop
endfacet
facet normal 0.000000 -0.879647 -0.475628
outer loop
vertex 0.325709 0.893171 0.100316
vertex 0.333333 0.888889 0.108235
vertex 0.166667 0.888889 0.108235
endloop
endfacet
facet normal -0.984118 0.018758 -0.176522
outer loop
vertex 0.166667 1.000000 0.108235
vertex 0.172206 0.981510 0.075390
vertex 0.170135 0.906277 0.078937
endloop
endfacet
facet normal -0.993064 0.000000 -0.117574
outer loop
vertex 0.170135 0.906277 0.078937
vertex 0.166667 0.888889 0.108235
vertex 0.166667 1.000000 0.108235
endloop
endfacet
facet normal -0.088851 0.988704 -0.120704
outer loop
vertex 0.333333 1.000000 0.108235
vertex 0.327144 0.995431 0.075364
vertex 0.172206 0.981510 0.075390
endloop
endfacet
facet normal -0.000000 0.871414 -0.490548
outer loop
vertex 0.172206 0.981510 0.075390
vertex 0.166667 1.000000 0.108235
vertex 0.333333 1.000000 0.108235
endloop
endfacet
facet normal 0.654838 -0.187821 -0.732059
outer loop
vertex 0.333333 0.888889 0.108235
vertex 0.325709 0.893171 0.100316
vertex 0.327144 0.995431 0.075364
endloop
endfacet
facet normal 0.982731 0.000001 -0.185041
outer loop
vertex 0.327144 0.995431 0.075364
vertex 0.333333 1.000000 0.108235
vertex 0.333333 0.888889 0.108235
endloop
endfacet
endsolid Exported from Blender-2.76 (sub 0)
