solid OBJECT
  facet normal 1.000000e+000 0.000000e+000 0.000000e+000
    outer loop
      vertex 3.771400e-002 3.479330e-001 3.270900e-002
      vertex 3.771400e-002 3.981870e-001 5.066500e-002
      vertex 3.771400e-002 3.479330e-001 5.066500e-002
    endloop
  endfacet
  facet normal 1.000000e+000 0.000000e+000 0.000000e+000
    outer loop
      vertex 3.771400e-002 3.981870e-001 5.066500e-002
      vertex 3.771400e-002 3.479330e-001 3.270900e-002
      vertex 3.771400e-002 3.981870e-001 3.270900e-002
    endloop
  endfacet
  facet normal 0.000000e+000 0.000000e+000 1.000000e+000
    outer loop
      vertex 3.771400e-002 3.981870e-001 3.270900e-002
      vertex 9.999020e-001 3.479330e-001 3.270900e-002
      vertex 9.999020e-001 3.981870e-001 3.270900e-002
    endloop
  endfacet
  facet normal 0.000000e+000 0.000000e+000 1.000000e+000
    outer loop
      vertex 9.999020e-001 3.479330e-001 3.270900e-002
      vertex 3.771400e-002 3.981870e-001 3.270900e-002
      vertex 3.771400e-002 3.479330e-001 3.270900e-002
    endloop
  endfacet
  facet normal -1.000000e+000 0.000000e+000 0.000000e+000
    outer loop
      vertex 9.999020e-001 3.981870e-001 3.270900e-002
      vertex 9.999020e-001 3.479330e-001 5.066500e-002
      vertex 9.999020e-001 3.981870e-001 5.066500e-002
    endloop
  endfacet
  facet normal -1.000000e+000 0.000000e+000 0.000000e+000
    outer loop
      vertex 9.999020e-001 3.479330e-001 5.066500e-002
      vertex 9.999020e-001 3.981870e-001 3.270900e-002
      vertex 9.999020e-001 3.479330e-001 3.270900e-002
    endloop
  endfacet
  facet normal 0.000000e+000 0.000000e+000 -1.000000e+000
    outer loop
      vertex 3.771400e-002 3.479330e-001 5.066500e-002
      vertex 9.999020e-001 3.981870e-001 5.066500e-002
      vertex 9.999020e-001 3.479330e-001 5.066500e-002
    endloop
  endfacet
  facet normal 0.000000e+000 0.000000e+000 -1.000000e+000
    outer loop
      vertex 9.999020e-001 3.981870e-001 5.066500e-002
      vertex 3.771400e-002 3.479330e-001 5.066500e-002
      vertex 3.771400e-002 3.981870e-001 5.066500e-002
    endloop
  endfacet
  facet normal 0.000000e+000 1.000000e+000 0.000000e+000
    outer loop
      vertex 3.771400e-002 3.479330e-001 5.066500e-002
      vertex 9.999020e-001 3.479330e-001 3.270900e-002
      vertex 3.771400e-002 3.479330e-001 3.270900e-002
    endloop
  endfacet
  facet normal 0.000000e+000 1.000000e+000 0.000000e+000
    outer loop
      vertex 9.999020e-001 3.479330e-001 3.270900e-002
      vertex 3.771400e-002 3.479330e-001 5.066500e-002
      vertex 9.999020e-001 3.479330e-001 5.066500e-002
    endloop
  endfacet
  facet normal 0.000000e+000 -1.000000e+000 0.000000e+000
    outer loop
      vertex 9.999020e-001 3.981870e-001 5.066500e-002
      vertex 3.771400e-002 3.981870e-001 3.270900e-002
      vertex 9.999020e-001 3.981870e-001 3.270900e-002
    endloop
  endfacet
  facet normal 0.000000e+000 -1.000000e+000 0.000000e+000
    outer loop
      vertex 3.771400e-002 3.981870e-001 3.270900e-002
      vertex 9.999020e-001 3.981870e-001 5.066500e-002
      vertex 3.771400e-002 3.981870e-001 5.066500e-002
    endloop
  endfacet
  facet normal 1.000000e+000 0.000000e+000 0.000000e+000
    outer loop
      vertex 3.709900e-002 1.398380e-001 5.066500e-002
      vertex 3.709900e-002 8.958500e-002 3.270900e-002
      vertex 3.709900e-002 1.398380e-001 3.270900e-002
    endloop
  endfacet
  facet normal 1.000000e+000 0.000000e+000 0.000000e+000
    outer loop
      vertex 3.709900e-002 8.958500e-002 3.270900e-002
      vertex 3.709900e-002 1.398380e-001 5.066500e-002
      vertex 3.709900e-002 8.958500e-002 5.066500e-002
    endloop
  endfacet
  facet normal 0.000000e+000 0.000000e+000 1.000000e+000
    outer loop
      vertex 3.709900e-002 1.398380e-001 3.270900e-002
      vertex 9.998810e-001 8.958500e-002 3.270900e-002
      vertex 9.998810e-001 1.398390e-001 3.270900e-002
    endloop
  endfacet
  facet normal 0.000000e+000 0.000000e+000 1.000000e+000
    outer loop
      vertex 9.998810e-001 8.958500e-002 3.270900e-002
      vertex 3.709900e-002 1.398380e-001 3.270900e-002
      vertex 3.709900e-002 8.958500e-002 3.270900e-002
    endloop
  endfacet
  facet normal -1.000000e+000 0.000000e+000 0.000000e+000
    outer loop
      vertex 9.998810e-001 1.398390e-001 3.270900e-002
      vertex 9.998810e-001 8.958500e-002 5.066500e-002
      vertex 9.998810e-001 1.398390e-001 5.066500e-002
    endloop
  endfacet
  facet normal -1.000000e+000 0.000000e+000 0.000000e+000
    outer loop
      vertex 9.998810e-001 8.958500e-002 5.066500e-002
      vertex 9.998810e-001 1.398390e-001 3.270900e-002
      vertex 9.998810e-001 8.958500e-002 3.270900e-002
    endloop
  endfacet
  facet normal 0.000000e+000 0.000000e+000 -1.000000e+000
    outer loop
      vertex 9.998810e-001 1.398390e-001 5.066500e-002
      vertex 3.709900e-002 8.958500e-002 5.066500e-002
      vertex 3.709900e-002 1.398380e-001 5.066500e-002
    endloop
  endfacet
  facet normal 0.000000e+000 0.000000e+000 -1.000000e+000
    outer loop
      vertex 3.709900e-002 8.958500e-002 5.066500e-002
      vertex 9.998810e-001 1.398390e-001 5.066500e-002
      vertex 9.998810e-001 8.958500e-002 5.066500e-002
    endloop
  endfacet
  facet normal 0.000000e+000 1.000000e+000 0.000000e+000
    outer loop
      vertex 3.709900e-002 8.958500e-002 5.066500e-002
      vertex 9.998810e-001 8.958500e-002 3.270900e-002
      vertex 3.709900e-002 8.958500e-002 3.270900e-002
    endloop
  endfacet
  facet normal 0.000000e+000 1.000000e+000 0.000000e+000
    outer loop
      vertex 9.998810e-001 8.958500e-002 3.270900e-002
      vertex 3.709900e-002 8.958500e-002 5.066500e-002
      vertex 9.998810e-001 8.958500e-002 5.066500e-002
    endloop
  endfacet
  facet normal 1.036972e-006 -1.000000e+000 0.000000e+000
    outer loop
      vertex 9.998810e-001 1.398390e-001 5.066500e-002
      vertex 3.709900e-002 1.398380e-001 3.270900e-002
      vertex 9.998810e-001 1.398390e-001 3.270900e-002
    endloop
  endfacet
  facet normal 1.036972e-006 -1.000000e+000 0.000000e+000
    outer loop
      vertex 3.709900e-002 1.398380e-001 3.270900e-002
      vertex 9.998810e-001 1.398390e-001 5.066500e-002
      vertex 3.709900e-002 1.398380e-001 5.066500e-002
    endloop
  endfacet
  facet normal -5.247153e-001 -7.926511e-001 -3.104483e-001
    outer loop
      vertex 1.436710e-001 4.486310e-001 5.238800e-002
      vertex 1.369900e-001 4.459670e-001 7.048200e-002
      vertex 9.763000e-002 4.791090e-001 5.238800e-002
    endloop
  endfacet
  facet normal 0.000000e+000 -1.000000e+000 0.000000e+000
    outer loop
      vertex 2.202100e-002 4.757270e-001 7.950000e-003
      vertex 5.394400e-002 4.757270e-001 1.909400e-002
      vertex 1.557000e-003 4.757270e-001 3.486700e-002
    endloop
  endfacet
  facet normal 4.888386e-001 -2.528814e-001 -8.349179e-001
    outer loop
      vertex 1.208630e-001 4.395350e-001 7.797700e-002
      vertex 1.047350e-001 4.331040e-001 7.048200e-002
      vertex 9.763000e-002 4.791090e-001 5.238800e-002
    endloop
  endfacet
  facet normal -8.026211e-001 -4.712080e-001 -3.657355e-001
    outer loop
      vertex 3.877170e-001 3.294100e-002 5.238800e-002
      vertex 1.369900e-001 4.459670e-001 7.048200e-002
      vertex 1.436710e-001 4.486310e-001 5.238800e-002
    endloop
  endfacet
  facet normal -8.026333e-001 -4.712171e-001 -3.656970e-001
    outer loop
      vertex 1.369900e-001 4.459670e-001 7.048200e-002
      vertex 3.877170e-001 3.294100e-002 5.238800e-002
      vertex 3.810370e-001 3.027700e-002 7.048200e-002
    endloop
  endfacet
  facet normal -3.703785e-001 9.288809e-001 2.232602e-005
    outer loop
      vertex 3.810370e-001 3.027700e-002 7.048200e-002
      vertex 3.877170e-001 3.294100e-002 5.238800e-002
      vertex 3.649090e-001 2.384600e-002 7.797700e-002
    endloop
  endfacet
  facet normal 8.026333e-001 4.712172e-001 -3.656967e-001
    outer loop
      vertex 3.487820e-001 1.741400e-002 7.048200e-002
      vertex 9.805500e-002 4.304400e-001 5.238800e-002
      vertex 1.047350e-001 4.331040e-001 7.048200e-002
    endloop
  endfacet
  facet normal 8.026404e-001 4.712224e-001 -3.656744e-001
    outer loop
      vertex 9.805500e-002 4.304400e-001 5.238800e-002
      vertex 3.487820e-001 1.741400e-002 7.048200e-002
      vertex 3.421020e-001 1.475100e-002 5.238800e-002
    endloop
  endfacet
  facet normal -3.451051e-001 -2.026074e-001 -9.164348e-001
    outer loop
      vertex 3.810370e-001 3.027700e-002 7.048200e-002
      vertex 1.208630e-001 4.395350e-001 7.797700e-002
      vertex 1.369900e-001 4.459670e-001 7.048200e-002
    endloop
  endfacet
  facet normal -3.450991e-001 -2.026035e-001 -9.164379e-001
    outer loop
      vertex 1.208630e-001 4.395350e-001 7.797700e-002
      vertex 3.810370e-001 3.027700e-002 7.048200e-002
      vertex 3.649090e-001 2.384600e-002 7.797700e-002
    endloop
  endfacet
  facet normal -3.704073e-001 9.288695e-001 4.122566e-005
    outer loop
      vertex 3.487820e-001 1.741400e-002 7.048200e-002
      vertex 3.877170e-001 3.294100e-002 5.238800e-002
      vertex 3.421020e-001 1.475100e-002 5.238800e-002
    endloop
  endfacet
  facet normal -3.704405e-001 9.288562e-001 -4.172810e-005
    outer loop
      vertex 3.649090e-001 2.384600e-002 7.797700e-002
      vertex 3.877170e-001 3.294100e-002 5.238800e-002
      vertex 3.487820e-001 1.741400e-002 7.048200e-002
    endloop
  endfacet
  facet normal 3.450994e-001 2.026037e-001 -9.164378e-001
    outer loop
      vertex 3.649090e-001 2.384600e-002 7.797700e-002
      vertex 1.047350e-001 4.331040e-001 7.048200e-002
      vertex 1.208630e-001 4.395350e-001 7.797700e-002
    endloop
  endfacet
  facet normal 3.451052e-001 2.026074e-001 -9.164347e-001
    outer loop
      vertex 1.047350e-001 4.331040e-001 7.048200e-002
      vertex 3.649090e-001 2.384600e-002 7.797700e-002
      vertex 3.487820e-001 1.741400e-002 7.048200e-002
    endloop
  endfacet
  facet normal 0.000000e+000 0.000000e+000 1.000000e+000
    outer loop
      vertex 3.421020e-001 1.475100e-002 5.238800e-002
      vertex 1.436710e-001 4.486310e-001 5.238800e-002
      vertex 9.805500e-002 4.304400e-001 5.238800e-002
    endloop
  endfacet
  facet normal 0.000000e+000 0.000000e+000 1.000000e+000
    outer loop
      vertex 1.436710e-001 4.486310e-001 5.238800e-002
      vertex 3.421020e-001 1.475100e-002 5.238800e-002
      vertex 3.877170e-001 3.294100e-002 5.238800e-002
    endloop
  endfacet
  facet normal 0.000000e+000 1.000000e+000 0.000000e+000
    outer loop
      vertex 5.321000e-002 8.665000e-003 5.289900e-002
      vertex 5.394400e-002 8.665000e-003 1.909400e-002
      vertex 1.557000e-003 8.665000e-003 3.486700e-002
    endloop
  endfacet
  facet normal 9.376872e-001 8.188240e-003 -3.473841e-001
    outer loop
      vertex 1.047350e-001 4.331040e-001 7.048200e-002
      vertex 9.805500e-002 4.304400e-001 5.238800e-002
      vertex 9.763000e-002 4.791090e-001 5.238800e-002
    endloop
  endfacet
  facet normal -5.247200e-001 -7.926582e-001 -3.104221e-001
    outer loop
      vertex 3.195380e-001 4.486310e-001 5.238800e-002
      vertex 3.128580e-001 4.459670e-001 7.048200e-002
      vertex 2.734970e-001 4.791090e-001 5.238800e-002
    endloop
  endfacet
  facet normal 9.376870e-001 8.188526e-003 -3.473845e-001
    outer loop
      vertex 2.806020e-001 4.331040e-001 7.048200e-002
      vertex 2.739220e-001 4.304400e-001 5.238800e-002
      vertex 2.734970e-001 4.791090e-001 5.238800e-002
    endloop
  endfacet
  facet normal 4.888384e-001 -2.528813e-001 -8.349180e-001
    outer loop
      vertex 2.967300e-001 4.395350e-001 7.797700e-002
      vertex 2.806020e-001 4.331040e-001 7.048200e-002
      vertex 2.734970e-001 4.791090e-001 5.238800e-002
    endloop
  endfacet
  facet normal -3.704006e-001 9.288721e-001 3.836683e-005
    outer loop
      vertex 5.246490e-001 1.741400e-002 7.048200e-002
      vertex 5.635850e-001 3.294100e-002 5.238800e-002
      vertex 5.179690e-001 1.475100e-002 5.238800e-002
    endloop
  endfacet
  facet normal -3.704266e-001 9.288618e-001 -2.644964e-005
    outer loop
      vertex 5.407770e-001 2.384600e-002 7.797700e-002
      vertex 5.635850e-001 3.294100e-002 5.238800e-002
      vertex 5.246490e-001 1.741400e-002 7.048200e-002
    endloop
  endfacet
  facet normal -3.704122e-001 9.288675e-001 -1.161167e-005
    outer loop
      vertex 5.569040e-001 3.027700e-002 7.048200e-002
      vertex 5.635850e-001 3.294100e-002 5.238800e-002
      vertex 5.407770e-001 2.384600e-002 7.797700e-002
    endloop
  endfacet
  facet normal 8.026332e-001 4.712171e-001 -3.656970e-001
    outer loop
      vertex 5.246490e-001 1.741400e-002 7.048200e-002
      vertex 2.739220e-001 4.304400e-001 5.238800e-002
      vertex 2.806020e-001 4.331040e-001 7.048200e-002
    endloop
  endfacet
  facet normal 8.026404e-001 4.712225e-001 -3.656744e-001
    outer loop
      vertex 2.739220e-001 4.304400e-001 5.238800e-002
      vertex 5.246490e-001 1.741400e-002 7.048200e-002
      vertex 5.179690e-001 1.475100e-002 5.238800e-002
    endloop
  endfacet
  facet normal 3.450990e-001 2.026043e-001 -9.164378e-001
    outer loop
      vertex 5.407770e-001 2.384600e-002 7.797700e-002
      vertex 2.806020e-001 4.331040e-001 7.048200e-002
      vertex 2.967300e-001 4.395350e-001 7.797700e-002
    endloop
  endfacet
  facet normal 3.450904e-001 2.025988e-001 -9.164422e-001
    outer loop
      vertex 2.806020e-001 4.331040e-001 7.048200e-002
      vertex 5.407770e-001 2.384600e-002 7.797700e-002
      vertex 5.246490e-001 1.741400e-002 7.048200e-002
    endloop
  endfacet
  facet normal -3.450912e-001 -2.025984e-001 -9.164420e-001
    outer loop
      vertex 5.569040e-001 3.027700e-002 7.048200e-002
      vertex 2.967300e-001 4.395350e-001 7.797700e-002
      vertex 3.128580e-001 4.459670e-001 7.048200e-002
    endloop
  endfacet
  facet normal -3.451136e-001 -2.026129e-001 -9.164304e-001
    outer loop
      vertex 2.967300e-001 4.395350e-001 7.797700e-002
      vertex 5.569040e-001 3.027700e-002 7.048200e-002
      vertex 5.407770e-001 2.384600e-002 7.797700e-002
    endloop
  endfacet
  facet normal -8.026333e-001 -4.712171e-001 -3.656970e-001
    outer loop
      vertex 5.635850e-001 3.294100e-002 5.238800e-002
      vertex 3.128580e-001 4.459670e-001 7.048200e-002
      vertex 3.195380e-001 4.486310e-001 5.238800e-002
    endloop
  endfacet
  facet normal -8.026216e-001 -4.712084e-001 -3.657337e-001
    outer loop
      vertex 3.128580e-001 4.459670e-001 7.048200e-002
      vertex 5.635850e-001 3.294100e-002 5.238800e-002
      vertex 5.569040e-001 3.027700e-002 7.048200e-002
    endloop
  endfacet
  facet normal 0.000000e+000 0.000000e+000 1.000000e+000
    outer loop
      vertex 5.179690e-001 1.475100e-002 5.238800e-002
      vertex 3.195380e-001 4.486310e-001 5.238800e-002
      vertex 2.739220e-001 4.304400e-001 5.238800e-002
    endloop
  endfacet
  facet normal 0.000000e+000 0.000000e+000 1.000000e+000
    outer loop
      vertex 3.195380e-001 4.486310e-001 5.238800e-002
      vertex 5.179690e-001 1.475100e-002 5.238800e-002
      vertex 5.635850e-001 3.294100e-002 5.238800e-002
    endloop
  endfacet
  facet normal 0.000000e+000 0.000000e+000 1.000000e+000
    outer loop
      vertex 2.739220e-001 4.304400e-001 5.238800e-002
      vertex 3.195380e-001 4.486310e-001 5.238800e-002
      vertex 2.734970e-001 4.791090e-001 5.238800e-002
    endloop
  endfacet
  facet normal -1.332067e-001 -5.921107e-001 -7.947709e-001
    outer loop
      vertex 3.128580e-001 4.459670e-001 7.048200e-002
      vertex 2.967300e-001 4.395350e-001 7.797700e-002
      vertex 2.734970e-001 4.791090e-001 5.238800e-002
    endloop
  endfacet
  facet normal -5.247318e-001 -7.926492e-001 -3.104251e-001
    outer loop
      vertex 5.166120e-001 4.485590e-001 5.238800e-002
      vertex 5.099320e-001 4.458950e-001 7.048200e-002
      vertex 4.705710e-001 4.790380e-001 5.238800e-002
    endloop
  endfacet
  facet normal 9.376871e-001 8.187947e-003 -3.473844e-001
    outer loop
      vertex 4.776760e-001 4.330330e-001 7.048200e-002
      vertex 4.709960e-001 4.303690e-001 5.238800e-002
      vertex 4.705710e-001 4.790380e-001 5.238800e-002
    endloop
  endfacet
  facet normal 4.888387e-001 -2.528813e-001 -8.349178e-001
    outer loop
      vertex 4.938040e-001 4.394640e-001 7.797700e-002
      vertex 4.776760e-001 4.330330e-001 7.048200e-002
      vertex 4.705710e-001 4.790380e-001 5.238800e-002
    endloop
  endfacet
  facet normal -3.704182e-001 9.288651e-001 -5.461941e-006
    outer loop
      vertex 7.217230e-001 1.734300e-002 7.048200e-002
      vertex 7.606590e-001 3.287000e-002 5.238800e-002
      vertex 7.150430e-001 1.467900e-002 5.238800e-002
    endloop
  endfacet
  facet normal -3.704266e-001 9.288618e-001 -2.644964e-005
    outer loop
      vertex 7.378510e-001 2.377500e-002 7.797700e-002
      vertex 7.606590e-001 3.287000e-002 5.238800e-002
      vertex 7.217230e-001 1.734300e-002 7.048200e-002
    endloop
  endfacet
  facet normal -3.704122e-001 9.288675e-001 -1.161167e-005
    outer loop
      vertex 7.539780e-001 3.020600e-002 7.048200e-002
      vertex 7.606590e-001 3.287000e-002 5.238800e-002
      vertex 7.378510e-001 2.377500e-002 7.797700e-002
    endloop
  endfacet
  facet normal 8.026332e-001 4.712171e-001 -3.656970e-001
    outer loop
      vertex 7.217230e-001 1.734300e-002 7.048200e-002
      vertex 4.709960e-001 4.303690e-001 5.238800e-002
      vertex 4.776760e-001 4.330330e-001 7.048200e-002
    endloop
  endfacet
  facet normal 8.026332e-001 4.712171e-001 -3.656970e-001
    outer loop
      vertex 4.709960e-001 4.303690e-001 5.238800e-002
      vertex 7.217230e-001 1.734300e-002 7.048200e-002
      vertex 7.150430e-001 1.467900e-002 5.238800e-002
    endloop
  endfacet
  facet normal 3.450987e-001 2.026041e-001 -9.164379e-001
    outer loop
      vertex 7.378510e-001 2.377500e-002 7.797700e-002
      vertex 4.776760e-001 4.330330e-001 7.048200e-002
      vertex 4.938040e-001 4.394640e-001 7.797700e-002
    endloop
  endfacet
  facet normal 3.450904e-001 2.025988e-001 -9.164422e-001
    outer loop
      vertex 4.776760e-001 4.330330e-001 7.048200e-002
      vertex 7.378510e-001 2.377500e-002 7.797700e-002
      vertex 7.217230e-001 1.734300e-002 7.048200e-002
    endloop
  endfacet
  facet normal -3.450997e-001 -2.026039e-001 -9.164376e-001
    outer loop
      vertex 7.539780e-001 3.020600e-002 7.048200e-002
      vertex 4.938040e-001 4.394640e-001 7.797700e-002
      vertex 5.099320e-001 4.458950e-001 7.048200e-002
    endloop
  endfacet
  facet normal -3.451136e-001 -2.026129e-001 -9.164304e-001
    outer loop
      vertex 4.938040e-001 4.394640e-001 7.797700e-002
      vertex 7.539780e-001 3.020600e-002 7.048200e-002
      vertex 7.378510e-001 2.377500e-002 7.797700e-002
    endloop
  endfacet
  facet normal -8.026328e-001 -4.712179e-001 -3.656970e-001
    outer loop
      vertex 7.606590e-001 3.287000e-002 5.238800e-002
      vertex 5.099320e-001 4.458950e-001 7.048200e-002
      vertex 5.166120e-001 4.485590e-001 5.238800e-002
    endloop
  endfacet
  facet normal -8.026211e-001 -4.712093e-001 -3.657337e-001
    outer loop
      vertex 5.099320e-001 4.458950e-001 7.048200e-002
      vertex 7.606590e-001 3.287000e-002 5.238800e-002
      vertex 7.539780e-001 3.020600e-002 7.048200e-002
    endloop
  endfacet
  facet normal 0.000000e+000 0.000000e+000 1.000000e+000
    outer loop
      vertex 7.150430e-001 1.467900e-002 5.238800e-002
      vertex 5.166120e-001 4.485590e-001 5.238800e-002
      vertex 4.709960e-001 4.303690e-001 5.238800e-002
    endloop
  endfacet
  facet normal 0.000000e+000 0.000000e+000 1.000000e+000
    outer loop
      vertex 5.166120e-001 4.485590e-001 5.238800e-002
      vertex 7.150430e-001 1.467900e-002 5.238800e-002
      vertex 7.606590e-001 3.287000e-002 5.238800e-002
    endloop
  endfacet
  facet normal 0.000000e+000 0.000000e+000 1.000000e+000
    outer loop
      vertex 4.709960e-001 4.303690e-001 5.238800e-002
      vertex 5.166120e-001 4.485590e-001 5.238800e-002
      vertex 4.705710e-001 4.790380e-001 5.238800e-002
    endloop
  endfacet
  facet normal -1.332350e-001 -5.921198e-001 -7.947594e-001
    outer loop
      vertex 5.099320e-001 4.458950e-001 7.048200e-002
      vertex 4.938040e-001 4.394640e-001 7.797700e-002
      vertex 4.705710e-001 4.790380e-001 5.238800e-002
    endloop
  endfacet
  facet normal -5.247316e-001 -7.926494e-001 -3.104251e-001
    outer loop
      vertex 7.136860e-001 4.484880e-001 5.238800e-002
      vertex 7.070060e-001 4.458240e-001 7.048200e-002
      vertex 6.676450e-001 4.789670e-001 5.238800e-002
    endloop
  endfacet
  facet normal 9.376880e-001 8.189104e-003 -3.473818e-001
    outer loop
      vertex 6.747500e-001 4.329620e-001 7.048200e-002
      vertex 6.680700e-001 4.302980e-001 5.238800e-002
      vertex 6.676450e-001 4.789670e-001 5.238800e-002
    endloop
  endfacet
  facet normal 4.888387e-001 -2.528813e-001 -8.349178e-001
    outer loop
      vertex 6.908780e-001 4.393930e-001 7.797700e-002
      vertex 6.747500e-001 4.329620e-001 7.048200e-002
      vertex 6.676450e-001 4.789670e-001 5.238800e-002
    endloop
  endfacet
  facet normal -3.704073e-001 9.288694e-001 -1.006764e-005
    outer loop
      vertex 9.187970e-001 1.727200e-002 7.048200e-002
      vertex 9.577320e-001 3.279800e-002 5.238800e-002
      vertex 9.121170e-001 1.460800e-002 5.238800e-002
    endloop
  endfacet
  facet normal -3.703954e-001 9.288742e-001 1.966659e-005
    outer loop
      vertex 9.349250e-001 2.370300e-002 7.797700e-002
      vertex 9.577320e-001 3.279800e-002 5.238800e-002
      vertex 9.187970e-001 1.727200e-002 7.048200e-002
    endloop
  endfacet
  facet normal -3.704027e-001 9.288713e-001 1.207052e-005
    outer loop
      vertex 9.510520e-001 3.013400e-002 7.048200e-002
      vertex 9.577320e-001 3.279800e-002 5.238800e-002
      vertex 9.349250e-001 2.370300e-002 7.797700e-002
    endloop
  endfacet
  facet normal 8.026340e-001 4.712176e-001 -3.656947e-001
    outer loop
      vertex 9.187970e-001 1.727200e-002 7.048200e-002
      vertex 6.680700e-001 4.302980e-001 5.238800e-002
      vertex 6.747500e-001 4.329620e-001 7.048200e-002
    endloop
  endfacet
  facet normal 8.026333e-001 4.712171e-001 -3.656970e-001
    outer loop
      vertex 6.680700e-001 4.302980e-001 5.238800e-002
      vertex 9.187970e-001 1.727200e-002 7.048200e-002
      vertex 9.121170e-001 1.460800e-002 5.238800e-002
    endloop
  endfacet
  facet normal 3.450989e-001 2.026038e-001 -9.164379e-001
    outer loop
      vertex 9.349250e-001 2.370300e-002 7.797700e-002
      vertex 6.747500e-001 4.329620e-001 7.048200e-002
      vertex 6.908780e-001 4.393930e-001 7.797700e-002
    endloop
  endfacet
  facet normal 3.450990e-001 2.026038e-001 -9.164379e-001
    outer loop
      vertex 6.747500e-001 4.329620e-001 7.048200e-002
      vertex 9.349250e-001 2.370300e-002 7.797700e-002
      vertex 9.187970e-001 1.727200e-002 7.048200e-002
    endloop
  endfacet
  facet normal -3.450994e-001 -2.026032e-001 -9.164378e-001
    outer loop
      vertex 9.510520e-001 3.013400e-002 7.048200e-002
      vertex 6.908780e-001 4.393930e-001 7.797700e-002
      vertex 7.070060e-001 4.458240e-001 7.048200e-002
    endloop
  endfacet
  facet normal -3.451137e-001 -2.026125e-001 -9.164304e-001
    outer loop
      vertex 6.908780e-001 4.393930e-001 7.797700e-002
      vertex 9.510520e-001 3.013400e-002 7.048200e-002
      vertex 9.349250e-001 2.370300e-002 7.797700e-002
    endloop
  endfacet
  facet normal -8.026340e-001 -4.712157e-001 -3.656971e-001
    outer loop
      vertex 9.577320e-001 3.279800e-002 5.238800e-002
      vertex 7.070060e-001 4.458240e-001 7.048200e-002
      vertex 7.136860e-001 4.484880e-001 5.238800e-002
    endloop
  endfacet
  facet normal -8.026340e-001 -4.712157e-001 -3.656971e-001
    outer loop
      vertex 7.070060e-001 4.458240e-001 7.048200e-002
      vertex 9.577320e-001 3.279800e-002 5.238800e-002
      vertex 9.510520e-001 3.013400e-002 7.048200e-002
    endloop
  endfacet
  facet normal 0.000000e+000 0.000000e+000 1.000000e+000
    outer loop
      vertex 9.121170e-001 1.460800e-002 5.238800e-002
      vertex 7.136860e-001 4.484880e-001 5.238800e-002
      vertex 6.680700e-001 4.302980e-001 5.238800e-002
    endloop
  endfacet
  facet normal 0.000000e+000 0.000000e+000 1.000000e+000
    outer loop
      vertex 7.136860e-001 4.484880e-001 5.238800e-002
      vertex 9.121170e-001 1.460800e-002 5.238800e-002
      vertex 9.577320e-001 3.279800e-002 5.238800e-002
    endloop
  endfacet
  facet normal 0.000000e+000 0.000000e+000 1.000000e+000
    outer loop
      vertex 6.680700e-001 4.302980e-001 5.238800e-002
      vertex 7.136860e-001 4.484880e-001 5.238800e-002
      vertex 6.676450e-001 4.789670e-001 5.238800e-002
    endloop
  endfacet
  facet normal -1.332348e-001 -5.921197e-001 -7.947595e-001
    outer loop
      vertex 7.070060e-001 4.458240e-001 7.048200e-002
      vertex 6.908780e-001 4.393930e-001 7.797700e-002
      vertex 6.676450e-001 4.789670e-001 5.238800e-002
    endloop
  endfacet
  facet normal -9.376071e-001 1.433431e-002 -3.474009e-001
    outer loop
      vertex 3.996650e-001 4.299170e-001 7.992100e-002
      vertex 3.930020e-001 4.326100e-001 9.801500e-002
      vertex 4.004090e-001 4.785830e-001 7.992100e-002
    endloop
  endfacet
  facet normal 5.207348e-001 -7.953874e-001 -3.101516e-001
    outer loop
      vertex 3.608310e-001 4.456160e-001 9.801500e-002
      vertex 3.541690e-001 4.483100e-001 7.992100e-002
      vertex 4.004090e-001 4.785830e-001 7.992100e-002
    endloop
  endfacet
  facet normal 1.305638e-001 -5.928827e-001 -7.946340e-001
    outer loop
      vertex 3.769170e-001 4.391130e-001 1.055100e-001
      vertex 3.608310e-001 4.456160e-001 9.801500e-002
      vertex 4.004090e-001 4.785830e-001 7.992100e-002
    endloop
  endfacet
  facet normal 3.748068e-001 9.271030e-001 1.539113e-005
    outer loop
      vertex 1.140670e-001 3.101700e-002 9.801500e-002
      vertex 1.529000e-001 1.531800e-002 7.992100e-002
      vertex 1.074040e-001 3.371100e-002 7.992100e-002
    endloop
  endfacet
  facet normal 3.748086e-001 9.271022e-001 1.992698e-005
    outer loop
      vertex 1.301520e-001 2.451400e-002 1.055100e-001
      vertex 1.529000e-001 1.531800e-002 7.992100e-002
      vertex 1.140670e-001 3.101700e-002 9.801500e-002
    endloop
  endfacet
  facet normal 3.747514e-001 9.271253e-001 -3.922118e-005
    outer loop
      vertex 1.462370e-001 1.801200e-002 9.801500e-002
      vertex 1.529000e-001 1.531800e-002 7.992100e-002
      vertex 1.301520e-001 2.451400e-002 1.055100e-001
    endloop
  endfacet
  facet normal 7.998932e-001 -4.760861e-001 -3.653940e-001
    outer loop
      vertex 1.140670e-001 3.101700e-002 9.801500e-002
      vertex 3.541690e-001 4.483100e-001 7.992100e-002
      vertex 3.608310e-001 4.456160e-001 9.801500e-002
    endloop
  endfacet
  facet normal 7.998790e-001 -4.760797e-001 -3.654335e-001
    outer loop
      vertex 3.541690e-001 4.483100e-001 7.992100e-002
      vertex 1.140670e-001 3.101700e-002 9.801500e-002
      vertex 1.074040e-001 3.371100e-002 7.992100e-002
    endloop
  endfacet
  facet normal 3.441336e-001 -2.048248e-001 -9.163072e-001
    outer loop
      vertex 1.301520e-001 2.451400e-002 1.055100e-001
      vertex 3.608310e-001 4.456160e-001 9.801500e-002
      vertex 3.769170e-001 4.391130e-001 1.055100e-001
    endloop
  endfacet
  facet normal 3.441487e-001 -2.048329e-001 -9.162997e-001
    outer loop
      vertex 3.608310e-001 4.456160e-001 9.801500e-002
      vertex 1.301520e-001 2.451400e-002 1.055100e-001
      vertex 1.140670e-001 3.101700e-002 9.801500e-002
    endloop
  endfacet
  facet normal -3.441484e-001 2.048340e-001 -9.162996e-001
    outer loop
      vertex 1.462370e-001 1.801200e-002 9.801500e-002
      vertex 3.769170e-001 4.391130e-001 1.055100e-001
      vertex 3.930020e-001 4.326100e-001 9.801500e-002
    endloop
  endfacet
  facet normal -3.441571e-001 2.048387e-001 -9.162953e-001
    outer loop
      vertex 3.769170e-001 4.391130e-001 1.055100e-001
      vertex 1.462370e-001 1.801200e-002 9.801500e-002
      vertex 1.301520e-001 2.451400e-002 1.055100e-001
    endloop
  endfacet
  facet normal -7.998869e-001 4.760843e-001 -3.654103e-001
    outer loop
      vertex 1.529000e-001 1.531800e-002 7.992100e-002
      vertex 3.930020e-001 4.326100e-001 9.801500e-002
      vertex 3.996650e-001 4.299170e-001 7.992100e-002
    endloop
  endfacet
  facet normal -7.998787e-001 4.760806e-001 -3.654332e-001
    outer loop
      vertex 3.930020e-001 4.326100e-001 9.801500e-002
      vertex 1.529000e-001 1.531800e-002 7.992100e-002
      vertex 1.462370e-001 1.801200e-002 9.801500e-002
    endloop
  endfacet
  facet normal 0.000000e+000 0.000000e+000 1.000000e+000
    outer loop
      vertex 1.074040e-001 3.371100e-002 7.992100e-002
      vertex 3.996650e-001 4.299170e-001 7.992100e-002
      vertex 3.541690e-001 4.483100e-001 7.992100e-002
    endloop
  endfacet
  facet normal 0.000000e+000 0.000000e+000 1.000000e+000
    outer loop
      vertex 3.996650e-001 4.299170e-001 7.992100e-002
      vertex 1.074040e-001 3.371100e-002 7.992100e-002
      vertex 1.529000e-001 1.531800e-002 7.992100e-002
    endloop
  endfacet
  facet normal 0.000000e+000 0.000000e+000 1.000000e+000
    outer loop
      vertex 3.541690e-001 4.483100e-001 7.992100e-002
      vertex 3.996650e-001 4.299170e-001 7.992100e-002
      vertex 4.004090e-001 4.785830e-001 7.992100e-002
    endloop
  endfacet
  facet normal -4.900993e-001 -2.497259e-001 -8.351285e-001
    outer loop
      vertex 3.930020e-001 4.326100e-001 9.801500e-002
      vertex 3.769170e-001 4.391130e-001 1.055100e-001
      vertex 4.004090e-001 4.785830e-001 7.992100e-002
    endloop
  endfacet
  facet normal -9.376238e-001 1.433399e-002 -3.473561e-001
    outer loop
      vertex 5.967360e-001 4.291120e-001 7.992100e-002
      vertex 5.900740e-001 4.318050e-001 9.801500e-002
      vertex 5.974800e-001 4.777780e-001 7.992100e-002
    endloop
  endfacet
  facet normal 5.207299e-001 -7.953802e-001 -3.101784e-001
    outer loop
      vertex 5.579030e-001 4.448110e-001 9.801500e-002
      vertex 5.512400e-001 4.475050e-001 7.992100e-002
      vertex 5.974800e-001 4.777780e-001 7.992100e-002
    endloop
  endfacet
  facet normal 1.305705e-001 -5.928852e-001 -7.946310e-001
    outer loop
      vertex 5.739880e-001 4.383080e-001 1.055100e-001
      vertex 5.579030e-001 4.448110e-001 9.801500e-002
      vertex 5.974800e-001 4.777780e-001 7.992100e-002
    endloop
  endfacet
  facet normal 3.748066e-001 9.271030e-001 1.553182e-005
    outer loop
      vertex 3.111390e-001 3.021200e-002 9.801500e-002
      vertex 3.499720e-001 1.451300e-002 7.992100e-002
      vertex 3.044760e-001 3.290600e-002 7.992100e-002
    endloop
  endfacet
  facet normal 3.748085e-001 9.271023e-001 2.035085e-005
    outer loop
      vertex 3.272240e-001 2.370900e-002 1.055100e-001
      vertex 3.499720e-001 1.451300e-002 7.992100e-002
      vertex 3.111390e-001 3.021200e-002 9.801500e-002
    endloop
  endfacet
  facet normal 3.747516e-001 9.271253e-001 -3.852380e-005
    outer loop
      vertex 3.433090e-001 1.720700e-002 9.801500e-002
      vertex 3.499720e-001 1.451300e-002 7.992100e-002
      vertex 3.272240e-001 2.370900e-002 1.055100e-001
    endloop
  endfacet
  facet normal 7.998803e-001 -4.760785e-001 -3.654324e-001
    outer loop
      vertex 3.111390e-001 3.021200e-002 9.801500e-002
      vertex 5.512400e-001 4.475050e-001 7.992100e-002
      vertex 5.579030e-001 4.448110e-001 9.801500e-002
    endloop
  endfacet
  facet normal 7.998800e-001 -4.760783e-001 -3.654333e-001
    outer loop
      vertex 5.512400e-001 4.475050e-001 7.992100e-002
      vertex 3.111390e-001 3.021200e-002 9.801500e-002
      vertex 3.044760e-001 3.290600e-002 7.992100e-002
    endloop
  endfacet
  facet normal 3.441484e-001 -2.048327e-001 -9.162999e-001
    outer loop
      vertex 3.272240e-001 2.370900e-002 1.055100e-001
      vertex 5.579030e-001 4.448110e-001 9.801500e-002
      vertex 5.739880e-001 4.383080e-001 1.055100e-001
    endloop
  endfacet
  facet normal 3.441487e-001 -2.048329e-001 -9.162997e-001
    outer loop
      vertex 5.579030e-001 4.448110e-001 9.801500e-002
      vertex 3.272240e-001 2.370900e-002 1.055100e-001
      vertex 3.111390e-001 3.021200e-002 9.801500e-002
    endloop
  endfacet
  facet normal -3.441342e-001 2.048256e-001 -9.163068e-001
    outer loop
      vertex 3.433090e-001 1.720700e-002 9.801500e-002
      vertex 5.739880e-001 4.383080e-001 1.055100e-001
      vertex 5.900740e-001 4.318050e-001 9.801500e-002
    endloop
  endfacet
  facet normal -3.441573e-001 2.048381e-001 -9.162953e-001
    outer loop
      vertex 5.739880e-001 4.383080e-001 1.055100e-001
      vertex 3.433090e-001 1.720700e-002 9.801500e-002
      vertex 3.272240e-001 2.370900e-002 1.055100e-001
    endloop
  endfacet
  facet normal -7.999002e-001 4.760903e-001 -3.653734e-001
    outer loop
      vertex 3.499720e-001 1.451300e-002 7.992100e-002
      vertex 5.900740e-001 4.318050e-001 9.801500e-002
      vertex 5.967360e-001 4.291120e-001 7.992100e-002
    endloop
  endfacet
  facet normal -7.998783e-001 4.760804e-001 -3.654343e-001
    outer loop
      vertex 5.900740e-001 4.318050e-001 9.801500e-002
      vertex 3.499720e-001 1.451300e-002 7.992100e-002
      vertex 3.433090e-001 1.720700e-002 9.801500e-002
    endloop
  endfacet
  facet normal 0.000000e+000 0.000000e+000 1.000000e+000
    outer loop
      vertex 3.044760e-001 3.290600e-002 7.992100e-002
      vertex 5.967360e-001 4.291120e-001 7.992100e-002
      vertex 5.512400e-001 4.475050e-001 7.992100e-002
    endloop
  endfacet
  facet normal 0.000000e+000 0.000000e+000 1.000000e+000
    outer loop
      vertex 5.967360e-001 4.291120e-001 7.992100e-002
      vertex 3.044760e-001 3.290600e-002 7.992100e-002
      vertex 3.499720e-001 1.451300e-002 7.992100e-002
    endloop
  endfacet
  facet normal 0.000000e+000 0.000000e+000 1.000000e+000
    outer loop
      vertex 5.512400e-001 4.475050e-001 7.992100e-002
      vertex 5.967360e-001 4.291120e-001 7.992100e-002
      vertex 5.974800e-001 4.777780e-001 7.992100e-002
    endloop
  endfacet
  facet normal -4.900793e-001 -2.497427e-001 -8.351352e-001
    outer loop
      vertex 5.900740e-001 4.318050e-001 9.801500e-002
      vertex 5.739880e-001 4.383080e-001 1.055100e-001
      vertex 5.974800e-001 4.777780e-001 7.992100e-002
    endloop
  endfacet
  facet normal -9.376076e-001 1.433490e-002 -3.473996e-001
    outer loop
      vertex 7.938080e-001 4.283070e-001 7.992100e-002
      vertex 7.871450e-001 4.310000e-001 9.801500e-002
      vertex 7.945520e-001 4.769730e-001 7.992100e-002
    endloop
  endfacet
  facet normal 5.207292e-001 -7.953801e-001 -3.101798e-001
    outer loop
      vertex 7.549750e-001 4.440060e-001 9.801500e-002
      vertex 7.483120e-001 4.467000e-001 7.992100e-002
      vertex 7.945520e-001 4.769730e-001 7.992100e-002
    endloop
  endfacet
  facet normal 1.305708e-001 -5.928854e-001 -7.946308e-001
    outer loop
      vertex 7.710600e-001 4.375030e-001 1.055100e-001
      vertex 7.549750e-001 4.440060e-001 9.801500e-002
      vertex 7.945520e-001 4.769730e-001 7.992100e-002
    endloop
  endfacet
  facet normal 3.748064e-001 9.271031e-001 1.508635e-005
    outer loop
      vertex 5.082100e-001 2.940700e-002 9.801500e-002
      vertex 5.470430e-001 1.370800e-002 7.992100e-002
      vertex 5.015470e-001 3.210100e-002 7.992100e-002
    endloop
  endfacet
  facet normal 3.747739e-001 9.271163e-001 -6.610292e-005
    outer loop
      vertex 5.242960e-001 2.290500e-002 1.055100e-001
      vertex 5.470430e-001 1.370800e-002 7.992100e-002
      vertex 5.082100e-001 2.940700e-002 9.801500e-002
    endloop
  endfacet
  facet normal 3.748005e-001 9.271055e-001 -3.854096e-005
    outer loop
      vertex 5.403810e-001 1.640200e-002 9.801500e-002
      vertex 5.470430e-001 1.370800e-002 7.992100e-002
      vertex 5.242960e-001 2.290500e-002 1.055100e-001
    endloop
  endfacet
  facet normal 7.998787e-001 -4.760795e-001 -3.654346e-001
    outer loop
      vertex 5.082100e-001 2.940700e-002 9.801500e-002
      vertex 7.483120e-001 4.467000e-001 7.992100e-002
      vertex 7.549750e-001 4.440060e-001 9.801500e-002
    endloop
  endfacet
  facet normal 7.998788e-001 -4.760795e-001 -3.654344e-001
    outer loop
      vertex 7.483120e-001 4.467000e-001 7.992100e-002
      vertex 5.082100e-001 2.940700e-002 9.801500e-002
      vertex 5.015470e-001 3.210100e-002 7.992100e-002
    endloop
  endfacet
  facet normal 3.441491e-001 -2.048336e-001 -9.162994e-001
    outer loop
      vertex 5.242960e-001 2.290500e-002 1.055100e-001
      vertex 7.549750e-001 4.440060e-001 9.801500e-002
      vertex 7.710600e-001 4.375030e-001 1.055100e-001
    endloop
  endfacet
  facet normal 3.441428e-001 -2.048302e-001 -9.163025e-001
    outer loop
      vertex 7.549750e-001 4.440060e-001 9.801500e-002
      vertex 5.242960e-001 2.290500e-002 1.055100e-001
      vertex 5.082100e-001 2.940700e-002 9.801500e-002
    endloop
  endfacet
  facet normal -3.441480e-001 2.048330e-001 -9.163000e-001
    outer loop
      vertex 5.403810e-001 1.640200e-002 9.801500e-002
      vertex 7.710600e-001 4.375030e-001 1.055100e-001
      vertex 7.871450e-001 4.310000e-001 9.801500e-002
    endloop
  endfacet
  facet normal -3.441481e-001 2.048330e-001 -9.162999e-001
    outer loop
      vertex 7.710600e-001 4.375030e-001 1.055100e-001
      vertex 5.403810e-001 1.640200e-002 9.801500e-002
      vertex 5.242960e-001 2.290500e-002 1.055100e-001
    endloop
  endfacet
  facet normal -7.998873e-001 4.760845e-001 -3.654092e-001
    outer loop
      vertex 5.470430e-001 1.370800e-002 7.992100e-002
      vertex 7.871450e-001 4.310000e-001 9.801500e-002
      vertex 7.938080e-001 4.283070e-001 7.992100e-002
    endloop
  endfacet
  facet normal -7.998922e-001 4.760867e-001 -3.653956e-001
    outer loop
      vertex 7.871450e-001 4.310000e-001 9.801500e-002
      vertex 5.470430e-001 1.370800e-002 7.992100e-002
      vertex 5.403810e-001 1.640200e-002 9.801500e-002
    endloop
  endfacet
  facet normal 0.000000e+000 0.000000e+000 1.000000e+000
    outer loop
      vertex 5.015470e-001 3.210100e-002 7.992100e-002
      vertex 7.938080e-001 4.283070e-001 7.992100e-002
      vertex 7.483120e-001 4.467000e-001 7.992100e-002
    endloop
  endfacet
  facet normal 0.000000e+000 0.000000e+000 1.000000e+000
    outer loop
      vertex 7.938080e-001 4.283070e-001 7.992100e-002
      vertex 5.015470e-001 3.210100e-002 7.992100e-002
      vertex 5.470430e-001 1.370800e-002 7.992100e-002
    endloop
  endfacet
  facet normal 0.000000e+000 0.000000e+000 1.000000e+000
    outer loop
      vertex 7.483120e-001 4.467000e-001 7.992100e-002
      vertex 7.938080e-001 4.283070e-001 7.992100e-002
      vertex 7.945520e-001 4.769730e-001 7.992100e-002
    endloop
  endfacet
  facet normal -4.900990e-001 -2.497260e-001 -8.351287e-001
    outer loop
      vertex 7.871450e-001 4.310000e-001 9.801500e-002
      vertex 7.710600e-001 4.375030e-001 1.055100e-001
      vertex 7.945520e-001 4.769730e-001 7.992100e-002
    endloop
  endfacet
  facet normal -9.376238e-001 1.433399e-002 -3.473560e-001
    outer loop
      vertex 9.622610e-001 4.283070e-001 7.992100e-002
      vertex 9.555990e-001 4.310000e-001 9.801500e-002
      vertex 9.630050e-001 4.769730e-001 7.992100e-002
    endloop
  endfacet
  facet normal 5.207416e-001 -7.953816e-001 -3.101554e-001
    outer loop
      vertex 9.234280e-001 4.440060e-001 9.801500e-002
      vertex 9.167660e-001 4.467000e-001 7.992100e-002
      vertex 9.630050e-001 4.769730e-001 7.992100e-002
    endloop
  endfacet
  facet normal 1.305659e-001 -5.928815e-001 -7.946345e-001
    outer loop
      vertex 9.395140e-001 4.375030e-001 1.055100e-001
      vertex 9.234280e-001 4.440060e-001 9.801500e-002
      vertex 9.630050e-001 4.769730e-001 7.992100e-002
    endloop
  endfacet
  facet normal 3.748064e-001 9.271031e-001 1.508635e-005
    outer loop
      vertex 6.766640e-001 2.940700e-002 9.801500e-002
      vertex 7.154970e-001 1.370800e-002 7.992100e-002
      vertex 6.700010e-001 3.210100e-002 7.992100e-002
    endloop
  endfacet
  facet normal 3.747834e-001 9.271124e-001 -4.225891e-005
    outer loop
      vertex 6.927490e-001 2.290500e-002 1.055100e-001
      vertex 7.154970e-001 1.370800e-002 7.992100e-002
      vertex 6.766640e-001 2.940700e-002 9.801500e-002
    endloop
  endfacet
  facet normal 3.748121e-001 9.271008e-001 -1.258692e-005
    outer loop
      vertex 7.088340e-001 1.640200e-002 9.801500e-002
      vertex 7.154970e-001 1.370800e-002 7.992100e-002
      vertex 6.927490e-001 2.290500e-002 1.055100e-001
    endloop
  endfacet
  facet normal 7.998926e-001 -4.760858e-001 -3.653959e-001
    outer loop
      vertex 6.766640e-001 2.940700e-002 9.801500e-002
      vertex 9.167660e-001 4.467000e-001 7.992100e-002
      vertex 9.234280e-001 4.440060e-001 9.801500e-002
    endloop
  endfacet
  facet normal 7.998788e-001 -4.760795e-001 -3.654344e-001
    outer loop
      vertex 9.167660e-001 4.467000e-001 7.992100e-002
      vertex 6.766640e-001 2.940700e-002 9.801500e-002
      vertex 6.700010e-001 3.210100e-002 7.992100e-002
    endloop
  endfacet
  facet normal 3.441342e-001 -2.048255e-001 -9.163068e-001
    outer loop
      vertex 6.927490e-001 2.290500e-002 1.055100e-001
      vertex 9.234280e-001 4.440060e-001 9.801500e-002
      vertex 9.395140e-001 4.375030e-001 1.055100e-001
    endloop
  endfacet
  facet normal 3.441569e-001 -2.048378e-001 -9.162955e-001
    outer loop
      vertex 9.234280e-001 4.440060e-001 9.801500e-002
      vertex 6.927490e-001 2.290500e-002 1.055100e-001
      vertex 6.766640e-001 2.940700e-002 9.801500e-002
    endloop
  endfacet
  facet normal -3.441477e-001 2.048336e-001 -9.162999e-001
    outer loop
      vertex 7.088340e-001 1.640200e-002 9.801500e-002
      vertex 9.395140e-001 4.375030e-001 1.055100e-001
      vertex 9.555990e-001 4.310000e-001 9.801500e-002
    endloop
  endfacet
  facet normal -3.441487e-001 2.048342e-001 -9.162994e-001
    outer loop
      vertex 9.395140e-001 4.375030e-001 1.055100e-001
      vertex 7.088340e-001 1.640200e-002 9.801500e-002
      vertex 6.927490e-001 2.290500e-002 1.055100e-001
    endloop
  endfacet
  facet normal -7.999004e-001 4.760905e-001 -3.653727e-001
    outer loop
      vertex 7.154970e-001 1.370800e-002 7.992100e-002
      vertex 9.555990e-001 4.310000e-001 9.801500e-002
      vertex 9.622610e-001 4.283070e-001 7.992100e-002
    endloop
  endfacet
  facet normal -7.998783e-001 4.760804e-001 -3.654343e-001
    outer loop
      vertex 9.555990e-001 4.310000e-001 9.801500e-002
      vertex 7.154970e-001 1.370800e-002 7.992100e-002
      vertex 7.088340e-001 1.640200e-002 9.801500e-002
    endloop
  endfacet
  facet normal 0.000000e+000 0.000000e+000 1.000000e+000
    outer loop
      vertex 6.700010e-001 3.210100e-002 7.992100e-002
      vertex 9.622610e-001 4.283070e-001 7.992100e-002
      vertex 9.167660e-001 4.467000e-001 7.992100e-002
    endloop
  endfacet
  facet normal 0.000000e+000 0.000000e+000 1.000000e+000
    outer loop
      vertex 9.622610e-001 4.283070e-001 7.992100e-002
      vertex 6.700010e-001 3.210100e-002 7.992100e-002
      vertex 7.154970e-001 1.370800e-002 7.992100e-002
    endloop
  endfacet
  facet normal 0.000000e+000 0.000000e+000 1.000000e+000
    outer loop
      vertex 9.167660e-001 4.467000e-001 7.992100e-002
      vertex 9.622610e-001 4.283070e-001 7.992100e-002
      vertex 9.630050e-001 4.769730e-001 7.992100e-002
    endloop
  endfacet
  facet normal -4.901009e-001 -2.497350e-001 -8.351249e-001
    outer loop
      vertex 9.555990e-001 4.310000e-001 9.801500e-002
      vertex 9.395140e-001 4.375030e-001 1.055100e-001
      vertex 9.630050e-001 4.769730e-001 7.992100e-002
    endloop
  endfacet
  facet normal 7.960613e-001 0.000000e+000 6.052160e-001
    outer loop
      vertex 1.557000e-003 8.665000e-003 3.486700e-002
      vertex 2.202100e-002 4.757270e-001 7.950000e-003
      vertex 1.557000e-003 4.757270e-001 3.486700e-002
    endloop
  endfacet
  facet normal 7.960613e-001 0.000000e+000 6.052160e-001
    outer loop
      vertex 2.202100e-002 4.757270e-001 7.950000e-003
      vertex 1.557000e-003 8.665000e-003 3.486700e-002
      vertex 2.202100e-002 8.665000e-003 7.950000e-003
    endloop
  endfacet
  facet normal -3.295849e-001 -3.275595e-018 9.441259e-001
    outer loop
      vertex 2.202100e-002 8.665000e-003 7.950000e-003
      vertex 5.394400e-002 4.757270e-001 1.909400e-002
      vertex 2.202100e-002 4.757270e-001 7.950000e-003
    endloop
  endfacet
  facet normal -3.295849e-001 -3.275595e-018 9.441259e-001
    outer loop
      vertex 5.394400e-002 4.757270e-001 1.909400e-002
      vertex 2.202100e-002 8.665000e-003 7.950000e-003
      vertex 5.394400e-002 8.665000e-003 1.909400e-002
    endloop
  endfacet
  facet normal -9.997644e-001 0.000000e+000 -2.170758e-002
    outer loop
      vertex 5.394400e-002 8.665000e-003 1.909400e-002
      vertex 5.321000e-002 4.757270e-001 5.289900e-002
      vertex 5.394400e-002 4.757270e-001 1.909400e-002
    endloop
  endfacet
  facet normal -9.997644e-001 0.000000e+000 -2.170758e-002
    outer loop
      vertex 5.321000e-002 4.757270e-001 5.289900e-002
      vertex 5.394400e-002 8.665000e-003 1.909400e-002
      vertex 5.321000e-002 8.665000e-003 5.289900e-002
    endloop
  endfacet
  facet normal -2.882947e-001 0.000000e+000 -9.575417e-001
    outer loop
      vertex 5.321000e-002 8.665000e-003 5.289900e-002
      vertex 2.083300e-002 4.757270e-001 6.264700e-002
      vertex 5.321000e-002 4.757270e-001 5.289900e-002
    endloop
  endfacet
  facet normal -2.882947e-001 0.000000e+000 -9.575417e-001
    outer loop
      vertex 2.083300e-002 4.757270e-001 6.264700e-002
      vertex 5.321000e-002 8.665000e-003 5.289900e-002
      vertex 2.083300e-002 8.665000e-003 6.264700e-002
    endloop
  endfacet
  facet normal 8.215870e-001 0.000000e+000 -5.700832e-001
    outer loop
      vertex 2.083300e-002 8.665000e-003 6.264700e-002
      vertex 1.557000e-003 4.757270e-001 3.486700e-002
      vertex 2.083300e-002 4.757270e-001 6.264700e-002
    endloop
  endfacet
  facet normal 8.215870e-001 0.000000e+000 -5.700832e-001
    outer loop
      vertex 1.557000e-003 4.757270e-001 3.486700e-002
      vertex 2.083300e-002 8.665000e-003 6.264700e-002
      vertex 1.557000e-003 8.665000e-003 3.486700e-002
    endloop
  endfacet
  facet normal 0.000000e+000 -1.000000e+000 0.000000e+000
    outer loop
      vertex 1.557000e-003 4.757270e-001 3.486700e-002
      vertex 5.394400e-002 4.757270e-001 1.909400e-002
      vertex 5.321000e-002 4.757270e-001 5.289900e-002
    endloop
  endfacet
  facet normal 0.000000e+000 -1.000000e+000 0.000000e+000
    outer loop
      vertex 1.557000e-003 4.757270e-001 3.486700e-002
      vertex 5.321000e-002 4.757270e-001 5.289900e-002
      vertex 2.083300e-002 4.757270e-001 6.264700e-002
    endloop
  endfacet
  facet normal 0.000000e+000 1.000000e+000 0.000000e+000
    outer loop
      vertex 2.083300e-002 8.665000e-003 6.264700e-002
      vertex 5.321000e-002 8.665000e-003 5.289900e-002
      vertex 1.557000e-003 8.665000e-003 3.486700e-002
    endloop
  endfacet
  facet normal 0.000000e+000 1.000000e+000 0.000000e+000
    outer loop
      vertex 1.557000e-003 8.665000e-003 3.486700e-002
      vertex 5.394400e-002 8.665000e-003 1.909400e-002
      vertex 2.202100e-002 8.665000e-003 7.950000e-003
    endloop
  endfacet
  facet normal -1.332129e-001 -5.921127e-001 -7.947685e-001
    outer loop
      vertex 1.369900e-001 4.459670e-001 7.048200e-002
      vertex 1.208630e-001 4.395350e-001 7.797700e-002
      vertex 9.763000e-002 4.791090e-001 5.238800e-002
    endloop
  endfacet
  facet normal 0.000000e+000 0.000000e+000 1.000000e+000
    outer loop
      vertex 9.805500e-002 4.304400e-001 5.238800e-002
      vertex 1.436710e-001 4.486310e-001 5.238800e-002
      vertex 9.763000e-002 4.791090e-001 5.238800e-002
    endloop
  endfacet
endsolid OBJECT
